G04*
G04 #@! TF.GenerationSoftware,Altium Limited,Altium Designer,20.2.6 (244)*
G04*
G04 Layer_Color=2752767*
%FSLAX25Y25*%
%MOIN*%
G70*
G04*
G04 #@! TF.SameCoordinates,CFAAA4C9-4C41-4F38-B22A-D29D1F60BAB1*
G04*
G04*
G04 #@! TF.FilePolarity,Positive*
G04*
G01*
G75*
%ADD10C,0.01000*%
%ADD52C,0.01500*%
%ADD53C,0.00200*%
%ADD54C,0.01600*%
D10*
X1775063Y125250D02*
X1778396Y131917D01*
X1771729D02*
X1778396D01*
X1771729D02*
X1775063Y125250D01*
X1771729Y50250D02*
X1778396D01*
Y56917D01*
X1771729D02*
X1778396D01*
X1771729Y50250D02*
Y56917D01*
X2435766Y129249D02*
X2432767D01*
X2431768Y128249D01*
Y126250D01*
X2432767Y125250D01*
X2435766D01*
X2441765Y131248D02*
X2439765Y130248D01*
X2437766Y128249D01*
Y126250D01*
X2438766Y125250D01*
X2440765D01*
X2441765Y126250D01*
Y127249D01*
X2440765Y128249D01*
X2437766D01*
X2443764Y130248D02*
X2444764Y131248D01*
X2446763D01*
X2447763Y130248D01*
Y126250D01*
X2446763Y125250D01*
X2444764D01*
X2443764Y126250D01*
Y130248D01*
X2449762D02*
X2450762Y131248D01*
X2452761D01*
X2453761Y130248D01*
Y126250D01*
X2452761Y125250D01*
X2450762D01*
X2449762Y126250D01*
Y130248D01*
X2455760Y131248D02*
Y125250D01*
Y128249D01*
X2456760Y129249D01*
X2458759D01*
X2459759Y128249D01*
Y125250D01*
X2461758D02*
Y129249D01*
X2464757D01*
X2465757Y128249D01*
Y125250D01*
X2467756Y130248D02*
X2468756Y131248D01*
X2470755D01*
X2471755Y130248D01*
Y129249D01*
X2470755Y128249D01*
X2469756D01*
X2470755D01*
X2471755Y127249D01*
Y126250D01*
X2470755Y125250D01*
X2468756D01*
X2467756Y126250D01*
X2477753Y131248D02*
X2473754D01*
Y128249D01*
X2475754Y129249D01*
X2476753D01*
X2477753Y128249D01*
Y126250D01*
X2476753Y125250D01*
X2474754D01*
X2473754Y126250D01*
X2479752Y130248D02*
X2480752Y131248D01*
X2482751D01*
X2483751Y130248D01*
Y126250D01*
X2482751Y125250D01*
X2480752D01*
X2479752Y126250D01*
Y130248D01*
X2435766Y114249D02*
X2432767D01*
X2431768Y113249D01*
Y111250D01*
X2432767Y110250D01*
X2435766D01*
X2437766Y115248D02*
X2438766Y116248D01*
X2440765D01*
X2441765Y115248D01*
Y111250D01*
X2440765Y110250D01*
X2438766D01*
X2437766Y111250D01*
Y115248D01*
X2443764Y116248D02*
Y110250D01*
Y113249D01*
X2444764Y114249D01*
X2446763D01*
X2447763Y113249D01*
Y110250D01*
X2449762Y115248D02*
X2450762Y116248D01*
X2452761D01*
X2453761Y115248D01*
Y114249D01*
X2452761Y113249D01*
X2451761D01*
X2452761D01*
X2453761Y112249D01*
Y111250D01*
X2452761Y110250D01*
X2450762D01*
X2449762Y111250D01*
X2455760Y115248D02*
X2456760Y116248D01*
X2458759D01*
X2459759Y115248D01*
Y111250D01*
X2458759Y110250D01*
X2456760D01*
X2455760Y111250D01*
Y115248D01*
X2465757Y116248D02*
X2461758D01*
Y113249D01*
X2463758Y114249D01*
X2464757D01*
X2465757Y113249D01*
Y111250D01*
X2464757Y110250D01*
X2462758D01*
X2461758Y111250D01*
X2435766Y99249D02*
X2432767D01*
X2431768Y98249D01*
Y96250D01*
X2432767Y95250D01*
X2435766D01*
X2437766Y100248D02*
X2438766Y101248D01*
X2440765D01*
X2441765Y100248D01*
Y96250D01*
X2440765Y95250D01*
X2438766D01*
X2437766Y96250D01*
Y100248D01*
X2443764Y101248D02*
Y95250D01*
Y98249D01*
X2444764Y99249D01*
X2446763D01*
X2447763Y98249D01*
Y95250D01*
X2449762Y100248D02*
X2450762Y101248D01*
X2452761D01*
X2453761Y100248D01*
Y99249D01*
X2452761Y98249D01*
X2451761D01*
X2452761D01*
X2453761Y97249D01*
Y96250D01*
X2452761Y95250D01*
X2450762D01*
X2449762Y96250D01*
X2455760D02*
X2456760Y95250D01*
X2458759D01*
X2459759Y96250D01*
Y100248D01*
X2458759Y101248D01*
X2456760D01*
X2455760Y100248D01*
Y99249D01*
X2456760Y98249D01*
X2459759D01*
X2461758Y96250D02*
X2462758Y95250D01*
X2464757D01*
X2465757Y96250D01*
Y100248D01*
X2464757Y101248D01*
X2462758D01*
X2461758Y100248D01*
Y99249D01*
X2462758Y98249D01*
X2465757D01*
X2435766Y84249D02*
X2432767D01*
X2431768Y83249D01*
Y81250D01*
X2432767Y80250D01*
X2435766D01*
X2440765D02*
Y86248D01*
X2437766Y83249D01*
X2441765D01*
X2443764Y85248D02*
X2444764Y86248D01*
X2446763D01*
X2447763Y85248D01*
Y81250D01*
X2446763Y80250D01*
X2444764D01*
X2443764Y81250D01*
Y85248D01*
X2449762D02*
X2450762Y86248D01*
X2452761D01*
X2453761Y85248D01*
Y81250D01*
X2452761Y80250D01*
X2450762D01*
X2449762Y81250D01*
Y85248D01*
X2455760Y86248D02*
Y80250D01*
Y83249D01*
X2456760Y84249D01*
X2458759D01*
X2459759Y83249D01*
Y80250D01*
X2461758D02*
Y84249D01*
X2464757D01*
X2465757Y83249D01*
Y80250D01*
X2470755D02*
Y86248D01*
X2467756Y83249D01*
X2471755D01*
X2473754Y85248D02*
X2474754Y86248D01*
X2476753D01*
X2477753Y85248D01*
Y81250D01*
X2476753Y80250D01*
X2474754D01*
X2473754Y81250D01*
Y85248D01*
X2479752D02*
X2480752Y86248D01*
X2482751D01*
X2483751Y85248D01*
Y81250D01*
X2482751Y80250D01*
X2480752D01*
X2479752Y81250D01*
Y85248D01*
X2431768Y69249D02*
X2433767Y65250D01*
X2435766Y69249D01*
X2437766Y65250D02*
X2439765D01*
X2438766D01*
Y71248D01*
X2437766Y70248D01*
X2446763Y65250D02*
X2442764D01*
X2446763Y69249D01*
Y70248D01*
X2445763Y71248D01*
X2443764D01*
X2442764Y70248D01*
X2448762Y71248D02*
X2452761D01*
Y70248D01*
X2448762Y66250D01*
Y65250D01*
X2454760Y71248D02*
Y65250D01*
Y68249D01*
X2455760Y69249D01*
X2457759D01*
X2458759Y68249D01*
Y65250D01*
X2460758Y71248D02*
X2464757D01*
Y70248D01*
X2460758Y66250D01*
Y65250D01*
X2466756D02*
X2468756D01*
X2467756D01*
Y71248D01*
X2466756Y70248D01*
X2431768Y54249D02*
X2433767Y50250D01*
X2435766Y54249D01*
X2437766Y50250D02*
X2439765D01*
X2438766D01*
Y56248D01*
X2437766Y55248D01*
X2442764D02*
X2443764Y56248D01*
X2445763D01*
X2446763Y55248D01*
Y51250D01*
X2445763Y50250D01*
X2443764D01*
X2442764Y51250D01*
Y55248D01*
X2452761Y50250D02*
X2448762D01*
X2452761Y54249D01*
Y55248D01*
X2451761Y56248D01*
X2449762D01*
X2448762Y55248D01*
X2454760Y56248D02*
Y50250D01*
Y53249D01*
X2455760Y54249D01*
X2457759D01*
X2458759Y53249D01*
Y50250D01*
X2464757Y56248D02*
X2462758Y55248D01*
X2460758Y53249D01*
Y51250D01*
X2461758Y50250D01*
X2463758D01*
X2464757Y51250D01*
Y52249D01*
X2463758Y53249D01*
X2460758D01*
X2466756Y50250D02*
X2468756D01*
X2467756D01*
Y56248D01*
X2466756Y55248D01*
X2435766Y39249D02*
X2432767D01*
X2431768Y38249D01*
Y36250D01*
X2432767Y35250D01*
X2435766D01*
X2437766D02*
X2439765D01*
X2438766D01*
Y41248D01*
X2437766Y40248D01*
X2442764Y36250D02*
X2443764Y35250D01*
X2445763D01*
X2446763Y36250D01*
Y40248D01*
X2445763Y41248D01*
X2443764D01*
X2442764Y40248D01*
Y39249D01*
X2443764Y38249D01*
X2446763D01*
X2448762Y40248D02*
X2449762Y41248D01*
X2451761D01*
X2452761Y40248D01*
Y36250D01*
X2451761Y35250D01*
X2449762D01*
X2448762Y36250D01*
Y40248D01*
X2454760Y41248D02*
Y35250D01*
Y38249D01*
X2455760Y39249D01*
X2457759D01*
X2458759Y38249D01*
Y35250D01*
X2460758D02*
Y39249D01*
X2463758D01*
X2464757Y38249D01*
Y35250D01*
X2466756D02*
X2468756D01*
X2467756D01*
Y41248D01*
X2466756Y40248D01*
X2471755Y36250D02*
X2472755Y35250D01*
X2474754D01*
X2475754Y36250D01*
Y40248D01*
X2474754Y41248D01*
X2472755D01*
X2471755Y40248D01*
Y39249D01*
X2472755Y38249D01*
X2475754D01*
X2477753Y40248D02*
X2478753Y41248D01*
X2480752D01*
X2481752Y40248D01*
Y36250D01*
X2480752Y35250D01*
X2478753D01*
X2477753Y36250D01*
Y40248D01*
X2435766Y24249D02*
X2432767D01*
X2431768Y23249D01*
Y21250D01*
X2432767Y20250D01*
X2435766D01*
X2437766Y25248D02*
X2438766Y26248D01*
X2440765D01*
X2441765Y25248D01*
Y24249D01*
X2440765Y23249D01*
X2439765D01*
X2440765D01*
X2441765Y22249D01*
Y21250D01*
X2440765Y20250D01*
X2438766D01*
X2437766Y21250D01*
X2443764Y25248D02*
X2444764Y26248D01*
X2446763D01*
X2447763Y25248D01*
Y21250D01*
X2446763Y20250D01*
X2444764D01*
X2443764Y21250D01*
Y25248D01*
X2449762D02*
X2450762Y26248D01*
X2452761D01*
X2453761Y25248D01*
Y21250D01*
X2452761Y20250D01*
X2450762D01*
X2449762Y21250D01*
Y25248D01*
X2455760Y26248D02*
Y20250D01*
Y23249D01*
X2456760Y24249D01*
X2458759D01*
X2459759Y23249D01*
Y20250D01*
X2461758D02*
Y24249D01*
X2464757D01*
X2465757Y23249D01*
Y20250D01*
X2467756Y25248D02*
X2468756Y26248D01*
X2470755D01*
X2471755Y25248D01*
Y24249D01*
X2470755Y23249D01*
X2469756D01*
X2470755D01*
X2471755Y22249D01*
Y21250D01*
X2470755Y20250D01*
X2468756D01*
X2467756Y21250D01*
X2473754Y25248D02*
X2474754Y26248D01*
X2476753D01*
X2477753Y25248D01*
Y21250D01*
X2476753Y20250D01*
X2474754D01*
X2473754Y21250D01*
Y25248D01*
X2479752D02*
X2480752Y26248D01*
X2482751D01*
X2483751Y25248D01*
Y21250D01*
X2482751Y20250D01*
X2480752D01*
X2479752Y21250D01*
Y25248D01*
X2357188Y125250D02*
Y131248D01*
X2360187D01*
X2361187Y130248D01*
Y128249D01*
X2360187Y127249D01*
X2357188D01*
X2359187D02*
X2361187Y125250D01*
X2364186D02*
X2366185D01*
X2367185Y126250D01*
Y128249D01*
X2366185Y129249D01*
X2364186D01*
X2363186Y128249D01*
Y126250D01*
X2364186Y125250D01*
X2369184Y129249D02*
Y126250D01*
X2370184Y125250D01*
X2373183D01*
Y129249D01*
X2375182Y125250D02*
Y129249D01*
X2378181D01*
X2379181Y128249D01*
Y125250D01*
X2385179Y131248D02*
Y125250D01*
X2382180D01*
X2381180Y126250D01*
Y128249D01*
X2382180Y129249D01*
X2385179D01*
X2390177Y125250D02*
X2388178D01*
X2387178Y126250D01*
Y128249D01*
X2388178Y129249D01*
X2390177D01*
X2391177Y128249D01*
Y127249D01*
X2387178D01*
X2397175Y131248D02*
Y125250D01*
X2394176D01*
X2393176Y126250D01*
Y128249D01*
X2394176Y129249D01*
X2397175D01*
X2357188Y110250D02*
Y116248D01*
X2360187D01*
X2361187Y115248D01*
Y113249D01*
X2360187Y112249D01*
X2357188D01*
X2359187D02*
X2361187Y110250D01*
X2364186D02*
X2366185D01*
X2367185Y111250D01*
Y113249D01*
X2366185Y114249D01*
X2364186D01*
X2363186Y113249D01*
Y111250D01*
X2364186Y110250D01*
X2369184Y114249D02*
Y111250D01*
X2370184Y110250D01*
X2373183D01*
Y114249D01*
X2375182Y110250D02*
Y114249D01*
X2378181D01*
X2379181Y113249D01*
Y110250D01*
X2385179Y116248D02*
Y110250D01*
X2382180D01*
X2381180Y111250D01*
Y113249D01*
X2382180Y114249D01*
X2385179D01*
X2390177Y110250D02*
X2388178D01*
X2387178Y111250D01*
Y113249D01*
X2388178Y114249D01*
X2390177D01*
X2391177Y113249D01*
Y112249D01*
X2387178D01*
X2397175Y116248D02*
Y110250D01*
X2394176D01*
X2393176Y111250D01*
Y113249D01*
X2394176Y114249D01*
X2397175D01*
X2357188Y95250D02*
Y101248D01*
X2360187D01*
X2361187Y100248D01*
Y98249D01*
X2360187Y97249D01*
X2357188D01*
X2359187D02*
X2361187Y95250D01*
X2364186D02*
X2366185D01*
X2367185Y96250D01*
Y98249D01*
X2366185Y99249D01*
X2364186D01*
X2363186Y98249D01*
Y96250D01*
X2364186Y95250D01*
X2369184Y99249D02*
Y96250D01*
X2370184Y95250D01*
X2373183D01*
Y99249D01*
X2375182Y95250D02*
Y99249D01*
X2378181D01*
X2379181Y98249D01*
Y95250D01*
X2385179Y101248D02*
Y95250D01*
X2382180D01*
X2381180Y96250D01*
Y98249D01*
X2382180Y99249D01*
X2385179D01*
X2390177Y95250D02*
X2388178D01*
X2387178Y96250D01*
Y98249D01*
X2388178Y99249D01*
X2390177D01*
X2391177Y98249D01*
Y97249D01*
X2387178D01*
X2397175Y101248D02*
Y95250D01*
X2394176D01*
X2393176Y96250D01*
Y98249D01*
X2394176Y99249D01*
X2397175D01*
X2357188Y80250D02*
Y86248D01*
X2360187D01*
X2361187Y85248D01*
Y83249D01*
X2360187Y82249D01*
X2357188D01*
X2359187D02*
X2361187Y80250D01*
X2364186D02*
X2366185D01*
X2367185Y81250D01*
Y83249D01*
X2366185Y84249D01*
X2364186D01*
X2363186Y83249D01*
Y81250D01*
X2364186Y80250D01*
X2369184Y84249D02*
Y81250D01*
X2370184Y80250D01*
X2373183D01*
Y84249D01*
X2375182Y80250D02*
Y84249D01*
X2378181D01*
X2379181Y83249D01*
Y80250D01*
X2385179Y86248D02*
Y80250D01*
X2382180D01*
X2381180Y81250D01*
Y83249D01*
X2382180Y84249D01*
X2385179D01*
X2390177Y80250D02*
X2388178D01*
X2387178Y81250D01*
Y83249D01*
X2388178Y84249D01*
X2390177D01*
X2391177Y83249D01*
Y82249D01*
X2387178D01*
X2397175Y86248D02*
Y80250D01*
X2394176D01*
X2393176Y81250D01*
Y83249D01*
X2394176Y84249D01*
X2397175D01*
X2357188Y65250D02*
Y71248D01*
X2360187D01*
X2361187Y70248D01*
Y68249D01*
X2360187Y67249D01*
X2357188D01*
X2359187D02*
X2361187Y65250D01*
X2364186D02*
X2366185D01*
X2367185Y66250D01*
Y68249D01*
X2366185Y69249D01*
X2364186D01*
X2363186Y68249D01*
Y66250D01*
X2364186Y65250D01*
X2369184Y69249D02*
Y66250D01*
X2370184Y65250D01*
X2373183D01*
Y69249D01*
X2375182Y65250D02*
Y69249D01*
X2378181D01*
X2379181Y68249D01*
Y65250D01*
X2385179Y71248D02*
Y65250D01*
X2382180D01*
X2381180Y66250D01*
Y68249D01*
X2382180Y69249D01*
X2385179D01*
X2390177Y65250D02*
X2388178D01*
X2387178Y66250D01*
Y68249D01*
X2388178Y69249D01*
X2390177D01*
X2391177Y68249D01*
Y67249D01*
X2387178D01*
X2397175Y71248D02*
Y65250D01*
X2394176D01*
X2393176Y66250D01*
Y68249D01*
X2394176Y69249D01*
X2397175D01*
X2357188Y50250D02*
Y56248D01*
X2360187D01*
X2361187Y55248D01*
Y53249D01*
X2360187Y52249D01*
X2357188D01*
X2359187D02*
X2361187Y50250D01*
X2364186D02*
X2366185D01*
X2367185Y51250D01*
Y53249D01*
X2366185Y54249D01*
X2364186D01*
X2363186Y53249D01*
Y51250D01*
X2364186Y50250D01*
X2369184Y54249D02*
Y51250D01*
X2370184Y50250D01*
X2373183D01*
Y54249D01*
X2375182Y50250D02*
Y54249D01*
X2378181D01*
X2379181Y53249D01*
Y50250D01*
X2385179Y56248D02*
Y50250D01*
X2382180D01*
X2381180Y51250D01*
Y53249D01*
X2382180Y54249D01*
X2385179D01*
X2390177Y50250D02*
X2388178D01*
X2387178Y51250D01*
Y53249D01*
X2388178Y54249D01*
X2390177D01*
X2391177Y53249D01*
Y52249D01*
X2387178D01*
X2397175Y56248D02*
Y50250D01*
X2394176D01*
X2393176Y51250D01*
Y53249D01*
X2394176Y54249D01*
X2397175D01*
X2357188Y35250D02*
Y41248D01*
X2360187D01*
X2361187Y40248D01*
Y38249D01*
X2360187Y37249D01*
X2357188D01*
X2359187D02*
X2361187Y35250D01*
X2364186D02*
X2366185D01*
X2367185Y36250D01*
Y38249D01*
X2366185Y39249D01*
X2364186D01*
X2363186Y38249D01*
Y36250D01*
X2364186Y35250D01*
X2369184Y39249D02*
Y36250D01*
X2370184Y35250D01*
X2373183D01*
Y39249D01*
X2375182Y35250D02*
Y39249D01*
X2378181D01*
X2379181Y38249D01*
Y35250D01*
X2385179Y41248D02*
Y35250D01*
X2382180D01*
X2381180Y36250D01*
Y38249D01*
X2382180Y39249D01*
X2385179D01*
X2390177Y35250D02*
X2388178D01*
X2387178Y36250D01*
Y38249D01*
X2388178Y39249D01*
X2390177D01*
X2391177Y38249D01*
Y37249D01*
X2387178D01*
X2397175Y41248D02*
Y35250D01*
X2394176D01*
X2393176Y36250D01*
Y38249D01*
X2394176Y39249D01*
X2397175D01*
X2357188Y20250D02*
Y26248D01*
X2360187D01*
X2361187Y25248D01*
Y23249D01*
X2360187Y22249D01*
X2357188D01*
X2359187D02*
X2361187Y20250D01*
X2364186D02*
X2366185D01*
X2367185Y21250D01*
Y23249D01*
X2366185Y24249D01*
X2364186D01*
X2363186Y23249D01*
Y21250D01*
X2364186Y20250D01*
X2369184Y24249D02*
Y21250D01*
X2370184Y20250D01*
X2373183D01*
Y24249D01*
X2375182Y20250D02*
Y24249D01*
X2378181D01*
X2379181Y23249D01*
Y20250D01*
X2385179Y26248D02*
Y20250D01*
X2382180D01*
X2381180Y21250D01*
Y23249D01*
X2382180Y24249D01*
X2385179D01*
X2390177Y20250D02*
X2388178D01*
X2387178Y21250D01*
Y23249D01*
X2388178Y24249D01*
X2390177D01*
X2391177Y23249D01*
Y22249D01*
X2387178D01*
X2397175Y26248D02*
Y20250D01*
X2394176D01*
X2393176Y21250D01*
Y23249D01*
X2394176Y24249D01*
X2397175D01*
X2298203Y125250D02*
Y131248D01*
X2301202D01*
X2302202Y130248D01*
Y128249D01*
X2301202Y127249D01*
X2298203D01*
X2305201Y129249D02*
X2307200D01*
X2308200Y128249D01*
Y125250D01*
X2305201D01*
X2304201Y126250D01*
X2305201Y127249D01*
X2308200D01*
X2314198Y131248D02*
Y125250D01*
X2311199D01*
X2310199Y126250D01*
Y128249D01*
X2311199Y129249D01*
X2314198D01*
X2298203Y110250D02*
Y116248D01*
X2301202D01*
X2302202Y115248D01*
Y113249D01*
X2301202Y112249D01*
X2298203D01*
X2305201Y114249D02*
X2307200D01*
X2308200Y113249D01*
Y110250D01*
X2305201D01*
X2304201Y111250D01*
X2305201Y112249D01*
X2308200D01*
X2314198Y116248D02*
Y110250D01*
X2311199D01*
X2310199Y111250D01*
Y113249D01*
X2311199Y114249D01*
X2314198D01*
X2298203Y95250D02*
Y101248D01*
X2301202D01*
X2302202Y100248D01*
Y98249D01*
X2301202Y97249D01*
X2298203D01*
X2305201Y99249D02*
X2307200D01*
X2308200Y98249D01*
Y95250D01*
X2305201D01*
X2304201Y96250D01*
X2305201Y97249D01*
X2308200D01*
X2314198Y101248D02*
Y95250D01*
X2311199D01*
X2310199Y96250D01*
Y98249D01*
X2311199Y99249D01*
X2314198D01*
X2298203Y80250D02*
Y86248D01*
X2301202D01*
X2302202Y85248D01*
Y83249D01*
X2301202Y82249D01*
X2298203D01*
X2305201Y84249D02*
X2307200D01*
X2308200Y83249D01*
Y80250D01*
X2305201D01*
X2304201Y81250D01*
X2305201Y82249D01*
X2308200D01*
X2314198Y86248D02*
Y80250D01*
X2311199D01*
X2310199Y81250D01*
Y83249D01*
X2311199Y84249D01*
X2314198D01*
X2298203Y71248D02*
Y67249D01*
X2300203Y65250D01*
X2302202Y67249D01*
Y71248D01*
X2304201Y65250D02*
X2306200D01*
X2305201D01*
Y69249D01*
X2304201D01*
X2310199D02*
X2312199D01*
X2313198Y68249D01*
Y65250D01*
X2310199D01*
X2309200Y66250D01*
X2310199Y67249D01*
X2313198D01*
X2298203Y56248D02*
Y52249D01*
X2300203Y50250D01*
X2302202Y52249D01*
Y56248D01*
X2304201Y50250D02*
X2306200D01*
X2305201D01*
Y54249D01*
X2304201D01*
X2310199D02*
X2312199D01*
X2313198Y53249D01*
Y50250D01*
X2310199D01*
X2309200Y51250D01*
X2310199Y52249D01*
X2313198D01*
X2298203Y35250D02*
Y41248D01*
X2301202D01*
X2302202Y40248D01*
Y38249D01*
X2301202Y37249D01*
X2298203D01*
X2305201Y39249D02*
X2307200D01*
X2308200Y38249D01*
Y35250D01*
X2305201D01*
X2304201Y36250D01*
X2305201Y37249D01*
X2308200D01*
X2314198Y41248D02*
Y35250D01*
X2311199D01*
X2310199Y36250D01*
Y38249D01*
X2311199Y39249D01*
X2314198D01*
X2298203Y20250D02*
Y26248D01*
X2301202D01*
X2302202Y25248D01*
Y23249D01*
X2301202Y22249D01*
X2298203D01*
X2305201Y24249D02*
X2307200D01*
X2308200Y23249D01*
Y20250D01*
X2305201D01*
X2304201Y21250D01*
X2305201Y22249D01*
X2308200D01*
X2314198Y26248D02*
Y20250D01*
X2311199D01*
X2310199Y21250D01*
Y23249D01*
X2311199Y24249D01*
X2314198D01*
X2148248Y131248D02*
X2152247D01*
X2150247D01*
Y125250D01*
X2155246D02*
X2157245D01*
X2158245Y126250D01*
Y128249D01*
X2157245Y129249D01*
X2155246D01*
X2154246Y128249D01*
Y126250D01*
X2155246Y125250D01*
X2160244Y123251D02*
Y129249D01*
X2163243D01*
X2164243Y128249D01*
Y126250D01*
X2163243Y125250D01*
X2160244D01*
X2172240Y131248D02*
Y125250D01*
X2176239D01*
X2179238Y129249D02*
X2181237D01*
X2182237Y128249D01*
Y125250D01*
X2179238D01*
X2178238Y126250D01*
X2179238Y127249D01*
X2182237D01*
X2184236Y129249D02*
Y126250D01*
X2185236Y125250D01*
X2188235D01*
Y124250D01*
X2187235Y123251D01*
X2186236D01*
X2188235Y125250D02*
Y129249D01*
X2193233Y125250D02*
X2191234D01*
X2190235Y126250D01*
Y128249D01*
X2191234Y129249D01*
X2193233D01*
X2194233Y128249D01*
Y127249D01*
X2190235D01*
X2196233Y129249D02*
Y125250D01*
Y127249D01*
X2197232Y128249D01*
X2198232Y129249D01*
X2199232D01*
X2208229Y128249D02*
X2212227D01*
X2220225Y131248D02*
Y125250D01*
X2223224D01*
X2224224Y126250D01*
Y127249D01*
X2223224Y128249D01*
X2220225D01*
X2223224D01*
X2224224Y129249D01*
Y130248D01*
X2223224Y131248D01*
X2220225D01*
X2227223Y125250D02*
X2229222D01*
X2230222Y126250D01*
Y128249D01*
X2229222Y129249D01*
X2227223D01*
X2226223Y128249D01*
Y126250D01*
X2227223Y125250D01*
X2233221Y130248D02*
Y129249D01*
X2232221D01*
X2234220D01*
X2233221D01*
Y126250D01*
X2234220Y125250D01*
X2238219Y130248D02*
Y129249D01*
X2237219D01*
X2239219D01*
X2238219D01*
Y126250D01*
X2239219Y125250D01*
X2243217D02*
X2245217D01*
X2246216Y126250D01*
Y128249D01*
X2245217Y129249D01*
X2243217D01*
X2242218Y128249D01*
Y126250D01*
X2243217Y125250D01*
X2248216D02*
Y129249D01*
X2249215D01*
X2250215Y128249D01*
Y125250D01*
Y128249D01*
X2251215Y129249D01*
X2252214Y128249D01*
Y125250D01*
X2260212Y131248D02*
Y125250D01*
X2264211D01*
X2267210Y129249D02*
X2269209D01*
X2270209Y128249D01*
Y125250D01*
X2267210D01*
X2266210Y126250D01*
X2267210Y127249D01*
X2270209D01*
X2272208Y129249D02*
Y126250D01*
X2273208Y125250D01*
X2276207D01*
Y124250D01*
X2275207Y123251D01*
X2274207D01*
X2276207Y125250D02*
Y129249D01*
X2281205Y125250D02*
X2279206D01*
X2278206Y126250D01*
Y128249D01*
X2279206Y129249D01*
X2281205D01*
X2282205Y128249D01*
Y127249D01*
X2278206D01*
X2284204Y129249D02*
Y125250D01*
Y127249D01*
X2285204Y128249D01*
X2286204Y129249D01*
X2287203D01*
X2148248Y116248D02*
X2152247D01*
X2150247D01*
Y110250D01*
X2155246D02*
X2157245D01*
X2158245Y111250D01*
Y113249D01*
X2157245Y114249D01*
X2155246D01*
X2154246Y113249D01*
Y111250D01*
X2155246Y110250D01*
X2160244Y108251D02*
Y114249D01*
X2163243D01*
X2164243Y113249D01*
Y111250D01*
X2163243Y110250D01*
X2160244D01*
X2172240Y116248D02*
Y110250D01*
X2176239D01*
X2179238Y114249D02*
X2181237D01*
X2182237Y113249D01*
Y110250D01*
X2179238D01*
X2178238Y111250D01*
X2179238Y112249D01*
X2182237D01*
X2184236Y114249D02*
Y111250D01*
X2185236Y110250D01*
X2188235D01*
Y109250D01*
X2187235Y108251D01*
X2186236D01*
X2188235Y110250D02*
Y114249D01*
X2193233Y110250D02*
X2191234D01*
X2190235Y111250D01*
Y113249D01*
X2191234Y114249D01*
X2193233D01*
X2194233Y113249D01*
Y112249D01*
X2190235D01*
X2196233Y114249D02*
Y110250D01*
Y112249D01*
X2197232Y113249D01*
X2198232Y114249D01*
X2199232D01*
X2208229Y113249D02*
X2212227D01*
X2220225Y116248D02*
Y110250D01*
X2223224D01*
X2224224Y111250D01*
Y112249D01*
X2223224Y113249D01*
X2220225D01*
X2223224D01*
X2224224Y114249D01*
Y115248D01*
X2223224Y116248D01*
X2220225D01*
X2227223Y110250D02*
X2229222D01*
X2230222Y111250D01*
Y113249D01*
X2229222Y114249D01*
X2227223D01*
X2226223Y113249D01*
Y111250D01*
X2227223Y110250D01*
X2233221Y115248D02*
Y114249D01*
X2232221D01*
X2234220D01*
X2233221D01*
Y111250D01*
X2234220Y110250D01*
X2238219Y115248D02*
Y114249D01*
X2237219D01*
X2239219D01*
X2238219D01*
Y111250D01*
X2239219Y110250D01*
X2243217D02*
X2245217D01*
X2246216Y111250D01*
Y113249D01*
X2245217Y114249D01*
X2243217D01*
X2242218Y113249D01*
Y111250D01*
X2243217Y110250D01*
X2248216D02*
Y114249D01*
X2249215D01*
X2250215Y113249D01*
Y110250D01*
Y113249D01*
X2251215Y114249D01*
X2252214Y113249D01*
Y110250D01*
X2260212Y116248D02*
Y110250D01*
X2264211D01*
X2267210Y114249D02*
X2269209D01*
X2270209Y113249D01*
Y110250D01*
X2267210D01*
X2266210Y111250D01*
X2267210Y112249D01*
X2270209D01*
X2272208Y114249D02*
Y111250D01*
X2273208Y110250D01*
X2276207D01*
Y109250D01*
X2275207Y108251D01*
X2274207D01*
X2276207Y110250D02*
Y114249D01*
X2281205Y110250D02*
X2279206D01*
X2278206Y111250D01*
Y113249D01*
X2279206Y114249D01*
X2281205D01*
X2282205Y113249D01*
Y112249D01*
X2278206D01*
X2284204Y114249D02*
Y110250D01*
Y112249D01*
X2285204Y113249D01*
X2286204Y114249D01*
X2287203D01*
X2148248Y101248D02*
X2152247D01*
X2150247D01*
Y95250D01*
X2155246D02*
X2157245D01*
X2158245Y96250D01*
Y98249D01*
X2157245Y99249D01*
X2155246D01*
X2154246Y98249D01*
Y96250D01*
X2155246Y95250D01*
X2160244Y93251D02*
Y99249D01*
X2163243D01*
X2164243Y98249D01*
Y96250D01*
X2163243Y95250D01*
X2160244D01*
X2172240Y101248D02*
Y95250D01*
X2176239D01*
X2179238Y99249D02*
X2181237D01*
X2182237Y98249D01*
Y95250D01*
X2179238D01*
X2178238Y96250D01*
X2179238Y97249D01*
X2182237D01*
X2184236Y99249D02*
Y96250D01*
X2185236Y95250D01*
X2188235D01*
Y94250D01*
X2187235Y93251D01*
X2186236D01*
X2188235Y95250D02*
Y99249D01*
X2193233Y95250D02*
X2191234D01*
X2190235Y96250D01*
Y98249D01*
X2191234Y99249D01*
X2193233D01*
X2194233Y98249D01*
Y97249D01*
X2190235D01*
X2196233Y99249D02*
Y95250D01*
Y97249D01*
X2197232Y98249D01*
X2198232Y99249D01*
X2199232D01*
X2208229Y98249D02*
X2212227D01*
X2220225Y101248D02*
Y95250D01*
X2223224D01*
X2224224Y96250D01*
Y97249D01*
X2223224Y98249D01*
X2220225D01*
X2223224D01*
X2224224Y99249D01*
Y100248D01*
X2223224Y101248D01*
X2220225D01*
X2227223Y95250D02*
X2229222D01*
X2230222Y96250D01*
Y98249D01*
X2229222Y99249D01*
X2227223D01*
X2226223Y98249D01*
Y96250D01*
X2227223Y95250D01*
X2233221Y100248D02*
Y99249D01*
X2232221D01*
X2234220D01*
X2233221D01*
Y96250D01*
X2234220Y95250D01*
X2238219Y100248D02*
Y99249D01*
X2237219D01*
X2239219D01*
X2238219D01*
Y96250D01*
X2239219Y95250D01*
X2243217D02*
X2245217D01*
X2246216Y96250D01*
Y98249D01*
X2245217Y99249D01*
X2243217D01*
X2242218Y98249D01*
Y96250D01*
X2243217Y95250D01*
X2248216D02*
Y99249D01*
X2249215D01*
X2250215Y98249D01*
Y95250D01*
Y98249D01*
X2251215Y99249D01*
X2252214Y98249D01*
Y95250D01*
X2260212Y101248D02*
Y95250D01*
X2264211D01*
X2267210Y99249D02*
X2269209D01*
X2270209Y98249D01*
Y95250D01*
X2267210D01*
X2266210Y96250D01*
X2267210Y97249D01*
X2270209D01*
X2272208Y99249D02*
Y96250D01*
X2273208Y95250D01*
X2276207D01*
Y94250D01*
X2275207Y93251D01*
X2274207D01*
X2276207Y95250D02*
Y99249D01*
X2281205Y95250D02*
X2279206D01*
X2278206Y96250D01*
Y98249D01*
X2279206Y99249D01*
X2281205D01*
X2282205Y98249D01*
Y97249D01*
X2278206D01*
X2284204Y99249D02*
Y95250D01*
Y97249D01*
X2285204Y98249D01*
X2286204Y99249D01*
X2287203D01*
X2148248Y86248D02*
X2152247D01*
X2150247D01*
Y80250D01*
X2155246D02*
X2157245D01*
X2158245Y81250D01*
Y83249D01*
X2157245Y84249D01*
X2155246D01*
X2154246Y83249D01*
Y81250D01*
X2155246Y80250D01*
X2160244Y78251D02*
Y84249D01*
X2163243D01*
X2164243Y83249D01*
Y81250D01*
X2163243Y80250D01*
X2160244D01*
X2172240Y86248D02*
Y80250D01*
X2176239D01*
X2179238Y84249D02*
X2181237D01*
X2182237Y83249D01*
Y80250D01*
X2179238D01*
X2178238Y81250D01*
X2179238Y82249D01*
X2182237D01*
X2184236Y84249D02*
Y81250D01*
X2185236Y80250D01*
X2188235D01*
Y79250D01*
X2187235Y78251D01*
X2186236D01*
X2188235Y80250D02*
Y84249D01*
X2193233Y80250D02*
X2191234D01*
X2190235Y81250D01*
Y83249D01*
X2191234Y84249D01*
X2193233D01*
X2194233Y83249D01*
Y82249D01*
X2190235D01*
X2196233Y84249D02*
Y80250D01*
Y82249D01*
X2197232Y83249D01*
X2198232Y84249D01*
X2199232D01*
X2208229Y83249D02*
X2212227D01*
X2220225Y86248D02*
Y80250D01*
X2223224D01*
X2224224Y81250D01*
Y82249D01*
X2223224Y83249D01*
X2220225D01*
X2223224D01*
X2224224Y84249D01*
Y85248D01*
X2223224Y86248D01*
X2220225D01*
X2227223Y80250D02*
X2229222D01*
X2230222Y81250D01*
Y83249D01*
X2229222Y84249D01*
X2227223D01*
X2226223Y83249D01*
Y81250D01*
X2227223Y80250D01*
X2233221Y85248D02*
Y84249D01*
X2232221D01*
X2234220D01*
X2233221D01*
Y81250D01*
X2234220Y80250D01*
X2238219Y85248D02*
Y84249D01*
X2237219D01*
X2239219D01*
X2238219D01*
Y81250D01*
X2239219Y80250D01*
X2243217D02*
X2245217D01*
X2246216Y81250D01*
Y83249D01*
X2245217Y84249D01*
X2243217D01*
X2242218Y83249D01*
Y81250D01*
X2243217Y80250D01*
X2248216D02*
Y84249D01*
X2249215D01*
X2250215Y83249D01*
Y80250D01*
Y83249D01*
X2251215Y84249D01*
X2252214Y83249D01*
Y80250D01*
X2260212Y86248D02*
Y80250D01*
X2264211D01*
X2267210Y84249D02*
X2269209D01*
X2270209Y83249D01*
Y80250D01*
X2267210D01*
X2266210Y81250D01*
X2267210Y82249D01*
X2270209D01*
X2272208Y84249D02*
Y81250D01*
X2273208Y80250D01*
X2276207D01*
Y79250D01*
X2275207Y78251D01*
X2274207D01*
X2276207Y80250D02*
Y84249D01*
X2281205Y80250D02*
X2279206D01*
X2278206Y81250D01*
Y83249D01*
X2279206Y84249D01*
X2281205D01*
X2282205Y83249D01*
Y82249D01*
X2278206D01*
X2284204Y84249D02*
Y80250D01*
Y82249D01*
X2285204Y83249D01*
X2286204Y84249D01*
X2287203D01*
X2148248Y71248D02*
X2152247D01*
X2150247D01*
Y65250D01*
X2155246D02*
X2157245D01*
X2158245Y66250D01*
Y68249D01*
X2157245Y69249D01*
X2155246D01*
X2154246Y68249D01*
Y66250D01*
X2155246Y65250D01*
X2160244Y63251D02*
Y69249D01*
X2163243D01*
X2164243Y68249D01*
Y66250D01*
X2163243Y65250D01*
X2160244D01*
X2172240Y71248D02*
Y65250D01*
X2176239D01*
X2179238Y69249D02*
X2181237D01*
X2182237Y68249D01*
Y65250D01*
X2179238D01*
X2178238Y66250D01*
X2179238Y67249D01*
X2182237D01*
X2184236Y69249D02*
Y66250D01*
X2185236Y65250D01*
X2188235D01*
Y64250D01*
X2187235Y63251D01*
X2186236D01*
X2188235Y65250D02*
Y69249D01*
X2193233Y65250D02*
X2191234D01*
X2190235Y66250D01*
Y68249D01*
X2191234Y69249D01*
X2193233D01*
X2194233Y68249D01*
Y67249D01*
X2190235D01*
X2196233Y69249D02*
Y65250D01*
Y67249D01*
X2197232Y68249D01*
X2198232Y69249D01*
X2199232D01*
X2208229Y68249D02*
X2212227D01*
X2220225Y71248D02*
Y65250D01*
X2223224D01*
X2224224Y66250D01*
Y67249D01*
X2223224Y68249D01*
X2220225D01*
X2223224D01*
X2224224Y69249D01*
Y70248D01*
X2223224Y71248D01*
X2220225D01*
X2227223Y65250D02*
X2229222D01*
X2230222Y66250D01*
Y68249D01*
X2229222Y69249D01*
X2227223D01*
X2226223Y68249D01*
Y66250D01*
X2227223Y65250D01*
X2233221Y70248D02*
Y69249D01*
X2232221D01*
X2234220D01*
X2233221D01*
Y66250D01*
X2234220Y65250D01*
X2238219Y70248D02*
Y69249D01*
X2237219D01*
X2239219D01*
X2238219D01*
Y66250D01*
X2239219Y65250D01*
X2243217D02*
X2245217D01*
X2246216Y66250D01*
Y68249D01*
X2245217Y69249D01*
X2243217D01*
X2242218Y68249D01*
Y66250D01*
X2243217Y65250D01*
X2248216D02*
Y69249D01*
X2249215D01*
X2250215Y68249D01*
Y65250D01*
Y68249D01*
X2251215Y69249D01*
X2252214Y68249D01*
Y65250D01*
X2260212Y71248D02*
Y65250D01*
X2264211D01*
X2267210Y69249D02*
X2269209D01*
X2270209Y68249D01*
Y65250D01*
X2267210D01*
X2266210Y66250D01*
X2267210Y67249D01*
X2270209D01*
X2272208Y69249D02*
Y66250D01*
X2273208Y65250D01*
X2276207D01*
Y64250D01*
X2275207Y63251D01*
X2274207D01*
X2276207Y65250D02*
Y69249D01*
X2281205Y65250D02*
X2279206D01*
X2278206Y66250D01*
Y68249D01*
X2279206Y69249D01*
X2281205D01*
X2282205Y68249D01*
Y67249D01*
X2278206D01*
X2284204Y69249D02*
Y65250D01*
Y67249D01*
X2285204Y68249D01*
X2286204Y69249D01*
X2287203D01*
X2148248Y56248D02*
X2152247D01*
X2150247D01*
Y50250D01*
X2155246D02*
X2157245D01*
X2158245Y51250D01*
Y53249D01*
X2157245Y54249D01*
X2155246D01*
X2154246Y53249D01*
Y51250D01*
X2155246Y50250D01*
X2160244Y48251D02*
Y54249D01*
X2163243D01*
X2164243Y53249D01*
Y51250D01*
X2163243Y50250D01*
X2160244D01*
X2172240Y56248D02*
Y50250D01*
X2176239D01*
X2179238Y54249D02*
X2181237D01*
X2182237Y53249D01*
Y50250D01*
X2179238D01*
X2178238Y51250D01*
X2179238Y52249D01*
X2182237D01*
X2184236Y54249D02*
Y51250D01*
X2185236Y50250D01*
X2188235D01*
Y49250D01*
X2187235Y48251D01*
X2186236D01*
X2188235Y50250D02*
Y54249D01*
X2193233Y50250D02*
X2191234D01*
X2190235Y51250D01*
Y53249D01*
X2191234Y54249D01*
X2193233D01*
X2194233Y53249D01*
Y52249D01*
X2190235D01*
X2196233Y54249D02*
Y50250D01*
Y52249D01*
X2197232Y53249D01*
X2198232Y54249D01*
X2199232D01*
X2208229Y53249D02*
X2212227D01*
X2220225Y56248D02*
Y50250D01*
X2223224D01*
X2224224Y51250D01*
Y52249D01*
X2223224Y53249D01*
X2220225D01*
X2223224D01*
X2224224Y54249D01*
Y55248D01*
X2223224Y56248D01*
X2220225D01*
X2227223Y50250D02*
X2229222D01*
X2230222Y51250D01*
Y53249D01*
X2229222Y54249D01*
X2227223D01*
X2226223Y53249D01*
Y51250D01*
X2227223Y50250D01*
X2233221Y55248D02*
Y54249D01*
X2232221D01*
X2234220D01*
X2233221D01*
Y51250D01*
X2234220Y50250D01*
X2238219Y55248D02*
Y54249D01*
X2237219D01*
X2239219D01*
X2238219D01*
Y51250D01*
X2239219Y50250D01*
X2243217D02*
X2245217D01*
X2246216Y51250D01*
Y53249D01*
X2245217Y54249D01*
X2243217D01*
X2242218Y53249D01*
Y51250D01*
X2243217Y50250D01*
X2248216D02*
Y54249D01*
X2249215D01*
X2250215Y53249D01*
Y50250D01*
Y53249D01*
X2251215Y54249D01*
X2252214Y53249D01*
Y50250D01*
X2260212Y56248D02*
Y50250D01*
X2264211D01*
X2267210Y54249D02*
X2269209D01*
X2270209Y53249D01*
Y50250D01*
X2267210D01*
X2266210Y51250D01*
X2267210Y52249D01*
X2270209D01*
X2272208Y54249D02*
Y51250D01*
X2273208Y50250D01*
X2276207D01*
Y49250D01*
X2275207Y48251D01*
X2274207D01*
X2276207Y50250D02*
Y54249D01*
X2281205Y50250D02*
X2279206D01*
X2278206Y51250D01*
Y53249D01*
X2279206Y54249D01*
X2281205D01*
X2282205Y53249D01*
Y52249D01*
X2278206D01*
X2284204Y54249D02*
Y50250D01*
Y52249D01*
X2285204Y53249D01*
X2286204Y54249D01*
X2287203D01*
X2148248Y41248D02*
X2152247D01*
X2150247D01*
Y35250D01*
X2155246D02*
X2157245D01*
X2158245Y36250D01*
Y38249D01*
X2157245Y39249D01*
X2155246D01*
X2154246Y38249D01*
Y36250D01*
X2155246Y35250D01*
X2160244Y33251D02*
Y39249D01*
X2163243D01*
X2164243Y38249D01*
Y36250D01*
X2163243Y35250D01*
X2160244D01*
X2172240Y41248D02*
Y35250D01*
X2176239D01*
X2179238Y39249D02*
X2181237D01*
X2182237Y38249D01*
Y35250D01*
X2179238D01*
X2178238Y36250D01*
X2179238Y37249D01*
X2182237D01*
X2184236Y39249D02*
Y36250D01*
X2185236Y35250D01*
X2188235D01*
Y34250D01*
X2187235Y33251D01*
X2186236D01*
X2188235Y35250D02*
Y39249D01*
X2193233Y35250D02*
X2191234D01*
X2190235Y36250D01*
Y38249D01*
X2191234Y39249D01*
X2193233D01*
X2194233Y38249D01*
Y37249D01*
X2190235D01*
X2196233Y39249D02*
Y35250D01*
Y37249D01*
X2197232Y38249D01*
X2198232Y39249D01*
X2199232D01*
X2208229Y38249D02*
X2212227D01*
X2220225Y41248D02*
Y35250D01*
X2223224D01*
X2224224Y36250D01*
Y37249D01*
X2223224Y38249D01*
X2220225D01*
X2223224D01*
X2224224Y39249D01*
Y40248D01*
X2223224Y41248D01*
X2220225D01*
X2227223Y35250D02*
X2229222D01*
X2230222Y36250D01*
Y38249D01*
X2229222Y39249D01*
X2227223D01*
X2226223Y38249D01*
Y36250D01*
X2227223Y35250D01*
X2233221Y40248D02*
Y39249D01*
X2232221D01*
X2234220D01*
X2233221D01*
Y36250D01*
X2234220Y35250D01*
X2238219Y40248D02*
Y39249D01*
X2237219D01*
X2239219D01*
X2238219D01*
Y36250D01*
X2239219Y35250D01*
X2243217D02*
X2245217D01*
X2246216Y36250D01*
Y38249D01*
X2245217Y39249D01*
X2243217D01*
X2242218Y38249D01*
Y36250D01*
X2243217Y35250D01*
X2248216D02*
Y39249D01*
X2249215D01*
X2250215Y38249D01*
Y35250D01*
Y38249D01*
X2251215Y39249D01*
X2252214Y38249D01*
Y35250D01*
X2260212Y41248D02*
Y35250D01*
X2264211D01*
X2267210Y39249D02*
X2269209D01*
X2270209Y38249D01*
Y35250D01*
X2267210D01*
X2266210Y36250D01*
X2267210Y37249D01*
X2270209D01*
X2272208Y39249D02*
Y36250D01*
X2273208Y35250D01*
X2276207D01*
Y34250D01*
X2275207Y33251D01*
X2274207D01*
X2276207Y35250D02*
Y39249D01*
X2281205Y35250D02*
X2279206D01*
X2278206Y36250D01*
Y38249D01*
X2279206Y39249D01*
X2281205D01*
X2282205Y38249D01*
Y37249D01*
X2278206D01*
X2284204Y39249D02*
Y35250D01*
Y37249D01*
X2285204Y38249D01*
X2286204Y39249D01*
X2287203D01*
X2148248Y26248D02*
X2152247D01*
X2150247D01*
Y20250D01*
X2155246D02*
X2157245D01*
X2158245Y21250D01*
Y23249D01*
X2157245Y24249D01*
X2155246D01*
X2154246Y23249D01*
Y21250D01*
X2155246Y20250D01*
X2160244Y18251D02*
Y24249D01*
X2163243D01*
X2164243Y23249D01*
Y21250D01*
X2163243Y20250D01*
X2160244D01*
X2172240Y26248D02*
Y20250D01*
X2176239D01*
X2179238Y24249D02*
X2181237D01*
X2182237Y23249D01*
Y20250D01*
X2179238D01*
X2178238Y21250D01*
X2179238Y22249D01*
X2182237D01*
X2184236Y24249D02*
Y21250D01*
X2185236Y20250D01*
X2188235D01*
Y19250D01*
X2187235Y18251D01*
X2186236D01*
X2188235Y20250D02*
Y24249D01*
X2193233Y20250D02*
X2191234D01*
X2190235Y21250D01*
Y23249D01*
X2191234Y24249D01*
X2193233D01*
X2194233Y23249D01*
Y22249D01*
X2190235D01*
X2196233Y24249D02*
Y20250D01*
Y22249D01*
X2197232Y23249D01*
X2198232Y24249D01*
X2199232D01*
X2208229Y23249D02*
X2212227D01*
X2220225Y26248D02*
Y20250D01*
X2223224D01*
X2224224Y21250D01*
Y22249D01*
X2223224Y23249D01*
X2220225D01*
X2223224D01*
X2224224Y24249D01*
Y25248D01*
X2223224Y26248D01*
X2220225D01*
X2227223Y20250D02*
X2229222D01*
X2230222Y21250D01*
Y23249D01*
X2229222Y24249D01*
X2227223D01*
X2226223Y23249D01*
Y21250D01*
X2227223Y20250D01*
X2233221Y25248D02*
Y24249D01*
X2232221D01*
X2234220D01*
X2233221D01*
Y21250D01*
X2234220Y20250D01*
X2238219Y25248D02*
Y24249D01*
X2237219D01*
X2239219D01*
X2238219D01*
Y21250D01*
X2239219Y20250D01*
X2243217D02*
X2245217D01*
X2246216Y21250D01*
Y23249D01*
X2245217Y24249D01*
X2243217D01*
X2242218Y23249D01*
Y21250D01*
X2243217Y20250D01*
X2248216D02*
Y24249D01*
X2249215D01*
X2250215Y23249D01*
Y20250D01*
Y23249D01*
X2251215Y24249D01*
X2252214Y23249D01*
Y20250D01*
X2260212Y26248D02*
Y20250D01*
X2264211D01*
X2267210Y24249D02*
X2269209D01*
X2270209Y23249D01*
Y20250D01*
X2267210D01*
X2266210Y21250D01*
X2267210Y22249D01*
X2270209D01*
X2272208Y24249D02*
Y21250D01*
X2273208Y20250D01*
X2276207D01*
Y19250D01*
X2275207Y18251D01*
X2274207D01*
X2276207Y20250D02*
Y24249D01*
X2281205Y20250D02*
X2279206D01*
X2278206Y21250D01*
Y23249D01*
X2279206Y24249D01*
X2281205D01*
X2282205Y23249D01*
Y22249D01*
X2278206D01*
X2284204Y24249D02*
Y20250D01*
Y22249D01*
X2285204Y23249D01*
X2286204Y24249D01*
X2287203D01*
X2074868Y125250D02*
Y131248D01*
X2077867D01*
X2078867Y130248D01*
Y128249D01*
X2077867Y127249D01*
X2074868D01*
X2076867D02*
X2078867Y125250D01*
X2081866D02*
X2083865D01*
X2084865Y126250D01*
Y128249D01*
X2083865Y129249D01*
X2081866D01*
X2080866Y128249D01*
Y126250D01*
X2081866Y125250D01*
X2086864Y129249D02*
Y126250D01*
X2087864Y125250D01*
X2090863D01*
Y129249D01*
X2092862Y125250D02*
Y129249D01*
X2095861D01*
X2096861Y128249D01*
Y125250D01*
X2102859Y131248D02*
Y125250D01*
X2099860D01*
X2098860Y126250D01*
Y128249D01*
X2099860Y129249D01*
X2102859D01*
X2074868Y110250D02*
Y116248D01*
X2077867D01*
X2078867Y115248D01*
Y113249D01*
X2077867Y112249D01*
X2074868D01*
X2076867D02*
X2078867Y110250D01*
X2081866D02*
X2083865D01*
X2084865Y111250D01*
Y113249D01*
X2083865Y114249D01*
X2081866D01*
X2080866Y113249D01*
Y111250D01*
X2081866Y110250D01*
X2086864Y114249D02*
Y111250D01*
X2087864Y110250D01*
X2090863D01*
Y114249D01*
X2092862Y110250D02*
Y114249D01*
X2095861D01*
X2096861Y113249D01*
Y110250D01*
X2102859Y116248D02*
Y110250D01*
X2099860D01*
X2098860Y111250D01*
Y113249D01*
X2099860Y114249D01*
X2102859D01*
X2074868Y95250D02*
Y101248D01*
X2077867D01*
X2078867Y100248D01*
Y98249D01*
X2077867Y97249D01*
X2074868D01*
X2076867D02*
X2078867Y95250D01*
X2081866D02*
X2083865D01*
X2084865Y96250D01*
Y98249D01*
X2083865Y99249D01*
X2081866D01*
X2080866Y98249D01*
Y96250D01*
X2081866Y95250D01*
X2086864Y99249D02*
Y96250D01*
X2087864Y95250D01*
X2090863D01*
Y99249D01*
X2092862Y95250D02*
Y99249D01*
X2095861D01*
X2096861Y98249D01*
Y95250D01*
X2102859Y101248D02*
Y95250D01*
X2099860D01*
X2098860Y96250D01*
Y98249D01*
X2099860Y99249D01*
X2102859D01*
X2074868Y80250D02*
Y86248D01*
X2077867D01*
X2078867Y85248D01*
Y83249D01*
X2077867Y82249D01*
X2074868D01*
X2076867D02*
X2078867Y80250D01*
X2081866D02*
X2083865D01*
X2084865Y81250D01*
Y83249D01*
X2083865Y84249D01*
X2081866D01*
X2080866Y83249D01*
Y81250D01*
X2081866Y80250D01*
X2086864Y84249D02*
Y81250D01*
X2087864Y80250D01*
X2090863D01*
Y84249D01*
X2092862Y80250D02*
Y84249D01*
X2095861D01*
X2096861Y83249D01*
Y80250D01*
X2102859Y86248D02*
Y80250D01*
X2099860D01*
X2098860Y81250D01*
Y83249D01*
X2099860Y84249D01*
X2102859D01*
X2074868Y65250D02*
Y71248D01*
X2077867D01*
X2078867Y70248D01*
Y68249D01*
X2077867Y67249D01*
X2074868D01*
X2076867D02*
X2078867Y65250D01*
X2081866D02*
X2083865D01*
X2084865Y66250D01*
Y68249D01*
X2083865Y69249D01*
X2081866D01*
X2080866Y68249D01*
Y66250D01*
X2081866Y65250D01*
X2086864Y69249D02*
Y66250D01*
X2087864Y65250D01*
X2090863D01*
Y69249D01*
X2092862Y65250D02*
Y69249D01*
X2095861D01*
X2096861Y68249D01*
Y65250D01*
X2102859Y71248D02*
Y65250D01*
X2099860D01*
X2098860Y66250D01*
Y68249D01*
X2099860Y69249D01*
X2102859D01*
X2074868Y50250D02*
Y56248D01*
X2077867D01*
X2078867Y55248D01*
Y53249D01*
X2077867Y52249D01*
X2074868D01*
X2076867D02*
X2078867Y50250D01*
X2081866D02*
X2083865D01*
X2084865Y51250D01*
Y53249D01*
X2083865Y54249D01*
X2081866D01*
X2080866Y53249D01*
Y51250D01*
X2081866Y50250D01*
X2086864Y54249D02*
Y51250D01*
X2087864Y50250D01*
X2090863D01*
Y54249D01*
X2092862Y50250D02*
Y54249D01*
X2095861D01*
X2096861Y53249D01*
Y50250D01*
X2102859Y56248D02*
Y50250D01*
X2099860D01*
X2098860Y51250D01*
Y53249D01*
X2099860Y54249D01*
X2102859D01*
X2074868Y35250D02*
Y41248D01*
X2077867D01*
X2078867Y40248D01*
Y38249D01*
X2077867Y37249D01*
X2074868D01*
X2076867D02*
X2078867Y35250D01*
X2081866D02*
X2083865D01*
X2084865Y36250D01*
Y38249D01*
X2083865Y39249D01*
X2081866D01*
X2080866Y38249D01*
Y36250D01*
X2081866Y35250D01*
X2086864Y39249D02*
Y36250D01*
X2087864Y35250D01*
X2090863D01*
Y39249D01*
X2092862Y35250D02*
Y39249D01*
X2095861D01*
X2096861Y38249D01*
Y35250D01*
X2102859Y41248D02*
Y35250D01*
X2099860D01*
X2098860Y36250D01*
Y38249D01*
X2099860Y39249D01*
X2102859D01*
X2074868Y20250D02*
Y26248D01*
X2077867D01*
X2078867Y25248D01*
Y23249D01*
X2077867Y22249D01*
X2074868D01*
X2076867D02*
X2078867Y20250D01*
X2081866D02*
X2083865D01*
X2084865Y21250D01*
Y23249D01*
X2083865Y24249D01*
X2081866D01*
X2080866Y23249D01*
Y21250D01*
X2081866Y20250D01*
X2086864Y24249D02*
Y21250D01*
X2087864Y20250D01*
X2090863D01*
Y24249D01*
X2092862Y20250D02*
Y24249D01*
X2095861D01*
X2096861Y23249D01*
Y20250D01*
X2102859Y26248D02*
Y20250D01*
X2099860D01*
X2098860Y21250D01*
Y23249D01*
X2099860Y24249D01*
X2102859D01*
X2024280Y125250D02*
Y131248D01*
X2028279Y125250D01*
Y131248D01*
X2030278Y125250D02*
Y131248D01*
X2033277D01*
X2034277Y130248D01*
Y128249D01*
X2033277Y127249D01*
X2030278D01*
X2036276Y131248D02*
X2040275D01*
X2038276D01*
Y125250D01*
X2042274Y131248D02*
Y125250D01*
Y128249D01*
X2046273D01*
Y131248D01*
Y125250D01*
X2024280Y110250D02*
Y116248D01*
X2027279D01*
X2028279Y115248D01*
Y113249D01*
X2027279Y112249D01*
X2024280D01*
X2030278Y116248D02*
X2034277D01*
X2032278D01*
Y110250D01*
X2036276Y116248D02*
Y110250D01*
Y113249D01*
X2040275D01*
Y116248D01*
Y110250D01*
X2024280Y95250D02*
Y101248D01*
X2027279D01*
X2028279Y100248D01*
Y98249D01*
X2027279Y97249D01*
X2024280D01*
X2030278Y101248D02*
X2034277D01*
X2032278D01*
Y95250D01*
X2036276Y101248D02*
Y95250D01*
Y98249D01*
X2040275D01*
Y101248D01*
Y95250D01*
X2024280Y80250D02*
Y86248D01*
X2028279Y80250D01*
Y86248D01*
X2030278Y80250D02*
Y86248D01*
X2033277D01*
X2034277Y85248D01*
Y83249D01*
X2033277Y82249D01*
X2030278D01*
X2036276Y86248D02*
X2040275D01*
X2038276D01*
Y80250D01*
X2042274Y86248D02*
Y80250D01*
Y83249D01*
X2046273D01*
Y86248D01*
Y80250D01*
X2024280Y65250D02*
Y71248D01*
X2027279D01*
X2028279Y70248D01*
Y68249D01*
X2027279Y67249D01*
X2024280D01*
X2030278Y71248D02*
X2034277D01*
X2032278D01*
Y65250D01*
X2036276Y71248D02*
Y65250D01*
Y68249D01*
X2040275D01*
Y71248D01*
Y65250D01*
X2024280Y50250D02*
Y56248D01*
X2027279D01*
X2028279Y55248D01*
Y53249D01*
X2027279Y52249D01*
X2024280D01*
X2030278Y56248D02*
X2034277D01*
X2032278D01*
Y50250D01*
X2036276Y56248D02*
Y50250D01*
Y53249D01*
X2040275D01*
Y56248D01*
Y50250D01*
X2024280Y35250D02*
Y41248D01*
X2028279Y35250D01*
Y41248D01*
X2030278Y35250D02*
Y41248D01*
X2033277D01*
X2034277Y40248D01*
Y38249D01*
X2033277Y37249D01*
X2030278D01*
X2036276Y41248D02*
X2040275D01*
X2038276D01*
Y35250D01*
X2042274Y41248D02*
Y35250D01*
Y38249D01*
X2046273D01*
Y41248D01*
Y35250D01*
X2024280Y20250D02*
Y26248D01*
X2028279Y20250D01*
Y26248D01*
X2030278Y20250D02*
Y26248D01*
X2033277D01*
X2034277Y25248D01*
Y23249D01*
X2033277Y22249D01*
X2030278D01*
X2036276Y26248D02*
X2040275D01*
X2038276D01*
Y20250D01*
X2042274Y26248D02*
Y20250D01*
Y23249D01*
X2046273D01*
Y26248D01*
Y20250D01*
X1885322Y125250D02*
X1887321D01*
X1886321D01*
Y131248D01*
X1885322Y130248D01*
X1890320D02*
X1891320Y131248D01*
X1893319D01*
X1894319Y130248D01*
Y129249D01*
X1893319Y128249D01*
X1892319D01*
X1893319D01*
X1894319Y127249D01*
Y126250D01*
X1893319Y125250D01*
X1891320D01*
X1890320Y126250D01*
X1896318Y131248D02*
X1900317D01*
Y130248D01*
X1896318Y126250D01*
Y125250D01*
X1902316D02*
Y126250D01*
X1903316D01*
Y125250D01*
X1902316D01*
X1907315Y131248D02*
X1911313D01*
Y130248D01*
X1907315Y126250D01*
Y125250D01*
X1913313Y126250D02*
X1914312Y125250D01*
X1916312D01*
X1917311Y126250D01*
Y130248D01*
X1916312Y131248D01*
X1914312D01*
X1913313Y130248D01*
Y129249D01*
X1914312Y128249D01*
X1917311D01*
X1923309Y131248D02*
X1919311D01*
Y128249D01*
X1921310Y129249D01*
X1922310D01*
X1923309Y128249D01*
Y126250D01*
X1922310Y125250D01*
X1920310D01*
X1919311Y126250D01*
X1925309Y130248D02*
X1926308Y131248D01*
X1928308D01*
X1929308Y130248D01*
Y126250D01*
X1928308Y125250D01*
X1926308D01*
X1925309Y126250D01*
Y130248D01*
X1931307Y125250D02*
Y129249D01*
X1932306D01*
X1933306Y128249D01*
Y125250D01*
Y128249D01*
X1934306Y129249D01*
X1935305Y128249D01*
Y125250D01*
X1937305D02*
X1939304D01*
X1938305D01*
Y129249D01*
X1937305D01*
X1942303Y125250D02*
X1944303D01*
X1943303D01*
Y131248D01*
X1942303D01*
X1955299Y125250D02*
X1953300Y127249D01*
Y129249D01*
X1955299Y131248D01*
X1958298Y130248D02*
X1959298Y131248D01*
X1961297D01*
X1962297Y130248D01*
Y129249D01*
X1961297Y128249D01*
X1960298D01*
X1961297D01*
X1962297Y127249D01*
Y126250D01*
X1961297Y125250D01*
X1959298D01*
X1958298Y126250D01*
X1964296Y125250D02*
Y126250D01*
X1965296D01*
Y125250D01*
X1964296D01*
X1973293Y131248D02*
X1969295D01*
Y128249D01*
X1971294Y129249D01*
X1972294D01*
X1973293Y128249D01*
Y126250D01*
X1972294Y125250D01*
X1970294D01*
X1969295Y126250D01*
X1975293Y130248D02*
X1976292Y131248D01*
X1978292D01*
X1979291Y130248D01*
Y126250D01*
X1978292Y125250D01*
X1976292D01*
X1975293Y126250D01*
Y130248D01*
X1981291D02*
X1982290Y131248D01*
X1984290D01*
X1985289Y130248D01*
Y126250D01*
X1984290Y125250D01*
X1982290D01*
X1981291Y126250D01*
Y130248D01*
X1987289D02*
X1988288Y131248D01*
X1990288D01*
X1991287Y130248D01*
Y126250D01*
X1990288Y125250D01*
X1988288D01*
X1987289Y126250D01*
Y130248D01*
X1993287D02*
X1994287Y131248D01*
X1996286D01*
X1997285Y130248D01*
Y126250D01*
X1996286Y125250D01*
X1994287D01*
X1993287Y126250D01*
Y130248D01*
X1999285Y125250D02*
Y129249D01*
X2000285D01*
X2001284Y128249D01*
Y125250D01*
Y128249D01*
X2002284Y129249D01*
X2003284Y128249D01*
Y125250D01*
X2005283D02*
Y129249D01*
X2006283D01*
X2007282Y128249D01*
Y125250D01*
Y128249D01*
X2008282Y129249D01*
X2009282Y128249D01*
Y125250D01*
X2011281D02*
X2013280Y127249D01*
Y129249D01*
X2011281Y131248D01*
X1885322Y110250D02*
X1887321D01*
X1886321D01*
Y116248D01*
X1885322Y115248D01*
X1894319Y110250D02*
X1890320D01*
X1894319Y114249D01*
Y115248D01*
X1893319Y116248D01*
X1891320D01*
X1890320Y115248D01*
X1896318D02*
X1897318Y116248D01*
X1899317D01*
X1900317Y115248D01*
Y111250D01*
X1899317Y110250D01*
X1897318D01*
X1896318Y111250D01*
Y115248D01*
X1902316Y110250D02*
Y111250D01*
X1903316D01*
Y110250D01*
X1902316D01*
X1907315Y115248D02*
X1908314Y116248D01*
X1910314D01*
X1911313Y115248D01*
Y111250D01*
X1910314Y110250D01*
X1908314D01*
X1907315Y111250D01*
Y115248D01*
X1913313D02*
X1914312Y116248D01*
X1916312D01*
X1917311Y115248D01*
Y111250D01*
X1916312Y110250D01*
X1914312D01*
X1913313Y111250D01*
Y115248D01*
X1919311D02*
X1920310Y116248D01*
X1922310D01*
X1923309Y115248D01*
Y111250D01*
X1922310Y110250D01*
X1920310D01*
X1919311Y111250D01*
Y115248D01*
X1925309D02*
X1926308Y116248D01*
X1928308D01*
X1929308Y115248D01*
Y111250D01*
X1928308Y110250D01*
X1926308D01*
X1925309Y111250D01*
Y115248D01*
X1931307Y110250D02*
Y114249D01*
X1932306D01*
X1933306Y113249D01*
Y110250D01*
Y113249D01*
X1934306Y114249D01*
X1935305Y113249D01*
Y110250D01*
X1937305D02*
X1939304D01*
X1938305D01*
Y114249D01*
X1937305D01*
X1942303Y110250D02*
X1944303D01*
X1943303D01*
Y116248D01*
X1942303D01*
X1955299Y110250D02*
X1953300Y112249D01*
Y114249D01*
X1955299Y116248D01*
X1958298Y115248D02*
X1959298Y116248D01*
X1961297D01*
X1962297Y115248D01*
Y114249D01*
X1961297Y113249D01*
X1960298D01*
X1961297D01*
X1962297Y112249D01*
Y111250D01*
X1961297Y110250D01*
X1959298D01*
X1958298Y111250D01*
X1964296Y110250D02*
Y111250D01*
X1965296D01*
Y110250D01*
X1964296D01*
X1969295Y115248D02*
X1970294Y116248D01*
X1972294D01*
X1973293Y115248D01*
Y111250D01*
X1972294Y110250D01*
X1970294D01*
X1969295Y111250D01*
Y115248D01*
X1978292Y110250D02*
Y116248D01*
X1975293Y113249D01*
X1979291D01*
X1981291Y115248D02*
X1982290Y116248D01*
X1984290D01*
X1985289Y115248D01*
Y114249D01*
X1984290Y113249D01*
X1985289Y112249D01*
Y111250D01*
X1984290Y110250D01*
X1982290D01*
X1981291Y111250D01*
Y112249D01*
X1982290Y113249D01*
X1981291Y114249D01*
Y115248D01*
X1982290Y113249D02*
X1984290D01*
X1987289Y115248D02*
X1988288Y116248D01*
X1990288D01*
X1991287Y115248D01*
Y111250D01*
X1990288Y110250D01*
X1988288D01*
X1987289Y111250D01*
Y115248D01*
X1993287D02*
X1994287Y116248D01*
X1996286D01*
X1997285Y115248D01*
Y111250D01*
X1996286Y110250D01*
X1994287D01*
X1993287Y111250D01*
Y115248D01*
X1999285Y110250D02*
Y114249D01*
X2000285D01*
X2001284Y113249D01*
Y110250D01*
Y113249D01*
X2002284Y114249D01*
X2003284Y113249D01*
Y110250D01*
X2005283D02*
Y114249D01*
X2006283D01*
X2007282Y113249D01*
Y110250D01*
Y113249D01*
X2008282Y114249D01*
X2009282Y113249D01*
Y110250D01*
X2011281D02*
X2013280Y112249D01*
Y114249D01*
X2011281Y116248D01*
X1885322Y95250D02*
X1887321D01*
X1886321D01*
Y101248D01*
X1885322Y100248D01*
X1894319Y101248D02*
X1890320D01*
Y98249D01*
X1892319Y99249D01*
X1893319D01*
X1894319Y98249D01*
Y96250D01*
X1893319Y95250D01*
X1891320D01*
X1890320Y96250D01*
X1896318Y101248D02*
X1900317D01*
Y100248D01*
X1896318Y96250D01*
Y95250D01*
X1902316D02*
Y96250D01*
X1903316D01*
Y95250D01*
X1902316D01*
X1907315Y100248D02*
X1908314Y101248D01*
X1910314D01*
X1911313Y100248D01*
Y96250D01*
X1910314Y95250D01*
X1908314D01*
X1907315Y96250D01*
Y100248D01*
X1913313D02*
X1914312Y101248D01*
X1916312D01*
X1917311Y100248D01*
Y96250D01*
X1916312Y95250D01*
X1914312D01*
X1913313Y96250D01*
Y100248D01*
X1919311D02*
X1920310Y101248D01*
X1922310D01*
X1923309Y100248D01*
Y96250D01*
X1922310Y95250D01*
X1920310D01*
X1919311Y96250D01*
Y100248D01*
X1925309D02*
X1926308Y101248D01*
X1928308D01*
X1929308Y100248D01*
Y96250D01*
X1928308Y95250D01*
X1926308D01*
X1925309Y96250D01*
Y100248D01*
X1931307Y95250D02*
Y99249D01*
X1932306D01*
X1933306Y98249D01*
Y95250D01*
Y98249D01*
X1934306Y99249D01*
X1935305Y98249D01*
Y95250D01*
X1937305D02*
X1939304D01*
X1938305D01*
Y99249D01*
X1937305D01*
X1942303Y95250D02*
X1944303D01*
X1943303D01*
Y101248D01*
X1942303D01*
X1955299Y95250D02*
X1953300Y97249D01*
Y99249D01*
X1955299Y101248D01*
X1958298Y100248D02*
X1959298Y101248D01*
X1961297D01*
X1962297Y100248D01*
Y99249D01*
X1961297Y98249D01*
X1960298D01*
X1961297D01*
X1962297Y97249D01*
Y96250D01*
X1961297Y95250D01*
X1959298D01*
X1958298Y96250D01*
X1964296Y95250D02*
Y96250D01*
X1965296D01*
Y95250D01*
X1964296D01*
X1969295Y96250D02*
X1970294Y95250D01*
X1972294D01*
X1973293Y96250D01*
Y100248D01*
X1972294Y101248D01*
X1970294D01*
X1969295Y100248D01*
Y99249D01*
X1970294Y98249D01*
X1973293D01*
X1975293Y100248D02*
X1976292Y101248D01*
X1978292D01*
X1979291Y100248D01*
Y99249D01*
X1978292Y98249D01*
X1979291Y97249D01*
Y96250D01*
X1978292Y95250D01*
X1976292D01*
X1975293Y96250D01*
Y97249D01*
X1976292Y98249D01*
X1975293Y99249D01*
Y100248D01*
X1976292Y98249D02*
X1978292D01*
X1981291Y100248D02*
X1982290Y101248D01*
X1984290D01*
X1985289Y100248D01*
Y99249D01*
X1984290Y98249D01*
X1985289Y97249D01*
Y96250D01*
X1984290Y95250D01*
X1982290D01*
X1981291Y96250D01*
Y97249D01*
X1982290Y98249D01*
X1981291Y99249D01*
Y100248D01*
X1982290Y98249D02*
X1984290D01*
X1987289Y100248D02*
X1988288Y101248D01*
X1990288D01*
X1991287Y100248D01*
Y96250D01*
X1990288Y95250D01*
X1988288D01*
X1987289Y96250D01*
Y100248D01*
X1993287D02*
X1994287Y101248D01*
X1996286D01*
X1997285Y100248D01*
Y96250D01*
X1996286Y95250D01*
X1994287D01*
X1993287Y96250D01*
Y100248D01*
X1999285Y95250D02*
Y99249D01*
X2000285D01*
X2001284Y98249D01*
Y95250D01*
Y98249D01*
X2002284Y99249D01*
X2003284Y98249D01*
Y95250D01*
X2005283D02*
Y99249D01*
X2006283D01*
X2007282Y98249D01*
Y95250D01*
Y98249D01*
X2008282Y99249D01*
X2009282Y98249D01*
Y95250D01*
X2011281D02*
X2013280Y97249D01*
Y99249D01*
X2011281Y101248D01*
X1885322Y80250D02*
X1887321D01*
X1886321D01*
Y86248D01*
X1885322Y85248D01*
X1894319Y86248D02*
X1890320D01*
Y83249D01*
X1892319Y84249D01*
X1893319D01*
X1894319Y83249D01*
Y81250D01*
X1893319Y80250D01*
X1891320D01*
X1890320Y81250D01*
X1896318Y86248D02*
X1900317D01*
Y85248D01*
X1896318Y81250D01*
Y80250D01*
X1902316D02*
Y81250D01*
X1903316D01*
Y80250D01*
X1902316D01*
X1910314D02*
Y86248D01*
X1907315Y83249D01*
X1911313D01*
X1913313Y85248D02*
X1914312Y86248D01*
X1916312D01*
X1917311Y85248D01*
Y84249D01*
X1916312Y83249D01*
X1917311Y82249D01*
Y81250D01*
X1916312Y80250D01*
X1914312D01*
X1913313Y81250D01*
Y82249D01*
X1914312Y83249D01*
X1913313Y84249D01*
Y85248D01*
X1914312Y83249D02*
X1916312D01*
X1919311Y85248D02*
X1920310Y86248D01*
X1922310D01*
X1923309Y85248D01*
Y81250D01*
X1922310Y80250D01*
X1920310D01*
X1919311Y81250D01*
Y85248D01*
X1925309D02*
X1926308Y86248D01*
X1928308D01*
X1929308Y85248D01*
Y81250D01*
X1928308Y80250D01*
X1926308D01*
X1925309Y81250D01*
Y85248D01*
X1931307Y80250D02*
Y84249D01*
X1932306D01*
X1933306Y83249D01*
Y80250D01*
Y83249D01*
X1934306Y84249D01*
X1935305Y83249D01*
Y80250D01*
X1937305D02*
X1939304D01*
X1938305D01*
Y84249D01*
X1937305D01*
X1942303Y80250D02*
X1944303D01*
X1943303D01*
Y86248D01*
X1942303D01*
X1955299Y80250D02*
X1953300Y82249D01*
Y84249D01*
X1955299Y86248D01*
X1961297Y80250D02*
Y86248D01*
X1958298Y83249D01*
X1962297D01*
X1964296Y80250D02*
Y81250D01*
X1965296D01*
Y80250D01*
X1964296D01*
X1969295Y85248D02*
X1970294Y86248D01*
X1972294D01*
X1973293Y85248D01*
Y81250D01*
X1972294Y80250D01*
X1970294D01*
X1969295Y81250D01*
Y85248D01*
X1975293D02*
X1976292Y86248D01*
X1978292D01*
X1979291Y85248D01*
Y81250D01*
X1978292Y80250D01*
X1976292D01*
X1975293Y81250D01*
Y85248D01*
X1981291D02*
X1982290Y86248D01*
X1984290D01*
X1985289Y85248D01*
Y81250D01*
X1984290Y80250D01*
X1982290D01*
X1981291Y81250D01*
Y85248D01*
X1987289D02*
X1988288Y86248D01*
X1990288D01*
X1991287Y85248D01*
Y81250D01*
X1990288Y80250D01*
X1988288D01*
X1987289Y81250D01*
Y85248D01*
X1993287D02*
X1994287Y86248D01*
X1996286D01*
X1997285Y85248D01*
Y81250D01*
X1996286Y80250D01*
X1994287D01*
X1993287Y81250D01*
Y85248D01*
X1999285Y80250D02*
Y84249D01*
X2000285D01*
X2001284Y83249D01*
Y80250D01*
Y83249D01*
X2002284Y84249D01*
X2003284Y83249D01*
Y80250D01*
X2005283D02*
Y84249D01*
X2006283D01*
X2007282Y83249D01*
Y80250D01*
Y83249D01*
X2008282Y84249D01*
X2009282Y83249D01*
Y80250D01*
X2011281D02*
X2013280Y82249D01*
Y84249D01*
X2011281Y86248D01*
X1889320Y65250D02*
X1885322D01*
X1889320Y69249D01*
Y70248D01*
X1888321Y71248D01*
X1886321D01*
X1885322Y70248D01*
X1891320D02*
X1892319Y71248D01*
X1894319D01*
X1895318Y70248D01*
Y69249D01*
X1894319Y68249D01*
X1895318Y67249D01*
Y66250D01*
X1894319Y65250D01*
X1892319D01*
X1891320Y66250D01*
Y67249D01*
X1892319Y68249D01*
X1891320Y69249D01*
Y70248D01*
X1892319Y68249D02*
X1894319D01*
X1897318Y65250D02*
Y66250D01*
X1898318D01*
Y65250D01*
X1897318D01*
X1902316Y70248D02*
X1903316Y71248D01*
X1905315D01*
X1906315Y70248D01*
Y66250D01*
X1905315Y65250D01*
X1903316D01*
X1902316Y66250D01*
Y70248D01*
X1908314D02*
X1909314Y71248D01*
X1911313D01*
X1912313Y70248D01*
Y66250D01*
X1911313Y65250D01*
X1909314D01*
X1908314Y66250D01*
Y70248D01*
X1914312D02*
X1915312Y71248D01*
X1917311D01*
X1918311Y70248D01*
Y66250D01*
X1917311Y65250D01*
X1915312D01*
X1914312Y66250D01*
Y70248D01*
X1920310D02*
X1921310Y71248D01*
X1923309D01*
X1924309Y70248D01*
Y66250D01*
X1923309Y65250D01*
X1921310D01*
X1920310Y66250D01*
Y70248D01*
X1926308Y65250D02*
Y69249D01*
X1927308D01*
X1928308Y68249D01*
Y65250D01*
Y68249D01*
X1929308Y69249D01*
X1930307Y68249D01*
Y65250D01*
X1932306D02*
X1934306D01*
X1933306D01*
Y69249D01*
X1932306D01*
X1937305Y65250D02*
X1939304D01*
X1938305D01*
Y71248D01*
X1937305D01*
X1950301Y65250D02*
X1948301Y67249D01*
Y69249D01*
X1950301Y71248D01*
X1953300Y70248D02*
X1954299Y71248D01*
X1956299D01*
X1957298Y70248D01*
Y66250D01*
X1956299Y65250D01*
X1954299D01*
X1953300Y66250D01*
Y70248D01*
X1959298Y65250D02*
Y66250D01*
X1960298D01*
Y65250D01*
X1959298D01*
X1964296Y71248D02*
X1968295D01*
Y70248D01*
X1964296Y66250D01*
Y65250D01*
X1970294D02*
X1972294D01*
X1971294D01*
Y71248D01*
X1970294Y70248D01*
X1975293Y65250D02*
X1977292D01*
X1976292D01*
Y71248D01*
X1975293Y70248D01*
X1980291D02*
X1981291Y71248D01*
X1983290D01*
X1984290Y70248D01*
Y66250D01*
X1983290Y65250D01*
X1981291D01*
X1980291Y66250D01*
Y70248D01*
X1986289D02*
X1987289Y71248D01*
X1989288D01*
X1990288Y70248D01*
Y66250D01*
X1989288Y65250D01*
X1987289D01*
X1986289Y66250D01*
Y70248D01*
X1992287Y65250D02*
Y69249D01*
X1993287D01*
X1994286Y68249D01*
Y65250D01*
Y68249D01*
X1995286Y69249D01*
X1996286Y68249D01*
Y65250D01*
X1998285D02*
Y69249D01*
X1999285D01*
X2000285Y68249D01*
Y65250D01*
Y68249D01*
X2001284Y69249D01*
X2002284Y68249D01*
Y65250D01*
X2004283D02*
X2006283Y67249D01*
Y69249D01*
X2004283Y71248D01*
X1889320Y50250D02*
X1885322D01*
X1889320Y54249D01*
Y55248D01*
X1888321Y56248D01*
X1886321D01*
X1885322Y55248D01*
X1894319Y50250D02*
Y56248D01*
X1891320Y53249D01*
X1895318D01*
X1897318Y50250D02*
Y51250D01*
X1898318D01*
Y50250D01*
X1897318D01*
X1902316Y55248D02*
X1903316Y56248D01*
X1905315D01*
X1906315Y55248D01*
Y51250D01*
X1905315Y50250D01*
X1903316D01*
X1902316Y51250D01*
Y55248D01*
X1908314D02*
X1909314Y56248D01*
X1911313D01*
X1912313Y55248D01*
Y51250D01*
X1911313Y50250D01*
X1909314D01*
X1908314Y51250D01*
Y55248D01*
X1914312D02*
X1915312Y56248D01*
X1917311D01*
X1918311Y55248D01*
Y51250D01*
X1917311Y50250D01*
X1915312D01*
X1914312Y51250D01*
Y55248D01*
X1920310D02*
X1921310Y56248D01*
X1923309D01*
X1924309Y55248D01*
Y51250D01*
X1923309Y50250D01*
X1921310D01*
X1920310Y51250D01*
Y55248D01*
X1926308Y50250D02*
Y54249D01*
X1927308D01*
X1928308Y53249D01*
Y50250D01*
Y53249D01*
X1929308Y54249D01*
X1930307Y53249D01*
Y50250D01*
X1932306D02*
X1934306D01*
X1933306D01*
Y54249D01*
X1932306D01*
X1937305Y50250D02*
X1939304D01*
X1938305D01*
Y56248D01*
X1937305D01*
X1950301Y50250D02*
X1948301Y52249D01*
Y54249D01*
X1950301Y56248D01*
X1953300Y55248D02*
X1954299Y56248D01*
X1956299D01*
X1957298Y55248D01*
Y51250D01*
X1956299Y50250D01*
X1954299D01*
X1953300Y51250D01*
Y55248D01*
X1959298Y50250D02*
Y51250D01*
X1960298D01*
Y50250D01*
X1959298D01*
X1968295Y56248D02*
X1966295Y55248D01*
X1964296Y53249D01*
Y51250D01*
X1965296Y50250D01*
X1967295D01*
X1968295Y51250D01*
Y52249D01*
X1967295Y53249D01*
X1964296D01*
X1970294Y50250D02*
X1972294D01*
X1971294D01*
Y56248D01*
X1970294Y55248D01*
X1975293D02*
X1976292Y56248D01*
X1978292D01*
X1979291Y55248D01*
Y51250D01*
X1978292Y50250D01*
X1976292D01*
X1975293Y51250D01*
Y55248D01*
X1981291D02*
X1982290Y56248D01*
X1984290D01*
X1985289Y55248D01*
Y51250D01*
X1984290Y50250D01*
X1982290D01*
X1981291Y51250D01*
Y55248D01*
X1987289D02*
X1988288Y56248D01*
X1990288D01*
X1991287Y55248D01*
Y51250D01*
X1990288Y50250D01*
X1988288D01*
X1987289Y51250D01*
Y55248D01*
X1993287Y50250D02*
Y54249D01*
X1994287D01*
X1995286Y53249D01*
Y50250D01*
Y53249D01*
X1996286Y54249D01*
X1997285Y53249D01*
Y50250D01*
X1999285D02*
Y54249D01*
X2000285D01*
X2001284Y53249D01*
Y50250D01*
Y53249D01*
X2002284Y54249D01*
X2003284Y53249D01*
Y50250D01*
X2005283D02*
X2007282Y52249D01*
Y54249D01*
X2005283Y56248D01*
X1885322Y41248D02*
X1889320D01*
Y40248D01*
X1885322Y36250D01*
Y35250D01*
X1894319D02*
Y41248D01*
X1891320Y38249D01*
X1895318D01*
X1897318Y35250D02*
Y36250D01*
X1898318D01*
Y35250D01*
X1897318D01*
X1902316Y40248D02*
X1903316Y41248D01*
X1905315D01*
X1906315Y40248D01*
Y39249D01*
X1905315Y38249D01*
X1906315Y37249D01*
Y36250D01*
X1905315Y35250D01*
X1903316D01*
X1902316Y36250D01*
Y37249D01*
X1903316Y38249D01*
X1902316Y39249D01*
Y40248D01*
X1903316Y38249D02*
X1905315D01*
X1908314Y40248D02*
X1909314Y41248D01*
X1911313D01*
X1912313Y40248D01*
Y36250D01*
X1911313Y35250D01*
X1909314D01*
X1908314Y36250D01*
Y40248D01*
X1917311Y35250D02*
Y41248D01*
X1914312Y38249D01*
X1918311D01*
X1920310Y40248D02*
X1921310Y41248D01*
X1923309D01*
X1924309Y40248D01*
Y36250D01*
X1923309Y35250D01*
X1921310D01*
X1920310Y36250D01*
Y40248D01*
X1926308Y35250D02*
Y39249D01*
X1927308D01*
X1928308Y38249D01*
Y35250D01*
Y38249D01*
X1929308Y39249D01*
X1930307Y38249D01*
Y35250D01*
X1932306D02*
X1934306D01*
X1933306D01*
Y39249D01*
X1932306D01*
X1937305Y35250D02*
X1939304D01*
X1938305D01*
Y41248D01*
X1937305D01*
X1950301Y35250D02*
X1948301Y37249D01*
Y39249D01*
X1950301Y41248D01*
X1953300Y35250D02*
X1955299D01*
X1954299D01*
Y41248D01*
X1953300Y40248D01*
X1958298Y35250D02*
Y36250D01*
X1959298D01*
Y35250D01*
X1958298D01*
X1963297Y36250D02*
X1964296Y35250D01*
X1966295D01*
X1967295Y36250D01*
Y40248D01*
X1966295Y41248D01*
X1964296D01*
X1963297Y40248D01*
Y39249D01*
X1964296Y38249D01*
X1967295D01*
X1969295Y40248D02*
X1970294Y41248D01*
X1972294D01*
X1973293Y40248D01*
Y36250D01*
X1972294Y35250D01*
X1970294D01*
X1969295Y36250D01*
Y40248D01*
X1975293D02*
X1976292Y41248D01*
X1978292D01*
X1979291Y40248D01*
Y36250D01*
X1978292Y35250D01*
X1976292D01*
X1975293Y36250D01*
Y40248D01*
X1981291D02*
X1982290Y41248D01*
X1984290D01*
X1985289Y40248D01*
Y36250D01*
X1984290Y35250D01*
X1982290D01*
X1981291Y36250D01*
Y40248D01*
X1987289D02*
X1988288Y41248D01*
X1990288D01*
X1991287Y40248D01*
Y36250D01*
X1990288Y35250D01*
X1988288D01*
X1987289Y36250D01*
Y40248D01*
X1993287Y35250D02*
Y39249D01*
X1994287D01*
X1995286Y38249D01*
Y35250D01*
Y38249D01*
X1996286Y39249D01*
X1997285Y38249D01*
Y35250D01*
X1999285D02*
Y39249D01*
X2000285D01*
X2001284Y38249D01*
Y35250D01*
Y38249D01*
X2002284Y39249D01*
X2003284Y38249D01*
Y35250D01*
X2005283D02*
X2007282Y37249D01*
Y39249D01*
X2005283Y41248D01*
X1885322Y20250D02*
X1887321D01*
X1886321D01*
Y26248D01*
X1885322Y25248D01*
X1890320Y20250D02*
X1892319D01*
X1891320D01*
Y26248D01*
X1890320Y25248D01*
X1895318D02*
X1896318Y26248D01*
X1898318D01*
X1899317Y25248D01*
Y24249D01*
X1898318Y23249D01*
X1899317Y22249D01*
Y21250D01*
X1898318Y20250D01*
X1896318D01*
X1895318Y21250D01*
Y22249D01*
X1896318Y23249D01*
X1895318Y24249D01*
Y25248D01*
X1896318Y23249D02*
X1898318D01*
X1901316Y20250D02*
Y21250D01*
X1902316D01*
Y20250D01*
X1901316D01*
X1906315D02*
X1908314D01*
X1907315D01*
Y26248D01*
X1906315Y25248D01*
X1911313Y20250D02*
X1913313D01*
X1912313D01*
Y26248D01*
X1911313Y25248D01*
X1916312D02*
X1917311Y26248D01*
X1919311D01*
X1920310Y25248D01*
Y21250D01*
X1919311Y20250D01*
X1917311D01*
X1916312Y21250D01*
Y25248D01*
X1922310D02*
X1923309Y26248D01*
X1925309D01*
X1926308Y25248D01*
Y21250D01*
X1925309Y20250D01*
X1923309D01*
X1922310Y21250D01*
Y25248D01*
X1928308Y20250D02*
Y24249D01*
X1929308D01*
X1930307Y23249D01*
Y20250D01*
Y23249D01*
X1931307Y24249D01*
X1932306Y23249D01*
Y20250D01*
X1934306D02*
X1936305D01*
X1935305D01*
Y24249D01*
X1934306D01*
X1939304Y20250D02*
X1941304D01*
X1940304D01*
Y26248D01*
X1939304D01*
X1952300Y20250D02*
X1950301Y22249D01*
Y24249D01*
X1952300Y26248D01*
X1955299Y25248D02*
X1956299Y26248D01*
X1958298D01*
X1959298Y25248D01*
Y24249D01*
X1958298Y23249D01*
X1957298D01*
X1958298D01*
X1959298Y22249D01*
Y21250D01*
X1958298Y20250D01*
X1956299D01*
X1955299Y21250D01*
X1961297Y20250D02*
Y21250D01*
X1962297D01*
Y20250D01*
X1961297D01*
X1966295Y25248D02*
X1967295Y26248D01*
X1969295D01*
X1970294Y25248D01*
Y21250D01*
X1969295Y20250D01*
X1967295D01*
X1966295Y21250D01*
Y25248D01*
X1972294D02*
X1973293Y26248D01*
X1975293D01*
X1976292Y25248D01*
Y21250D01*
X1975293Y20250D01*
X1973293D01*
X1972294Y21250D01*
Y25248D01*
X1978292D02*
X1979291Y26248D01*
X1981291D01*
X1982290Y25248D01*
Y21250D01*
X1981291Y20250D01*
X1979291D01*
X1978292Y21250D01*
Y25248D01*
X1984290D02*
X1985289Y26248D01*
X1987289D01*
X1988288Y25248D01*
Y21250D01*
X1987289Y20250D01*
X1985289D01*
X1984290Y21250D01*
Y25248D01*
X1990288D02*
X1991287Y26248D01*
X1993287D01*
X1994286Y25248D01*
Y21250D01*
X1993287Y20250D01*
X1991287D01*
X1990288Y21250D01*
Y25248D01*
X1996286Y20250D02*
Y24249D01*
X1997285D01*
X1998285Y23249D01*
Y20250D01*
Y23249D01*
X1999285Y24249D01*
X2000285Y23249D01*
Y20250D01*
X2002284D02*
Y24249D01*
X2003284D01*
X2004283Y23249D01*
Y20250D01*
Y23249D01*
X2005283Y24249D01*
X2006283Y23249D01*
Y20250D01*
X2008282D02*
X2010281Y22249D01*
Y24249D01*
X2008282Y26248D01*
X1825338Y6250D02*
X1826337Y5250D01*
X1828337D01*
X1829336Y6250D01*
Y10248D01*
X1828337Y11248D01*
X1826337D01*
X1825338Y10248D01*
Y9249D01*
X1826337Y8249D01*
X1829336D01*
X1835334Y5250D02*
X1831336D01*
X1835334Y9249D01*
Y10248D01*
X1834335Y11248D01*
X1832335D01*
X1831336Y10248D01*
X1837334D02*
X1838333Y11248D01*
X1840333D01*
X1841332Y10248D01*
Y6250D01*
X1840333Y5250D01*
X1838333D01*
X1837334Y6250D01*
Y10248D01*
X1849330Y11248D02*
X1853329D01*
X1851329D01*
Y5250D01*
X1856327D02*
X1858327D01*
X1859327Y6250D01*
Y8249D01*
X1858327Y9249D01*
X1856327D01*
X1855328Y8249D01*
Y6250D01*
X1856327Y5250D01*
X1862326Y10248D02*
Y9249D01*
X1861326D01*
X1863325D01*
X1862326D01*
Y6250D01*
X1863325Y5250D01*
X1867324Y9249D02*
X1869323D01*
X1870323Y8249D01*
Y5250D01*
X1867324D01*
X1866324Y6250D01*
X1867324Y7249D01*
X1870323D01*
X1872322Y5250D02*
X1874322D01*
X1873322D01*
Y11248D01*
X1872322D01*
X1825338Y125250D02*
X1827337D01*
X1826337D01*
Y131248D01*
X1825338Y130248D01*
X1833335Y125250D02*
Y131248D01*
X1830336Y128249D01*
X1834335D01*
X1825338Y110250D02*
X1827337D01*
X1826337D01*
Y116248D01*
X1825338Y115248D01*
X1834335Y116248D02*
X1832335Y115248D01*
X1830336Y113249D01*
Y111250D01*
X1831336Y110250D01*
X1833335D01*
X1834335Y111250D01*
Y112249D01*
X1833335Y113249D01*
X1830336D01*
X1825338Y95250D02*
X1827337D01*
X1826337D01*
Y101248D01*
X1825338Y100248D01*
X1834335Y101248D02*
X1832335Y100248D01*
X1830336Y98249D01*
Y96250D01*
X1831336Y95250D01*
X1833335D01*
X1834335Y96250D01*
Y97249D01*
X1833335Y98249D01*
X1830336D01*
X1825338Y80250D02*
X1827337D01*
X1826337D01*
Y86248D01*
X1825338Y85248D01*
X1830336D02*
X1831336Y86248D01*
X1833335D01*
X1834335Y85248D01*
Y81250D01*
X1833335Y80250D01*
X1831336D01*
X1830336Y81250D01*
Y85248D01*
X1839333Y80250D02*
Y86248D01*
X1836334Y83249D01*
X1840333D01*
X1825338Y65250D02*
X1827337D01*
X1826337D01*
Y71248D01*
X1825338Y70248D01*
X1834335Y71248D02*
X1830336D01*
Y68249D01*
X1832335Y69249D01*
X1833335D01*
X1834335Y68249D01*
Y66250D01*
X1833335Y65250D01*
X1831336D01*
X1830336Y66250D01*
X1836334D02*
X1837334Y65250D01*
X1839333D01*
X1840333Y66250D01*
Y70248D01*
X1839333Y71248D01*
X1837334D01*
X1836334Y70248D01*
Y69249D01*
X1837334Y68249D01*
X1840333D01*
X1825338Y50250D02*
X1827337D01*
X1826337D01*
Y56248D01*
X1825338Y55248D01*
X1830336Y51250D02*
X1831336Y50250D01*
X1833335D01*
X1834335Y51250D01*
Y55248D01*
X1833335Y56248D01*
X1831336D01*
X1830336Y55248D01*
Y54249D01*
X1831336Y53249D01*
X1834335D01*
X1840333Y56248D02*
X1836334D01*
Y53249D01*
X1838333Y54249D01*
X1839333D01*
X1840333Y53249D01*
Y51250D01*
X1839333Y50250D01*
X1837334D01*
X1836334Y51250D01*
X1829336Y35250D02*
X1825338D01*
X1829336Y39249D01*
Y40248D01*
X1828337Y41248D01*
X1826337D01*
X1825338Y40248D01*
X1831336D02*
X1832335Y41248D01*
X1834335D01*
X1835334Y40248D01*
Y36250D01*
X1834335Y35250D01*
X1832335D01*
X1831336Y36250D01*
Y40248D01*
X1837334D02*
X1838333Y41248D01*
X1840333D01*
X1841332Y40248D01*
Y39249D01*
X1840333Y38249D01*
X1841332Y37249D01*
Y36250D01*
X1840333Y35250D01*
X1838333D01*
X1837334Y36250D01*
Y37249D01*
X1838333Y38249D01*
X1837334Y39249D01*
Y40248D01*
X1838333Y38249D02*
X1840333D01*
X1829336Y20250D02*
X1825338D01*
X1829336Y24249D01*
Y25248D01*
X1828337Y26248D01*
X1826337D01*
X1825338Y25248D01*
X1831336D02*
X1832335Y26248D01*
X1834335D01*
X1835334Y25248D01*
Y21250D01*
X1834335Y20250D01*
X1832335D01*
X1831336Y21250D01*
Y25248D01*
X1837334D02*
X1838333Y26248D01*
X1840333D01*
X1841332Y25248D01*
Y24249D01*
X1840333Y23249D01*
X1841332Y22249D01*
Y21250D01*
X1840333Y20250D01*
X1838333D01*
X1837334Y21250D01*
Y22249D01*
X1838333Y23249D01*
X1837334Y24249D01*
Y25248D01*
X1838333Y23249D02*
X1840333D01*
X1776284Y115916D02*
X1771841D01*
Y109251D01*
X1776284D01*
X1771841Y112583D02*
X1774063D01*
X1771841Y100916D02*
Y94251D01*
X1775173D01*
X1776284Y95362D01*
Y99805D01*
X1775173Y100916D01*
X1771841D01*
X1776284Y85916D02*
X1771841D01*
Y82583D01*
X1774063D01*
X1771841D01*
Y79251D01*
Y64251D02*
Y68694D01*
X1774063Y70916D01*
X1776284Y68694D01*
Y64251D01*
Y67583D01*
X1771841D01*
Y40916D02*
Y34251D01*
X1775173D01*
X1776284Y35362D01*
Y36473D01*
X1775173Y37583D01*
X1771841D01*
X1775173D01*
X1776284Y38694D01*
Y39805D01*
X1775173Y40916D01*
X1771841D01*
X1776284Y24805D02*
X1775173Y25916D01*
X1772952D01*
X1771841Y24805D01*
Y20362D01*
X1772952Y19251D01*
X1775173D01*
X1776284Y20362D01*
D52*
X1765750Y135750D02*
X2848849D01*
X1765750Y15750D02*
X2848849D01*
X1765750Y750D02*
X2848849D01*
Y150750D01*
X1765750D02*
X2848849D01*
X1765750Y750D02*
Y150750D01*
X2710988Y750D02*
Y150750D01*
X2577627Y750D02*
Y150750D01*
X2492251Y750D02*
Y150750D01*
X2427268Y750D02*
Y150750D01*
X2352688Y750D02*
Y150750D01*
X2293703Y750D02*
Y150750D01*
X2143748Y750D02*
Y150750D01*
X2070368Y750D02*
Y150750D01*
X2019780Y750D02*
Y150750D01*
X1880822Y750D02*
Y150750D01*
X1820838Y750D02*
Y150750D01*
D53*
X1448626Y388000D02*
X1450626D01*
Y390000D01*
X1448626D02*
X1450626D01*
X1448626Y388000D02*
Y390000D01*
X226000Y498000D02*
X228000D01*
Y500000D01*
X226000D02*
X228000D01*
X226000Y498000D02*
Y500000D01*
X1127000Y498000D02*
X1129000D01*
Y500000D01*
X1127000D02*
X1129000D01*
X1127000Y498000D02*
Y500000D01*
X1672000Y387000D02*
X1674000D01*
Y389000D01*
X1672000D02*
X1674000D01*
X1672000Y387000D02*
Y389000D01*
X1529000Y384000D02*
X1531000D01*
Y386000D01*
X1529000D02*
X1531000D01*
X1529000Y384000D02*
Y386000D01*
X1210000Y88000D02*
X1212000D01*
Y90000D01*
X1210000D02*
X1212000D01*
X1210000Y88000D02*
Y90000D01*
X1285000Y88000D02*
X1287000D01*
Y90000D01*
X1285000D02*
X1287000D01*
X1285000Y88000D02*
Y90000D01*
X1360000Y88000D02*
X1362000D01*
Y90000D01*
X1360000D02*
X1362000D01*
X1360000Y88000D02*
Y90000D01*
X1485000Y86000D02*
X1487000D01*
Y88000D01*
X1485000D02*
X1487000D01*
X1485000Y86000D02*
Y88000D01*
X1597000Y87000D02*
X1599000D01*
Y89000D01*
X1597000D02*
X1599000D01*
X1597000Y87000D02*
Y89000D01*
X1604000Y164000D02*
X1606000D01*
Y166000D01*
X1604000D02*
X1606000D01*
X1604000Y164000D02*
Y166000D01*
X1529000Y164000D02*
X1531000D01*
Y166000D01*
X1529000D02*
X1531000D01*
X1529000Y164000D02*
Y166000D01*
X1454000Y164000D02*
X1456000D01*
Y166000D01*
X1454000D02*
X1456000D01*
X1454000Y164000D02*
Y166000D01*
X1286000Y164000D02*
X1288000D01*
Y166000D01*
X1286000D02*
X1288000D01*
X1286000Y164000D02*
Y166000D01*
X1056000Y164000D02*
X1058000D01*
Y166000D01*
X1056000D02*
X1058000D01*
X1056000Y164000D02*
Y166000D01*
X911000Y164000D02*
X913000D01*
Y166000D01*
X911000D02*
X913000D01*
X911000Y164000D02*
Y166000D01*
X836000Y164000D02*
X838000D01*
Y166000D01*
X836000D02*
X838000D01*
X836000Y164000D02*
Y166000D01*
X761000Y164000D02*
X763000D01*
Y166000D01*
X761000D02*
X763000D01*
X761000Y164000D02*
Y166000D01*
X685000Y164000D02*
X687000D01*
Y166000D01*
X685000D02*
X687000D01*
X685000Y164000D02*
Y166000D01*
X611000Y164000D02*
X613000D01*
Y166000D01*
X611000D02*
X613000D01*
X611000Y164000D02*
Y166000D01*
X536000Y164000D02*
X538000D01*
Y166000D01*
X536000D02*
X538000D01*
X536000Y164000D02*
Y166000D01*
X461000Y164000D02*
X463000D01*
Y166000D01*
X461000D02*
X463000D01*
X461000Y164000D02*
Y166000D01*
X386000Y164000D02*
X388000D01*
Y166000D01*
X386000D02*
X388000D01*
X386000Y164000D02*
Y166000D01*
X311000Y164000D02*
X313000D01*
Y166000D01*
X311000D02*
X313000D01*
X311000Y164000D02*
Y166000D01*
X236000Y164000D02*
X238000D01*
Y166000D01*
X236000D02*
X238000D01*
X236000Y164000D02*
Y166000D01*
X114000Y164000D02*
X116000D01*
Y166000D01*
X114000D02*
X116000D01*
X114000Y164000D02*
Y166000D01*
X85000Y88000D02*
X87000D01*
Y90000D01*
X85000D02*
X87000D01*
X85000Y88000D02*
Y90000D01*
X179000Y88000D02*
X181000D01*
Y90000D01*
X179000D02*
X181000D01*
X179000Y88000D02*
Y90000D01*
X263000Y88000D02*
X265000D01*
Y90000D01*
X263000D02*
X265000D01*
X263000Y88000D02*
Y90000D01*
X545000Y88000D02*
X547000D01*
Y90000D01*
X545000D02*
X547000D01*
X545000Y88000D02*
Y90000D01*
X826000Y88000D02*
X828000D01*
Y90000D01*
X826000D02*
X828000D01*
X826000Y88000D02*
Y90000D01*
X920000Y88000D02*
X922000D01*
Y90000D01*
X920000D02*
X922000D01*
X920000Y88000D02*
Y90000D01*
X1022000Y88000D02*
X1024000D01*
Y90000D01*
X1022000D02*
X1024000D01*
X1022000Y88000D02*
Y90000D01*
X1117000Y88000D02*
X1119000D01*
Y90000D01*
X1117000D02*
X1119000D01*
X1117000Y88000D02*
Y90000D01*
X1529000Y238000D02*
X1531000D01*
Y240000D01*
X1529000D02*
X1531000D01*
X1529000Y238000D02*
Y240000D01*
X1454000Y238000D02*
X1456000D01*
Y240000D01*
X1454000D02*
X1456000D01*
X1454000Y238000D02*
Y240000D01*
X1597000Y236000D02*
X1599000D01*
Y238000D01*
X1597000D02*
X1599000D01*
X1597000Y236000D02*
Y238000D01*
X1598000Y314000D02*
X1600000D01*
Y316000D01*
X1598000D02*
X1600000D01*
X1598000Y314000D02*
Y316000D01*
X1529000Y313000D02*
X1531000D01*
Y315000D01*
X1529000D02*
X1531000D01*
X1529000Y313000D02*
Y315000D01*
X1454000Y313000D02*
X1456000D01*
Y315000D01*
X1454000D02*
X1456000D01*
X1454000Y313000D02*
Y315000D01*
X1355000Y388000D02*
X1357000D01*
Y390000D01*
X1355000D02*
X1357000D01*
X1355000Y388000D02*
Y390000D01*
X1361000Y313000D02*
X1363000D01*
Y315000D01*
X1361000D02*
X1363000D01*
X1361000Y313000D02*
Y315000D01*
X1285000Y313000D02*
X1287000D01*
Y315000D01*
X1285000D02*
X1287000D01*
X1285000Y313000D02*
Y315000D01*
X1210000Y313000D02*
X1212000D01*
Y315000D01*
X1210000D02*
X1212000D01*
X1210000Y313000D02*
Y315000D01*
X1205000Y388000D02*
X1207000D01*
Y390000D01*
X1205000D02*
X1207000D01*
X1205000Y388000D02*
Y390000D01*
X1280000Y388000D02*
X1282000D01*
Y390000D01*
X1280000D02*
X1282000D01*
X1280000Y388000D02*
Y390000D01*
X61000Y387000D02*
X63000D01*
Y389000D01*
X61000D02*
X63000D01*
X61000Y387000D02*
Y389000D01*
X136000Y387000D02*
X138000D01*
Y389000D01*
X136000D02*
X138000D01*
X136000Y387000D02*
Y389000D01*
X210000Y387000D02*
X212000D01*
Y389000D01*
X210000D02*
X212000D01*
X210000Y387000D02*
Y389000D01*
X285000Y387000D02*
X287000D01*
Y389000D01*
X285000D02*
X287000D01*
X285000Y387000D02*
Y389000D01*
X360000Y387000D02*
X362000D01*
Y389000D01*
X360000D02*
X362000D01*
X360000Y387000D02*
Y389000D01*
X435000Y387000D02*
X437000D01*
Y389000D01*
X435000D02*
X437000D01*
X435000Y387000D02*
Y389000D01*
X510000Y387000D02*
X512000D01*
Y389000D01*
X510000D02*
X512000D01*
X510000Y387000D02*
Y389000D01*
X585000Y387000D02*
X587000D01*
Y389000D01*
X585000D02*
X587000D01*
X585000Y387000D02*
Y389000D01*
X660000Y387000D02*
X662000D01*
Y389000D01*
X660000D02*
X662000D01*
X660000Y387000D02*
Y389000D01*
X735000Y387000D02*
X737000D01*
Y389000D01*
X735000D02*
X737000D01*
X735000Y387000D02*
Y389000D01*
X810000Y387000D02*
X812000D01*
Y389000D01*
X810000D02*
X812000D01*
X810000Y387000D02*
Y389000D01*
X886000Y387000D02*
X888000D01*
Y389000D01*
X886000D02*
X888000D01*
X886000Y387000D02*
Y389000D01*
X961000Y387000D02*
X963000D01*
Y389000D01*
X961000D02*
X963000D01*
X961000Y387000D02*
Y389000D01*
X1073000Y387000D02*
X1075000D01*
Y389000D01*
X1073000D02*
X1075000D01*
X1073000Y387000D02*
Y389000D01*
X1003000Y313000D02*
X1005000D01*
Y315000D01*
X1003000D02*
X1005000D01*
X1003000Y313000D02*
Y315000D01*
X928000Y313000D02*
X930000D01*
Y315000D01*
X928000D02*
X930000D01*
X928000Y313000D02*
Y315000D01*
X853000Y313000D02*
X855000D01*
Y315000D01*
X853000D02*
X855000D01*
X853000Y313000D02*
Y315000D01*
X778000Y313000D02*
X780000D01*
Y315000D01*
X778000D02*
X780000D01*
X778000Y313000D02*
Y315000D01*
X703000Y313000D02*
X705000D01*
Y315000D01*
X703000D02*
X705000D01*
X703000Y313000D02*
Y315000D01*
X628000Y313000D02*
X630000D01*
Y315000D01*
X628000D02*
X630000D01*
X628000Y313000D02*
Y315000D01*
X553000Y313000D02*
X555000D01*
Y315000D01*
X553000D02*
X555000D01*
X553000Y313000D02*
Y315000D01*
X478000Y313000D02*
X480000D01*
Y315000D01*
X478000D02*
X480000D01*
X478000Y313000D02*
Y315000D01*
X403000Y313000D02*
X405000D01*
Y315000D01*
X403000D02*
X405000D01*
X403000Y313000D02*
Y315000D01*
X328000Y313000D02*
X330000D01*
Y315000D01*
X328000D02*
X330000D01*
X328000Y313000D02*
Y315000D01*
X253000Y313000D02*
X255000D01*
Y315000D01*
X253000D02*
X255000D01*
X253000Y313000D02*
Y315000D01*
X178000Y313000D02*
X180000D01*
Y315000D01*
X178000D02*
X180000D01*
X178000Y313000D02*
Y315000D01*
X85000Y313000D02*
X87000D01*
Y315000D01*
X85000D02*
X87000D01*
X85000Y313000D02*
Y315000D01*
X94000Y238000D02*
X96000D01*
Y240000D01*
X94000D02*
X96000D01*
X94000Y238000D02*
Y240000D01*
X197000Y238000D02*
X199000D01*
Y240000D01*
X197000D02*
X199000D01*
X197000Y238000D02*
Y240000D01*
X272000Y238000D02*
X274000D01*
Y240000D01*
X272000D02*
X274000D01*
X272000Y238000D02*
Y240000D01*
X347000Y238000D02*
X349000D01*
Y240000D01*
X347000D02*
X349000D01*
X347000Y238000D02*
Y240000D01*
X422000Y238000D02*
X424000D01*
Y240000D01*
X422000D02*
X424000D01*
X422000Y238000D02*
Y240000D01*
X497000Y238000D02*
X499000D01*
Y240000D01*
X497000D02*
X499000D01*
X497000Y238000D02*
Y240000D01*
X572000Y238000D02*
X574000D01*
Y240000D01*
X572000D02*
X574000D01*
X572000Y238000D02*
Y240000D01*
X647000Y238000D02*
X649000D01*
Y240000D01*
X647000D02*
X649000D01*
X647000Y238000D02*
Y240000D01*
X722000Y238000D02*
X724000D01*
Y240000D01*
X722000D02*
X724000D01*
X722000Y238000D02*
Y240000D01*
X797000Y238000D02*
X799000D01*
Y240000D01*
X797000D02*
X799000D01*
X797000Y238000D02*
Y240000D01*
X872000Y238000D02*
X874000D01*
Y240000D01*
X872000D02*
X874000D01*
X872000Y238000D02*
Y240000D01*
X947000Y238000D02*
X949000D01*
Y240000D01*
X947000D02*
X949000D01*
X947000Y238000D02*
Y240000D01*
X1064000Y238000D02*
X1066000D01*
Y240000D01*
X1064000D02*
X1066000D01*
X1064000Y238000D02*
Y240000D01*
X48626Y47986D02*
X50626D01*
Y49986D01*
X48626D02*
X50626D01*
X48626Y47986D02*
Y49986D01*
Y147985D02*
X50626D01*
Y149986D01*
X48626D02*
X50626D01*
X48626Y147985D02*
Y149986D01*
Y197985D02*
X50626D01*
Y199986D01*
X48626D02*
X50626D01*
X48626Y197985D02*
Y199986D01*
Y397986D02*
X50626D01*
Y399986D01*
X48626D02*
X50626D01*
X48626Y397986D02*
Y399986D01*
X98626Y297986D02*
X100626D01*
Y299986D01*
X98626D02*
X100626D01*
X98626Y297986D02*
Y299986D01*
Y497986D02*
X100626D01*
Y499986D01*
X98626D02*
X100626D01*
X98626Y497986D02*
Y499986D01*
X148626Y47986D02*
X150626D01*
Y49986D01*
X148626D02*
X150626D01*
X148626Y47986D02*
Y49986D01*
Y197985D02*
X150626D01*
Y199986D01*
X148626D02*
X150626D01*
X148626Y197985D02*
Y199986D01*
Y397986D02*
X150626D01*
Y399986D01*
X148626D02*
X150626D01*
X148626Y397986D02*
Y399986D01*
Y447986D02*
X150626D01*
Y449986D01*
X148626D02*
X150626D01*
X148626Y447986D02*
Y449986D01*
Y497986D02*
X150626D01*
Y499986D01*
X148626D02*
X150626D01*
X148626Y497986D02*
Y499986D01*
X198626Y397986D02*
X200626D01*
Y399986D01*
X198626D02*
X200626D01*
X198626Y397986D02*
Y399986D01*
X248626Y147985D02*
X250626D01*
Y149986D01*
X248626D02*
X250626D01*
X248626Y147985D02*
Y149986D01*
Y197985D02*
X250626D01*
Y199986D01*
X248626D02*
X250626D01*
X248626Y197985D02*
Y199986D01*
X298626Y397986D02*
X300626D01*
Y399986D01*
X298626D02*
X300626D01*
X298626Y397986D02*
Y399986D01*
Y447986D02*
X300626D01*
Y449986D01*
X298626D02*
X300626D01*
X298626Y447986D02*
Y449986D01*
Y497986D02*
X300626D01*
Y499986D01*
X298626D02*
X300626D01*
X298626Y497986D02*
Y499986D01*
X348626Y47986D02*
X350626D01*
Y49986D01*
X348626D02*
X350626D01*
X348626Y47986D02*
Y49986D01*
Y397986D02*
X350626D01*
Y399986D01*
X348626D02*
X350626D01*
X348626Y397986D02*
Y399986D01*
X398626Y47986D02*
X400626D01*
Y49986D01*
X398626D02*
X400626D01*
X398626Y47986D02*
Y49986D01*
Y147985D02*
X400626D01*
Y149986D01*
X398626D02*
X400626D01*
X398626Y147985D02*
Y149986D01*
Y197985D02*
X400626D01*
Y199986D01*
X398626D02*
X400626D01*
X398626Y197985D02*
Y199986D01*
Y397986D02*
X400626D01*
Y399986D01*
X398626D02*
X400626D01*
X398626Y397986D02*
Y399986D01*
X448626Y47986D02*
X450626D01*
Y49986D01*
X448626D02*
X450626D01*
X448626Y47986D02*
Y49986D01*
Y397986D02*
X450626D01*
Y399986D01*
X448626D02*
X450626D01*
X448626Y397986D02*
Y399986D01*
Y447986D02*
X450626D01*
Y449986D01*
X448626D02*
X450626D01*
X448626Y447986D02*
Y449986D01*
Y497986D02*
X450626D01*
Y499986D01*
X448626D02*
X450626D01*
X448626Y497986D02*
Y499986D01*
X498626Y47986D02*
X500626D01*
Y49986D01*
X498626D02*
X500626D01*
X498626Y47986D02*
Y49986D01*
Y397986D02*
X500626D01*
Y399986D01*
X498626D02*
X500626D01*
X498626Y397986D02*
Y399986D01*
Y497986D02*
X500626D01*
Y499986D01*
X498626D02*
X500626D01*
X498626Y497986D02*
Y499986D01*
X548626Y147985D02*
X550626D01*
Y149986D01*
X548626D02*
X550626D01*
X548626Y147985D02*
Y149986D01*
Y197985D02*
X550626D01*
Y199986D01*
X548626D02*
X550626D01*
X548626Y197985D02*
Y199986D01*
Y397986D02*
X550626D01*
Y399986D01*
X548626D02*
X550626D01*
X548626Y397986D02*
Y399986D01*
Y447986D02*
X550626D01*
Y449986D01*
X548626D02*
X550626D01*
X548626Y447986D02*
Y449986D01*
X598626Y47986D02*
X600626D01*
Y49986D01*
X598626D02*
X600626D01*
X598626Y47986D02*
Y49986D01*
Y397986D02*
X600626D01*
Y399986D01*
X598626D02*
X600626D01*
X598626Y397986D02*
Y399986D01*
Y497986D02*
X600626D01*
Y499986D01*
X598626D02*
X600626D01*
X598626Y497986D02*
Y499986D01*
X648626Y47986D02*
X650626D01*
Y49986D01*
X648626D02*
X650626D01*
X648626Y47986D02*
Y49986D01*
Y397986D02*
X650626D01*
Y399986D01*
X648626D02*
X650626D01*
X648626Y397986D02*
Y399986D01*
Y497986D02*
X650626D01*
Y499986D01*
X648626D02*
X650626D01*
X648626Y497986D02*
Y499986D01*
X698626Y47986D02*
X700626D01*
Y49986D01*
X698626D02*
X700626D01*
X698626Y47986D02*
Y49986D01*
Y147985D02*
X700626D01*
Y149986D01*
X698626D02*
X700626D01*
X698626Y147985D02*
Y149986D01*
Y197985D02*
X700626D01*
Y199986D01*
X698626D02*
X700626D01*
X698626Y197985D02*
Y199986D01*
Y447986D02*
X700626D01*
Y449986D01*
X698626D02*
X700626D01*
X698626Y447986D02*
Y449986D01*
X748626Y47986D02*
X750626D01*
Y49986D01*
X748626D02*
X750626D01*
X748626Y47986D02*
Y49986D01*
Y397986D02*
X750626D01*
Y399986D01*
X748626D02*
X750626D01*
X748626Y397986D02*
Y399986D01*
Y497986D02*
X750626D01*
Y499986D01*
X748626D02*
X750626D01*
X748626Y497986D02*
Y499986D01*
X798626Y47986D02*
X800626D01*
Y49986D01*
X798626D02*
X800626D01*
X798626Y47986D02*
Y49986D01*
Y397986D02*
X800626D01*
Y399986D01*
X798626D02*
X800626D01*
X798626Y397986D02*
Y399986D01*
Y497986D02*
X800626D01*
Y499986D01*
X798626D02*
X800626D01*
X798626Y497986D02*
Y499986D01*
X848626Y147985D02*
X850626D01*
Y149986D01*
X848626D02*
X850626D01*
X848626Y147985D02*
Y149986D01*
Y197985D02*
X850626D01*
Y199986D01*
X848626D02*
X850626D01*
X848626Y197985D02*
Y199986D01*
Y397986D02*
X850626D01*
Y399986D01*
X848626D02*
X850626D01*
X848626Y397986D02*
Y399986D01*
Y497986D02*
X850626D01*
Y499986D01*
X848626D02*
X850626D01*
X848626Y497986D02*
Y499986D01*
X898626Y47986D02*
X900626D01*
Y49986D01*
X898626D02*
X900626D01*
X898626Y47986D02*
Y49986D01*
Y397986D02*
X900626D01*
Y399986D01*
X898626D02*
X900626D01*
X898626Y397986D02*
Y399986D01*
Y447986D02*
X900626D01*
Y449986D01*
X898626D02*
X900626D01*
X898626Y447986D02*
Y449986D01*
Y497986D02*
X900626D01*
Y499986D01*
X898626D02*
X900626D01*
X898626Y497986D02*
Y499986D01*
X948626Y97986D02*
X950626D01*
Y99985D01*
X948626D02*
X950626D01*
X948626Y97986D02*
Y99985D01*
Y397986D02*
X950626D01*
Y399986D01*
X948626D02*
X950626D01*
X948626Y397986D02*
Y399986D01*
X998626Y397986D02*
X1000626D01*
Y399986D01*
X998626D02*
X1000626D01*
X998626Y397986D02*
Y399986D01*
X1048626Y197985D02*
X1050626D01*
Y199986D01*
X1048626D02*
X1050626D01*
X1048626Y197985D02*
Y199986D01*
Y347986D02*
X1050626D01*
Y349986D01*
X1048626D02*
X1050626D01*
X1048626Y347986D02*
Y349986D01*
Y397986D02*
X1050626D01*
Y399986D01*
X1048626D02*
X1050626D01*
X1048626Y397986D02*
Y399986D01*
Y447986D02*
X1050626D01*
Y449986D01*
X1048626D02*
X1050626D01*
X1048626Y447986D02*
Y449986D01*
Y497986D02*
X1050626D01*
Y499986D01*
X1048626D02*
X1050626D01*
X1048626Y497986D02*
Y499986D01*
X1098626Y397986D02*
X1100626D01*
Y399986D01*
X1098626D02*
X1100626D01*
X1098626Y397986D02*
Y399986D01*
X1148626Y197985D02*
X1150626D01*
Y199986D01*
X1148626D02*
X1150626D01*
X1148626Y197985D02*
Y199986D01*
Y347986D02*
X1150626D01*
Y349986D01*
X1148626D02*
X1150626D01*
X1148626Y347986D02*
Y349986D01*
X1198626Y197985D02*
X1200626D01*
Y199986D01*
X1198626D02*
X1200626D01*
X1198626Y197985D02*
Y199986D01*
Y397986D02*
X1200626D01*
Y399986D01*
X1198626D02*
X1200626D01*
X1198626Y397986D02*
Y399986D01*
X1248626Y47986D02*
X1250626D01*
Y49986D01*
X1248626D02*
X1250626D01*
X1248626Y47986D02*
Y49986D01*
Y347986D02*
X1250626D01*
Y349986D01*
X1248626D02*
X1250626D01*
X1248626Y347986D02*
Y349986D01*
Y397986D02*
X1250626D01*
Y399986D01*
X1248626D02*
X1250626D01*
X1248626Y397986D02*
Y399986D01*
Y497986D02*
X1250626D01*
Y499986D01*
X1248626D02*
X1250626D01*
X1248626Y497986D02*
Y499986D01*
X1298626Y147985D02*
X1300626D01*
Y149986D01*
X1298626D02*
X1300626D01*
X1298626Y147985D02*
Y149986D01*
Y297986D02*
X1300626D01*
Y299986D01*
X1298626D02*
X1300626D01*
X1298626Y297986D02*
Y299986D01*
Y397986D02*
X1300626D01*
Y399986D01*
X1298626D02*
X1300626D01*
X1298626Y397986D02*
Y399986D01*
Y447986D02*
X1300626D01*
Y449986D01*
X1298626D02*
X1300626D01*
X1298626Y447986D02*
Y449986D01*
Y497986D02*
X1300626D01*
Y499986D01*
X1298626D02*
X1300626D01*
X1298626Y497986D02*
Y499986D01*
X1348626Y197985D02*
X1350626D01*
Y199986D01*
X1348626D02*
X1350626D01*
X1348626Y197985D02*
Y199986D01*
Y397986D02*
X1350626D01*
Y399986D01*
X1348626D02*
X1350626D01*
X1348626Y397986D02*
Y399986D01*
X1398626Y47986D02*
X1400626D01*
Y49986D01*
X1398626D02*
X1400626D01*
X1398626Y47986D02*
Y49986D01*
Y197985D02*
X1400626D01*
Y199986D01*
X1398626D02*
X1400626D01*
X1398626Y197985D02*
Y199986D01*
Y347986D02*
X1400626D01*
Y349986D01*
X1398626D02*
X1400626D01*
X1398626Y347986D02*
Y349986D01*
Y397986D02*
X1400626D01*
Y399986D01*
X1398626D02*
X1400626D01*
X1398626Y397986D02*
Y399986D01*
Y447986D02*
X1400626D01*
Y449986D01*
X1398626D02*
X1400626D01*
X1398626Y447986D02*
Y449986D01*
Y497986D02*
X1400626D01*
Y499986D01*
X1398626D02*
X1400626D01*
X1398626Y497986D02*
Y499986D01*
X1448626Y47986D02*
X1450626D01*
Y49986D01*
X1448626D02*
X1450626D01*
X1448626Y47986D02*
Y49986D01*
Y397986D02*
X1450626D01*
Y399986D01*
X1448626D02*
X1450626D01*
X1448626Y397986D02*
Y399986D01*
Y447986D02*
X1450626D01*
Y449986D01*
X1448626D02*
X1450626D01*
X1448626Y447986D02*
Y449986D01*
Y497986D02*
X1450626D01*
Y499986D01*
X1448626D02*
X1450626D01*
X1448626Y497986D02*
Y499986D01*
X1498626Y197985D02*
X1500626D01*
Y199986D01*
X1498626D02*
X1500626D01*
X1498626Y197985D02*
Y199986D01*
Y347986D02*
X1500626D01*
Y349986D01*
X1498626D02*
X1500626D01*
X1498626Y347986D02*
Y349986D01*
Y397986D02*
X1500626D01*
Y399986D01*
X1498626D02*
X1500626D01*
X1498626Y397986D02*
Y399986D01*
Y447986D02*
X1500626D01*
Y449986D01*
X1498626D02*
X1500626D01*
X1498626Y447986D02*
Y449986D01*
X1548626Y47986D02*
X1550626D01*
Y49986D01*
X1548626D02*
X1550626D01*
X1548626Y47986D02*
Y49986D01*
Y397986D02*
X1550626D01*
Y399986D01*
X1548626D02*
X1550626D01*
X1548626Y397986D02*
Y399986D01*
X1598626Y397986D02*
X1600626D01*
Y399986D01*
X1598626D02*
X1600626D01*
X1598626Y397986D02*
Y399986D01*
X1658626Y47986D02*
X1660626D01*
Y49986D01*
X1658626D02*
X1660626D01*
X1658626Y47986D02*
Y49986D01*
X1701626Y97986D02*
X1703626D01*
Y99985D01*
X1701626D02*
X1703626D01*
X1701626Y97986D02*
Y99985D01*
X973000Y498000D02*
X975000D01*
Y500000D01*
X973000D02*
X975000D01*
X973000Y498000D02*
Y500000D01*
X372000Y498000D02*
X374000D01*
Y500000D01*
X372000D02*
X374000D01*
X372000Y498000D02*
Y500000D01*
X1693100Y433700D02*
X1695100D01*
Y435700D01*
X1693100D02*
X1695100D01*
X1693100Y433700D02*
Y435700D01*
X1701626Y247986D02*
X1703626D01*
Y249986D01*
X1701626D02*
X1703626D01*
X1701626Y247986D02*
Y249986D01*
X1658826Y197985D02*
X1660826D01*
Y199986D01*
X1658826D02*
X1660826D01*
X1658826Y197985D02*
Y199986D01*
X1637000Y256000D02*
X1639000D01*
Y258000D01*
X1637000D02*
X1639000D01*
X1637000Y256000D02*
Y258000D01*
X1639000Y112000D02*
X1641000D01*
Y114000D01*
X1639000D02*
X1641000D01*
X1639000Y112000D02*
Y114000D01*
X1098000Y313000D02*
X1100000D01*
Y315000D01*
X1098000D02*
X1100000D01*
X1098000Y313000D02*
Y315000D01*
X365000Y414000D02*
X366000Y416000D01*
X364000D02*
X366000D01*
X364000D02*
X365000Y414000D01*
X665000D02*
X666000Y416000D01*
X664000D02*
X666000D01*
X664000D02*
X665000Y414000D01*
X985000D02*
X986000Y416000D01*
X984000D02*
X986000D01*
X984000D02*
X985000Y414000D01*
X1275000D02*
X1276000Y416000D01*
X1274000D02*
X1276000D01*
X1274000D02*
X1275000Y414000D01*
X1525000D02*
X1526000Y416000D01*
X1524000D02*
X1526000D01*
X1524000D02*
X1525000Y414000D01*
X181300Y133000D02*
X182300Y135000D01*
X180300D02*
X182300D01*
X180300D02*
X181300Y133000D01*
X958000D02*
X959000Y135000D01*
X957000D02*
X959000D01*
X957000D02*
X958000Y133000D01*
X1190000Y129000D02*
X1191000Y131000D01*
X1189000D02*
X1191000D01*
X1189000D02*
X1190000Y129000D01*
X1356000D02*
X1357000Y131000D01*
X1355000D02*
X1357000D01*
X1355000D02*
X1356000Y129000D01*
X1557000Y17000D02*
X1558000Y19000D01*
X1556000D02*
X1558000D01*
X1556000D02*
X1557000Y17000D01*
X960000Y18000D02*
X961000Y20000D01*
X959000D02*
X961000D01*
X959000D02*
X960000Y18000D01*
X674000Y54000D02*
X675000Y56000D01*
X673000D02*
X675000D01*
X673000D02*
X674000Y54000D01*
X426000D02*
X427000Y56000D01*
X425000D02*
X427000D01*
X425000D02*
X426000Y54000D01*
X70500Y414500D02*
X71500Y416500D01*
X69500D02*
X71500D01*
X69500D02*
X70500Y414500D01*
X1619733Y520400D02*
Y521733D01*
X1620400Y522400D01*
X1621066Y521733D01*
Y520400D01*
Y521400D01*
X1619733D01*
Y512000D02*
Y513333D01*
X1620400Y514000D01*
X1621066Y513333D01*
Y512000D01*
Y513000D01*
X1619733D01*
Y528800D02*
Y530133D01*
X1620400Y530800D01*
X1621066Y530133D01*
Y528800D01*
Y529800D01*
X1619733D01*
Y503500D02*
Y504833D01*
X1620400Y505500D01*
X1621066Y504833D01*
Y503500D01*
Y504500D01*
X1619733D01*
X1620033Y495400D02*
Y496733D01*
X1620700Y497400D01*
X1621366Y496733D01*
Y495400D01*
Y496400D01*
X1620033D01*
Y486900D02*
Y488233D01*
X1620700Y488900D01*
X1621366Y488233D01*
Y486900D01*
Y487900D01*
X1620033D01*
X1703134Y257800D02*
Y259133D01*
X1703800Y259800D01*
X1704466Y259133D01*
Y257800D01*
Y258800D01*
X1703134D01*
X1621634Y72300D02*
Y73633D01*
X1622300Y74300D01*
X1622967Y73633D01*
Y72300D01*
Y73300D01*
X1621634D01*
Y94300D02*
Y95633D01*
X1622300Y96300D01*
X1622967Y95633D01*
Y94300D01*
Y95300D01*
X1621634D01*
X1622133Y140300D02*
Y141633D01*
X1622800Y142300D01*
X1623466Y141633D01*
Y140300D01*
Y141300D01*
X1622133D01*
Y182800D02*
Y184133D01*
X1622800Y184800D01*
X1623466Y184133D01*
Y182800D01*
Y183800D01*
X1622133D01*
Y219800D02*
Y221133D01*
X1622800Y221800D01*
X1623466Y221133D01*
Y219800D01*
Y220800D01*
X1622133D01*
Y243300D02*
Y244633D01*
X1622800Y245300D01*
X1623466Y244633D01*
Y243300D01*
Y244300D01*
X1622133D01*
X1621634Y292800D02*
Y294133D01*
X1622300Y294800D01*
X1622967Y294133D01*
Y292800D01*
Y293800D01*
X1621634D01*
X1622133Y333800D02*
Y335133D01*
X1622800Y335800D01*
X1623466Y335133D01*
Y333800D01*
Y334800D01*
X1622133D01*
X1705634Y373800D02*
Y375133D01*
X1706300Y375800D01*
X1706966Y375133D01*
Y373800D01*
Y374800D01*
X1705634D01*
X1615133Y393800D02*
Y395133D01*
X1615800Y395800D01*
X1616467Y395133D01*
Y393800D01*
Y394800D01*
X1615133D01*
X1547134Y142800D02*
Y144133D01*
X1547800Y144800D01*
X1548466Y144133D01*
Y142800D01*
Y143800D01*
X1547134D01*
Y183300D02*
Y184633D01*
X1547800Y185300D01*
X1548466Y184633D01*
Y183300D01*
Y184300D01*
X1547134D01*
Y216800D02*
Y218133D01*
X1547800Y218800D01*
X1548466Y218133D01*
Y216800D01*
Y217800D01*
X1547134D01*
Y260300D02*
Y261633D01*
X1547800Y262300D01*
X1548466Y261633D01*
Y260300D01*
Y261300D01*
X1547134D01*
Y291800D02*
Y293133D01*
X1547800Y293800D01*
X1548466Y293133D01*
Y291800D01*
Y292800D01*
X1547134D01*
Y335800D02*
Y337133D01*
X1547800Y337800D01*
X1548466Y337133D01*
Y335800D01*
Y336800D01*
X1547134D01*
Y365800D02*
Y367133D01*
X1547800Y367800D01*
X1548466Y367133D01*
Y365800D01*
Y366800D01*
X1547134D01*
X1509634Y66400D02*
Y67733D01*
X1510300Y68400D01*
X1510966Y67733D01*
Y66400D01*
Y67400D01*
X1509634D01*
X1472134Y109800D02*
Y111133D01*
X1472800Y111800D01*
X1473466Y111133D01*
Y109800D01*
Y110800D01*
X1472134D01*
Y139800D02*
Y141133D01*
X1472800Y141800D01*
X1473466Y141133D01*
Y139800D01*
Y140800D01*
X1472134D01*
Y182800D02*
Y184133D01*
X1472800Y184800D01*
X1473466Y184133D01*
Y182800D01*
Y183800D01*
X1472134D01*
Y215800D02*
Y217133D01*
X1472800Y217800D01*
X1473466Y217133D01*
Y215800D01*
Y216800D01*
X1472134D01*
X1472055Y258879D02*
Y260212D01*
X1472722Y260878D01*
X1473388Y260212D01*
Y258879D01*
Y259878D01*
X1472055D01*
X1472134Y290800D02*
Y292133D01*
X1472800Y292800D01*
X1473466Y292133D01*
Y290800D01*
Y291800D01*
X1472134D01*
Y332800D02*
Y334133D01*
X1472800Y334800D01*
X1473466Y334133D01*
Y332800D01*
Y333800D01*
X1472134D01*
Y364800D02*
Y366133D01*
X1472800Y366800D01*
X1473466Y366133D01*
Y364800D01*
Y365800D01*
X1472134D01*
X1634710Y100377D02*
Y101710D01*
X1635377Y102376D01*
X1636043Y101710D01*
Y100377D01*
Y101377D01*
X1634710D01*
X1631133Y169800D02*
Y171133D01*
X1631800Y171800D01*
X1632467Y171133D01*
Y169800D01*
Y170800D01*
X1631133D01*
X1710134Y179800D02*
Y181133D01*
X1710800Y181800D01*
X1711466Y181133D01*
Y179800D01*
Y180800D01*
X1710134D01*
X1597134Y242800D02*
Y244133D01*
X1597800Y244800D01*
X1598466Y244133D01*
Y242800D01*
Y243800D01*
X1597134D01*
X1636134Y270800D02*
Y272133D01*
X1636800Y272800D01*
X1637466Y272133D01*
Y270800D01*
Y271800D01*
X1636134D01*
X1629133Y308800D02*
Y310133D01*
X1629800Y310800D01*
X1630466Y310133D01*
Y308800D01*
Y309800D01*
X1629133D01*
X1615133Y386800D02*
Y388133D01*
X1615800Y388800D01*
X1616467Y388133D01*
Y386800D01*
Y387800D01*
X1615133D01*
X1636134Y386800D02*
Y388133D01*
X1636800Y388800D01*
X1637466Y388133D01*
Y386800D01*
Y387800D01*
X1636134D01*
X1615133Y377800D02*
Y379133D01*
X1615800Y379800D01*
X1616467Y379133D01*
Y377800D01*
Y378800D01*
X1615133D01*
X1626134Y377800D02*
Y379133D01*
X1626800Y379800D01*
X1627467Y379133D01*
Y377800D01*
Y378800D01*
X1626134D01*
X1405134Y504800D02*
Y506133D01*
X1405800Y506800D01*
X1406466Y506133D01*
Y504800D01*
Y505800D01*
X1405134D01*
X1555733Y443500D02*
Y444833D01*
X1556400Y445500D01*
X1557067Y444833D01*
Y443500D01*
Y444500D01*
X1555733D01*
X112134Y57800D02*
Y59133D01*
X112800Y59800D01*
X113467Y59133D01*
Y57800D01*
Y58800D01*
X112134D01*
X138134Y134800D02*
Y136133D01*
X138800Y136800D01*
X139467Y136133D01*
Y134800D01*
Y135800D01*
X138134D01*
X130133Y196800D02*
Y198133D01*
X130800Y198800D01*
X131466Y198133D01*
Y196800D01*
Y197800D01*
X130133D01*
Y271800D02*
Y273133D01*
X130800Y273800D01*
X131466Y273133D01*
Y271800D01*
Y272800D01*
X130133D01*
X94134Y346800D02*
Y348133D01*
X94800Y348800D01*
X95466Y348133D01*
Y346800D01*
Y347800D01*
X94134D01*
Y458800D02*
Y460133D01*
X94800Y460800D01*
X95466Y460133D01*
Y458800D01*
Y459800D01*
X94134D01*
X203134Y46800D02*
Y48133D01*
X203800Y48800D01*
X204467Y48133D01*
Y46800D01*
Y47800D01*
X203134D01*
X264134Y121800D02*
Y123133D01*
X264800Y123800D01*
X265466Y123133D01*
Y121800D01*
Y122800D01*
X264134D01*
X227134Y196800D02*
Y198133D01*
X227800Y198800D01*
X228466Y198133D01*
Y196800D01*
Y197800D01*
X227134D01*
X208134Y271800D02*
Y273133D01*
X208800Y273800D01*
X209466Y273133D01*
Y271800D01*
Y272800D01*
X208134D01*
X170133Y346800D02*
Y348133D01*
X170800Y348800D01*
X171467Y348133D01*
Y346800D01*
Y347800D01*
X170133D01*
X301134Y46800D02*
Y48133D01*
X301800Y48800D01*
X302466Y48133D01*
Y46800D01*
Y47800D01*
X301134D01*
X341134Y121800D02*
Y123133D01*
X341800Y123800D01*
X342466Y123133D01*
Y121800D01*
Y122800D01*
X341134D01*
X302134Y196800D02*
Y198133D01*
X302800Y198800D01*
X303466Y198133D01*
Y196800D01*
Y197800D01*
X302134D01*
X284134Y271800D02*
Y273133D01*
X284800Y273800D01*
X285466Y273133D01*
Y271800D01*
Y272800D01*
X284134D01*
X247134Y346800D02*
Y348133D01*
X247800Y348800D01*
X248466Y348133D01*
Y346800D01*
Y347800D01*
X247134D01*
X416134Y121800D02*
Y123133D01*
X416800Y123800D01*
X417466Y123133D01*
Y121800D01*
Y122800D01*
X416134D01*
X378134Y196800D02*
Y198133D01*
X378800Y198800D01*
X379466Y198133D01*
Y196800D01*
Y197800D01*
X378134D01*
X360134Y271800D02*
Y273133D01*
X360800Y273800D01*
X361466Y273133D01*
Y271800D01*
Y272800D01*
X360134D01*
X322134Y346800D02*
Y348133D01*
X322800Y348800D01*
X323466Y348133D01*
Y346800D01*
Y347800D01*
X322134D01*
X491134Y121800D02*
Y123133D01*
X491800Y123800D01*
X492466Y123133D01*
Y121800D01*
Y122800D01*
X491134D01*
X454134Y196800D02*
Y198133D01*
X454800Y198800D01*
X455466Y198133D01*
Y196800D01*
Y197800D01*
X454134D01*
X433134Y271800D02*
Y273133D01*
X433800Y273800D01*
X434466Y273133D01*
Y271800D01*
Y272800D01*
X433134D01*
X395134Y346800D02*
Y348133D01*
X395800Y348800D01*
X396466Y348133D01*
Y346800D01*
Y347800D01*
X395134D01*
X576134Y46800D02*
Y48133D01*
X576800Y48800D01*
X577466Y48133D01*
Y46800D01*
Y47800D01*
X576134D01*
X564134Y121800D02*
Y123133D01*
X564800Y123800D01*
X565466Y123133D01*
Y121800D01*
Y122800D01*
X564134D01*
X526134Y196800D02*
Y198133D01*
X526800Y198800D01*
X527466Y198133D01*
Y196800D01*
Y197800D01*
X526134D01*
X507134Y271800D02*
Y273133D01*
X507800Y273800D01*
X508466Y273133D01*
Y271800D01*
Y272800D01*
X507134D01*
X469134Y346800D02*
Y348133D01*
X469800Y348800D01*
X470466Y348133D01*
Y346800D01*
Y347800D01*
X469134D01*
X639134Y121800D02*
Y123133D01*
X639800Y123800D01*
X640466Y123133D01*
Y121800D01*
Y122800D01*
X639134D01*
X601134Y196800D02*
Y198133D01*
X601800Y198800D01*
X602466Y198133D01*
Y196800D01*
Y197800D01*
X601134D01*
X582134Y271800D02*
Y273133D01*
X582800Y273800D01*
X583466Y273133D01*
Y271800D01*
Y272800D01*
X582134D01*
X545134Y346800D02*
Y348133D01*
X545800Y348800D01*
X546466Y348133D01*
Y346800D01*
Y347800D01*
X545134D01*
X247134Y458800D02*
Y460133D01*
X247800Y460800D01*
X248466Y460133D01*
Y458800D01*
Y459800D01*
X247134D01*
X322134Y458800D02*
Y460133D01*
X322800Y460800D01*
X323466Y460133D01*
Y458800D01*
Y459800D01*
X322134D01*
X395134Y458800D02*
Y460133D01*
X395800Y460800D01*
X396466Y460133D01*
Y458800D01*
Y459800D01*
X395134D01*
X469134Y458800D02*
Y460133D01*
X469800Y460800D01*
X470466Y460133D01*
Y458800D01*
Y459800D01*
X469134D01*
X583134Y458800D02*
Y460133D01*
X583800Y460800D01*
X584466Y460133D01*
Y458800D01*
Y459800D01*
X583134D01*
X714134Y121800D02*
Y123133D01*
X714800Y123800D01*
X715466Y123133D01*
Y121800D01*
Y122800D01*
X714134D01*
X676134Y196800D02*
Y198133D01*
X676800Y198800D01*
X677466Y198133D01*
Y196800D01*
Y197800D01*
X676134D01*
X658134Y271800D02*
Y273133D01*
X658800Y273800D01*
X659466Y273133D01*
Y271800D01*
Y272800D01*
X658134D01*
X621134Y346800D02*
Y348133D01*
X621800Y348800D01*
X622466Y348133D01*
Y346800D01*
Y347800D01*
X621134D01*
X658134Y458800D02*
Y460133D01*
X658800Y460800D01*
X659466Y460133D01*
Y458800D01*
Y459800D01*
X658134D01*
X789134Y121800D02*
Y123133D01*
X789800Y123800D01*
X790466Y123133D01*
Y121800D01*
Y122800D01*
X789134D01*
X752134Y196800D02*
Y198133D01*
X752800Y198800D01*
X753466Y198133D01*
Y196800D01*
Y197800D01*
X752134D01*
X734134Y271800D02*
Y273133D01*
X734800Y273800D01*
X735466Y273133D01*
Y271800D01*
Y272800D01*
X734134D01*
X696134Y346800D02*
Y348133D01*
X696800Y348800D01*
X697466Y348133D01*
Y346800D01*
Y347800D01*
X696134D01*
X733134Y458800D02*
Y460133D01*
X733800Y460800D01*
X734466Y460133D01*
Y458800D01*
Y459800D01*
X733134D01*
X1710134Y491800D02*
Y493133D01*
X1710800Y493800D01*
X1711466Y493133D01*
Y491800D01*
Y492800D01*
X1710134D01*
X1696134Y491800D02*
Y493133D01*
X1696800Y493800D01*
X1697466Y493133D01*
Y491800D01*
Y492800D01*
X1696134D01*
X1703134Y491800D02*
Y493133D01*
X1703800Y493800D01*
X1704466Y493133D01*
Y491800D01*
Y492800D01*
X1703134D01*
X1705634Y400300D02*
Y401633D01*
X1706300Y402300D01*
X1706966Y401633D01*
Y400300D01*
Y401300D01*
X1705634D01*
X1711134Y405800D02*
Y407133D01*
X1711800Y407800D01*
X1712466Y407133D01*
Y405800D01*
Y406800D01*
X1711134D01*
X1625933Y412000D02*
Y413333D01*
X1626600Y414000D01*
X1627267Y413333D01*
Y412000D01*
Y413000D01*
X1625933D01*
X1644589Y443545D02*
Y444878D01*
X1645255Y445544D01*
X1645922Y444878D01*
Y443545D01*
Y444545D01*
X1644589D01*
X1618733Y419400D02*
Y420733D01*
X1619400Y421400D01*
X1620066Y420733D01*
Y419400D01*
Y420400D01*
X1618733D01*
X1696134Y470800D02*
Y472133D01*
X1696800Y472800D01*
X1697466Y472133D01*
Y470800D01*
Y471800D01*
X1696134D01*
X1703134Y470800D02*
Y472133D01*
X1703800Y472800D01*
X1704466Y472133D01*
Y470800D01*
Y471800D01*
X1703134D01*
X1710134Y470800D02*
Y472133D01*
X1710800Y472800D01*
X1711466Y472133D01*
Y470800D01*
Y471800D01*
X1710134D01*
X1578133Y469800D02*
Y471133D01*
X1578800Y471800D01*
X1579467Y471133D01*
Y469800D01*
Y470800D01*
X1578133D01*
X1586133Y469800D02*
Y471133D01*
X1586800Y471800D01*
X1587467Y471133D01*
Y469800D01*
Y470800D01*
X1586133D01*
X1594133Y469800D02*
Y471133D01*
X1594800Y471800D01*
X1595467Y471133D01*
Y469800D01*
Y470800D01*
X1594133D01*
X864133Y46800D02*
Y48133D01*
X864800Y48800D01*
X865466Y48133D01*
Y46800D01*
Y47800D01*
X864133D01*
Y121800D02*
Y123133D01*
X864800Y123800D01*
X865466Y123133D01*
Y121800D01*
Y122800D01*
X864133D01*
X827133Y196800D02*
Y198133D01*
X827800Y198800D01*
X828467Y198133D01*
Y196800D01*
Y197800D01*
X827133D01*
X808134Y271800D02*
Y273133D01*
X808800Y273800D01*
X809466Y273133D01*
Y271800D01*
Y272800D01*
X808134D01*
X771134Y346800D02*
Y348133D01*
X771800Y348800D01*
X772466Y348133D01*
Y346800D01*
Y347800D01*
X771134D01*
X809134Y458800D02*
Y460133D01*
X809800Y460800D01*
X810466Y460133D01*
Y458800D01*
Y459800D01*
X809134D01*
X1602134Y469800D02*
Y471133D01*
X1602800Y471800D01*
X1603466Y471133D01*
Y469800D01*
Y470800D01*
X1602134D01*
X957133Y46800D02*
Y48133D01*
X957800Y48800D01*
X958467Y48133D01*
Y46800D01*
Y47800D01*
X957133D01*
X939133Y121800D02*
Y123133D01*
X939800Y123800D01*
X940466Y123133D01*
Y121800D01*
Y122800D01*
X939133D01*
X901134Y196800D02*
Y198133D01*
X901800Y198800D01*
X902466Y198133D01*
Y196800D01*
Y197800D01*
X901134D01*
X883134Y271800D02*
Y273133D01*
X883800Y273800D01*
X884466Y273133D01*
Y271800D01*
Y272800D01*
X883134D01*
X845133Y346800D02*
Y348133D01*
X845800Y348800D01*
X846467Y348133D01*
Y346800D01*
Y347800D01*
X845133D01*
X921134Y458800D02*
Y460133D01*
X921800Y460800D01*
X922466Y460133D01*
Y458800D01*
Y459800D01*
X921134D01*
X1610134Y469800D02*
Y471133D01*
X1610800Y471800D01*
X1611466Y471133D01*
Y469800D01*
Y470800D01*
X1610134D01*
X1051134Y46800D02*
Y48133D01*
X1051800Y48800D01*
X1052466Y48133D01*
Y46800D01*
Y47800D01*
X1051134D01*
X1080134Y121800D02*
Y123133D01*
X1080800Y123800D01*
X1081466Y123133D01*
Y121800D01*
Y122800D01*
X1080134D01*
X976134Y196800D02*
Y198133D01*
X976800Y198800D01*
X977466Y198133D01*
Y196800D01*
Y197800D01*
X976134D01*
X957133Y271800D02*
Y273133D01*
X957800Y273800D01*
X958467Y273133D01*
Y271800D01*
Y272800D01*
X957133D01*
X920133Y346800D02*
Y348133D01*
X920800Y348800D01*
X921467Y348133D01*
Y346800D01*
Y347800D01*
X920133D01*
X995133Y458800D02*
Y460133D01*
X995800Y460800D01*
X996467Y460133D01*
Y458800D01*
Y459800D01*
X995133D01*
X1618134Y469800D02*
Y471133D01*
X1618800Y471800D01*
X1619467Y471133D01*
Y469800D01*
Y470800D01*
X1618134D01*
X1146134Y46800D02*
Y48133D01*
X1146800Y48800D01*
X1147466Y48133D01*
Y46800D01*
Y47800D01*
X1146134D01*
X1103133Y196800D02*
Y198133D01*
X1103800Y198800D01*
X1104467Y198133D01*
Y196800D01*
Y197800D01*
X1103133D01*
X1038134Y271800D02*
Y273133D01*
X1038800Y273800D01*
X1039466Y273133D01*
Y271800D01*
Y272800D01*
X1038134D01*
X996134Y346800D02*
Y348133D01*
X996800Y348800D01*
X997466Y348133D01*
Y346800D01*
Y347800D01*
X996134D01*
X1071134Y458800D02*
Y460133D01*
X1071800Y460800D01*
X1072466Y460133D01*
Y458800D01*
Y459800D01*
X1071134D01*
X1131188Y271619D02*
Y272952D01*
X1131854Y273618D01*
X1132520Y272952D01*
Y271619D01*
Y272619D01*
X1131188D01*
X1116133Y346800D02*
Y348133D01*
X1116800Y348800D01*
X1117467Y348133D01*
Y346800D01*
Y347800D01*
X1116133D01*
X1146134Y458800D02*
Y460133D01*
X1146800Y460800D01*
X1147466Y460133D01*
Y458800D01*
Y459800D01*
X1146134D01*
X1238134Y46800D02*
Y48133D01*
X1238800Y48800D01*
X1239466Y48133D01*
Y46800D01*
Y47800D01*
X1238134D01*
X1238398Y271783D02*
Y273116D01*
X1239064Y273783D01*
X1239730Y273116D01*
Y271783D01*
Y272783D01*
X1238398D01*
X1238134Y346800D02*
Y348133D01*
X1238800Y348800D01*
X1239466Y348133D01*
Y346800D01*
Y347800D01*
X1238134D01*
Y458800D02*
Y460133D01*
X1238800Y460800D01*
X1239466Y460133D01*
Y458800D01*
Y459800D01*
X1238134D01*
X1710134Y450800D02*
Y452133D01*
X1710800Y452800D01*
X1711466Y452133D01*
Y450800D01*
Y451800D01*
X1710134D01*
X1703134Y450800D02*
Y452133D01*
X1703800Y452800D01*
X1704466Y452133D01*
Y450800D01*
Y451800D01*
X1703134D01*
X1696134Y450800D02*
Y452133D01*
X1696800Y452800D01*
X1697466Y452133D01*
Y450800D01*
Y451800D01*
X1696134D01*
X1314133Y46800D02*
Y48133D01*
X1314800Y48800D01*
X1315466Y48133D01*
Y46800D01*
Y47800D01*
X1314133D01*
Y121800D02*
Y123133D01*
X1314800Y123800D01*
X1315466Y123133D01*
Y121800D01*
Y122800D01*
X1314133D01*
Y271800D02*
Y273133D01*
X1314800Y273800D01*
X1315466Y273133D01*
Y271800D01*
Y272800D01*
X1314133D01*
Y346800D02*
Y348133D01*
X1314800Y348800D01*
X1315466Y348133D01*
Y346800D01*
Y347800D01*
X1314133D01*
Y458800D02*
Y460133D01*
X1314800Y460800D01*
X1315466Y460133D01*
Y458800D01*
Y459800D01*
X1314133D01*
X1390133Y46800D02*
Y48133D01*
X1390800Y48800D01*
X1391467Y48133D01*
Y46800D01*
Y47800D01*
X1390133D01*
Y271800D02*
Y273133D01*
X1390800Y273800D01*
X1391467Y273133D01*
Y271800D01*
Y272800D01*
X1390133D01*
Y346800D02*
Y348133D01*
X1390800Y348800D01*
X1391467Y348133D01*
Y346800D01*
Y347800D01*
X1390133D01*
Y458800D02*
Y460133D01*
X1390800Y460800D01*
X1391467Y460133D01*
Y458800D01*
Y459800D01*
X1390133D01*
X1630133Y463800D02*
Y465133D01*
X1630800Y465800D01*
X1631466Y465133D01*
Y463800D01*
Y464800D01*
X1630133D01*
X1635134Y458800D02*
Y460133D01*
X1635800Y460800D01*
X1636466Y460133D01*
Y458800D01*
Y459800D01*
X1635134D01*
X1598133Y94800D02*
Y96133D01*
X1598800Y96800D01*
X1599467Y96133D01*
Y94800D01*
Y95800D01*
X1598133D01*
X1646134Y370800D02*
Y372133D01*
X1646800Y372800D01*
X1647466Y372133D01*
Y370800D01*
Y371800D01*
X1646134D01*
X1631133Y393800D02*
Y395133D01*
X1631800Y395800D01*
X1632467Y395133D01*
Y393800D01*
Y394800D01*
X1631133D01*
X1655134Y435800D02*
Y437133D01*
X1655800Y437800D01*
X1656466Y437133D01*
Y435800D01*
Y436800D01*
X1655134D01*
X1665134Y435800D02*
Y437133D01*
X1665800Y437800D01*
X1666466Y437133D01*
Y435800D01*
Y436800D01*
X1665134D01*
X151466Y159100D02*
X150134D01*
Y157100D01*
X151466D01*
X150134Y158100D02*
X150800D01*
X150134Y99100D02*
Y97100D01*
X151133D01*
X151466Y97434D01*
Y98766D01*
X151133Y99100D01*
X150134D01*
X56134D02*
Y97100D01*
X57133D01*
X57466Y97434D01*
Y98766D01*
X57133Y99100D01*
X56134D01*
X57466Y159100D02*
X56134D01*
Y157100D01*
X57466D01*
X56134Y158100D02*
X56800D01*
X1117166Y384100D02*
X1115833D01*
Y382100D01*
X1117166D01*
X1115833Y383100D02*
X1116500D01*
X1115833Y324100D02*
Y322100D01*
X1116833D01*
X1117166Y322434D01*
Y323766D01*
X1116833Y324100D01*
X1115833D01*
X1021834D02*
Y322100D01*
X1022833D01*
X1023166Y322434D01*
Y323766D01*
X1022833Y324100D01*
X1021834D01*
X1023166Y384100D02*
X1021834D01*
Y382100D01*
X1023166D01*
X1021834Y383100D02*
X1022500D01*
X1107766Y234100D02*
X1106433D01*
Y232100D01*
X1107766D01*
X1106433Y233100D02*
X1107100D01*
X1106433Y174100D02*
Y172100D01*
X1107433D01*
X1107766Y172434D01*
Y173767D01*
X1107433Y174100D01*
X1106433D01*
X1012434D02*
Y172100D01*
X1013433D01*
X1013766Y172434D01*
Y173767D01*
X1013433Y174100D01*
X1012434D01*
X1013766Y234100D02*
X1012434D01*
Y232100D01*
X1013766D01*
X1012434Y233100D02*
X1013100D01*
X1089066Y159100D02*
X1087733D01*
Y157100D01*
X1089066D01*
X1087733Y158100D02*
X1088400D01*
X1087733Y99100D02*
Y97100D01*
X1088733D01*
X1089066Y97434D01*
Y98766D01*
X1088733Y99100D01*
X1087733D01*
X993734D02*
Y97100D01*
X994733D01*
X995066Y97434D01*
Y98766D01*
X994733Y99100D01*
X993734D01*
X995066Y159100D02*
X993734D01*
Y157100D01*
X995066D01*
X993734Y158100D02*
X994400D01*
X338966Y84000D02*
X337633D01*
Y82000D01*
X338966D01*
X337633Y83000D02*
X338300D01*
X337633Y24000D02*
Y22000D01*
X338633D01*
X338966Y22334D01*
Y23666D01*
X338633Y24000D01*
X337633D01*
X731634D02*
Y22000D01*
X732633D01*
X732966Y22334D01*
Y23666D01*
X732633Y24000D01*
X731634D01*
X732966Y84000D02*
X731634D01*
Y82000D01*
X732966D01*
X731634Y83000D02*
X732300D01*
X1529666Y84100D02*
X1528333D01*
Y82100D01*
X1529666D01*
X1528333Y83100D02*
X1529000D01*
X1528333Y24100D02*
Y22100D01*
X1529333D01*
X1529666Y22434D01*
Y23766D01*
X1529333Y24100D01*
X1528333D01*
X1434334D02*
Y22100D01*
X1435333D01*
X1435666Y22434D01*
Y23766D01*
X1435333Y24100D01*
X1434334D01*
X1435666Y84100D02*
X1434334D01*
Y82100D01*
X1435666D01*
X1434334Y83100D02*
X1435000D01*
X1639666Y293200D02*
X1638334D01*
Y291200D01*
X1639666D01*
X1638334Y292200D02*
X1639000D01*
X1698334Y293200D02*
Y291200D01*
X1699333D01*
X1699666Y291534D01*
Y292866D01*
X1699333Y293200D01*
X1698334D01*
Y199200D02*
Y197200D01*
X1699333D01*
X1699666Y197534D01*
Y198866D01*
X1699333Y199200D01*
X1698334D01*
X1639666D02*
X1638334D01*
Y197200D01*
X1639666D01*
X1638334Y198200D02*
X1639000D01*
X1639666Y143200D02*
X1638334D01*
Y141200D01*
X1639666D01*
X1638334Y142200D02*
X1639000D01*
X1698334Y143200D02*
Y141200D01*
X1699333D01*
X1699666Y141534D01*
Y142867D01*
X1699333Y143200D01*
X1698334D01*
Y49200D02*
Y47200D01*
X1699333D01*
X1699666Y47534D01*
Y48867D01*
X1699333Y49200D01*
X1698334D01*
X1639666D02*
X1638334D01*
Y47200D01*
X1639666D01*
X1638334Y48200D02*
X1639000D01*
X76439Y283624D02*
X75107D01*
Y282625D01*
X75773D01*
X75107D01*
Y281625D01*
X66439Y263291D02*
X66106Y263624D01*
X65440D01*
X65107Y263291D01*
Y261958D01*
X65440Y261625D01*
X66106D01*
X66439Y261958D01*
X91439Y273291D02*
X91106Y273624D01*
X90440D01*
X90107Y273291D01*
Y271958D01*
X90440Y271625D01*
X91106D01*
X91439Y271958D01*
X55422Y283624D02*
Y281625D01*
X56421D01*
X56754Y281958D01*
Y282291D01*
X56421Y282625D01*
X55422D01*
X56421D01*
X56754Y282958D01*
Y283291D01*
X56421Y283624D01*
X55422D01*
X94792D02*
Y281625D01*
X95791D01*
X96125Y281958D01*
Y282291D01*
X95791Y282625D01*
X94792D01*
X95791D01*
X96125Y282958D01*
Y283291D01*
X95791Y283624D01*
X94792D01*
X1107292D02*
Y281625D01*
X1108291D01*
X1108624Y281958D01*
Y282291D01*
X1108291Y282625D01*
X1107292D01*
X1108291D01*
X1108624Y282958D01*
Y283291D01*
X1108291Y283624D01*
X1107292D01*
X1067922D02*
Y281625D01*
X1068921D01*
X1069254Y281958D01*
Y282291D01*
X1068921Y282625D01*
X1067922D01*
X1068921D01*
X1069254Y282958D01*
Y283291D01*
X1068921Y283624D01*
X1067922D01*
X1103940Y273291D02*
X1103606Y273624D01*
X1102940D01*
X1102607Y273291D01*
Y271958D01*
X1102940Y271625D01*
X1103606D01*
X1103940Y271958D01*
X1078940Y263291D02*
X1078606Y263624D01*
X1077940D01*
X1077607Y263291D01*
Y261958D01*
X1077940Y261625D01*
X1078606D01*
X1078940Y261958D01*
X1088939Y283624D02*
X1087607D01*
Y282625D01*
X1088273D01*
X1087607D01*
Y281625D01*
X244792Y133624D02*
Y131625D01*
X245791D01*
X246124Y131958D01*
Y132291D01*
X245791Y132624D01*
X244792D01*
X245791D01*
X246124Y132958D01*
Y133291D01*
X245791Y133624D01*
X244792D01*
X205421D02*
Y131625D01*
X206421D01*
X206754Y131958D01*
Y132291D01*
X206421Y132624D01*
X205421D01*
X206421D01*
X206754Y132958D01*
Y133291D01*
X206421Y133624D01*
X205421D01*
X241439Y123291D02*
X241106Y123624D01*
X240440D01*
X240107Y123291D01*
Y121958D01*
X240440Y121625D01*
X241106D01*
X241439Y121958D01*
X216439Y113291D02*
X216106Y113624D01*
X215440D01*
X215107Y113291D01*
Y111958D01*
X215440Y111625D01*
X216106D01*
X216439Y111958D01*
X226439Y133624D02*
X225107D01*
Y132624D01*
X225773D01*
X225107D01*
Y131625D01*
X563492Y283624D02*
Y281625D01*
X564491D01*
X564824Y281958D01*
Y282291D01*
X564491Y282625D01*
X563492D01*
X564491D01*
X564824Y282958D01*
Y283291D01*
X564491Y283624D01*
X563492D01*
X524122D02*
Y281625D01*
X525121D01*
X525454Y281958D01*
Y282291D01*
X525121Y282625D01*
X524122D01*
X525121D01*
X525454Y282958D01*
Y283291D01*
X525121Y283624D01*
X524122D01*
X560140Y273291D02*
X559806Y273624D01*
X559140D01*
X558807Y273291D01*
Y271958D01*
X559140Y271625D01*
X559806D01*
X560140Y271958D01*
X535140Y263291D02*
X534806Y263624D01*
X534140D01*
X533807Y263291D01*
Y261958D01*
X534140Y261625D01*
X534806D01*
X535140Y261958D01*
X545140Y283624D02*
X543807D01*
Y282625D01*
X544473D01*
X543807D01*
Y281625D01*
X319792Y133624D02*
Y131625D01*
X320791D01*
X321124Y131958D01*
Y132291D01*
X320791Y132624D01*
X319792D01*
X320791D01*
X321124Y132958D01*
Y133291D01*
X320791Y133624D01*
X319792D01*
X280421D02*
Y131625D01*
X281421D01*
X281754Y131958D01*
Y132291D01*
X281421Y132624D01*
X280421D01*
X281421D01*
X281754Y132958D01*
Y133291D01*
X281421Y133624D01*
X280421D01*
X316439Y123291D02*
X316106Y123624D01*
X315440D01*
X315107Y123291D01*
Y121958D01*
X315440Y121625D01*
X316106D01*
X316439Y121958D01*
X291439Y113291D02*
X291106Y113624D01*
X290440D01*
X290107Y113291D01*
Y111958D01*
X290440Y111625D01*
X291106D01*
X291439Y111958D01*
X301439Y133624D02*
X300107D01*
Y132624D01*
X300773D01*
X300107D01*
Y131625D01*
X263492Y283624D02*
Y281625D01*
X264491D01*
X264824Y281958D01*
Y282291D01*
X264491Y282625D01*
X263492D01*
X264491D01*
X264824Y282958D01*
Y283291D01*
X264491Y283624D01*
X263492D01*
X224121D02*
Y281625D01*
X225121D01*
X225454Y281958D01*
Y282291D01*
X225121Y282625D01*
X224121D01*
X225121D01*
X225454Y282958D01*
Y283291D01*
X225121Y283624D01*
X224121D01*
X260139Y273291D02*
X259806Y273624D01*
X259140D01*
X258807Y273291D01*
Y271958D01*
X259140Y271625D01*
X259806D01*
X260139Y271958D01*
X235139Y263291D02*
X234806Y263624D01*
X234140D01*
X233807Y263291D01*
Y261958D01*
X234140Y261625D01*
X234806D01*
X235139Y261958D01*
X245139Y283624D02*
X243807D01*
Y282625D01*
X244473D01*
X243807D01*
Y281625D01*
X75991Y358624D02*
Y356625D01*
X76991D01*
X77324Y356958D01*
Y357291D01*
X76991Y357625D01*
X75991D01*
X76991D01*
X77324Y357958D01*
Y358291D01*
X76991Y358624D01*
X75991D01*
X36622D02*
Y356625D01*
X37621D01*
X37955Y356958D01*
Y357291D01*
X37621Y357625D01*
X36622D01*
X37621D01*
X37955Y357958D01*
Y358291D01*
X37621Y358624D01*
X36622D01*
X72639Y348291D02*
X72306Y348624D01*
X71640D01*
X71307Y348291D01*
Y346958D01*
X71640Y346625D01*
X72306D01*
X72639Y346958D01*
X47639Y338291D02*
X47306Y338624D01*
X46640D01*
X46306Y338291D01*
Y336958D01*
X46640Y336625D01*
X47306D01*
X47639Y336958D01*
X57639Y358624D02*
X56307D01*
Y357625D01*
X56973D01*
X56307D01*
Y356625D01*
X469792Y133624D02*
Y131625D01*
X470791D01*
X471124Y131958D01*
Y132291D01*
X470791Y132624D01*
X469792D01*
X470791D01*
X471124Y132958D01*
Y133291D01*
X470791Y133624D01*
X469792D01*
X430422D02*
Y131625D01*
X431421D01*
X431754Y131958D01*
Y132291D01*
X431421Y132624D01*
X430422D01*
X431421D01*
X431754Y132958D01*
Y133291D01*
X431421Y133624D01*
X430422D01*
X466439Y123291D02*
X466106Y123624D01*
X465440D01*
X465106Y123291D01*
Y121958D01*
X465440Y121625D01*
X466106D01*
X466439Y121958D01*
X441439Y113291D02*
X441106Y113624D01*
X440440D01*
X440106Y113291D01*
Y111958D01*
X440440Y111625D01*
X441106D01*
X441439Y111958D01*
X451440Y133624D02*
X450106D01*
Y132624D01*
X450773D01*
X450106D01*
Y131625D01*
X638492Y283624D02*
Y281625D01*
X639491D01*
X639824Y281958D01*
Y282291D01*
X639491Y282625D01*
X638492D01*
X639491D01*
X639824Y282958D01*
Y283291D01*
X639491Y283624D01*
X638492D01*
X599122D02*
Y281625D01*
X600121D01*
X600454Y281958D01*
Y282291D01*
X600121Y282625D01*
X599122D01*
X600121D01*
X600454Y282958D01*
Y283291D01*
X600121Y283624D01*
X599122D01*
X635140Y273291D02*
X634806Y273624D01*
X634140D01*
X633807Y273291D01*
Y271958D01*
X634140Y271625D01*
X634806D01*
X635140Y271958D01*
X610140Y263291D02*
X609806Y263624D01*
X609140D01*
X608807Y263291D01*
Y261958D01*
X609140Y261625D01*
X609806D01*
X610140Y261958D01*
X620140Y283624D02*
X618807D01*
Y282625D01*
X619473D01*
X618807D01*
Y281625D01*
X1294792Y133624D02*
Y131625D01*
X1295791D01*
X1296124Y131958D01*
Y132291D01*
X1295791Y132624D01*
X1294792D01*
X1295791D01*
X1296124Y132958D01*
Y133291D01*
X1295791Y133624D01*
X1294792D01*
X1255422D02*
Y131625D01*
X1256421D01*
X1256754Y131958D01*
Y132291D01*
X1256421Y132624D01*
X1255422D01*
X1256421D01*
X1256754Y132958D01*
Y133291D01*
X1256421Y133624D01*
X1255422D01*
X1291440Y123291D02*
X1291106Y123624D01*
X1290440D01*
X1290107Y123291D01*
Y121958D01*
X1290440Y121625D01*
X1291106D01*
X1291440Y121958D01*
X1266440Y113291D02*
X1266106Y113624D01*
X1265440D01*
X1265107Y113291D01*
Y111958D01*
X1265440Y111625D01*
X1266106D01*
X1266440Y111958D01*
X1276439Y133624D02*
X1275107D01*
Y132624D01*
X1275773D01*
X1275107D01*
Y131625D01*
X488492Y283624D02*
Y281625D01*
X489491D01*
X489824Y281958D01*
Y282291D01*
X489491Y282625D01*
X488492D01*
X489491D01*
X489824Y282958D01*
Y283291D01*
X489491Y283624D01*
X488492D01*
X449122D02*
Y281625D01*
X450121D01*
X450454Y281958D01*
Y282291D01*
X450121Y282625D01*
X449122D01*
X450121D01*
X450454Y282958D01*
Y283291D01*
X450121Y283624D01*
X449122D01*
X485140Y273291D02*
X484806Y273624D01*
X484140D01*
X483807Y273291D01*
Y271958D01*
X484140Y271625D01*
X484806D01*
X485140Y271958D01*
X460140Y263291D02*
X459806Y263624D01*
X459140D01*
X458807Y263291D01*
Y261958D01*
X459140Y261625D01*
X459806D01*
X460140Y261958D01*
X470140Y283624D02*
X468807D01*
Y282625D01*
X469473D01*
X468807D01*
Y281625D01*
X900992Y358624D02*
Y356625D01*
X901991D01*
X902324Y356958D01*
Y357291D01*
X901991Y357625D01*
X900992D01*
X901991D01*
X902324Y357958D01*
Y358291D01*
X901991Y358624D01*
X900992D01*
X861622D02*
Y356625D01*
X862621D01*
X862954Y356958D01*
Y357291D01*
X862621Y357625D01*
X861622D01*
X862621D01*
X862954Y357958D01*
Y358291D01*
X862621Y358624D01*
X861622D01*
X897639Y348291D02*
X897306Y348624D01*
X896640D01*
X896307Y348291D01*
Y346958D01*
X896640Y346625D01*
X897306D01*
X897639Y346958D01*
X872639Y338291D02*
X872306Y338624D01*
X871640D01*
X871307Y338291D01*
Y336958D01*
X871640Y336625D01*
X872306D01*
X872639Y336958D01*
X882640Y358624D02*
X881307D01*
Y357625D01*
X881973D01*
X881307D01*
Y356625D01*
X282292Y208624D02*
Y206625D01*
X283291D01*
X283624Y206958D01*
Y207291D01*
X283291Y207625D01*
X282292D01*
X283291D01*
X283624Y207958D01*
Y208291D01*
X283291Y208624D01*
X282292D01*
X242921D02*
Y206625D01*
X243921D01*
X244254Y206958D01*
Y207291D01*
X243921Y207625D01*
X242921D01*
X243921D01*
X244254Y207958D01*
Y208291D01*
X243921Y208624D01*
X242921D01*
X278939Y198291D02*
X278606Y198624D01*
X277940D01*
X277607Y198291D01*
Y196958D01*
X277940Y196625D01*
X278606D01*
X278939Y196958D01*
X253939Y188291D02*
X253606Y188624D01*
X252940D01*
X252607Y188291D01*
Y186958D01*
X252940Y186625D01*
X253606D01*
X253939Y186958D01*
X263939Y208624D02*
X262607D01*
Y207625D01*
X263273D01*
X262607D01*
Y206625D01*
X919792Y133624D02*
Y131625D01*
X920791D01*
X921124Y131958D01*
Y132291D01*
X920791Y132624D01*
X919792D01*
X920791D01*
X921124Y132958D01*
Y133291D01*
X920791Y133624D01*
X919792D01*
X880422D02*
Y131625D01*
X881421D01*
X881754Y131958D01*
Y132291D01*
X881421Y132624D01*
X880422D01*
X881421D01*
X881754Y132958D01*
Y133291D01*
X881421Y133624D01*
X880422D01*
X916440Y123291D02*
X916106Y123624D01*
X915440D01*
X915107Y123291D01*
Y121958D01*
X915440Y121625D01*
X916106D01*
X916440Y121958D01*
X891440Y113291D02*
X891106Y113624D01*
X890440D01*
X890107Y113291D01*
Y111958D01*
X890440Y111625D01*
X891106D01*
X891440Y111958D01*
X901439Y133624D02*
X900107D01*
Y132624D01*
X900773D01*
X900107D01*
Y131625D01*
X1294792Y471124D02*
Y469125D01*
X1295791D01*
X1296124Y469458D01*
Y469791D01*
X1295791Y470124D01*
X1294792D01*
X1295791D01*
X1296124Y470458D01*
Y470791D01*
X1295791Y471124D01*
X1294792D01*
X1255422D02*
Y469125D01*
X1256421D01*
X1256754Y469458D01*
Y469791D01*
X1256421Y470124D01*
X1255422D01*
X1256421D01*
X1256754Y470458D01*
Y470791D01*
X1256421Y471124D01*
X1255422D01*
X1291440Y460791D02*
X1291106Y461124D01*
X1290440D01*
X1290107Y460791D01*
Y459458D01*
X1290440Y459125D01*
X1291106D01*
X1291440Y459458D01*
X1266440Y450791D02*
X1266106Y451124D01*
X1265440D01*
X1265107Y450791D01*
Y449458D01*
X1265440Y449125D01*
X1266106D01*
X1266440Y449458D01*
X1276439Y471124D02*
X1275107D01*
Y470124D01*
X1275773D01*
X1275107D01*
Y469125D01*
X413492Y283624D02*
Y281625D01*
X414491D01*
X414824Y281958D01*
Y282291D01*
X414491Y282625D01*
X413492D01*
X414491D01*
X414824Y282958D01*
Y283291D01*
X414491Y283624D01*
X413492D01*
X374121D02*
Y281625D01*
X375121D01*
X375454Y281958D01*
Y282291D01*
X375121Y282625D01*
X374121D01*
X375121D01*
X375454Y282958D01*
Y283291D01*
X375121Y283624D01*
X374121D01*
X410140Y273291D02*
X409806Y273624D01*
X409140D01*
X408807Y273291D01*
Y271958D01*
X409140Y271625D01*
X409806D01*
X410140Y271958D01*
X385139Y263291D02*
X384806Y263624D01*
X384140D01*
X383807Y263291D01*
Y261958D01*
X384140Y261625D01*
X384806D01*
X385139Y261958D01*
X395139Y283624D02*
X393807D01*
Y282625D01*
X394473D01*
X393807D01*
Y281625D01*
X1369792Y58624D02*
Y56625D01*
X1370791D01*
X1371124Y56958D01*
Y57291D01*
X1370791Y57625D01*
X1369792D01*
X1370791D01*
X1371124Y57958D01*
Y58291D01*
X1370791Y58624D01*
X1369792D01*
X1330422D02*
Y56625D01*
X1331421D01*
X1331754Y56958D01*
Y57291D01*
X1331421Y57625D01*
X1330422D01*
X1331421D01*
X1331754Y57958D01*
Y58291D01*
X1331421Y58624D01*
X1330422D01*
X1366440Y48291D02*
X1366106Y48624D01*
X1365440D01*
X1365107Y48291D01*
Y46958D01*
X1365440Y46625D01*
X1366106D01*
X1366440Y46958D01*
X1341440Y38291D02*
X1341106Y38624D01*
X1340440D01*
X1340107Y38291D01*
Y36958D01*
X1340440Y36625D01*
X1341106D01*
X1341440Y36958D01*
X1351439Y58624D02*
X1350107D01*
Y57625D01*
X1350773D01*
X1350107D01*
Y56625D01*
X957292Y208624D02*
Y206625D01*
X958291D01*
X958624Y206958D01*
Y207291D01*
X958291Y207625D01*
X957292D01*
X958291D01*
X958624Y207958D01*
Y208291D01*
X958291Y208624D01*
X957292D01*
X917922D02*
Y206625D01*
X918921D01*
X919254Y206958D01*
Y207291D01*
X918921Y207625D01*
X917922D01*
X918921D01*
X919254Y207958D01*
Y208291D01*
X918921Y208624D01*
X917922D01*
X953940Y198291D02*
X953606Y198624D01*
X952940D01*
X952607Y198291D01*
Y196958D01*
X952940Y196625D01*
X953606D01*
X953940Y196958D01*
X928940Y188291D02*
X928606Y188624D01*
X927940D01*
X927607Y188291D01*
Y186958D01*
X927940Y186625D01*
X928606D01*
X928940Y186958D01*
X938939Y208624D02*
X937607D01*
Y207625D01*
X938273D01*
X937607D01*
Y206625D01*
X188492Y283624D02*
Y281625D01*
X189491D01*
X189824Y281958D01*
Y282291D01*
X189491Y282625D01*
X188492D01*
X189491D01*
X189824Y282958D01*
Y283291D01*
X189491Y283624D01*
X188492D01*
X149122D02*
Y281625D01*
X150121D01*
X150454Y281958D01*
Y282291D01*
X150121Y282625D01*
X149122D01*
X150121D01*
X150454Y282958D01*
Y283291D01*
X150121Y283624D01*
X149122D01*
X185140Y273291D02*
X184806Y273624D01*
X184140D01*
X183807Y273291D01*
Y271958D01*
X184140Y271625D01*
X184806D01*
X185140Y271958D01*
X160140Y263291D02*
X159806Y263624D01*
X159140D01*
X158807Y263291D01*
Y261958D01*
X159140Y261625D01*
X159806D01*
X160140Y261958D01*
X170140Y283624D02*
X168807D01*
Y282625D01*
X169473D01*
X168807D01*
Y281625D01*
X863492Y283624D02*
Y281625D01*
X864491D01*
X864824Y281958D01*
Y282291D01*
X864491Y282625D01*
X863492D01*
X864491D01*
X864824Y282958D01*
Y283291D01*
X864491Y283624D01*
X863492D01*
X824122D02*
Y281625D01*
X825121D01*
X825454Y281958D01*
Y282291D01*
X825121Y282625D01*
X824122D01*
X825121D01*
X825454Y282958D01*
Y283291D01*
X825121Y283624D01*
X824122D01*
X860139Y273291D02*
X859806Y273624D01*
X859140D01*
X858807Y273291D01*
Y271958D01*
X859140Y271625D01*
X859806D01*
X860139Y271958D01*
X835139Y263291D02*
X834806Y263624D01*
X834140D01*
X833807Y263291D01*
Y261958D01*
X834140Y261625D01*
X834806D01*
X835139Y261958D01*
X845140Y283624D02*
X843807D01*
Y282625D01*
X844473D01*
X843807D01*
Y281625D01*
X1219792Y471224D02*
Y469225D01*
X1220791D01*
X1221124Y469558D01*
Y469891D01*
X1220791Y470225D01*
X1219792D01*
X1220791D01*
X1221124Y470558D01*
Y470891D01*
X1220791Y471224D01*
X1219792D01*
X1180422D02*
Y469225D01*
X1181421D01*
X1181754Y469558D01*
Y469891D01*
X1181421Y470225D01*
X1180422D01*
X1181421D01*
X1181754Y470558D01*
Y470891D01*
X1181421Y471224D01*
X1180422D01*
X1216440Y460891D02*
X1216106Y461224D01*
X1215440D01*
X1215107Y460891D01*
Y459558D01*
X1215440Y459225D01*
X1216106D01*
X1216440Y459558D01*
X1191440Y450891D02*
X1191106Y451224D01*
X1190440D01*
X1190107Y450891D01*
Y449558D01*
X1190440Y449225D01*
X1191106D01*
X1191440Y449558D01*
X1201439Y471224D02*
X1200107D01*
Y470225D01*
X1200773D01*
X1200107D01*
Y469225D01*
X1369792Y358624D02*
Y356625D01*
X1370791D01*
X1371124Y356958D01*
Y357291D01*
X1370791Y357625D01*
X1369792D01*
X1370791D01*
X1371124Y357958D01*
Y358291D01*
X1370791Y358624D01*
X1369792D01*
X1330422D02*
Y356625D01*
X1331421D01*
X1331754Y356958D01*
Y357291D01*
X1331421Y357625D01*
X1330422D01*
X1331421D01*
X1331754Y357958D01*
Y358291D01*
X1331421Y358624D01*
X1330422D01*
X1366440Y348291D02*
X1366106Y348624D01*
X1365440D01*
X1365107Y348291D01*
Y346958D01*
X1365440Y346625D01*
X1366106D01*
X1366440Y346958D01*
X1341440Y338291D02*
X1341106Y338624D01*
X1340440D01*
X1340107Y338291D01*
Y336958D01*
X1340440Y336625D01*
X1341106D01*
X1341440Y336958D01*
X1351439Y358624D02*
X1350107D01*
Y357625D01*
X1350773D01*
X1350107D01*
Y356625D01*
X1369792Y283624D02*
Y281625D01*
X1370791D01*
X1371124Y281958D01*
Y282291D01*
X1370791Y282625D01*
X1369792D01*
X1370791D01*
X1371124Y282958D01*
Y283291D01*
X1370791Y283624D01*
X1369792D01*
X1330422D02*
Y281625D01*
X1331421D01*
X1331754Y281958D01*
Y282291D01*
X1331421Y282625D01*
X1330422D01*
X1331421D01*
X1331754Y282958D01*
Y283291D01*
X1331421Y283624D01*
X1330422D01*
X1366440Y273291D02*
X1366106Y273624D01*
X1365440D01*
X1365107Y273291D01*
Y271958D01*
X1365440Y271625D01*
X1366106D01*
X1366440Y271958D01*
X1341440Y263291D02*
X1341106Y263624D01*
X1340440D01*
X1340107Y263291D01*
Y261958D01*
X1340440Y261625D01*
X1341106D01*
X1341440Y261958D01*
X1351439Y283624D02*
X1350107D01*
Y282625D01*
X1350773D01*
X1350107D01*
Y281625D01*
X1369792Y471124D02*
Y469125D01*
X1370791D01*
X1371124Y469458D01*
Y469791D01*
X1370791Y470124D01*
X1369792D01*
X1370791D01*
X1371124Y470458D01*
Y470791D01*
X1370791Y471124D01*
X1369792D01*
X1330422D02*
Y469125D01*
X1331421D01*
X1331754Y469458D01*
Y469791D01*
X1331421Y470124D01*
X1330422D01*
X1331421D01*
X1331754Y470458D01*
Y470791D01*
X1331421Y471124D01*
X1330422D01*
X1366440Y460791D02*
X1366106Y461124D01*
X1365440D01*
X1365107Y460791D01*
Y459458D01*
X1365440Y459125D01*
X1366106D01*
X1366440Y459458D01*
X1341440Y450791D02*
X1341106Y451124D01*
X1340440D01*
X1340107Y450791D01*
Y449458D01*
X1340440Y449125D01*
X1341106D01*
X1341440Y449458D01*
X1351439Y471124D02*
X1350107D01*
Y470124D01*
X1350773D01*
X1350107D01*
Y469125D01*
X788492Y283624D02*
Y281625D01*
X789491D01*
X789824Y281958D01*
Y282291D01*
X789491Y282625D01*
X788492D01*
X789491D01*
X789824Y282958D01*
Y283291D01*
X789491Y283624D01*
X788492D01*
X749122D02*
Y281625D01*
X750121D01*
X750454Y281958D01*
Y282291D01*
X750121Y282625D01*
X749122D01*
X750121D01*
X750454Y282958D01*
Y283291D01*
X750121Y283624D01*
X749122D01*
X785140Y273291D02*
X784806Y273624D01*
X784140D01*
X783807Y273291D01*
Y271958D01*
X784140Y271625D01*
X784806D01*
X785140Y271958D01*
X760140Y263291D02*
X759806Y263624D01*
X759140D01*
X758807Y263291D01*
Y261958D01*
X759140Y261625D01*
X759806D01*
X760140Y261958D01*
X770140Y283624D02*
X768807D01*
Y282625D01*
X769473D01*
X768807D01*
Y281625D01*
X1688491Y358624D02*
Y356625D01*
X1689491D01*
X1689824Y356958D01*
Y357291D01*
X1689491Y357625D01*
X1688491D01*
X1689491D01*
X1689824Y357958D01*
Y358291D01*
X1689491Y358624D01*
X1688491D01*
X1649121D02*
Y356625D01*
X1650121D01*
X1650454Y356958D01*
Y357291D01*
X1650121Y357625D01*
X1649121D01*
X1650121D01*
X1650454Y357958D01*
Y358291D01*
X1650121Y358624D01*
X1649121D01*
X1685139Y348291D02*
X1684806Y348624D01*
X1684140D01*
X1683807Y348291D01*
Y346958D01*
X1684140Y346625D01*
X1684806D01*
X1685139Y346958D01*
X1660139Y338291D02*
X1659806Y338624D01*
X1659140D01*
X1658807Y338291D01*
Y336958D01*
X1659140Y336625D01*
X1659806D01*
X1660139Y336958D01*
X1670139Y358624D02*
X1668807D01*
Y357625D01*
X1669473D01*
X1668807D01*
Y356625D01*
X1613491Y358624D02*
Y356625D01*
X1614491D01*
X1614824Y356958D01*
Y357291D01*
X1614491Y357625D01*
X1613491D01*
X1614491D01*
X1614824Y357958D01*
Y358291D01*
X1614491Y358624D01*
X1613491D01*
X1574122D02*
Y356625D01*
X1575121D01*
X1575454Y356958D01*
Y357291D01*
X1575121Y357625D01*
X1574122D01*
X1575121D01*
X1575454Y357958D01*
Y358291D01*
X1575121Y358624D01*
X1574122D01*
X1610139Y348291D02*
X1609806Y348624D01*
X1609140D01*
X1608807Y348291D01*
Y346958D01*
X1609140Y346625D01*
X1609806D01*
X1610139Y346958D01*
X1585139Y338291D02*
X1584806Y338624D01*
X1584140D01*
X1583807Y338291D01*
Y336958D01*
X1584140Y336625D01*
X1584806D01*
X1585139Y336958D01*
X1595140Y358624D02*
X1593807D01*
Y357625D01*
X1594473D01*
X1593807D01*
Y356625D01*
X1463492Y358624D02*
Y356625D01*
X1464491D01*
X1464824Y356958D01*
Y357291D01*
X1464491Y357625D01*
X1463492D01*
X1464491D01*
X1464824Y357958D01*
Y358291D01*
X1464491Y358624D01*
X1463492D01*
X1424122D02*
Y356625D01*
X1425121D01*
X1425454Y356958D01*
Y357291D01*
X1425121Y357625D01*
X1424122D01*
X1425121D01*
X1425454Y357958D01*
Y358291D01*
X1425121Y358624D01*
X1424122D01*
X1460139Y348291D02*
X1459806Y348624D01*
X1459140D01*
X1458807Y348291D01*
Y346958D01*
X1459140Y346625D01*
X1459806D01*
X1460139Y346958D01*
X1435139Y338291D02*
X1434806Y338624D01*
X1434140D01*
X1433807Y338291D01*
Y336958D01*
X1434140Y336625D01*
X1434806D01*
X1435139Y336958D01*
X1445140Y358624D02*
X1443807D01*
Y357625D01*
X1444473D01*
X1443807D01*
Y356625D01*
X1613491Y58624D02*
Y56625D01*
X1614491D01*
X1614824Y56958D01*
Y57291D01*
X1614491Y57625D01*
X1613491D01*
X1614491D01*
X1614824Y57958D01*
Y58291D01*
X1614491Y58624D01*
X1613491D01*
X1574122D02*
Y56625D01*
X1575121D01*
X1575454Y56958D01*
Y57291D01*
X1575121Y57625D01*
X1574122D01*
X1575121D01*
X1575454Y57958D01*
Y58291D01*
X1575121Y58624D01*
X1574122D01*
X1610139Y48291D02*
X1609806Y48624D01*
X1609140D01*
X1608807Y48291D01*
Y46958D01*
X1609140Y46625D01*
X1609806D01*
X1610139Y46958D01*
X1585139Y38291D02*
X1584806Y38624D01*
X1584140D01*
X1583807Y38291D01*
Y36958D01*
X1584140Y36625D01*
X1584806D01*
X1585139Y36958D01*
X1595140Y58624D02*
X1593807D01*
Y57625D01*
X1594473D01*
X1593807D01*
Y56625D01*
X1538492Y358624D02*
Y356625D01*
X1539491D01*
X1539824Y356958D01*
Y357291D01*
X1539491Y357625D01*
X1538492D01*
X1539491D01*
X1539824Y357958D01*
Y358291D01*
X1539491Y358624D01*
X1538492D01*
X1499122D02*
Y356625D01*
X1500121D01*
X1500454Y356958D01*
Y357291D01*
X1500121Y357625D01*
X1499122D01*
X1500121D01*
X1500454Y357958D01*
Y358291D01*
X1500121Y358624D01*
X1499122D01*
X1535139Y348291D02*
X1534806Y348624D01*
X1534140D01*
X1533807Y348291D01*
Y346958D01*
X1534140Y346625D01*
X1534806D01*
X1535139Y346958D01*
X1510139Y338291D02*
X1509806Y338624D01*
X1509140D01*
X1508807Y338291D01*
Y336958D01*
X1509140Y336625D01*
X1509806D01*
X1510139Y336958D01*
X1520140Y358624D02*
X1518807D01*
Y357625D01*
X1519473D01*
X1518807D01*
Y356625D01*
X1613491Y283624D02*
Y281625D01*
X1614491D01*
X1614824Y281958D01*
Y282291D01*
X1614491Y282625D01*
X1613491D01*
X1614491D01*
X1614824Y282958D01*
Y283291D01*
X1614491Y283624D01*
X1613491D01*
X1574122D02*
Y281625D01*
X1575121D01*
X1575454Y281958D01*
Y282291D01*
X1575121Y282625D01*
X1574122D01*
X1575121D01*
X1575454Y282958D01*
Y283291D01*
X1575121Y283624D01*
X1574122D01*
X1610139Y273291D02*
X1609806Y273624D01*
X1609140D01*
X1608807Y273291D01*
Y271958D01*
X1609140Y271625D01*
X1609806D01*
X1610139Y271958D01*
X1585139Y263291D02*
X1584806Y263624D01*
X1584140D01*
X1583807Y263291D01*
Y261958D01*
X1584140Y261625D01*
X1584806D01*
X1585139Y261958D01*
X1595140Y283624D02*
X1593807D01*
Y282625D01*
X1594473D01*
X1593807D01*
Y281625D01*
X1538492Y283624D02*
Y281625D01*
X1539491D01*
X1539824Y281958D01*
Y282291D01*
X1539491Y282625D01*
X1538492D01*
X1539491D01*
X1539824Y282958D01*
Y283291D01*
X1539491Y283624D01*
X1538492D01*
X1499122D02*
Y281625D01*
X1500121D01*
X1500454Y281958D01*
Y282291D01*
X1500121Y282625D01*
X1499122D01*
X1500121D01*
X1500454Y282958D01*
Y283291D01*
X1500121Y283624D01*
X1499122D01*
X1535139Y273291D02*
X1534806Y273624D01*
X1534140D01*
X1533807Y273291D01*
Y271958D01*
X1534140Y271625D01*
X1534806D01*
X1535139Y271958D01*
X1510139Y263291D02*
X1509806Y263624D01*
X1509140D01*
X1508807Y263291D01*
Y261958D01*
X1509140Y261625D01*
X1509806D01*
X1510139Y261958D01*
X1520140Y283624D02*
X1518807D01*
Y282625D01*
X1519473D01*
X1518807D01*
Y281625D01*
X1463492Y283624D02*
Y281625D01*
X1464491D01*
X1464824Y281958D01*
Y282291D01*
X1464491Y282625D01*
X1463492D01*
X1464491D01*
X1464824Y282958D01*
Y283291D01*
X1464491Y283624D01*
X1463492D01*
X1424122D02*
Y281625D01*
X1425121D01*
X1425454Y281958D01*
Y282291D01*
X1425121Y282625D01*
X1424122D01*
X1425121D01*
X1425454Y282958D01*
Y283291D01*
X1425121Y283624D01*
X1424122D01*
X1460139Y273291D02*
X1459806Y273624D01*
X1459140D01*
X1458807Y273291D01*
Y271958D01*
X1459140Y271625D01*
X1459806D01*
X1460139Y271958D01*
X1435139Y263291D02*
X1434806Y263624D01*
X1434140D01*
X1433807Y263291D01*
Y261958D01*
X1434140Y261625D01*
X1434806D01*
X1435139Y261958D01*
X1445140Y283624D02*
X1443807D01*
Y282625D01*
X1444473D01*
X1443807D01*
Y281625D01*
X1613491Y208624D02*
Y206625D01*
X1614491D01*
X1614824Y206958D01*
Y207291D01*
X1614491Y207625D01*
X1613491D01*
X1614491D01*
X1614824Y207958D01*
Y208291D01*
X1614491Y208624D01*
X1613491D01*
X1574122D02*
Y206625D01*
X1575121D01*
X1575454Y206958D01*
Y207291D01*
X1575121Y207625D01*
X1574122D01*
X1575121D01*
X1575454Y207958D01*
Y208291D01*
X1575121Y208624D01*
X1574122D01*
X1610139Y198291D02*
X1609806Y198624D01*
X1609140D01*
X1608807Y198291D01*
Y196958D01*
X1609140Y196625D01*
X1609806D01*
X1610139Y196958D01*
X1585139Y188291D02*
X1584806Y188624D01*
X1584140D01*
X1583807Y188291D01*
Y186958D01*
X1584140Y186625D01*
X1584806D01*
X1585139Y186958D01*
X1595140Y208624D02*
X1593807D01*
Y207625D01*
X1594473D01*
X1593807D01*
Y206625D01*
X1538492Y208624D02*
Y206625D01*
X1539491D01*
X1539824Y206958D01*
Y207291D01*
X1539491Y207625D01*
X1538492D01*
X1539491D01*
X1539824Y207958D01*
Y208291D01*
X1539491Y208624D01*
X1538492D01*
X1499122D02*
Y206625D01*
X1500121D01*
X1500454Y206958D01*
Y207291D01*
X1500121Y207625D01*
X1499122D01*
X1500121D01*
X1500454Y207958D01*
Y208291D01*
X1500121Y208624D01*
X1499122D01*
X1535139Y198291D02*
X1534806Y198624D01*
X1534140D01*
X1533807Y198291D01*
Y196958D01*
X1534140Y196625D01*
X1534806D01*
X1535139Y196958D01*
X1510139Y188291D02*
X1509806Y188624D01*
X1509140D01*
X1508807Y188291D01*
Y186958D01*
X1509140Y186625D01*
X1509806D01*
X1510139Y186958D01*
X1520140Y208624D02*
X1518807D01*
Y207625D01*
X1519473D01*
X1518807D01*
Y206625D01*
X1463492Y208624D02*
Y206625D01*
X1464491D01*
X1464824Y206958D01*
Y207291D01*
X1464491Y207625D01*
X1463492D01*
X1464491D01*
X1464824Y207958D01*
Y208291D01*
X1464491Y208624D01*
X1463492D01*
X1424122D02*
Y206625D01*
X1425121D01*
X1425454Y206958D01*
Y207291D01*
X1425121Y207625D01*
X1424122D01*
X1425121D01*
X1425454Y207958D01*
Y208291D01*
X1425121Y208624D01*
X1424122D01*
X1460139Y198291D02*
X1459806Y198624D01*
X1459140D01*
X1458807Y198291D01*
Y196958D01*
X1459140Y196625D01*
X1459806D01*
X1460139Y196958D01*
X1435139Y188291D02*
X1434806Y188624D01*
X1434140D01*
X1433807Y188291D01*
Y186958D01*
X1434140Y186625D01*
X1434806D01*
X1435139Y186958D01*
X1445140Y208624D02*
X1443807D01*
Y207625D01*
X1444473D01*
X1443807D01*
Y206625D01*
X1613491Y133624D02*
Y131625D01*
X1614491D01*
X1614824Y131958D01*
Y132291D01*
X1614491Y132624D01*
X1613491D01*
X1614491D01*
X1614824Y132958D01*
Y133291D01*
X1614491Y133624D01*
X1613491D01*
X1574122D02*
Y131625D01*
X1575121D01*
X1575454Y131958D01*
Y132291D01*
X1575121Y132624D01*
X1574122D01*
X1575121D01*
X1575454Y132958D01*
Y133291D01*
X1575121Y133624D01*
X1574122D01*
X1610139Y123291D02*
X1609806Y123624D01*
X1609140D01*
X1608807Y123291D01*
Y121958D01*
X1609140Y121625D01*
X1609806D01*
X1610139Y121958D01*
X1585139Y113291D02*
X1584806Y113624D01*
X1584140D01*
X1583807Y113291D01*
Y111958D01*
X1584140Y111625D01*
X1584806D01*
X1585139Y111958D01*
X1595140Y133624D02*
X1593807D01*
Y132624D01*
X1594473D01*
X1593807D01*
Y131625D01*
X1538492Y133624D02*
Y131625D01*
X1539491D01*
X1539824Y131958D01*
Y132291D01*
X1539491Y132624D01*
X1538492D01*
X1539491D01*
X1539824Y132958D01*
Y133291D01*
X1539491Y133624D01*
X1538492D01*
X1499122D02*
Y131625D01*
X1500121D01*
X1500454Y131958D01*
Y132291D01*
X1500121Y132624D01*
X1499122D01*
X1500121D01*
X1500454Y132958D01*
Y133291D01*
X1500121Y133624D01*
X1499122D01*
X1535139Y123291D02*
X1534806Y123624D01*
X1534140D01*
X1533807Y123291D01*
Y121958D01*
X1534140Y121625D01*
X1534806D01*
X1535139Y121958D01*
X1510139Y113291D02*
X1509806Y113624D01*
X1509140D01*
X1508807Y113291D01*
Y111958D01*
X1509140Y111625D01*
X1509806D01*
X1510139Y111958D01*
X1520140Y133624D02*
X1518807D01*
Y132624D01*
X1519473D01*
X1518807D01*
Y131625D01*
X1463591Y133624D02*
Y131625D01*
X1464591D01*
X1464925Y131958D01*
Y132291D01*
X1464591Y132624D01*
X1463591D01*
X1464591D01*
X1464925Y132958D01*
Y133291D01*
X1464591Y133624D01*
X1463591D01*
X1424222D02*
Y131625D01*
X1425221D01*
X1425554Y131958D01*
Y132291D01*
X1425221Y132624D01*
X1424222D01*
X1425221D01*
X1425554Y132958D01*
Y133291D01*
X1425221Y133624D01*
X1424222D01*
X1460240Y123291D02*
X1459906Y123624D01*
X1459240D01*
X1458907Y123291D01*
Y121958D01*
X1459240Y121625D01*
X1459906D01*
X1460240Y121958D01*
X1435240Y113291D02*
X1434906Y113624D01*
X1434240D01*
X1433907Y113291D01*
Y111958D01*
X1434240Y111625D01*
X1434906D01*
X1435240Y111958D01*
X1445240Y133624D02*
X1443907D01*
Y132624D01*
X1444573D01*
X1443907D01*
Y131625D01*
X619792Y133624D02*
Y131625D01*
X620791D01*
X621124Y131958D01*
Y132291D01*
X620791Y132624D01*
X619792D01*
X620791D01*
X621124Y132958D01*
Y133291D01*
X620791Y133624D01*
X619792D01*
X580422D02*
Y131625D01*
X581421D01*
X581754Y131958D01*
Y132291D01*
X581421Y132624D01*
X580422D01*
X581421D01*
X581754Y132958D01*
Y133291D01*
X581421Y133624D01*
X580422D01*
X616439Y123291D02*
X616106Y123624D01*
X615440D01*
X615106Y123291D01*
Y121958D01*
X615440Y121625D01*
X616106D01*
X616439Y121958D01*
X591439Y113291D02*
X591106Y113624D01*
X590440D01*
X590106Y113291D01*
Y111958D01*
X590440Y111625D01*
X591106D01*
X591439Y111958D01*
X601440Y133624D02*
X600106D01*
Y132624D01*
X600773D01*
X600106D01*
Y131625D01*
X694792Y133624D02*
Y131625D01*
X695791D01*
X696124Y131958D01*
Y132291D01*
X695791Y132624D01*
X694792D01*
X695791D01*
X696124Y132958D01*
Y133291D01*
X695791Y133624D01*
X694792D01*
X655422D02*
Y131625D01*
X656421D01*
X656754Y131958D01*
Y132291D01*
X656421Y132624D01*
X655422D01*
X656421D01*
X656754Y132958D01*
Y133291D01*
X656421Y133624D01*
X655422D01*
X691439Y123291D02*
X691106Y123624D01*
X690440D01*
X690106Y123291D01*
Y121958D01*
X690440Y121625D01*
X691106D01*
X691439Y121958D01*
X666439Y113291D02*
X666106Y113624D01*
X665440D01*
X665106Y113291D01*
Y111958D01*
X665440Y111625D01*
X666106D01*
X666439Y111958D01*
X676440Y133624D02*
X675106D01*
Y132624D01*
X675773D01*
X675106D01*
Y131625D01*
X807292Y208624D02*
Y206625D01*
X808291D01*
X808624Y206958D01*
Y207291D01*
X808291Y207625D01*
X807292D01*
X808291D01*
X808624Y207958D01*
Y208291D01*
X808291Y208624D01*
X807292D01*
X767922D02*
Y206625D01*
X768921D01*
X769254Y206958D01*
Y207291D01*
X768921Y207625D01*
X767922D01*
X768921D01*
X769254Y207958D01*
Y208291D01*
X768921Y208624D01*
X767922D01*
X803940Y198291D02*
X803606Y198624D01*
X802940D01*
X802606Y198291D01*
Y196958D01*
X802940Y196625D01*
X803606D01*
X803940Y196958D01*
X778939Y188291D02*
X778606Y188624D01*
X777940D01*
X777606Y188291D01*
Y186958D01*
X777940Y186625D01*
X778606D01*
X778939Y186958D01*
X788940Y208624D02*
X787606D01*
Y207625D01*
X788273D01*
X787606D01*
Y206625D01*
X1219792Y58624D02*
Y56625D01*
X1220791D01*
X1221124Y56958D01*
Y57291D01*
X1220791Y57625D01*
X1219792D01*
X1220791D01*
X1221124Y57958D01*
Y58291D01*
X1220791Y58624D01*
X1219792D01*
X1180422D02*
Y56625D01*
X1181421D01*
X1181754Y56958D01*
Y57291D01*
X1181421Y57625D01*
X1180422D01*
X1181421D01*
X1181754Y57958D01*
Y58291D01*
X1181421Y58624D01*
X1180422D01*
X1216440Y48291D02*
X1216106Y48624D01*
X1215440D01*
X1215107Y48291D01*
Y46958D01*
X1215440Y46625D01*
X1216106D01*
X1216440Y46958D01*
X1191440Y38291D02*
X1191106Y38624D01*
X1190440D01*
X1190107Y38291D01*
Y36958D01*
X1190440Y36625D01*
X1191106D01*
X1191440Y36958D01*
X1201439Y58624D02*
X1200107D01*
Y57625D01*
X1200773D01*
X1200107D01*
Y56625D01*
X732292Y208624D02*
Y206625D01*
X733291D01*
X733624Y206958D01*
Y207291D01*
X733291Y207625D01*
X732292D01*
X733291D01*
X733624Y207958D01*
Y208291D01*
X733291Y208624D01*
X732292D01*
X692922D02*
Y206625D01*
X693921D01*
X694254Y206958D01*
Y207291D01*
X693921Y207625D01*
X692922D01*
X693921D01*
X694254Y207958D01*
Y208291D01*
X693921Y208624D01*
X692922D01*
X728939Y198291D02*
X728606Y198624D01*
X727940D01*
X727606Y198291D01*
Y196958D01*
X727940Y196625D01*
X728606D01*
X728939Y196958D01*
X703939Y188291D02*
X703606Y188624D01*
X702940D01*
X702606Y188291D01*
Y186958D01*
X702940Y186625D01*
X703606D01*
X703939Y186958D01*
X713940Y208624D02*
X712606D01*
Y207625D01*
X713273D01*
X712606D01*
Y206625D01*
X657292Y208624D02*
Y206625D01*
X658291D01*
X658624Y206958D01*
Y207291D01*
X658291Y207625D01*
X657292D01*
X658291D01*
X658624Y207958D01*
Y208291D01*
X658291Y208624D01*
X657292D01*
X617922D02*
Y206625D01*
X618921D01*
X619254Y206958D01*
Y207291D01*
X618921Y207625D01*
X617922D01*
X618921D01*
X619254Y207958D01*
Y208291D01*
X618921Y208624D01*
X617922D01*
X653939Y198291D02*
X653606Y198624D01*
X652940D01*
X652606Y198291D01*
Y196958D01*
X652940Y196625D01*
X653606D01*
X653939Y196958D01*
X628939Y188291D02*
X628606Y188624D01*
X627940D01*
X627606Y188291D01*
Y186958D01*
X627940Y186625D01*
X628606D01*
X628939Y186958D01*
X638940Y208624D02*
X637606D01*
Y207625D01*
X638273D01*
X637606D01*
Y206625D01*
X713492Y283624D02*
Y281625D01*
X714491D01*
X714824Y281958D01*
Y282291D01*
X714491Y282625D01*
X713492D01*
X714491D01*
X714824Y282958D01*
Y283291D01*
X714491Y283624D01*
X713492D01*
X674122D02*
Y281625D01*
X675121D01*
X675454Y281958D01*
Y282291D01*
X675121Y282625D01*
X674122D01*
X675121D01*
X675454Y282958D01*
Y283291D01*
X675121Y283624D01*
X674122D01*
X710140Y273291D02*
X709806Y273624D01*
X709140D01*
X708807Y273291D01*
Y271958D01*
X709140Y271625D01*
X709806D01*
X710140Y271958D01*
X685140Y263291D02*
X684806Y263624D01*
X684140D01*
X683807Y263291D01*
Y261958D01*
X684140Y261625D01*
X684806D01*
X685140Y261958D01*
X695140Y283624D02*
X693807D01*
Y282625D01*
X694473D01*
X693807D01*
Y281625D01*
X1219792Y358624D02*
Y356625D01*
X1220791D01*
X1221124Y356958D01*
Y357291D01*
X1220791Y357625D01*
X1219792D01*
X1220791D01*
X1221124Y357958D01*
Y358291D01*
X1220791Y358624D01*
X1219792D01*
X1180422D02*
Y356625D01*
X1181421D01*
X1181754Y356958D01*
Y357291D01*
X1181421Y357625D01*
X1180422D01*
X1181421D01*
X1181754Y357958D01*
Y358291D01*
X1181421Y358624D01*
X1180422D01*
X1216440Y348291D02*
X1216106Y348624D01*
X1215440D01*
X1215107Y348291D01*
Y346958D01*
X1215440Y346625D01*
X1216106D01*
X1216440Y346958D01*
X1191440Y338291D02*
X1191106Y338624D01*
X1190440D01*
X1190107Y338291D01*
Y336958D01*
X1190440Y336625D01*
X1191106D01*
X1191440Y336958D01*
X1201439Y358624D02*
X1200107D01*
Y357625D01*
X1200773D01*
X1200107D01*
Y356625D01*
X582292Y208624D02*
Y206625D01*
X583291D01*
X583624Y206958D01*
Y207291D01*
X583291Y207625D01*
X582292D01*
X583291D01*
X583624Y207958D01*
Y208291D01*
X583291Y208624D01*
X582292D01*
X542922D02*
Y206625D01*
X543921D01*
X544254Y206958D01*
Y207291D01*
X543921Y207625D01*
X542922D01*
X543921D01*
X544254Y207958D01*
Y208291D01*
X543921Y208624D01*
X542922D01*
X578939Y198291D02*
X578606Y198624D01*
X577940D01*
X577606Y198291D01*
Y196958D01*
X577940Y196625D01*
X578606D01*
X578939Y196958D01*
X553939Y188291D02*
X553606Y188624D01*
X552940D01*
X552606Y188291D01*
Y186958D01*
X552940Y186625D01*
X553606D01*
X553939Y186958D01*
X563940Y208624D02*
X562606D01*
Y207625D01*
X563273D01*
X562606D01*
Y206625D01*
X1294792Y358624D02*
Y356625D01*
X1295791D01*
X1296124Y356958D01*
Y357291D01*
X1295791Y357625D01*
X1294792D01*
X1295791D01*
X1296124Y357958D01*
Y358291D01*
X1295791Y358624D01*
X1294792D01*
X1255422D02*
Y356625D01*
X1256421D01*
X1256754Y356958D01*
Y357291D01*
X1256421Y357625D01*
X1255422D01*
X1256421D01*
X1256754Y357958D01*
Y358291D01*
X1256421Y358624D01*
X1255422D01*
X1291440Y348291D02*
X1291106Y348624D01*
X1290440D01*
X1290107Y348291D01*
Y346958D01*
X1290440Y346625D01*
X1291106D01*
X1291440Y346958D01*
X1266440Y338291D02*
X1266106Y338624D01*
X1265440D01*
X1265107Y338291D01*
Y336958D01*
X1265440Y336625D01*
X1266106D01*
X1266440Y336958D01*
X1276439Y358624D02*
X1275107D01*
Y357625D01*
X1275773D01*
X1275107D01*
Y356625D01*
X507292Y208624D02*
Y206625D01*
X508291D01*
X508624Y206958D01*
Y207291D01*
X508291Y207625D01*
X507292D01*
X508291D01*
X508624Y207958D01*
Y208291D01*
X508291Y208624D01*
X507292D01*
X467922D02*
Y206625D01*
X468921D01*
X469254Y206958D01*
Y207291D01*
X468921Y207625D01*
X467922D01*
X468921D01*
X469254Y207958D01*
Y208291D01*
X468921Y208624D01*
X467922D01*
X503939Y198291D02*
X503606Y198624D01*
X502940D01*
X502606Y198291D01*
Y196958D01*
X502940Y196625D01*
X503606D01*
X503939Y196958D01*
X478939Y188291D02*
X478606Y188624D01*
X477940D01*
X477606Y188291D01*
Y186958D01*
X477940Y186625D01*
X478606D01*
X478939Y186958D01*
X488940Y208624D02*
X487606D01*
Y207625D01*
X488273D01*
X487606D01*
Y206625D01*
X844792Y133624D02*
Y131625D01*
X845791D01*
X846124Y131958D01*
Y132291D01*
X845791Y132624D01*
X844792D01*
X845791D01*
X846124Y132958D01*
Y133291D01*
X845791Y133624D01*
X844792D01*
X805422D02*
Y131625D01*
X806421D01*
X806754Y131958D01*
Y132291D01*
X806421Y132624D01*
X805422D01*
X806421D01*
X806754Y132958D01*
Y133291D01*
X806421Y133624D01*
X805422D01*
X841440Y123291D02*
X841106Y123624D01*
X840440D01*
X840107Y123291D01*
Y121958D01*
X840440Y121625D01*
X841106D01*
X841440Y121958D01*
X816440Y113291D02*
X816106Y113624D01*
X815440D01*
X815106Y113291D01*
Y111958D01*
X815440Y111625D01*
X816106D01*
X816440Y111958D01*
X826439Y133624D02*
X825107D01*
Y132624D01*
X825773D01*
X825107D01*
Y131625D01*
X432292Y208624D02*
Y206625D01*
X433291D01*
X433624Y206958D01*
Y207291D01*
X433291Y207625D01*
X432292D01*
X433291D01*
X433624Y207958D01*
Y208291D01*
X433291Y208624D01*
X432292D01*
X392921D02*
Y206625D01*
X393921D01*
X394254Y206958D01*
Y207291D01*
X393921Y207625D01*
X392921D01*
X393921D01*
X394254Y207958D01*
Y208291D01*
X393921Y208624D01*
X392921D01*
X428939Y198291D02*
X428606Y198624D01*
X427940D01*
X427606Y198291D01*
Y196958D01*
X427940Y196625D01*
X428606D01*
X428939Y196958D01*
X403939Y188291D02*
X403606Y188624D01*
X402940D01*
X402607Y188291D01*
Y186958D01*
X402940Y186625D01*
X403606D01*
X403939Y186958D01*
X413940Y208624D02*
X412606D01*
Y207625D01*
X413273D01*
X412606D01*
Y206625D01*
X938492Y283624D02*
Y281625D01*
X939491D01*
X939824Y281958D01*
Y282291D01*
X939491Y282625D01*
X938492D01*
X939491D01*
X939824Y282958D01*
Y283291D01*
X939491Y283624D01*
X938492D01*
X899122D02*
Y281625D01*
X900121D01*
X900454Y281958D01*
Y282291D01*
X900121Y282625D01*
X899122D01*
X900121D01*
X900454Y282958D01*
Y283291D01*
X900121Y283624D01*
X899122D01*
X935139Y273291D02*
X934806Y273624D01*
X934140D01*
X933807Y273291D01*
Y271958D01*
X934140Y271625D01*
X934806D01*
X935139Y271958D01*
X910139Y263291D02*
X909806Y263624D01*
X909140D01*
X908807Y263291D01*
Y261958D01*
X909140Y261625D01*
X909806D01*
X910139Y261958D01*
X920140Y283624D02*
X918807D01*
Y282625D01*
X919473D01*
X918807D01*
Y281625D01*
X1125992Y471124D02*
Y469125D01*
X1126991D01*
X1127324Y469458D01*
Y469791D01*
X1126991Y470124D01*
X1125992D01*
X1126991D01*
X1127324Y470458D01*
Y470791D01*
X1126991Y471124D01*
X1125992D01*
X1086622D02*
Y469125D01*
X1087621D01*
X1087954Y469458D01*
Y469791D01*
X1087621Y470124D01*
X1086622D01*
X1087621D01*
X1087954Y470458D01*
Y470791D01*
X1087621Y471124D01*
X1086622D01*
X1122639Y460791D02*
X1122306Y461124D01*
X1121640D01*
X1121307Y460791D01*
Y459458D01*
X1121640Y459125D01*
X1122306D01*
X1122639Y459458D01*
X1097639Y450791D02*
X1097306Y451124D01*
X1096640D01*
X1096307Y450791D01*
Y449458D01*
X1096640Y449125D01*
X1097306D01*
X1097639Y449458D01*
X1107640Y471124D02*
X1106307D01*
Y470124D01*
X1106973D01*
X1106307D01*
Y469125D01*
X1050992Y471124D02*
Y469125D01*
X1051991D01*
X1052324Y469458D01*
Y469791D01*
X1051991Y470124D01*
X1050992D01*
X1051991D01*
X1052324Y470458D01*
Y470791D01*
X1051991Y471124D01*
X1050992D01*
X1011622D02*
Y469125D01*
X1012621D01*
X1012954Y469458D01*
Y469791D01*
X1012621Y470124D01*
X1011622D01*
X1012621D01*
X1012954Y470458D01*
Y470791D01*
X1012621Y471124D01*
X1011622D01*
X1047639Y460791D02*
X1047306Y461124D01*
X1046640D01*
X1046307Y460791D01*
Y459458D01*
X1046640Y459125D01*
X1047306D01*
X1047639Y459458D01*
X1022639Y450791D02*
X1022306Y451124D01*
X1021640D01*
X1021307Y450791D01*
Y449458D01*
X1021640Y449125D01*
X1022306D01*
X1022639Y449458D01*
X1032640Y471124D02*
X1031307D01*
Y470124D01*
X1031973D01*
X1031307D01*
Y469125D01*
X975992Y471124D02*
Y469125D01*
X976991D01*
X977324Y469458D01*
Y469791D01*
X976991Y470124D01*
X975992D01*
X976991D01*
X977324Y470458D01*
Y470791D01*
X976991Y471124D01*
X975992D01*
X936622D02*
Y469125D01*
X937621D01*
X937954Y469458D01*
Y469791D01*
X937621Y470124D01*
X936622D01*
X937621D01*
X937954Y470458D01*
Y470791D01*
X937621Y471124D01*
X936622D01*
X972639Y460791D02*
X972306Y461124D01*
X971640D01*
X971307Y460791D01*
Y459458D01*
X971640Y459125D01*
X972306D01*
X972639Y459458D01*
X947639Y450791D02*
X947306Y451124D01*
X946640D01*
X946307Y450791D01*
Y449458D01*
X946640Y449125D01*
X947306D01*
X947639Y449458D01*
X957640Y471124D02*
X956307D01*
Y470124D01*
X956973D01*
X956307D01*
Y469125D01*
X900992Y471124D02*
Y469125D01*
X901991D01*
X902324Y469458D01*
Y469791D01*
X901991Y470124D01*
X900992D01*
X901991D01*
X902324Y470458D01*
Y470791D01*
X901991Y471124D01*
X900992D01*
X861622D02*
Y469125D01*
X862621D01*
X862954Y469458D01*
Y469791D01*
X862621Y470124D01*
X861622D01*
X862621D01*
X862954Y470458D01*
Y470791D01*
X862621Y471124D01*
X861622D01*
X897639Y460791D02*
X897306Y461124D01*
X896640D01*
X896307Y460791D01*
Y459458D01*
X896640Y459125D01*
X897306D01*
X897639Y459458D01*
X872639Y450791D02*
X872306Y451124D01*
X871640D01*
X871307Y450791D01*
Y449458D01*
X871640Y449125D01*
X872306D01*
X872639Y449458D01*
X882640Y471124D02*
X881307D01*
Y470124D01*
X881973D01*
X881307D01*
Y469125D01*
X788492Y471224D02*
Y469225D01*
X789491D01*
X789824Y469558D01*
Y469891D01*
X789491Y470225D01*
X788492D01*
X789491D01*
X789824Y470558D01*
Y470891D01*
X789491Y471224D01*
X788492D01*
X749122D02*
Y469225D01*
X750121D01*
X750454Y469558D01*
Y469891D01*
X750121Y470225D01*
X749122D01*
X750121D01*
X750454Y470558D01*
Y470891D01*
X750121Y471224D01*
X749122D01*
X785140Y460891D02*
X784806Y461224D01*
X784140D01*
X783807Y460891D01*
Y459558D01*
X784140Y459225D01*
X784806D01*
X785140Y459558D01*
X760140Y450891D02*
X759806Y451224D01*
X759140D01*
X758807Y450891D01*
Y449558D01*
X759140Y449225D01*
X759806D01*
X760140Y449558D01*
X770140Y471224D02*
X768807D01*
Y470225D01*
X769473D01*
X768807D01*
Y469225D01*
X713492Y471224D02*
Y469225D01*
X714491D01*
X714824Y469558D01*
Y469891D01*
X714491Y470225D01*
X713492D01*
X714491D01*
X714824Y470558D01*
Y470891D01*
X714491Y471224D01*
X713492D01*
X674122D02*
Y469225D01*
X675121D01*
X675454Y469558D01*
Y469891D01*
X675121Y470225D01*
X674122D01*
X675121D01*
X675454Y470558D01*
Y470891D01*
X675121Y471224D01*
X674122D01*
X710140Y460891D02*
X709806Y461224D01*
X709140D01*
X708807Y460891D01*
Y459558D01*
X709140Y459225D01*
X709806D01*
X710140Y459558D01*
X685140Y450891D02*
X684806Y451224D01*
X684140D01*
X683807Y450891D01*
Y449558D01*
X684140Y449225D01*
X684806D01*
X685140Y449558D01*
X695140Y471224D02*
X693807D01*
Y470225D01*
X694473D01*
X693807D01*
Y469225D01*
X638492Y471224D02*
Y469225D01*
X639491D01*
X639824Y469558D01*
Y469891D01*
X639491Y470225D01*
X638492D01*
X639491D01*
X639824Y470558D01*
Y470891D01*
X639491Y471224D01*
X638492D01*
X599122D02*
Y469225D01*
X600121D01*
X600454Y469558D01*
Y469891D01*
X600121Y470225D01*
X599122D01*
X600121D01*
X600454Y470558D01*
Y470891D01*
X600121Y471224D01*
X599122D01*
X635140Y460891D02*
X634806Y461224D01*
X634140D01*
X633807Y460891D01*
Y459558D01*
X634140Y459225D01*
X634806D01*
X635140Y459558D01*
X610140Y450891D02*
X609806Y451224D01*
X609140D01*
X608807Y450891D01*
Y449558D01*
X609140Y449225D01*
X609806D01*
X610140Y449558D01*
X620140Y471224D02*
X618807D01*
Y470225D01*
X619473D01*
X618807D01*
Y469225D01*
X563492Y471224D02*
Y469225D01*
X564491D01*
X564824Y469558D01*
Y469891D01*
X564491Y470225D01*
X563492D01*
X564491D01*
X564824Y470558D01*
Y470891D01*
X564491Y471224D01*
X563492D01*
X524122D02*
Y469225D01*
X525121D01*
X525454Y469558D01*
Y469891D01*
X525121Y470225D01*
X524122D01*
X525121D01*
X525454Y470558D01*
Y470891D01*
X525121Y471224D01*
X524122D01*
X560140Y460891D02*
X559806Y461224D01*
X559140D01*
X558807Y460891D01*
Y459558D01*
X559140Y459225D01*
X559806D01*
X560140Y459558D01*
X535140Y450891D02*
X534806Y451224D01*
X534140D01*
X533807Y450891D01*
Y449558D01*
X534140Y449225D01*
X534806D01*
X535140Y449558D01*
X545140Y471224D02*
X543807D01*
Y470225D01*
X544473D01*
X543807D01*
Y469225D01*
X450992Y471124D02*
Y469125D01*
X451991D01*
X452324Y469458D01*
Y469791D01*
X451991Y470124D01*
X450992D01*
X451991D01*
X452324Y470458D01*
Y470791D01*
X451991Y471124D01*
X450992D01*
X411622D02*
Y469125D01*
X412621D01*
X412954Y469458D01*
Y469791D01*
X412621Y470124D01*
X411622D01*
X412621D01*
X412954Y470458D01*
Y470791D01*
X412621Y471124D01*
X411622D01*
X447640Y460791D02*
X447306Y461124D01*
X446640D01*
X446307Y460791D01*
Y459458D01*
X446640Y459125D01*
X447306D01*
X447640Y459458D01*
X422640Y450791D02*
X422306Y451124D01*
X421640D01*
X421307Y450791D01*
Y449458D01*
X421640Y449125D01*
X422306D01*
X422640Y449458D01*
X432640Y471124D02*
X431307D01*
Y470124D01*
X431973D01*
X431307D01*
Y469125D01*
X375992Y471124D02*
Y469125D01*
X376991D01*
X377324Y469458D01*
Y469791D01*
X376991Y470124D01*
X375992D01*
X376991D01*
X377324Y470458D01*
Y470791D01*
X376991Y471124D01*
X375992D01*
X336621D02*
Y469125D01*
X337621D01*
X337954Y469458D01*
Y469791D01*
X337621Y470124D01*
X336621D01*
X337621D01*
X337954Y470458D01*
Y470791D01*
X337621Y471124D01*
X336621D01*
X372639Y460791D02*
X372306Y461124D01*
X371640D01*
X371307Y460791D01*
Y459458D01*
X371640Y459125D01*
X372306D01*
X372639Y459458D01*
X347639Y450791D02*
X347306Y451124D01*
X346640D01*
X346307Y450791D01*
Y449458D01*
X346640Y449125D01*
X347306D01*
X347639Y449458D01*
X357639Y471124D02*
X356307D01*
Y470124D01*
X356973D01*
X356307D01*
Y469125D01*
X300992Y471124D02*
Y469125D01*
X301991D01*
X302324Y469458D01*
Y469791D01*
X301991Y470124D01*
X300992D01*
X301991D01*
X302324Y470458D01*
Y470791D01*
X301991Y471124D01*
X300992D01*
X261621D02*
Y469125D01*
X262621D01*
X262954Y469458D01*
Y469791D01*
X262621Y470124D01*
X261621D01*
X262621D01*
X262954Y470458D01*
Y470791D01*
X262621Y471124D01*
X261621D01*
X297639Y460791D02*
X297306Y461124D01*
X296640D01*
X296307Y460791D01*
Y459458D01*
X296640Y459125D01*
X297306D01*
X297639Y459458D01*
X272639Y450791D02*
X272306Y451124D01*
X271640D01*
X271307Y450791D01*
Y449458D01*
X271640Y449125D01*
X272306D01*
X272639Y449458D01*
X282639Y471124D02*
X281307D01*
Y470124D01*
X281973D01*
X281307D01*
Y469125D01*
X225992Y471124D02*
Y469125D01*
X226991D01*
X227324Y469458D01*
Y469791D01*
X226991Y470124D01*
X225992D01*
X226991D01*
X227324Y470458D01*
Y470791D01*
X226991Y471124D01*
X225992D01*
X186622D02*
Y469125D01*
X187621D01*
X187954Y469458D01*
Y469791D01*
X187621Y470124D01*
X186622D01*
X187621D01*
X187954Y470458D01*
Y470791D01*
X187621Y471124D01*
X186622D01*
X222639Y460791D02*
X222306Y461124D01*
X221640D01*
X221307Y460791D01*
Y459458D01*
X221640Y459125D01*
X222306D01*
X222639Y459458D01*
X197640Y450791D02*
X197306Y451124D01*
X196640D01*
X196307Y450791D01*
Y449458D01*
X196640Y449125D01*
X197306D01*
X197640Y449458D01*
X207639Y471124D02*
X206307D01*
Y470124D01*
X206973D01*
X206307D01*
Y469125D01*
X338492Y283624D02*
Y281625D01*
X339491D01*
X339824Y281958D01*
Y282291D01*
X339491Y282625D01*
X338492D01*
X339491D01*
X339824Y282958D01*
Y283291D01*
X339491Y283624D01*
X338492D01*
X299121D02*
Y281625D01*
X300121D01*
X300454Y281958D01*
Y282291D01*
X300121Y282625D01*
X299121D01*
X300121D01*
X300454Y282958D01*
Y283291D01*
X300121Y283624D01*
X299121D01*
X335139Y273291D02*
X334806Y273624D01*
X334140D01*
X333807Y273291D01*
Y271958D01*
X334140Y271625D01*
X334806D01*
X335139Y271958D01*
X310139Y263291D02*
X309806Y263624D01*
X309140D01*
X308807Y263291D01*
Y261958D01*
X309140Y261625D01*
X309806D01*
X310139Y261958D01*
X320139Y283624D02*
X318807D01*
Y282625D01*
X319473D01*
X318807D01*
Y281625D01*
X75991Y471124D02*
Y469125D01*
X76991D01*
X77324Y469458D01*
Y469791D01*
X76991Y470124D01*
X75991D01*
X76991D01*
X77324Y470458D01*
Y470791D01*
X76991Y471124D01*
X75991D01*
X36622D02*
Y469125D01*
X37621D01*
X37955Y469458D01*
Y469791D01*
X37621Y470124D01*
X36622D01*
X37621D01*
X37955Y470458D01*
Y470791D01*
X37621Y471124D01*
X36622D01*
X72639Y460791D02*
X72306Y461124D01*
X71640D01*
X71307Y460791D01*
Y459458D01*
X71640Y459125D01*
X72306D01*
X72639Y459458D01*
X47639Y450791D02*
X47306Y451124D01*
X46640D01*
X46306Y450791D01*
Y449458D01*
X46640Y449125D01*
X47306D01*
X47639Y449458D01*
X57639Y471124D02*
X56307D01*
Y470124D01*
X56973D01*
X56307D01*
Y469125D01*
X1294792Y283624D02*
Y281625D01*
X1295791D01*
X1296124Y281958D01*
Y282291D01*
X1295791Y282625D01*
X1294792D01*
X1295791D01*
X1296124Y282958D01*
Y283291D01*
X1295791Y283624D01*
X1294792D01*
X1255422D02*
Y281625D01*
X1256421D01*
X1256754Y281958D01*
Y282291D01*
X1256421Y282625D01*
X1255422D01*
X1256421D01*
X1256754Y282958D01*
Y283291D01*
X1256421Y283624D01*
X1255422D01*
X1291440Y273291D02*
X1291106Y273624D01*
X1290440D01*
X1290107Y273291D01*
Y271958D01*
X1290440Y271625D01*
X1291106D01*
X1291440Y271958D01*
X1266440Y263291D02*
X1266106Y263624D01*
X1265440D01*
X1265107Y263291D01*
Y261958D01*
X1265440Y261625D01*
X1266106D01*
X1266440Y261958D01*
X1276439Y283624D02*
X1275107D01*
Y282625D01*
X1275773D01*
X1275107D01*
Y281625D01*
X357292Y208624D02*
Y206625D01*
X358291D01*
X358624Y206958D01*
Y207291D01*
X358291Y207625D01*
X357292D01*
X358291D01*
X358624Y207958D01*
Y208291D01*
X358291Y208624D01*
X357292D01*
X317921D02*
Y206625D01*
X318921D01*
X319254Y206958D01*
Y207291D01*
X318921Y207625D01*
X317921D01*
X318921D01*
X319254Y207958D01*
Y208291D01*
X318921Y208624D01*
X317921D01*
X353939Y198291D02*
X353606Y198624D01*
X352940D01*
X352607Y198291D01*
Y196958D01*
X352940Y196625D01*
X353606D01*
X353939Y196958D01*
X328939Y188291D02*
X328606Y188624D01*
X327940D01*
X327607Y188291D01*
Y186958D01*
X327940Y186625D01*
X328606D01*
X328939Y186958D01*
X338939Y208624D02*
X337607D01*
Y207625D01*
X338273D01*
X337607D01*
Y206625D01*
X1294792Y58624D02*
Y56625D01*
X1295791D01*
X1296124Y56958D01*
Y57291D01*
X1295791Y57625D01*
X1294792D01*
X1295791D01*
X1296124Y57958D01*
Y58291D01*
X1295791Y58624D01*
X1294792D01*
X1255422D02*
Y56625D01*
X1256421D01*
X1256754Y56958D01*
Y57291D01*
X1256421Y57625D01*
X1255422D01*
X1256421D01*
X1256754Y57958D01*
Y58291D01*
X1256421Y58624D01*
X1255422D01*
X1291440Y48291D02*
X1291106Y48624D01*
X1290440D01*
X1290107Y48291D01*
Y46958D01*
X1290440Y46625D01*
X1291106D01*
X1291440Y46958D01*
X1266440Y38291D02*
X1266106Y38624D01*
X1265440D01*
X1265107Y38291D01*
Y36958D01*
X1265440Y36625D01*
X1266106D01*
X1266440Y36958D01*
X1276439Y58624D02*
X1275107D01*
Y57625D01*
X1275773D01*
X1275107D01*
Y56625D01*
X1219792Y283624D02*
Y281625D01*
X1220791D01*
X1221124Y281958D01*
Y282291D01*
X1220791Y282625D01*
X1219792D01*
X1220791D01*
X1221124Y282958D01*
Y283291D01*
X1220791Y283624D01*
X1219792D01*
X1180422D02*
Y281625D01*
X1181421D01*
X1181754Y281958D01*
Y282291D01*
X1181421Y282625D01*
X1180422D01*
X1181421D01*
X1181754Y282958D01*
Y283291D01*
X1181421Y283624D01*
X1180422D01*
X1216440Y273291D02*
X1216106Y273624D01*
X1215440D01*
X1215107Y273291D01*
Y271958D01*
X1215440Y271625D01*
X1216106D01*
X1216440Y271958D01*
X1191440Y263291D02*
X1191106Y263624D01*
X1190440D01*
X1190107Y263291D01*
Y261958D01*
X1190440Y261625D01*
X1191106D01*
X1191440Y261958D01*
X1201439Y283624D02*
X1200107D01*
Y282625D01*
X1200773D01*
X1200107D01*
Y281625D01*
X394792Y133624D02*
Y131625D01*
X395791D01*
X396124Y131958D01*
Y132291D01*
X395791Y132624D01*
X394792D01*
X395791D01*
X396124Y132958D01*
Y133291D01*
X395791Y133624D01*
X394792D01*
X355421D02*
Y131625D01*
X356421D01*
X356754Y131958D01*
Y132291D01*
X356421Y132624D01*
X355421D01*
X356421D01*
X356754Y132958D01*
Y133291D01*
X356421Y133624D01*
X355421D01*
X391439Y123291D02*
X391106Y123624D01*
X390440D01*
X390107Y123291D01*
Y121958D01*
X390440Y121625D01*
X391106D01*
X391439Y121958D01*
X366439Y113291D02*
X366106Y113624D01*
X365440D01*
X365107Y113291D01*
Y111958D01*
X365440Y111625D01*
X366106D01*
X366439Y111958D01*
X376439Y133624D02*
X375107D01*
Y132624D01*
X375773D01*
X375107D01*
Y131625D01*
X769792Y133624D02*
Y131625D01*
X770791D01*
X771124Y131958D01*
Y132291D01*
X770791Y132624D01*
X769792D01*
X770791D01*
X771124Y132958D01*
Y133291D01*
X770791Y133624D01*
X769792D01*
X730422D02*
Y131625D01*
X731421D01*
X731754Y131958D01*
Y132291D01*
X731421Y132624D01*
X730422D01*
X731421D01*
X731754Y132958D01*
Y133291D01*
X731421Y133624D01*
X730422D01*
X766439Y123291D02*
X766106Y123624D01*
X765440D01*
X765106Y123291D01*
Y121958D01*
X765440Y121625D01*
X766106D01*
X766439Y121958D01*
X741439Y113291D02*
X741106Y113624D01*
X740440D01*
X740106Y113291D01*
Y111958D01*
X740440Y111625D01*
X741106D01*
X741439Y111958D01*
X751440Y133624D02*
X750106D01*
Y132624D01*
X750773D01*
X750106D01*
Y131625D01*
X882292Y208624D02*
Y206625D01*
X883291D01*
X883624Y206958D01*
Y207291D01*
X883291Y207625D01*
X882292D01*
X883291D01*
X883624Y207958D01*
Y208291D01*
X883291Y208624D01*
X882292D01*
X842922D02*
Y206625D01*
X843921D01*
X844254Y206958D01*
Y207291D01*
X843921Y207625D01*
X842922D01*
X843921D01*
X844254Y207958D01*
Y208291D01*
X843921Y208624D01*
X842922D01*
X878940Y198291D02*
X878606Y198624D01*
X877940D01*
X877607Y198291D01*
Y196958D01*
X877940Y196625D01*
X878606D01*
X878940Y196958D01*
X853940Y188291D02*
X853606Y188624D01*
X852940D01*
X852607Y188291D01*
Y186958D01*
X852940Y186625D01*
X853606D01*
X853940Y186958D01*
X863939Y208624D02*
X862607D01*
Y207625D01*
X863273D01*
X862607D01*
Y206625D01*
X544792Y133624D02*
Y131625D01*
X545791D01*
X546124Y131958D01*
Y132291D01*
X545791Y132624D01*
X544792D01*
X545791D01*
X546124Y132958D01*
Y133291D01*
X545791Y133624D01*
X544792D01*
X505422D02*
Y131625D01*
X506421D01*
X506754Y131958D01*
Y132291D01*
X506421Y132624D01*
X505422D01*
X506421D01*
X506754Y132958D01*
Y133291D01*
X506421Y133624D01*
X505422D01*
X541439Y123291D02*
X541106Y123624D01*
X540440D01*
X540106Y123291D01*
Y121958D01*
X540440Y121625D01*
X541106D01*
X541439Y121958D01*
X516439Y113291D02*
X516106Y113624D01*
X515440D01*
X515106Y113291D01*
Y111958D01*
X515440Y111625D01*
X516106D01*
X516439Y111958D01*
X526440Y133624D02*
X525106D01*
Y132624D01*
X525773D01*
X525106D01*
Y131625D01*
X1013492Y283624D02*
Y281625D01*
X1014491D01*
X1014824Y281958D01*
Y282291D01*
X1014491Y282625D01*
X1013492D01*
X1014491D01*
X1014824Y282958D01*
Y283291D01*
X1014491Y283624D01*
X1013492D01*
X974122D02*
Y281625D01*
X975121D01*
X975454Y281958D01*
Y282291D01*
X975121Y282625D01*
X974122D01*
X975121D01*
X975454Y282958D01*
Y283291D01*
X975121Y283624D01*
X974122D01*
X1010139Y273291D02*
X1009806Y273624D01*
X1009140D01*
X1008807Y273291D01*
Y271958D01*
X1009140Y271625D01*
X1009806D01*
X1010139Y271958D01*
X985139Y263291D02*
X984806Y263624D01*
X984140D01*
X983807Y263291D01*
Y261958D01*
X984140Y261625D01*
X984806D01*
X985139Y261958D01*
X995140Y283624D02*
X993807D01*
Y282625D01*
X994473D01*
X993807D01*
Y281625D01*
X207292Y208624D02*
Y206625D01*
X208291D01*
X208624Y206958D01*
Y207291D01*
X208291Y207625D01*
X207292D01*
X208291D01*
X208624Y207958D01*
Y208291D01*
X208291Y208624D01*
X207292D01*
X167922D02*
Y206625D01*
X168921D01*
X169254Y206958D01*
Y207291D01*
X168921Y207625D01*
X167922D01*
X168921D01*
X169254Y207958D01*
Y208291D01*
X168921Y208624D01*
X167922D01*
X203940Y198291D02*
X203606Y198624D01*
X202940D01*
X202607Y198291D01*
Y196958D01*
X202940Y196625D01*
X203606D01*
X203940Y196958D01*
X178939Y188291D02*
X178606Y188624D01*
X177940D01*
X177606Y188291D01*
Y186958D01*
X177940Y186625D01*
X178606D01*
X178939Y186958D01*
X188939Y208624D02*
X187607D01*
Y207625D01*
X188273D01*
X187607D01*
Y206625D01*
X975992Y358624D02*
Y356625D01*
X976991D01*
X977324Y356958D01*
Y357291D01*
X976991Y357625D01*
X975992D01*
X976991D01*
X977324Y357958D01*
Y358291D01*
X976991Y358624D01*
X975992D01*
X936622D02*
Y356625D01*
X937621D01*
X937954Y356958D01*
Y357291D01*
X937621Y357625D01*
X936622D01*
X937621D01*
X937954Y357958D01*
Y358291D01*
X937621Y358624D01*
X936622D01*
X972639Y348291D02*
X972306Y348624D01*
X971640D01*
X971307Y348291D01*
Y346958D01*
X971640Y346625D01*
X972306D01*
X972639Y346958D01*
X947639Y338291D02*
X947306Y338624D01*
X946640D01*
X946307Y338291D01*
Y336958D01*
X946640Y336625D01*
X947306D01*
X947639Y336958D01*
X957640Y358624D02*
X956307D01*
Y357625D01*
X956973D01*
X956307D01*
Y356625D01*
X750992Y358624D02*
Y356625D01*
X751991D01*
X752324Y356958D01*
Y357291D01*
X751991Y357625D01*
X750992D01*
X751991D01*
X752324Y357958D01*
Y358291D01*
X751991Y358624D01*
X750992D01*
X711622D02*
Y356625D01*
X712621D01*
X712954Y356958D01*
Y357291D01*
X712621Y357625D01*
X711622D01*
X712621D01*
X712954Y357958D01*
Y358291D01*
X712621Y358624D01*
X711622D01*
X747640Y348291D02*
X747306Y348624D01*
X746640D01*
X746307Y348291D01*
Y346958D01*
X746640Y346625D01*
X747306D01*
X747640Y346958D01*
X722640Y338291D02*
X722306Y338624D01*
X721640D01*
X721307Y338291D01*
Y336958D01*
X721640Y336625D01*
X722306D01*
X722640Y336958D01*
X732640Y358624D02*
X731307D01*
Y357625D01*
X731973D01*
X731307D01*
Y356625D01*
X675992Y358624D02*
Y356625D01*
X676991D01*
X677324Y356958D01*
Y357291D01*
X676991Y357625D01*
X675992D01*
X676991D01*
X677324Y357958D01*
Y358291D01*
X676991Y358624D01*
X675992D01*
X636622D02*
Y356625D01*
X637621D01*
X637954Y356958D01*
Y357291D01*
X637621Y357625D01*
X636622D01*
X637621D01*
X637954Y357958D01*
Y358291D01*
X637621Y358624D01*
X636622D01*
X672640Y348291D02*
X672306Y348624D01*
X671640D01*
X671307Y348291D01*
Y346958D01*
X671640Y346625D01*
X672306D01*
X672640Y346958D01*
X647640Y338291D02*
X647306Y338624D01*
X646640D01*
X646307Y338291D01*
Y336958D01*
X646640Y336625D01*
X647306D01*
X647640Y336958D01*
X657640Y358624D02*
X656307D01*
Y357625D01*
X656973D01*
X656307D01*
Y356625D01*
X600992Y358624D02*
Y356625D01*
X601991D01*
X602324Y356958D01*
Y357291D01*
X601991Y357625D01*
X600992D01*
X601991D01*
X602324Y357958D01*
Y358291D01*
X601991Y358624D01*
X600992D01*
X561622D02*
Y356625D01*
X562621D01*
X562954Y356958D01*
Y357291D01*
X562621Y357625D01*
X561622D01*
X562621D01*
X562954Y357958D01*
Y358291D01*
X562621Y358624D01*
X561622D01*
X597640Y348291D02*
X597306Y348624D01*
X596640D01*
X596307Y348291D01*
Y346958D01*
X596640Y346625D01*
X597306D01*
X597640Y346958D01*
X572640Y338291D02*
X572306Y338624D01*
X571640D01*
X571307Y338291D01*
Y336958D01*
X571640Y336625D01*
X572306D01*
X572640Y336958D01*
X582640Y358624D02*
X581307D01*
Y357625D01*
X581973D01*
X581307D01*
Y356625D01*
X525992Y358624D02*
Y356625D01*
X526991D01*
X527324Y356958D01*
Y357291D01*
X526991Y357625D01*
X525992D01*
X526991D01*
X527324Y357958D01*
Y358291D01*
X526991Y358624D01*
X525992D01*
X486622D02*
Y356625D01*
X487621D01*
X487954Y356958D01*
Y357291D01*
X487621Y357625D01*
X486622D01*
X487621D01*
X487954Y357958D01*
Y358291D01*
X487621Y358624D01*
X486622D01*
X522640Y348291D02*
X522306Y348624D01*
X521640D01*
X521307Y348291D01*
Y346958D01*
X521640Y346625D01*
X522306D01*
X522640Y346958D01*
X497640Y338291D02*
X497306Y338624D01*
X496640D01*
X496307Y338291D01*
Y336958D01*
X496640Y336625D01*
X497306D01*
X497640Y336958D01*
X507640Y358624D02*
X506307D01*
Y357625D01*
X506973D01*
X506307D01*
Y356625D01*
X450992Y358624D02*
Y356625D01*
X451991D01*
X452324Y356958D01*
Y357291D01*
X451991Y357625D01*
X450992D01*
X451991D01*
X452324Y357958D01*
Y358291D01*
X451991Y358624D01*
X450992D01*
X411622D02*
Y356625D01*
X412621D01*
X412954Y356958D01*
Y357291D01*
X412621Y357625D01*
X411622D01*
X412621D01*
X412954Y357958D01*
Y358291D01*
X412621Y358624D01*
X411622D01*
X447640Y348291D02*
X447306Y348624D01*
X446640D01*
X446307Y348291D01*
Y346958D01*
X446640Y346625D01*
X447306D01*
X447640Y346958D01*
X422640Y338291D02*
X422306Y338624D01*
X421640D01*
X421307Y338291D01*
Y336958D01*
X421640Y336625D01*
X422306D01*
X422640Y336958D01*
X432640Y358624D02*
X431307D01*
Y357625D01*
X431973D01*
X431307D01*
Y356625D01*
X375992Y358624D02*
Y356625D01*
X376991D01*
X377324Y356958D01*
Y357291D01*
X376991Y357625D01*
X375992D01*
X376991D01*
X377324Y357958D01*
Y358291D01*
X376991Y358624D01*
X375992D01*
X336621D02*
Y356625D01*
X337621D01*
X337954Y356958D01*
Y357291D01*
X337621Y357625D01*
X336621D01*
X337621D01*
X337954Y357958D01*
Y358291D01*
X337621Y358624D01*
X336621D01*
X372639Y348291D02*
X372306Y348624D01*
X371640D01*
X371307Y348291D01*
Y346958D01*
X371640Y346625D01*
X372306D01*
X372639Y346958D01*
X347639Y338291D02*
X347306Y338624D01*
X346640D01*
X346307Y338291D01*
Y336958D01*
X346640Y336625D01*
X347306D01*
X347639Y336958D01*
X357639Y358624D02*
X356307D01*
Y357625D01*
X356973D01*
X356307D01*
Y356625D01*
X300992Y358624D02*
Y356625D01*
X301991D01*
X302324Y356958D01*
Y357291D01*
X301991Y357625D01*
X300992D01*
X301991D01*
X302324Y357958D01*
Y358291D01*
X301991Y358624D01*
X300992D01*
X261621D02*
Y356625D01*
X262621D01*
X262954Y356958D01*
Y357291D01*
X262621Y357625D01*
X261621D01*
X262621D01*
X262954Y357958D01*
Y358291D01*
X262621Y358624D01*
X261621D01*
X297639Y348291D02*
X297306Y348624D01*
X296640D01*
X296307Y348291D01*
Y346958D01*
X296640Y346625D01*
X297306D01*
X297639Y346958D01*
X272639Y338291D02*
X272306Y338624D01*
X271640D01*
X271307Y338291D01*
Y336958D01*
X271640Y336625D01*
X272306D01*
X272639Y336958D01*
X282639Y358624D02*
X281307D01*
Y357625D01*
X281973D01*
X281307D01*
Y356625D01*
X225992Y358624D02*
Y356625D01*
X226991D01*
X227324Y356958D01*
Y357291D01*
X226991Y357625D01*
X225992D01*
X226991D01*
X227324Y357958D01*
Y358291D01*
X226991Y358624D01*
X225992D01*
X186622D02*
Y356625D01*
X187621D01*
X187954Y356958D01*
Y357291D01*
X187621Y357625D01*
X186622D01*
X187621D01*
X187954Y357958D01*
Y358291D01*
X187621Y358624D01*
X186622D01*
X222639Y348291D02*
X222306Y348624D01*
X221640D01*
X221307Y348291D01*
Y346958D01*
X221640Y346625D01*
X222306D01*
X222639Y346958D01*
X197640Y338291D02*
X197306Y338624D01*
X196640D01*
X196307Y338291D01*
Y336958D01*
X196640Y336625D01*
X197306D01*
X197640Y336958D01*
X207639Y358624D02*
X206307D01*
Y357625D01*
X206973D01*
X206307D01*
Y356625D01*
X150992Y358624D02*
Y356625D01*
X151991D01*
X152324Y356958D01*
Y357291D01*
X151991Y357625D01*
X150992D01*
X151991D01*
X152324Y357958D01*
Y358291D01*
X151991Y358624D01*
X150992D01*
X111622D02*
Y356625D01*
X112621D01*
X112954Y356958D01*
Y357291D01*
X112621Y357625D01*
X111622D01*
X112621D01*
X112954Y357958D01*
Y358291D01*
X112621Y358624D01*
X111622D01*
X147640Y348291D02*
X147306Y348624D01*
X146640D01*
X146307Y348291D01*
Y346958D01*
X146640Y346625D01*
X147306D01*
X147640Y346958D01*
X122640Y338291D02*
X122306Y338624D01*
X121640D01*
X121307Y338291D01*
Y336958D01*
X121640Y336625D01*
X122306D01*
X122640Y336958D01*
X132640Y358624D02*
X131307D01*
Y357625D01*
X131973D01*
X131307D01*
Y356625D01*
X825992Y358624D02*
Y356625D01*
X826991D01*
X827324Y356958D01*
Y357291D01*
X826991Y357625D01*
X825992D01*
X826991D01*
X827324Y357958D01*
Y358291D01*
X826991Y358624D01*
X825992D01*
X786622D02*
Y356625D01*
X787621D01*
X787954Y356958D01*
Y357291D01*
X787621Y357625D01*
X786622D01*
X787621D01*
X787954Y357958D01*
Y358291D01*
X787621Y358624D01*
X786622D01*
X822639Y348291D02*
X822306Y348624D01*
X821640D01*
X821307Y348291D01*
Y346958D01*
X821640Y346625D01*
X822306D01*
X822639Y346958D01*
X797640Y338291D02*
X797306Y338624D01*
X796640D01*
X796307Y338291D01*
Y336958D01*
X796640Y336625D01*
X797306D01*
X797640Y336958D01*
X807640Y358624D02*
X806306D01*
Y357625D01*
X806973D01*
X806306D01*
Y356625D01*
X535840Y58624D02*
X534507D01*
Y57625D01*
X535173D01*
X534507D01*
Y56625D01*
X525840Y38291D02*
X525506Y38624D01*
X524840D01*
X524507Y38291D01*
Y36958D01*
X524840Y36625D01*
X525506D01*
X525840Y36958D01*
X550840Y48291D02*
X550506Y48624D01*
X549840D01*
X549507Y48291D01*
Y46958D01*
X549840Y46625D01*
X550506D01*
X550840Y46958D01*
X514822Y58624D02*
Y56625D01*
X515821D01*
X516154Y56958D01*
Y57291D01*
X515821Y57625D01*
X514822D01*
X515821D01*
X516154Y57958D01*
Y58291D01*
X515821Y58624D01*
X514822D01*
X554192D02*
Y56625D01*
X555191D01*
X555524Y56958D01*
Y57291D01*
X555191Y57625D01*
X554192D01*
X555191D01*
X555524Y57958D01*
Y58291D01*
X555191Y58624D01*
X554192D01*
X1670142Y96173D02*
X1668809D01*
Y95173D01*
X1669476D01*
X1668809D01*
Y94173D01*
X1690142Y85839D02*
X1689809Y86173D01*
X1689142D01*
X1688809Y85839D01*
Y84507D01*
X1689142Y84173D01*
X1689809D01*
X1690142Y84507D01*
X1680142Y110839D02*
X1679809Y111173D01*
X1679142D01*
X1678809Y110839D01*
Y109507D01*
X1679142Y109173D01*
X1679809D01*
X1680142Y109507D01*
X1668809Y76488D02*
Y74488D01*
X1669809D01*
X1670142Y74822D01*
Y75155D01*
X1669809Y75488D01*
X1668809D01*
X1669809D01*
X1670142Y75821D01*
Y76155D01*
X1669809Y76488D01*
X1668809D01*
Y115858D02*
Y113858D01*
X1669809D01*
X1670142Y114192D01*
Y114525D01*
X1669809Y114858D01*
X1668809D01*
X1669809D01*
X1670142Y115191D01*
Y115524D01*
X1669809Y115858D01*
X1668809D01*
X1670142Y246173D02*
X1668809D01*
Y245173D01*
X1669476D01*
X1668809D01*
Y244173D01*
X1690142Y235840D02*
X1689809Y236173D01*
X1689142D01*
X1688809Y235840D01*
Y234507D01*
X1689142Y234173D01*
X1689809D01*
X1690142Y234507D01*
X1680142Y260840D02*
X1679809Y261173D01*
X1679142D01*
X1678809Y260840D01*
Y259507D01*
X1679142Y259173D01*
X1679809D01*
X1680142Y259507D01*
X1668809Y226488D02*
Y224488D01*
X1669809D01*
X1670142Y224822D01*
Y225155D01*
X1669809Y225488D01*
X1668809D01*
X1669809D01*
X1670142Y225821D01*
Y226154D01*
X1669809Y226488D01*
X1668809D01*
Y265858D02*
Y263858D01*
X1669809D01*
X1670142Y264192D01*
Y264525D01*
X1669809Y264858D01*
X1668809D01*
X1669809D01*
X1670142Y265191D01*
Y265525D01*
X1669809Y265858D01*
X1668809D01*
X1482640Y58724D02*
X1481307D01*
Y57724D01*
X1481973D01*
X1481307D01*
Y56725D01*
X1472639Y38391D02*
X1472306Y38724D01*
X1471640D01*
X1471307Y38391D01*
Y37058D01*
X1471640Y36725D01*
X1472306D01*
X1472639Y37058D01*
X1497639Y48391D02*
X1497306Y48724D01*
X1496640D01*
X1496307Y48391D01*
Y47058D01*
X1496640Y46725D01*
X1497306D01*
X1497639Y47058D01*
X1461622Y58724D02*
Y56725D01*
X1462621D01*
X1462954Y57058D01*
Y57391D01*
X1462621Y57724D01*
X1461622D01*
X1462621D01*
X1462954Y58058D01*
Y58391D01*
X1462621Y58724D01*
X1461622D01*
X1500992D02*
Y56725D01*
X1501991D01*
X1502324Y57058D01*
Y57391D01*
X1501991Y57724D01*
X1500992D01*
X1501991D01*
X1502324Y58058D01*
Y58391D01*
X1501991Y58724D01*
X1500992D01*
X1070140Y358624D02*
X1068807D01*
Y357625D01*
X1069473D01*
X1068807D01*
Y356625D01*
X1060139Y338291D02*
X1059806Y338624D01*
X1059140D01*
X1058807Y338291D01*
Y336958D01*
X1059140Y336625D01*
X1059806D01*
X1060139Y336958D01*
X1085139Y348291D02*
X1084806Y348624D01*
X1084140D01*
X1083807Y348291D01*
Y346958D01*
X1084140Y346625D01*
X1084806D01*
X1085139Y346958D01*
X1049122Y358624D02*
Y356625D01*
X1050121D01*
X1050454Y356958D01*
Y357291D01*
X1050121Y357625D01*
X1049122D01*
X1050121D01*
X1050454Y357958D01*
Y358291D01*
X1050121Y358624D01*
X1049122D01*
X1088492D02*
Y356625D01*
X1089491D01*
X1089824Y356958D01*
Y357291D01*
X1089491Y357625D01*
X1088492D01*
X1089491D01*
X1089824Y357958D01*
Y358291D01*
X1089491Y358624D01*
X1088492D01*
X85839Y208624D02*
X84507D01*
Y207625D01*
X85173D01*
X84507D01*
Y206625D01*
X75839Y188291D02*
X75506Y188624D01*
X74840D01*
X74507Y188291D01*
Y186958D01*
X74840Y186625D01*
X75506D01*
X75839Y186958D01*
X100839Y198291D02*
X100506Y198624D01*
X99840D01*
X99507Y198291D01*
Y196958D01*
X99840Y196625D01*
X100506D01*
X100839Y196958D01*
X64822Y208624D02*
Y206625D01*
X65821D01*
X66154Y206958D01*
Y207291D01*
X65821Y207625D01*
X64822D01*
X65821D01*
X66154Y207958D01*
Y208291D01*
X65821Y208624D01*
X64822D01*
X104192D02*
Y206625D01*
X105191D01*
X105525Y206958D01*
Y207291D01*
X105191Y207625D01*
X104192D01*
X105191D01*
X105525Y207958D01*
Y208291D01*
X105191Y208624D01*
X104192D01*
X1042039Y133624D02*
X1040707D01*
Y132624D01*
X1041373D01*
X1040707D01*
Y131625D01*
X1032040Y113291D02*
X1031706Y113624D01*
X1031040D01*
X1030707Y113291D01*
Y111958D01*
X1031040Y111625D01*
X1031706D01*
X1032040Y111958D01*
X1057040Y123291D02*
X1056706Y123624D01*
X1056040D01*
X1055707Y123291D01*
Y121958D01*
X1056040Y121625D01*
X1056706D01*
X1057040Y121958D01*
X1021022Y133624D02*
Y131625D01*
X1022021D01*
X1022354Y131958D01*
Y132291D01*
X1022021Y132624D01*
X1021022D01*
X1022021D01*
X1022354Y132958D01*
Y133291D01*
X1022021Y133624D01*
X1021022D01*
X1060392D02*
Y131625D01*
X1061391D01*
X1061724Y131958D01*
Y132291D01*
X1061391Y132624D01*
X1060392D01*
X1061391D01*
X1061724Y132958D01*
Y133291D01*
X1061391Y133624D01*
X1060392D01*
X929191Y58624D02*
Y56625D01*
X930191D01*
X930525Y56958D01*
Y57291D01*
X930191Y57625D01*
X929191D01*
X930191D01*
X930525Y57958D01*
Y58291D01*
X930191Y58624D01*
X929191D01*
X889822D02*
Y56625D01*
X890821D01*
X891154Y56958D01*
Y57291D01*
X890821Y57625D01*
X889822D01*
X890821D01*
X891154Y57958D01*
Y58291D01*
X890821Y58624D01*
X889822D01*
X925840Y48291D02*
X925506Y48624D01*
X924840D01*
X924507Y48291D01*
Y46958D01*
X924840Y46625D01*
X925506D01*
X925840Y46958D01*
X900840Y38291D02*
X900506Y38624D01*
X899840D01*
X899507Y38291D01*
Y36958D01*
X899840Y36625D01*
X900506D01*
X900840Y36958D01*
X910839Y58624D02*
X909507D01*
Y57625D01*
X910173D01*
X909507D01*
Y56625D01*
X1116691Y58624D02*
Y56625D01*
X1117691D01*
X1118025Y56958D01*
Y57291D01*
X1117691Y57625D01*
X1116691D01*
X1117691D01*
X1118025Y57958D01*
Y58291D01*
X1117691Y58624D01*
X1116691D01*
X1077322D02*
Y56625D01*
X1078321D01*
X1078654Y56958D01*
Y57291D01*
X1078321Y57625D01*
X1077322D01*
X1078321D01*
X1078654Y57958D01*
Y58291D01*
X1078321Y58624D01*
X1077322D01*
X1113340Y48291D02*
X1113006Y48624D01*
X1112340D01*
X1112007Y48291D01*
Y46958D01*
X1112340Y46625D01*
X1113006D01*
X1113340Y46958D01*
X1088340Y38291D02*
X1088006Y38624D01*
X1087340D01*
X1087007Y38291D01*
Y36958D01*
X1087340Y36625D01*
X1088006D01*
X1088340Y36958D01*
X1098339Y58624D02*
X1097007D01*
Y57625D01*
X1097673D01*
X1097007D01*
Y56625D01*
X835392Y58624D02*
Y56625D01*
X836391D01*
X836724Y56958D01*
Y57291D01*
X836391Y57625D01*
X835392D01*
X836391D01*
X836724Y57958D01*
Y58291D01*
X836391Y58624D01*
X835392D01*
X796022D02*
Y56625D01*
X797021D01*
X797354Y56958D01*
Y57291D01*
X797021Y57625D01*
X796022D01*
X797021D01*
X797354Y57958D01*
Y58291D01*
X797021Y58624D01*
X796022D01*
X832040Y48291D02*
X831706Y48624D01*
X831040D01*
X830707Y48291D01*
Y46958D01*
X831040Y46625D01*
X831706D01*
X832040Y46958D01*
X807040Y38291D02*
X806706Y38624D01*
X806040D01*
X805707Y38291D01*
Y36958D01*
X806040Y36625D01*
X806706D01*
X807040Y36958D01*
X817039Y58624D02*
X815707D01*
Y57625D01*
X816373D01*
X815707D01*
Y56625D01*
X179092Y58624D02*
Y56625D01*
X180091D01*
X180424Y56958D01*
Y57291D01*
X180091Y57625D01*
X179092D01*
X180091D01*
X180424Y57958D01*
Y58291D01*
X180091Y58624D01*
X179092D01*
X139722D02*
Y56625D01*
X140721D01*
X141054Y56958D01*
Y57291D01*
X140721Y57625D01*
X139722D01*
X140721D01*
X141054Y57958D01*
Y58291D01*
X140721Y58624D01*
X139722D01*
X175740Y48291D02*
X175406Y48624D01*
X174740D01*
X174407Y48291D01*
Y46958D01*
X174740Y46625D01*
X175406D01*
X175740Y46958D01*
X150740Y38291D02*
X150406Y38624D01*
X149740D01*
X149407Y38291D01*
Y36958D01*
X149740Y36625D01*
X150406D01*
X150740Y36958D01*
X160740Y58624D02*
X159406D01*
Y57625D01*
X160073D01*
X159406D01*
Y56625D01*
X85391Y58624D02*
Y56625D01*
X86391D01*
X86725Y56958D01*
Y57291D01*
X86391Y57625D01*
X85391D01*
X86391D01*
X86725Y57958D01*
Y58291D01*
X86391Y58624D01*
X85391D01*
X46022D02*
Y56625D01*
X47021D01*
X47355Y56958D01*
Y57291D01*
X47021Y57625D01*
X46022D01*
X47021D01*
X47355Y57958D01*
Y58291D01*
X47021Y58624D01*
X46022D01*
X82039Y48291D02*
X81706Y48624D01*
X81040D01*
X80707Y48291D01*
Y46958D01*
X81040Y46625D01*
X81706D01*
X82039Y46958D01*
X57039Y38291D02*
X56706Y38624D01*
X56040D01*
X55707Y38291D01*
Y36958D01*
X56040Y36625D01*
X56706D01*
X57039Y36958D01*
X67039Y58624D02*
X65707D01*
Y57625D01*
X66373D01*
X65707D01*
Y56625D01*
X272892Y58624D02*
Y56625D01*
X273891D01*
X274224Y56958D01*
Y57291D01*
X273891Y57625D01*
X272892D01*
X273891D01*
X274224Y57958D01*
Y58291D01*
X273891Y58624D01*
X272892D01*
X233522D02*
Y56625D01*
X234521D01*
X234854Y56958D01*
Y57291D01*
X234521Y57625D01*
X233522D01*
X234521D01*
X234854Y57958D01*
Y58291D01*
X234521Y58624D01*
X233522D01*
X269539Y48291D02*
X269206Y48624D01*
X268540D01*
X268207Y48291D01*
Y46958D01*
X268540Y46625D01*
X269206D01*
X269539Y46958D01*
X244539Y38291D02*
X244206Y38624D01*
X243540D01*
X243207Y38291D01*
Y36958D01*
X243540Y36625D01*
X244206D01*
X244539Y36958D01*
X254539Y58624D02*
X253207D01*
Y57625D01*
X253873D01*
X253207D01*
Y56625D01*
X1022892Y58624D02*
Y56625D01*
X1023891D01*
X1024224Y56958D01*
Y57291D01*
X1023891Y57625D01*
X1022892D01*
X1023891D01*
X1024224Y57958D01*
Y58291D01*
X1023891Y58624D01*
X1022892D01*
X983522D02*
Y56625D01*
X984521D01*
X984854Y56958D01*
Y57291D01*
X984521Y57625D01*
X983522D01*
X984521D01*
X984854Y57958D01*
Y58291D01*
X984521Y58624D01*
X983522D01*
X1019540Y48291D02*
X1019206Y48624D01*
X1018540D01*
X1018207Y48291D01*
Y46958D01*
X1018540Y46625D01*
X1019206D01*
X1019540Y46958D01*
X994540Y38291D02*
X994206Y38624D01*
X993540D01*
X993207Y38291D01*
Y36958D01*
X993540Y36625D01*
X994206D01*
X994540Y36958D01*
X1004539Y58624D02*
X1003207D01*
Y57625D01*
X1003873D01*
X1003207D01*
Y56625D01*
X104540Y133624D02*
X103207D01*
Y132624D01*
X103873D01*
X103207D01*
Y131625D01*
X94539Y113291D02*
X94206Y113624D01*
X93540D01*
X93207Y113291D01*
Y111958D01*
X93540Y111625D01*
X94206D01*
X94539Y111958D01*
X119539Y123291D02*
X119206Y123624D01*
X118540D01*
X118207Y123291D01*
Y121958D01*
X118540Y121625D01*
X119206D01*
X119539Y121958D01*
X83522Y133624D02*
Y131625D01*
X84521D01*
X84854Y131958D01*
Y132291D01*
X84521Y132624D01*
X83522D01*
X84521D01*
X84854Y132958D01*
Y133291D01*
X84521Y133624D01*
X83522D01*
X122892D02*
Y131625D01*
X123891D01*
X124224Y131958D01*
Y132291D01*
X123891Y132624D01*
X122892D01*
X123891D01*
X124224Y132958D01*
Y133291D01*
X123891Y133624D01*
X122892D01*
X1060839Y208624D02*
X1059507D01*
Y207625D01*
X1060173D01*
X1059507D01*
Y206625D01*
X1050840Y188291D02*
X1050506Y188624D01*
X1049840D01*
X1049507Y188291D01*
Y186958D01*
X1049840Y186625D01*
X1050506D01*
X1050840Y186958D01*
X1075840Y198291D02*
X1075506Y198624D01*
X1074840D01*
X1074507Y198291D01*
Y196958D01*
X1074840Y196625D01*
X1075506D01*
X1075840Y196958D01*
X1039822Y208624D02*
Y206625D01*
X1040821D01*
X1041154Y206958D01*
Y207291D01*
X1040821Y207625D01*
X1039822D01*
X1040821D01*
X1041154Y207958D01*
Y208291D01*
X1040821Y208624D01*
X1039822D01*
X1079191D02*
Y206625D01*
X1080191D01*
X1080525Y206958D01*
Y207291D01*
X1080191Y207625D01*
X1079191D01*
X1080191D01*
X1080525Y207958D01*
Y208291D01*
X1080191Y208624D01*
X1079191D01*
D54*
X2715488Y147448D02*
Y140250D01*
Y143849D01*
X2720286D01*
Y147448D01*
Y140250D01*
X2723885D02*
X2726284D01*
X2727484Y141450D01*
Y143849D01*
X2726284Y145048D01*
X2723885D01*
X2722685Y143849D01*
Y141450D01*
X2723885Y140250D01*
X2729883D02*
X2732282D01*
X2731083D01*
Y147448D01*
X2729883D01*
X2739480Y140250D02*
X2737081D01*
X2735881Y141450D01*
Y143849D01*
X2737081Y145048D01*
X2739480D01*
X2740680Y143849D01*
Y142649D01*
X2735881D01*
X2750277Y147448D02*
X2755075D01*
X2752676D01*
Y140250D01*
X2758674D02*
X2761073D01*
X2762273Y141450D01*
Y143849D01*
X2761073Y145048D01*
X2758674D01*
X2757474Y143849D01*
Y141450D01*
X2758674Y140250D01*
X2764672D02*
X2767071D01*
X2765871D01*
Y147448D01*
X2764672D01*
X2774269Y140250D02*
X2771870D01*
X2770670Y141450D01*
Y143849D01*
X2771870Y145048D01*
X2774269D01*
X2775468Y143849D01*
Y142649D01*
X2770670D01*
X2777868Y145048D02*
Y140250D01*
Y142649D01*
X2779067Y143849D01*
X2780267Y145048D01*
X2781466D01*
X2786265D02*
X2788664D01*
X2789864Y143849D01*
Y140250D01*
X2786265D01*
X2785065Y141450D01*
X2786265Y142649D01*
X2789864D01*
X2792263Y140250D02*
Y145048D01*
X2795862D01*
X2797061Y143849D01*
Y140250D01*
X2804259Y145048D02*
X2800660D01*
X2799461Y143849D01*
Y141450D01*
X2800660Y140250D01*
X2804259D01*
X2810257D02*
X2807858D01*
X2806658Y141450D01*
Y143849D01*
X2807858Y145048D01*
X2810257D01*
X2811457Y143849D01*
Y142649D01*
X2806658D01*
X2823453Y140250D02*
X2821054Y142649D01*
Y145048D01*
X2823453Y147448D01*
X2827052Y143849D02*
X2831850D01*
X2834249Y140250D02*
X2836649Y142649D01*
Y145048D01*
X2834249Y147448D01*
X2582127D02*
Y140250D01*
Y143849D01*
X2586926D01*
Y147448D01*
Y140250D01*
X2590524D02*
X2592924D01*
X2594123Y141450D01*
Y143849D01*
X2592924Y145048D01*
X2590524D01*
X2589325Y143849D01*
Y141450D01*
X2590524Y140250D01*
X2596522D02*
X2598922D01*
X2597722D01*
Y147448D01*
X2596522D01*
X2606119Y140250D02*
X2603720D01*
X2602520Y141450D01*
Y143849D01*
X2603720Y145048D01*
X2606119D01*
X2607319Y143849D01*
Y142649D01*
X2602520D01*
X2616916Y147448D02*
X2621714D01*
X2619315D01*
Y140250D01*
X2625313D02*
X2627712D01*
X2628912Y141450D01*
Y143849D01*
X2627712Y145048D01*
X2625313D01*
X2624113Y143849D01*
Y141450D01*
X2625313Y140250D01*
X2631311D02*
X2633710D01*
X2632511D01*
Y147448D01*
X2631311D01*
X2640908Y140250D02*
X2638509D01*
X2637309Y141450D01*
Y143849D01*
X2638509Y145048D01*
X2640908D01*
X2642108Y143849D01*
Y142649D01*
X2637309D01*
X2644507Y145048D02*
Y140250D01*
Y142649D01*
X2645707Y143849D01*
X2646906Y145048D01*
X2648106D01*
X2652904D02*
X2655303D01*
X2656503Y143849D01*
Y140250D01*
X2652904D01*
X2651704Y141450D01*
X2652904Y142649D01*
X2656503D01*
X2658902Y140250D02*
Y145048D01*
X2662501D01*
X2663701Y143849D01*
Y140250D01*
X2670898Y145048D02*
X2667299D01*
X2666100Y143849D01*
Y141450D01*
X2667299Y140250D01*
X2670898D01*
X2676896D02*
X2674497D01*
X2673298Y141450D01*
Y143849D01*
X2674497Y145048D01*
X2676896D01*
X2678096Y143849D01*
Y142649D01*
X2673298D01*
X2690092Y140250D02*
X2687693Y142649D01*
Y145048D01*
X2690092Y147448D01*
X2693691Y143849D02*
X2698489D01*
X2696090Y146248D02*
Y141450D01*
X2700889Y140250D02*
X2703288Y142649D01*
Y145048D01*
X2700889Y147448D01*
X2496751D02*
Y140250D01*
X2500350D01*
X2501549Y141450D01*
Y146248D01*
X2500350Y147448D01*
X2496751D01*
X2507547Y140250D02*
X2505148D01*
X2503948Y141450D01*
Y143849D01*
X2505148Y145048D01*
X2507547D01*
X2508747Y143849D01*
Y142649D01*
X2503948D01*
X2511146Y140250D02*
X2514745D01*
X2515944Y141450D01*
X2514745Y142649D01*
X2512346D01*
X2511146Y143849D01*
X2512346Y145048D01*
X2515944D01*
X2523142D02*
X2519543D01*
X2518344Y143849D01*
Y141450D01*
X2519543Y140250D01*
X2523142D01*
X2525541Y145048D02*
Y140250D01*
Y142649D01*
X2526741Y143849D01*
X2527941Y145048D01*
X2529140D01*
X2532739Y140250D02*
X2535138D01*
X2533939D01*
Y145048D01*
X2532739D01*
X2538737Y137851D02*
Y145048D01*
X2542336D01*
X2543536Y143849D01*
Y141450D01*
X2542336Y140250D01*
X2538737D01*
X2547134Y146248D02*
Y145048D01*
X2545935D01*
X2548334D01*
X2547134D01*
Y141450D01*
X2548334Y140250D01*
X2551933D02*
X2554332D01*
X2553132D01*
Y145048D01*
X2551933D01*
X2559130Y140250D02*
X2561530D01*
X2562729Y141450D01*
Y143849D01*
X2561530Y145048D01*
X2559130D01*
X2557931Y143849D01*
Y141450D01*
X2559130Y140250D01*
X2565129D02*
Y145048D01*
X2568727D01*
X2569927Y143849D01*
Y140250D01*
X2431768Y147448D02*
X2436566D01*
X2434167D01*
Y140250D01*
X2442564D02*
X2440165D01*
X2438965Y141450D01*
Y143849D01*
X2440165Y145048D01*
X2442564D01*
X2443764Y143849D01*
Y142649D01*
X2438965D01*
X2446163Y140250D02*
Y145048D01*
X2447363D01*
X2448562Y143849D01*
Y140250D01*
Y143849D01*
X2449762Y145048D01*
X2450962Y143849D01*
Y140250D01*
X2453361Y137851D02*
Y145048D01*
X2456960D01*
X2458159Y143849D01*
Y141450D01*
X2456960Y140250D01*
X2453361D01*
X2460559D02*
X2462958D01*
X2461758D01*
Y147448D01*
X2460559D01*
X2467756Y145048D02*
X2470155D01*
X2471355Y143849D01*
Y140250D01*
X2467756D01*
X2466557Y141450D01*
X2467756Y142649D01*
X2471355D01*
X2474954Y146248D02*
Y145048D01*
X2473754D01*
X2476153D01*
X2474954D01*
Y141450D01*
X2476153Y140250D01*
X2483351D02*
X2480952D01*
X2479752Y141450D01*
Y143849D01*
X2480952Y145048D01*
X2483351D01*
X2484551Y143849D01*
Y142649D01*
X2479752D01*
X2357188Y140250D02*
Y147448D01*
X2360787D01*
X2361986Y146248D01*
Y143849D01*
X2360787Y142649D01*
X2357188D01*
X2365585Y145048D02*
X2367985D01*
X2369184Y143849D01*
Y140250D01*
X2365585D01*
X2364386Y141450D01*
X2365585Y142649D01*
X2369184D01*
X2376382Y147448D02*
Y140250D01*
X2372783D01*
X2371583Y141450D01*
Y143849D01*
X2372783Y145048D01*
X2376382D01*
X2390777Y146248D02*
X2389577Y147448D01*
X2387178D01*
X2385979Y146248D01*
Y145048D01*
X2387178Y143849D01*
X2389577D01*
X2390777Y142649D01*
Y141450D01*
X2389577Y140250D01*
X2387178D01*
X2385979Y141450D01*
X2393176Y147448D02*
Y140250D01*
Y143849D01*
X2394376Y145048D01*
X2396775D01*
X2397975Y143849D01*
Y140250D01*
X2401574Y145048D02*
X2403973D01*
X2405173Y143849D01*
Y140250D01*
X2401574D01*
X2400374Y141450D01*
X2401574Y142649D01*
X2405173D01*
X2407572Y137851D02*
Y145048D01*
X2411171D01*
X2412370Y143849D01*
Y141450D01*
X2411171Y140250D01*
X2407572D01*
X2418368D02*
X2415969D01*
X2414769Y141450D01*
Y143849D01*
X2415969Y145048D01*
X2418368D01*
X2419568Y143849D01*
Y142649D01*
X2414769D01*
X2298203Y147448D02*
Y142649D01*
X2300602Y140250D01*
X2303002Y142649D01*
Y147448D01*
X2305401Y140250D02*
X2307800D01*
X2306600D01*
Y145048D01*
X2305401D01*
X2312598D02*
X2314998D01*
X2316197Y143849D01*
Y140250D01*
X2312598D01*
X2311399Y141450D01*
X2312598Y142649D01*
X2316197D01*
X2318596Y140250D02*
X2323395Y145048D01*
X2325794Y140250D02*
Y147448D01*
X2329393D01*
X2330593Y146248D01*
Y143849D01*
X2329393Y142649D01*
X2325794D01*
X2334192Y145048D02*
X2336591D01*
X2337790Y143849D01*
Y140250D01*
X2334192D01*
X2332992Y141450D01*
X2334192Y142649D01*
X2337790D01*
X2344988Y147448D02*
Y140250D01*
X2341389D01*
X2340190Y141450D01*
Y143849D01*
X2341389Y145048D01*
X2344988D01*
X2148248Y147448D02*
Y140250D01*
X2151847D01*
X2153046Y141450D01*
Y146248D01*
X2151847Y147448D01*
X2148248D01*
X2155446Y145048D02*
Y140250D01*
Y142649D01*
X2156645Y143849D01*
X2157845Y145048D01*
X2159045D01*
X2162643Y140250D02*
X2165043D01*
X2163843D01*
Y145048D01*
X2162643D01*
X2168641Y140250D02*
X2171041D01*
X2169841D01*
Y147448D01*
X2168641D01*
X2174640Y140250D02*
X2177039D01*
X2175839D01*
Y147448D01*
X2174640D01*
X2187835D02*
Y140250D01*
X2192634D01*
X2196233Y145048D02*
X2198632D01*
X2199831Y143849D01*
Y140250D01*
X2196233D01*
X2195033Y141450D01*
X2196233Y142649D01*
X2199831D01*
X2202231Y145048D02*
Y141450D01*
X2203430Y140250D01*
X2207029D01*
Y139050D01*
X2205829Y137851D01*
X2204630D01*
X2207029Y140250D02*
Y145048D01*
X2213027Y140250D02*
X2210628D01*
X2209428Y141450D01*
Y143849D01*
X2210628Y145048D01*
X2213027D01*
X2214227Y143849D01*
Y142649D01*
X2209428D01*
X2216626Y145048D02*
Y140250D01*
Y142649D01*
X2217826Y143849D01*
X2219025Y145048D01*
X2220225D01*
X2231021Y140250D02*
Y147448D01*
X2234620D01*
X2235820Y146248D01*
Y143849D01*
X2234620Y142649D01*
X2231021D01*
X2239419Y145048D02*
X2241818D01*
X2243017Y143849D01*
Y140250D01*
X2239419D01*
X2238219Y141450D01*
X2239419Y142649D01*
X2243017D01*
X2245417Y140250D02*
X2247816D01*
X2246616D01*
Y145048D01*
X2245417D01*
X2251415D02*
Y140250D01*
Y142649D01*
X2252614Y143849D01*
X2253814Y145048D01*
X2255013D01*
X2074868Y147448D02*
Y140250D01*
Y143849D01*
X2079666D01*
Y147448D01*
Y140250D01*
X2083265D02*
X2085664D01*
X2086864Y141450D01*
Y143849D01*
X2085664Y145048D01*
X2083265D01*
X2082066Y143849D01*
Y141450D01*
X2083265Y140250D01*
X2089263D02*
X2091662D01*
X2090463D01*
Y147448D01*
X2089263D01*
X2098860Y140250D02*
X2096461D01*
X2095261Y141450D01*
Y143849D01*
X2096461Y145048D01*
X2098860D01*
X2100060Y143849D01*
Y142649D01*
X2095261D01*
X2109657Y147448D02*
X2114455D01*
X2112056D01*
Y140250D01*
X2116854Y145048D02*
Y141450D01*
X2118054Y140250D01*
X2121653D01*
Y139050D01*
X2120453Y137851D01*
X2119254D01*
X2121653Y140250D02*
Y145048D01*
X2124052Y137851D02*
Y145048D01*
X2127651D01*
X2128850Y143849D01*
Y141450D01*
X2127651Y140250D01*
X2124052D01*
X2134849D02*
X2132449D01*
X2131250Y141450D01*
Y143849D01*
X2132449Y145048D01*
X2134849D01*
X2136048Y143849D01*
Y142649D01*
X2131250D01*
X2024280Y140250D02*
Y147448D01*
X2027879D01*
X2029079Y146248D01*
Y143849D01*
X2027879Y142649D01*
X2024280D01*
X2031478Y140250D02*
X2033877D01*
X2032678D01*
Y147448D01*
X2031478D01*
X2038676Y145048D02*
X2041075D01*
X2042274Y143849D01*
Y140250D01*
X2038676D01*
X2037476Y141450D01*
X2038676Y142649D01*
X2042274D01*
X2045873Y146248D02*
Y145048D01*
X2044674D01*
X2047073D01*
X2045873D01*
Y141450D01*
X2047073Y140250D01*
X2054271D02*
X2051871D01*
X2050672Y141450D01*
Y143849D01*
X2051871Y145048D01*
X2054271D01*
X2055470Y143849D01*
Y142649D01*
X2050672D01*
X2062668Y147448D02*
Y140250D01*
X2059069D01*
X2057869Y141450D01*
Y143849D01*
X2059069Y145048D01*
X2062668D01*
X1885322Y147448D02*
Y140250D01*
Y143849D01*
X1890120D01*
Y147448D01*
Y140250D01*
X1893719D02*
X1896118D01*
X1897318Y141450D01*
Y143849D01*
X1896118Y145048D01*
X1893719D01*
X1892519Y143849D01*
Y141450D01*
X1893719Y140250D01*
X1899717D02*
X1902116D01*
X1900917D01*
Y147448D01*
X1899717D01*
X1909314Y140250D02*
X1906915D01*
X1905715Y141450D01*
Y143849D01*
X1906915Y145048D01*
X1909314D01*
X1910514Y143849D01*
Y142649D01*
X1905715D01*
X1924909Y146248D02*
X1923709Y147448D01*
X1921310D01*
X1920111Y146248D01*
Y145048D01*
X1921310Y143849D01*
X1923709D01*
X1924909Y142649D01*
Y141450D01*
X1923709Y140250D01*
X1921310D01*
X1920111Y141450D01*
X1927308Y140250D02*
X1929707D01*
X1928508D01*
Y145048D01*
X1927308D01*
X1933306D02*
X1938105D01*
X1933306Y140250D01*
X1938105D01*
X1944103D02*
X1941703D01*
X1940504Y141450D01*
Y143849D01*
X1941703Y145048D01*
X1944103D01*
X1945302Y143849D01*
Y142649D01*
X1940504D01*
X1830136Y146248D02*
X1828936Y147448D01*
X1826537D01*
X1825338Y146248D01*
Y141450D01*
X1826537Y140250D01*
X1828936D01*
X1830136Y141450D01*
X1833735Y140250D02*
X1836134D01*
X1837334Y141450D01*
Y143849D01*
X1836134Y145048D01*
X1833735D01*
X1832535Y143849D01*
Y141450D01*
X1833735Y140250D01*
X1839733Y145048D02*
Y141450D01*
X1840932Y140250D01*
X1844531D01*
Y145048D01*
X1846931Y140250D02*
Y145048D01*
X1850529D01*
X1851729Y143849D01*
Y140250D01*
X1855328Y146248D02*
Y145048D01*
X1854128D01*
X1856528D01*
X1855328D01*
Y141450D01*
X1856528Y140250D01*
X1779548Y146248D02*
X1778349Y147448D01*
X1775950D01*
X1774750Y146248D01*
Y145048D01*
X1775950Y143849D01*
X1778349D01*
X1779548Y142649D01*
Y141450D01*
X1778349Y140250D01*
X1775950D01*
X1774750Y141450D01*
X1781948Y145048D02*
Y141450D01*
X1783147Y140250D01*
X1786746D01*
Y139050D01*
X1785546Y137851D01*
X1784347D01*
X1786746Y140250D02*
Y145048D01*
X1789145Y140250D02*
Y145048D01*
X1790345D01*
X1791545Y143849D01*
Y140250D01*
Y143849D01*
X1792744Y145048D01*
X1793944Y143849D01*
Y140250D01*
X1796343Y147448D02*
Y140250D01*
X1799942D01*
X1801142Y141450D01*
Y142649D01*
Y143849D01*
X1799942Y145048D01*
X1796343D01*
X1804740Y140250D02*
X1807140D01*
X1808339Y141450D01*
Y143849D01*
X1807140Y145048D01*
X1804740D01*
X1803541Y143849D01*
Y141450D01*
X1804740Y140250D01*
X1810738D02*
X1813138D01*
X1811938D01*
Y147448D01*
X1810738D01*
M02*
