G04*
G04 #@! TF.GenerationSoftware,Altium Limited,Altium Designer,20.2.6 (244)*
G04*
G04 Layer_Color=16711935*
%FSLAX25Y25*%
%MOIN*%
G70*
G04*
G04 #@! TF.SameCoordinates,FD497EF7-E073-4045-A6AB-1AB52DC75ADD*
G04*
G04*
G04 #@! TF.FilePolarity,Positive*
G04*
G01*
G75*
%ADD51C,0.00050*%
D51*
X19689Y547222D02*
X1707197D01*
X18137Y547163D02*
X19689Y547222D01*
X16602Y546978D02*
X18137Y547163D01*
X15088Y546678D02*
X16602Y546978D01*
X13602Y546261D02*
X15088Y546678D01*
X12153Y545726D02*
X13602Y546261D01*
X10748Y545080D02*
X12153Y545726D01*
X9397Y544324D02*
X10748Y545080D01*
X8116Y543462D02*
X9397Y544324D01*
X6901Y542509D02*
X8116Y543462D01*
X5767Y541454D02*
X6901Y542509D01*
X4715Y540320D02*
X5767Y541454D01*
X3760Y539108D02*
X4715Y540320D01*
X2897Y537824D02*
X3760Y539108D01*
X2143Y536474D02*
X2897Y537824D01*
X1498Y535068D02*
X2143Y536474D01*
X960Y533623D02*
X1498Y535068D01*
X543Y532135D02*
X960Y533623D01*
X244Y530619D02*
X543Y532135D01*
X60Y529084D02*
X244Y530619D01*
X0Y527533D02*
X60Y529084D01*
X0Y20345D02*
Y527533D01*
Y20345D02*
X60Y18804D01*
X244Y17269D01*
X543Y15750D01*
X960Y14263D01*
X1498Y12815D01*
X2143Y11415D01*
X2897Y10064D01*
X3760Y8778D01*
X4715Y7563D01*
X5767Y6429D01*
X6901Y5376D01*
X8116Y4422D01*
X9397Y3565D01*
X10748Y2805D01*
X12153Y2159D01*
X13602Y1628D01*
X15088Y1210D01*
X16602Y906D01*
X18137Y727D01*
X19689Y662D01*
X1707197D01*
X1708736Y727D01*
X1710264Y906D01*
X1711779Y1210D01*
X1713279Y1628D01*
X1714724Y2159D01*
X1716126Y2805D01*
X1717472Y3565D01*
X1718752Y4422D01*
X1719972Y5376D01*
X1721110Y6429D01*
X1722153Y7563D01*
X1723110Y8778D01*
X1723972Y10064D01*
X1724724Y11415D01*
X1725378Y12815D01*
X1725917Y14263D01*
X1726334Y15750D01*
X1726642Y17269D01*
X1726807Y18804D01*
X1726874Y20345D01*
Y527533D01*
X1726807Y529084D02*
X1726874Y527533D01*
X1726642Y530619D02*
X1726807Y529084D01*
X1726334Y532135D02*
X1726642Y530619D01*
X1725917Y533623D02*
X1726334Y532135D01*
X1725378Y535068D02*
X1725917Y533623D01*
X1724724Y536474D02*
X1725378Y535068D01*
X1723972Y537824D02*
X1724724Y536474D01*
X1723110Y539108D02*
X1723972Y537824D01*
X1722153Y540320D02*
X1723110Y539108D01*
X1721110Y541454D02*
X1722153Y540320D01*
X1719972Y542509D02*
X1721110Y541454D01*
X1718752Y543462D02*
X1719972Y542509D01*
X1717472Y544324D02*
X1718752Y543462D01*
X1716126Y545080D02*
X1717472Y544324D01*
X1714724Y545726D02*
X1716126Y545080D01*
X1713279Y546261D02*
X1714724Y545726D01*
X1711779Y546678D02*
X1713279Y546261D01*
X1710264Y546978D02*
X1711779Y546678D01*
X1708736Y547163D02*
X1710264Y546978D01*
X1707197Y547222D02*
X1708736Y547163D01*
M02*
