G04*
G04 #@! TF.GenerationSoftware,Altium Limited,Altium Designer,20.2.6 (244)*
G04*
G04 Layer_Color=16711935*
%FSLAX25Y25*%
%MOIN*%
G70*
G04*
G04 #@! TF.SameCoordinates,CFAAA4C9-4C41-4F38-B22A-D29D1F60BAB1*
G04*
G04*
G04 #@! TF.FilePolarity,Positive*
G04*
G01*
G75*
%ADD51C,0.00050*%
D51*
X1053940Y220044D02*
Y231463D01*
Y220044D02*
X1066932D01*
Y231463D01*
X1053940D02*
X1066932D01*
X97640Y145045D02*
Y156463D01*
Y145045D02*
X110632D01*
Y156463D01*
X97640D02*
X110632D01*
X997640Y70044D02*
Y81463D01*
Y70044D02*
X1010632D01*
Y81463D01*
X997640D02*
X1010632D01*
X247640Y70044D02*
Y81463D01*
Y70044D02*
X260632D01*
Y81463D01*
X247640D02*
X260632D01*
X60140Y70044D02*
Y81463D01*
Y70044D02*
X73132D01*
Y81463D01*
X60140D02*
X73132D01*
X153840Y70044D02*
Y81463D01*
Y70044D02*
X166832D01*
Y81463D01*
X153840D02*
X166832D01*
X810140Y70044D02*
Y81463D01*
Y70044D02*
X823132D01*
Y81463D01*
X810140D02*
X823132D01*
X1091440Y70044D02*
Y81463D01*
Y70044D02*
X1104432D01*
Y81463D01*
X1091440D02*
X1104432D01*
X903940Y70044D02*
Y81463D01*
Y70044D02*
X916932D01*
Y81463D01*
X903940D02*
X916932D01*
X1035140Y145045D02*
Y156463D01*
Y145045D02*
X1048132D01*
Y156463D01*
X1035140D02*
X1048132D01*
X78940Y220044D02*
Y231463D01*
Y220044D02*
X91932D01*
Y231463D01*
X78940D02*
X91932D01*
X1063240Y370044D02*
Y381463D01*
Y370044D02*
X1076232D01*
Y381463D01*
X1063240D02*
X1076232D01*
X1475740Y70144D02*
Y81563D01*
Y70144D02*
X1488732D01*
Y81563D01*
X1475740D02*
X1488732D01*
X1646037Y238940D02*
X1657455D01*
Y251932D01*
X1646037D02*
X1657455D01*
X1646037Y238940D02*
Y251932D01*
Y88940D02*
X1657455D01*
Y101932D01*
X1646037D02*
X1657455D01*
X1646037Y88940D02*
Y101932D01*
X528940Y70044D02*
Y81463D01*
Y70044D02*
X541932D01*
Y81463D01*
X528940D02*
X541932D01*
X800740Y370044D02*
Y381463D01*
Y370044D02*
X813732D01*
Y381463D01*
X800740D02*
X813732D01*
X125740Y370044D02*
Y381463D01*
Y370044D02*
X138732D01*
Y381463D01*
X125740D02*
X138732D01*
X200740Y370044D02*
Y381463D01*
Y370044D02*
X213732D01*
Y381463D01*
X200740D02*
X213732D01*
X275740Y370044D02*
Y381463D01*
Y370044D02*
X288732D01*
Y381463D01*
X275740D02*
X288732D01*
X350740Y370044D02*
Y381463D01*
Y370044D02*
X363732D01*
Y381463D01*
X350740D02*
X363732D01*
X425740Y370044D02*
Y381463D01*
Y370044D02*
X438732D01*
Y381463D01*
X425740D02*
X438732D01*
X500740Y370044D02*
Y381463D01*
Y370044D02*
X513732D01*
Y381463D01*
X500740D02*
X513732D01*
X575740Y370044D02*
Y381463D01*
Y370044D02*
X588732D01*
Y381463D01*
X575740D02*
X588732D01*
X650740Y370044D02*
Y381463D01*
Y370044D02*
X663732D01*
Y381463D01*
X650740D02*
X663732D01*
X725740Y370044D02*
Y381463D01*
Y370044D02*
X738732D01*
Y381463D01*
X725740D02*
X738732D01*
X950740Y370044D02*
Y381463D01*
Y370044D02*
X963732D01*
Y381463D01*
X950740D02*
X963732D01*
X182040Y220044D02*
Y231463D01*
Y220044D02*
X195032D01*
Y231463D01*
X182040D02*
X195032D01*
X988240Y295044D02*
Y306463D01*
Y295044D02*
X1001232D01*
Y306463D01*
X988240D02*
X1001232D01*
X519540Y145045D02*
Y156463D01*
Y145045D02*
X532532D01*
Y156463D01*
X519540D02*
X532532D01*
X857040Y220044D02*
Y231463D01*
Y220044D02*
X870032D01*
Y231463D01*
X857040D02*
X870032D01*
X744540Y145045D02*
Y156463D01*
Y145045D02*
X757532D01*
Y156463D01*
X744540D02*
X757532D01*
X369540Y145045D02*
Y156463D01*
Y145045D02*
X382532D01*
Y156463D01*
X369540D02*
X382532D01*
X1194540Y295044D02*
Y306463D01*
Y295044D02*
X1207532D01*
Y306463D01*
X1194540D02*
X1207532D01*
X1269540Y70044D02*
Y81463D01*
Y70044D02*
X1282532D01*
Y81463D01*
X1269540D02*
X1282532D01*
X332040Y220044D02*
Y231463D01*
Y220044D02*
X345032D01*
Y231463D01*
X332040D02*
X345032D01*
X1269540Y295044D02*
Y306463D01*
Y295044D02*
X1282532D01*
Y306463D01*
X1269540D02*
X1282532D01*
X50740Y482545D02*
Y493962D01*
Y482545D02*
X63732D01*
Y493962D01*
X50740D02*
X63732D01*
X313240Y295044D02*
Y306463D01*
Y295044D02*
X326232D01*
Y306463D01*
X313240D02*
X326232D01*
X200740Y482545D02*
Y493962D01*
Y482545D02*
X213732D01*
Y493962D01*
X200740D02*
X213732D01*
X275740Y482545D02*
Y493962D01*
Y482545D02*
X288732D01*
Y493962D01*
X275740D02*
X288732D01*
X350740Y482545D02*
Y493962D01*
Y482545D02*
X363732D01*
Y493962D01*
X350740D02*
X363732D01*
X425740Y482545D02*
Y493962D01*
Y482545D02*
X438732D01*
Y493962D01*
X425740D02*
X438732D01*
X538240Y482645D02*
Y494063D01*
Y482645D02*
X551232D01*
Y494063D01*
X538240D02*
X551232D01*
X613240Y482645D02*
Y494063D01*
Y482645D02*
X626232D01*
Y494063D01*
X613240D02*
X626232D01*
X688240Y482645D02*
Y494063D01*
Y482645D02*
X701232D01*
Y494063D01*
X688240D02*
X701232D01*
X763240Y482645D02*
Y494063D01*
Y482645D02*
X776232D01*
Y494063D01*
X763240D02*
X776232D01*
X875740Y482545D02*
Y493962D01*
Y482545D02*
X888732D01*
Y493962D01*
X875740D02*
X888732D01*
X950740Y482545D02*
Y493962D01*
Y482545D02*
X963732D01*
Y493962D01*
X950740D02*
X963732D01*
X1025740Y482545D02*
Y493962D01*
Y482545D02*
X1038732D01*
Y493962D01*
X1025740D02*
X1038732D01*
X1100740Y482545D02*
Y493962D01*
Y482545D02*
X1113732D01*
Y493962D01*
X1100740D02*
X1113732D01*
X913240Y295044D02*
Y306463D01*
Y295044D02*
X926232D01*
Y306463D01*
X913240D02*
X926232D01*
X407040Y220044D02*
Y231463D01*
Y220044D02*
X420032D01*
Y231463D01*
X407040D02*
X420032D01*
X819540Y145045D02*
Y156463D01*
Y145045D02*
X832532D01*
Y156463D01*
X819540D02*
X832532D01*
X482040Y220044D02*
Y231463D01*
Y220044D02*
X495032D01*
Y231463D01*
X482040D02*
X495032D01*
X1269540Y370044D02*
Y381463D01*
Y370044D02*
X1282532D01*
Y381463D01*
X1269540D02*
X1282532D01*
X557040Y220044D02*
Y231463D01*
Y220044D02*
X570032D01*
Y231463D01*
X557040D02*
X570032D01*
X1194540Y370044D02*
Y381463D01*
Y370044D02*
X1207532D01*
Y381463D01*
X1194540D02*
X1207532D01*
X688240Y295044D02*
Y306463D01*
Y295044D02*
X701232D01*
Y306463D01*
X688240D02*
X701232D01*
X632040Y220044D02*
Y231463D01*
Y220044D02*
X645032D01*
Y231463D01*
X632040D02*
X645032D01*
X707040Y220044D02*
Y231463D01*
Y220044D02*
X720032D01*
Y231463D01*
X707040D02*
X720032D01*
X1194540Y70044D02*
Y81463D01*
Y70044D02*
X1207532D01*
Y81463D01*
X1194540D02*
X1207532D01*
X782040Y220044D02*
Y231463D01*
Y220044D02*
X795032D01*
Y231463D01*
X782040D02*
X795032D01*
X669540Y145045D02*
Y156463D01*
Y145045D02*
X682532D01*
Y156463D01*
X669540D02*
X682532D01*
X594540Y145045D02*
Y156463D01*
Y145045D02*
X607532D01*
Y156463D01*
X594540D02*
X607532D01*
X1438340Y145045D02*
Y156463D01*
Y145045D02*
X1451332D01*
Y156463D01*
X1438340D02*
X1451332D01*
X1513240Y145045D02*
Y156463D01*
Y145045D02*
X1526232D01*
Y156463D01*
X1513240D02*
X1526232D01*
X1588240Y145045D02*
Y156463D01*
Y145045D02*
X1601232D01*
Y156463D01*
X1588240D02*
X1601232D01*
X1438240Y220044D02*
Y231463D01*
Y220044D02*
X1451232D01*
Y231463D01*
X1438240D02*
X1451232D01*
X1513240Y220044D02*
Y231463D01*
Y220044D02*
X1526232D01*
Y231463D01*
X1513240D02*
X1526232D01*
X1588240Y220044D02*
Y231463D01*
Y220044D02*
X1601232D01*
Y231463D01*
X1588240D02*
X1601232D01*
X1438240Y295044D02*
Y306463D01*
Y295044D02*
X1451232D01*
Y306463D01*
X1438240D02*
X1451232D01*
X1513240Y295044D02*
Y306463D01*
Y295044D02*
X1526232D01*
Y306463D01*
X1513240D02*
X1526232D01*
X1588240Y295044D02*
Y306463D01*
Y295044D02*
X1601232D01*
Y306463D01*
X1588240D02*
X1601232D01*
X1513240Y370044D02*
Y381463D01*
Y370044D02*
X1526232D01*
Y381463D01*
X1513240D02*
X1526232D01*
X1588240Y70044D02*
Y81463D01*
Y70044D02*
X1601232D01*
Y81463D01*
X1588240D02*
X1601232D01*
X1438240Y370044D02*
Y381463D01*
Y370044D02*
X1451232D01*
Y381463D01*
X1438240D02*
X1451232D01*
X1588240Y370044D02*
Y381463D01*
Y370044D02*
X1601232D01*
Y381463D01*
X1588240D02*
X1601232D01*
X1663240Y370044D02*
Y381463D01*
Y370044D02*
X1676232D01*
Y381463D01*
X1663240D02*
X1676232D01*
X763240Y295044D02*
Y306463D01*
Y295044D02*
X776232D01*
Y306463D01*
X763240D02*
X776232D01*
X1344540Y482545D02*
Y493962D01*
Y482545D02*
X1357532D01*
Y493962D01*
X1344540D02*
X1357532D01*
X1344540Y295044D02*
Y306463D01*
Y295044D02*
X1357532D01*
Y306463D01*
X1344540D02*
X1357532D01*
X1344540Y370044D02*
Y381463D01*
Y370044D02*
X1357532D01*
Y381463D01*
X1344540D02*
X1357532D01*
X1194540Y482645D02*
Y494063D01*
Y482645D02*
X1207532D01*
Y494063D01*
X1194540D02*
X1207532D01*
X838240Y295044D02*
Y306463D01*
Y295044D02*
X851232D01*
Y306463D01*
X838240D02*
X851232D01*
X163240Y295044D02*
Y306463D01*
Y295044D02*
X176232D01*
Y306463D01*
X163240D02*
X176232D01*
X932040Y220044D02*
Y231463D01*
Y220044D02*
X945032D01*
Y231463D01*
X932040D02*
X945032D01*
X1344540Y70044D02*
Y81463D01*
Y70044D02*
X1357532D01*
Y81463D01*
X1344540D02*
X1357532D01*
X388240Y295044D02*
Y306463D01*
Y295044D02*
X401232D01*
Y306463D01*
X388240D02*
X401232D01*
X1269540Y482545D02*
Y493962D01*
Y482545D02*
X1282532D01*
Y493962D01*
X1269540D02*
X1282532D01*
X894540Y145045D02*
Y156463D01*
Y145045D02*
X907532D01*
Y156463D01*
X894540D02*
X907532D01*
X257040Y220044D02*
Y231463D01*
Y220044D02*
X270032D01*
Y231463D01*
X257040D02*
X270032D01*
X875740Y370044D02*
Y381463D01*
Y370044D02*
X888732D01*
Y381463D01*
X875740D02*
X888732D01*
X463240Y295044D02*
Y306463D01*
Y295044D02*
X476232D01*
Y306463D01*
X463240D02*
X476232D01*
X1269540Y145045D02*
Y156463D01*
Y145045D02*
X1282532D01*
Y156463D01*
X1269540D02*
X1282532D01*
X613240Y295044D02*
Y306463D01*
Y295044D02*
X626232D01*
Y306463D01*
X613240D02*
X626232D01*
X444540Y145045D02*
Y156463D01*
Y145045D02*
X457532D01*
Y156463D01*
X444540D02*
X457532D01*
X50740Y370044D02*
Y381463D01*
Y370044D02*
X63732D01*
Y381463D01*
X50740D02*
X63732D01*
X238240Y295044D02*
Y306463D01*
Y295044D02*
X251232D01*
Y306463D01*
X238240D02*
X251232D01*
X294540Y145045D02*
Y156463D01*
Y145045D02*
X307532D01*
Y156463D01*
X294540D02*
X307532D01*
X538240Y295044D02*
Y306463D01*
Y295044D02*
X551232D01*
Y306463D01*
X538240D02*
X551232D01*
X219540Y145045D02*
Y156463D01*
Y145045D02*
X232532D01*
Y156463D01*
X219540D02*
X232532D01*
X1082040Y306463D02*
X1095032D01*
Y295044D02*
Y306463D01*
X1082040Y295044D02*
X1095032D01*
X1082040D02*
Y306463D01*
X69540Y295044D02*
Y306463D01*
Y295044D02*
X82532D01*
Y306463D01*
X69540D02*
X82532D01*
X19689Y547222D02*
X1707197D01*
X18137Y547163D02*
X19689Y547222D01*
X16602Y546978D02*
X18137Y547163D01*
X15088Y546678D02*
X16602Y546978D01*
X13602Y546261D02*
X15088Y546678D01*
X12153Y545726D02*
X13602Y546261D01*
X10748Y545080D02*
X12153Y545726D01*
X9397Y544324D02*
X10748Y545080D01*
X8116Y543462D02*
X9397Y544324D01*
X6901Y542509D02*
X8116Y543462D01*
X5767Y541454D02*
X6901Y542509D01*
X4715Y540320D02*
X5767Y541454D01*
X3760Y539108D02*
X4715Y540320D01*
X2897Y537824D02*
X3760Y539108D01*
X2143Y536474D02*
X2897Y537824D01*
X1498Y535068D02*
X2143Y536474D01*
X960Y533623D02*
X1498Y535068D01*
X543Y532135D02*
X960Y533623D01*
X244Y530619D02*
X543Y532135D01*
X60Y529084D02*
X244Y530619D01*
X0Y527533D02*
X60Y529084D01*
X0Y20345D02*
Y527533D01*
Y20345D02*
X60Y18804D01*
X244Y17269D01*
X543Y15750D01*
X960Y14263D01*
X1498Y12815D01*
X2143Y11415D01*
X2897Y10064D01*
X3760Y8778D01*
X4715Y7563D01*
X5767Y6429D01*
X6901Y5376D01*
X8116Y4422D01*
X9397Y3565D01*
X10748Y2805D01*
X12153Y2159D01*
X13602Y1628D01*
X15088Y1210D01*
X16602Y906D01*
X18137Y727D01*
X19689Y662D01*
X1707197D01*
X1708736Y727D01*
X1710264Y906D01*
X1711779Y1210D01*
X1713279Y1628D01*
X1714724Y2159D01*
X1716126Y2805D01*
X1717472Y3565D01*
X1718752Y4422D01*
X1719972Y5376D01*
X1721110Y6429D01*
X1722153Y7563D01*
X1723110Y8778D01*
X1723972Y10064D01*
X1724724Y11415D01*
X1725378Y12815D01*
X1725917Y14263D01*
X1726334Y15750D01*
X1726642Y17269D01*
X1726807Y18804D01*
X1726874Y20345D01*
Y527533D01*
X1726807Y529084D02*
X1726874Y527533D01*
X1726642Y530619D02*
X1726807Y529084D01*
X1726334Y532135D02*
X1726642Y530619D01*
X1725917Y533623D02*
X1726334Y532135D01*
X1725378Y535068D02*
X1725917Y533623D01*
X1724724Y536474D02*
X1725378Y535068D01*
X1723972Y537824D02*
X1724724Y536474D01*
X1723110Y539108D02*
X1723972Y537824D01*
X1722153Y540320D02*
X1723110Y539108D01*
X1721110Y541454D02*
X1722153Y540320D01*
X1719972Y542509D02*
X1721110Y541454D01*
X1718752Y543462D02*
X1719972Y542509D01*
X1717472Y544324D02*
X1718752Y543462D01*
X1716126Y545080D02*
X1717472Y544324D01*
X1714724Y545726D02*
X1716126Y545080D01*
X1713279Y546261D02*
X1714724Y545726D01*
X1711779Y546678D02*
X1713279Y546261D01*
X1710264Y546978D02*
X1711779Y546678D01*
X1708736Y547163D02*
X1710264Y546978D01*
X1707197Y547222D02*
X1708736Y547163D01*
M02*
