M48
;Layer_Color=9474304
;FILE_FORMAT=2:5
INCH,LZ
;TYPE=PLATED
T1F00S00C0.02800
T2F00S00C0.12000
T3F00S00C0.15700
%
T01
X1666076Y043877
X16209Y04881
Y04966
X16206Y05047
Y05132
Y05216
Y053
T02
X03385Y00832
X07325
X14352Y00833
X15292
X16392Y00484
Y01424
Y01984
Y02924
X11073Y02333
X10886Y01583
X09946
X10133Y02333
X0151Y01583
X0057
X10227Y03833
X11167
T03
X0057Y00983
X0151
X03385Y00232
X07325
X09946Y00983
X10886
X14352Y00233
X15292
X16992Y00484
Y01424
Y01984
Y02924
X11073Y01733
X10133
X10227Y03233
X11167
M30
