M48
;Layer_Color=9474304
;FILE_FORMAT=2:5
INCH,LZ
;TYPE=PLATED
T1F00S00C0.02400
T2F00S00C0.02800
T3F00S00C0.12000
T4F00S00C0.15700
%
T01
X0049626Y0048985
X0086Y0089
X0049626Y0148986
X0149626Y0048985
X018Y0089
X0264
X0249626Y0148986
X0399626
Y0048985
X0449626
X0349626
X0499626
X0546Y0089
X0549626Y0148986
X0599626Y0048985
X0649626
X0699626
X0749626
X0699626Y0148986
X0849626
X0827Y0089
X0799626Y0048985
X0899626
X0921Y0089
X0949626Y0098985
X1023Y0089
X1099626Y0098985
X1118Y0089
X1211
X1286
X1299626Y0148986
X1361Y0089
X1399626Y0048985
X1249626
X1449626
X1486Y0087
X1549626Y0048985
X1598Y0088
X1649626Y0048985
X1699626Y0098985
Y0248986
X1649626Y0198986
X1605Y0165
X1598Y0237
X153Y0239
X1499626Y0198986
X153Y0165
X1455
Y0239
X1399626Y0198986
X1349626
X1287Y0165
X1249626Y0198986
X1299626Y0298986
X1199626Y0198986
X1149626
X1049626
X1057Y0165
X1065Y0239
X0948
X0873
X0849626Y0198986
X0837Y0165
X0912
X0798Y0239
X0723
X0699626Y0198986
X0686Y0165
X0762
X0648Y0239
X0573
X0549626Y0198986
X0537Y0165
X0612
X0498Y0239
X0423
X0399626Y0198986
X0387Y0165
X0462
X0348Y0239
X0273
X0249626Y0198986
X0237Y0165
X0312
X0198Y0239
X0149626Y0198986
X0115Y0165
X0095Y0239
X0099626Y0298986
X0049626Y0198986
Y0348986
Y0398986
X0062Y0388
X0099626Y0398986
X0137Y0388
X0149626Y0398986
Y0448985
X0099626
X0086Y0314
X0179
X0199626Y0348986
Y0398986
X0211Y0388
X0286
X0299626Y0398986
Y0448985
X0254Y0314
X0329
X0349626Y0348986
Y0398986
X0361Y0388
X0399626Y0398986
X0436Y0388
X0449626Y0398986
Y0448985
X0404Y0314
X0479
X0499626Y0348986
Y0398986
X0511Y0388
X0549626Y0398986
X0586Y0388
X0599626Y0398986
X0549626Y0448985
X0554Y0314
X0629
X0649626Y0348986
Y0398986
X0661Y0388
X0736
X0749626Y0398986
X0699626Y0448985
X0704Y0314
X0779
X0799626Y0348986
Y0398986
X0811Y0388
X0849626Y0398986
X0887Y0388
X0899626Y0398986
Y0448985
X0929Y0314
X0854
X0949626Y0348986
Y0398986
X0962Y0388
X0999626Y0398986
X1049626
X1074Y0388
X1049626Y0348986
X1004Y0314
X1049626Y0448985
X1099626Y0398986
X1199626
X1206Y0389
X1199626Y0448985
X1211Y0314
X1149626Y0348986
X1249626
Y0398986
X1281Y0389
X1299626Y0398986
X1349626
X1356Y0389
X1399626Y0398986
Y0448985
Y0348986
X1362Y0314
X1286
X1299626Y0448985
X1449626
X1499626
Y0398986
X153Y0385
X1549626Y0398986
X1499626Y0348986
X153Y0314
X1455
X1449626Y0389
Y0398986
X1599626
X1673Y0388
X1692Y0439
X1599Y0315
X1499626Y0498985
X1449626
X1399626
X1299626
X1249626
X1128Y0499
X1049626Y0498985
X0999626
X0899626
X0849626
X0799626
X0749626
X0699626
X0649626
X0599626
X0549626
X0499626
X0449626
X0399626
X0299626
X0227Y0499
X0149626Y0498985
X0099626
T02
X0113Y0059
X0139Y0136
X0265Y0123
X0302Y0048
X0204
X0342Y0123
X0417
X0492
X0565
X0577Y0048
X064Y0123
X0715
X079
X0865
Y0048
X0958
X094Y0123
X1081
X1052Y0048
X1147
X1239
X1315
Y0123
X1391Y0048
X15105Y00676
X1473Y0111
Y0141
X1548Y0144
X1623Y01415
X16225Y00955
X1635577Y0101577
X16225Y00735
X1599Y0096
X1632Y0171
X1623Y0184
Y0221
Y02445
X1598Y0244
X1637Y0272
X16225Y0294
X163Y031
X1704Y0259
X1711Y0181
X1548Y01845
Y0218
Y02615
Y0293
X1473Y0292
X1472922Y0260078
X1473Y0217
Y0184
X1391Y0273
X1315
X1239264Y0272983
X1132054Y0272819
X1104Y0198
X0977
X0958Y0273
X1039
X0884
X0809
X0828Y0198
X0902
X0753
X0677
X0659Y0273
X0735
X0583
X0508
X0527Y0198
X0602
X0455
X0379
X0361Y0273
X0434
X0285
X0209
X0228Y0198
X0303
X0131
Y0273
X0095Y0348
Y046
X0248
Y0348
X0171
X0323
X0396
Y046
X0323
X047
Y0348
X0546
X0622
X0584Y046
X0659
X0734
X0697Y0348
X0772
X0846
X0921
X0922Y046
X081
X0996
X1072
X0997Y0348
X1117
X1239
Y046
X1147
X1315
X1391
Y0348
X1315
X1473Y0334
Y0366
X1548Y0367
Y0337
X15566Y04447
X16196Y04206
X16268Y04132
X1632Y0395
X1637Y0388
X1627Y0379
X1616
Y0388
Y0395
X1647Y0372
X1623Y0335
X17065Y0375
Y04015
X1712Y0407
X1711Y0452
X1704
X1697
X167Y0433
X16455Y04368
X1645455Y0444745
X1636Y046
X1631Y0465
X1619Y0471
X1611
X1603
X1595
X1587
X1579
X16209Y04881
Y04966
X16206Y05047
Y05132
Y05216
Y053
X1697Y0493
X1704
X1711
Y0472
X1704
X1697
X1406Y0506
T03
X03385Y00832
X07325
X14352Y00833
X15292
X16392Y00484
Y01424
Y01984
Y02924
X11073Y02333
X10886Y01583
X09946
X10133Y02333
X0151Y01583
X0057
X10227Y03833
X11167
T04
X0057Y00983
X0151
X03385Y00232
X07325
X09946Y00983
X10886
X14352Y00233
X15292
X16992Y00484
Y01424
Y01984
Y02924
X11073Y01733
X10133
X10227Y03233
X11167
M30
