G04*
G04 #@! TF.GenerationSoftware,Altium Limited,Altium Designer,20.2.6 (244)*
G04*
G04 Layer_Color=16711935*
%FSLAX25Y25*%
%MOIN*%
G70*
G04*
G04 #@! TF.SameCoordinates,527CE9B6-EB0C-4455-B465-9FEE8890F364*
G04*
G04*
G04 #@! TF.FilePolarity,Negative*
G04*
G01*
G75*
%ADD14C,0.19698*%
%ADD15C,0.08280*%
%ADD16C,0.12611*%
%ADD17C,0.16548*%
%ADD18C,0.00800*%
%ADD19C,0.04800*%
%ADD20C,0.05800*%
%ADD39R,0.09461X0.07887*%
%ADD40R,0.05918X0.01981*%
%ADD41R,0.07887X0.04146*%
%ADD42R,0.08280X0.10643*%
%ADD43R,0.08280X0.10642*%
%ADD44R,0.03950X0.04599*%
%ADD45R,0.03800X0.03800*%
%ADD46R,0.03800X0.03800*%
%ADD47R,0.10642X0.08280*%
%ADD48R,0.10643X0.08280*%
%ADD49R,0.04146X0.07887*%
G36*
X1257000Y208253D02*
X1231000D01*
Y220971D01*
X1257000D01*
Y208253D01*
D02*
G37*
G36*
X154999Y17803D02*
X155053Y17793D01*
X155097Y17776D01*
X155135Y17760D01*
X155162Y17738D01*
X155184Y17721D01*
X155195Y17711D01*
X155201Y17705D01*
X155228Y17667D01*
X155250Y17629D01*
X155266Y17585D01*
X155277Y17547D01*
X155282Y17514D01*
X155288Y17487D01*
Y17470D01*
Y17465D01*
X155282Y17416D01*
X155272Y17367D01*
X155261Y17328D01*
X155244Y17290D01*
X155228Y17263D01*
X155211Y17241D01*
X155206Y17230D01*
X155201Y17225D01*
X155162Y17192D01*
X155124Y17170D01*
X155080Y17154D01*
X155037Y17143D01*
X154999Y17137D01*
X154966Y17132D01*
X154938D01*
X154878Y17137D01*
X154824Y17148D01*
X154780Y17159D01*
X154742Y17181D01*
X154715Y17197D01*
X154693Y17208D01*
X154682Y17219D01*
X154676Y17225D01*
X154649Y17263D01*
X154627Y17307D01*
X154611Y17345D01*
X154600Y17383D01*
X154595Y17416D01*
X154589Y17443D01*
Y17459D01*
Y17465D01*
X154595Y17514D01*
X154600Y17563D01*
X154616Y17601D01*
X154633Y17640D01*
X154649Y17667D01*
X154660Y17689D01*
X154671Y17700D01*
X154676Y17705D01*
X154715Y17738D01*
X154753Y17765D01*
X154797Y17782D01*
X154840Y17798D01*
X154878Y17803D01*
X154911Y17809D01*
X154938D01*
X154999Y17803D01*
D02*
G37*
G36*
X49020Y17803D02*
X49075Y17793D01*
X49118Y17776D01*
X49156Y17760D01*
X49184Y17738D01*
X49206Y17721D01*
X49216Y17711D01*
X49222Y17705D01*
X49249Y17667D01*
X49271Y17629D01*
X49288Y17585D01*
X49298Y17547D01*
X49304Y17514D01*
X49309Y17487D01*
Y17470D01*
Y17465D01*
X49304Y17416D01*
X49293Y17367D01*
X49282Y17328D01*
X49266Y17290D01*
X49249Y17263D01*
X49233Y17241D01*
X49227Y17230D01*
X49222Y17225D01*
X49184Y17192D01*
X49145Y17170D01*
X49102Y17154D01*
X49058Y17143D01*
X49020Y17137D01*
X48987Y17132D01*
X48960D01*
X48900Y17137D01*
X48845Y17148D01*
X48802Y17159D01*
X48763Y17181D01*
X48736Y17197D01*
X48714Y17208D01*
X48703Y17219D01*
X48698Y17225D01*
X48671Y17263D01*
X48649Y17307D01*
X48632Y17345D01*
X48621Y17383D01*
X48616Y17416D01*
X48610Y17443D01*
Y17459D01*
Y17465D01*
X48616Y17514D01*
X48621Y17563D01*
X48638Y17601D01*
X48654Y17640D01*
X48671Y17667D01*
X48682Y17689D01*
X48692Y17700D01*
X48698Y17705D01*
X48736Y17738D01*
X48774Y17765D01*
X48818Y17782D01*
X48862Y17798D01*
X48900Y17803D01*
X48933Y17809D01*
X48960D01*
X49020Y17803D01*
D02*
G37*
G36*
X111679Y13086D02*
X111133D01*
X111106Y13479D01*
X111035Y13397D01*
X110958Y13326D01*
X110876Y13266D01*
X110794Y13212D01*
X110713Y13168D01*
X110625Y13135D01*
X110543Y13102D01*
X110461Y13081D01*
X110385Y13059D01*
X110314Y13042D01*
X110254Y13037D01*
X110199Y13026D01*
X110150D01*
X110117Y13021D01*
X110090D01*
X109975Y13026D01*
X109872Y13042D01*
X109768Y13064D01*
X109675Y13097D01*
X109588Y13130D01*
X109511Y13173D01*
X109435Y13217D01*
X109369Y13261D01*
X109309Y13304D01*
X109260Y13348D01*
X109216Y13392D01*
X109178Y13424D01*
X109151Y13457D01*
X109129Y13479D01*
X109118Y13496D01*
X109113Y13501D01*
X109047Y13594D01*
X108993Y13692D01*
X108943Y13796D01*
X108900Y13905D01*
X108867Y14009D01*
X108834Y14112D01*
X108812Y14216D01*
X108791Y14320D01*
X108780Y14413D01*
X108769Y14500D01*
X108758Y14577D01*
X108752Y14642D01*
X108747Y14697D01*
Y14740D01*
Y14762D01*
Y14773D01*
Y14828D01*
X108752Y14981D01*
X108763Y15123D01*
X108780Y15259D01*
X108801Y15385D01*
X108829Y15499D01*
X108862Y15603D01*
X108894Y15701D01*
X108927Y15794D01*
X108960Y15871D01*
X108993Y15936D01*
X109025Y15996D01*
X109053Y16045D01*
X109074Y16083D01*
X109091Y16111D01*
X109102Y16127D01*
X109107Y16133D01*
X109178Y16220D01*
X109255Y16291D01*
X109331Y16356D01*
X109413Y16411D01*
X109495Y16455D01*
X109582Y16499D01*
X109659Y16526D01*
X109741Y16553D01*
X109812Y16575D01*
X109883Y16586D01*
X109943Y16597D01*
X109997Y16608D01*
X110041D01*
X110074Y16613D01*
X110101D01*
X110216Y16608D01*
X110325Y16597D01*
X110423Y16569D01*
X110521Y16542D01*
X110609Y16509D01*
X110685Y16471D01*
X110762Y16433D01*
X110827Y16389D01*
X110887Y16346D01*
X110936Y16307D01*
X110980Y16269D01*
X111018Y16236D01*
X111046Y16209D01*
X111067Y16187D01*
X111078Y16171D01*
X111084Y16165D01*
Y18000D01*
X111679D01*
Y13086D01*
D02*
G37*
G36*
X97625D02*
X97079D01*
X97052Y13479D01*
X96981Y13397D01*
X96904Y13326D01*
X96822Y13266D01*
X96740Y13212D01*
X96658Y13168D01*
X96571Y13135D01*
X96489Y13102D01*
X96407Y13081D01*
X96331Y13059D01*
X96260Y13042D01*
X96200Y13037D01*
X96145Y13026D01*
X96096D01*
X96063Y13021D01*
X96036D01*
X95921Y13026D01*
X95818Y13042D01*
X95714Y13064D01*
X95621Y13097D01*
X95534Y13130D01*
X95457Y13173D01*
X95381Y13217D01*
X95315Y13261D01*
X95255Y13304D01*
X95206Y13348D01*
X95162Y13392D01*
X95124Y13424D01*
X95097Y13457D01*
X95075Y13479D01*
X95064Y13496D01*
X95059Y13501D01*
X94993Y13594D01*
X94939Y13692D01*
X94889Y13796D01*
X94846Y13905D01*
X94813Y14009D01*
X94780Y14112D01*
X94758Y14216D01*
X94736Y14320D01*
X94726Y14413D01*
X94715Y14500D01*
X94704Y14577D01*
X94698Y14642D01*
X94693Y14697D01*
Y14740D01*
Y14762D01*
Y14773D01*
Y14828D01*
X94698Y14981D01*
X94709Y15123D01*
X94726Y15259D01*
X94748Y15385D01*
X94775Y15499D01*
X94807Y15603D01*
X94840Y15701D01*
X94873Y15794D01*
X94906Y15871D01*
X94939Y15936D01*
X94971Y15996D01*
X94999Y16045D01*
X95021Y16083D01*
X95037Y16111D01*
X95048Y16127D01*
X95053Y16133D01*
X95124Y16220D01*
X95201Y16291D01*
X95277Y16356D01*
X95359Y16411D01*
X95441Y16455D01*
X95528Y16499D01*
X95605Y16526D01*
X95687Y16553D01*
X95758Y16575D01*
X95828Y16586D01*
X95889Y16597D01*
X95943Y16608D01*
X95987D01*
X96020Y16613D01*
X96047D01*
X96162Y16608D01*
X96271Y16597D01*
X96369Y16569D01*
X96467Y16542D01*
X96555Y16509D01*
X96631Y16471D01*
X96708Y16433D01*
X96773Y16389D01*
X96833Y16346D01*
X96882Y16307D01*
X96926Y16269D01*
X96964Y16236D01*
X96991Y16209D01*
X97013Y16187D01*
X97024Y16171D01*
X97030Y16165D01*
Y18000D01*
X97625D01*
Y13086D01*
D02*
G37*
G36*
X152591Y16608D02*
X152694Y16591D01*
X152798Y16569D01*
X152891Y16537D01*
X152978Y16504D01*
X153060Y16460D01*
X153137Y16417D01*
X153202Y16373D01*
X153262Y16329D01*
X153317Y16286D01*
X153366Y16242D01*
X153399Y16209D01*
X153431Y16176D01*
X153453Y16154D01*
X153464Y16138D01*
X153470Y16133D01*
X153535Y16040D01*
X153590Y15942D01*
X153639Y15838D01*
X153683Y15729D01*
X153721Y15619D01*
X153748Y15516D01*
X153776Y15406D01*
X153792Y15308D01*
X153808Y15215D01*
X153819Y15128D01*
X153830Y15046D01*
X153836Y14981D01*
X153841Y14921D01*
Y14882D01*
Y14855D01*
Y14844D01*
X153836Y14691D01*
X153825Y14544D01*
X153808Y14407D01*
X153781Y14276D01*
X153754Y14162D01*
X153721Y14047D01*
X153688Y13949D01*
X153655Y13856D01*
X153623Y13779D01*
X153584Y13708D01*
X153557Y13648D01*
X153530Y13599D01*
X153503Y13556D01*
X153486Y13528D01*
X153475Y13512D01*
X153470Y13506D01*
X153399Y13419D01*
X153317Y13348D01*
X153241Y13283D01*
X153158Y13228D01*
X153071Y13179D01*
X152989Y13141D01*
X152913Y13108D01*
X152836Y13081D01*
X152760Y13059D01*
X152694Y13048D01*
X152634Y13037D01*
X152585Y13026D01*
X152542D01*
X152509Y13021D01*
X152481D01*
X152372Y13026D01*
X152263Y13037D01*
X152165Y13059D01*
X152072Y13086D01*
X151985Y13113D01*
X151908Y13151D01*
X151832Y13190D01*
X151766Y13228D01*
X151712Y13266D01*
X151657Y13299D01*
X151613Y13337D01*
X151581Y13364D01*
X151553Y13392D01*
X151532Y13414D01*
X151521Y13424D01*
X151515Y13430D01*
Y13130D01*
Y13048D01*
X151526Y12977D01*
X151553Y12840D01*
X151592Y12720D01*
X151635Y12627D01*
X151679Y12546D01*
X151717Y12491D01*
X151734Y12474D01*
X151744Y12458D01*
X151750Y12453D01*
X151755Y12447D01*
X151804Y12404D01*
X151854Y12365D01*
X151963Y12305D01*
X152072Y12262D01*
X152181Y12234D01*
X152279Y12212D01*
X152318Y12207D01*
X152356D01*
X152383Y12201D01*
X152427D01*
X152531Y12207D01*
X152623Y12223D01*
X152716Y12245D01*
X152804Y12278D01*
X152885Y12311D01*
X152962Y12354D01*
X153033Y12393D01*
X153098Y12442D01*
X153158Y12485D01*
X153208Y12529D01*
X153257Y12567D01*
X153290Y12600D01*
X153322Y12633D01*
X153344Y12655D01*
X153355Y12671D01*
X153361Y12676D01*
X153666Y12322D01*
X153590Y12223D01*
X153503Y12136D01*
X153410Y12060D01*
X153322Y11999D01*
X153246Y11950D01*
X153180Y11912D01*
X153153Y11901D01*
X153137Y11890D01*
X153126Y11885D01*
X153120D01*
X152984Y11830D01*
X152853Y11792D01*
X152733Y11759D01*
X152618Y11743D01*
X152525Y11732D01*
X152487Y11727D01*
X152454D01*
X152427Y11721D01*
X152389D01*
X152263Y11727D01*
X152148Y11737D01*
X152039Y11759D01*
X151936Y11781D01*
X151843Y11808D01*
X151755Y11841D01*
X151673Y11879D01*
X151602Y11918D01*
X151537Y11950D01*
X151482Y11988D01*
X151433Y12021D01*
X151390Y12049D01*
X151362Y12070D01*
X151335Y12092D01*
X151324Y12103D01*
X151319Y12109D01*
X151248Y12185D01*
X151188Y12267D01*
X151133Y12349D01*
X151089Y12436D01*
X151051Y12524D01*
X151018Y12611D01*
X150991Y12698D01*
X150969Y12780D01*
X150953Y12857D01*
X150942Y12933D01*
X150931Y12999D01*
X150925Y13053D01*
X150920Y13097D01*
Y13135D01*
Y13157D01*
Y13162D01*
Y16548D01*
X151461D01*
X151488Y16160D01*
X151559Y16242D01*
X151630Y16307D01*
X151712Y16373D01*
X151794Y16422D01*
X151875Y16466D01*
X151957Y16504D01*
X152039Y16531D01*
X152116Y16559D01*
X152187Y16575D01*
X152258Y16591D01*
X152318Y16597D01*
X152372Y16608D01*
X152416D01*
X152449Y16613D01*
X152476D01*
X152591Y16608D01*
D02*
G37*
G36*
X29528Y16608D02*
X29632Y16591D01*
X29735Y16569D01*
X29828Y16537D01*
X29915Y16504D01*
X29997Y16460D01*
X30074Y16417D01*
X30139Y16373D01*
X30199Y16329D01*
X30254Y16285D01*
X30303Y16242D01*
X30336Y16209D01*
X30369Y16176D01*
X30390Y16154D01*
X30401Y16138D01*
X30407Y16133D01*
X30472Y16040D01*
X30527Y15942D01*
X30576Y15838D01*
X30620Y15729D01*
X30658Y15619D01*
X30685Y15516D01*
X30713Y15406D01*
X30729Y15308D01*
X30745Y15215D01*
X30756Y15128D01*
X30767Y15046D01*
X30773Y14981D01*
X30778Y14920D01*
Y14882D01*
Y14855D01*
Y14844D01*
X30773Y14691D01*
X30762Y14544D01*
X30745Y14407D01*
X30718Y14276D01*
X30691Y14162D01*
X30658Y14047D01*
X30625Y13949D01*
X30593Y13856D01*
X30560Y13779D01*
X30522Y13708D01*
X30494Y13648D01*
X30467Y13599D01*
X30440Y13555D01*
X30423Y13528D01*
X30412Y13512D01*
X30407Y13506D01*
X30336Y13419D01*
X30254Y13348D01*
X30178Y13283D01*
X30096Y13228D01*
X30008Y13179D01*
X29926Y13141D01*
X29850Y13108D01*
X29774Y13081D01*
X29697Y13059D01*
X29632Y13048D01*
X29571Y13037D01*
X29522Y13026D01*
X29479D01*
X29446Y13021D01*
X29419D01*
X29309Y13026D01*
X29200Y13037D01*
X29102Y13059D01*
X29009Y13086D01*
X28922Y13113D01*
X28845Y13151D01*
X28769Y13190D01*
X28703Y13228D01*
X28649Y13266D01*
X28594Y13299D01*
X28550Y13337D01*
X28518Y13364D01*
X28490Y13392D01*
X28468Y13414D01*
X28458Y13424D01*
X28452Y13430D01*
Y13130D01*
Y13048D01*
X28463Y12977D01*
X28490Y12840D01*
X28529Y12720D01*
X28572Y12627D01*
X28616Y12545D01*
X28654Y12491D01*
X28670Y12474D01*
X28681Y12458D01*
X28687Y12453D01*
X28692Y12447D01*
X28741Y12404D01*
X28791Y12365D01*
X28900Y12305D01*
X29009Y12262D01*
X29118Y12234D01*
X29217Y12212D01*
X29255Y12207D01*
X29293D01*
X29320Y12201D01*
X29364D01*
X29468Y12207D01*
X29561Y12223D01*
X29653Y12245D01*
X29741Y12278D01*
X29823Y12311D01*
X29899Y12354D01*
X29970Y12393D01*
X30036Y12442D01*
X30096Y12485D01*
X30145Y12529D01*
X30194Y12567D01*
X30227Y12600D01*
X30259Y12633D01*
X30281Y12655D01*
X30292Y12671D01*
X30298Y12676D01*
X30603Y12322D01*
X30527Y12223D01*
X30440Y12136D01*
X30347Y12060D01*
X30259Y11999D01*
X30183Y11950D01*
X30117Y11912D01*
X30090Y11901D01*
X30074Y11890D01*
X30063Y11885D01*
X30057D01*
X29921Y11830D01*
X29790Y11792D01*
X29670Y11759D01*
X29555Y11743D01*
X29462Y11732D01*
X29424Y11726D01*
X29391D01*
X29364Y11721D01*
X29326D01*
X29200Y11726D01*
X29085Y11737D01*
X28976Y11759D01*
X28873Y11781D01*
X28780Y11808D01*
X28692Y11841D01*
X28611Y11879D01*
X28539Y11918D01*
X28474Y11950D01*
X28419Y11988D01*
X28370Y12021D01*
X28327Y12049D01*
X28299Y12070D01*
X28272Y12092D01*
X28261Y12103D01*
X28256Y12109D01*
X28185Y12185D01*
X28124Y12267D01*
X28070Y12349D01*
X28026Y12436D01*
X27988Y12524D01*
X27955Y12611D01*
X27928Y12698D01*
X27906Y12780D01*
X27890Y12857D01*
X27879Y12933D01*
X27868Y12999D01*
X27863Y13053D01*
X27857Y13097D01*
Y13135D01*
Y13157D01*
Y13162D01*
Y16548D01*
X28398D01*
X28425Y16160D01*
X28496Y16242D01*
X28567Y16307D01*
X28649Y16373D01*
X28731Y16422D01*
X28813Y16466D01*
X28894Y16504D01*
X28976Y16531D01*
X29053Y16558D01*
X29124Y16575D01*
X29195Y16591D01*
X29255Y16597D01*
X29309Y16608D01*
X29353D01*
X29386Y16613D01*
X29413D01*
X29528Y16608D01*
D02*
G37*
G36*
X23713Y13086D02*
X23123Y13086D01*
Y15554D01*
X23074Y15641D01*
X23020Y15718D01*
X22965Y15789D01*
X22910Y15843D01*
X22861Y15892D01*
X22823Y15925D01*
X22796Y15947D01*
X22785Y15953D01*
X22697Y16007D01*
X22615Y16045D01*
X22528Y16073D01*
X22446Y16089D01*
X22381Y16105D01*
X22326Y16111D01*
X22277D01*
X22151Y16105D01*
X22048Y16083D01*
X21955Y16056D01*
X21884Y16023D01*
X21829Y15985D01*
X21791Y15958D01*
X21764Y15936D01*
X21758Y15931D01*
X21704Y15854D01*
X21660Y15767D01*
X21627Y15674D01*
X21605Y15587D01*
X21594Y15505D01*
X21589Y15466D01*
Y15434D01*
X21584Y15412D01*
Y15390D01*
Y15379D01*
Y15374D01*
Y13086D01*
X20994D01*
Y15374D01*
X20999Y15488D01*
X21010Y15592D01*
X21021Y15690D01*
X21043Y15783D01*
X21070Y15871D01*
X21098Y15947D01*
X21136Y16023D01*
X21174Y16089D01*
X21256Y16209D01*
X21349Y16313D01*
X21447Y16395D01*
X21551Y16460D01*
X21654Y16509D01*
X21753Y16548D01*
X21846Y16575D01*
X21933Y16591D01*
X21998Y16608D01*
X22053Y16613D01*
X22102D01*
X22217Y16608D01*
X22326Y16591D01*
X22430Y16569D01*
X22528Y16537D01*
X22615Y16499D01*
X22703Y16460D01*
X22779Y16417D01*
X22850Y16373D01*
X22910Y16324D01*
X22965Y16280D01*
X23014Y16242D01*
X23052Y16204D01*
X23085Y16171D01*
X23107Y16149D01*
X23118Y16133D01*
X23123Y16127D01*
Y18000D01*
X23713Y18000D01*
Y13086D01*
D02*
G37*
G36*
X115938Y16608D02*
X116047Y16591D01*
X116156Y16569D01*
X116254Y16542D01*
X116342Y16509D01*
X116429Y16471D01*
X116506Y16428D01*
X116577Y16389D01*
X116637Y16346D01*
X116691Y16302D01*
X116735Y16264D01*
X116773Y16231D01*
X116806Y16204D01*
X116828Y16182D01*
X116839Y16165D01*
X116844Y16160D01*
X116860Y16548D01*
X117423D01*
Y13086D01*
X116833D01*
Y15614D01*
X116789Y15701D01*
X116735Y15778D01*
X116680Y15843D01*
X116615Y15903D01*
X116549Y15947D01*
X116484Y15991D01*
X116418Y16024D01*
X116353Y16051D01*
X116287Y16067D01*
X116233Y16083D01*
X116178Y16094D01*
X116129Y16105D01*
X116091D01*
X116063Y16111D01*
X116036D01*
X115905Y16100D01*
X115790Y16078D01*
X115692Y16040D01*
X115605Y15991D01*
X115534Y15936D01*
X115474Y15871D01*
X115425Y15800D01*
X115386Y15734D01*
X115354Y15663D01*
X115332Y15592D01*
X115315Y15527D01*
X115304Y15472D01*
X115299Y15423D01*
X115294Y15385D01*
Y15363D01*
Y15352D01*
Y13086D01*
X114698D01*
Y15379D01*
X114676Y15499D01*
X114644Y15603D01*
X114605Y15696D01*
X114562Y15767D01*
X114518Y15827D01*
X114480Y15871D01*
X114458Y15898D01*
X114447Y15909D01*
X114360Y15974D01*
X114267Y16024D01*
X114180Y16062D01*
X114092Y16083D01*
X114016Y16100D01*
X113956Y16105D01*
X113934Y16111D01*
X113901D01*
X113765Y16105D01*
X113645Y16083D01*
X113546Y16051D01*
X113470Y16018D01*
X113410Y15985D01*
X113366Y15953D01*
X113339Y15931D01*
X113333Y15925D01*
X113273Y15849D01*
X113230Y15761D01*
X113202Y15669D01*
X113180Y15576D01*
X113170Y15494D01*
X113159Y15428D01*
Y15406D01*
Y15385D01*
Y15374D01*
Y15368D01*
Y13086D01*
X112569D01*
Y15406D01*
X112574Y15516D01*
X112585Y15619D01*
X112602Y15718D01*
X112624Y15805D01*
X112651Y15887D01*
X112684Y15963D01*
X112722Y16040D01*
X112760Y16105D01*
X112847Y16220D01*
X112946Y16318D01*
X113049Y16400D01*
X113153Y16460D01*
X113262Y16515D01*
X113366Y16548D01*
X113464Y16575D01*
X113546Y16597D01*
X113623Y16608D01*
X113677Y16613D01*
X113726D01*
X113863Y16608D01*
X113988Y16591D01*
X114098Y16564D01*
X114196Y16537D01*
X114272Y16504D01*
X114305Y16493D01*
X114332Y16482D01*
X114354Y16471D01*
X114371Y16460D01*
X114376Y16455D01*
X114382D01*
X114480Y16395D01*
X114567Y16329D01*
X114644Y16264D01*
X114709Y16198D01*
X114758Y16144D01*
X114797Y16100D01*
X114824Y16067D01*
X114829Y16062D01*
Y16056D01*
X114884Y16154D01*
X114950Y16242D01*
X115015Y16313D01*
X115091Y16378D01*
X115173Y16433D01*
X115255Y16477D01*
X115343Y16515D01*
X115419Y16542D01*
X115501Y16564D01*
X115572Y16586D01*
X115643Y16597D01*
X115698Y16602D01*
X115747Y16608D01*
X115785Y16613D01*
X115818D01*
X115938Y16608D01*
D02*
G37*
G36*
X42391Y13086D02*
X41780D01*
Y15237D01*
X39432D01*
Y13086D01*
X38815D01*
Y17743D01*
X39432D01*
Y15740D01*
X41780D01*
Y17743D01*
X42391D01*
Y13086D01*
D02*
G37*
G36*
X36609Y16608D02*
X36740Y16591D01*
X36855Y16569D01*
X36959Y16542D01*
X37046Y16515D01*
X37079Y16504D01*
X37112Y16493D01*
X37134Y16482D01*
X37150Y16477D01*
X37161Y16471D01*
X37166D01*
X37275Y16417D01*
X37374Y16351D01*
X37461Y16285D01*
X37532Y16226D01*
X37587Y16171D01*
X37630Y16122D01*
X37652Y16094D01*
X37663Y16089D01*
Y16083D01*
X37723Y15991D01*
X37772Y15903D01*
X37805Y15821D01*
X37827Y15745D01*
X37838Y15679D01*
X37843Y15630D01*
X37849Y15598D01*
Y15592D01*
Y15587D01*
X37254D01*
X37243Y15669D01*
X37221Y15740D01*
X37188Y15811D01*
X37145Y15865D01*
X37106Y15909D01*
X37073Y15947D01*
X37052Y15969D01*
X37041Y15974D01*
X36953Y16029D01*
X36866Y16067D01*
X36773Y16100D01*
X36691Y16116D01*
X36615Y16127D01*
X36560Y16138D01*
X36506D01*
X36380Y16133D01*
X36265Y16111D01*
X36173Y16078D01*
X36096Y16045D01*
X36036Y16013D01*
X35992Y15980D01*
X35971Y15958D01*
X35960Y15953D01*
X35900Y15876D01*
X35851Y15794D01*
X35818Y15712D01*
X35796Y15636D01*
X35785Y15565D01*
X35774Y15505D01*
Y15488D01*
Y15472D01*
Y15461D01*
Y15456D01*
Y15183D01*
X36347D01*
X36484Y15177D01*
X36609Y15172D01*
X36729Y15155D01*
X36844Y15134D01*
X36948Y15112D01*
X37041Y15090D01*
X37128Y15063D01*
X37205Y15035D01*
X37275Y15002D01*
X37336Y14975D01*
X37385Y14953D01*
X37428Y14931D01*
X37461Y14910D01*
X37483Y14893D01*
X37499Y14888D01*
X37505Y14882D01*
X37576Y14822D01*
X37641Y14762D01*
X37696Y14691D01*
X37740Y14626D01*
X37783Y14555D01*
X37816Y14484D01*
X37843Y14418D01*
X37865Y14347D01*
X37882Y14287D01*
X37892Y14227D01*
X37903Y14178D01*
X37909Y14129D01*
Y14096D01*
X37914Y14063D01*
Y14047D01*
Y14041D01*
X37909Y13960D01*
X37898Y13883D01*
X37882Y13812D01*
X37865Y13741D01*
X37811Y13616D01*
X37751Y13512D01*
X37718Y13463D01*
X37690Y13424D01*
X37663Y13392D01*
X37636Y13364D01*
X37620Y13337D01*
X37603Y13321D01*
X37592Y13315D01*
X37587Y13310D01*
X37521Y13261D01*
X37456Y13217D01*
X37390Y13173D01*
X37319Y13141D01*
X37177Y13091D01*
X37046Y13059D01*
X36986Y13042D01*
X36931Y13037D01*
X36877Y13031D01*
X36833Y13026D01*
X36801Y13021D01*
X36751D01*
X36648Y13026D01*
X36544Y13037D01*
X36446Y13059D01*
X36353Y13086D01*
X36265Y13119D01*
X36189Y13157D01*
X36112Y13195D01*
X36042Y13233D01*
X35982Y13272D01*
X35927Y13310D01*
X35878Y13348D01*
X35834Y13381D01*
X35807Y13408D01*
X35780Y13430D01*
X35768Y13441D01*
X35763Y13446D01*
X35752Y13353D01*
X35736Y13277D01*
X35725Y13217D01*
X35708Y13168D01*
X35698Y13130D01*
X35687Y13108D01*
X35681Y13091D01*
Y13086D01*
X35059D01*
Y13135D01*
X35102Y13250D01*
X35130Y13370D01*
X35152Y13496D01*
X35168Y13621D01*
X35179Y13725D01*
Y13774D01*
X35184Y13812D01*
Y13850D01*
Y13872D01*
Y13889D01*
Y13894D01*
Y15488D01*
X35190Y15587D01*
X35201Y15674D01*
X35223Y15761D01*
X35244Y15838D01*
X35272Y15914D01*
X35299Y15980D01*
X35332Y16040D01*
X35364Y16100D01*
X35397Y16149D01*
X35425Y16193D01*
X35457Y16226D01*
X35479Y16258D01*
X35501Y16280D01*
X35517Y16296D01*
X35528Y16307D01*
X35534Y16313D01*
X35599Y16367D01*
X35670Y16411D01*
X35747Y16455D01*
X35823Y16488D01*
X35982Y16542D01*
X36129Y16575D01*
X36200Y16586D01*
X36265Y16597D01*
X36325Y16602D01*
X36375Y16608D01*
X36413Y16613D01*
X36473D01*
X36609Y16608D01*
D02*
G37*
G36*
X136298Y17803D02*
X136391Y17798D01*
X136478Y17782D01*
X136560Y17760D01*
X136637Y17738D01*
X136708Y17711D01*
X136773Y17683D01*
X136833Y17656D01*
X136882Y17629D01*
X136926Y17601D01*
X136964Y17574D01*
X136997Y17552D01*
X137024Y17530D01*
X137041Y17514D01*
X137051Y17509D01*
X137057Y17503D01*
X137112Y17443D01*
X137161Y17383D01*
X137199Y17318D01*
X137237Y17246D01*
X137265Y17176D01*
X137292Y17110D01*
X137330Y16973D01*
X137341Y16914D01*
X137352Y16859D01*
X137357Y16804D01*
X137363Y16761D01*
X137368Y16722D01*
Y16695D01*
Y16679D01*
Y16673D01*
X137363Y16586D01*
X137352Y16504D01*
X137336Y16428D01*
X137314Y16356D01*
X137297Y16302D01*
X137281Y16253D01*
X137270Y16226D01*
X137265Y16215D01*
X137215Y16122D01*
X137150Y16024D01*
X137084Y15920D01*
X137013Y15827D01*
X136948Y15740D01*
X136920Y15701D01*
X136893Y15669D01*
X136871Y15647D01*
X136855Y15625D01*
X136849Y15614D01*
X136844Y15608D01*
X136937Y15538D01*
X137024Y15472D01*
X137106Y15406D01*
X137177Y15346D01*
X137243Y15286D01*
X137303Y15232D01*
X137357Y15183D01*
X137401Y15139D01*
X137439Y15095D01*
X137472Y15057D01*
X137499Y15024D01*
X137521Y14997D01*
X137538Y14975D01*
X137548Y14959D01*
X137559Y14953D01*
Y14948D01*
X137619Y14844D01*
X137669Y14735D01*
X137701Y14631D01*
X137723Y14533D01*
X137734Y14451D01*
X137740Y14418D01*
Y14391D01*
X137745Y14364D01*
Y14347D01*
Y14336D01*
Y14331D01*
X137740Y14222D01*
X137729Y14123D01*
X137707Y14025D01*
X137679Y13932D01*
X137652Y13850D01*
X137614Y13774D01*
X137576Y13698D01*
X137538Y13637D01*
X137499Y13577D01*
X137467Y13528D01*
X137428Y13485D01*
X137401Y13446D01*
X137374Y13419D01*
X137352Y13397D01*
X137341Y13386D01*
X137336Y13381D01*
X137254Y13315D01*
X137172Y13261D01*
X137079Y13212D01*
X136986Y13173D01*
X136899Y13135D01*
X136806Y13108D01*
X136631Y13064D01*
X136549Y13053D01*
X136478Y13042D01*
X136407Y13031D01*
X136353Y13026D01*
X136303Y13021D01*
X136238D01*
X136118Y13026D01*
X135998Y13037D01*
X135889Y13053D01*
X135790Y13075D01*
X135708Y13097D01*
X135676Y13102D01*
X135648Y13113D01*
X135626Y13119D01*
X135610Y13124D01*
X135599Y13130D01*
X135594D01*
X135479Y13173D01*
X135370Y13228D01*
X135277Y13277D01*
X135195Y13332D01*
X135130Y13381D01*
X135081Y13419D01*
X135048Y13441D01*
X135037Y13452D01*
X134726Y13086D01*
X134016D01*
X134682Y13878D01*
X134611Y13981D01*
X134551Y14091D01*
X134502Y14205D01*
X134453Y14320D01*
X134414Y14429D01*
X134387Y14544D01*
X134360Y14653D01*
X134338Y14757D01*
X134322Y14855D01*
X134311Y14948D01*
X134300Y15024D01*
X134294Y15095D01*
X134289Y15155D01*
Y15193D01*
Y15221D01*
Y15232D01*
X134824D01*
X134835Y15046D01*
X134857Y14871D01*
X134895Y14718D01*
X134911Y14648D01*
X134933Y14582D01*
X134955Y14522D01*
X134971Y14467D01*
X134993Y14418D01*
X135010Y14380D01*
X135020Y14353D01*
X135031Y14325D01*
X135042Y14314D01*
Y14309D01*
X136074Y15548D01*
X135736Y15800D01*
X135610Y15898D01*
X135506Y15991D01*
X135424Y16073D01*
X135354Y16149D01*
X135304Y16209D01*
X135266Y16258D01*
X135244Y16286D01*
X135239Y16296D01*
X135190Y16389D01*
X135157Y16482D01*
X135130Y16569D01*
X135113Y16651D01*
X135102Y16717D01*
X135097Y16771D01*
Y16793D01*
Y16810D01*
Y16815D01*
Y16821D01*
X135102Y16897D01*
X135108Y16973D01*
X135124Y17044D01*
X135146Y17110D01*
X135195Y17230D01*
X135250Y17334D01*
X135310Y17416D01*
X135337Y17448D01*
X135359Y17476D01*
X135381Y17498D01*
X135397Y17514D01*
X135403Y17519D01*
X135408Y17525D01*
X135468Y17574D01*
X135534Y17618D01*
X135599Y17656D01*
X135665Y17689D01*
X135796Y17738D01*
X135921Y17776D01*
X135976Y17787D01*
X136030Y17793D01*
X136080Y17798D01*
X136118Y17803D01*
X136151Y17809D01*
X136200D01*
X136298Y17803D01*
D02*
G37*
G36*
X79028Y13086D02*
X78411D01*
Y16673D01*
X76063Y13086D01*
X75446D01*
Y17743D01*
X76058D01*
Y14134D01*
X78411Y17743D01*
X79028D01*
Y13086D01*
D02*
G37*
G36*
X93088Y13124D02*
X93219Y12775D01*
X93262Y12666D01*
X93306Y12567D01*
X93355Y12491D01*
X93399Y12431D01*
X93437Y12387D01*
X93470Y12354D01*
X93492Y12338D01*
X93497Y12332D01*
X93568Y12289D01*
X93639Y12262D01*
X93721Y12240D01*
X93797Y12223D01*
X93863Y12212D01*
X93918Y12207D01*
X93967D01*
X94125Y12223D01*
Y11743D01*
X93907Y11699D01*
X93792Y11688D01*
X93666Y11699D01*
X93546Y11726D01*
X93437Y11770D01*
X93333Y11825D01*
X93240Y11890D01*
X93159Y11961D01*
X93082Y12043D01*
X93017Y12125D01*
X92957Y12201D01*
X92902Y12283D01*
X92864Y12354D01*
X92826Y12420D01*
X92798Y12474D01*
X92782Y12518D01*
X92771Y12545D01*
X92765Y12556D01*
X91373Y16548D01*
X92007D01*
X92815Y13949D01*
X93677Y16548D01*
X94322D01*
X93088Y13124D01*
D02*
G37*
G36*
X68823Y13086D02*
X68212D01*
Y14899D01*
X68272Y16842D01*
X66749Y13086D01*
X66274D01*
X64745Y16853D01*
X64805Y14899D01*
Y13086D01*
X64188D01*
Y17743D01*
X64985D01*
X66508Y13943D01*
X68032Y17743D01*
X68823D01*
Y13086D01*
D02*
G37*
G36*
X88348Y13086D02*
X87791D01*
X86798Y16477D01*
X86721Y16831D01*
X86650Y16477D01*
X85689Y13086D01*
X85127D01*
X84002Y17743D01*
X84619D01*
X85340Y14555D01*
X85438Y13927D01*
X85569Y14489D01*
X86465Y17743D01*
X86983D01*
X87906Y14489D01*
X88037Y13938D01*
X88125Y14549D01*
X88862Y17743D01*
X89479D01*
X88348Y13086D01*
D02*
G37*
G36*
X16386Y14293D02*
X16380Y14178D01*
X16369Y14069D01*
X16358Y13971D01*
X16336Y13878D01*
X16315Y13790D01*
X16287Y13714D01*
X16265Y13643D01*
X16238Y13577D01*
X16211Y13523D01*
X16183Y13474D01*
X16156Y13430D01*
X16134Y13397D01*
X16118Y13370D01*
X16102Y13353D01*
X16096Y13343D01*
X16091Y13337D01*
X16036Y13283D01*
X15971Y13233D01*
X15905Y13190D01*
X15840Y13157D01*
X15769Y13124D01*
X15698Y13097D01*
X15561Y13059D01*
X15496Y13048D01*
X15441Y13037D01*
X15386Y13031D01*
X15343Y13026D01*
X15304Y13020D01*
X15250D01*
X15130Y13026D01*
X15015Y13037D01*
X14906Y13059D01*
X14808Y13086D01*
X14715Y13113D01*
X14633Y13146D01*
X14557Y13184D01*
X14491Y13223D01*
X14431Y13261D01*
X14376Y13299D01*
X14333Y13332D01*
X14300Y13359D01*
X14273Y13386D01*
X14251Y13408D01*
X14240Y13419D01*
X14234Y13424D01*
X14218Y13086D01*
X13656D01*
Y16548D01*
X14251D01*
Y14025D01*
X14300Y13938D01*
X14354Y13861D01*
X14414Y13790D01*
X14485Y13736D01*
X14557Y13687D01*
X14633Y13643D01*
X14709Y13610D01*
X14786Y13588D01*
X14857Y13566D01*
X14928Y13550D01*
X14988Y13539D01*
X15042Y13528D01*
X15086D01*
X15124Y13523D01*
X15152D01*
X15266Y13534D01*
X15364Y13555D01*
X15446Y13594D01*
X15523Y13648D01*
X15583Y13703D01*
X15632Y13774D01*
X15676Y13845D01*
X15709Y13916D01*
X15736Y13987D01*
X15758Y14058D01*
X15769Y14129D01*
X15779Y14189D01*
X15785Y14238D01*
X15790Y14276D01*
Y14298D01*
Y14309D01*
Y16548D01*
X16386D01*
Y14293D01*
D02*
G37*
G36*
X160934Y16602D02*
X161070Y16575D01*
X161201Y16542D01*
X161316Y16499D01*
X161365Y16477D01*
X161409Y16455D01*
X161452Y16438D01*
X161485Y16422D01*
X161507Y16406D01*
X161529Y16395D01*
X161540Y16389D01*
X161545Y16384D01*
X161671Y16291D01*
X161780Y16187D01*
X161873Y16083D01*
X161955Y15980D01*
X162015Y15887D01*
X162042Y15849D01*
X162058Y15811D01*
X162075Y15783D01*
X162086Y15761D01*
X162097Y15751D01*
Y15745D01*
X162162Y15592D01*
X162211Y15434D01*
X162244Y15276D01*
X162266Y15134D01*
X162277Y15068D01*
X162282Y15013D01*
X162288Y14959D01*
Y14915D01*
X162293Y14877D01*
Y14850D01*
Y14833D01*
Y14828D01*
Y14718D01*
X162288Y14577D01*
X162271Y14446D01*
X162250Y14314D01*
X162222Y14200D01*
X162189Y14085D01*
X162151Y13987D01*
X162113Y13894D01*
X162069Y13807D01*
X162031Y13730D01*
X161993Y13665D01*
X161955Y13610D01*
X161922Y13566D01*
X161889Y13528D01*
X161867Y13501D01*
X161856Y13485D01*
X161851Y13479D01*
X161764Y13397D01*
X161676Y13326D01*
X161583Y13266D01*
X161485Y13212D01*
X161387Y13168D01*
X161294Y13135D01*
X161201Y13102D01*
X161114Y13081D01*
X161026Y13059D01*
X160950Y13042D01*
X160879Y13037D01*
X160819Y13026D01*
X160770D01*
X160737Y13021D01*
X160704D01*
X160546Y13026D01*
X160398Y13048D01*
X160262Y13081D01*
X160136Y13124D01*
X160016Y13173D01*
X159907Y13233D01*
X159814Y13294D01*
X159727Y13353D01*
X159651Y13414D01*
X159585Y13474D01*
X159525Y13534D01*
X159481Y13583D01*
X159443Y13626D01*
X159421Y13659D01*
X159405Y13681D01*
X159399Y13687D01*
X159760Y13971D01*
X159825Y13894D01*
X159891Y13829D01*
X159951Y13769D01*
X160011Y13719D01*
X160065Y13681D01*
X160104Y13648D01*
X160131Y13632D01*
X160142Y13626D01*
X160229Y13583D01*
X160317Y13556D01*
X160404Y13534D01*
X160486Y13517D01*
X160562Y13506D01*
X160617Y13501D01*
X160671D01*
X160753Y13506D01*
X160830Y13512D01*
X160901Y13528D01*
X160972Y13550D01*
X161097Y13599D01*
X161201Y13659D01*
X161250Y13687D01*
X161288Y13714D01*
X161321Y13741D01*
X161349Y13763D01*
X161376Y13785D01*
X161392Y13801D01*
X161398Y13807D01*
X161403Y13812D01*
X161452Y13872D01*
X161496Y13938D01*
X161534Y14009D01*
X161567Y14074D01*
X161622Y14216D01*
X161654Y14347D01*
X161671Y14413D01*
X161682Y14467D01*
X161687Y14516D01*
X161693Y14560D01*
Y14598D01*
X161698Y14626D01*
Y14642D01*
Y14648D01*
X159356D01*
Y14893D01*
X159361Y15046D01*
X159372Y15188D01*
X159388Y15319D01*
X159416Y15445D01*
X159443Y15554D01*
X159476Y15663D01*
X159509Y15756D01*
X159541Y15843D01*
X159580Y15914D01*
X159612Y15980D01*
X159645Y16040D01*
X159672Y16083D01*
X159700Y16122D01*
X159716Y16144D01*
X159727Y16160D01*
X159732Y16165D01*
X159803Y16242D01*
X159885Y16313D01*
X159967Y16373D01*
X160055Y16422D01*
X160142Y16466D01*
X160229Y16504D01*
X160311Y16531D01*
X160393Y16559D01*
X160475Y16575D01*
X160546Y16591D01*
X160611Y16602D01*
X160671Y16608D01*
X160715D01*
X160753Y16613D01*
X160781D01*
X160934Y16602D01*
D02*
G37*
G36*
X145203D02*
X145340Y16575D01*
X145471Y16542D01*
X145586Y16499D01*
X145635Y16477D01*
X145678Y16455D01*
X145722Y16438D01*
X145755Y16422D01*
X145777Y16406D01*
X145799Y16395D01*
X145809Y16389D01*
X145815Y16384D01*
X145940Y16291D01*
X146050Y16187D01*
X146142Y16083D01*
X146224Y15980D01*
X146284Y15887D01*
X146312Y15849D01*
X146328Y15811D01*
X146344Y15783D01*
X146355Y15761D01*
X146366Y15751D01*
Y15745D01*
X146432Y15592D01*
X146481Y15434D01*
X146514Y15276D01*
X146536Y15134D01*
X146546Y15068D01*
X146552Y15013D01*
X146557Y14959D01*
Y14915D01*
X146563Y14877D01*
Y14850D01*
Y14833D01*
Y14828D01*
Y14718D01*
X146557Y14577D01*
X146541Y14446D01*
X146519Y14314D01*
X146492Y14200D01*
X146459Y14085D01*
X146421Y13987D01*
X146383Y13894D01*
X146339Y13807D01*
X146301Y13730D01*
X146263Y13665D01*
X146224Y13610D01*
X146192Y13566D01*
X146159Y13528D01*
X146137Y13501D01*
X146126Y13485D01*
X146121Y13479D01*
X146033Y13397D01*
X145946Y13326D01*
X145853Y13266D01*
X145755Y13212D01*
X145657Y13168D01*
X145564Y13135D01*
X145471Y13102D01*
X145384Y13081D01*
X145296Y13059D01*
X145220Y13042D01*
X145149Y13037D01*
X145089Y13026D01*
X145039D01*
X145007Y13021D01*
X144974D01*
X144816Y13026D01*
X144668Y13048D01*
X144532Y13081D01*
X144406Y13124D01*
X144286Y13173D01*
X144177Y13233D01*
X144084Y13294D01*
X143997Y13353D01*
X143920Y13414D01*
X143855Y13474D01*
X143795Y13534D01*
X143751Y13583D01*
X143713Y13626D01*
X143691Y13659D01*
X143675Y13681D01*
X143669Y13687D01*
X144029Y13971D01*
X144095Y13894D01*
X144160Y13829D01*
X144220Y13769D01*
X144281Y13719D01*
X144335Y13681D01*
X144373Y13648D01*
X144401Y13632D01*
X144412Y13626D01*
X144499Y13583D01*
X144586Y13556D01*
X144674Y13534D01*
X144756Y13517D01*
X144832Y13506D01*
X144887Y13501D01*
X144941D01*
X145023Y13506D01*
X145100Y13512D01*
X145171Y13528D01*
X145242Y13550D01*
X145367Y13599D01*
X145471Y13659D01*
X145520Y13687D01*
X145558Y13714D01*
X145591Y13741D01*
X145618Y13763D01*
X145646Y13785D01*
X145662Y13801D01*
X145667Y13807D01*
X145673Y13812D01*
X145722Y13872D01*
X145766Y13938D01*
X145804Y14009D01*
X145837Y14074D01*
X145891Y14216D01*
X145924Y14347D01*
X145940Y14413D01*
X145951Y14467D01*
X145957Y14516D01*
X145962Y14560D01*
Y14598D01*
X145968Y14626D01*
Y14642D01*
Y14648D01*
X143625D01*
Y14893D01*
X143631Y15046D01*
X143642Y15188D01*
X143658Y15319D01*
X143685Y15445D01*
X143713Y15554D01*
X143746Y15663D01*
X143778Y15756D01*
X143811Y15843D01*
X143849Y15914D01*
X143882Y15980D01*
X143915Y16040D01*
X143942Y16083D01*
X143969Y16122D01*
X143986Y16144D01*
X143997Y16160D01*
X144002Y16165D01*
X144073Y16242D01*
X144155Y16313D01*
X144237Y16373D01*
X144324Y16422D01*
X144412Y16466D01*
X144499Y16504D01*
X144581Y16531D01*
X144663Y16559D01*
X144745Y16575D01*
X144816Y16591D01*
X144881Y16602D01*
X144941Y16608D01*
X144985D01*
X145023Y16613D01*
X145051D01*
X145203Y16602D01*
D02*
G37*
G36*
X119683Y16602D02*
X119820Y16575D01*
X119951Y16542D01*
X120065Y16499D01*
X120115Y16477D01*
X120158Y16455D01*
X120202Y16438D01*
X120235Y16422D01*
X120257Y16406D01*
X120278Y16395D01*
X120289Y16389D01*
X120295Y16384D01*
X120420Y16291D01*
X120530Y16187D01*
X120622Y16083D01*
X120704Y15980D01*
X120764Y15887D01*
X120792Y15849D01*
X120808Y15811D01*
X120824Y15783D01*
X120835Y15761D01*
X120846Y15751D01*
Y15745D01*
X120912Y15592D01*
X120961Y15434D01*
X120994Y15276D01*
X121016Y15134D01*
X121026Y15068D01*
X121032Y15013D01*
X121037Y14959D01*
Y14915D01*
X121043Y14877D01*
Y14850D01*
Y14833D01*
Y14828D01*
Y14718D01*
X121037Y14577D01*
X121021Y14446D01*
X120999Y14314D01*
X120972Y14200D01*
X120939Y14085D01*
X120901Y13987D01*
X120863Y13894D01*
X120819Y13807D01*
X120781Y13730D01*
X120742Y13665D01*
X120704Y13610D01*
X120672Y13566D01*
X120639Y13528D01*
X120617Y13501D01*
X120606Y13485D01*
X120601Y13479D01*
X120513Y13397D01*
X120426Y13326D01*
X120333Y13266D01*
X120235Y13212D01*
X120136Y13168D01*
X120044Y13135D01*
X119951Y13102D01*
X119863Y13081D01*
X119776Y13059D01*
X119700Y13042D01*
X119629Y13037D01*
X119569Y13026D01*
X119519D01*
X119487Y13021D01*
X119454D01*
X119296Y13026D01*
X119148Y13048D01*
X119012Y13081D01*
X118886Y13124D01*
X118766Y13173D01*
X118657Y13233D01*
X118564Y13294D01*
X118477Y13353D01*
X118400Y13414D01*
X118335Y13474D01*
X118275Y13534D01*
X118231Y13583D01*
X118193Y13626D01*
X118171Y13659D01*
X118155Y13681D01*
X118149Y13687D01*
X118509Y13971D01*
X118575Y13894D01*
X118640Y13829D01*
X118701Y13769D01*
X118761Y13719D01*
X118815Y13681D01*
X118853Y13648D01*
X118881Y13632D01*
X118892Y13626D01*
X118979Y13583D01*
X119066Y13555D01*
X119154Y13534D01*
X119236Y13517D01*
X119312Y13506D01*
X119367Y13501D01*
X119421D01*
X119503Y13506D01*
X119580Y13512D01*
X119650Y13528D01*
X119721Y13550D01*
X119847Y13599D01*
X119951Y13659D01*
X120000Y13687D01*
X120038Y13714D01*
X120071Y13741D01*
X120098Y13763D01*
X120125Y13785D01*
X120142Y13801D01*
X120147Y13807D01*
X120153Y13812D01*
X120202Y13872D01*
X120246Y13938D01*
X120284Y14009D01*
X120317Y14074D01*
X120371Y14216D01*
X120404Y14347D01*
X120420Y14413D01*
X120431Y14467D01*
X120437Y14516D01*
X120442Y14560D01*
Y14598D01*
X120448Y14626D01*
Y14642D01*
Y14648D01*
X118105D01*
Y14893D01*
X118111Y15046D01*
X118122Y15188D01*
X118138Y15319D01*
X118165Y15445D01*
X118193Y15554D01*
X118226Y15663D01*
X118258Y15756D01*
X118291Y15843D01*
X118329Y15914D01*
X118362Y15980D01*
X118395Y16040D01*
X118422Y16083D01*
X118449Y16122D01*
X118466Y16144D01*
X118477Y16160D01*
X118482Y16165D01*
X118553Y16242D01*
X118635Y16313D01*
X118717Y16373D01*
X118804Y16422D01*
X118892Y16466D01*
X118979Y16504D01*
X119061Y16531D01*
X119143Y16558D01*
X119225Y16575D01*
X119296Y16591D01*
X119361Y16602D01*
X119421Y16608D01*
X119465D01*
X119503Y16613D01*
X119530D01*
X119683Y16602D01*
D02*
G37*
G36*
X105203D02*
X105340Y16575D01*
X105471Y16542D01*
X105586Y16499D01*
X105635Y16477D01*
X105678Y16455D01*
X105722Y16438D01*
X105755Y16422D01*
X105777Y16406D01*
X105798Y16395D01*
X105809Y16389D01*
X105815Y16384D01*
X105940Y16291D01*
X106050Y16187D01*
X106142Y16083D01*
X106224Y15980D01*
X106284Y15887D01*
X106312Y15849D01*
X106328Y15811D01*
X106344Y15783D01*
X106355Y15761D01*
X106366Y15751D01*
Y15745D01*
X106432Y15592D01*
X106481Y15434D01*
X106514Y15276D01*
X106536Y15134D01*
X106546Y15068D01*
X106552Y15013D01*
X106557Y14959D01*
Y14915D01*
X106563Y14877D01*
Y14850D01*
Y14833D01*
Y14828D01*
Y14718D01*
X106557Y14577D01*
X106541Y14446D01*
X106519Y14314D01*
X106492Y14200D01*
X106459Y14085D01*
X106421Y13987D01*
X106383Y13894D01*
X106339Y13807D01*
X106301Y13730D01*
X106263Y13665D01*
X106224Y13610D01*
X106192Y13566D01*
X106159Y13528D01*
X106137Y13501D01*
X106126Y13485D01*
X106121Y13479D01*
X106033Y13397D01*
X105946Y13326D01*
X105853Y13266D01*
X105755Y13212D01*
X105657Y13168D01*
X105564Y13135D01*
X105471Y13102D01*
X105384Y13081D01*
X105296Y13059D01*
X105220Y13042D01*
X105149Y13037D01*
X105089Y13026D01*
X105040D01*
X105007Y13021D01*
X104974D01*
X104816Y13026D01*
X104668Y13048D01*
X104532Y13081D01*
X104406Y13124D01*
X104286Y13173D01*
X104177Y13233D01*
X104084Y13294D01*
X103997Y13353D01*
X103920Y13414D01*
X103855Y13474D01*
X103795Y13534D01*
X103751Y13583D01*
X103713Y13626D01*
X103691Y13659D01*
X103675Y13681D01*
X103669Y13687D01*
X104030Y13971D01*
X104095Y13894D01*
X104160Y13829D01*
X104221Y13769D01*
X104281Y13719D01*
X104335Y13681D01*
X104374Y13648D01*
X104401Y13632D01*
X104412Y13626D01*
X104499Y13583D01*
X104586Y13555D01*
X104674Y13534D01*
X104756Y13517D01*
X104832Y13506D01*
X104887Y13501D01*
X104941D01*
X105023Y13506D01*
X105100Y13512D01*
X105171Y13528D01*
X105242Y13550D01*
X105367Y13599D01*
X105471Y13659D01*
X105520Y13687D01*
X105558Y13714D01*
X105591Y13741D01*
X105618Y13763D01*
X105646Y13785D01*
X105662Y13801D01*
X105667Y13807D01*
X105673Y13812D01*
X105722Y13872D01*
X105766Y13938D01*
X105804Y14009D01*
X105837Y14074D01*
X105891Y14216D01*
X105924Y14347D01*
X105940Y14413D01*
X105951Y14467D01*
X105957Y14516D01*
X105962Y14560D01*
Y14598D01*
X105968Y14626D01*
Y14642D01*
Y14648D01*
X103625D01*
Y14893D01*
X103631Y15046D01*
X103642Y15188D01*
X103658Y15319D01*
X103685Y15445D01*
X103713Y15554D01*
X103746Y15663D01*
X103778Y15756D01*
X103811Y15843D01*
X103849Y15914D01*
X103882Y15980D01*
X103915Y16040D01*
X103942Y16083D01*
X103969Y16122D01*
X103986Y16144D01*
X103997Y16160D01*
X104002Y16165D01*
X104073Y16242D01*
X104155Y16313D01*
X104237Y16373D01*
X104324Y16422D01*
X104412Y16466D01*
X104499Y16504D01*
X104581Y16531D01*
X104663Y16558D01*
X104745Y16575D01*
X104816Y16591D01*
X104881Y16602D01*
X104941Y16608D01*
X104985D01*
X105023Y16613D01*
X105051D01*
X105203Y16602D01*
D02*
G37*
G36*
X166344Y13086D02*
X165056D01*
X164941Y13092D01*
X164827Y13097D01*
X164723Y13113D01*
X164619Y13130D01*
X164521Y13151D01*
X164433Y13173D01*
X164346Y13195D01*
X164270Y13223D01*
X164204Y13244D01*
X164139Y13272D01*
X164084Y13294D01*
X164040Y13315D01*
X164008Y13332D01*
X163980Y13343D01*
X163964Y13348D01*
X163958Y13353D01*
X163795Y13463D01*
X163647Y13588D01*
X163522Y13714D01*
X163467Y13774D01*
X163418Y13834D01*
X163374Y13894D01*
X163336Y13949D01*
X163303Y13992D01*
X163281Y14036D01*
X163259Y14069D01*
X163243Y14096D01*
X163238Y14112D01*
X163232Y14118D01*
X163189Y14211D01*
X163145Y14309D01*
X163085Y14506D01*
X163036Y14702D01*
X163019Y14795D01*
X163008Y14882D01*
X162997Y14964D01*
X162987Y15035D01*
X162981Y15101D01*
Y15161D01*
X162976Y15204D01*
Y15243D01*
Y15265D01*
Y15270D01*
Y15570D01*
X162981Y15690D01*
X162987Y15805D01*
X163019Y16018D01*
X163041Y16116D01*
X163063Y16209D01*
X163085Y16296D01*
X163107Y16378D01*
X163134Y16449D01*
X163156Y16515D01*
X163178Y16569D01*
X163199Y16619D01*
X163216Y16657D01*
X163227Y16684D01*
X163232Y16701D01*
X163238Y16706D01*
X163287Y16799D01*
X163341Y16881D01*
X163396Y16963D01*
X163456Y17034D01*
X163516Y17105D01*
X163576Y17165D01*
X163636Y17225D01*
X163691Y17274D01*
X163745Y17318D01*
X163795Y17361D01*
X163844Y17394D01*
X163882Y17421D01*
X163915Y17443D01*
X163937Y17459D01*
X163953Y17465D01*
X163958Y17470D01*
X164046Y17519D01*
X164139Y17563D01*
X164231Y17596D01*
X164324Y17629D01*
X164504Y17678D01*
X164668Y17711D01*
X164745Y17721D01*
X164816Y17727D01*
X164876Y17738D01*
X164930D01*
X164974Y17743D01*
X166344D01*
Y13086D01*
D02*
G37*
G36*
X155239D02*
X154649D01*
Y16548D01*
X155239D01*
Y13086D01*
D02*
G37*
G36*
X148529Y16608D02*
X148643Y16591D01*
X148747Y16569D01*
X148845Y16537D01*
X148938Y16499D01*
X149020Y16455D01*
X149096Y16411D01*
X149167Y16362D01*
X149233Y16313D01*
X149287Y16269D01*
X149337Y16226D01*
X149375Y16187D01*
X149407Y16160D01*
X149429Y16133D01*
X149440Y16116D01*
X149446Y16111D01*
X149468Y16548D01*
X150030D01*
Y13086D01*
X149435D01*
Y15554D01*
X149386Y15641D01*
X149331Y15718D01*
X149276Y15789D01*
X149222Y15843D01*
X149173Y15892D01*
X149135Y15925D01*
X149107Y15947D01*
X149096Y15953D01*
X149009Y16007D01*
X148927Y16045D01*
X148840Y16073D01*
X148758Y16089D01*
X148692Y16105D01*
X148638Y16111D01*
X148589D01*
X148463Y16105D01*
X148359Y16083D01*
X148266Y16056D01*
X148195Y16024D01*
X148141Y15985D01*
X148103Y15958D01*
X148075Y15936D01*
X148070Y15931D01*
X148015Y15854D01*
X147972Y15767D01*
X147939Y15674D01*
X147917Y15587D01*
X147906Y15505D01*
X147901Y15467D01*
Y15434D01*
X147895Y15412D01*
Y15390D01*
Y15379D01*
Y15374D01*
Y13086D01*
X147305D01*
Y15374D01*
X147311Y15488D01*
X147322Y15592D01*
X147333Y15690D01*
X147355Y15783D01*
X147382Y15871D01*
X147409Y15947D01*
X147447Y16024D01*
X147486Y16089D01*
X147567Y16209D01*
X147660Y16313D01*
X147759Y16395D01*
X147862Y16460D01*
X147966Y16509D01*
X148064Y16548D01*
X148157Y16575D01*
X148245Y16591D01*
X148310Y16608D01*
X148365Y16613D01*
X148414D01*
X148529Y16608D01*
D02*
G37*
G36*
X132285Y13086D02*
X131652D01*
X131215Y14304D01*
X129260D01*
X128818Y13086D01*
X128184D01*
X129970Y17743D01*
X130505D01*
X132285Y13086D01*
D02*
G37*
G36*
X107950D02*
X107360D01*
Y18000D01*
X107950D01*
Y13086D01*
D02*
G37*
G36*
X83696D02*
X83036D01*
X81725Y16799D01*
X80415Y13086D01*
X79754D01*
X81452Y17743D01*
X82004D01*
X83696Y13086D01*
D02*
G37*
G36*
X74742Y17241D02*
X73246D01*
Y13086D01*
X72635D01*
Y17241D01*
X71138D01*
Y17743D01*
X74742D01*
Y17241D01*
D02*
G37*
G36*
X58602Y13086D02*
X57985D01*
Y14970D01*
X56893D01*
X55878Y13086D01*
X55222D01*
Y13124D01*
X56314Y15101D01*
X56167Y15166D01*
X56036Y15243D01*
X55921Y15325D01*
X55829Y15401D01*
X55758Y15472D01*
X55703Y15527D01*
X55681Y15548D01*
X55670Y15565D01*
X55659Y15576D01*
Y15581D01*
X55616Y15641D01*
X55583Y15707D01*
X55523Y15838D01*
X55479Y15963D01*
X55452Y16083D01*
X55436Y16187D01*
X55430Y16231D01*
Y16269D01*
X55424Y16296D01*
Y16318D01*
Y16335D01*
Y16340D01*
X55430Y16466D01*
X55441Y16580D01*
X55463Y16690D01*
X55490Y16793D01*
X55523Y16886D01*
X55561Y16968D01*
X55599Y17050D01*
X55638Y17116D01*
X55676Y17181D01*
X55714Y17236D01*
X55752Y17279D01*
X55785Y17318D01*
X55812Y17345D01*
X55834Y17367D01*
X55845Y17378D01*
X55850Y17383D01*
X55932Y17448D01*
X56025Y17503D01*
X56118Y17552D01*
X56216Y17591D01*
X56320Y17629D01*
X56418Y17656D01*
X56615Y17700D01*
X56708Y17716D01*
X56789Y17727D01*
X56866Y17732D01*
X56932Y17738D01*
X56986Y17743D01*
X58602D01*
Y13086D01*
D02*
G37*
G36*
X54562D02*
X51603D01*
Y13588D01*
X53950D01*
Y15237D01*
X51930D01*
Y15740D01*
X53950D01*
Y17241D01*
X51635D01*
Y17743D01*
X54562D01*
Y13086D01*
D02*
G37*
G36*
X49260D02*
X48671D01*
Y16548D01*
X49260D01*
Y13086D01*
D02*
G37*
G36*
X46224Y16608D02*
X46339Y16591D01*
X46443Y16569D01*
X46541Y16537D01*
X46634Y16499D01*
X46716Y16455D01*
X46792Y16411D01*
X46863Y16362D01*
X46929Y16313D01*
X46983Y16269D01*
X47032Y16226D01*
X47071Y16187D01*
X47104Y16160D01*
X47125Y16133D01*
X47136Y16116D01*
X47142Y16111D01*
X47164Y16548D01*
X47726D01*
Y13086D01*
X47131D01*
Y15554D01*
X47082Y15641D01*
X47027Y15718D01*
X46973Y15789D01*
X46918Y15843D01*
X46869Y15892D01*
X46830Y15925D01*
X46803Y15947D01*
X46792Y15953D01*
X46705Y16007D01*
X46623Y16045D01*
X46536Y16073D01*
X46454Y16089D01*
X46388Y16105D01*
X46334Y16111D01*
X46284D01*
X46159Y16105D01*
X46055Y16083D01*
X45962Y16056D01*
X45891Y16024D01*
X45837Y15985D01*
X45799Y15958D01*
X45771Y15936D01*
X45766Y15931D01*
X45711Y15854D01*
X45667Y15767D01*
X45635Y15674D01*
X45613Y15587D01*
X45602Y15505D01*
X45597Y15466D01*
Y15434D01*
X45591Y15412D01*
Y15390D01*
Y15379D01*
Y15374D01*
Y13086D01*
X45001D01*
Y15374D01*
X45007Y15488D01*
X45018Y15592D01*
X45029Y15690D01*
X45050Y15783D01*
X45078Y15871D01*
X45105Y15947D01*
X45143Y16024D01*
X45182Y16089D01*
X45263Y16209D01*
X45356Y16313D01*
X45455Y16395D01*
X45558Y16460D01*
X45662Y16509D01*
X45760Y16548D01*
X45853Y16575D01*
X45941Y16591D01*
X46006Y16608D01*
X46061Y16613D01*
X46110D01*
X46224Y16608D01*
D02*
G37*
G36*
X32755D02*
X32869Y16591D01*
X32973Y16569D01*
X33071Y16537D01*
X33164Y16499D01*
X33246Y16455D01*
X33323Y16411D01*
X33393Y16362D01*
X33459Y16313D01*
X33514Y16269D01*
X33563Y16226D01*
X33601Y16187D01*
X33634Y16160D01*
X33656Y16133D01*
X33666Y16116D01*
X33672Y16111D01*
X33694Y16548D01*
X34256D01*
Y13086D01*
X33661D01*
Y15554D01*
X33612Y15641D01*
X33557Y15718D01*
X33503Y15789D01*
X33448Y15843D01*
X33399Y15892D01*
X33361Y15925D01*
X33333Y15947D01*
X33323Y15953D01*
X33235Y16007D01*
X33153Y16045D01*
X33066Y16073D01*
X32984Y16089D01*
X32918Y16105D01*
X32864Y16111D01*
X32815D01*
X32689Y16105D01*
X32585Y16083D01*
X32493Y16056D01*
X32422Y16024D01*
X32367Y15985D01*
X32329Y15958D01*
X32301Y15936D01*
X32296Y15931D01*
X32241Y15854D01*
X32198Y15767D01*
X32165Y15674D01*
X32143Y15587D01*
X32132Y15505D01*
X32127Y15466D01*
Y15434D01*
X32121Y15412D01*
Y15390D01*
Y15379D01*
Y15374D01*
Y13086D01*
X31532D01*
Y15374D01*
X31537Y15488D01*
X31548Y15592D01*
X31559Y15690D01*
X31581Y15783D01*
X31608Y15871D01*
X31635Y15947D01*
X31674Y16024D01*
X31712Y16089D01*
X31794Y16209D01*
X31887Y16313D01*
X31985Y16395D01*
X32089Y16460D01*
X32192Y16509D01*
X32291Y16548D01*
X32383Y16575D01*
X32471Y16591D01*
X32536Y16608D01*
X32591Y16613D01*
X32640D01*
X32755Y16608D01*
D02*
G37*
G36*
X27103Y16056D02*
X25220D01*
X27131Y13517D01*
Y13086D01*
X24385D01*
Y13566D01*
X26410D01*
X24477Y16122D01*
Y16548D01*
X27103D01*
Y16056D01*
D02*
G37*
G36*
X157521Y16608D02*
X157614Y16602D01*
X157707Y16586D01*
X157794Y16569D01*
X157876Y16548D01*
X157952Y16520D01*
X158023Y16493D01*
X158083Y16466D01*
X158143Y16438D01*
X158193Y16411D01*
X158236Y16389D01*
X158269Y16362D01*
X158296Y16346D01*
X158318Y16329D01*
X158329Y16324D01*
X158335Y16318D01*
X158400Y16264D01*
X158455Y16204D01*
X158504Y16144D01*
X158542Y16083D01*
X158580Y16018D01*
X158608Y15963D01*
X158651Y15849D01*
X158673Y15751D01*
X158684Y15707D01*
X158689Y15669D01*
X158695Y15641D01*
Y15614D01*
Y15603D01*
Y15598D01*
X158689Y15505D01*
X158673Y15423D01*
X158657Y15346D01*
X158630Y15281D01*
X158608Y15226D01*
X158591Y15188D01*
X158575Y15166D01*
X158569Y15155D01*
X158515Y15090D01*
X158455Y15024D01*
X158389Y14970D01*
X158329Y14926D01*
X158269Y14888D01*
X158225Y14855D01*
X158193Y14839D01*
X158187Y14833D01*
X158182D01*
X158073Y14784D01*
X157958Y14740D01*
X157838Y14697D01*
X157723Y14664D01*
X157619Y14637D01*
X157576Y14626D01*
X157543Y14615D01*
X157510Y14609D01*
X157488Y14604D01*
X157472Y14598D01*
X157466D01*
X157385Y14582D01*
X157308Y14560D01*
X157237Y14544D01*
X157177Y14522D01*
X157117Y14506D01*
X157068Y14484D01*
X157019Y14467D01*
X156981Y14451D01*
X156915Y14418D01*
X156866Y14391D01*
X156844Y14375D01*
X156833Y14369D01*
X156773Y14314D01*
X156729Y14254D01*
X156697Y14194D01*
X156675Y14134D01*
X156664Y14080D01*
X156653Y14036D01*
Y14009D01*
Y14003D01*
Y13998D01*
X156664Y13916D01*
X156686Y13845D01*
X156719Y13779D01*
X156757Y13730D01*
X156795Y13687D01*
X156828Y13659D01*
X156850Y13637D01*
X156860Y13632D01*
X156942Y13588D01*
X157030Y13556D01*
X157117Y13534D01*
X157204Y13517D01*
X157281Y13506D01*
X157341Y13501D01*
X157396D01*
X157527Y13506D01*
X157641Y13528D01*
X157745Y13556D01*
X157827Y13588D01*
X157892Y13621D01*
X157947Y13648D01*
X157974Y13670D01*
X157985Y13676D01*
X158056Y13747D01*
X158116Y13823D01*
X158154Y13900D01*
X158182Y13976D01*
X158204Y14041D01*
X158214Y14096D01*
Y14118D01*
X158220Y14134D01*
Y14140D01*
Y14145D01*
X158815D01*
X158810Y14031D01*
X158788Y13927D01*
X158760Y13829D01*
X158722Y13747D01*
X158689Y13670D01*
X158662Y13621D01*
X158651Y13599D01*
X158640Y13583D01*
X158635Y13577D01*
Y13572D01*
X158558Y13479D01*
X158477Y13397D01*
X158395Y13326D01*
X158313Y13272D01*
X158242Y13223D01*
X158187Y13190D01*
X158165Y13179D01*
X158149Y13168D01*
X158138Y13162D01*
X158133D01*
X158007Y13113D01*
X157881Y13081D01*
X157756Y13053D01*
X157641Y13037D01*
X157543Y13026D01*
X157499D01*
X157466Y13021D01*
X157396D01*
X157286Y13026D01*
X157183Y13031D01*
X157090Y13048D01*
X156997Y13064D01*
X156910Y13086D01*
X156833Y13108D01*
X156762Y13135D01*
X156691Y13162D01*
X156637Y13184D01*
X156582Y13212D01*
X156538Y13233D01*
X156500Y13255D01*
X156473Y13272D01*
X156451Y13288D01*
X156440Y13294D01*
X156435Y13299D01*
X156369Y13353D01*
X156314Y13414D01*
X156260Y13474D01*
X156222Y13534D01*
X156183Y13594D01*
X156156Y13654D01*
X156107Y13774D01*
X156085Y13878D01*
X156074Y13927D01*
X156069Y13965D01*
X156063Y13998D01*
Y14020D01*
Y14036D01*
Y14041D01*
X156069Y14140D01*
X156085Y14233D01*
X156107Y14314D01*
X156129Y14380D01*
X156151Y14435D01*
X156173Y14478D01*
X156189Y14500D01*
X156194Y14511D01*
X156249Y14582D01*
X156314Y14648D01*
X156380Y14702D01*
X156446Y14751D01*
X156511Y14789D01*
X156560Y14822D01*
X156593Y14839D01*
X156598Y14844D01*
X156604D01*
X156713Y14893D01*
X156833Y14937D01*
X156953Y14981D01*
X157068Y15013D01*
X157166Y15041D01*
X157210Y15052D01*
X157248Y15063D01*
X157281Y15068D01*
X157303Y15073D01*
X157319Y15079D01*
X157325D01*
X157406Y15095D01*
X157477Y15117D01*
X157543Y15134D01*
X157608Y15155D01*
X157663Y15172D01*
X157712Y15188D01*
X157756Y15204D01*
X157794Y15221D01*
X157860Y15248D01*
X157903Y15270D01*
X157925Y15281D01*
X157936Y15286D01*
X157991Y15330D01*
X158034Y15385D01*
X158062Y15439D01*
X158083Y15494D01*
X158094Y15538D01*
X158100Y15576D01*
X158105Y15603D01*
Y15614D01*
X158100Y15696D01*
X158078Y15767D01*
X158051Y15832D01*
X158012Y15887D01*
X157980Y15931D01*
X157952Y15958D01*
X157931Y15980D01*
X157925Y15985D01*
X157849Y16034D01*
X157767Y16067D01*
X157685Y16094D01*
X157603Y16111D01*
X157527Y16122D01*
X157472Y16127D01*
X157417D01*
X157303Y16122D01*
X157204Y16100D01*
X157112Y16073D01*
X157041Y16040D01*
X156981Y16002D01*
X156937Y15974D01*
X156910Y15953D01*
X156899Y15947D01*
X156828Y15881D01*
X156779Y15811D01*
X156740Y15740D01*
X156719Y15674D01*
X156702Y15614D01*
X156697Y15570D01*
X156691Y15538D01*
Y15532D01*
Y15527D01*
X156096D01*
X156102Y15614D01*
X156112Y15696D01*
X156129Y15778D01*
X156151Y15849D01*
X156211Y15985D01*
X156244Y16040D01*
X156276Y16094D01*
X156314Y16144D01*
X156347Y16187D01*
X156375Y16220D01*
X156402Y16253D01*
X156429Y16275D01*
X156446Y16291D01*
X156456Y16302D01*
X156462Y16307D01*
X156533Y16362D01*
X156609Y16411D01*
X156686Y16449D01*
X156768Y16482D01*
X156926Y16537D01*
X157079Y16575D01*
X157144Y16586D01*
X157210Y16597D01*
X157270Y16602D01*
X157319Y16608D01*
X157363Y16613D01*
X157417D01*
X157521Y16608D01*
D02*
G37*
G36*
X140753Y16193D02*
X140824Y16269D01*
X140895Y16329D01*
X140972Y16389D01*
X141054Y16438D01*
X141136Y16477D01*
X141218Y16509D01*
X141294Y16537D01*
X141370Y16559D01*
X141441Y16580D01*
X141507Y16591D01*
X141567Y16602D01*
X141616Y16608D01*
X141660Y16613D01*
X141720D01*
X141829Y16608D01*
X141938Y16591D01*
X142036Y16569D01*
X142129Y16537D01*
X142217Y16499D01*
X142299Y16460D01*
X142375Y16417D01*
X142441Y16373D01*
X142501Y16324D01*
X142555Y16280D01*
X142599Y16242D01*
X142637Y16204D01*
X142670Y16171D01*
X142692Y16149D01*
X142703Y16133D01*
X142708Y16127D01*
X142774Y16034D01*
X142834Y15931D01*
X142883Y15827D01*
X142927Y15723D01*
X142965Y15614D01*
X142992Y15510D01*
X143019Y15401D01*
X143036Y15303D01*
X143052Y15210D01*
X143063Y15123D01*
X143074Y15046D01*
X143079Y14975D01*
X143085Y14921D01*
Y14877D01*
Y14855D01*
Y14844D01*
Y14800D01*
X143079Y14653D01*
X143069Y14516D01*
X143052Y14386D01*
X143025Y14265D01*
X142998Y14151D01*
X142965Y14041D01*
X142932Y13943D01*
X142894Y13856D01*
X142861Y13779D01*
X142828Y13708D01*
X142796Y13648D01*
X142768Y13599D01*
X142741Y13561D01*
X142725Y13534D01*
X142714Y13517D01*
X142708Y13512D01*
X142632Y13424D01*
X142555Y13348D01*
X142473Y13283D01*
X142391Y13228D01*
X142309Y13179D01*
X142228Y13141D01*
X142151Y13108D01*
X142075Y13081D01*
X142004Y13064D01*
X141933Y13048D01*
X141878Y13037D01*
X141824Y13026D01*
X141785D01*
X141753Y13021D01*
X141725D01*
X141611Y13026D01*
X141501Y13037D01*
X141398Y13059D01*
X141305Y13086D01*
X141218Y13119D01*
X141136Y13157D01*
X141059Y13195D01*
X140994Y13239D01*
X140934Y13277D01*
X140884Y13315D01*
X140841Y13353D01*
X140803Y13386D01*
X140775Y13414D01*
X140753Y13435D01*
X140743Y13446D01*
X140737Y13452D01*
X140704Y13086D01*
X140164D01*
Y18000D01*
X140753D01*
Y16193D01*
D02*
G37*
G36*
X126503Y16608D02*
X126596Y16602D01*
X126689Y16586D01*
X126776Y16569D01*
X126858Y16548D01*
X126934Y16520D01*
X127005Y16493D01*
X127065Y16466D01*
X127125Y16438D01*
X127174Y16411D01*
X127218Y16389D01*
X127251Y16362D01*
X127278Y16346D01*
X127300Y16329D01*
X127311Y16324D01*
X127316Y16318D01*
X127382Y16264D01*
X127436Y16204D01*
X127486Y16144D01*
X127524Y16083D01*
X127562Y16018D01*
X127589Y15963D01*
X127633Y15849D01*
X127655Y15751D01*
X127666Y15707D01*
X127671Y15669D01*
X127677Y15641D01*
Y15614D01*
Y15603D01*
Y15598D01*
X127671Y15505D01*
X127655Y15423D01*
X127638Y15346D01*
X127611Y15281D01*
X127589Y15226D01*
X127573Y15188D01*
X127557Y15166D01*
X127551Y15155D01*
X127497Y15090D01*
X127436Y15024D01*
X127371Y14970D01*
X127311Y14926D01*
X127251Y14888D01*
X127207Y14855D01*
X127174Y14839D01*
X127169Y14833D01*
X127164D01*
X127054Y14784D01*
X126940Y14740D01*
X126820Y14697D01*
X126705Y14664D01*
X126601Y14637D01*
X126557Y14626D01*
X126525Y14615D01*
X126492Y14609D01*
X126470Y14604D01*
X126454Y14598D01*
X126448D01*
X126366Y14582D01*
X126290Y14560D01*
X126219Y14544D01*
X126159Y14522D01*
X126099Y14506D01*
X126050Y14484D01*
X126000Y14467D01*
X125962Y14451D01*
X125897Y14418D01*
X125848Y14391D01*
X125826Y14375D01*
X125815Y14369D01*
X125755Y14314D01*
X125711Y14254D01*
X125678Y14194D01*
X125656Y14134D01*
X125646Y14080D01*
X125635Y14036D01*
Y14009D01*
Y14003D01*
Y13998D01*
X125646Y13916D01*
X125668Y13845D01*
X125700Y13779D01*
X125738Y13730D01*
X125777Y13687D01*
X125809Y13659D01*
X125831Y13637D01*
X125842Y13632D01*
X125924Y13588D01*
X126011Y13555D01*
X126099Y13534D01*
X126186Y13517D01*
X126263Y13506D01*
X126323Y13501D01*
X126377D01*
X126508Y13506D01*
X126623Y13528D01*
X126727Y13555D01*
X126809Y13588D01*
X126874Y13621D01*
X126929Y13648D01*
X126956Y13670D01*
X126967Y13676D01*
X127038Y13747D01*
X127098Y13823D01*
X127136Y13900D01*
X127164Y13976D01*
X127185Y14041D01*
X127196Y14096D01*
Y14118D01*
X127202Y14134D01*
Y14140D01*
Y14145D01*
X127797D01*
X127791Y14031D01*
X127770Y13927D01*
X127742Y13829D01*
X127704Y13747D01*
X127671Y13670D01*
X127644Y13621D01*
X127633Y13599D01*
X127622Y13583D01*
X127617Y13577D01*
Y13572D01*
X127540Y13479D01*
X127458Y13397D01*
X127376Y13326D01*
X127295Y13272D01*
X127224Y13223D01*
X127169Y13190D01*
X127147Y13179D01*
X127131Y13168D01*
X127120Y13162D01*
X127114D01*
X126989Y13113D01*
X126863Y13081D01*
X126738Y13053D01*
X126623Y13037D01*
X126525Y13026D01*
X126481D01*
X126448Y13021D01*
X126377D01*
X126268Y13026D01*
X126164Y13031D01*
X126072Y13048D01*
X125979Y13064D01*
X125891Y13086D01*
X125815Y13108D01*
X125744Y13135D01*
X125673Y13162D01*
X125618Y13184D01*
X125564Y13212D01*
X125520Y13233D01*
X125482Y13255D01*
X125454Y13272D01*
X125433Y13288D01*
X125422Y13294D01*
X125416Y13299D01*
X125351Y13353D01*
X125296Y13414D01*
X125242Y13474D01*
X125203Y13534D01*
X125165Y13594D01*
X125138Y13654D01*
X125089Y13774D01*
X125067Y13878D01*
X125056Y13927D01*
X125050Y13965D01*
X125045Y13998D01*
Y14020D01*
Y14036D01*
Y14041D01*
X125050Y14140D01*
X125067Y14233D01*
X125089Y14314D01*
X125110Y14380D01*
X125132Y14435D01*
X125154Y14478D01*
X125171Y14500D01*
X125176Y14511D01*
X125231Y14582D01*
X125296Y14648D01*
X125362Y14702D01*
X125427Y14751D01*
X125493Y14789D01*
X125542Y14822D01*
X125575Y14839D01*
X125580Y14844D01*
X125585D01*
X125695Y14893D01*
X125815Y14937D01*
X125935Y14981D01*
X126050Y15013D01*
X126148Y15041D01*
X126192Y15052D01*
X126230Y15063D01*
X126263Y15068D01*
X126284Y15073D01*
X126301Y15079D01*
X126306D01*
X126388Y15095D01*
X126459Y15117D01*
X126525Y15134D01*
X126590Y15155D01*
X126645Y15172D01*
X126694Y15188D01*
X126738Y15204D01*
X126776Y15221D01*
X126841Y15248D01*
X126885Y15270D01*
X126907Y15281D01*
X126918Y15286D01*
X126972Y15330D01*
X127016Y15385D01*
X127043Y15439D01*
X127065Y15494D01*
X127076Y15538D01*
X127082Y15576D01*
X127087Y15603D01*
Y15614D01*
X127082Y15696D01*
X127060Y15767D01*
X127032Y15832D01*
X126994Y15887D01*
X126962Y15931D01*
X126934Y15958D01*
X126912Y15980D01*
X126907Y15985D01*
X126830Y16034D01*
X126749Y16067D01*
X126667Y16094D01*
X126585Y16111D01*
X126508Y16122D01*
X126454Y16127D01*
X126399D01*
X126284Y16122D01*
X126186Y16100D01*
X126093Y16073D01*
X126022Y16040D01*
X125962Y16002D01*
X125919Y15974D01*
X125891Y15953D01*
X125880Y15947D01*
X125809Y15881D01*
X125760Y15811D01*
X125722Y15740D01*
X125700Y15674D01*
X125684Y15614D01*
X125678Y15570D01*
X125673Y15538D01*
Y15532D01*
Y15527D01*
X125078D01*
X125083Y15614D01*
X125094Y15696D01*
X125110Y15778D01*
X125132Y15849D01*
X125192Y15985D01*
X125225Y16040D01*
X125258Y16094D01*
X125296Y16144D01*
X125329Y16187D01*
X125356Y16220D01*
X125383Y16253D01*
X125411Y16275D01*
X125427Y16291D01*
X125438Y16302D01*
X125444Y16307D01*
X125515Y16362D01*
X125591Y16411D01*
X125668Y16449D01*
X125749Y16482D01*
X125908Y16537D01*
X126061Y16575D01*
X126126Y16586D01*
X126192Y16597D01*
X126252Y16602D01*
X126301Y16608D01*
X126345Y16613D01*
X126399D01*
X126503Y16608D01*
D02*
G37*
G36*
X123123D02*
X123216Y16602D01*
X123309Y16586D01*
X123396Y16569D01*
X123478Y16548D01*
X123554Y16520D01*
X123625Y16493D01*
X123686Y16466D01*
X123746Y16438D01*
X123795Y16411D01*
X123838Y16389D01*
X123871Y16362D01*
X123898Y16346D01*
X123920Y16329D01*
X123931Y16324D01*
X123937Y16318D01*
X124002Y16264D01*
X124057Y16204D01*
X124106Y16144D01*
X124144Y16083D01*
X124182Y16018D01*
X124210Y15963D01*
X124253Y15849D01*
X124275Y15751D01*
X124286Y15707D01*
X124292Y15669D01*
X124297Y15641D01*
Y15614D01*
Y15603D01*
Y15598D01*
X124292Y15505D01*
X124275Y15423D01*
X124259Y15346D01*
X124232Y15281D01*
X124210Y15226D01*
X124193Y15188D01*
X124177Y15166D01*
X124171Y15155D01*
X124117Y15090D01*
X124057Y15024D01*
X123991Y14970D01*
X123931Y14926D01*
X123871Y14888D01*
X123827Y14855D01*
X123795Y14839D01*
X123789Y14833D01*
X123784D01*
X123674Y14784D01*
X123560Y14740D01*
X123440Y14697D01*
X123325Y14664D01*
X123221Y14637D01*
X123178Y14626D01*
X123145Y14615D01*
X123112Y14609D01*
X123090Y14604D01*
X123074Y14598D01*
X123068D01*
X122987Y14582D01*
X122910Y14560D01*
X122839Y14544D01*
X122779Y14522D01*
X122719Y14506D01*
X122670Y14484D01*
X122621Y14467D01*
X122582Y14451D01*
X122517Y14418D01*
X122468Y14391D01*
X122446Y14375D01*
X122435Y14369D01*
X122375Y14314D01*
X122331Y14254D01*
X122299Y14194D01*
X122277Y14134D01*
X122266Y14080D01*
X122255Y14036D01*
Y14009D01*
Y14003D01*
Y13998D01*
X122266Y13916D01*
X122288Y13845D01*
X122320Y13779D01*
X122359Y13730D01*
X122397Y13687D01*
X122430Y13659D01*
X122451Y13637D01*
X122462Y13632D01*
X122544Y13588D01*
X122632Y13555D01*
X122719Y13534D01*
X122806Y13517D01*
X122883Y13506D01*
X122943Y13501D01*
X122997D01*
X123128Y13506D01*
X123243Y13528D01*
X123347Y13555D01*
X123429Y13588D01*
X123494Y13621D01*
X123549Y13648D01*
X123576Y13670D01*
X123587Y13676D01*
X123658Y13747D01*
X123718Y13823D01*
X123756Y13900D01*
X123784Y13976D01*
X123806Y14041D01*
X123817Y14096D01*
Y14118D01*
X123822Y14134D01*
Y14140D01*
Y14145D01*
X124417D01*
X124412Y14031D01*
X124390Y13927D01*
X124363Y13829D01*
X124324Y13747D01*
X124292Y13670D01*
X124264Y13621D01*
X124253Y13599D01*
X124242Y13583D01*
X124237Y13577D01*
Y13572D01*
X124161Y13479D01*
X124079Y13397D01*
X123997Y13326D01*
X123915Y13272D01*
X123844Y13223D01*
X123789Y13190D01*
X123767Y13179D01*
X123751Y13168D01*
X123740Y13162D01*
X123735D01*
X123609Y13113D01*
X123483Y13081D01*
X123358Y13053D01*
X123243Y13037D01*
X123145Y13026D01*
X123101D01*
X123068Y13021D01*
X122997D01*
X122888Y13026D01*
X122785Y13031D01*
X122692Y13048D01*
X122599Y13064D01*
X122512Y13086D01*
X122435Y13108D01*
X122364Y13135D01*
X122293Y13162D01*
X122239Y13184D01*
X122184Y13212D01*
X122140Y13233D01*
X122102Y13255D01*
X122075Y13272D01*
X122053Y13288D01*
X122042Y13294D01*
X122037Y13299D01*
X121971Y13353D01*
X121916Y13414D01*
X121862Y13474D01*
X121824Y13534D01*
X121785Y13594D01*
X121758Y13654D01*
X121709Y13774D01*
X121687Y13878D01*
X121676Y13927D01*
X121671Y13965D01*
X121665Y13998D01*
Y14020D01*
Y14036D01*
Y14041D01*
X121671Y14140D01*
X121687Y14233D01*
X121709Y14314D01*
X121731Y14380D01*
X121753Y14435D01*
X121774Y14478D01*
X121791Y14500D01*
X121796Y14511D01*
X121851Y14582D01*
X121916Y14648D01*
X121982Y14702D01*
X122047Y14751D01*
X122113Y14789D01*
X122162Y14822D01*
X122195Y14839D01*
X122200Y14844D01*
X122206D01*
X122315Y14893D01*
X122435Y14937D01*
X122555Y14981D01*
X122670Y15013D01*
X122768Y15041D01*
X122812Y15052D01*
X122850Y15063D01*
X122883Y15068D01*
X122905Y15073D01*
X122921Y15079D01*
X122926D01*
X123008Y15095D01*
X123079Y15117D01*
X123145Y15134D01*
X123210Y15155D01*
X123265Y15172D01*
X123314Y15188D01*
X123358Y15204D01*
X123396Y15221D01*
X123462Y15248D01*
X123505Y15270D01*
X123527Y15281D01*
X123538Y15286D01*
X123593Y15330D01*
X123636Y15385D01*
X123664Y15439D01*
X123686Y15494D01*
X123696Y15538D01*
X123702Y15576D01*
X123707Y15603D01*
Y15614D01*
X123702Y15696D01*
X123680Y15767D01*
X123653Y15832D01*
X123615Y15887D01*
X123582Y15931D01*
X123554Y15958D01*
X123533Y15980D01*
X123527Y15985D01*
X123451Y16034D01*
X123369Y16067D01*
X123287Y16094D01*
X123205Y16111D01*
X123128Y16122D01*
X123074Y16127D01*
X123019D01*
X122905Y16122D01*
X122806Y16100D01*
X122714Y16073D01*
X122643Y16040D01*
X122582Y16002D01*
X122539Y15974D01*
X122512Y15953D01*
X122501Y15947D01*
X122430Y15881D01*
X122380Y15811D01*
X122342Y15740D01*
X122320Y15674D01*
X122304Y15614D01*
X122299Y15570D01*
X122293Y15538D01*
Y15532D01*
Y15527D01*
X121698D01*
X121704Y15614D01*
X121714Y15696D01*
X121731Y15778D01*
X121753Y15849D01*
X121813Y15985D01*
X121845Y16040D01*
X121878Y16094D01*
X121916Y16144D01*
X121949Y16187D01*
X121976Y16220D01*
X122004Y16253D01*
X122031Y16275D01*
X122047Y16291D01*
X122058Y16302D01*
X122064Y16307D01*
X122135Y16362D01*
X122211Y16411D01*
X122288Y16449D01*
X122370Y16482D01*
X122528Y16537D01*
X122681Y16575D01*
X122746Y16586D01*
X122812Y16597D01*
X122872Y16602D01*
X122921Y16608D01*
X122965Y16613D01*
X123019D01*
X123123Y16608D01*
D02*
G37*
G36*
X100753Y16193D02*
X100824Y16269D01*
X100895Y16329D01*
X100972Y16389D01*
X101054Y16438D01*
X101136Y16477D01*
X101218Y16509D01*
X101294Y16537D01*
X101371Y16558D01*
X101441Y16580D01*
X101507Y16591D01*
X101567Y16602D01*
X101616Y16608D01*
X101660Y16613D01*
X101720D01*
X101829Y16608D01*
X101938Y16591D01*
X102037Y16569D01*
X102129Y16537D01*
X102217Y16499D01*
X102299Y16460D01*
X102375Y16417D01*
X102441Y16373D01*
X102501Y16324D01*
X102555Y16280D01*
X102599Y16242D01*
X102637Y16204D01*
X102670Y16171D01*
X102692Y16149D01*
X102703Y16133D01*
X102708Y16127D01*
X102774Y16034D01*
X102834Y15931D01*
X102883Y15827D01*
X102927Y15723D01*
X102965Y15614D01*
X102992Y15510D01*
X103019Y15401D01*
X103036Y15303D01*
X103052Y15210D01*
X103063Y15123D01*
X103074Y15046D01*
X103079Y14975D01*
X103085Y14921D01*
Y14877D01*
Y14855D01*
Y14844D01*
Y14800D01*
X103079Y14653D01*
X103068Y14516D01*
X103052Y14386D01*
X103025Y14265D01*
X102998Y14151D01*
X102965Y14041D01*
X102932Y13943D01*
X102894Y13856D01*
X102861Y13779D01*
X102828Y13708D01*
X102796Y13648D01*
X102768Y13599D01*
X102741Y13561D01*
X102725Y13534D01*
X102714Y13517D01*
X102708Y13512D01*
X102632Y13424D01*
X102555Y13348D01*
X102473Y13283D01*
X102392Y13228D01*
X102310Y13179D01*
X102228Y13141D01*
X102151Y13108D01*
X102075Y13081D01*
X102004Y13064D01*
X101933Y13048D01*
X101878Y13037D01*
X101824Y13026D01*
X101785D01*
X101753Y13021D01*
X101725D01*
X101611Y13026D01*
X101502Y13037D01*
X101398Y13059D01*
X101305Y13086D01*
X101218Y13119D01*
X101136Y13157D01*
X101059Y13195D01*
X100994Y13239D01*
X100934Y13277D01*
X100884Y13315D01*
X100841Y13353D01*
X100803Y13386D01*
X100775Y13414D01*
X100753Y13435D01*
X100743Y13446D01*
X100737Y13452D01*
X100704Y13086D01*
X100164D01*
Y18000D01*
X100753D01*
Y16193D01*
D02*
G37*
G36*
X61496Y17803D02*
X61594Y17798D01*
X61780Y17765D01*
X61867Y17743D01*
X61949Y17721D01*
X62020Y17694D01*
X62091Y17672D01*
X62151Y17645D01*
X62211Y17618D01*
X62261Y17596D01*
X62299Y17574D01*
X62331Y17558D01*
X62353Y17541D01*
X62370Y17536D01*
X62375Y17530D01*
X62452Y17476D01*
X62528Y17416D01*
X62659Y17290D01*
X62774Y17159D01*
X62866Y17034D01*
X62937Y16919D01*
X62970Y16870D01*
X62992Y16826D01*
X63008Y16788D01*
X63025Y16761D01*
X63030Y16744D01*
X63036Y16739D01*
X63112Y16542D01*
X63167Y16335D01*
X63210Y16138D01*
X63221Y16045D01*
X63238Y15953D01*
X63243Y15871D01*
X63254Y15794D01*
X63260Y15723D01*
Y15669D01*
X63265Y15619D01*
Y15587D01*
Y15559D01*
Y15554D01*
Y15221D01*
X63254Y14981D01*
X63243Y14866D01*
X63227Y14762D01*
X63205Y14659D01*
X63189Y14560D01*
X63167Y14473D01*
X63145Y14391D01*
X63123Y14320D01*
X63101Y14254D01*
X63080Y14194D01*
X63063Y14145D01*
X63047Y14107D01*
X63036Y14080D01*
X63025Y14063D01*
Y14058D01*
X62927Y13883D01*
X62877Y13801D01*
X62823Y13730D01*
X62768Y13659D01*
X62714Y13594D01*
X62659Y13539D01*
X62604Y13485D01*
X62555Y13441D01*
X62512Y13403D01*
X62468Y13364D01*
X62435Y13337D01*
X62402Y13315D01*
X62381Y13299D01*
X62370Y13294D01*
X62364Y13288D01*
X62282Y13239D01*
X62200Y13201D01*
X62113Y13162D01*
X62031Y13135D01*
X61867Y13086D01*
X61715Y13053D01*
X61649Y13042D01*
X61583Y13037D01*
X61529Y13031D01*
X61480Y13026D01*
X61441Y13021D01*
X61387D01*
X61283Y13026D01*
X61185Y13031D01*
X60994Y13064D01*
X60912Y13081D01*
X60830Y13108D01*
X60754Y13130D01*
X60682Y13157D01*
X60623Y13179D01*
X60568Y13206D01*
X60519Y13228D01*
X60480Y13244D01*
X60448Y13266D01*
X60421Y13277D01*
X60409Y13283D01*
X60404Y13288D01*
X60328Y13343D01*
X60257Y13397D01*
X60126Y13523D01*
X60011Y13648D01*
X59924Y13774D01*
X59847Y13889D01*
X59820Y13938D01*
X59798Y13981D01*
X59776Y14014D01*
X59765Y14041D01*
X59754Y14058D01*
Y14063D01*
X59711Y14162D01*
X59678Y14260D01*
X59618Y14467D01*
X59574Y14669D01*
X59563Y14762D01*
X59547Y14855D01*
X59541Y14937D01*
X59531Y15019D01*
X59525Y15084D01*
Y15144D01*
X59520Y15193D01*
Y15226D01*
Y15254D01*
Y15259D01*
Y15554D01*
Y15679D01*
X59531Y15800D01*
X59541Y15920D01*
X59558Y16029D01*
X59574Y16133D01*
X59596Y16231D01*
X59612Y16324D01*
X59634Y16406D01*
X59656Y16482D01*
X59678Y16553D01*
X59700Y16608D01*
X59716Y16657D01*
X59733Y16701D01*
X59743Y16728D01*
X59749Y16744D01*
X59754Y16750D01*
X59798Y16842D01*
X59847Y16930D01*
X59902Y17012D01*
X59951Y17088D01*
X60005Y17159D01*
X60060Y17225D01*
X60115Y17285D01*
X60169Y17334D01*
X60218Y17383D01*
X60262Y17421D01*
X60306Y17459D01*
X60338Y17487D01*
X60366Y17509D01*
X60393Y17525D01*
X60404Y17530D01*
X60409Y17536D01*
X60491Y17585D01*
X60573Y17629D01*
X60661Y17661D01*
X60743Y17694D01*
X60912Y17743D01*
X61065Y17776D01*
X61136Y17787D01*
X61196Y17793D01*
X61256Y17803D01*
X61305D01*
X61343Y17809D01*
X61398D01*
X61496Y17803D01*
D02*
G37*
G36*
X18859Y16602D02*
X19012Y16580D01*
X19154Y16542D01*
X19274Y16504D01*
X19323Y16482D01*
X19372Y16460D01*
X19410Y16444D01*
X19443Y16422D01*
X19470Y16411D01*
X19492Y16400D01*
X19503Y16389D01*
X19509D01*
X19634Y16302D01*
X19744Y16198D01*
X19842Y16094D01*
X19918Y15996D01*
X19984Y15903D01*
X20006Y15865D01*
X20027Y15827D01*
X20044Y15800D01*
X20055Y15778D01*
X20066Y15767D01*
Y15761D01*
X20131Y15608D01*
X20180Y15450D01*
X20213Y15292D01*
X20235Y15150D01*
X20246Y15084D01*
X20251Y15030D01*
X20257Y14975D01*
Y14931D01*
X20262Y14893D01*
Y14866D01*
Y14850D01*
Y14844D01*
Y14806D01*
X20257Y14658D01*
X20246Y14516D01*
X20224Y14386D01*
X20191Y14260D01*
X20158Y14145D01*
X20126Y14041D01*
X20082Y13943D01*
X20044Y13856D01*
X20006Y13774D01*
X19962Y13703D01*
X19929Y13643D01*
X19891Y13594D01*
X19864Y13555D01*
X19842Y13528D01*
X19831Y13512D01*
X19825Y13506D01*
X19738Y13419D01*
X19651Y13348D01*
X19558Y13283D01*
X19465Y13228D01*
X19367Y13179D01*
X19274Y13141D01*
X19181Y13108D01*
X19088Y13081D01*
X19006Y13059D01*
X18930Y13048D01*
X18859Y13037D01*
X18799Y13026D01*
X18750D01*
X18717Y13020D01*
X18684D01*
X18515Y13031D01*
X18362Y13053D01*
X18220Y13091D01*
X18100Y13135D01*
X18045Y13151D01*
X17996Y13173D01*
X17958Y13195D01*
X17925Y13212D01*
X17898Y13223D01*
X17876Y13233D01*
X17865Y13244D01*
X17860D01*
X17734Y13337D01*
X17619Y13435D01*
X17527Y13539D01*
X17450Y13637D01*
X17390Y13730D01*
X17363Y13769D01*
X17341Y13801D01*
X17330Y13828D01*
X17319Y13850D01*
X17308Y13861D01*
Y13867D01*
X17243Y14020D01*
X17194Y14178D01*
X17161Y14331D01*
X17134Y14473D01*
X17128Y14533D01*
X17123Y14593D01*
X17117Y14642D01*
Y14691D01*
X17112Y14724D01*
Y14751D01*
Y14768D01*
Y14773D01*
Y14817D01*
X17117Y14964D01*
X17128Y15106D01*
X17150Y15237D01*
X17177Y15363D01*
X17215Y15477D01*
X17248Y15587D01*
X17292Y15685D01*
X17330Y15772D01*
X17368Y15854D01*
X17412Y15925D01*
X17445Y15985D01*
X17478Y16034D01*
X17510Y16073D01*
X17532Y16100D01*
X17543Y16116D01*
X17549Y16122D01*
X17636Y16209D01*
X17723Y16285D01*
X17816Y16351D01*
X17914Y16406D01*
X18007Y16455D01*
X18105Y16493D01*
X18198Y16526D01*
X18286Y16553D01*
X18368Y16569D01*
X18449Y16586D01*
X18515Y16597D01*
X18575Y16608D01*
X18624D01*
X18662Y16613D01*
X18695D01*
X18859Y16602D01*
D02*
G37*
G36*
X1268843Y195214D02*
X1268146D01*
Y196083D01*
X1268843D01*
Y195214D01*
D02*
G37*
G36*
X1262627Y194115D02*
X1262709Y194099D01*
X1262783Y194066D01*
X1262849Y194033D01*
X1262898Y193984D01*
X1262939Y193935D01*
X1263005Y193828D01*
X1263046Y193722D01*
X1263062Y193632D01*
X1263070Y193591D01*
Y193566D01*
Y193550D01*
Y193541D01*
Y192705D01*
X1262406D01*
Y193550D01*
X1260938D01*
Y192049D01*
X1262586D01*
X1262685Y192041D01*
X1262767Y192024D01*
X1262841Y191992D01*
X1262898Y191951D01*
X1262955Y191910D01*
X1262996Y191852D01*
X1263062Y191746D01*
X1263095Y191639D01*
X1263119Y191541D01*
X1263128Y191508D01*
Y191475D01*
Y191459D01*
Y191450D01*
Y189679D01*
X1263119Y189573D01*
X1263103Y189482D01*
X1263078Y189409D01*
X1263037Y189335D01*
X1262996Y189277D01*
X1262947Y189236D01*
X1262898Y189195D01*
X1262849Y189163D01*
X1262742Y189122D01*
X1262660Y189097D01*
X1262619D01*
X1262595Y189089D01*
X1262447D01*
X1262316Y189097D01*
X1262185Y189105D01*
X1262053Y189122D01*
X1261939Y189130D01*
X1261848Y189138D01*
X1261816D01*
X1261791Y189146D01*
X1261766D01*
X1261611Y189171D01*
X1261463Y189187D01*
X1261332Y189212D01*
X1261209Y189228D01*
X1261102Y189236D01*
X1261020Y189253D01*
X1260996D01*
X1260971Y189261D01*
X1260955D01*
Y189122D01*
X1260274D01*
Y193533D01*
X1260282Y193640D01*
X1260299Y193730D01*
X1260331Y193804D01*
X1260372Y193869D01*
X1260413Y193927D01*
X1260471Y193976D01*
X1260520Y194017D01*
X1260577Y194050D01*
X1260684Y194091D01*
X1260782Y194115D01*
X1260815D01*
X1260848Y194124D01*
X1262537D01*
X1262627Y194115D01*
D02*
G37*
G36*
X1296698Y189122D02*
X1296026D01*
Y195026D01*
X1293886Y189122D01*
X1293386D01*
Y197158D01*
X1294058D01*
Y191344D01*
X1296165Y197158D01*
X1296698D01*
Y189122D01*
D02*
G37*
G36*
X1256002Y192951D02*
X1257478D01*
Y192352D01*
X1256002D01*
Y190901D01*
X1255370D01*
Y192352D01*
X1253894D01*
Y192951D01*
X1255370D01*
Y194402D01*
X1256002D01*
Y192951D01*
D02*
G37*
G36*
X1266506Y194115D02*
X1266596Y194099D01*
X1266670Y194066D01*
X1266744Y194025D01*
X1266801Y193984D01*
X1266842Y193927D01*
X1266883Y193878D01*
X1266916Y193820D01*
X1266957Y193714D01*
X1266982Y193615D01*
Y193582D01*
X1266990Y193550D01*
Y193533D01*
Y193525D01*
Y189712D01*
X1266982Y189605D01*
X1266965Y189515D01*
X1266932Y189441D01*
X1266900Y189368D01*
X1266850Y189310D01*
X1266801Y189269D01*
X1266752Y189228D01*
X1266695Y189195D01*
X1266588Y189154D01*
X1266490Y189130D01*
X1266457D01*
X1266424Y189122D01*
X1264817D01*
X1264710Y189130D01*
X1264620Y189146D01*
X1264538Y189179D01*
X1264472Y189212D01*
X1264415Y189261D01*
X1264366Y189310D01*
X1264325Y189359D01*
X1264292Y189417D01*
X1264251Y189523D01*
X1264226Y189622D01*
Y189655D01*
X1264218Y189687D01*
Y189704D01*
Y189712D01*
Y190827D01*
X1264891D01*
Y189720D01*
X1266309D01*
Y193525D01*
X1264891D01*
Y192541D01*
X1264218D01*
Y193525D01*
X1264226Y193632D01*
X1264243Y193722D01*
X1264276Y193804D01*
X1264317Y193869D01*
X1264358Y193927D01*
X1264415Y193976D01*
X1264464Y194017D01*
X1264522Y194050D01*
X1264628Y194091D01*
X1264727Y194115D01*
X1264759D01*
X1264792Y194124D01*
X1266399D01*
X1266506Y194115D01*
D02*
G37*
G36*
X1276666Y187227D02*
X1275993D01*
Y189318D01*
X1275961Y189286D01*
X1275928Y189253D01*
X1275838Y189204D01*
X1275739Y189163D01*
X1275633Y189138D01*
X1275534Y189122D01*
X1275452Y189113D01*
X1275378D01*
X1275165Y189122D01*
X1274977Y189138D01*
X1274821Y189163D01*
X1274681Y189195D01*
X1274575Y189220D01*
X1274501Y189245D01*
X1274452Y189261D01*
X1274435Y189269D01*
Y189122D01*
X1273755D01*
Y194124D01*
X1274435D01*
Y189794D01*
X1274575Y189761D01*
X1274722Y189745D01*
X1274870Y189728D01*
X1275001Y189712D01*
X1275116D01*
X1275206Y189704D01*
X1275288D01*
X1275411Y189712D01*
X1275518Y189737D01*
X1275616Y189769D01*
X1275698Y189819D01*
X1275764Y189868D01*
X1275821Y189933D01*
X1275870Y189991D01*
X1275903Y190065D01*
X1275936Y190130D01*
X1275952Y190196D01*
X1275969Y190253D01*
X1275985Y190302D01*
Y190352D01*
X1275993Y190384D01*
Y190409D01*
Y190417D01*
Y194124D01*
X1276666D01*
Y187227D01*
D02*
G37*
G36*
X1313000Y189122D02*
X1310368D01*
Y189753D01*
X1312287D01*
Y192885D01*
X1310565D01*
Y193525D01*
X1312287D01*
Y196526D01*
X1310401D01*
Y197158D01*
X1313000D01*
Y189122D01*
D02*
G37*
G36*
X1308769Y197149D02*
X1308859Y197133D01*
X1308925Y197100D01*
X1308990Y197076D01*
X1309039Y197043D01*
X1309072Y197010D01*
X1309097Y196994D01*
X1309105Y196985D01*
X1309162Y196920D01*
X1309203Y196846D01*
X1309228Y196780D01*
X1309244Y196715D01*
X1309261Y196649D01*
X1309269Y196600D01*
Y196567D01*
Y196559D01*
Y194960D01*
X1309261Y194837D01*
X1309236Y194722D01*
X1309195Y194616D01*
X1309154Y194525D01*
X1309113Y194452D01*
X1309072Y194394D01*
X1309048Y194361D01*
X1309039Y194345D01*
X1306817Y191664D01*
Y189753D01*
X1308556D01*
Y191729D01*
X1309269D01*
Y189712D01*
X1309261Y189622D01*
X1309244Y189532D01*
X1309220Y189466D01*
X1309187Y189400D01*
X1309154Y189351D01*
X1309130Y189318D01*
X1309113Y189294D01*
X1309105Y189286D01*
X1309039Y189228D01*
X1308966Y189187D01*
X1308900Y189163D01*
X1308826Y189146D01*
X1308769Y189130D01*
X1308720Y189122D01*
X1306702D01*
X1306612Y189130D01*
X1306522Y189146D01*
X1306448Y189171D01*
X1306391Y189204D01*
X1306342Y189236D01*
X1306309Y189261D01*
X1306284Y189277D01*
X1306276Y189286D01*
X1306219Y189351D01*
X1306178Y189425D01*
X1306145Y189491D01*
X1306128Y189564D01*
X1306112Y189622D01*
X1306104Y189671D01*
Y189704D01*
Y189712D01*
Y191549D01*
X1306112Y191672D01*
X1306137Y191778D01*
X1306178Y191885D01*
X1306210Y191975D01*
X1306251Y192041D01*
X1306292Y192098D01*
X1306317Y192139D01*
X1306325Y192147D01*
X1308556Y194829D01*
Y196526D01*
X1306817D01*
Y194722D01*
X1306104D01*
Y196559D01*
X1306112Y196649D01*
X1306128Y196739D01*
X1306161Y196813D01*
X1306186Y196871D01*
X1306219Y196920D01*
X1306251Y196953D01*
X1306268Y196977D01*
X1306276Y196985D01*
X1306342Y197043D01*
X1306415Y197084D01*
X1306481Y197117D01*
X1306547Y197133D01*
X1306612Y197149D01*
X1306661Y197158D01*
X1308679D01*
X1308769Y197149D01*
D02*
G37*
G36*
X1304374D02*
X1304464Y197133D01*
X1304529Y197100D01*
X1304595Y197076D01*
X1304644Y197043D01*
X1304677Y197010D01*
X1304702Y196994D01*
X1304710Y196985D01*
X1304767Y196920D01*
X1304808Y196846D01*
X1304833Y196780D01*
X1304849Y196715D01*
X1304866Y196649D01*
X1304874Y196600D01*
Y196567D01*
Y196559D01*
Y194960D01*
X1304866Y194837D01*
X1304841Y194722D01*
X1304800Y194616D01*
X1304759Y194525D01*
X1304718Y194452D01*
X1304677Y194394D01*
X1304652Y194361D01*
X1304644Y194345D01*
X1302422Y191664D01*
Y189753D01*
X1304160D01*
Y191729D01*
X1304874D01*
Y189712D01*
X1304866Y189622D01*
X1304849Y189532D01*
X1304825Y189466D01*
X1304792Y189400D01*
X1304759Y189351D01*
X1304734Y189318D01*
X1304718Y189294D01*
X1304710Y189286D01*
X1304644Y189228D01*
X1304570Y189187D01*
X1304505Y189163D01*
X1304431Y189146D01*
X1304374Y189130D01*
X1304324Y189122D01*
X1302307D01*
X1302217Y189130D01*
X1302127Y189146D01*
X1302053Y189171D01*
X1301996Y189204D01*
X1301946Y189236D01*
X1301914Y189261D01*
X1301889Y189277D01*
X1301881Y189286D01*
X1301823Y189351D01*
X1301782Y189425D01*
X1301750Y189491D01*
X1301733Y189564D01*
X1301717Y189622D01*
X1301709Y189671D01*
Y189704D01*
Y189712D01*
Y191549D01*
X1301717Y191672D01*
X1301741Y191778D01*
X1301782Y191885D01*
X1301815Y191975D01*
X1301856Y192041D01*
X1301897Y192098D01*
X1301922Y192139D01*
X1301930Y192147D01*
X1304160Y194829D01*
Y196526D01*
X1302422D01*
Y194722D01*
X1301709D01*
Y196559D01*
X1301717Y196649D01*
X1301733Y196739D01*
X1301766Y196813D01*
X1301791Y196871D01*
X1301823Y196920D01*
X1301856Y196953D01*
X1301873Y196977D01*
X1301881Y196985D01*
X1301946Y197043D01*
X1302020Y197084D01*
X1302086Y197117D01*
X1302151Y197133D01*
X1302217Y197149D01*
X1302266Y197158D01*
X1304283D01*
X1304374Y197149D01*
D02*
G37*
G36*
X1300454Y189122D02*
X1297822D01*
Y189753D01*
X1299741D01*
Y192885D01*
X1298019D01*
Y193525D01*
X1299741D01*
Y196526D01*
X1297855D01*
Y197158D01*
X1300454D01*
Y189122D01*
D02*
G37*
G36*
X1292541Y196526D02*
X1291286D01*
Y189122D01*
X1290573D01*
Y196526D01*
X1289327D01*
Y197158D01*
X1292541D01*
Y196526D01*
D02*
G37*
G36*
X1288449Y189122D02*
X1287736D01*
Y197158D01*
X1288449D01*
Y189122D01*
D02*
G37*
G36*
X1286711Y189138D02*
Y189122D01*
X1286022D01*
X1285743Y190909D01*
X1284136Y190909D01*
X1283849Y189122D01*
X1283144D01*
X1284571Y197182D01*
X1285276D01*
X1286711Y189138D01*
D02*
G37*
G36*
X1282184Y189122D02*
X1279618D01*
Y189753D01*
X1281471D01*
Y197158D01*
X1282184D01*
Y189122D01*
D02*
G37*
G36*
X1272180Y194115D02*
X1272271Y194099D01*
X1272344Y194066D01*
X1272418Y194025D01*
X1272476Y193984D01*
X1272517Y193927D01*
X1272558Y193878D01*
X1272590Y193820D01*
X1272631Y193714D01*
X1272656Y193615D01*
Y193582D01*
X1272664Y193550D01*
Y193533D01*
Y193525D01*
Y192705D01*
X1272656Y192590D01*
X1272623Y192484D01*
X1272582Y192393D01*
X1272533Y192320D01*
X1272492Y192254D01*
X1272451Y192213D01*
X1272418Y192180D01*
X1272410Y192172D01*
X1270614Y190704D01*
Y189712D01*
X1272000D01*
Y190835D01*
X1272672D01*
Y189712D01*
X1272664Y189605D01*
X1272648Y189515D01*
X1272615Y189441D01*
X1272582Y189368D01*
X1272533Y189310D01*
X1272484Y189269D01*
X1272435Y189228D01*
X1272377Y189195D01*
X1272271Y189154D01*
X1272172Y189130D01*
X1272139D01*
X1272107Y189122D01*
X1270540D01*
X1270434Y189130D01*
X1270344Y189146D01*
X1270262Y189179D01*
X1270196Y189212D01*
X1270139Y189261D01*
X1270089Y189310D01*
X1270048Y189359D01*
X1270016Y189417D01*
X1269975Y189523D01*
X1269950Y189622D01*
X1269942Y189655D01*
Y189687D01*
Y189704D01*
Y189712D01*
Y190647D01*
X1269950Y190770D01*
X1269983Y190876D01*
X1270024Y190967D01*
X1270065Y191049D01*
X1270114Y191106D01*
X1270155Y191155D01*
X1270188Y191180D01*
X1270196Y191188D01*
X1272000Y192656D01*
Y193533D01*
X1270614D01*
Y192549D01*
X1269950D01*
Y193525D01*
X1269958Y193632D01*
X1269975Y193722D01*
X1270007Y193804D01*
X1270040Y193869D01*
X1270089Y193927D01*
X1270139Y193976D01*
X1270196Y194017D01*
X1270245Y194050D01*
X1270360Y194091D01*
X1270458Y194115D01*
X1270491D01*
X1270524Y194124D01*
X1272074D01*
X1272180Y194115D01*
D02*
G37*
G36*
X1268827Y189122D02*
X1268154D01*
Y194124D01*
X1268827D01*
Y189122D01*
D02*
G37*
G36*
X1259118D02*
X1258445D01*
Y197158D01*
X1259118D01*
Y189122D01*
D02*
G37*
G36*
X1269618Y210719D02*
X1277000Y199920D01*
X1275442D01*
X1269974Y207876D01*
X1268689Y209707D01*
X1268607D01*
X1267349Y207930D01*
X1261908Y199920D01*
X1260323D01*
X1267595Y210582D01*
X1260678Y220971D01*
X1262236D01*
X1267349Y213234D01*
X1268579Y211539D01*
X1268607D01*
X1269810Y213262D01*
X1274840Y220971D01*
X1276426D01*
X1269618Y210719D01*
D02*
G37*
G36*
X1313000Y203000D02*
X1310179D01*
Y212938D01*
X1304046Y203000D01*
X1300995D01*
Y218137D01*
X1303816D01*
Y207969D01*
X1310048Y218137D01*
X1313000D01*
Y203000D01*
D02*
G37*
G36*
X1284743Y216153D02*
Y213972D01*
X1286071D01*
Y211659D01*
X1284743D01*
Y206870D01*
Y206592D01*
Y206346D01*
Y206116D01*
X1284726Y205903D01*
Y205706D01*
X1284710Y205542D01*
Y205394D01*
X1284694Y205263D01*
Y205165D01*
Y205066D01*
X1284677Y204984D01*
Y204919D01*
X1284661Y204853D01*
Y204820D01*
X1284612Y204574D01*
X1284546Y204345D01*
X1284480Y204148D01*
X1284415Y203984D01*
X1284349Y203869D01*
X1284300Y203771D01*
X1284267Y203705D01*
X1284251Y203689D01*
X1284120Y203541D01*
X1283988Y203410D01*
X1283824Y203295D01*
X1283677Y203197D01*
X1283546Y203115D01*
X1283431Y203066D01*
X1283365Y203033D01*
X1283332Y203016D01*
X1283086Y202934D01*
X1282840Y202869D01*
X1282611Y202820D01*
X1282398Y202787D01*
X1282201Y202770D01*
X1282053Y202754D01*
X1281922D01*
X1281463Y202770D01*
X1281020Y202820D01*
X1280626Y202885D01*
X1280298Y202967D01*
X1280151Y203000D01*
X1280020Y203049D01*
X1279905Y203082D01*
X1279806Y203115D01*
X1279724Y203148D01*
X1279675Y203164D01*
X1279642Y203180D01*
X1279626D01*
X1279888Y205427D01*
X1280151Y205345D01*
X1280380Y205280D01*
X1280594Y205230D01*
X1280758Y205198D01*
X1280889Y205181D01*
X1280971Y205165D01*
X1281053D01*
X1281250Y205181D01*
X1281397Y205230D01*
X1281463Y205263D01*
X1281512Y205280D01*
X1281528Y205296D01*
X1281545D01*
X1281660Y205411D01*
X1281742Y205526D01*
X1281774Y205624D01*
X1281791Y205640D01*
Y205657D01*
Y205706D01*
X1281807Y205788D01*
Y205886D01*
X1281824Y206001D01*
Y206264D01*
X1281840Y206526D01*
Y206788D01*
Y206920D01*
Y207018D01*
Y207100D01*
Y207166D01*
Y207215D01*
Y207231D01*
Y211659D01*
X1279856D01*
Y213972D01*
X1281840D01*
Y217858D01*
X1284743Y216153D01*
D02*
G37*
G36*
X1297846Y207018D02*
X1297830Y206477D01*
X1297814Y206214D01*
X1297781Y205985D01*
X1297764Y205772D01*
X1297732Y205575D01*
X1297699Y205394D01*
X1297650Y205230D01*
X1297617Y205083D01*
X1297584Y204952D01*
X1297551Y204837D01*
X1297535Y204755D01*
X1297502Y204689D01*
X1297486Y204640D01*
X1297469Y204607D01*
Y204591D01*
X1297305Y204279D01*
X1297108Y204017D01*
X1296895Y203771D01*
X1296682Y203590D01*
X1296502Y203426D01*
X1296354Y203328D01*
X1296288Y203279D01*
X1296239Y203246D01*
X1296223Y203230D01*
X1296206D01*
X1295862Y203066D01*
X1295518Y202951D01*
X1295190Y202869D01*
X1294878Y202820D01*
X1294616Y202787D01*
X1294501Y202770D01*
X1294402Y202754D01*
X1294222D01*
X1293828Y202770D01*
X1293451Y202836D01*
X1293090Y202918D01*
X1292795Y203000D01*
X1292533Y203098D01*
X1292434Y203131D01*
X1292336Y203164D01*
X1292270Y203197D01*
X1292221Y203230D01*
X1292188Y203246D01*
X1292172D01*
X1291828Y203459D01*
X1291500Y203672D01*
X1291237Y203918D01*
X1291008Y204132D01*
X1290827Y204328D01*
X1290696Y204492D01*
X1290647Y204558D01*
X1290614Y204607D01*
X1290581Y204624D01*
Y203000D01*
X1287892D01*
Y213972D01*
X1290794D01*
Y209330D01*
Y208904D01*
X1290811Y208527D01*
Y208182D01*
X1290827Y207887D01*
X1290844Y207608D01*
X1290860Y207362D01*
X1290893Y207149D01*
X1290909Y206969D01*
X1290926Y206821D01*
X1290958Y206690D01*
X1290975Y206592D01*
X1290991Y206510D01*
X1291008Y206444D01*
Y206411D01*
X1291024Y206378D01*
X1291122Y206165D01*
X1291237Y205968D01*
X1291368Y205788D01*
X1291500Y205640D01*
X1291631Y205526D01*
X1291729Y205444D01*
X1291795Y205378D01*
X1291828Y205362D01*
X1292041Y205230D01*
X1292270Y205132D01*
X1292500Y205066D01*
X1292697Y205017D01*
X1292877Y204984D01*
X1293008Y204968D01*
X1293140D01*
X1293369Y204984D01*
X1293582Y205017D01*
X1293763Y205066D01*
X1293927Y205116D01*
X1294058Y205165D01*
X1294140Y205214D01*
X1294206Y205247D01*
X1294222Y205263D01*
X1294370Y205394D01*
X1294484Y205526D01*
X1294583Y205657D01*
X1294665Y205788D01*
X1294714Y205903D01*
X1294763Y206001D01*
X1294780Y206067D01*
X1294796Y206083D01*
X1294829Y206198D01*
X1294845Y206362D01*
X1294862Y206542D01*
X1294878Y206756D01*
X1294894Y206969D01*
X1294911Y207215D01*
X1294927Y207707D01*
Y207936D01*
Y208166D01*
X1294944Y208363D01*
Y208560D01*
Y208707D01*
Y208822D01*
Y208888D01*
Y208920D01*
Y213972D01*
X1297846D01*
Y207018D01*
D02*
G37*
%LPC*%
G36*
X1246558Y219066D02*
D01*
Y215383D01*
X1246547Y215481D01*
Y215612D01*
X1246536Y215765D01*
X1246514Y215951D01*
X1246481Y216148D01*
X1246448Y216366D01*
X1246405Y216596D01*
X1246339Y216825D01*
X1246273Y217066D01*
X1246186Y217317D01*
X1246088Y217547D01*
X1245967Y217787D01*
X1245836Y218006D01*
X1245683Y218214D01*
X1245672Y218224D01*
X1245650Y218246D01*
X1245618Y218290D01*
X1245563Y218345D01*
X1245497Y218410D01*
X1245410Y218487D01*
X1245323Y218563D01*
X1245213Y218640D01*
X1245093Y218716D01*
X1244962Y218793D01*
X1244820Y218869D01*
X1244667Y218935D01*
X1244503Y218989D01*
X1244328Y219033D01*
X1244153Y219055D01*
X1243956Y219066D01*
X1246558D01*
X1241322D01*
X1243869D01*
X1243771Y219055D01*
X1243639Y219044D01*
X1243497Y219011D01*
X1243333Y218979D01*
X1243169Y218924D01*
X1243005Y218858D01*
X1242984Y218847D01*
X1242929Y218826D01*
X1242852Y218782D01*
X1242743Y218716D01*
X1242634Y218640D01*
X1242503Y218541D01*
X1242371Y218432D01*
X1242251Y218301D01*
X1242240Y218290D01*
X1242218Y218257D01*
X1242175Y218202D01*
X1242120Y218126D01*
X1242054Y218028D01*
X1241978Y217897D01*
X1241901Y217754D01*
X1241814Y217580D01*
X1241803Y217558D01*
X1241781Y217492D01*
X1241737Y217405D01*
X1241683Y217284D01*
X1241628Y217142D01*
X1241574Y216989D01*
X1241519Y216836D01*
X1241475Y216672D01*
Y216661D01*
X1241464Y216651D01*
Y216618D01*
X1241453Y216574D01*
X1241442Y216519D01*
X1241432Y216443D01*
X1241399Y216290D01*
X1241366Y216082D01*
X1241344Y215853D01*
X1241333Y215590D01*
X1241322Y215306D01*
Y213820D01*
X1241333Y213721D01*
Y213590D01*
X1241344Y213437D01*
X1241366Y213262D01*
X1241399Y213054D01*
X1241432Y212847D01*
X1241475Y212617D01*
X1241541Y212377D01*
X1241606Y212136D01*
X1241694Y211896D01*
X1241792Y211655D01*
X1241912Y211426D01*
X1242054Y211196D01*
X1242208Y210989D01*
X1242218Y210978D01*
X1242240Y210956D01*
X1242273Y210912D01*
X1242328Y210858D01*
X1242393Y210792D01*
X1242481Y210726D01*
X1242568Y210650D01*
X1242677Y210573D01*
X1242798Y210497D01*
X1242929Y210420D01*
X1243071Y210355D01*
X1243224Y210289D01*
X1243388Y210234D01*
X1243563Y210191D01*
X1243738Y210169D01*
X1243934Y210158D01*
X1244022D01*
X1244120Y210169D01*
X1244240Y210180D01*
X1244383Y210202D01*
X1244547Y210245D01*
X1244710Y210289D01*
X1244885Y210355D01*
X1244907Y210366D01*
X1244962Y210388D01*
X1245038Y210431D01*
X1245148Y210497D01*
X1245257Y210573D01*
X1245388Y210672D01*
X1245519Y210781D01*
X1245640Y210912D01*
X1245650Y210923D01*
X1245672Y210956D01*
X1245716Y211011D01*
X1245771Y211087D01*
X1245836Y211186D01*
X1245902Y211306D01*
X1245989Y211448D01*
X1246077Y211623D01*
Y211634D01*
X1246088Y211645D01*
X1246109Y211710D01*
X1246153Y211808D01*
X1246208Y211929D01*
X1246262Y212071D01*
X1246306Y212224D01*
X1246361Y212388D01*
X1246405Y212541D01*
Y212552D01*
X1246416Y212563D01*
Y212595D01*
X1246426Y212639D01*
X1246437Y212694D01*
X1246448Y212770D01*
X1246481Y212923D01*
X1246514Y213131D01*
X1246536Y213361D01*
X1246547Y213612D01*
X1246558Y213896D01*
Y210388D01*
Y219066D01*
D02*
G37*
G36*
X1254897Y218979D02*
X1249673D01*
X1252001D01*
Y210923D01*
X1249990D01*
X1249946Y210912D01*
X1249848Y210890D01*
X1249771Y210836D01*
X1249760Y210825D01*
X1249716Y210781D01*
X1249684Y210716D01*
X1249673Y210639D01*
Y210355D01*
Y210617D01*
X1249684Y210562D01*
X1249716Y210497D01*
X1249771Y210431D01*
X1249782Y210420D01*
X1249837Y210399D01*
X1249924Y210366D01*
X1250055Y210355D01*
X1249673D01*
X1254580D01*
X1254624Y210366D01*
X1254722Y210388D01*
X1254777Y210409D01*
X1254810Y210431D01*
X1254821Y210442D01*
X1254854Y210486D01*
X1254886Y210552D01*
X1254897Y210639D01*
Y217875D01*
X1254886Y217918D01*
X1254864Y217973D01*
X1254832Y218039D01*
X1254821Y218050D01*
X1254788Y218071D01*
X1254711Y218104D01*
X1254613Y218148D01*
X1252001Y218979D01*
X1254897D01*
D02*
G37*
G36*
X1235147Y218869D02*
X1233966D01*
Y213306D01*
X1233431D01*
X1233376Y213295D01*
X1233289Y213273D01*
X1233234Y213251D01*
X1233201Y213218D01*
X1233190Y213208D01*
X1233157Y213164D01*
X1233125Y213098D01*
X1233114Y213022D01*
Y213000D01*
X1233125Y212945D01*
X1233146Y212880D01*
X1233201Y212814D01*
X1233223Y212803D01*
X1233267Y212781D01*
X1233365Y212749D01*
X1233420Y212737D01*
X1233966D01*
Y210923D01*
X1233420D01*
X1233365Y210912D01*
X1233278Y210890D01*
X1233223Y210869D01*
X1233190Y210836D01*
X1233179Y210825D01*
X1233146Y210781D01*
X1233114Y210716D01*
X1233103Y210639D01*
Y210355D01*
X1238327D01*
D01*
X1235682D01*
X1235726Y210366D01*
X1235824Y210388D01*
X1235868Y210409D01*
X1235912Y210431D01*
X1235923Y210442D01*
X1235945Y210486D01*
X1235977Y210552D01*
X1235988Y210639D01*
Y210650D01*
Y210661D01*
X1235977Y210704D01*
X1235956Y210770D01*
X1235912Y210836D01*
X1235890Y210847D01*
X1235835Y210879D01*
X1235802Y210901D01*
X1235748Y210912D01*
X1235682Y210923D01*
X1234535D01*
Y212737D01*
X1238316D01*
X1238327Y213393D01*
X1235147Y218869D01*
D02*
G37*
%LPD*%
G36*
X1244033Y218487D02*
X1244098Y218476D01*
X1244186Y218465D01*
X1244273Y218443D01*
X1244383Y218410D01*
X1244492Y218367D01*
X1244612Y218312D01*
X1244732Y218246D01*
X1244864Y218170D01*
X1244984Y218071D01*
X1245115Y217962D01*
X1245235Y217831D01*
X1245344Y217678D01*
X1245454Y217503D01*
X1245465Y217492D01*
X1245475Y217459D01*
X1245508Y217405D01*
X1245541Y217328D01*
X1245585Y217241D01*
X1245629Y217131D01*
X1245672Y217000D01*
X1245727Y216858D01*
X1245771Y216694D01*
X1245825Y216519D01*
X1245869Y216334D01*
X1245913Y216137D01*
X1245945Y215918D01*
X1245967Y215700D01*
X1245989Y215470D01*
Y215230D01*
Y213983D01*
Y213973D01*
Y213951D01*
Y213907D01*
Y213841D01*
X1245978Y213776D01*
Y213688D01*
X1245957Y213492D01*
X1245935Y213262D01*
X1245902Y213011D01*
X1245847Y212737D01*
X1245771Y212475D01*
Y212464D01*
X1245760Y212442D01*
X1245749Y212410D01*
X1245727Y212355D01*
X1245683Y212235D01*
X1245618Y212071D01*
X1245541Y211896D01*
X1245454Y211710D01*
X1245355Y211524D01*
X1245246Y211360D01*
X1245235Y211349D01*
X1245213Y211328D01*
X1245180Y211284D01*
X1245126Y211229D01*
X1245071Y211164D01*
X1244995Y211098D01*
X1244907Y211032D01*
X1244809Y210967D01*
X1244787Y210956D01*
X1244743Y210934D01*
X1244667Y210890D01*
X1244557Y210847D01*
X1244426Y210803D01*
X1244273Y210759D01*
X1244109Y210737D01*
X1243934Y210726D01*
X1243891D01*
X1243847Y210737D01*
X1243781D01*
X1243694Y210759D01*
X1243606Y210770D01*
X1243497Y210803D01*
X1243388Y210847D01*
X1243268Y210890D01*
X1243147Y210956D01*
X1243027Y211043D01*
X1242896Y211131D01*
X1242776Y211240D01*
X1242656Y211371D01*
X1242546Y211524D01*
X1242437Y211699D01*
X1242426Y211710D01*
X1242415Y211743D01*
X1242382Y211797D01*
X1242350Y211874D01*
X1242306Y211972D01*
X1242262Y212082D01*
X1242218Y212213D01*
X1242164Y212355D01*
X1242109Y212519D01*
X1242065Y212694D01*
X1242022Y212880D01*
X1241978Y213076D01*
X1241945Y213295D01*
X1241912Y213513D01*
X1241901Y213743D01*
X1241891Y213983D01*
Y215230D01*
Y215241D01*
Y215262D01*
Y215306D01*
Y215372D01*
X1241901Y215437D01*
Y215525D01*
X1241923Y215721D01*
X1241945Y215951D01*
X1241989Y216202D01*
X1242043Y216465D01*
X1242120Y216727D01*
Y216738D01*
X1242131Y216760D01*
X1242142Y216792D01*
X1242164Y216847D01*
X1242208Y216967D01*
X1242273Y217131D01*
X1242350Y217306D01*
X1242437Y217492D01*
X1242525Y217678D01*
X1242634Y217842D01*
X1242645Y217853D01*
X1242667Y217886D01*
X1242699Y217929D01*
X1242754Y217984D01*
X1242820Y218050D01*
X1242896Y218115D01*
X1242984Y218192D01*
X1243082Y218257D01*
X1243104Y218268D01*
X1243147Y218290D01*
X1243224Y218334D01*
X1243333Y218377D01*
X1243464Y218421D01*
X1243606Y218465D01*
X1243771Y218487D01*
X1243945Y218498D01*
X1243989D01*
X1244033Y218487D01*
D02*
G37*
G36*
X1254438Y217601D02*
X1254460D01*
X1254515Y217590D01*
X1254580Y217580D01*
X1254635Y217569D01*
X1254646D01*
X1254690Y217580D01*
X1254755Y217601D01*
X1254821Y217645D01*
X1254832Y217656D01*
X1254854Y217700D01*
X1254886Y217765D01*
X1254897Y217853D01*
Y210661D01*
X1254886Y210704D01*
X1254864Y210770D01*
X1254810Y210836D01*
X1254788Y210847D01*
X1254744Y210879D01*
X1254646Y210912D01*
X1254591Y210923D01*
X1252569D01*
Y218192D01*
X1254438Y217601D01*
D02*
G37*
G36*
X1237715Y213306D02*
X1234535D01*
Y218301D01*
X1234830D01*
X1237715Y213306D01*
D02*
G37*
G36*
X1233114Y210562D02*
X1233136Y210497D01*
X1233190Y210431D01*
X1233212Y210420D01*
X1233256Y210399D01*
X1233354Y210366D01*
X1233409Y210355D01*
X1233103D01*
Y210617D01*
X1233114Y210562D01*
D02*
G37*
%LPC*%
G36*
X110270Y16111D02*
X110243D01*
X110161Y16105D01*
X110090Y16094D01*
X110019Y16078D01*
X109954Y16062D01*
X109839Y16007D01*
X109741Y15947D01*
X109670Y15881D01*
X109615Y15832D01*
X109593Y15811D01*
X109582Y15794D01*
X109571Y15783D01*
Y15778D01*
X109528Y15712D01*
X109495Y15641D01*
X109435Y15494D01*
X109391Y15341D01*
X109364Y15188D01*
X109358Y15117D01*
X109347Y15052D01*
X109342Y14997D01*
Y14942D01*
X109337Y14904D01*
Y14871D01*
Y14850D01*
Y14844D01*
Y14724D01*
X109347Y14609D01*
X109358Y14506D01*
X109375Y14407D01*
X109391Y14320D01*
X109413Y14238D01*
X109435Y14162D01*
X109457Y14096D01*
X109478Y14041D01*
X109500Y13987D01*
X109522Y13949D01*
X109539Y13911D01*
X109555Y13883D01*
X109566Y13867D01*
X109571Y13856D01*
X109577Y13850D01*
X109620Y13790D01*
X109675Y13741D01*
X109724Y13698D01*
X109779Y13659D01*
X109833Y13632D01*
X109888Y13605D01*
X109997Y13566D01*
X110090Y13539D01*
X110134Y13534D01*
X110167Y13528D01*
X110194Y13523D01*
X110238D01*
X110341Y13528D01*
X110440Y13545D01*
X110527Y13572D01*
X110609Y13610D01*
X110685Y13648D01*
X110756Y13692D01*
X110822Y13741D01*
X110876Y13796D01*
X110925Y13845D01*
X110969Y13894D01*
X111002Y13938D01*
X111035Y13981D01*
X111056Y14014D01*
X111073Y14041D01*
X111078Y14058D01*
X111084Y14063D01*
Y15565D01*
X111029Y15663D01*
X110975Y15745D01*
X110909Y15816D01*
X110844Y15881D01*
X110773Y15936D01*
X110707Y15980D01*
X110636Y16013D01*
X110565Y16045D01*
X110500Y16067D01*
X110440Y16083D01*
X110385Y16094D01*
X110336Y16100D01*
X110298Y16105D01*
X110270Y16111D01*
D02*
G37*
G36*
X96216D02*
X96189D01*
X96107Y16105D01*
X96036Y16094D01*
X95965Y16078D01*
X95899Y16062D01*
X95785Y16007D01*
X95687Y15947D01*
X95616Y15881D01*
X95561Y15832D01*
X95539Y15811D01*
X95528Y15794D01*
X95517Y15783D01*
Y15778D01*
X95474Y15712D01*
X95441Y15641D01*
X95381Y15494D01*
X95337Y15341D01*
X95310Y15188D01*
X95304Y15117D01*
X95293Y15052D01*
X95288Y14997D01*
Y14942D01*
X95283Y14904D01*
Y14871D01*
Y14850D01*
Y14844D01*
Y14724D01*
X95293Y14609D01*
X95304Y14506D01*
X95321Y14407D01*
X95337Y14320D01*
X95359Y14238D01*
X95381Y14162D01*
X95403Y14096D01*
X95424Y14041D01*
X95446Y13987D01*
X95468Y13949D01*
X95485Y13911D01*
X95501Y13883D01*
X95512Y13867D01*
X95517Y13856D01*
X95523Y13850D01*
X95566Y13790D01*
X95621Y13741D01*
X95670Y13698D01*
X95725Y13659D01*
X95779Y13632D01*
X95834Y13605D01*
X95943Y13566D01*
X96036Y13539D01*
X96080Y13534D01*
X96113Y13528D01*
X96140Y13523D01*
X96184D01*
X96287Y13528D01*
X96386Y13545D01*
X96473Y13572D01*
X96555Y13610D01*
X96631Y13648D01*
X96702Y13692D01*
X96768Y13741D01*
X96822Y13796D01*
X96871Y13845D01*
X96915Y13894D01*
X96948Y13938D01*
X96981Y13981D01*
X97002Y14014D01*
X97019Y14041D01*
X97024Y14058D01*
X97030Y14063D01*
Y15565D01*
X96975Y15663D01*
X96921Y15745D01*
X96855Y15816D01*
X96789Y15881D01*
X96719Y15936D01*
X96653Y15980D01*
X96582Y16013D01*
X96511Y16045D01*
X96446Y16067D01*
X96386Y16083D01*
X96331Y16094D01*
X96282Y16100D01*
X96244Y16105D01*
X96216Y16111D01*
D02*
G37*
G36*
X152372Y16111D02*
X152329D01*
X152230Y16105D01*
X152137Y16089D01*
X152050Y16067D01*
X151974Y16034D01*
X151903Y15996D01*
X151832Y15953D01*
X151772Y15909D01*
X151717Y15865D01*
X151673Y15816D01*
X151630Y15772D01*
X151597Y15729D01*
X151564Y15690D01*
X151542Y15658D01*
X151526Y15636D01*
X151521Y15619D01*
X151515Y15614D01*
Y14031D01*
X151570Y13943D01*
X151624Y13861D01*
X151690Y13796D01*
X151755Y13736D01*
X151821Y13687D01*
X151892Y13648D01*
X151957Y13616D01*
X152023Y13588D01*
X152083Y13566D01*
X152143Y13550D01*
X152198Y13539D01*
X152241Y13528D01*
X152279D01*
X152307Y13523D01*
X152334D01*
X152410Y13528D01*
X152487Y13539D01*
X152558Y13556D01*
X152623Y13577D01*
X152738Y13626D01*
X152831Y13692D01*
X152907Y13752D01*
X152962Y13807D01*
X152978Y13823D01*
X152995Y13839D01*
X153000Y13850D01*
X153006Y13856D01*
X153049Y13921D01*
X153082Y13992D01*
X153142Y14140D01*
X153186Y14293D01*
X153213Y14440D01*
X153224Y14506D01*
X153235Y14571D01*
X153241Y14626D01*
Y14675D01*
X153246Y14718D01*
Y14746D01*
Y14768D01*
Y14773D01*
X153241Y14893D01*
X153235Y15008D01*
X153224Y15112D01*
X153208Y15210D01*
X153191Y15297D01*
X153170Y15379D01*
X153148Y15456D01*
X153126Y15521D01*
X153104Y15581D01*
X153082Y15630D01*
X153060Y15674D01*
X153044Y15707D01*
X153027Y15740D01*
X153017Y15756D01*
X153006Y15767D01*
Y15772D01*
X152956Y15832D01*
X152907Y15881D01*
X152853Y15931D01*
X152798Y15969D01*
X152738Y16002D01*
X152683Y16029D01*
X152574Y16067D01*
X152476Y16094D01*
X152438Y16100D01*
X152400Y16105D01*
X152372Y16111D01*
D02*
G37*
G36*
X29309Y16111D02*
X29266D01*
X29167Y16105D01*
X29075Y16089D01*
X28987Y16067D01*
X28911Y16034D01*
X28840Y15996D01*
X28769Y15953D01*
X28709Y15909D01*
X28654Y15865D01*
X28611Y15816D01*
X28567Y15772D01*
X28534Y15729D01*
X28501Y15690D01*
X28479Y15658D01*
X28463Y15636D01*
X28458Y15619D01*
X28452Y15614D01*
Y14031D01*
X28507Y13943D01*
X28561Y13861D01*
X28627Y13796D01*
X28692Y13736D01*
X28758Y13687D01*
X28829Y13648D01*
X28894Y13616D01*
X28960Y13588D01*
X29020Y13566D01*
X29080Y13550D01*
X29135Y13539D01*
X29178Y13528D01*
X29217D01*
X29244Y13523D01*
X29271D01*
X29348Y13528D01*
X29424Y13539D01*
X29495Y13555D01*
X29561Y13577D01*
X29675Y13626D01*
X29768Y13692D01*
X29844Y13752D01*
X29899Y13807D01*
X29915Y13823D01*
X29932Y13839D01*
X29937Y13850D01*
X29943Y13856D01*
X29986Y13921D01*
X30019Y13992D01*
X30079Y14140D01*
X30123Y14293D01*
X30150Y14440D01*
X30161Y14506D01*
X30172Y14571D01*
X30178Y14626D01*
Y14675D01*
X30183Y14718D01*
Y14746D01*
Y14768D01*
Y14773D01*
X30178Y14893D01*
X30172Y15008D01*
X30161Y15112D01*
X30145Y15210D01*
X30128Y15297D01*
X30106Y15379D01*
X30085Y15456D01*
X30063Y15521D01*
X30041Y15581D01*
X30019Y15630D01*
X29997Y15674D01*
X29981Y15707D01*
X29965Y15740D01*
X29954Y15756D01*
X29943Y15767D01*
Y15772D01*
X29894Y15832D01*
X29844Y15881D01*
X29790Y15931D01*
X29735Y15969D01*
X29675Y16002D01*
X29621Y16029D01*
X29511Y16067D01*
X29413Y16094D01*
X29375Y16100D01*
X29337Y16105D01*
X29309Y16111D01*
D02*
G37*
G36*
X36287Y14762D02*
X35774D01*
Y14047D01*
X35823Y13965D01*
X35878Y13894D01*
X35938Y13828D01*
X35992Y13774D01*
X36047Y13730D01*
X36091Y13703D01*
X36123Y13681D01*
X36129Y13676D01*
X36134D01*
X36227Y13626D01*
X36325Y13594D01*
X36413Y13566D01*
X36495Y13550D01*
X36560Y13539D01*
X36615Y13534D01*
X36664D01*
X36768Y13539D01*
X36861Y13555D01*
X36942Y13583D01*
X37008Y13610D01*
X37063Y13637D01*
X37106Y13665D01*
X37128Y13681D01*
X37139Y13687D01*
X37199Y13752D01*
X37248Y13823D01*
X37281Y13894D01*
X37303Y13965D01*
X37314Y14025D01*
X37319Y14080D01*
X37325Y14112D01*
Y14118D01*
Y14123D01*
X37319Y14183D01*
X37314Y14238D01*
X37297Y14287D01*
X37275Y14336D01*
X37226Y14418D01*
X37155Y14495D01*
X37073Y14555D01*
X36981Y14604D01*
X36882Y14648D01*
X36779Y14680D01*
X36680Y14708D01*
X36582Y14729D01*
X36489Y14740D01*
X36407Y14751D01*
X36336Y14757D01*
X36287Y14762D01*
D02*
G37*
G36*
X136249Y17323D02*
X136205D01*
X136118Y17318D01*
X136036Y17301D01*
X135970Y17274D01*
X135910Y17252D01*
X135867Y17225D01*
X135828Y17197D01*
X135807Y17181D01*
X135801Y17176D01*
X135747Y17121D01*
X135708Y17061D01*
X135681Y17001D01*
X135665Y16946D01*
X135648Y16897D01*
X135643Y16859D01*
Y16831D01*
Y16821D01*
X135648Y16750D01*
X135654Y16684D01*
X135670Y16630D01*
X135681Y16580D01*
X135697Y16537D01*
X135714Y16509D01*
X135719Y16488D01*
X135725Y16482D01*
X135758Y16433D01*
X135801Y16378D01*
X135850Y16329D01*
X135899Y16286D01*
X135949Y16247D01*
X135981Y16215D01*
X136009Y16193D01*
X136020Y16187D01*
X136396Y15925D01*
X136462Y16007D01*
X136522Y16089D01*
X136571Y16165D01*
X136615Y16242D01*
X136653Y16307D01*
X136680Y16373D01*
X136708Y16428D01*
X136724Y16482D01*
X136740Y16531D01*
X136751Y16575D01*
X136762Y16608D01*
X136768Y16641D01*
X136773Y16662D01*
Y16679D01*
Y16690D01*
Y16695D01*
X136768Y16793D01*
X136751Y16881D01*
X136724Y16957D01*
X136697Y17017D01*
X136669Y17072D01*
X136642Y17110D01*
X136626Y17137D01*
X136620Y17143D01*
X136560Y17203D01*
X136489Y17246D01*
X136424Y17279D01*
X136353Y17301D01*
X136298Y17312D01*
X136249Y17323D01*
D02*
G37*
G36*
X136516Y15221D02*
X135381Y13856D01*
X135452Y13796D01*
X135528Y13741D01*
X135605Y13692D01*
X135676Y13648D01*
X135752Y13616D01*
X135823Y13588D01*
X135954Y13545D01*
X136014Y13528D01*
X136069Y13517D01*
X136118Y13512D01*
X136156Y13506D01*
X136194Y13501D01*
X136238D01*
X136391Y13512D01*
X136522Y13534D01*
X136637Y13572D01*
X136735Y13616D01*
X136811Y13654D01*
X136866Y13692D01*
X136882Y13703D01*
X136899Y13714D01*
X136904Y13725D01*
X136910D01*
X136953Y13769D01*
X136992Y13818D01*
X137051Y13916D01*
X137095Y14020D01*
X137122Y14112D01*
X137144Y14200D01*
X137150Y14238D01*
Y14271D01*
X137155Y14293D01*
Y14314D01*
Y14325D01*
Y14331D01*
X137150Y14407D01*
X137133Y14489D01*
X137106Y14560D01*
X137073Y14637D01*
X137030Y14708D01*
X136986Y14773D01*
X136888Y14893D01*
X136839Y14948D01*
X136790Y14997D01*
X136746Y15041D01*
X136702Y15079D01*
X136669Y15106D01*
X136642Y15128D01*
X136626Y15139D01*
X136620Y15144D01*
X136516Y15221D01*
D02*
G37*
G36*
X160813Y16127D02*
X160715D01*
X160650Y16116D01*
X160529Y16089D01*
X160431Y16045D01*
X160344Y16002D01*
X160278Y15958D01*
X160229Y15914D01*
X160202Y15887D01*
X160191Y15881D01*
Y15876D01*
X160120Y15778D01*
X160060Y15663D01*
X160016Y15549D01*
X159984Y15434D01*
X159967Y15336D01*
X159956Y15292D01*
X159951Y15254D01*
Y15221D01*
X159945Y15199D01*
Y15183D01*
Y15177D01*
Y15134D01*
X161682D01*
X161649Y15297D01*
X161611Y15445D01*
X161562Y15570D01*
X161534Y15625D01*
X161507Y15674D01*
X161485Y15718D01*
X161458Y15756D01*
X161441Y15789D01*
X161419Y15816D01*
X161403Y15838D01*
X161392Y15854D01*
X161381Y15860D01*
Y15865D01*
X161332Y15909D01*
X161283Y15953D01*
X161185Y16018D01*
X161081Y16062D01*
X160988Y16094D01*
X160906Y16116D01*
X160868Y16122D01*
X160841D01*
X160813Y16127D01*
D02*
G37*
G36*
X145083D02*
X144985D01*
X144919Y16116D01*
X144799Y16089D01*
X144701Y16045D01*
X144614Y16002D01*
X144548Y15958D01*
X144499Y15914D01*
X144472Y15887D01*
X144461Y15881D01*
Y15876D01*
X144390Y15778D01*
X144330Y15663D01*
X144286Y15549D01*
X144253Y15434D01*
X144237Y15336D01*
X144226Y15292D01*
X144220Y15254D01*
Y15221D01*
X144215Y15199D01*
Y15183D01*
Y15177D01*
Y15134D01*
X145951D01*
X145919Y15297D01*
X145880Y15445D01*
X145831Y15570D01*
X145804Y15625D01*
X145777Y15674D01*
X145755Y15718D01*
X145728Y15756D01*
X145711Y15789D01*
X145689Y15816D01*
X145673Y15838D01*
X145662Y15854D01*
X145651Y15860D01*
Y15865D01*
X145602Y15909D01*
X145553Y15953D01*
X145455Y16018D01*
X145351Y16062D01*
X145258Y16094D01*
X145176Y16116D01*
X145138Y16122D01*
X145110D01*
X145083Y16127D01*
D02*
G37*
G36*
X119563Y16127D02*
X119465D01*
X119399Y16116D01*
X119279Y16089D01*
X119181Y16045D01*
X119094Y16002D01*
X119028Y15958D01*
X118979Y15914D01*
X118952Y15887D01*
X118941Y15881D01*
Y15876D01*
X118870Y15778D01*
X118810Y15663D01*
X118766Y15548D01*
X118733Y15434D01*
X118717Y15336D01*
X118706Y15292D01*
X118701Y15254D01*
Y15221D01*
X118695Y15199D01*
Y15183D01*
Y15177D01*
Y15134D01*
X120431D01*
X120399Y15297D01*
X120360Y15445D01*
X120311Y15570D01*
X120284Y15625D01*
X120257Y15674D01*
X120235Y15718D01*
X120207Y15756D01*
X120191Y15789D01*
X120169Y15816D01*
X120153Y15838D01*
X120142Y15854D01*
X120131Y15860D01*
Y15865D01*
X120082Y15909D01*
X120033Y15953D01*
X119934Y16018D01*
X119831Y16062D01*
X119738Y16094D01*
X119656Y16116D01*
X119618Y16122D01*
X119590D01*
X119563Y16127D01*
D02*
G37*
G36*
X105083D02*
X104985D01*
X104920Y16116D01*
X104799Y16089D01*
X104701Y16045D01*
X104614Y16002D01*
X104548Y15958D01*
X104499Y15914D01*
X104472Y15887D01*
X104461Y15881D01*
Y15876D01*
X104390Y15778D01*
X104330Y15663D01*
X104286Y15548D01*
X104253Y15434D01*
X104237Y15336D01*
X104226Y15292D01*
X104221Y15254D01*
Y15221D01*
X104215Y15199D01*
Y15183D01*
Y15177D01*
Y15134D01*
X105951D01*
X105919Y15297D01*
X105880Y15445D01*
X105831Y15570D01*
X105804Y15625D01*
X105777Y15674D01*
X105755Y15718D01*
X105728Y15756D01*
X105711Y15789D01*
X105689Y15816D01*
X105673Y15838D01*
X105662Y15854D01*
X105651Y15860D01*
Y15865D01*
X105602Y15909D01*
X105553Y15953D01*
X105455Y16018D01*
X105351Y16062D01*
X105258Y16094D01*
X105176Y16116D01*
X105138Y16122D01*
X105111D01*
X105083Y16127D01*
D02*
G37*
G36*
X165733Y17241D02*
X165018D01*
X164892Y17236D01*
X164772Y17219D01*
X164663Y17197D01*
X164559Y17165D01*
X164466Y17132D01*
X164379Y17094D01*
X164302Y17050D01*
X164231Y17012D01*
X164166Y16968D01*
X164111Y16930D01*
X164068Y16892D01*
X164029Y16859D01*
X163997Y16832D01*
X163975Y16810D01*
X163964Y16793D01*
X163958Y16788D01*
X163893Y16701D01*
X163838Y16608D01*
X163784Y16515D01*
X163745Y16411D01*
X163707Y16307D01*
X163680Y16209D01*
X163631Y16013D01*
X163620Y15920D01*
X163609Y15832D01*
X163598Y15756D01*
X163593Y15690D01*
X163587Y15636D01*
Y15592D01*
Y15570D01*
Y15559D01*
Y15286D01*
X163593Y15139D01*
X163603Y14997D01*
X163625Y14866D01*
X163647Y14746D01*
X163680Y14631D01*
X163713Y14527D01*
X163751Y14435D01*
X163784Y14347D01*
X163822Y14276D01*
X163860Y14211D01*
X163893Y14151D01*
X163926Y14107D01*
X163947Y14069D01*
X163969Y14047D01*
X163980Y14031D01*
X163986Y14025D01*
X164062Y13949D01*
X164144Y13883D01*
X164231Y13823D01*
X164324Y13774D01*
X164417Y13730D01*
X164510Y13698D01*
X164597Y13665D01*
X164685Y13643D01*
X164767Y13626D01*
X164843Y13610D01*
X164914Y13599D01*
X164974Y13594D01*
X165018D01*
X165056Y13588D01*
X165733D01*
Y17241D01*
D02*
G37*
G36*
X130237Y16984D02*
X129446Y14806D01*
X131029D01*
X130237Y16984D01*
D02*
G37*
G36*
X57985Y17241D02*
X57046D01*
X56877Y17230D01*
X56795Y17219D01*
X56724Y17203D01*
X56659Y17181D01*
X56599Y17165D01*
X56544Y17143D01*
X56495Y17121D01*
X56451Y17099D01*
X56413Y17077D01*
X56380Y17055D01*
X56353Y17039D01*
X56331Y17023D01*
X56314Y17012D01*
X56309Y17006D01*
X56304Y17001D01*
X56260Y16957D01*
X56216Y16908D01*
X56151Y16799D01*
X56107Y16690D01*
X56074Y16586D01*
X56052Y16488D01*
X56047Y16449D01*
Y16411D01*
X56042Y16384D01*
Y16362D01*
Y16346D01*
Y16340D01*
X56047Y16269D01*
X56052Y16198D01*
X56085Y16073D01*
X56129Y15963D01*
X56178Y15876D01*
X56227Y15800D01*
X56271Y15751D01*
X56304Y15718D01*
X56309Y15712D01*
X56314Y15707D01*
X56369Y15663D01*
X56424Y15630D01*
X56538Y15570D01*
X56664Y15532D01*
X56779Y15499D01*
X56882Y15483D01*
X56926Y15477D01*
X56964D01*
X56997Y15472D01*
X57985D01*
Y17241D01*
D02*
G37*
G36*
X141616Y16111D02*
X141572D01*
X141474Y16105D01*
X141381Y16089D01*
X141294Y16067D01*
X141212Y16034D01*
X141136Y15996D01*
X141070Y15958D01*
X141010Y15909D01*
X140955Y15865D01*
X140906Y15822D01*
X140868Y15778D01*
X140830Y15734D01*
X140803Y15696D01*
X140781Y15663D01*
X140764Y15641D01*
X140759Y15625D01*
X140753Y15619D01*
Y14025D01*
X140808Y13938D01*
X140863Y13861D01*
X140928Y13790D01*
X140994Y13736D01*
X141059Y13687D01*
X141130Y13643D01*
X141196Y13610D01*
X141261Y13588D01*
X141327Y13566D01*
X141387Y13550D01*
X141441Y13539D01*
X141485Y13528D01*
X141523D01*
X141551Y13523D01*
X141578D01*
X141654Y13528D01*
X141731Y13539D01*
X141796Y13556D01*
X141862Y13577D01*
X141976Y13626D01*
X142075Y13692D01*
X142151Y13752D01*
X142206Y13807D01*
X142222Y13823D01*
X142239Y13839D01*
X142244Y13850D01*
X142250Y13856D01*
X142293Y13921D01*
X142326Y13992D01*
X142386Y14140D01*
X142430Y14293D01*
X142457Y14440D01*
X142468Y14506D01*
X142479Y14571D01*
X142484Y14626D01*
Y14675D01*
X142490Y14718D01*
Y14746D01*
Y14768D01*
Y14773D01*
X142484Y14893D01*
X142479Y15008D01*
X142468Y15112D01*
X142452Y15210D01*
X142435Y15297D01*
X142413Y15379D01*
X142391Y15456D01*
X142370Y15521D01*
X142348Y15581D01*
X142326Y15630D01*
X142304Y15674D01*
X142288Y15707D01*
X142271Y15740D01*
X142260Y15756D01*
X142250Y15767D01*
Y15772D01*
X142200Y15832D01*
X142151Y15881D01*
X142097Y15931D01*
X142042Y15969D01*
X141982Y16002D01*
X141927Y16029D01*
X141818Y16067D01*
X141720Y16094D01*
X141682Y16100D01*
X141643Y16105D01*
X141616Y16111D01*
D02*
G37*
G36*
X101616Y16111D02*
X101573D01*
X101474Y16105D01*
X101381Y16089D01*
X101294Y16067D01*
X101212Y16034D01*
X101136Y15996D01*
X101070Y15958D01*
X101010Y15909D01*
X100955Y15865D01*
X100906Y15821D01*
X100868Y15778D01*
X100830Y15734D01*
X100803Y15696D01*
X100781Y15663D01*
X100764Y15641D01*
X100759Y15625D01*
X100753Y15619D01*
Y14025D01*
X100808Y13938D01*
X100863Y13861D01*
X100928Y13790D01*
X100994Y13736D01*
X101059Y13687D01*
X101130Y13643D01*
X101196Y13610D01*
X101261Y13588D01*
X101327Y13566D01*
X101387Y13550D01*
X101441Y13539D01*
X101485Y13528D01*
X101523D01*
X101551Y13523D01*
X101578D01*
X101654Y13528D01*
X101731Y13539D01*
X101796Y13555D01*
X101862Y13577D01*
X101977Y13626D01*
X102075Y13692D01*
X102151Y13752D01*
X102206Y13807D01*
X102222Y13823D01*
X102239Y13839D01*
X102244Y13850D01*
X102250Y13856D01*
X102293Y13921D01*
X102326Y13992D01*
X102386Y14140D01*
X102430Y14293D01*
X102457Y14440D01*
X102468Y14506D01*
X102479Y14571D01*
X102484Y14626D01*
Y14675D01*
X102490Y14718D01*
Y14746D01*
Y14768D01*
Y14773D01*
X102484Y14893D01*
X102479Y15008D01*
X102468Y15112D01*
X102452Y15210D01*
X102435Y15297D01*
X102413Y15379D01*
X102392Y15456D01*
X102370Y15521D01*
X102348Y15581D01*
X102326Y15630D01*
X102304Y15674D01*
X102288Y15707D01*
X102271Y15740D01*
X102260Y15756D01*
X102250Y15767D01*
Y15772D01*
X102200Y15832D01*
X102151Y15881D01*
X102097Y15931D01*
X102042Y15969D01*
X101982Y16002D01*
X101927Y16029D01*
X101818Y16067D01*
X101720Y16094D01*
X101682Y16100D01*
X101643Y16105D01*
X101616Y16111D01*
D02*
G37*
G36*
X61425Y17279D02*
X61398D01*
X61289Y17274D01*
X61185Y17263D01*
X61087Y17236D01*
X60999Y17208D01*
X60917Y17176D01*
X60841Y17137D01*
X60770Y17099D01*
X60704Y17055D01*
X60650Y17012D01*
X60601Y16973D01*
X60557Y16935D01*
X60524Y16903D01*
X60497Y16875D01*
X60480Y16853D01*
X60470Y16837D01*
X60464Y16831D01*
X60404Y16744D01*
X60355Y16651D01*
X60311Y16553D01*
X60273Y16449D01*
X60240Y16340D01*
X60213Y16236D01*
X60175Y16034D01*
X60158Y15936D01*
X60148Y15849D01*
X60142Y15772D01*
X60136Y15701D01*
X60131Y15647D01*
Y15603D01*
Y15576D01*
Y15565D01*
Y15215D01*
X60136Y15068D01*
X60148Y14931D01*
X60164Y14800D01*
X60186Y14680D01*
X60213Y14571D01*
X60240Y14467D01*
X60273Y14375D01*
X60306Y14293D01*
X60333Y14222D01*
X60366Y14156D01*
X60393Y14101D01*
X60421Y14058D01*
X60437Y14020D01*
X60453Y13998D01*
X60464Y13981D01*
X60470Y13976D01*
X60535Y13900D01*
X60601Y13834D01*
X60672Y13774D01*
X60748Y13725D01*
X60825Y13687D01*
X60901Y13648D01*
X60977Y13621D01*
X61048Y13599D01*
X61119Y13583D01*
X61179Y13566D01*
X61239Y13555D01*
X61289Y13550D01*
X61332D01*
X61360Y13545D01*
X61387D01*
X61496Y13550D01*
X61600Y13566D01*
X61693Y13588D01*
X61786Y13616D01*
X61867Y13654D01*
X61944Y13692D01*
X62015Y13730D01*
X62075Y13774D01*
X62135Y13818D01*
X62184Y13856D01*
X62222Y13900D01*
X62261Y13932D01*
X62288Y13960D01*
X62304Y13981D01*
X62315Y13998D01*
X62321Y14003D01*
X62381Y14091D01*
X62430Y14189D01*
X62473Y14293D01*
X62512Y14396D01*
X62544Y14500D01*
X62572Y14604D01*
X62610Y14806D01*
X62626Y14899D01*
X62637Y14986D01*
X62643Y15063D01*
X62648Y15134D01*
X62654Y15188D01*
Y15232D01*
Y15254D01*
Y15265D01*
Y15603D01*
X62648Y15745D01*
X62637Y15881D01*
X62621Y16007D01*
X62599Y16127D01*
X62572Y16236D01*
X62544Y16340D01*
X62512Y16428D01*
X62484Y16515D01*
X62452Y16586D01*
X62419Y16651D01*
X62392Y16706D01*
X62370Y16750D01*
X62348Y16788D01*
X62331Y16810D01*
X62321Y16826D01*
X62315Y16831D01*
X62249Y16908D01*
X62179Y16979D01*
X62102Y17039D01*
X62031Y17088D01*
X61955Y17132D01*
X61878Y17170D01*
X61802Y17197D01*
X61731Y17225D01*
X61660Y17241D01*
X61600Y17257D01*
X61540Y17268D01*
X61491Y17274D01*
X61452D01*
X61425Y17279D01*
D02*
G37*
G36*
X18739Y16127D02*
X18695D01*
X18613Y16122D01*
X18537Y16111D01*
X18460Y16094D01*
X18395Y16073D01*
X18269Y16013D01*
X18171Y15953D01*
X18127Y15914D01*
X18089Y15887D01*
X18056Y15854D01*
X18029Y15827D01*
X18007Y15805D01*
X17991Y15789D01*
X17985Y15778D01*
X17980Y15772D01*
X17931Y15701D01*
X17887Y15630D01*
X17854Y15554D01*
X17821Y15477D01*
X17772Y15325D01*
X17740Y15177D01*
X17729Y15106D01*
X17723Y15046D01*
X17712Y14986D01*
Y14937D01*
X17707Y14899D01*
Y14871D01*
Y14850D01*
Y14844D01*
X17712Y14729D01*
X17718Y14620D01*
X17729Y14516D01*
X17751Y14418D01*
X17767Y14331D01*
X17789Y14249D01*
X17816Y14173D01*
X17838Y14107D01*
X17865Y14047D01*
X17887Y13998D01*
X17914Y13954D01*
X17931Y13916D01*
X17947Y13889D01*
X17964Y13867D01*
X17969Y13856D01*
X17974Y13850D01*
X18024Y13790D01*
X18078Y13736D01*
X18138Y13687D01*
X18198Y13648D01*
X18253Y13616D01*
X18313Y13588D01*
X18428Y13545D01*
X18526Y13517D01*
X18570Y13512D01*
X18608Y13506D01*
X18641Y13501D01*
X18684D01*
X18766Y13506D01*
X18843Y13517D01*
X18919Y13534D01*
X18990Y13555D01*
X19110Y13610D01*
X19214Y13676D01*
X19257Y13708D01*
X19296Y13741D01*
X19329Y13769D01*
X19356Y13796D01*
X19378Y13818D01*
X19394Y13834D01*
X19399Y13845D01*
X19405Y13850D01*
X19449Y13916D01*
X19492Y13992D01*
X19558Y14140D01*
X19602Y14298D01*
X19634Y14446D01*
X19645Y14511D01*
X19651Y14571D01*
X19661Y14631D01*
Y14680D01*
X19667Y14718D01*
Y14746D01*
Y14768D01*
Y14773D01*
X19661Y14893D01*
X19656Y15002D01*
X19640Y15106D01*
X19623Y15204D01*
X19607Y15292D01*
X19580Y15374D01*
X19558Y15450D01*
X19531Y15516D01*
X19509Y15576D01*
X19481Y15630D01*
X19459Y15674D01*
X19443Y15707D01*
X19421Y15734D01*
X19410Y15756D01*
X19405Y15767D01*
X19399Y15772D01*
X19345Y15832D01*
X19290Y15887D01*
X19236Y15936D01*
X19176Y15980D01*
X19116Y16013D01*
X19061Y16040D01*
X18946Y16083D01*
X18848Y16111D01*
X18804Y16116D01*
X18766Y16122D01*
X18739Y16127D01*
D02*
G37*
G36*
X1262463Y191516D02*
X1260938D01*
Y189745D01*
X1262463Y189712D01*
Y191516D01*
D02*
G37*
G36*
X1284940Y195895D02*
X1284234Y191541D01*
X1285653Y191541D01*
X1284940Y195895D01*
D02*
G37*
%LPD*%
D14*
X208000Y16000D02*
D03*
X436000Y14000D02*
D03*
X630000D02*
D03*
X958000D02*
D03*
X1556000Y526000D02*
D03*
X1276000Y14000D02*
D03*
X70000Y526000D02*
D03*
X1658000Y14000D02*
D03*
X1356000Y130000D02*
D03*
X1190000D02*
D03*
X958000Y134000D02*
D03*
X180000D02*
D03*
X1525000Y415000D02*
D03*
X1275000D02*
D03*
X985000D02*
D03*
X665000D02*
D03*
X365000D02*
D03*
X70500Y415500D02*
D03*
D15*
X301858Y470325D02*
D03*
X262488D02*
D03*
X564358Y282824D02*
D03*
X524988D02*
D03*
X86258Y57824D02*
D03*
X46888D02*
D03*
X1464458Y132825D02*
D03*
X1425088D02*
D03*
X234388Y57824D02*
D03*
X273758D02*
D03*
X1649988Y357824D02*
D03*
X1689358D02*
D03*
X206288Y132825D02*
D03*
X245658D02*
D03*
X281288D02*
D03*
X320658D02*
D03*
X37488Y357824D02*
D03*
X76858D02*
D03*
X224988Y282824D02*
D03*
X264358D02*
D03*
X431288Y132825D02*
D03*
X470658D02*
D03*
X1256288D02*
D03*
X1295658D02*
D03*
X599988Y282824D02*
D03*
X639358D02*
D03*
X449988D02*
D03*
X489358D02*
D03*
X862488Y357824D02*
D03*
X901858D02*
D03*
X881288Y132825D02*
D03*
X920658D02*
D03*
X1256288Y470325D02*
D03*
X1295658D02*
D03*
X243788Y207824D02*
D03*
X283158D02*
D03*
X1331288Y57824D02*
D03*
X1370658D02*
D03*
X374988Y282824D02*
D03*
X414358D02*
D03*
X918788Y207824D02*
D03*
X958158D02*
D03*
X149988Y282824D02*
D03*
X189358D02*
D03*
X1181288Y470425D02*
D03*
X1220658D02*
D03*
X1331288Y357824D02*
D03*
X1370658D02*
D03*
X1331288Y282824D02*
D03*
X1370658D02*
D03*
X1331288Y470325D02*
D03*
X1370658D02*
D03*
X824988Y282824D02*
D03*
X864358D02*
D03*
X749988D02*
D03*
X789358D02*
D03*
X1574988Y357824D02*
D03*
X1614358D02*
D03*
X1424988D02*
D03*
X1464358D02*
D03*
X1574988Y57824D02*
D03*
X1614358D02*
D03*
X1499988Y357824D02*
D03*
X1539358D02*
D03*
X1574988Y282824D02*
D03*
X1614358D02*
D03*
X1499988D02*
D03*
X1539358D02*
D03*
X1424988D02*
D03*
X1464358D02*
D03*
X1574988Y207824D02*
D03*
X1614358D02*
D03*
X1499988D02*
D03*
X1539358D02*
D03*
X1424988D02*
D03*
X1464358D02*
D03*
X1574988Y132825D02*
D03*
X1614358D02*
D03*
X1499988D02*
D03*
X1539358D02*
D03*
X581288D02*
D03*
X620658D02*
D03*
X656288D02*
D03*
X695658D02*
D03*
X1181288Y57824D02*
D03*
X1220658D02*
D03*
X768788Y207824D02*
D03*
X808158D02*
D03*
X693788D02*
D03*
X733158D02*
D03*
X618788D02*
D03*
X658158D02*
D03*
X1181288Y357824D02*
D03*
X1220658D02*
D03*
X674988Y282824D02*
D03*
X714358D02*
D03*
X1256288Y357824D02*
D03*
X1295658D02*
D03*
X543788Y207824D02*
D03*
X583158D02*
D03*
X468788D02*
D03*
X508158D02*
D03*
X806288Y132825D02*
D03*
X845658D02*
D03*
X899988Y282824D02*
D03*
X939358D02*
D03*
X393788Y207824D02*
D03*
X433158D02*
D03*
X1087488Y470325D02*
D03*
X1126858D02*
D03*
X1012488D02*
D03*
X1051858D02*
D03*
X937488D02*
D03*
X976858D02*
D03*
X862488D02*
D03*
X901858D02*
D03*
X749988Y470425D02*
D03*
X789358D02*
D03*
X674988D02*
D03*
X714358D02*
D03*
X599988D02*
D03*
X639358D02*
D03*
X524988D02*
D03*
X564358D02*
D03*
X412488Y470325D02*
D03*
X451858D02*
D03*
X337488D02*
D03*
X376858D02*
D03*
X187488D02*
D03*
X226858D02*
D03*
X37488D02*
D03*
X76858D02*
D03*
X1256288Y282824D02*
D03*
X1295658D02*
D03*
X299988D02*
D03*
X339358D02*
D03*
X1256288Y57824D02*
D03*
X1295658D02*
D03*
X1181288Y282824D02*
D03*
X1220658D02*
D03*
X318788Y207824D02*
D03*
X358158D02*
D03*
X731288Y132825D02*
D03*
X770658D02*
D03*
X843788Y207824D02*
D03*
X883158D02*
D03*
X356288Y132825D02*
D03*
X395658D02*
D03*
X974988Y282824D02*
D03*
X1014358D02*
D03*
X506288Y132825D02*
D03*
X545658D02*
D03*
X937488Y357824D02*
D03*
X976858D02*
D03*
X168788Y207824D02*
D03*
X208158D02*
D03*
X712488Y357824D02*
D03*
X751858D02*
D03*
X637488D02*
D03*
X676858D02*
D03*
X562488D02*
D03*
X601858D02*
D03*
X487488D02*
D03*
X526858D02*
D03*
X412488D02*
D03*
X451858D02*
D03*
X337488D02*
D03*
X376858D02*
D03*
X262488D02*
D03*
X301858D02*
D03*
X187488D02*
D03*
X226858D02*
D03*
X112488D02*
D03*
X151858D02*
D03*
X787488D02*
D03*
X826858D02*
D03*
X1080058Y207824D02*
D03*
X1040688D02*
D03*
X123758Y132825D02*
D03*
X84388D02*
D03*
X984388Y57824D02*
D03*
X1023758D02*
D03*
X140588D02*
D03*
X179958D02*
D03*
X796888D02*
D03*
X836258D02*
D03*
X1078188D02*
D03*
X1117558D02*
D03*
X890688D02*
D03*
X930058D02*
D03*
X1061258Y132825D02*
D03*
X1021888D02*
D03*
X105058Y207824D02*
D03*
X65688D02*
D03*
X1049988Y357824D02*
D03*
X1089358D02*
D03*
X1462488Y57924D02*
D03*
X1501858D02*
D03*
X1669676Y225688D02*
D03*
Y265058D02*
D03*
Y75688D02*
D03*
Y115058D02*
D03*
X515688Y57824D02*
D03*
X555058D02*
D03*
X1068788Y282824D02*
D03*
X1108158D02*
D03*
X95658D02*
D03*
X56288D02*
D03*
D16*
X297173Y460324D02*
D03*
X272173Y450324D02*
D03*
X559673Y272825D02*
D03*
X534673Y262825D02*
D03*
X81573Y47824D02*
D03*
X56573Y37824D02*
D03*
X1459773Y122825D02*
D03*
X1434773Y112824D02*
D03*
X244073Y37824D02*
D03*
X269073Y47824D02*
D03*
X1659673Y337825D02*
D03*
X1684673Y347825D02*
D03*
X215973Y112824D02*
D03*
X240973Y122825D02*
D03*
X290973Y112824D02*
D03*
X315973Y122825D02*
D03*
X47173Y337825D02*
D03*
X72173Y347825D02*
D03*
X234673Y262825D02*
D03*
X259673Y272825D02*
D03*
X440973Y112824D02*
D03*
X465973Y122825D02*
D03*
X1265973Y112824D02*
D03*
X1290973Y122825D02*
D03*
X609673Y262825D02*
D03*
X634673Y272825D02*
D03*
X459673Y262825D02*
D03*
X484673Y272825D02*
D03*
X872173Y337825D02*
D03*
X897173Y347825D02*
D03*
X890973Y112824D02*
D03*
X915973Y122825D02*
D03*
X1265973Y450324D02*
D03*
X1290973Y460324D02*
D03*
X253473Y187824D02*
D03*
X278473Y197825D02*
D03*
X1340973Y37824D02*
D03*
X1365973Y47824D02*
D03*
X384673Y262825D02*
D03*
X409673Y272825D02*
D03*
X928473Y187824D02*
D03*
X953473Y197825D02*
D03*
X159673Y262825D02*
D03*
X184673Y272825D02*
D03*
X1190973Y450424D02*
D03*
X1215973Y460425D02*
D03*
X1340973Y337825D02*
D03*
X1365973Y347825D02*
D03*
X1340973Y262825D02*
D03*
X1365973Y272825D02*
D03*
X1340973Y450324D02*
D03*
X1365973Y460324D02*
D03*
X834673Y262825D02*
D03*
X859673Y272825D02*
D03*
X759673Y262825D02*
D03*
X784673Y272825D02*
D03*
X1584673Y337825D02*
D03*
X1609673Y347825D02*
D03*
X1434673Y337825D02*
D03*
X1459673Y347825D02*
D03*
X1584673Y37824D02*
D03*
X1609673Y47824D02*
D03*
X1509673Y337825D02*
D03*
X1534673Y347825D02*
D03*
X1584673Y262825D02*
D03*
X1609673Y272825D02*
D03*
X1509673Y262825D02*
D03*
X1534673Y272825D02*
D03*
X1434673Y262825D02*
D03*
X1459673Y272825D02*
D03*
X1584673Y187824D02*
D03*
X1609673Y197825D02*
D03*
X1509673Y187824D02*
D03*
X1534673Y197825D02*
D03*
X1434673Y187824D02*
D03*
X1459673Y197825D02*
D03*
X1584673Y112824D02*
D03*
X1609673Y122825D02*
D03*
X1509673Y112824D02*
D03*
X1534673Y122825D02*
D03*
X590973Y112824D02*
D03*
X615973Y122825D02*
D03*
X665973Y112824D02*
D03*
X690973Y122825D02*
D03*
X1190973Y37824D02*
D03*
X1215973Y47824D02*
D03*
X778473Y187824D02*
D03*
X803473Y197825D02*
D03*
X703473Y187824D02*
D03*
X728473Y197825D02*
D03*
X628473Y187824D02*
D03*
X653473Y197825D02*
D03*
X1190973Y337825D02*
D03*
X1215973Y347825D02*
D03*
X684673Y262825D02*
D03*
X709673Y272825D02*
D03*
X1265973Y337825D02*
D03*
X1290973Y347825D02*
D03*
X553473Y187824D02*
D03*
X578473Y197825D02*
D03*
X478473Y187824D02*
D03*
X503473Y197825D02*
D03*
X815973Y112824D02*
D03*
X840973Y122825D02*
D03*
X909673Y262825D02*
D03*
X934673Y272825D02*
D03*
X403473Y187824D02*
D03*
X428473Y197825D02*
D03*
X1097173Y450324D02*
D03*
X1122173Y460324D02*
D03*
X1022173Y450324D02*
D03*
X1047173Y460324D02*
D03*
X947173Y450324D02*
D03*
X972173Y460324D02*
D03*
X872173Y450324D02*
D03*
X897173Y460324D02*
D03*
X759673Y450424D02*
D03*
X784673Y460425D02*
D03*
X684673Y450424D02*
D03*
X709673Y460425D02*
D03*
X609673Y450424D02*
D03*
X634673Y460425D02*
D03*
X534673Y450424D02*
D03*
X559673Y460425D02*
D03*
X422173Y450324D02*
D03*
X447173Y460324D02*
D03*
X347173Y450324D02*
D03*
X372173Y460324D02*
D03*
X197173Y450324D02*
D03*
X222173Y460324D02*
D03*
X47173Y450324D02*
D03*
X72173Y460324D02*
D03*
X1265973Y262825D02*
D03*
X1290973Y272825D02*
D03*
X309673Y262825D02*
D03*
X334673Y272825D02*
D03*
X1265973Y37824D02*
D03*
X1290973Y47824D02*
D03*
X1190973Y262825D02*
D03*
X1215973Y272825D02*
D03*
X328473Y187824D02*
D03*
X353473Y197825D02*
D03*
X740973Y112824D02*
D03*
X765973Y122825D02*
D03*
X853473Y187824D02*
D03*
X878473Y197825D02*
D03*
X365973Y112824D02*
D03*
X390973Y122825D02*
D03*
X984673Y262825D02*
D03*
X1009673Y272825D02*
D03*
X515973Y112824D02*
D03*
X540973Y122825D02*
D03*
X947173Y337825D02*
D03*
X972173Y347825D02*
D03*
X178473Y187824D02*
D03*
X203473Y197825D02*
D03*
X722173Y337825D02*
D03*
X747173Y347825D02*
D03*
X647173Y337825D02*
D03*
X672173Y347825D02*
D03*
X572173Y337825D02*
D03*
X597173Y347825D02*
D03*
X497173Y337825D02*
D03*
X522173Y347825D02*
D03*
X422173Y337825D02*
D03*
X447173Y347825D02*
D03*
X347173Y337825D02*
D03*
X372173Y347825D02*
D03*
X272173Y337825D02*
D03*
X297173Y347825D02*
D03*
X197173Y337825D02*
D03*
X222173Y347825D02*
D03*
X122173Y337825D02*
D03*
X147173Y347825D02*
D03*
X797173Y337825D02*
D03*
X822173Y347825D02*
D03*
X1075373Y197825D02*
D03*
X1050373Y187824D02*
D03*
X119073Y122825D02*
D03*
X94073Y112824D02*
D03*
X994073Y37824D02*
D03*
X1019073Y47824D02*
D03*
X150273Y37824D02*
D03*
X175273Y47824D02*
D03*
X806573Y37824D02*
D03*
X831573Y47824D02*
D03*
X1087873Y37824D02*
D03*
X1112873Y47824D02*
D03*
X900373Y37824D02*
D03*
X925373Y47824D02*
D03*
X1056573Y122825D02*
D03*
X1031573Y112824D02*
D03*
X100373Y197825D02*
D03*
X75373Y187824D02*
D03*
X1059673Y337825D02*
D03*
X1084673Y347825D02*
D03*
X1472173Y37925D02*
D03*
X1497173Y47925D02*
D03*
X1689676Y235373D02*
D03*
X1679676Y260373D02*
D03*
X1689676Y85373D02*
D03*
X1679676Y110373D02*
D03*
X525373Y37824D02*
D03*
X550373Y47824D02*
D03*
X1078473Y262825D02*
D03*
X1103473Y272825D02*
D03*
X90973D02*
D03*
X65973Y262825D02*
D03*
D17*
X282173Y470325D02*
D03*
X544673Y282824D02*
D03*
X66573Y57824D02*
D03*
X1444773Y132825D02*
D03*
X254073Y57824D02*
D03*
X1669673Y357824D02*
D03*
X225973Y132825D02*
D03*
X300973D02*
D03*
X57173Y357824D02*
D03*
X244673Y282824D02*
D03*
X450973Y132825D02*
D03*
X1275973D02*
D03*
X619673Y282824D02*
D03*
X469673D02*
D03*
X882173Y357824D02*
D03*
X900973Y132825D02*
D03*
X1275973Y470325D02*
D03*
X263473Y207824D02*
D03*
X1350973Y57824D02*
D03*
X394673Y282824D02*
D03*
X938473Y207824D02*
D03*
X169673Y282824D02*
D03*
X1200973Y470425D02*
D03*
X1350973Y357824D02*
D03*
Y282824D02*
D03*
Y470325D02*
D03*
X844673Y282824D02*
D03*
X769673D02*
D03*
X1594673Y357824D02*
D03*
X1444673D02*
D03*
X1594673Y57824D02*
D03*
X1519673Y357824D02*
D03*
X1594673Y282824D02*
D03*
X1519673D02*
D03*
X1444673D02*
D03*
X1594673Y207824D02*
D03*
X1519673D02*
D03*
X1444673D02*
D03*
X1594673Y132825D02*
D03*
X1519673D02*
D03*
X600973D02*
D03*
X675973D02*
D03*
X1200973Y57824D02*
D03*
X788473Y207824D02*
D03*
X713473D02*
D03*
X638473D02*
D03*
X1200973Y357824D02*
D03*
X694673Y282824D02*
D03*
X1275973Y357824D02*
D03*
X563473Y207824D02*
D03*
X488473D02*
D03*
X825973Y132825D02*
D03*
X919673Y282824D02*
D03*
X413473Y207824D02*
D03*
X1107173Y470325D02*
D03*
X1032173D02*
D03*
X957173D02*
D03*
X882173D02*
D03*
X769673Y470425D02*
D03*
X694673D02*
D03*
X619673D02*
D03*
X544673D02*
D03*
X432173Y470325D02*
D03*
X357173D02*
D03*
X207173D02*
D03*
X57173D02*
D03*
X1275973Y282824D02*
D03*
X319673D02*
D03*
X1275973Y57824D02*
D03*
X1200973Y282824D02*
D03*
X338473Y207824D02*
D03*
X750973Y132825D02*
D03*
X863473Y207824D02*
D03*
X375973Y132825D02*
D03*
X994673Y282824D02*
D03*
X525973Y132825D02*
D03*
X957173Y357824D02*
D03*
X188473Y207824D02*
D03*
X732173Y357824D02*
D03*
X657173D02*
D03*
X582173D02*
D03*
X507173D02*
D03*
X432173D02*
D03*
X357173D02*
D03*
X282173D02*
D03*
X207173D02*
D03*
X132173D02*
D03*
X807173D02*
D03*
X1060373Y207824D02*
D03*
X104073Y132825D02*
D03*
X1004073Y57824D02*
D03*
X160273D02*
D03*
X816573D02*
D03*
X1097873D02*
D03*
X910373D02*
D03*
X1041573Y132825D02*
D03*
X85373Y207824D02*
D03*
X1069673Y357824D02*
D03*
X1482173Y57924D02*
D03*
X1669676Y245373D02*
D03*
Y95373D02*
D03*
X535373Y57824D02*
D03*
X1088473Y282824D02*
D03*
X75973D02*
D03*
D18*
X1639200Y48400D02*
D03*
X1699200D02*
D03*
Y142400D02*
D03*
X1639200D02*
D03*
Y198400D02*
D03*
X1699200D02*
D03*
Y292400D02*
D03*
X1639200D02*
D03*
X1435200Y83300D02*
D03*
Y23300D02*
D03*
X1529200D02*
D03*
Y83300D02*
D03*
X732500Y83200D02*
D03*
Y23200D02*
D03*
X338500D02*
D03*
Y83200D02*
D03*
X994600Y158300D02*
D03*
Y98300D02*
D03*
X1088600D02*
D03*
Y158300D02*
D03*
X1013300Y233300D02*
D03*
Y173300D02*
D03*
X1107300D02*
D03*
Y233300D02*
D03*
X1022700Y383300D02*
D03*
Y323300D02*
D03*
X1116700D02*
D03*
Y383300D02*
D03*
X57000Y158300D02*
D03*
Y98300D02*
D03*
X151000D02*
D03*
Y158300D02*
D03*
D19*
X373000Y499000D02*
D03*
X974000D02*
D03*
X1699626Y248986D02*
D03*
Y98985D02*
D03*
X1649626Y198986D02*
D03*
Y48985D02*
D03*
X1599626Y398986D02*
D03*
X1549626D02*
D03*
Y48985D02*
D03*
X1499626Y448985D02*
D03*
Y398986D02*
D03*
Y348986D02*
D03*
Y198986D02*
D03*
X1449626Y498985D02*
D03*
Y448985D02*
D03*
Y398986D02*
D03*
Y48985D02*
D03*
X1399626Y498985D02*
D03*
Y448985D02*
D03*
Y398986D02*
D03*
Y348986D02*
D03*
Y198986D02*
D03*
Y48985D02*
D03*
X1349626Y398986D02*
D03*
Y198986D02*
D03*
X1299626Y498985D02*
D03*
Y448985D02*
D03*
Y398986D02*
D03*
Y298986D02*
D03*
Y148986D02*
D03*
X1249626Y498985D02*
D03*
Y398986D02*
D03*
Y348986D02*
D03*
Y48985D02*
D03*
X1199626Y398986D02*
D03*
Y198986D02*
D03*
X1149626Y348986D02*
D03*
Y198986D02*
D03*
X1099626Y398986D02*
D03*
X1049626Y498985D02*
D03*
Y448985D02*
D03*
Y398986D02*
D03*
Y348986D02*
D03*
Y198986D02*
D03*
X999626Y398986D02*
D03*
X949626D02*
D03*
Y98985D02*
D03*
X899626Y498985D02*
D03*
Y448985D02*
D03*
Y398986D02*
D03*
Y48985D02*
D03*
X849626Y498985D02*
D03*
Y398986D02*
D03*
Y198986D02*
D03*
Y148986D02*
D03*
X799626Y498985D02*
D03*
Y398986D02*
D03*
Y48985D02*
D03*
X749626Y498985D02*
D03*
Y398986D02*
D03*
Y48985D02*
D03*
X699626Y448985D02*
D03*
Y198986D02*
D03*
Y148986D02*
D03*
Y48985D02*
D03*
X649626Y498985D02*
D03*
Y398986D02*
D03*
Y48985D02*
D03*
X599626Y498985D02*
D03*
Y398986D02*
D03*
Y48985D02*
D03*
X549626Y448985D02*
D03*
Y398986D02*
D03*
Y198986D02*
D03*
Y148986D02*
D03*
X499626Y498985D02*
D03*
Y398986D02*
D03*
Y48985D02*
D03*
X449626Y498985D02*
D03*
Y448985D02*
D03*
Y398986D02*
D03*
Y48985D02*
D03*
X399626Y398986D02*
D03*
Y198986D02*
D03*
Y148986D02*
D03*
Y48985D02*
D03*
X349626Y398986D02*
D03*
Y48985D02*
D03*
X299626Y498985D02*
D03*
Y448985D02*
D03*
Y398986D02*
D03*
X249626Y198986D02*
D03*
Y148986D02*
D03*
X199626Y398986D02*
D03*
X149626Y498985D02*
D03*
Y448985D02*
D03*
Y398986D02*
D03*
Y198986D02*
D03*
Y48985D02*
D03*
X99626Y498985D02*
D03*
Y298986D02*
D03*
X49626Y398986D02*
D03*
Y198986D02*
D03*
Y148986D02*
D03*
Y48985D02*
D03*
X1065000Y239000D02*
D03*
X948000D02*
D03*
X873000D02*
D03*
X798000D02*
D03*
X723000D02*
D03*
X648000D02*
D03*
X573000D02*
D03*
X498000D02*
D03*
X423000D02*
D03*
X348000D02*
D03*
X273000D02*
D03*
X198000D02*
D03*
X95000D02*
D03*
X86000Y314000D02*
D03*
X179000D02*
D03*
X254000D02*
D03*
X329000D02*
D03*
X404000D02*
D03*
X479000D02*
D03*
X554000D02*
D03*
X629000D02*
D03*
X704000D02*
D03*
X779000D02*
D03*
X854000D02*
D03*
X929000D02*
D03*
X1004000D02*
D03*
X1074000Y388000D02*
D03*
X962000D02*
D03*
X887000D02*
D03*
X811000D02*
D03*
X736000D02*
D03*
X661000D02*
D03*
X586000D02*
D03*
X511000D02*
D03*
X436000D02*
D03*
X361000D02*
D03*
X286000D02*
D03*
X211000D02*
D03*
X137000D02*
D03*
X62000D02*
D03*
X1281000Y389000D02*
D03*
X1206000D02*
D03*
X1211000Y314000D02*
D03*
X1286000D02*
D03*
X1362000D02*
D03*
X1356000Y389000D02*
D03*
X1455000Y314000D02*
D03*
X1530000D02*
D03*
X1599000Y315000D02*
D03*
X1598000Y237000D02*
D03*
X1455000Y239000D02*
D03*
X1530000D02*
D03*
X1118000Y89000D02*
D03*
X1023000D02*
D03*
X921000D02*
D03*
X827000D02*
D03*
X546000D02*
D03*
X264000D02*
D03*
X180000D02*
D03*
X86000D02*
D03*
X115000Y165000D02*
D03*
X237000D02*
D03*
X312000D02*
D03*
X387000D02*
D03*
X462000D02*
D03*
X537000D02*
D03*
X612000D02*
D03*
X686000D02*
D03*
X762000D02*
D03*
X837000D02*
D03*
X912000D02*
D03*
X1057000D02*
D03*
X1287000D02*
D03*
X1455000D02*
D03*
X1530000D02*
D03*
X1605000D02*
D03*
X1598000Y88000D02*
D03*
X1486000Y87000D02*
D03*
X1361000Y89000D02*
D03*
X1286000D02*
D03*
X1211000D02*
D03*
X1530000Y385000D02*
D03*
X1673000Y388000D02*
D03*
X1128000Y499000D02*
D03*
X227000D02*
D03*
X1449626Y389000D02*
D03*
X1692000Y439000D02*
D03*
D20*
X1632000Y395000D02*
D03*
X1647000Y372000D02*
D03*
X1599000Y96000D02*
D03*
X1636000Y460000D02*
D03*
X1631000Y465000D02*
D03*
X1391000Y460000D02*
D03*
Y348000D02*
D03*
Y273000D02*
D03*
Y48000D02*
D03*
X1315000Y460000D02*
D03*
Y348000D02*
D03*
Y273000D02*
D03*
Y123000D02*
D03*
Y48000D02*
D03*
X1697000Y452000D02*
D03*
X1704000D02*
D03*
X1711000D02*
D03*
X1239000Y460000D02*
D03*
Y348000D02*
D03*
X1239264Y272983D02*
D03*
X1239000Y48000D02*
D03*
X1147000Y460000D02*
D03*
X1117000Y348000D02*
D03*
X1132054Y272819D02*
D03*
X1072000Y460000D02*
D03*
X997000Y348000D02*
D03*
X1039000Y273000D02*
D03*
X1104000Y198000D02*
D03*
X1147000Y48000D02*
D03*
X1619000Y471000D02*
D03*
X996000Y460000D02*
D03*
X921000Y348000D02*
D03*
X958000Y273000D02*
D03*
X977000Y198000D02*
D03*
X1081000Y123000D02*
D03*
X1052000Y48000D02*
D03*
X1611000Y471000D02*
D03*
X922000Y460000D02*
D03*
X846000Y348000D02*
D03*
X884000Y273000D02*
D03*
X902000Y198000D02*
D03*
X940000Y123000D02*
D03*
X958000Y48000D02*
D03*
X1603000Y471000D02*
D03*
X810000Y460000D02*
D03*
X772000Y348000D02*
D03*
X809000Y273000D02*
D03*
X828000Y198000D02*
D03*
X865000Y123000D02*
D03*
Y48000D02*
D03*
X1595000Y471000D02*
D03*
X1587000D02*
D03*
X1579000D02*
D03*
X1711000Y472000D02*
D03*
X1704000D02*
D03*
X1697000D02*
D03*
X1619600Y420600D02*
D03*
X1645455Y444745D02*
D03*
X1670000Y433000D02*
D03*
X1626800Y413200D02*
D03*
X1712000Y407000D02*
D03*
X1706500Y401500D02*
D03*
X1645500Y436800D02*
D03*
X1704000Y493000D02*
D03*
X1697000D02*
D03*
X1711000D02*
D03*
X734000Y460000D02*
D03*
X697000Y348000D02*
D03*
X735000Y273000D02*
D03*
X753000Y198000D02*
D03*
X790000Y123000D02*
D03*
X659000Y460000D02*
D03*
X622000Y348000D02*
D03*
X659000Y273000D02*
D03*
X677000Y198000D02*
D03*
X715000Y123000D02*
D03*
X584000Y460000D02*
D03*
X470000D02*
D03*
X396000D02*
D03*
X323000D02*
D03*
X248000D02*
D03*
X546000Y348000D02*
D03*
X583000Y273000D02*
D03*
X602000Y198000D02*
D03*
X640000Y123000D02*
D03*
X470000Y348000D02*
D03*
X508000Y273000D02*
D03*
X527000Y198000D02*
D03*
X565000Y123000D02*
D03*
X577000Y48000D02*
D03*
X396000Y348000D02*
D03*
X434000Y273000D02*
D03*
X455000Y198000D02*
D03*
X492000Y123000D02*
D03*
X323000Y348000D02*
D03*
X361000Y273000D02*
D03*
X379000Y198000D02*
D03*
X417000Y123000D02*
D03*
X248000Y348000D02*
D03*
X285000Y273000D02*
D03*
X303000Y198000D02*
D03*
X342000Y123000D02*
D03*
X302000Y48000D02*
D03*
X171000Y348000D02*
D03*
X209000Y273000D02*
D03*
X228000Y198000D02*
D03*
X265000Y123000D02*
D03*
X204000Y48000D02*
D03*
X95000Y460000D02*
D03*
Y348000D02*
D03*
X131000Y273000D02*
D03*
Y198000D02*
D03*
X139000Y136000D02*
D03*
X113000Y59000D02*
D03*
X1556600Y444700D02*
D03*
X1406000Y506000D02*
D03*
X1627000Y379000D02*
D03*
X1616000D02*
D03*
X1637000Y388000D02*
D03*
X1616000D02*
D03*
X1630000Y310000D02*
D03*
X1637000Y272000D02*
D03*
X1598000Y244000D02*
D03*
X1711000Y181000D02*
D03*
X1632000Y171000D02*
D03*
X1635577Y101577D02*
D03*
X1473000Y366000D02*
D03*
Y334000D02*
D03*
Y292000D02*
D03*
X1472922Y260078D02*
D03*
X1473000Y217000D02*
D03*
Y184000D02*
D03*
Y141000D02*
D03*
Y111000D02*
D03*
X1510500Y67600D02*
D03*
X1548000Y367000D02*
D03*
Y337000D02*
D03*
Y293000D02*
D03*
Y261500D02*
D03*
Y218000D02*
D03*
Y184500D02*
D03*
Y144000D02*
D03*
X1616000Y395000D02*
D03*
X1706500Y375000D02*
D03*
X1623000Y335000D02*
D03*
X1622500Y294000D02*
D03*
X1623000Y244500D02*
D03*
Y221000D02*
D03*
Y184000D02*
D03*
Y141500D02*
D03*
X1622500Y95500D02*
D03*
Y73500D02*
D03*
X1704000Y259000D02*
D03*
X1620900Y488100D02*
D03*
Y496600D02*
D03*
X1620600Y504700D02*
D03*
Y530000D02*
D03*
Y513200D02*
D03*
Y521600D02*
D03*
D39*
X1692831Y504339D02*
D03*
Y414575D02*
D03*
D40*
X1683000Y482095D02*
D03*
Y484063D02*
D03*
Y497843D02*
D03*
Y495874D02*
D03*
Y493906D02*
D03*
Y491937D02*
D03*
Y489969D02*
D03*
Y488000D02*
D03*
Y486032D02*
D03*
Y480126D02*
D03*
Y478158D02*
D03*
Y476189D02*
D03*
Y474221D02*
D03*
Y472252D02*
D03*
Y470284D02*
D03*
Y468315D02*
D03*
Y466347D02*
D03*
Y464378D02*
D03*
Y462409D02*
D03*
Y460441D02*
D03*
Y458472D02*
D03*
Y456504D02*
D03*
Y454535D02*
D03*
Y452567D02*
D03*
Y450598D02*
D03*
Y448630D02*
D03*
Y446662D02*
D03*
Y444693D02*
D03*
Y442725D02*
D03*
Y440756D02*
D03*
Y438788D02*
D03*
Y436819D02*
D03*
Y434851D02*
D03*
Y432882D02*
D03*
Y430913D02*
D03*
Y428945D02*
D03*
Y426976D02*
D03*
Y425008D02*
D03*
Y423039D02*
D03*
Y421071D02*
D03*
D41*
X272000Y491600D02*
D03*
X292473D02*
D03*
X292471Y484907D02*
D03*
X272000D02*
D03*
X534500Y304100D02*
D03*
X554973D02*
D03*
X554971Y297407D02*
D03*
X534500D02*
D03*
X56400Y79100D02*
D03*
X76873D02*
D03*
X76871Y72407D02*
D03*
X56400D02*
D03*
X1434600Y154100D02*
D03*
X1455073D02*
D03*
X1455071Y147407D02*
D03*
X1434600D02*
D03*
X243900Y72407D02*
D03*
X264371D02*
D03*
X264373Y79100D02*
D03*
X243900D02*
D03*
X1659500Y372407D02*
D03*
X1679971D02*
D03*
X1679973Y379100D02*
D03*
X1659500D02*
D03*
X215800Y147407D02*
D03*
X236271D02*
D03*
X236273Y154100D02*
D03*
X215800D02*
D03*
X290800Y147407D02*
D03*
X311271D02*
D03*
X311273Y154100D02*
D03*
X290800D02*
D03*
X47000Y372407D02*
D03*
X67471D02*
D03*
X67473Y379100D02*
D03*
X47000D02*
D03*
X234500Y297407D02*
D03*
X254971D02*
D03*
X254973Y304100D02*
D03*
X234500D02*
D03*
X440800Y147407D02*
D03*
X461271D02*
D03*
X461273Y154100D02*
D03*
X440800D02*
D03*
X1265800Y147407D02*
D03*
X1286271D02*
D03*
X1286273Y154100D02*
D03*
X1265800D02*
D03*
X609500Y297407D02*
D03*
X629971D02*
D03*
X629973Y304100D02*
D03*
X609500D02*
D03*
X459500Y297407D02*
D03*
X479971D02*
D03*
X479973Y304100D02*
D03*
X459500D02*
D03*
X872000Y372407D02*
D03*
X892471D02*
D03*
X892473Y379100D02*
D03*
X872000D02*
D03*
X890800Y147407D02*
D03*
X911271D02*
D03*
X911273Y154100D02*
D03*
X890800D02*
D03*
X1265800Y484907D02*
D03*
X1286271D02*
D03*
X1286273Y491600D02*
D03*
X1265800D02*
D03*
X253300Y222407D02*
D03*
X273771D02*
D03*
X273773Y229100D02*
D03*
X253300D02*
D03*
X1340800Y72407D02*
D03*
X1361271D02*
D03*
X1361273Y79100D02*
D03*
X1340800D02*
D03*
X384500Y297407D02*
D03*
X404971D02*
D03*
X404973Y304100D02*
D03*
X384500D02*
D03*
X928300Y222407D02*
D03*
X948771D02*
D03*
X948773Y229100D02*
D03*
X928300D02*
D03*
X159500Y297407D02*
D03*
X179971D02*
D03*
X179973Y304100D02*
D03*
X159500D02*
D03*
X1190800Y485007D02*
D03*
X1211271D02*
D03*
X1211273Y491700D02*
D03*
X1190800D02*
D03*
X1340800Y372407D02*
D03*
X1361271D02*
D03*
X1361273Y379100D02*
D03*
X1340800D02*
D03*
Y297407D02*
D03*
X1361271D02*
D03*
X1361273Y304100D02*
D03*
X1340800D02*
D03*
Y484907D02*
D03*
X1361271D02*
D03*
X1361273Y491600D02*
D03*
X1340800D02*
D03*
X834500Y297407D02*
D03*
X854971D02*
D03*
X854973Y304100D02*
D03*
X834500D02*
D03*
X759500Y297407D02*
D03*
X779971D02*
D03*
X779973Y304100D02*
D03*
X759500D02*
D03*
X1584500Y372407D02*
D03*
X1604971D02*
D03*
X1604973Y379100D02*
D03*
X1584500D02*
D03*
X1434500Y372407D02*
D03*
X1454971D02*
D03*
X1454973Y379100D02*
D03*
X1434500D02*
D03*
X1584500Y72407D02*
D03*
X1604971D02*
D03*
X1604973Y79100D02*
D03*
X1584500D02*
D03*
X1509500Y372407D02*
D03*
X1529971D02*
D03*
X1529973Y379100D02*
D03*
X1509500D02*
D03*
X1584500Y297407D02*
D03*
X1604971D02*
D03*
X1604973Y304100D02*
D03*
X1584500D02*
D03*
X1509500Y297407D02*
D03*
X1529971D02*
D03*
X1529973Y304100D02*
D03*
X1509500D02*
D03*
X1434500Y297407D02*
D03*
X1454971D02*
D03*
X1454973Y304100D02*
D03*
X1434500D02*
D03*
X1584500Y222407D02*
D03*
X1604971D02*
D03*
X1604973Y229100D02*
D03*
X1584500D02*
D03*
X1509500Y222407D02*
D03*
X1529971D02*
D03*
X1529973Y229100D02*
D03*
X1509500D02*
D03*
X1434500Y222407D02*
D03*
X1454971D02*
D03*
X1454973Y229100D02*
D03*
X1434500D02*
D03*
X1584500Y147407D02*
D03*
X1604971D02*
D03*
X1604973Y154100D02*
D03*
X1584500D02*
D03*
X1509500Y147407D02*
D03*
X1529971D02*
D03*
X1529973Y154100D02*
D03*
X1509500D02*
D03*
X590800Y147407D02*
D03*
X611271D02*
D03*
X611273Y154100D02*
D03*
X590800D02*
D03*
X665800Y147407D02*
D03*
X686271D02*
D03*
X686273Y154100D02*
D03*
X665800D02*
D03*
X1190800Y72407D02*
D03*
X1211271D02*
D03*
X1211273Y79100D02*
D03*
X1190800D02*
D03*
X778300Y222407D02*
D03*
X798771D02*
D03*
X798773Y229100D02*
D03*
X778300D02*
D03*
X703300Y222407D02*
D03*
X723771D02*
D03*
X723773Y229100D02*
D03*
X703300D02*
D03*
X628300Y222407D02*
D03*
X648771D02*
D03*
X648773Y229100D02*
D03*
X628300D02*
D03*
X1190800Y372407D02*
D03*
X1211271D02*
D03*
X1211273Y379100D02*
D03*
X1190800D02*
D03*
X684500Y297407D02*
D03*
X704971D02*
D03*
X704973Y304100D02*
D03*
X684500D02*
D03*
X1265800Y372407D02*
D03*
X1286271D02*
D03*
X1286273Y379100D02*
D03*
X1265800D02*
D03*
X553300Y222407D02*
D03*
X573771D02*
D03*
X573773Y229100D02*
D03*
X553300D02*
D03*
X478300Y222407D02*
D03*
X498771D02*
D03*
X498773Y229100D02*
D03*
X478300D02*
D03*
X815800Y147407D02*
D03*
X836271D02*
D03*
X836273Y154100D02*
D03*
X815800D02*
D03*
X909500Y297407D02*
D03*
X929971D02*
D03*
X929973Y304100D02*
D03*
X909500D02*
D03*
X403300Y222407D02*
D03*
X423771D02*
D03*
X423773Y229100D02*
D03*
X403300D02*
D03*
X1097000Y484907D02*
D03*
X1117471D02*
D03*
X1117473Y491600D02*
D03*
X1097000D02*
D03*
X1022000Y484907D02*
D03*
X1042471D02*
D03*
X1042473Y491600D02*
D03*
X1022000D02*
D03*
X947000Y484907D02*
D03*
X967471D02*
D03*
X967473Y491600D02*
D03*
X947000D02*
D03*
X872000Y484907D02*
D03*
X892471D02*
D03*
X892473Y491600D02*
D03*
X872000D02*
D03*
X759500Y485007D02*
D03*
X779971D02*
D03*
X779973Y491700D02*
D03*
X759500D02*
D03*
X684500Y485007D02*
D03*
X704971D02*
D03*
X704973Y491700D02*
D03*
X684500D02*
D03*
X609500Y485007D02*
D03*
X629971D02*
D03*
X629973Y491700D02*
D03*
X609500D02*
D03*
X534500Y485007D02*
D03*
X554971D02*
D03*
X554973Y491700D02*
D03*
X534500D02*
D03*
X422000Y484907D02*
D03*
X442471D02*
D03*
X442473Y491600D02*
D03*
X422000D02*
D03*
X347000Y484907D02*
D03*
X367471D02*
D03*
X367473Y491600D02*
D03*
X347000D02*
D03*
X197000Y484907D02*
D03*
X217471D02*
D03*
X217473Y491600D02*
D03*
X197000D02*
D03*
X47000Y484907D02*
D03*
X67471D02*
D03*
X67473Y491600D02*
D03*
X47000D02*
D03*
X1265800Y297407D02*
D03*
X1286271D02*
D03*
X1286273Y304100D02*
D03*
X1265800D02*
D03*
X309500Y297407D02*
D03*
X329971D02*
D03*
X329973Y304100D02*
D03*
X309500D02*
D03*
X1265800Y72407D02*
D03*
X1286271D02*
D03*
X1286273Y79100D02*
D03*
X1265800D02*
D03*
X1190800Y297407D02*
D03*
X1211271D02*
D03*
X1211273Y304100D02*
D03*
X1190800D02*
D03*
X328300Y222407D02*
D03*
X348771D02*
D03*
X348773Y229100D02*
D03*
X328300D02*
D03*
X740800Y147407D02*
D03*
X761271D02*
D03*
X761273Y154100D02*
D03*
X740800D02*
D03*
X853300Y222407D02*
D03*
X873771D02*
D03*
X873773Y229100D02*
D03*
X853300D02*
D03*
X365800Y147407D02*
D03*
X386271D02*
D03*
X386273Y154100D02*
D03*
X365800D02*
D03*
X984500Y297407D02*
D03*
X1004971D02*
D03*
X1004973Y304100D02*
D03*
X984500D02*
D03*
X515800Y147407D02*
D03*
X536271D02*
D03*
X536273Y154100D02*
D03*
X515800D02*
D03*
X947000Y372407D02*
D03*
X967471D02*
D03*
X967473Y379100D02*
D03*
X947000D02*
D03*
X178300Y222407D02*
D03*
X198771D02*
D03*
X198773Y229100D02*
D03*
X178300D02*
D03*
X722000Y372407D02*
D03*
X742471D02*
D03*
X742473Y379100D02*
D03*
X722000D02*
D03*
X647000Y372407D02*
D03*
X667471D02*
D03*
X667473Y379100D02*
D03*
X647000D02*
D03*
X572000Y372407D02*
D03*
X592471D02*
D03*
X592473Y379100D02*
D03*
X572000D02*
D03*
X497000Y372407D02*
D03*
X517471D02*
D03*
X517473Y379100D02*
D03*
X497000D02*
D03*
X422000Y372407D02*
D03*
X442471D02*
D03*
X442473Y379100D02*
D03*
X422000D02*
D03*
X347000Y372407D02*
D03*
X367471D02*
D03*
X367473Y379100D02*
D03*
X347000D02*
D03*
X272000Y372407D02*
D03*
X292471D02*
D03*
X292473Y379100D02*
D03*
X272000D02*
D03*
X197000Y372407D02*
D03*
X217471D02*
D03*
X217473Y379100D02*
D03*
X197000D02*
D03*
X122000Y372407D02*
D03*
X142471D02*
D03*
X142473Y379100D02*
D03*
X122000D02*
D03*
X797000Y372407D02*
D03*
X817471D02*
D03*
X817473Y379100D02*
D03*
X797000D02*
D03*
X1050200Y229100D02*
D03*
X1070673D02*
D03*
X1070671Y222407D02*
D03*
X1050200D02*
D03*
X93900Y154100D02*
D03*
X114373D02*
D03*
X114371Y147407D02*
D03*
X93900D02*
D03*
X993900Y72407D02*
D03*
X1014371D02*
D03*
X1014373Y79100D02*
D03*
X993900D02*
D03*
X150100Y72407D02*
D03*
X170571D02*
D03*
X170573Y79100D02*
D03*
X150100D02*
D03*
X806400Y72407D02*
D03*
X826871D02*
D03*
X826873Y79100D02*
D03*
X806400D02*
D03*
X1087700Y72407D02*
D03*
X1108171D02*
D03*
X1108173Y79100D02*
D03*
X1087700D02*
D03*
X900200Y72407D02*
D03*
X920671D02*
D03*
X920673Y79100D02*
D03*
X900200D02*
D03*
X1031400Y154100D02*
D03*
X1051873D02*
D03*
X1051871Y147407D02*
D03*
X1031400D02*
D03*
X75200Y229100D02*
D03*
X95673D02*
D03*
X95671Y222407D02*
D03*
X75200D02*
D03*
X1059500Y372407D02*
D03*
X1079971D02*
D03*
X1079973Y379100D02*
D03*
X1059500D02*
D03*
X1472000Y72507D02*
D03*
X1492471D02*
D03*
X1492473Y79200D02*
D03*
X1472000D02*
D03*
X525200Y72407D02*
D03*
X545671D02*
D03*
X545673Y79100D02*
D03*
X525200D02*
D03*
X1078300Y297407D02*
D03*
X1098771D02*
D03*
X1098773Y304100D02*
D03*
X1078300D02*
D03*
X65800D02*
D03*
X86273D02*
D03*
X86271Y297407D02*
D03*
X65800D02*
D03*
D42*
X258873Y450324D02*
D03*
X521373Y262825D02*
D03*
X43273Y37824D02*
D03*
X1421473Y112824D02*
D03*
X230773Y37824D02*
D03*
X1646373Y337825D02*
D03*
X202673Y112824D02*
D03*
X277673D02*
D03*
X33873Y337825D02*
D03*
X221373Y262825D02*
D03*
X427673Y112824D02*
D03*
X1252673D02*
D03*
X596373Y262825D02*
D03*
X446373D02*
D03*
X858873Y337825D02*
D03*
X877673Y112824D02*
D03*
X1252673Y450324D02*
D03*
X240173Y187824D02*
D03*
X1327673Y37824D02*
D03*
X371373Y262825D02*
D03*
X915173Y187824D02*
D03*
X146373Y262825D02*
D03*
X1177673Y450424D02*
D03*
X1327673Y337825D02*
D03*
Y262825D02*
D03*
Y450324D02*
D03*
X821373Y262825D02*
D03*
X746373D02*
D03*
X1571373Y337825D02*
D03*
X1421373D02*
D03*
X1571373Y37824D02*
D03*
X1496373Y337825D02*
D03*
X1571373Y262825D02*
D03*
X1496373D02*
D03*
X1421373D02*
D03*
X1571373Y187824D02*
D03*
X1496373D02*
D03*
X1421373D02*
D03*
X1571373Y112824D02*
D03*
X1496373D02*
D03*
X577673D02*
D03*
X652673D02*
D03*
X1177673Y37824D02*
D03*
X765173Y187824D02*
D03*
X690173D02*
D03*
X615173D02*
D03*
X1177673Y337825D02*
D03*
X671373Y262825D02*
D03*
X1252673Y337825D02*
D03*
X540173Y187824D02*
D03*
X465173D02*
D03*
X802673Y112824D02*
D03*
X896373Y262825D02*
D03*
X390173Y187824D02*
D03*
X1083873Y450324D02*
D03*
X1008873D02*
D03*
X933873D02*
D03*
X858873D02*
D03*
X746373Y450424D02*
D03*
X671373D02*
D03*
X596373D02*
D03*
X521373D02*
D03*
X408873Y450324D02*
D03*
X333873D02*
D03*
X183873D02*
D03*
X33873D02*
D03*
X1252673Y262825D02*
D03*
X296373D02*
D03*
X1252673Y37824D02*
D03*
X1177673Y262825D02*
D03*
X315173Y187824D02*
D03*
X727673Y112824D02*
D03*
X840173Y187824D02*
D03*
X352673Y112824D02*
D03*
X971373Y262825D02*
D03*
X502673Y112824D02*
D03*
X933873Y337825D02*
D03*
X165173Y187824D02*
D03*
X708873Y337825D02*
D03*
X633873D02*
D03*
X558873D02*
D03*
X483873D02*
D03*
X408873D02*
D03*
X333873D02*
D03*
X258873D02*
D03*
X183873D02*
D03*
X108873D02*
D03*
X783873D02*
D03*
X1037073Y187824D02*
D03*
X80773Y112824D02*
D03*
X980773Y37824D02*
D03*
X136973D02*
D03*
X793273D02*
D03*
X1074573D02*
D03*
X887073D02*
D03*
X1018273Y112824D02*
D03*
X62073Y187824D02*
D03*
X1046373Y337825D02*
D03*
X1458873Y37925D02*
D03*
X512073Y37824D02*
D03*
X1065173Y262825D02*
D03*
X52673D02*
D03*
D43*
X310473Y460324D02*
D03*
X572973Y272825D02*
D03*
X94873Y47824D02*
D03*
X1473073Y122825D02*
D03*
X282373Y47824D02*
D03*
X1697973Y347825D02*
D03*
X254273Y122825D02*
D03*
X329273D02*
D03*
X85473Y347825D02*
D03*
X272973Y272825D02*
D03*
X479273Y122825D02*
D03*
X1304273D02*
D03*
X647973Y272825D02*
D03*
X497973D02*
D03*
X910473Y347825D02*
D03*
X929273Y122825D02*
D03*
X1304273Y460324D02*
D03*
X291773Y197825D02*
D03*
X1379273Y47824D02*
D03*
X422973Y272825D02*
D03*
X966773Y197825D02*
D03*
X197973Y272825D02*
D03*
X1229273Y460425D02*
D03*
X1379273Y347825D02*
D03*
Y272825D02*
D03*
Y460324D02*
D03*
X872973Y272825D02*
D03*
X797973D02*
D03*
X1622973Y347825D02*
D03*
X1472973D02*
D03*
X1622973Y47824D02*
D03*
X1547973Y347825D02*
D03*
X1622973Y272825D02*
D03*
X1547973D02*
D03*
X1472973D02*
D03*
X1622973Y197825D02*
D03*
X1547973D02*
D03*
X1472973D02*
D03*
X1622973Y122825D02*
D03*
X1547973D02*
D03*
X629273D02*
D03*
X704273D02*
D03*
X1229273Y47824D02*
D03*
X816773Y197825D02*
D03*
X741773D02*
D03*
X666773D02*
D03*
X1229273Y347825D02*
D03*
X722973Y272825D02*
D03*
X1304273Y347825D02*
D03*
X591773Y197825D02*
D03*
X516773D02*
D03*
X854273Y122825D02*
D03*
X947973Y272825D02*
D03*
X441773Y197825D02*
D03*
X1135473Y460324D02*
D03*
X1060473D02*
D03*
X985473D02*
D03*
X910473D02*
D03*
X797973Y460425D02*
D03*
X722973D02*
D03*
X647973D02*
D03*
X572973D02*
D03*
X460473Y460324D02*
D03*
X385473D02*
D03*
X235473D02*
D03*
X85473D02*
D03*
X1304273Y272825D02*
D03*
X347973D02*
D03*
X1304273Y47824D02*
D03*
X1229273Y272825D02*
D03*
X366773Y197825D02*
D03*
X779273Y122825D02*
D03*
X891773Y197825D02*
D03*
X404273Y122825D02*
D03*
X1022973Y272825D02*
D03*
X554273Y122825D02*
D03*
X985473Y347825D02*
D03*
X216773Y197825D02*
D03*
X760473Y347825D02*
D03*
X685473D02*
D03*
X610473D02*
D03*
X535473D02*
D03*
X460473D02*
D03*
X385473D02*
D03*
X310473D02*
D03*
X235473D02*
D03*
X160473D02*
D03*
X835473D02*
D03*
X1088673Y197825D02*
D03*
X132373Y122825D02*
D03*
X1032373Y47824D02*
D03*
X188573D02*
D03*
X844873D02*
D03*
X1126173D02*
D03*
X938673D02*
D03*
X1069873Y122825D02*
D03*
X113673Y197825D02*
D03*
X1097973Y347825D02*
D03*
X1510473Y47925D02*
D03*
X563673Y47824D02*
D03*
X1116773Y272825D02*
D03*
X104273D02*
D03*
D44*
X13201Y72500D02*
D03*
X19500D02*
D03*
X1390201Y491500D02*
D03*
X1396500D02*
D03*
X1643299Y530000D02*
D03*
X1637000D02*
D03*
X1643299Y521600D02*
D03*
X1637000D02*
D03*
X1643299Y513200D02*
D03*
X1637000D02*
D03*
X1643299Y504800D02*
D03*
X1637000D02*
D03*
X1643299Y496400D02*
D03*
X1637000D02*
D03*
X1643299Y488000D02*
D03*
X1637000D02*
D03*
X1606201Y530000D02*
D03*
X1612500D02*
D03*
X1606201Y521600D02*
D03*
X1612500D02*
D03*
X1606201Y513200D02*
D03*
X1612500D02*
D03*
X1606201Y504800D02*
D03*
X1612500D02*
D03*
X1606201Y496400D02*
D03*
X1612500D02*
D03*
X1606201Y488000D02*
D03*
X1612500D02*
D03*
D45*
X165000Y89000D02*
D03*
X170500Y89100D02*
D03*
X71000Y89000D02*
D03*
X76500Y89100D02*
D03*
X272000Y389500D02*
D03*
X277500Y389600D02*
D03*
X347000Y389500D02*
D03*
X352500Y389600D02*
D03*
X422000Y389500D02*
D03*
X427500Y389600D02*
D03*
X497000Y389500D02*
D03*
X502500Y389600D02*
D03*
X572000Y389500D02*
D03*
X577500Y389600D02*
D03*
X647000Y389500D02*
D03*
X652500Y389600D02*
D03*
X722000Y389500D02*
D03*
X727500Y389600D02*
D03*
X797000Y389500D02*
D03*
X802500Y389600D02*
D03*
X872000Y389500D02*
D03*
X877500Y389600D02*
D03*
X947000Y389500D02*
D03*
X952500Y389600D02*
D03*
X1059500Y389500D02*
D03*
X1065000Y389600D02*
D03*
X1191000Y389500D02*
D03*
X1196500Y389600D02*
D03*
X1266000Y389500D02*
D03*
X1271500Y389600D02*
D03*
X1584500Y389500D02*
D03*
X1590000Y389600D02*
D03*
X1659500Y389500D02*
D03*
X1665000Y389600D02*
D03*
X47000Y389500D02*
D03*
X52500Y389600D02*
D03*
X122000Y389500D02*
D03*
X127500Y389600D02*
D03*
X197000Y389500D02*
D03*
X202500Y389600D02*
D03*
X1341000Y389500D02*
D03*
X1346500Y389600D02*
D03*
X1434500Y389500D02*
D03*
X1440000Y389600D02*
D03*
X1509500Y389500D02*
D03*
X1515000Y389600D02*
D03*
X909500Y314500D02*
D03*
X915000Y314600D02*
D03*
X834500Y314500D02*
D03*
X840000Y314600D02*
D03*
X759500Y314500D02*
D03*
X765000Y314600D02*
D03*
X684500Y314500D02*
D03*
X690000Y314600D02*
D03*
X609500Y314500D02*
D03*
X615000Y314600D02*
D03*
X535000Y314500D02*
D03*
X540500Y314600D02*
D03*
X459500Y314500D02*
D03*
X465000Y314600D02*
D03*
X384500Y314500D02*
D03*
X390000Y314600D02*
D03*
X309500Y314500D02*
D03*
X315000Y314600D02*
D03*
X234500Y314500D02*
D03*
X240000Y314600D02*
D03*
X159500Y314500D02*
D03*
X165000Y314600D02*
D03*
X66000Y314500D02*
D03*
X71500Y314600D02*
D03*
X1585000Y239500D02*
D03*
X1590500Y239600D02*
D03*
X1341000Y502000D02*
D03*
X1346500Y502100D02*
D03*
X1584500Y164500D02*
D03*
X1590000Y164600D02*
D03*
X1509500Y239500D02*
D03*
X1515000Y239600D02*
D03*
X1266000Y502000D02*
D03*
X1271500Y502100D02*
D03*
X1509500Y164500D02*
D03*
X1515000Y164600D02*
D03*
X1434500Y239500D02*
D03*
X1440000Y239600D02*
D03*
X1434500Y164500D02*
D03*
X1440000Y164600D02*
D03*
X1050000Y239500D02*
D03*
X1055500Y239600D02*
D03*
X1191000Y502000D02*
D03*
X1196500Y502100D02*
D03*
X1266000Y164500D02*
D03*
X1271500Y164600D02*
D03*
X928500Y239500D02*
D03*
X934000Y239600D02*
D03*
X1097000Y502000D02*
D03*
X1102500Y502100D02*
D03*
X1031500Y164500D02*
D03*
X1037000Y164600D02*
D03*
X1022000Y502000D02*
D03*
X1027500Y502100D02*
D03*
X853500Y239500D02*
D03*
X859000Y239600D02*
D03*
X891000Y164500D02*
D03*
X896500Y164600D02*
D03*
X1584500Y89500D02*
D03*
X1590000Y89600D02*
D03*
X947000Y502000D02*
D03*
X952500Y502100D02*
D03*
X778500Y239500D02*
D03*
X784000Y239600D02*
D03*
X816000Y164500D02*
D03*
X821500Y164600D02*
D03*
X1472000Y89500D02*
D03*
X1477500Y89600D02*
D03*
X872000Y502000D02*
D03*
X877500Y502100D02*
D03*
X703500Y239500D02*
D03*
X709000Y239600D02*
D03*
X740500Y164500D02*
D03*
X746000Y164600D02*
D03*
X1340500Y89500D02*
D03*
X1346000Y89600D02*
D03*
X759500Y502000D02*
D03*
X765000Y502100D02*
D03*
X628500Y239500D02*
D03*
X634000Y239600D02*
D03*
X666000Y164500D02*
D03*
X671500Y164600D02*
D03*
X1266000Y89500D02*
D03*
X1271500Y89600D02*
D03*
X684500Y502000D02*
D03*
X690000Y502100D02*
D03*
X553500Y239500D02*
D03*
X559000Y239600D02*
D03*
X1191000Y89500D02*
D03*
X1196500Y89600D02*
D03*
X609500Y502000D02*
D03*
X615000Y502100D02*
D03*
X591000Y164500D02*
D03*
X596500Y164600D02*
D03*
X478500Y239500D02*
D03*
X484000Y239600D02*
D03*
X1102500Y89000D02*
D03*
X1108000Y89100D02*
D03*
X534500Y502000D02*
D03*
X540000Y502100D02*
D03*
X1584500Y314500D02*
D03*
X1590000Y314600D02*
D03*
X515500Y164500D02*
D03*
X521000Y164600D02*
D03*
X403500Y239500D02*
D03*
X409000Y239600D02*
D03*
X1008500Y89000D02*
D03*
X1014000Y89100D02*
D03*
X422000Y502000D02*
D03*
X427500Y502100D02*
D03*
X1509500Y314500D02*
D03*
X1515000Y314600D02*
D03*
X441000Y164500D02*
D03*
X446500Y164600D02*
D03*
X328500Y239500D02*
D03*
X334000Y239600D02*
D03*
X900000Y89500D02*
D03*
X905500Y89600D02*
D03*
X347000Y502000D02*
D03*
X352500Y502100D02*
D03*
X1434500Y314500D02*
D03*
X1440000Y314600D02*
D03*
X365500Y164500D02*
D03*
X371000Y164600D02*
D03*
X253500Y239500D02*
D03*
X259000Y239600D02*
D03*
X806500Y89500D02*
D03*
X812000Y89600D02*
D03*
X272000Y502000D02*
D03*
X277500Y502100D02*
D03*
X1340500Y314500D02*
D03*
X1346000Y314600D02*
D03*
X290500Y164500D02*
D03*
X296000Y164600D02*
D03*
X178500Y239500D02*
D03*
X184000Y239600D02*
D03*
X197000Y502000D02*
D03*
X202500Y502100D02*
D03*
X1266000Y314500D02*
D03*
X1271500Y314600D02*
D03*
X215500Y164500D02*
D03*
X221000Y164600D02*
D03*
X75000Y239500D02*
D03*
X80500Y239600D02*
D03*
X525000Y89500D02*
D03*
X530500Y89600D02*
D03*
X47000Y502000D02*
D03*
X52500Y502100D02*
D03*
X94000Y164500D02*
D03*
X99500Y164600D02*
D03*
X244000Y89500D02*
D03*
X249500Y89600D02*
D03*
X1191000Y314500D02*
D03*
X1196500Y314600D02*
D03*
X1078500Y314500D02*
D03*
X1084000Y314600D02*
D03*
X984500Y314500D02*
D03*
X990000Y314600D02*
D03*
D46*
X1637853Y84826D02*
D03*
X1637753Y90326D02*
D03*
X1637853Y235323D02*
D03*
X1637753Y240823D02*
D03*
D47*
X1679675Y273673D02*
D03*
Y123673D02*
D03*
D48*
X1689676Y222073D02*
D03*
Y72073D02*
D03*
D49*
X1655093Y235200D02*
D03*
Y255671D02*
D03*
X1648400Y255673D02*
D03*
Y235200D02*
D03*
X1655093Y85200D02*
D03*
Y105671D02*
D03*
X1648400Y105673D02*
D03*
Y85200D02*
D03*
M02*
