G04*
G04 #@! TF.GenerationSoftware,Altium Limited,Altium Designer,20.2.6 (244)*
G04*
G04 Layer_Color=8388736*
%FSLAX25Y25*%
%MOIN*%
G70*
G04*
G04 #@! TF.SameCoordinates,FD497EF7-E073-4045-A6AB-1AB52DC75ADD*
G04*
G04*
G04 #@! TF.FilePolarity,Negative*
G04*
G01*
G75*
%ADD14C,0.16548*%
%ADD15C,0.12611*%
%ADD16C,0.08280*%
%ADD17C,0.19698*%
%ADD18C,0.00800*%
%ADD19C,0.04800*%
%ADD20C,0.05800*%
G36*
X1278942Y205803D02*
X1278981Y205798D01*
X1279024Y205782D01*
X1279068Y205765D01*
X1279106Y205738D01*
X1279144Y205705D01*
X1279150Y205700D01*
X1279161Y205689D01*
X1279172Y205667D01*
X1279188Y205640D01*
X1279204Y205601D01*
X1279221Y205563D01*
X1279226Y205514D01*
X1279232Y205465D01*
Y205459D01*
Y205443D01*
X1279226Y205416D01*
X1279221Y205383D01*
X1279210Y205345D01*
X1279193Y205307D01*
X1279172Y205263D01*
X1279144Y205225D01*
X1279139Y205219D01*
X1279128Y205208D01*
X1279106Y205197D01*
X1279079Y205181D01*
X1279041Y205159D01*
X1278997Y205148D01*
X1278942Y205137D01*
X1278882Y205132D01*
X1278855D01*
X1278822Y205137D01*
X1278784Y205143D01*
X1278740Y205154D01*
X1278697Y205170D01*
X1278658Y205192D01*
X1278620Y205225D01*
X1278615Y205230D01*
X1278609Y205241D01*
X1278593Y205263D01*
X1278576Y205290D01*
X1278560Y205328D01*
X1278549Y205367D01*
X1278538Y205416D01*
X1278533Y205465D01*
Y205470D01*
Y205487D01*
X1278538Y205514D01*
X1278544Y205547D01*
X1278555Y205585D01*
X1278571Y205629D01*
X1278593Y205667D01*
X1278620Y205705D01*
X1278626Y205711D01*
X1278637Y205721D01*
X1278658Y205738D01*
X1278686Y205760D01*
X1278724Y205776D01*
X1278768Y205792D01*
X1278822Y205803D01*
X1278882Y205809D01*
X1278910D01*
X1278942Y205803D01*
D02*
G37*
G36*
X1267050Y205803D02*
X1267111Y205798D01*
X1267181Y205787D01*
X1267263Y205776D01*
X1267351Y205760D01*
X1267438Y205743D01*
X1267536Y205716D01*
X1267635Y205689D01*
X1267727Y205651D01*
X1267826Y205607D01*
X1267924Y205558D01*
X1268011Y205498D01*
X1268099Y205432D01*
X1268104Y205427D01*
X1268121Y205416D01*
X1268143Y205394D01*
X1268170Y205361D01*
X1268208Y205323D01*
X1268246Y205279D01*
X1268290Y205225D01*
X1268334Y205159D01*
X1268383Y205088D01*
X1268426Y205012D01*
X1268476Y204924D01*
X1268519Y204832D01*
X1268557Y204728D01*
X1268596Y204619D01*
X1268623Y204504D01*
X1268645Y204378D01*
X1268033D01*
Y204389D01*
X1268022Y204417D01*
X1268011Y204466D01*
X1267990Y204526D01*
X1267962Y204591D01*
X1267929Y204673D01*
X1267886Y204755D01*
X1267831Y204842D01*
X1267766Y204930D01*
X1267689Y205012D01*
X1267597Y205094D01*
X1267493Y205159D01*
X1267378Y205219D01*
X1267247Y205268D01*
X1267094Y205296D01*
X1266930Y205307D01*
X1266870D01*
X1266827Y205301D01*
X1266778Y205296D01*
X1266717Y205285D01*
X1266652Y205268D01*
X1266581Y205252D01*
X1266510Y205230D01*
X1266434Y205203D01*
X1266352Y205165D01*
X1266275Y205121D01*
X1266199Y205072D01*
X1266128Y205012D01*
X1266062Y204946D01*
X1265997Y204870D01*
X1265991Y204864D01*
X1265986Y204848D01*
X1265969Y204826D01*
X1265948Y204788D01*
X1265926Y204744D01*
X1265898Y204690D01*
X1265866Y204624D01*
X1265838Y204548D01*
X1265806Y204466D01*
X1265778Y204373D01*
X1265751Y204269D01*
X1265729Y204154D01*
X1265707Y204034D01*
X1265691Y203903D01*
X1265680Y203761D01*
X1265675Y203614D01*
Y203232D01*
Y203221D01*
Y203199D01*
Y203155D01*
X1265680Y203101D01*
X1265685Y203035D01*
X1265691Y202959D01*
X1265702Y202871D01*
X1265718Y202779D01*
X1265762Y202582D01*
X1265789Y202478D01*
X1265822Y202375D01*
X1265866Y202271D01*
X1265915Y202167D01*
X1265969Y202074D01*
X1266029Y201981D01*
X1266035Y201976D01*
X1266046Y201960D01*
X1266068Y201938D01*
X1266095Y201910D01*
X1266133Y201878D01*
X1266177Y201834D01*
X1266226Y201796D01*
X1266286Y201752D01*
X1266352Y201708D01*
X1266423Y201670D01*
X1266504Y201632D01*
X1266592Y201594D01*
X1266685Y201567D01*
X1266783Y201545D01*
X1266892Y201528D01*
X1267001Y201523D01*
X1267089D01*
X1267127Y201528D01*
X1267209Y201534D01*
X1267302Y201539D01*
X1267405Y201556D01*
X1267509Y201572D01*
X1267607Y201599D01*
X1267613D01*
X1267618Y201605D01*
X1267651Y201616D01*
X1267700Y201632D01*
X1267760Y201659D01*
X1267826Y201697D01*
X1267897Y201741D01*
X1267968Y201796D01*
X1268039Y201856D01*
Y202904D01*
X1266958D01*
Y203407D01*
X1268645D01*
Y201692D01*
Y201687D01*
X1268634Y201676D01*
X1268623Y201659D01*
X1268601Y201638D01*
X1268546Y201577D01*
X1268476Y201501D01*
X1268383Y201419D01*
X1268268Y201337D01*
X1268137Y201255D01*
X1267984Y201184D01*
X1267979D01*
X1267968Y201179D01*
X1267941Y201168D01*
X1267908Y201157D01*
X1267869Y201146D01*
X1267820Y201135D01*
X1267766Y201119D01*
X1267706Y201102D01*
X1267635Y201086D01*
X1267558Y201075D01*
X1267476Y201059D01*
X1267395Y201048D01*
X1267203Y201026D01*
X1267001Y201021D01*
X1266947D01*
X1266903Y201026D01*
X1266854D01*
X1266799Y201037D01*
X1266734Y201042D01*
X1266657Y201053D01*
X1266499Y201086D01*
X1266330Y201130D01*
X1266155Y201195D01*
X1266068Y201239D01*
X1265986Y201283D01*
X1265980Y201288D01*
X1265969Y201293D01*
X1265942Y201310D01*
X1265915Y201332D01*
X1265877Y201359D01*
X1265833Y201392D01*
X1265789Y201430D01*
X1265735Y201479D01*
X1265685Y201528D01*
X1265625Y201588D01*
X1265571Y201648D01*
X1265516Y201714D01*
X1265456Y201790D01*
X1265402Y201867D01*
X1265303Y202042D01*
Y202047D01*
X1265292Y202063D01*
X1265281Y202091D01*
X1265265Y202129D01*
X1265249Y202178D01*
X1265227Y202233D01*
X1265205Y202298D01*
X1265183Y202369D01*
X1265161Y202451D01*
X1265139Y202538D01*
X1265118Y202637D01*
X1265096Y202735D01*
X1265085Y202839D01*
X1265069Y202953D01*
X1265063Y203068D01*
X1265058Y203188D01*
Y203592D01*
Y203598D01*
Y203603D01*
Y203619D01*
Y203641D01*
X1265063Y203696D01*
Y203767D01*
X1265074Y203854D01*
X1265085Y203958D01*
X1265101Y204067D01*
X1265118Y204193D01*
X1265145Y204318D01*
X1265178Y204455D01*
X1265216Y204591D01*
X1265265Y204728D01*
X1265320Y204859D01*
X1265385Y204990D01*
X1265462Y205110D01*
X1265549Y205225D01*
X1265554Y205230D01*
X1265571Y205252D01*
X1265598Y205279D01*
X1265642Y205317D01*
X1265691Y205361D01*
X1265751Y205410D01*
X1265822Y205465D01*
X1265904Y205520D01*
X1265997Y205574D01*
X1266100Y205623D01*
X1266215Y205672D01*
X1266341Y205716D01*
X1266472Y205754D01*
X1266614Y205782D01*
X1266767Y205803D01*
X1266930Y205809D01*
X1267001D01*
X1267050Y205803D01*
D02*
G37*
G36*
X1255426Y201086D02*
X1254886D01*
X1254853Y201452D01*
X1254847Y201446D01*
X1254836Y201435D01*
X1254815Y201414D01*
X1254787Y201386D01*
X1254749Y201354D01*
X1254705Y201315D01*
X1254656Y201277D01*
X1254596Y201239D01*
X1254531Y201195D01*
X1254454Y201157D01*
X1254372Y201119D01*
X1254285Y201086D01*
X1254192Y201059D01*
X1254088Y201037D01*
X1253979Y201026D01*
X1253865Y201021D01*
X1253837D01*
X1253804Y201026D01*
X1253766D01*
X1253712Y201037D01*
X1253657Y201048D01*
X1253586Y201064D01*
X1253515Y201080D01*
X1253439Y201108D01*
X1253362Y201141D01*
X1253280Y201179D01*
X1253199Y201228D01*
X1253117Y201283D01*
X1253035Y201348D01*
X1252958Y201425D01*
X1252882Y201512D01*
X1252876Y201517D01*
X1252865Y201534D01*
X1252849Y201561D01*
X1252822Y201599D01*
X1252794Y201648D01*
X1252762Y201708D01*
X1252729Y201779D01*
X1252696Y201856D01*
X1252658Y201943D01*
X1252625Y202042D01*
X1252592Y202151D01*
X1252565Y202265D01*
X1252538Y202385D01*
X1252521Y202517D01*
X1252511Y202653D01*
X1252505Y202800D01*
Y202844D01*
Y202855D01*
Y202877D01*
Y202921D01*
X1252511Y202975D01*
X1252516Y203046D01*
X1252527Y203123D01*
X1252538Y203210D01*
X1252554Y203303D01*
X1252571Y203401D01*
X1252598Y203510D01*
X1252625Y203614D01*
X1252663Y203723D01*
X1252707Y203827D01*
X1252756Y203931D01*
X1252816Y204034D01*
X1252882Y204127D01*
X1252887Y204133D01*
X1252898Y204149D01*
X1252920Y204171D01*
X1252953Y204204D01*
X1252991Y204242D01*
X1253035Y204280D01*
X1253089Y204324D01*
X1253149Y204373D01*
X1253215Y204417D01*
X1253291Y204460D01*
X1253373Y204499D01*
X1253461Y204537D01*
X1253553Y204570D01*
X1253652Y204591D01*
X1253761Y204608D01*
X1253870Y204613D01*
X1253930D01*
X1253974Y204608D01*
X1254023Y204602D01*
X1254083Y204591D01*
X1254148Y204580D01*
X1254220Y204559D01*
X1254296Y204537D01*
X1254372Y204509D01*
X1254454Y204477D01*
X1254536Y204438D01*
X1254618Y204389D01*
X1254694Y204329D01*
X1254766Y204269D01*
X1254836Y204193D01*
Y206000D01*
X1255426D01*
Y201086D01*
D02*
G37*
G36*
X1271085Y204608D02*
X1271173Y204591D01*
X1271211Y204580D01*
X1271249Y204564D01*
Y204013D01*
X1271244D01*
X1271227Y204018D01*
X1271200Y204024D01*
X1271162Y204029D01*
X1271118D01*
X1271069Y204034D01*
X1270960Y204040D01*
X1270932D01*
X1270905Y204034D01*
X1270867D01*
X1270818Y204024D01*
X1270763Y204013D01*
X1270703Y203996D01*
X1270643Y203980D01*
X1270578Y203953D01*
X1270512Y203920D01*
X1270447Y203876D01*
X1270381Y203832D01*
X1270321Y203772D01*
X1270261Y203707D01*
X1270212Y203630D01*
X1270168Y203543D01*
Y201086D01*
X1269578D01*
Y204548D01*
X1270152D01*
X1270163Y204149D01*
X1270168Y204154D01*
X1270179Y204171D01*
X1270195Y204193D01*
X1270217Y204220D01*
X1270245Y204258D01*
X1270283Y204296D01*
X1270327Y204340D01*
X1270376Y204384D01*
X1270430Y204422D01*
X1270490Y204466D01*
X1270561Y204504D01*
X1270632Y204542D01*
X1270714Y204570D01*
X1270796Y204591D01*
X1270889Y204608D01*
X1270987Y204613D01*
X1271047D01*
X1271085Y204608D01*
D02*
G37*
G36*
X1283441Y200556D02*
X1283436Y200546D01*
X1283425Y200518D01*
X1283409Y200475D01*
X1283381Y200420D01*
X1283343Y200354D01*
X1283305Y200283D01*
X1283250Y200202D01*
X1283190Y200125D01*
X1283125Y200043D01*
X1283048Y199961D01*
X1282966Y199890D01*
X1282874Y199825D01*
X1282770Y199770D01*
X1282661Y199726D01*
X1282541Y199699D01*
X1282415Y199688D01*
X1282300Y199699D01*
X1282082Y199743D01*
Y200223D01*
X1282240Y200207D01*
X1282289D01*
X1282344Y200212D01*
X1282409Y200223D01*
X1282486Y200240D01*
X1282568Y200262D01*
X1282639Y200289D01*
X1282710Y200332D01*
X1282715Y200338D01*
X1282737Y200354D01*
X1282770Y200387D01*
X1282808Y200431D01*
X1282852Y200491D01*
X1282901Y200567D01*
X1282944Y200666D01*
X1282988Y200775D01*
X1283119Y201124D01*
X1281885Y204548D01*
X1282530D01*
X1283392Y201949D01*
X1284200Y204548D01*
X1284834D01*
X1283441Y200556D01*
D02*
G37*
G36*
X1276720Y201086D02*
X1276267D01*
X1275017Y204548D01*
X1275617D01*
X1276502Y201889D01*
X1277359Y204548D01*
X1277960D01*
X1276720Y201086D01*
D02*
G37*
G36*
X1279172D02*
X1278582D01*
Y204548D01*
X1279172D01*
Y201086D01*
D02*
G37*
G36*
X1273237Y204608D02*
X1273286Y204602D01*
X1273346Y204597D01*
X1273411Y204586D01*
X1273482Y204575D01*
X1273630Y204542D01*
X1273788Y204488D01*
X1273865Y204455D01*
X1273941Y204411D01*
X1274012Y204367D01*
X1274078Y204313D01*
X1274083Y204307D01*
X1274094Y204296D01*
X1274110Y204280D01*
X1274132Y204258D01*
X1274154Y204225D01*
X1274187Y204193D01*
X1274214Y204149D01*
X1274247Y204100D01*
X1274279Y204040D01*
X1274312Y203980D01*
X1274340Y203914D01*
X1274367Y203838D01*
X1274389Y203761D01*
X1274411Y203674D01*
X1274422Y203587D01*
X1274427Y203488D01*
Y201894D01*
Y201889D01*
Y201872D01*
Y201850D01*
Y201812D01*
X1274432Y201774D01*
Y201725D01*
X1274443Y201621D01*
X1274460Y201496D01*
X1274481Y201370D01*
X1274509Y201250D01*
X1274553Y201135D01*
Y201086D01*
X1273930D01*
Y201092D01*
X1273925Y201108D01*
X1273914Y201130D01*
X1273903Y201168D01*
X1273886Y201217D01*
X1273876Y201277D01*
X1273859Y201354D01*
X1273848Y201446D01*
X1273843Y201441D01*
X1273832Y201430D01*
X1273804Y201408D01*
X1273777Y201381D01*
X1273734Y201348D01*
X1273684Y201310D01*
X1273630Y201272D01*
X1273570Y201233D01*
X1273499Y201195D01*
X1273422Y201157D01*
X1273346Y201119D01*
X1273258Y201086D01*
X1273166Y201059D01*
X1273067Y201037D01*
X1272964Y201026D01*
X1272860Y201021D01*
X1272811D01*
X1272778Y201026D01*
X1272734Y201031D01*
X1272680Y201037D01*
X1272625Y201042D01*
X1272565Y201059D01*
X1272434Y201092D01*
X1272292Y201141D01*
X1272221Y201173D01*
X1272156Y201217D01*
X1272090Y201261D01*
X1272025Y201310D01*
X1272019Y201315D01*
X1272008Y201321D01*
X1271992Y201337D01*
X1271975Y201364D01*
X1271948Y201392D01*
X1271921Y201425D01*
X1271894Y201463D01*
X1271861Y201512D01*
X1271801Y201616D01*
X1271746Y201741D01*
X1271730Y201812D01*
X1271713Y201883D01*
X1271702Y201960D01*
X1271697Y202042D01*
Y202047D01*
Y202063D01*
X1271702Y202096D01*
Y202129D01*
X1271708Y202178D01*
X1271719Y202227D01*
X1271730Y202287D01*
X1271746Y202347D01*
X1271768Y202418D01*
X1271795Y202484D01*
X1271828Y202555D01*
X1271872Y202626D01*
X1271915Y202691D01*
X1271970Y202762D01*
X1272036Y202822D01*
X1272106Y202882D01*
X1272112Y202888D01*
X1272128Y202893D01*
X1272150Y202910D01*
X1272183Y202931D01*
X1272227Y202953D01*
X1272276Y202975D01*
X1272336Y203003D01*
X1272407Y203035D01*
X1272483Y203063D01*
X1272571Y203090D01*
X1272663Y203112D01*
X1272767Y203134D01*
X1272882Y203155D01*
X1273002Y203172D01*
X1273127Y203177D01*
X1273264Y203183D01*
X1273837D01*
Y203456D01*
Y203461D01*
Y203472D01*
Y203488D01*
Y203505D01*
X1273826Y203565D01*
X1273815Y203636D01*
X1273794Y203712D01*
X1273761Y203794D01*
X1273712Y203876D01*
X1273652Y203953D01*
X1273641Y203958D01*
X1273619Y203980D01*
X1273575Y204013D01*
X1273515Y204045D01*
X1273439Y204078D01*
X1273346Y204111D01*
X1273231Y204133D01*
X1273106Y204138D01*
X1273051D01*
X1272996Y204127D01*
X1272920Y204116D01*
X1272838Y204100D01*
X1272745Y204067D01*
X1272658Y204029D01*
X1272571Y203974D01*
X1272560Y203969D01*
X1272538Y203947D01*
X1272505Y203909D01*
X1272467Y203865D01*
X1272423Y203811D01*
X1272390Y203740D01*
X1272369Y203669D01*
X1272358Y203587D01*
X1271762D01*
Y203592D01*
Y203598D01*
X1271768Y203630D01*
X1271773Y203679D01*
X1271784Y203745D01*
X1271806Y203821D01*
X1271839Y203903D01*
X1271888Y203991D01*
X1271948Y204083D01*
Y204089D01*
X1271959Y204095D01*
X1271981Y204122D01*
X1272025Y204171D01*
X1272079Y204225D01*
X1272150Y204286D01*
X1272237Y204351D01*
X1272336Y204417D01*
X1272445Y204471D01*
X1272450D01*
X1272461Y204477D01*
X1272478Y204482D01*
X1272500Y204493D01*
X1272532Y204504D01*
X1272565Y204515D01*
X1272652Y204542D01*
X1272756Y204570D01*
X1272871Y204591D01*
X1273002Y204608D01*
X1273138Y204613D01*
X1273198D01*
X1273237Y204608D01*
D02*
G37*
G36*
X1251948Y205241D02*
X1249633D01*
Y203740D01*
X1251653D01*
Y203237D01*
X1249633D01*
Y201588D01*
X1251981D01*
Y201086D01*
X1249022D01*
Y205743D01*
X1251948D01*
Y205241D01*
D02*
G37*
G36*
X1280924Y204548D02*
X1281569D01*
Y204089D01*
X1280924D01*
Y201938D01*
Y201927D01*
Y201905D01*
X1280930Y201867D01*
X1280935Y201823D01*
X1280946Y201768D01*
X1280957Y201719D01*
X1280979Y201670D01*
X1281006Y201626D01*
X1281012Y201621D01*
X1281023Y201610D01*
X1281044Y201594D01*
X1281077Y201577D01*
X1281115Y201556D01*
X1281170Y201539D01*
X1281230Y201528D01*
X1281301Y201523D01*
X1281345D01*
X1281378Y201528D01*
X1281416Y201534D01*
X1281465Y201539D01*
X1281520Y201550D01*
X1281585Y201561D01*
Y201086D01*
X1281574D01*
X1281547Y201075D01*
X1281498Y201064D01*
X1281443Y201053D01*
X1281372Y201042D01*
X1281296Y201031D01*
X1281214Y201026D01*
X1281132Y201021D01*
X1281094D01*
X1281066Y201026D01*
X1281034D01*
X1280995Y201031D01*
X1280908Y201048D01*
X1280810Y201080D01*
X1280711Y201119D01*
X1280613Y201179D01*
X1280569Y201212D01*
X1280531Y201255D01*
Y201261D01*
X1280520Y201266D01*
X1280515Y201283D01*
X1280499Y201299D01*
X1280466Y201354D01*
X1280433Y201430D01*
X1280395Y201528D01*
X1280362Y201643D01*
X1280340Y201779D01*
X1280329Y201938D01*
Y204089D01*
X1279701D01*
Y204548D01*
X1280329D01*
Y205388D01*
X1280924D01*
Y204548D01*
D02*
G37*
G36*
X1261448Y204608D02*
X1261492D01*
X1261552Y204602D01*
X1261618Y204591D01*
X1261689Y204575D01*
X1261771Y204559D01*
X1261853Y204531D01*
X1261934Y204504D01*
X1262022Y204466D01*
X1262109Y204422D01*
X1262197Y204373D01*
X1262278Y204313D01*
X1262360Y204242D01*
X1262431Y204165D01*
X1262437Y204160D01*
X1262448Y204144D01*
X1262464Y204122D01*
X1262491Y204083D01*
X1262519Y204040D01*
X1262551Y203980D01*
X1262584Y203914D01*
X1262622Y203843D01*
X1262655Y203756D01*
X1262688Y203663D01*
X1262721Y203554D01*
X1262748Y203445D01*
X1262775Y203319D01*
X1262792Y203188D01*
X1262803Y203046D01*
X1262808Y202893D01*
Y202648D01*
X1260466D01*
Y202642D01*
Y202626D01*
X1260471Y202598D01*
Y202560D01*
X1260477Y202517D01*
X1260482Y202467D01*
X1260493Y202413D01*
X1260509Y202347D01*
X1260542Y202216D01*
X1260597Y202074D01*
X1260629Y202009D01*
X1260668Y201938D01*
X1260711Y201872D01*
X1260761Y201812D01*
X1260766Y201807D01*
X1260771Y201801D01*
X1260788Y201785D01*
X1260815Y201763D01*
X1260843Y201741D01*
X1260875Y201714D01*
X1260913Y201687D01*
X1260963Y201659D01*
X1261066Y201599D01*
X1261192Y201550D01*
X1261263Y201528D01*
X1261334Y201512D01*
X1261410Y201506D01*
X1261492Y201501D01*
X1261547D01*
X1261601Y201506D01*
X1261678Y201517D01*
X1261760Y201534D01*
X1261847Y201556D01*
X1261934Y201583D01*
X1262022Y201626D01*
X1262033Y201632D01*
X1262060Y201648D01*
X1262098Y201681D01*
X1262153Y201719D01*
X1262213Y201768D01*
X1262273Y201829D01*
X1262339Y201894D01*
X1262404Y201971D01*
X1262764Y201687D01*
X1262759Y201681D01*
X1262743Y201659D01*
X1262721Y201626D01*
X1262683Y201583D01*
X1262639Y201534D01*
X1262579Y201474D01*
X1262513Y201414D01*
X1262437Y201354D01*
X1262349Y201293D01*
X1262257Y201233D01*
X1262147Y201173D01*
X1262027Y201124D01*
X1261902Y201080D01*
X1261765Y201048D01*
X1261618Y201026D01*
X1261459Y201021D01*
X1261427D01*
X1261394Y201026D01*
X1261345D01*
X1261285Y201037D01*
X1261214Y201042D01*
X1261137Y201059D01*
X1261050Y201080D01*
X1260963Y201102D01*
X1260870Y201135D01*
X1260777Y201168D01*
X1260679Y201212D01*
X1260580Y201266D01*
X1260488Y201326D01*
X1260400Y201397D01*
X1260313Y201479D01*
X1260307Y201485D01*
X1260297Y201501D01*
X1260275Y201528D01*
X1260242Y201567D01*
X1260209Y201610D01*
X1260171Y201665D01*
X1260133Y201730D01*
X1260094Y201807D01*
X1260051Y201894D01*
X1260013Y201987D01*
X1259974Y202085D01*
X1259942Y202200D01*
X1259914Y202314D01*
X1259892Y202446D01*
X1259876Y202577D01*
X1259871Y202718D01*
Y202828D01*
Y202833D01*
Y202850D01*
Y202877D01*
X1259876Y202915D01*
Y202959D01*
X1259881Y203013D01*
X1259887Y203068D01*
X1259898Y203134D01*
X1259920Y203275D01*
X1259953Y203434D01*
X1260002Y203592D01*
X1260067Y203745D01*
Y203750D01*
X1260078Y203761D01*
X1260089Y203783D01*
X1260105Y203811D01*
X1260122Y203849D01*
X1260149Y203887D01*
X1260209Y203980D01*
X1260291Y204083D01*
X1260384Y204187D01*
X1260493Y204291D01*
X1260619Y204384D01*
X1260624Y204389D01*
X1260635Y204395D01*
X1260657Y204406D01*
X1260679Y204422D01*
X1260711Y204438D01*
X1260755Y204455D01*
X1260799Y204477D01*
X1260848Y204499D01*
X1260963Y204542D01*
X1261094Y204575D01*
X1261230Y204602D01*
X1261383Y204613D01*
X1261410D01*
X1261448Y204608D01*
D02*
G37*
G36*
X1244370Y205803D02*
X1244424Y205798D01*
X1244490Y205792D01*
X1244561Y205782D01*
X1244643Y205771D01*
X1244724Y205754D01*
X1244817Y205732D01*
X1244910Y205705D01*
X1245008Y205672D01*
X1245112Y205634D01*
X1245210Y205596D01*
X1245314Y205541D01*
X1245413Y205487D01*
X1245418Y205481D01*
X1245434Y205470D01*
X1245462Y205454D01*
X1245500Y205427D01*
X1245543Y205394D01*
X1245598Y205356D01*
X1245653Y205312D01*
X1245713Y205257D01*
X1245778Y205197D01*
X1245849Y205132D01*
X1245915Y205061D01*
X1245986Y204984D01*
X1246051Y204903D01*
X1246117Y204810D01*
X1246177Y204717D01*
X1246237Y204613D01*
X1246242Y204608D01*
X1246248Y204586D01*
X1246264Y204559D01*
X1246286Y204515D01*
X1246308Y204466D01*
X1246330Y204406D01*
X1246357Y204335D01*
X1246390Y204258D01*
X1246417Y204171D01*
X1246444Y204078D01*
X1246466Y203980D01*
X1246488Y203876D01*
X1246526Y203652D01*
X1246532Y203538D01*
X1246537Y203417D01*
Y203412D01*
Y203390D01*
Y203357D01*
X1246532Y203308D01*
X1246526Y203254D01*
X1246521Y203188D01*
X1246515Y203112D01*
X1246499Y203030D01*
X1246488Y202942D01*
X1246466Y202850D01*
X1246417Y202653D01*
X1246384Y202549D01*
X1246346Y202440D01*
X1246297Y202336D01*
X1246248Y202233D01*
X1246242Y202227D01*
X1246237Y202211D01*
X1246221Y202178D01*
X1246193Y202140D01*
X1246166Y202096D01*
X1246128Y202042D01*
X1246089Y201981D01*
X1246040Y201916D01*
X1245986Y201850D01*
X1245926Y201779D01*
X1245860Y201703D01*
X1245784Y201632D01*
X1245707Y201561D01*
X1245620Y201485D01*
X1245533Y201419D01*
X1245434Y201354D01*
X1245429Y201348D01*
X1245413Y201337D01*
X1245380Y201321D01*
X1245341Y201304D01*
X1245292Y201277D01*
X1245232Y201250D01*
X1245167Y201217D01*
X1245090Y201190D01*
X1245008Y201157D01*
X1244916Y201124D01*
X1244823Y201097D01*
X1244719Y201075D01*
X1244615Y201053D01*
X1244501Y201037D01*
X1244392Y201026D01*
X1244271Y201021D01*
X1244211D01*
X1244168Y201026D01*
X1244108Y201031D01*
X1244048Y201037D01*
X1243971Y201048D01*
X1243889Y201064D01*
X1243807Y201080D01*
X1243714Y201102D01*
X1243616Y201130D01*
X1243518Y201157D01*
X1243420Y201195D01*
X1243316Y201239D01*
X1243212Y201288D01*
X1243114Y201348D01*
X1243108Y201354D01*
X1243092Y201364D01*
X1243065Y201381D01*
X1243027Y201408D01*
X1242983Y201441D01*
X1242928Y201485D01*
X1242874Y201528D01*
X1242813Y201583D01*
X1242748Y201643D01*
X1242682Y201708D01*
X1242612Y201779D01*
X1242540Y201861D01*
X1242475Y201943D01*
X1242410Y202031D01*
X1242349Y202129D01*
X1242289Y202227D01*
X1242284Y202233D01*
X1242278Y202254D01*
X1242262Y202282D01*
X1242246Y202325D01*
X1242224Y202375D01*
X1242197Y202435D01*
X1242169Y202506D01*
X1242147Y202582D01*
X1242120Y202669D01*
X1242093Y202762D01*
X1242066Y202860D01*
X1242044Y202964D01*
X1242011Y203183D01*
X1242006Y203297D01*
X1242000Y203417D01*
Y203423D01*
Y203445D01*
Y203483D01*
X1242006Y203527D01*
X1242011Y203581D01*
X1242016Y203652D01*
X1242027Y203723D01*
X1242038Y203811D01*
X1242055Y203898D01*
X1242071Y203991D01*
X1242126Y204193D01*
X1242164Y204296D01*
X1242202Y204406D01*
X1242246Y204509D01*
X1242300Y204613D01*
X1242306Y204619D01*
X1242317Y204641D01*
X1242333Y204668D01*
X1242355Y204706D01*
X1242388Y204750D01*
X1242420Y204804D01*
X1242464Y204864D01*
X1242519Y204930D01*
X1242573Y205001D01*
X1242633Y205072D01*
X1242699Y205143D01*
X1242775Y205219D01*
X1242852Y205290D01*
X1242939Y205361D01*
X1243032Y205427D01*
X1243125Y205487D01*
X1243130Y205492D01*
X1243147Y205503D01*
X1243179Y205514D01*
X1243218Y205536D01*
X1243267Y205563D01*
X1243327Y205591D01*
X1243392Y205618D01*
X1243469Y205651D01*
X1243551Y205678D01*
X1243638Y205705D01*
X1243731Y205732D01*
X1243829Y205760D01*
X1243933Y205782D01*
X1244042Y205792D01*
X1244151Y205803D01*
X1244266Y205809D01*
X1244326D01*
X1244370Y205803D01*
D02*
G37*
G36*
X1257632Y204608D02*
X1257676D01*
X1257730Y204597D01*
X1257790Y204591D01*
X1257861Y204575D01*
X1257932Y204559D01*
X1258009Y204531D01*
X1258091Y204504D01*
X1258173Y204466D01*
X1258254Y204422D01*
X1258336Y204373D01*
X1258418Y204307D01*
X1258489Y204242D01*
X1258560Y204160D01*
X1258587Y204548D01*
X1259128D01*
Y201162D01*
Y201157D01*
Y201135D01*
Y201097D01*
X1259123Y201053D01*
X1259117Y200999D01*
X1259106Y200933D01*
X1259095Y200857D01*
X1259079Y200780D01*
X1259057Y200698D01*
X1259030Y200611D01*
X1258997Y200524D01*
X1258959Y200436D01*
X1258915Y200349D01*
X1258860Y200267D01*
X1258800Y200185D01*
X1258729Y200109D01*
X1258724Y200103D01*
X1258713Y200092D01*
X1258686Y200070D01*
X1258659Y200049D01*
X1258615Y200021D01*
X1258566Y199988D01*
X1258511Y199950D01*
X1258445Y199918D01*
X1258375Y199879D01*
X1258293Y199841D01*
X1258205Y199808D01*
X1258113Y199781D01*
X1258009Y199759D01*
X1257899Y199737D01*
X1257785Y199726D01*
X1257659Y199721D01*
X1257621D01*
X1257594Y199726D01*
X1257561D01*
X1257523Y199732D01*
X1257430Y199743D01*
X1257315Y199759D01*
X1257195Y199792D01*
X1257064Y199830D01*
X1256928Y199885D01*
X1256922D01*
X1256911Y199890D01*
X1256895Y199901D01*
X1256868Y199912D01*
X1256802Y199950D01*
X1256726Y199999D01*
X1256638Y200060D01*
X1256545Y200136D01*
X1256458Y200223D01*
X1256382Y200322D01*
X1256687Y200676D01*
X1256693Y200671D01*
X1256704Y200655D01*
X1256726Y200633D01*
X1256758Y200600D01*
X1256791Y200567D01*
X1256840Y200529D01*
X1256889Y200485D01*
X1256950Y200442D01*
X1257015Y200393D01*
X1257086Y200354D01*
X1257162Y200311D01*
X1257244Y200278D01*
X1257332Y200245D01*
X1257425Y200223D01*
X1257517Y200207D01*
X1257621Y200202D01*
X1257665D01*
X1257692Y200207D01*
X1257730D01*
X1257769Y200212D01*
X1257867Y200234D01*
X1257976Y200261D01*
X1258085Y200305D01*
X1258194Y200365D01*
X1258243Y200403D01*
X1258293Y200447D01*
X1258298Y200453D01*
X1258304Y200458D01*
X1258315Y200475D01*
X1258331Y200491D01*
X1258369Y200546D01*
X1258413Y200627D01*
X1258456Y200720D01*
X1258495Y200840D01*
X1258522Y200977D01*
X1258533Y201048D01*
Y201130D01*
Y201430D01*
X1258527Y201425D01*
X1258517Y201414D01*
X1258495Y201392D01*
X1258467Y201364D01*
X1258435Y201337D01*
X1258391Y201299D01*
X1258336Y201266D01*
X1258282Y201228D01*
X1258216Y201190D01*
X1258140Y201151D01*
X1258063Y201113D01*
X1257976Y201086D01*
X1257883Y201059D01*
X1257785Y201037D01*
X1257676Y201026D01*
X1257567Y201021D01*
X1257539D01*
X1257506Y201026D01*
X1257463D01*
X1257414Y201037D01*
X1257353Y201048D01*
X1257288Y201059D01*
X1257212Y201080D01*
X1257135Y201108D01*
X1257059Y201141D01*
X1256977Y201179D01*
X1256889Y201228D01*
X1256808Y201283D01*
X1256731Y201348D01*
X1256649Y201419D01*
X1256578Y201506D01*
X1256573Y201512D01*
X1256562Y201528D01*
X1256545Y201556D01*
X1256518Y201599D01*
X1256491Y201648D01*
X1256464Y201708D01*
X1256425Y201779D01*
X1256393Y201856D01*
X1256360Y201949D01*
X1256327Y202047D01*
X1256294Y202162D01*
X1256267Y202276D01*
X1256240Y202407D01*
X1256223Y202544D01*
X1256212Y202691D01*
X1256207Y202844D01*
Y202855D01*
Y202882D01*
Y202921D01*
X1256212Y202981D01*
X1256218Y203046D01*
X1256229Y203128D01*
X1256240Y203215D01*
X1256256Y203308D01*
X1256272Y203407D01*
X1256300Y203516D01*
X1256327Y203619D01*
X1256365Y203729D01*
X1256409Y203838D01*
X1256458Y203942D01*
X1256513Y204040D01*
X1256578Y204133D01*
X1256584Y204138D01*
X1256595Y204154D01*
X1256616Y204176D01*
X1256649Y204209D01*
X1256682Y204242D01*
X1256731Y204286D01*
X1256786Y204329D01*
X1256846Y204373D01*
X1256911Y204417D01*
X1256988Y204460D01*
X1257070Y204504D01*
X1257157Y204537D01*
X1257250Y204570D01*
X1257353Y204591D01*
X1257457Y204608D01*
X1257572Y204613D01*
X1257599D01*
X1257632Y204608D01*
D02*
G37*
%LPC*%
G36*
X1254018Y204111D02*
X1253974D01*
X1253946Y204105D01*
X1253908Y204100D01*
X1253870Y204095D01*
X1253772Y204067D01*
X1253663Y204029D01*
X1253608Y204002D01*
X1253548Y203969D01*
X1253493Y203931D01*
X1253439Y203882D01*
X1253390Y203832D01*
X1253340Y203772D01*
Y203767D01*
X1253329Y203756D01*
X1253319Y203740D01*
X1253302Y203707D01*
X1253286Y203674D01*
X1253264Y203630D01*
X1253242Y203581D01*
X1253220Y203521D01*
X1253199Y203456D01*
X1253177Y203379D01*
X1253155Y203297D01*
X1253138Y203210D01*
X1253122Y203112D01*
X1253111Y203008D01*
X1253106Y202893D01*
X1253100Y202773D01*
Y202768D01*
Y202746D01*
Y202718D01*
X1253106Y202675D01*
Y202626D01*
X1253111Y202571D01*
X1253122Y202506D01*
X1253133Y202440D01*
X1253160Y202293D01*
X1253204Y202140D01*
X1253264Y201992D01*
X1253297Y201921D01*
X1253340Y201856D01*
X1253346Y201850D01*
X1253351Y201839D01*
X1253368Y201823D01*
X1253384Y201807D01*
X1253439Y201752D01*
X1253515Y201692D01*
X1253613Y201626D01*
X1253728Y201577D01*
X1253794Y201556D01*
X1253859Y201539D01*
X1253936Y201528D01*
X1254012Y201523D01*
X1254039D01*
X1254067Y201528D01*
X1254105D01*
X1254148Y201539D01*
X1254203Y201550D01*
X1254263Y201567D01*
X1254329Y201588D01*
X1254394Y201610D01*
X1254460Y201643D01*
X1254531Y201687D01*
X1254596Y201736D01*
X1254662Y201790D01*
X1254727Y201861D01*
X1254782Y201938D01*
X1254836Y202025D01*
Y203619D01*
X1254831Y203625D01*
X1254825Y203641D01*
X1254809Y203663D01*
X1254787Y203696D01*
X1254760Y203734D01*
X1254722Y203778D01*
X1254684Y203821D01*
X1254634Y203865D01*
X1254580Y203909D01*
X1254520Y203958D01*
X1254454Y203996D01*
X1254378Y204034D01*
X1254296Y204067D01*
X1254209Y204089D01*
X1254116Y204105D01*
X1254018Y204111D01*
D02*
G37*
G36*
X1273837Y202762D02*
X1273324D01*
X1273275Y202757D01*
X1273204Y202751D01*
X1273122Y202740D01*
X1273029Y202730D01*
X1272931Y202708D01*
X1272833Y202680D01*
X1272729Y202648D01*
X1272631Y202604D01*
X1272538Y202555D01*
X1272456Y202495D01*
X1272385Y202418D01*
X1272336Y202336D01*
X1272314Y202287D01*
X1272297Y202238D01*
X1272292Y202184D01*
X1272287Y202123D01*
Y202118D01*
Y202113D01*
X1272292Y202080D01*
X1272297Y202025D01*
X1272309Y201965D01*
X1272330Y201894D01*
X1272363Y201823D01*
X1272412Y201752D01*
X1272472Y201687D01*
X1272483Y201681D01*
X1272505Y201665D01*
X1272549Y201638D01*
X1272603Y201610D01*
X1272669Y201583D01*
X1272751Y201556D01*
X1272843Y201539D01*
X1272947Y201534D01*
X1272996D01*
X1273051Y201539D01*
X1273116Y201550D01*
X1273198Y201567D01*
X1273286Y201594D01*
X1273384Y201626D01*
X1273477Y201676D01*
X1273482D01*
X1273488Y201681D01*
X1273521Y201703D01*
X1273564Y201730D01*
X1273619Y201774D01*
X1273674Y201829D01*
X1273734Y201894D01*
X1273788Y201965D01*
X1273837Y202047D01*
Y202762D01*
D02*
G37*
G36*
X1261448Y204127D02*
X1261350D01*
X1261323Y204122D01*
X1261296D01*
X1261257Y204116D01*
X1261176Y204095D01*
X1261083Y204062D01*
X1260979Y204018D01*
X1260881Y203953D01*
X1260832Y203909D01*
X1260782Y203865D01*
Y203860D01*
X1260771Y203854D01*
X1260761Y203838D01*
X1260744Y203816D01*
X1260722Y203789D01*
X1260706Y203756D01*
X1260679Y203718D01*
X1260657Y203674D01*
X1260629Y203625D01*
X1260602Y203570D01*
X1260553Y203445D01*
X1260515Y203297D01*
X1260482Y203134D01*
X1262218D01*
Y203177D01*
Y203183D01*
Y203199D01*
X1262213Y203221D01*
Y203254D01*
X1262208Y203292D01*
X1262197Y203335D01*
X1262180Y203434D01*
X1262147Y203549D01*
X1262104Y203663D01*
X1262044Y203778D01*
X1261973Y203876D01*
Y203882D01*
X1261962Y203887D01*
X1261934Y203914D01*
X1261885Y203958D01*
X1261820Y204002D01*
X1261732Y204045D01*
X1261634Y204089D01*
X1261514Y204116D01*
X1261448Y204127D01*
D02*
G37*
G36*
X1244271Y205427D02*
X1244222D01*
X1244184Y205421D01*
X1244140D01*
X1244086Y205410D01*
X1244026Y205405D01*
X1243960Y205394D01*
X1243813Y205361D01*
X1243654Y205312D01*
X1243567Y205285D01*
X1243485Y205246D01*
X1243398Y205208D01*
X1243316Y205159D01*
X1243310Y205154D01*
X1243294Y205148D01*
X1243272Y205132D01*
X1243245Y205110D01*
X1243207Y205083D01*
X1243163Y205050D01*
X1243114Y205012D01*
X1243065Y204968D01*
X1243010Y204919D01*
X1242950Y204864D01*
X1242835Y204739D01*
X1242721Y204591D01*
X1242617Y204428D01*
Y204422D01*
X1242606Y204406D01*
X1242595Y204384D01*
X1242579Y204346D01*
X1242557Y204302D01*
X1242535Y204253D01*
X1242513Y204193D01*
X1242491Y204127D01*
X1242470Y204056D01*
X1242448Y203980D01*
X1242404Y203805D01*
X1242377Y203619D01*
X1242371Y203521D01*
X1242366Y203417D01*
Y203412D01*
Y203396D01*
Y203363D01*
X1242371Y203325D01*
Y203275D01*
X1242382Y203221D01*
X1242388Y203155D01*
X1242399Y203084D01*
X1242410Y203008D01*
X1242431Y202926D01*
X1242475Y202757D01*
X1242540Y202577D01*
X1242579Y202484D01*
X1242622Y202396D01*
X1242628Y202391D01*
X1242633Y202375D01*
X1242650Y202353D01*
X1242672Y202320D01*
X1242693Y202282D01*
X1242726Y202238D01*
X1242808Y202129D01*
X1242906Y202014D01*
X1243021Y201894D01*
X1243163Y201774D01*
X1243316Y201665D01*
X1243321Y201659D01*
X1243338Y201654D01*
X1243359Y201643D01*
X1243392Y201626D01*
X1243436Y201605D01*
X1243485Y201583D01*
X1243540Y201561D01*
X1243600Y201534D01*
X1243671Y201512D01*
X1243742Y201485D01*
X1243906Y201446D01*
X1244086Y201414D01*
X1244178Y201408D01*
X1244271Y201403D01*
X1244320D01*
X1244359Y201408D01*
X1244402D01*
X1244457Y201419D01*
X1244517Y201425D01*
X1244583Y201435D01*
X1244730Y201468D01*
X1244888Y201512D01*
X1245058Y201577D01*
X1245140Y201621D01*
X1245221Y201665D01*
X1245227Y201670D01*
X1245243Y201676D01*
X1245265Y201692D01*
X1245292Y201714D01*
X1245331Y201741D01*
X1245374Y201774D01*
X1245423Y201812D01*
X1245473Y201856D01*
X1245582Y201960D01*
X1245696Y202085D01*
X1245811Y202233D01*
X1245915Y202396D01*
X1245920Y202402D01*
X1245926Y202418D01*
X1245937Y202446D01*
X1245953Y202478D01*
X1245975Y202522D01*
X1245997Y202577D01*
X1246019Y202631D01*
X1246046Y202702D01*
X1246068Y202773D01*
X1246089Y202850D01*
X1246133Y203024D01*
X1246161Y203215D01*
X1246171Y203314D01*
Y203417D01*
Y203423D01*
Y203439D01*
Y203472D01*
X1246166Y203510D01*
Y203559D01*
X1246161Y203614D01*
X1246150Y203679D01*
X1246139Y203750D01*
X1246111Y203903D01*
X1246062Y204073D01*
X1246002Y204253D01*
X1245959Y204340D01*
X1245915Y204428D01*
X1245909Y204433D01*
X1245904Y204449D01*
X1245887Y204471D01*
X1245871Y204504D01*
X1245844Y204542D01*
X1245811Y204591D01*
X1245735Y204695D01*
X1245636Y204810D01*
X1245516Y204930D01*
X1245380Y205050D01*
X1245221Y205159D01*
X1245216Y205165D01*
X1245200Y205170D01*
X1245178Y205187D01*
X1245145Y205203D01*
X1245107Y205219D01*
X1245058Y205246D01*
X1245003Y205268D01*
X1244938Y205296D01*
X1244872Y205317D01*
X1244796Y205345D01*
X1244637Y205383D01*
X1244457Y205416D01*
X1244364Y205421D01*
X1244271Y205427D01*
D02*
G37*
%LPD*%
G36*
X1244315Y204832D02*
X1244353D01*
X1244402Y204826D01*
X1244517Y204804D01*
X1244643Y204771D01*
X1244774Y204728D01*
X1244899Y204662D01*
X1244959Y204619D01*
X1245014Y204575D01*
X1245019Y204570D01*
X1245025Y204564D01*
X1245041Y204548D01*
X1245058Y204526D01*
X1245079Y204499D01*
X1245101Y204466D01*
X1245129Y204428D01*
X1245156Y204384D01*
X1245178Y204335D01*
X1245205Y204280D01*
X1245227Y204220D01*
X1245249Y204149D01*
X1245282Y204002D01*
X1245287Y203920D01*
X1245292Y203832D01*
X1244823D01*
Y203838D01*
Y203849D01*
Y203865D01*
Y203887D01*
X1244817Y203942D01*
X1244806Y204013D01*
X1244785Y204083D01*
X1244757Y204160D01*
X1244719Y204231D01*
X1244670Y204291D01*
X1244664Y204296D01*
X1244643Y204313D01*
X1244610Y204335D01*
X1244561Y204362D01*
X1244495Y204384D01*
X1244419Y204406D01*
X1244331Y204422D01*
X1244228Y204428D01*
X1244200D01*
X1244178Y204422D01*
X1244124Y204417D01*
X1244058Y204400D01*
X1243982Y204373D01*
X1243900Y204335D01*
X1243824Y204280D01*
X1243753Y204204D01*
X1243747Y204193D01*
X1243725Y204165D01*
X1243698Y204111D01*
X1243671Y204045D01*
X1243638Y203953D01*
X1243611Y203849D01*
X1243589Y203729D01*
X1243583Y203587D01*
Y203226D01*
Y203221D01*
Y203210D01*
Y203188D01*
X1243589Y203161D01*
Y203134D01*
X1243594Y203095D01*
X1243605Y203008D01*
X1243627Y202910D01*
X1243654Y202811D01*
X1243698Y202713D01*
X1243753Y202620D01*
X1243764Y202609D01*
X1243785Y202588D01*
X1243824Y202549D01*
X1243878Y202511D01*
X1243944Y202473D01*
X1244026Y202435D01*
X1244124Y202413D01*
X1244228Y202402D01*
X1244277D01*
X1244331Y202407D01*
X1244392Y202418D01*
X1244468Y202435D01*
X1244539Y202456D01*
X1244610Y202489D01*
X1244670Y202533D01*
X1244675Y202538D01*
X1244692Y202560D01*
X1244719Y202593D01*
X1244746Y202642D01*
X1244774Y202708D01*
X1244801Y202784D01*
X1244817Y202877D01*
X1244823Y202992D01*
X1245287D01*
Y202986D01*
Y202970D01*
Y202948D01*
X1245282Y202910D01*
X1245276Y202871D01*
X1245271Y202822D01*
X1245254Y202718D01*
X1245221Y202598D01*
X1245172Y202473D01*
X1245140Y202413D01*
X1245101Y202353D01*
X1245058Y202298D01*
X1245008Y202249D01*
X1245003D01*
X1244998Y202238D01*
X1244981Y202227D01*
X1244959Y202211D01*
X1244932Y202189D01*
X1244894Y202167D01*
X1244856Y202145D01*
X1244806Y202123D01*
X1244757Y202096D01*
X1244697Y202074D01*
X1244632Y202052D01*
X1244566Y202031D01*
X1244490Y202014D01*
X1244408Y202003D01*
X1244320Y201998D01*
X1244228Y201992D01*
X1244178D01*
X1244146Y201998D01*
X1244102Y202003D01*
X1244053Y202009D01*
X1243998Y202020D01*
X1243938Y202036D01*
X1243813Y202074D01*
X1243742Y202102D01*
X1243676Y202134D01*
X1243611Y202172D01*
X1243545Y202216D01*
X1243485Y202265D01*
X1243425Y202325D01*
X1243420Y202331D01*
X1243414Y202342D01*
X1243398Y202358D01*
X1243376Y202385D01*
X1243354Y202424D01*
X1243332Y202462D01*
X1243305Y202511D01*
X1243278Y202566D01*
X1243245Y202631D01*
X1243218Y202702D01*
X1243196Y202773D01*
X1243174Y202855D01*
X1243152Y202948D01*
X1243136Y203041D01*
X1243130Y203144D01*
X1243125Y203248D01*
Y203598D01*
Y203603D01*
Y203625D01*
Y203652D01*
X1243130Y203690D01*
X1243136Y203740D01*
X1243141Y203794D01*
X1243152Y203854D01*
X1243163Y203920D01*
X1243201Y204067D01*
X1243256Y204215D01*
X1243289Y204291D01*
X1243332Y204362D01*
X1243376Y204433D01*
X1243431Y204499D01*
X1243436Y204504D01*
X1243447Y204515D01*
X1243463Y204531D01*
X1243485Y204553D01*
X1243518Y204575D01*
X1243551Y204608D01*
X1243594Y204635D01*
X1243643Y204668D01*
X1243698Y204700D01*
X1243758Y204728D01*
X1243895Y204782D01*
X1243971Y204804D01*
X1244053Y204821D01*
X1244140Y204832D01*
X1244228Y204837D01*
X1244277D01*
X1244315Y204832D01*
D02*
G37*
%LPC*%
G36*
X1257719Y204111D02*
X1257676D01*
X1257648Y204105D01*
X1257610Y204100D01*
X1257572Y204095D01*
X1257474Y204067D01*
X1257364Y204029D01*
X1257310Y204002D01*
X1257250Y203969D01*
X1257195Y203931D01*
X1257141Y203882D01*
X1257091Y203832D01*
X1257042Y203772D01*
Y203767D01*
X1257031Y203756D01*
X1257020Y203740D01*
X1257004Y203707D01*
X1256988Y203674D01*
X1256966Y203630D01*
X1256944Y203581D01*
X1256922Y203521D01*
X1256900Y203456D01*
X1256878Y203379D01*
X1256857Y203297D01*
X1256840Y203210D01*
X1256824Y203112D01*
X1256813Y203008D01*
X1256808Y202893D01*
X1256802Y202773D01*
Y202768D01*
Y202746D01*
Y202718D01*
X1256808Y202675D01*
Y202626D01*
X1256813Y202571D01*
X1256824Y202506D01*
X1256835Y202440D01*
X1256862Y202293D01*
X1256906Y202140D01*
X1256966Y201992D01*
X1256999Y201921D01*
X1257042Y201856D01*
X1257048Y201850D01*
X1257053Y201839D01*
X1257070Y201823D01*
X1257086Y201807D01*
X1257141Y201752D01*
X1257217Y201692D01*
X1257310Y201626D01*
X1257425Y201577D01*
X1257490Y201556D01*
X1257561Y201539D01*
X1257637Y201528D01*
X1257714Y201523D01*
X1257741D01*
X1257769Y201528D01*
X1257807D01*
X1257850Y201539D01*
X1257905Y201550D01*
X1257965Y201567D01*
X1258025Y201588D01*
X1258091Y201616D01*
X1258156Y201648D01*
X1258227Y201687D01*
X1258293Y201736D01*
X1258358Y201796D01*
X1258424Y201861D01*
X1258478Y201943D01*
X1258533Y202031D01*
Y203614D01*
X1258527Y203619D01*
X1258522Y203636D01*
X1258506Y203658D01*
X1258484Y203690D01*
X1258451Y203729D01*
X1258418Y203772D01*
X1258375Y203816D01*
X1258331Y203865D01*
X1258276Y203909D01*
X1258216Y203953D01*
X1258145Y203996D01*
X1258074Y204034D01*
X1257998Y204067D01*
X1257910Y204089D01*
X1257818Y204105D01*
X1257719Y204111D01*
D02*
G37*
%LPD*%
D14*
X1060373Y207824D02*
D03*
X104073Y132825D02*
D03*
X1004073Y57824D02*
D03*
X254073D02*
D03*
X66573D02*
D03*
X160273D02*
D03*
X816573D02*
D03*
X1097873D02*
D03*
X910373D02*
D03*
X1041573Y132825D02*
D03*
X85373Y207824D02*
D03*
X1069673Y357824D02*
D03*
X1482173Y57924D02*
D03*
X1669675Y245373D02*
D03*
Y95373D02*
D03*
X535373Y57824D02*
D03*
X807173Y357824D02*
D03*
X132173D02*
D03*
X207173D02*
D03*
X282173D02*
D03*
X357173D02*
D03*
X432173D02*
D03*
X507173D02*
D03*
X582173D02*
D03*
X657173D02*
D03*
X732173D02*
D03*
X957173D02*
D03*
X188473Y207824D02*
D03*
X994673Y282824D02*
D03*
X525973Y132825D02*
D03*
X863473Y207824D02*
D03*
X750973Y132825D02*
D03*
X375973D02*
D03*
X1200973Y282824D02*
D03*
X1275973Y57824D02*
D03*
X338473Y207824D02*
D03*
X1275973Y282824D02*
D03*
X57173Y470325D02*
D03*
X319673Y282824D02*
D03*
X207173Y470325D02*
D03*
X282173D02*
D03*
X357173D02*
D03*
X432173D02*
D03*
X544673Y470425D02*
D03*
X619673D02*
D03*
X694673D02*
D03*
X769673D02*
D03*
X882173Y470325D02*
D03*
X957173D02*
D03*
X1032173D02*
D03*
X1107173D02*
D03*
X919673Y282824D02*
D03*
X413473Y207824D02*
D03*
X825973Y132825D02*
D03*
X488473Y207824D02*
D03*
X1275973Y357824D02*
D03*
X563473Y207824D02*
D03*
X1200973Y357824D02*
D03*
X694673Y282824D02*
D03*
X638473Y207824D02*
D03*
X713473D02*
D03*
X1200973Y57824D02*
D03*
X788473Y207824D02*
D03*
X675973Y132825D02*
D03*
X600973D02*
D03*
X1444773D02*
D03*
X1519673D02*
D03*
X1594673D02*
D03*
X1444673Y207824D02*
D03*
X1519673D02*
D03*
X1594673D02*
D03*
X1444673Y282824D02*
D03*
X1519673D02*
D03*
X1594673D02*
D03*
X1519673Y357824D02*
D03*
X1594673Y57824D02*
D03*
X1444673Y357824D02*
D03*
X1594673D02*
D03*
X1669673D02*
D03*
X769673Y282824D02*
D03*
X1350973Y470325D02*
D03*
Y282824D02*
D03*
Y357824D02*
D03*
X1200973Y470425D02*
D03*
X844673Y282824D02*
D03*
X169673D02*
D03*
X938473Y207824D02*
D03*
X1350973Y57824D02*
D03*
X394673Y282824D02*
D03*
X1275973Y470325D02*
D03*
X900973Y132825D02*
D03*
X263473Y207824D02*
D03*
X882173Y357824D02*
D03*
X469673Y282824D02*
D03*
X1275973Y132825D02*
D03*
X619673Y282824D02*
D03*
X450973Y132825D02*
D03*
X57173Y357824D02*
D03*
X244673Y282824D02*
D03*
X300973Y132825D02*
D03*
X544673Y282824D02*
D03*
X225973Y132825D02*
D03*
X1088473Y282824D02*
D03*
X75973D02*
D03*
D15*
X1050373Y187824D02*
D03*
X1075373Y197825D02*
D03*
X94073Y112824D02*
D03*
X119073Y122825D02*
D03*
X1019073Y47824D02*
D03*
X994073Y37824D02*
D03*
X269073Y47824D02*
D03*
X244073Y37824D02*
D03*
X81573Y47824D02*
D03*
X56573Y37824D02*
D03*
X175273Y47824D02*
D03*
X150273Y37824D02*
D03*
X831573Y47824D02*
D03*
X806573Y37824D02*
D03*
X1112873Y47824D02*
D03*
X1087873Y37824D02*
D03*
X925373Y47824D02*
D03*
X900373Y37824D02*
D03*
X1031573Y112824D02*
D03*
X1056573Y122825D02*
D03*
X75373Y187824D02*
D03*
X100373Y197825D02*
D03*
X1059673Y337825D02*
D03*
X1084673Y347825D02*
D03*
X1472173Y37925D02*
D03*
X1497173Y47925D02*
D03*
X1689676Y235373D02*
D03*
X1679675Y260373D02*
D03*
X1689676Y85373D02*
D03*
X1679675Y110373D02*
D03*
X550373Y47824D02*
D03*
X525373Y37824D02*
D03*
X822173Y347825D02*
D03*
X797173Y337825D02*
D03*
X147173Y347825D02*
D03*
X122173Y337825D02*
D03*
X222173Y347825D02*
D03*
X197173Y337825D02*
D03*
X297173Y347825D02*
D03*
X272173Y337825D02*
D03*
X372173Y347825D02*
D03*
X347173Y337825D02*
D03*
X447173Y347825D02*
D03*
X422173Y337825D02*
D03*
X522173Y347825D02*
D03*
X497173Y337825D02*
D03*
X597173Y347825D02*
D03*
X572173Y337825D02*
D03*
X672173Y347825D02*
D03*
X647173Y337825D02*
D03*
X747173Y347825D02*
D03*
X722173Y337825D02*
D03*
X972173Y347825D02*
D03*
X947173Y337825D02*
D03*
X203473Y197825D02*
D03*
X178473Y187824D02*
D03*
X1009673Y272825D02*
D03*
X984673Y262825D02*
D03*
X540973Y122825D02*
D03*
X515973Y112824D02*
D03*
X878473Y197825D02*
D03*
X853473Y187824D02*
D03*
X765973Y122825D02*
D03*
X740973Y112824D02*
D03*
X390973Y122825D02*
D03*
X365973Y112824D02*
D03*
X1215973Y272825D02*
D03*
X1190973Y262825D02*
D03*
X1290973Y47824D02*
D03*
X1265973Y37824D02*
D03*
X353473Y197825D02*
D03*
X328473Y187824D02*
D03*
X1290973Y272825D02*
D03*
X1265973Y262825D02*
D03*
X72173Y460324D02*
D03*
X47173Y450324D02*
D03*
X334673Y272825D02*
D03*
X309673Y262825D02*
D03*
X222173Y460324D02*
D03*
X197173Y450324D02*
D03*
X297173Y460324D02*
D03*
X272173Y450324D02*
D03*
X372173Y460324D02*
D03*
X347173Y450324D02*
D03*
X447173Y460324D02*
D03*
X422173Y450324D02*
D03*
X559673Y460425D02*
D03*
X534673Y450424D02*
D03*
X634673Y460425D02*
D03*
X609673Y450424D02*
D03*
X709673Y460425D02*
D03*
X684673Y450424D02*
D03*
X784673Y460425D02*
D03*
X759673Y450424D02*
D03*
X897173Y460324D02*
D03*
X872173Y450324D02*
D03*
X972173Y460324D02*
D03*
X947173Y450324D02*
D03*
X1047173Y460324D02*
D03*
X1022173Y450324D02*
D03*
X1122173Y460324D02*
D03*
X1097173Y450324D02*
D03*
X934673Y272825D02*
D03*
X909673Y262825D02*
D03*
X428473Y197825D02*
D03*
X403473Y187824D02*
D03*
X840973Y122825D02*
D03*
X815973Y112824D02*
D03*
X503473Y197825D02*
D03*
X478473Y187824D02*
D03*
X1290973Y347825D02*
D03*
X1265973Y337825D02*
D03*
X578473Y197825D02*
D03*
X553473Y187824D02*
D03*
X1215973Y347825D02*
D03*
X1190973Y337825D02*
D03*
X709673Y272825D02*
D03*
X684673Y262825D02*
D03*
X653473Y197825D02*
D03*
X628473Y187824D02*
D03*
X728473Y197825D02*
D03*
X703473Y187824D02*
D03*
X1215973Y47824D02*
D03*
X1190973Y37824D02*
D03*
X803473Y197825D02*
D03*
X778473Y187824D02*
D03*
X690973Y122825D02*
D03*
X665973Y112824D02*
D03*
X615973Y122825D02*
D03*
X590973Y112824D02*
D03*
X1459773Y122825D02*
D03*
X1434773Y112824D02*
D03*
X1534673Y122825D02*
D03*
X1509673Y112824D02*
D03*
X1609673Y122825D02*
D03*
X1584673Y112824D02*
D03*
X1459673Y197825D02*
D03*
X1434673Y187824D02*
D03*
X1534673Y197825D02*
D03*
X1509673Y187824D02*
D03*
X1609673Y197825D02*
D03*
X1584673Y187824D02*
D03*
X1459673Y272825D02*
D03*
X1434673Y262825D02*
D03*
X1534673Y272825D02*
D03*
X1509673Y262825D02*
D03*
X1609673Y272825D02*
D03*
X1584673Y262825D02*
D03*
X1534673Y347825D02*
D03*
X1509673Y337825D02*
D03*
X1609673Y47824D02*
D03*
X1584673Y37824D02*
D03*
X1459673Y347825D02*
D03*
X1434673Y337825D02*
D03*
X1609673Y347825D02*
D03*
X1584673Y337825D02*
D03*
X1684673Y347825D02*
D03*
X1659673Y337825D02*
D03*
X784673Y272825D02*
D03*
X759673Y262825D02*
D03*
X1365973Y460324D02*
D03*
X1340973Y450324D02*
D03*
X1365973Y272825D02*
D03*
X1340973Y262825D02*
D03*
X1365973Y347825D02*
D03*
X1340973Y337825D02*
D03*
X1215973Y460425D02*
D03*
X1190973Y450424D02*
D03*
X859673Y272825D02*
D03*
X834673Y262825D02*
D03*
X184673Y272825D02*
D03*
X159673Y262825D02*
D03*
X953473Y197825D02*
D03*
X928473Y187824D02*
D03*
X1365973Y47824D02*
D03*
X1340973Y37824D02*
D03*
X409673Y272825D02*
D03*
X384673Y262825D02*
D03*
X1290973Y460324D02*
D03*
X1265973Y450324D02*
D03*
X915973Y122825D02*
D03*
X890973Y112824D02*
D03*
X278473Y197825D02*
D03*
X253473Y187824D02*
D03*
X897173Y347825D02*
D03*
X872173Y337825D02*
D03*
X484673Y272825D02*
D03*
X459673Y262825D02*
D03*
X1290973Y122825D02*
D03*
X1265973Y112824D02*
D03*
X634673Y272825D02*
D03*
X609673Y262825D02*
D03*
X465973Y122825D02*
D03*
X440973Y112824D02*
D03*
X72173Y347825D02*
D03*
X47173Y337825D02*
D03*
X259673Y272825D02*
D03*
X234673Y262825D02*
D03*
X315973Y122825D02*
D03*
X290973Y112824D02*
D03*
X559673Y272825D02*
D03*
X534673Y262825D02*
D03*
X240973Y122825D02*
D03*
X215973Y112824D02*
D03*
X1103473Y272825D02*
D03*
X1078473Y262825D02*
D03*
X65973D02*
D03*
X90973Y272825D02*
D03*
D16*
X1040688Y207824D02*
D03*
X1080058D02*
D03*
X84388Y132825D02*
D03*
X123758D02*
D03*
X1023758Y57824D02*
D03*
X984388D02*
D03*
X273758D02*
D03*
X234388D02*
D03*
X86258D02*
D03*
X46888D02*
D03*
X179958D02*
D03*
X140588D02*
D03*
X836258D02*
D03*
X796888D02*
D03*
X1117558D02*
D03*
X1078188D02*
D03*
X930058D02*
D03*
X890688D02*
D03*
X1021888Y132825D02*
D03*
X1061258D02*
D03*
X65688Y207824D02*
D03*
X105058D02*
D03*
X1049988Y357824D02*
D03*
X1089358D02*
D03*
X1462488Y57924D02*
D03*
X1501858D02*
D03*
X1669675Y225688D02*
D03*
Y265058D02*
D03*
Y75688D02*
D03*
Y115058D02*
D03*
X555058Y57824D02*
D03*
X515688D02*
D03*
X826858Y357824D02*
D03*
X787488D02*
D03*
X151858D02*
D03*
X112488D02*
D03*
X226858D02*
D03*
X187488D02*
D03*
X301858D02*
D03*
X262488D02*
D03*
X376858D02*
D03*
X337488D02*
D03*
X451858D02*
D03*
X412488D02*
D03*
X526858D02*
D03*
X487488D02*
D03*
X601858D02*
D03*
X562488D02*
D03*
X676858D02*
D03*
X637488D02*
D03*
X751858D02*
D03*
X712488D02*
D03*
X976858D02*
D03*
X937488D02*
D03*
X208158Y207824D02*
D03*
X168788D02*
D03*
X1014358Y282824D02*
D03*
X974988D02*
D03*
X545658Y132825D02*
D03*
X506288D02*
D03*
X883158Y207824D02*
D03*
X843788D02*
D03*
X770658Y132825D02*
D03*
X731288D02*
D03*
X395658D02*
D03*
X356288D02*
D03*
X1220658Y282824D02*
D03*
X1181288D02*
D03*
X1295658Y57824D02*
D03*
X1256288D02*
D03*
X358158Y207824D02*
D03*
X318788D02*
D03*
X1295658Y282824D02*
D03*
X1256288D02*
D03*
X76858Y470325D02*
D03*
X37488D02*
D03*
X339358Y282824D02*
D03*
X299988D02*
D03*
X226858Y470325D02*
D03*
X187488D02*
D03*
X301858D02*
D03*
X262488D02*
D03*
X376858D02*
D03*
X337488D02*
D03*
X451858D02*
D03*
X412488D02*
D03*
X564358Y470425D02*
D03*
X524988D02*
D03*
X639358D02*
D03*
X599988D02*
D03*
X714358D02*
D03*
X674988D02*
D03*
X789358D02*
D03*
X749988D02*
D03*
X901858Y470325D02*
D03*
X862488D02*
D03*
X976858D02*
D03*
X937488D02*
D03*
X1051858D02*
D03*
X1012488D02*
D03*
X1126858D02*
D03*
X1087488D02*
D03*
X939358Y282824D02*
D03*
X899988D02*
D03*
X433158Y207824D02*
D03*
X393788D02*
D03*
X845658Y132825D02*
D03*
X806288D02*
D03*
X508158Y207824D02*
D03*
X468788D02*
D03*
X1295658Y357824D02*
D03*
X1256288D02*
D03*
X583158Y207824D02*
D03*
X543788D02*
D03*
X1220658Y357824D02*
D03*
X1181288D02*
D03*
X714358Y282824D02*
D03*
X674988D02*
D03*
X658158Y207824D02*
D03*
X618788D02*
D03*
X733158D02*
D03*
X693788D02*
D03*
X1220658Y57824D02*
D03*
X1181288D02*
D03*
X808158Y207824D02*
D03*
X768788D02*
D03*
X695658Y132825D02*
D03*
X656288D02*
D03*
X620658D02*
D03*
X581288D02*
D03*
X1464458D02*
D03*
X1425088D02*
D03*
X1539358D02*
D03*
X1499988D02*
D03*
X1614358D02*
D03*
X1574988D02*
D03*
X1464358Y207824D02*
D03*
X1424988D02*
D03*
X1539358D02*
D03*
X1499988D02*
D03*
X1614358D02*
D03*
X1574988D02*
D03*
X1464358Y282824D02*
D03*
X1424988D02*
D03*
X1539358D02*
D03*
X1499988D02*
D03*
X1614358D02*
D03*
X1574988D02*
D03*
X1539358Y357824D02*
D03*
X1499988D02*
D03*
X1614358Y57824D02*
D03*
X1574988D02*
D03*
X1464358Y357824D02*
D03*
X1424988D02*
D03*
X1614358D02*
D03*
X1574988D02*
D03*
X1689358D02*
D03*
X1649988D02*
D03*
X789358Y282824D02*
D03*
X749988D02*
D03*
X1370658Y470325D02*
D03*
X1331288D02*
D03*
X1370658Y282824D02*
D03*
X1331288D02*
D03*
X1370658Y357824D02*
D03*
X1331288D02*
D03*
X1220658Y470425D02*
D03*
X1181288D02*
D03*
X864358Y282824D02*
D03*
X824988D02*
D03*
X189358D02*
D03*
X149988D02*
D03*
X958158Y207824D02*
D03*
X918788D02*
D03*
X1370658Y57824D02*
D03*
X1331288D02*
D03*
X414358Y282824D02*
D03*
X374988D02*
D03*
X1295658Y470325D02*
D03*
X1256288D02*
D03*
X920658Y132825D02*
D03*
X881288D02*
D03*
X283158Y207824D02*
D03*
X243788D02*
D03*
X901858Y357824D02*
D03*
X862488D02*
D03*
X489358Y282824D02*
D03*
X449988D02*
D03*
X1295658Y132825D02*
D03*
X1256288D02*
D03*
X639358Y282824D02*
D03*
X599988D02*
D03*
X470658Y132825D02*
D03*
X431288D02*
D03*
X76858Y357824D02*
D03*
X37488D02*
D03*
X264358Y282824D02*
D03*
X224988D02*
D03*
X320658Y132825D02*
D03*
X281288D02*
D03*
X564358Y282824D02*
D03*
X524988D02*
D03*
X245658Y132825D02*
D03*
X206288D02*
D03*
X1108158Y282824D02*
D03*
X1068788D02*
D03*
X56288D02*
D03*
X95658D02*
D03*
D17*
X208000Y16000D02*
D03*
X436000Y14000D02*
D03*
X630000D02*
D03*
X958000D02*
D03*
X1556000Y526000D02*
D03*
X1276000Y14000D02*
D03*
X70000Y526000D02*
D03*
X1658000Y14000D02*
D03*
X1356000Y130000D02*
D03*
X1190000D02*
D03*
X958000Y134000D02*
D03*
X180000D02*
D03*
X1525000Y415000D02*
D03*
X1275000D02*
D03*
X985000D02*
D03*
X665000D02*
D03*
X365000D02*
D03*
X70500Y415500D02*
D03*
D18*
X1639200Y48400D02*
D03*
X1699200D02*
D03*
Y142400D02*
D03*
X1639200D02*
D03*
Y198400D02*
D03*
X1699200D02*
D03*
Y292400D02*
D03*
X1639200D02*
D03*
X1435200Y83300D02*
D03*
Y23300D02*
D03*
X1529200D02*
D03*
Y83300D02*
D03*
X732500Y83200D02*
D03*
Y23200D02*
D03*
X338500D02*
D03*
Y83200D02*
D03*
X994600Y158300D02*
D03*
Y98300D02*
D03*
X1088600D02*
D03*
Y158300D02*
D03*
X1013300Y233300D02*
D03*
Y173300D02*
D03*
X1107300D02*
D03*
Y233300D02*
D03*
X1022700Y383300D02*
D03*
Y323300D02*
D03*
X1116700D02*
D03*
Y383300D02*
D03*
X57000Y158300D02*
D03*
Y98300D02*
D03*
X151000D02*
D03*
Y158300D02*
D03*
D19*
X373000Y499000D02*
D03*
X974000D02*
D03*
X1699626Y248986D02*
D03*
Y98985D02*
D03*
X1649626Y198986D02*
D03*
Y48985D02*
D03*
X1599626Y398986D02*
D03*
X1549626D02*
D03*
Y48985D02*
D03*
X1499626Y448985D02*
D03*
Y398986D02*
D03*
Y348986D02*
D03*
Y198986D02*
D03*
X1449626Y498985D02*
D03*
Y448985D02*
D03*
Y398986D02*
D03*
Y48985D02*
D03*
X1399626Y498985D02*
D03*
Y448985D02*
D03*
Y398986D02*
D03*
Y348986D02*
D03*
Y198986D02*
D03*
Y48985D02*
D03*
X1349626Y398986D02*
D03*
Y198986D02*
D03*
X1299626Y498985D02*
D03*
Y448985D02*
D03*
Y398986D02*
D03*
Y298986D02*
D03*
Y148986D02*
D03*
X1249626Y498985D02*
D03*
Y398986D02*
D03*
Y348986D02*
D03*
Y48985D02*
D03*
X1199626Y398986D02*
D03*
Y198986D02*
D03*
X1149626Y348986D02*
D03*
Y198986D02*
D03*
X1099626Y398986D02*
D03*
X1049626Y498985D02*
D03*
Y448985D02*
D03*
Y398986D02*
D03*
Y348986D02*
D03*
Y198986D02*
D03*
X999626Y398986D02*
D03*
X949626D02*
D03*
Y98985D02*
D03*
X899626Y498985D02*
D03*
Y448985D02*
D03*
Y398986D02*
D03*
Y48985D02*
D03*
X849626Y498985D02*
D03*
Y398986D02*
D03*
Y198986D02*
D03*
Y148986D02*
D03*
X799626Y498985D02*
D03*
Y398986D02*
D03*
Y48985D02*
D03*
X749626Y498985D02*
D03*
Y398986D02*
D03*
Y48985D02*
D03*
X699626Y448985D02*
D03*
Y198986D02*
D03*
Y148986D02*
D03*
Y48985D02*
D03*
X649626Y498985D02*
D03*
Y398986D02*
D03*
Y48985D02*
D03*
X599626Y498985D02*
D03*
Y398986D02*
D03*
Y48985D02*
D03*
X549626Y448985D02*
D03*
Y398986D02*
D03*
Y198986D02*
D03*
Y148986D02*
D03*
X499626Y498985D02*
D03*
Y398986D02*
D03*
Y48985D02*
D03*
X449626Y498985D02*
D03*
Y448985D02*
D03*
Y398986D02*
D03*
Y48985D02*
D03*
X399626Y398986D02*
D03*
Y198986D02*
D03*
Y148986D02*
D03*
Y48985D02*
D03*
X349626Y398986D02*
D03*
Y48985D02*
D03*
X299626Y498985D02*
D03*
Y448985D02*
D03*
Y398986D02*
D03*
X249626Y198986D02*
D03*
Y148986D02*
D03*
X199626Y398986D02*
D03*
X149626Y498985D02*
D03*
Y448985D02*
D03*
Y398986D02*
D03*
Y198986D02*
D03*
Y48985D02*
D03*
X99626Y498985D02*
D03*
Y298986D02*
D03*
X49626Y398986D02*
D03*
Y198986D02*
D03*
Y148986D02*
D03*
Y48985D02*
D03*
X1065000Y239000D02*
D03*
X948000D02*
D03*
X873000D02*
D03*
X798000D02*
D03*
X723000D02*
D03*
X648000D02*
D03*
X573000D02*
D03*
X498000D02*
D03*
X423000D02*
D03*
X348000D02*
D03*
X273000D02*
D03*
X198000D02*
D03*
X95000D02*
D03*
X86000Y314000D02*
D03*
X179000D02*
D03*
X254000D02*
D03*
X329000D02*
D03*
X404000D02*
D03*
X479000D02*
D03*
X554000D02*
D03*
X629000D02*
D03*
X704000D02*
D03*
X779000D02*
D03*
X854000D02*
D03*
X929000D02*
D03*
X1004000D02*
D03*
X1074000Y388000D02*
D03*
X962000D02*
D03*
X887000D02*
D03*
X811000D02*
D03*
X736000D02*
D03*
X661000D02*
D03*
X586000D02*
D03*
X511000D02*
D03*
X436000D02*
D03*
X361000D02*
D03*
X286000D02*
D03*
X211000D02*
D03*
X137000D02*
D03*
X62000D02*
D03*
X1281000Y389000D02*
D03*
X1206000D02*
D03*
X1211000Y314000D02*
D03*
X1286000D02*
D03*
X1362000D02*
D03*
X1356000Y389000D02*
D03*
X1455000Y314000D02*
D03*
X1530000D02*
D03*
X1599000Y315000D02*
D03*
X1598000Y237000D02*
D03*
X1455000Y239000D02*
D03*
X1530000D02*
D03*
X1118000Y89000D02*
D03*
X1023000D02*
D03*
X921000D02*
D03*
X827000D02*
D03*
X546000D02*
D03*
X264000D02*
D03*
X180000D02*
D03*
X86000D02*
D03*
X115000Y165000D02*
D03*
X237000D02*
D03*
X312000D02*
D03*
X387000D02*
D03*
X462000D02*
D03*
X537000D02*
D03*
X612000D02*
D03*
X686000D02*
D03*
X762000D02*
D03*
X837000D02*
D03*
X912000D02*
D03*
X1057000D02*
D03*
X1287000D02*
D03*
X1455000D02*
D03*
X1530000D02*
D03*
X1605000D02*
D03*
X1598000Y88000D02*
D03*
X1486000Y87000D02*
D03*
X1361000Y89000D02*
D03*
X1286000D02*
D03*
X1211000D02*
D03*
X1530000Y385000D02*
D03*
X1673000Y388000D02*
D03*
X1128000Y499000D02*
D03*
X227000D02*
D03*
X1449626Y389000D02*
D03*
X1692000Y439000D02*
D03*
D20*
X1632000Y395000D02*
D03*
X1647000Y372000D02*
D03*
X1599000Y96000D02*
D03*
X1636000Y460000D02*
D03*
X1631000Y465000D02*
D03*
X1391000Y460000D02*
D03*
Y348000D02*
D03*
Y273000D02*
D03*
Y48000D02*
D03*
X1315000Y460000D02*
D03*
Y348000D02*
D03*
Y273000D02*
D03*
Y123000D02*
D03*
Y48000D02*
D03*
X1697000Y452000D02*
D03*
X1704000D02*
D03*
X1711000D02*
D03*
X1239000Y460000D02*
D03*
Y348000D02*
D03*
X1239264Y272983D02*
D03*
X1239000Y48000D02*
D03*
X1147000Y460000D02*
D03*
X1117000Y348000D02*
D03*
X1132054Y272819D02*
D03*
X1072000Y460000D02*
D03*
X997000Y348000D02*
D03*
X1039000Y273000D02*
D03*
X1104000Y198000D02*
D03*
X1147000Y48000D02*
D03*
X1619000Y471000D02*
D03*
X996000Y460000D02*
D03*
X921000Y348000D02*
D03*
X958000Y273000D02*
D03*
X977000Y198000D02*
D03*
X1081000Y123000D02*
D03*
X1052000Y48000D02*
D03*
X1611000Y471000D02*
D03*
X922000Y460000D02*
D03*
X846000Y348000D02*
D03*
X884000Y273000D02*
D03*
X902000Y198000D02*
D03*
X940000Y123000D02*
D03*
X958000Y48000D02*
D03*
X1603000Y471000D02*
D03*
X810000Y460000D02*
D03*
X772000Y348000D02*
D03*
X809000Y273000D02*
D03*
X828000Y198000D02*
D03*
X865000Y123000D02*
D03*
Y48000D02*
D03*
X1595000Y471000D02*
D03*
X1587000D02*
D03*
X1579000D02*
D03*
X1711000Y472000D02*
D03*
X1704000D02*
D03*
X1697000D02*
D03*
X1619600Y420600D02*
D03*
X1645455Y444745D02*
D03*
X1670000Y433000D02*
D03*
X1626800Y413200D02*
D03*
X1712000Y407000D02*
D03*
X1706500Y401500D02*
D03*
X1645500Y436800D02*
D03*
X1704000Y493000D02*
D03*
X1697000D02*
D03*
X1711000D02*
D03*
X734000Y460000D02*
D03*
X697000Y348000D02*
D03*
X735000Y273000D02*
D03*
X753000Y198000D02*
D03*
X790000Y123000D02*
D03*
X659000Y460000D02*
D03*
X622000Y348000D02*
D03*
X659000Y273000D02*
D03*
X677000Y198000D02*
D03*
X715000Y123000D02*
D03*
X584000Y460000D02*
D03*
X470000D02*
D03*
X396000D02*
D03*
X323000D02*
D03*
X248000D02*
D03*
X546000Y348000D02*
D03*
X583000Y273000D02*
D03*
X602000Y198000D02*
D03*
X640000Y123000D02*
D03*
X470000Y348000D02*
D03*
X508000Y273000D02*
D03*
X527000Y198000D02*
D03*
X565000Y123000D02*
D03*
X577000Y48000D02*
D03*
X396000Y348000D02*
D03*
X434000Y273000D02*
D03*
X455000Y198000D02*
D03*
X492000Y123000D02*
D03*
X323000Y348000D02*
D03*
X361000Y273000D02*
D03*
X379000Y198000D02*
D03*
X417000Y123000D02*
D03*
X248000Y348000D02*
D03*
X285000Y273000D02*
D03*
X303000Y198000D02*
D03*
X342000Y123000D02*
D03*
X302000Y48000D02*
D03*
X171000Y348000D02*
D03*
X209000Y273000D02*
D03*
X228000Y198000D02*
D03*
X265000Y123000D02*
D03*
X204000Y48000D02*
D03*
X95000Y460000D02*
D03*
Y348000D02*
D03*
X131000Y273000D02*
D03*
Y198000D02*
D03*
X139000Y136000D02*
D03*
X113000Y59000D02*
D03*
X1556600Y444700D02*
D03*
X1406000Y506000D02*
D03*
X1627000Y379000D02*
D03*
X1616000D02*
D03*
X1637000Y388000D02*
D03*
X1616000D02*
D03*
X1630000Y310000D02*
D03*
X1637000Y272000D02*
D03*
X1598000Y244000D02*
D03*
X1711000Y181000D02*
D03*
X1632000Y171000D02*
D03*
X1635577Y101577D02*
D03*
X1473000Y366000D02*
D03*
Y334000D02*
D03*
Y292000D02*
D03*
X1472922Y260078D02*
D03*
X1473000Y217000D02*
D03*
Y184000D02*
D03*
Y141000D02*
D03*
Y111000D02*
D03*
X1510500Y67600D02*
D03*
X1548000Y367000D02*
D03*
Y337000D02*
D03*
Y293000D02*
D03*
Y261500D02*
D03*
Y218000D02*
D03*
Y184500D02*
D03*
Y144000D02*
D03*
X1616000Y395000D02*
D03*
X1706500Y375000D02*
D03*
X1623000Y335000D02*
D03*
X1622500Y294000D02*
D03*
X1623000Y244500D02*
D03*
Y221000D02*
D03*
Y184000D02*
D03*
Y141500D02*
D03*
X1622500Y95500D02*
D03*
Y73500D02*
D03*
X1704000Y259000D02*
D03*
X1620900Y488100D02*
D03*
Y496600D02*
D03*
X1620600Y504700D02*
D03*
Y530000D02*
D03*
Y513200D02*
D03*
Y521600D02*
D03*
M02*
