G04*
G04 #@! TF.GenerationSoftware,Altium Limited,Altium Designer,20.1.8 (145)*
G04*
G04 Layer_Color=128*
%FSLAX25Y25*%
%MOIN*%
G70*
G04*
G04 #@! TF.SameCoordinates,DC765EB9-05AD-42C3-8404-0A58541834D7*
G04*
G04*
G04 #@! TF.FilePolarity,Positive*
G04*
G01*
G75*
%ADD50C,0.00200*%
D50*
X246199Y57824D02*
X261947D01*
X254073Y49951D02*
Y65698D01*
X238168Y37824D02*
X249978D01*
X244073Y31919D02*
Y43730D01*
X263168Y47824D02*
X274978D01*
X269073Y41919D02*
Y53730D01*
X230648Y57824D02*
X238128D01*
X234388Y54084D02*
Y61565D01*
X270018Y57824D02*
X277498D01*
X273758Y54084D02*
Y61565D01*
X1661799Y357824D02*
X1677547D01*
X1669673Y349951D02*
Y365699D01*
X1653768Y337825D02*
X1665578D01*
X1659673Y331919D02*
Y343730D01*
X1678768Y347825D02*
X1690578D01*
X1684673Y341919D02*
Y353730D01*
X1646248Y357824D02*
X1653728D01*
X1649988Y354084D02*
Y361565D01*
X1685618Y357824D02*
X1693098D01*
X1689358Y354084D02*
Y361565D01*
X218099Y132825D02*
X233847D01*
X225973Y124951D02*
Y140699D01*
X210068Y112824D02*
X221879D01*
X215973Y106919D02*
Y118730D01*
X235068Y122825D02*
X246879D01*
X240973Y116919D02*
Y128730D01*
X202548Y132825D02*
X210028D01*
X206288Y129084D02*
Y136565D01*
X241918Y132825D02*
X249398D01*
X245658Y129084D02*
Y136565D01*
X536799Y282824D02*
X552547D01*
X544673Y274951D02*
Y290699D01*
X528767Y262825D02*
X540579D01*
X534673Y256919D02*
Y268730D01*
X553767Y272825D02*
X565579D01*
X559673Y266919D02*
Y278730D01*
X521248Y282824D02*
X528728D01*
X524988Y279084D02*
Y286565D01*
X560618Y282824D02*
X568098D01*
X564358Y279084D02*
Y286565D01*
X293099Y132825D02*
X308847D01*
X300973Y124951D02*
Y140699D01*
X285068Y112824D02*
X296879D01*
X290973Y106919D02*
Y118730D01*
X310068Y122825D02*
X321879D01*
X315973Y116919D02*
Y128730D01*
X277548Y132825D02*
X285028D01*
X281288Y129084D02*
Y136565D01*
X316918Y132825D02*
X324398D01*
X320658Y129084D02*
Y136565D01*
X49299Y357824D02*
X65047D01*
X57173Y349951D02*
Y365699D01*
X41267Y337825D02*
X53079D01*
X47173Y331919D02*
Y343730D01*
X66268Y347825D02*
X78079D01*
X72173Y341919D02*
Y353730D01*
X33748Y357824D02*
X41228D01*
X37488Y354084D02*
Y361565D01*
X73118Y357824D02*
X80598D01*
X76858Y354084D02*
Y361565D01*
X236799Y282824D02*
X252547D01*
X244673Y274951D02*
Y290699D01*
X228767Y262825D02*
X240579D01*
X234673Y256919D02*
Y268730D01*
X253767Y272825D02*
X265579D01*
X259673Y266919D02*
Y278730D01*
X221248Y282824D02*
X228728D01*
X224988Y279084D02*
Y286565D01*
X260618Y282824D02*
X268098D01*
X264358Y279084D02*
Y286565D01*
X443099Y132825D02*
X458847D01*
X450973Y124951D02*
Y140699D01*
X435068Y112824D02*
X446878D01*
X440973Y106919D02*
Y118730D01*
X460068Y122825D02*
X471878D01*
X465973Y116919D02*
Y128730D01*
X427548Y132825D02*
X435028D01*
X431288Y129084D02*
Y136565D01*
X466918Y132825D02*
X474398D01*
X470658Y129084D02*
Y136565D01*
X1268099Y132825D02*
X1283847D01*
X1275973Y124951D02*
Y140699D01*
X1260067Y112824D02*
X1271879D01*
X1265973Y106919D02*
Y118730D01*
X1285067Y122825D02*
X1296879D01*
X1290973Y116919D02*
Y128730D01*
X1252548Y132825D02*
X1260028D01*
X1256288Y129084D02*
Y136565D01*
X1291918Y132825D02*
X1299398D01*
X1295658Y129084D02*
Y136565D01*
X611799Y282824D02*
X627547D01*
X619673Y274951D02*
Y290699D01*
X603767Y262825D02*
X615579D01*
X609673Y256919D02*
Y268730D01*
X628767Y272825D02*
X640579D01*
X634673Y266919D02*
Y278730D01*
X596248Y282824D02*
X603728D01*
X599988Y279084D02*
Y286565D01*
X635618Y282824D02*
X643098D01*
X639358Y279084D02*
Y286565D01*
X461799Y282824D02*
X477547D01*
X469673Y274951D02*
Y290699D01*
X453767Y262825D02*
X465579D01*
X459673Y256919D02*
Y268730D01*
X478767Y272825D02*
X490579D01*
X484673Y266919D02*
Y278730D01*
X446248Y282824D02*
X453728D01*
X449988Y279084D02*
Y286565D01*
X485618Y282824D02*
X493098D01*
X489358Y279084D02*
Y286565D01*
X874299Y357824D02*
X890047D01*
X882173Y349951D02*
Y365699D01*
X866267Y337825D02*
X878078D01*
X872173Y331919D02*
Y343730D01*
X891267Y347825D02*
X903078D01*
X897173Y341919D02*
Y353730D01*
X858748Y357824D02*
X866228D01*
X862488Y354084D02*
Y361565D01*
X898118Y357824D02*
X905598D01*
X901858Y354084D02*
Y361565D01*
X893099Y132825D02*
X908847D01*
X900973Y124951D02*
Y140699D01*
X885067Y112824D02*
X896879D01*
X890973Y106919D02*
Y118730D01*
X910067Y122825D02*
X921879D01*
X915973Y116919D02*
Y128730D01*
X877548Y132825D02*
X885028D01*
X881288Y129084D02*
Y136565D01*
X916918Y132825D02*
X924398D01*
X920658Y129084D02*
Y136565D01*
X1268099Y470325D02*
X1283847D01*
X1275973Y462451D02*
Y478198D01*
X1260067Y450324D02*
X1271879D01*
X1265973Y444419D02*
Y456230D01*
X1285067Y460324D02*
X1296879D01*
X1290973Y454419D02*
Y466230D01*
X1252548Y470325D02*
X1260028D01*
X1256288Y466584D02*
Y474065D01*
X1291918Y470325D02*
X1299398D01*
X1295658Y466584D02*
Y474065D01*
X255599Y207824D02*
X271347D01*
X263473Y199951D02*
Y215699D01*
X247568Y187824D02*
X259379D01*
X253473Y181919D02*
Y193730D01*
X272568Y197825D02*
X284379D01*
X278473Y191919D02*
Y203730D01*
X240048Y207824D02*
X247528D01*
X243788Y204084D02*
Y211565D01*
X279418Y207824D02*
X286898D01*
X283158Y204084D02*
Y211565D01*
X1343099Y57824D02*
X1358847D01*
X1350973Y49951D02*
Y65698D01*
X1335067Y37824D02*
X1346879D01*
X1340973Y31919D02*
Y43730D01*
X1360067Y47824D02*
X1371879D01*
X1365973Y41919D02*
Y53730D01*
X1327548Y57824D02*
X1335028D01*
X1331288Y54084D02*
Y61565D01*
X1366918Y57824D02*
X1374398D01*
X1370658Y54084D02*
Y61565D01*
X386799Y282824D02*
X402547D01*
X394673Y274951D02*
Y290699D01*
X378767Y262825D02*
X390579D01*
X384673Y256919D02*
Y268730D01*
X403767Y272825D02*
X415579D01*
X409673Y266919D02*
Y278730D01*
X371248Y282824D02*
X378728D01*
X374988Y279084D02*
Y286565D01*
X410618Y282824D02*
X418098D01*
X414358Y279084D02*
Y286565D01*
X930599Y207824D02*
X946347D01*
X938473Y199951D02*
Y215699D01*
X922567Y187824D02*
X934379D01*
X928473Y181919D02*
Y193730D01*
X947567Y197825D02*
X959379D01*
X953473Y191919D02*
Y203730D01*
X915048Y207824D02*
X922528D01*
X918788Y204084D02*
Y211565D01*
X954418Y207824D02*
X961898D01*
X958158Y204084D02*
Y211565D01*
X161799Y282824D02*
X177547D01*
X169673Y274951D02*
Y290699D01*
X153768Y262825D02*
X165578D01*
X159673Y256919D02*
Y268730D01*
X178768Y272825D02*
X190578D01*
X184673Y266919D02*
Y278730D01*
X146248Y282824D02*
X153728D01*
X149988Y279084D02*
Y286565D01*
X185618Y282824D02*
X193098D01*
X189358Y279084D02*
Y286565D01*
X1193099Y470425D02*
X1208847D01*
X1200973Y462550D02*
Y478299D01*
X1185067Y450424D02*
X1196879D01*
X1190973Y444519D02*
Y456330D01*
X1210067Y460425D02*
X1221879D01*
X1215973Y454519D02*
Y466330D01*
X1177548Y470425D02*
X1185028D01*
X1181288Y466684D02*
Y474165D01*
X1216918Y470425D02*
X1224398D01*
X1220658Y466684D02*
Y474165D01*
X1343099Y357824D02*
X1358847D01*
X1350973Y349951D02*
Y365699D01*
X1335067Y337825D02*
X1346879D01*
X1340973Y331919D02*
Y343730D01*
X1360067Y347825D02*
X1371879D01*
X1365973Y341919D02*
Y353730D01*
X1327548Y357824D02*
X1335028D01*
X1331288Y354084D02*
Y361565D01*
X1366918Y357824D02*
X1374398D01*
X1370658Y354084D02*
Y361565D01*
X1343099Y282824D02*
X1358847D01*
X1350973Y274951D02*
Y290699D01*
X1335067Y262825D02*
X1346879D01*
X1340973Y256919D02*
Y268730D01*
X1360067Y272825D02*
X1371879D01*
X1365973Y266919D02*
Y278730D01*
X1327548Y282824D02*
X1335028D01*
X1331288Y279084D02*
Y286565D01*
X1366918Y282824D02*
X1374398D01*
X1370658Y279084D02*
Y286565D01*
X1343099Y470325D02*
X1358847D01*
X1350973Y462451D02*
Y478198D01*
X1335067Y450324D02*
X1346879D01*
X1340973Y444419D02*
Y456230D01*
X1360067Y460324D02*
X1371879D01*
X1365973Y454419D02*
Y466230D01*
X1327548Y470325D02*
X1335028D01*
X1331288Y466584D02*
Y474065D01*
X1366918Y470325D02*
X1374398D01*
X1370658Y466584D02*
Y474065D01*
X836799Y282824D02*
X852547D01*
X844673Y274951D02*
Y290699D01*
X828767Y262825D02*
X840578D01*
X834673Y256919D02*
Y268730D01*
X853767Y272825D02*
X865578D01*
X859673Y266919D02*
Y278730D01*
X821248Y282824D02*
X828728D01*
X824988Y279084D02*
Y286565D01*
X860618Y282824D02*
X868098D01*
X864358Y279084D02*
Y286565D01*
X761799Y282824D02*
X777547D01*
X769673Y274951D02*
Y290699D01*
X753767Y262825D02*
X765579D01*
X759673Y256919D02*
Y268730D01*
X778767Y272825D02*
X790579D01*
X784673Y266919D02*
Y278730D01*
X746248Y282824D02*
X753728D01*
X749988Y279084D02*
Y286565D01*
X785618Y282824D02*
X793098D01*
X789358Y279084D02*
Y286565D01*
X1586799Y357824D02*
X1602547D01*
X1594673Y349951D02*
Y365699D01*
X1578767Y337825D02*
X1590578D01*
X1584673Y331919D02*
Y343730D01*
X1603768Y347825D02*
X1615578D01*
X1609673Y341919D02*
Y353730D01*
X1571248Y357824D02*
X1578728D01*
X1574988Y354084D02*
Y361565D01*
X1610618Y357824D02*
X1618098D01*
X1614358Y354084D02*
Y361565D01*
X1436799Y357824D02*
X1452547D01*
X1444673Y349951D02*
Y365699D01*
X1428767Y337825D02*
X1440578D01*
X1434673Y331919D02*
Y343730D01*
X1453767Y347825D02*
X1465578D01*
X1459673Y341919D02*
Y353730D01*
X1421248Y357824D02*
X1428728D01*
X1424988Y354084D02*
Y361565D01*
X1460618Y357824D02*
X1468098D01*
X1464358Y354084D02*
Y361565D01*
X1586799Y57824D02*
X1602547D01*
X1594673Y49951D02*
Y65698D01*
X1578767Y37824D02*
X1590578D01*
X1584673Y31919D02*
Y43730D01*
X1603768Y47824D02*
X1615578D01*
X1609673Y41919D02*
Y53730D01*
X1571248Y57824D02*
X1578728D01*
X1574988Y54084D02*
Y61565D01*
X1610618Y57824D02*
X1618098D01*
X1614358Y54084D02*
Y61565D01*
X1511799Y357824D02*
X1527547D01*
X1519673Y349951D02*
Y365699D01*
X1503767Y337825D02*
X1515578D01*
X1509673Y331919D02*
Y343730D01*
X1528767Y347825D02*
X1540578D01*
X1534673Y341919D02*
Y353730D01*
X1496248Y357824D02*
X1503728D01*
X1499988Y354084D02*
Y361565D01*
X1535618Y357824D02*
X1543098D01*
X1539358Y354084D02*
Y361565D01*
X1586799Y282824D02*
X1602547D01*
X1594673Y274951D02*
Y290699D01*
X1578767Y262825D02*
X1590578D01*
X1584673Y256919D02*
Y268730D01*
X1603768Y272825D02*
X1615578D01*
X1609673Y266919D02*
Y278730D01*
X1571248Y282824D02*
X1578728D01*
X1574988Y279084D02*
Y286565D01*
X1610618Y282824D02*
X1618098D01*
X1614358Y279084D02*
Y286565D01*
X1511799Y282824D02*
X1527547D01*
X1519673Y274951D02*
Y290699D01*
X1503767Y262825D02*
X1515578D01*
X1509673Y256919D02*
Y268730D01*
X1528767Y272825D02*
X1540578D01*
X1534673Y266919D02*
Y278730D01*
X1496248Y282824D02*
X1503728D01*
X1499988Y279084D02*
Y286565D01*
X1535618Y282824D02*
X1543098D01*
X1539358Y279084D02*
Y286565D01*
X1436799Y282824D02*
X1452547D01*
X1444673Y274951D02*
Y290699D01*
X1428767Y262825D02*
X1440578D01*
X1434673Y256919D02*
Y268730D01*
X1453767Y272825D02*
X1465578D01*
X1459673Y266919D02*
Y278730D01*
X1421248Y282824D02*
X1428728D01*
X1424988Y279084D02*
Y286565D01*
X1460618Y282824D02*
X1468098D01*
X1464358Y279084D02*
Y286565D01*
X1586799Y207824D02*
X1602547D01*
X1594673Y199951D02*
Y215699D01*
X1578767Y187824D02*
X1590578D01*
X1584673Y181919D02*
Y193730D01*
X1603768Y197825D02*
X1615578D01*
X1609673Y191919D02*
Y203730D01*
X1571248Y207824D02*
X1578728D01*
X1574988Y204084D02*
Y211565D01*
X1610618Y207824D02*
X1618098D01*
X1614358Y204084D02*
Y211565D01*
X1511799Y207824D02*
X1527547D01*
X1519673Y199951D02*
Y215699D01*
X1503767Y187824D02*
X1515578D01*
X1509673Y181919D02*
Y193730D01*
X1528767Y197825D02*
X1540578D01*
X1534673Y191919D02*
Y203730D01*
X1496248Y207824D02*
X1503728D01*
X1499988Y204084D02*
Y211565D01*
X1535618Y207824D02*
X1543098D01*
X1539358Y204084D02*
Y211565D01*
X1436799Y207824D02*
X1452547D01*
X1444673Y199951D02*
Y215699D01*
X1428767Y187824D02*
X1440578D01*
X1434673Y181919D02*
Y193730D01*
X1453767Y197825D02*
X1465578D01*
X1459673Y191919D02*
Y203730D01*
X1421248Y207824D02*
X1428728D01*
X1424988Y204084D02*
Y211565D01*
X1460618Y207824D02*
X1468098D01*
X1464358Y204084D02*
Y211565D01*
X1586799Y132825D02*
X1602547D01*
X1594673Y124951D02*
Y140699D01*
X1578767Y112824D02*
X1590578D01*
X1584673Y106919D02*
Y118730D01*
X1603768Y122825D02*
X1615578D01*
X1609673Y116919D02*
Y128730D01*
X1571248Y132825D02*
X1578728D01*
X1574988Y129084D02*
Y136565D01*
X1610618Y132825D02*
X1618098D01*
X1614358Y129084D02*
Y136565D01*
X1511799Y132825D02*
X1527547D01*
X1519673Y124951D02*
Y140699D01*
X1503767Y112824D02*
X1515578D01*
X1509673Y106919D02*
Y118730D01*
X1528767Y122825D02*
X1540578D01*
X1534673Y116919D02*
Y128730D01*
X1496248Y132825D02*
X1503728D01*
X1499988Y129084D02*
Y136565D01*
X1535618Y132825D02*
X1543098D01*
X1539358Y129084D02*
Y136565D01*
X1436899Y132825D02*
X1452647D01*
X1444773Y124951D02*
Y140699D01*
X1428868Y112824D02*
X1440679D01*
X1434773Y106919D02*
Y118730D01*
X1453868Y122825D02*
X1465679D01*
X1459773Y116919D02*
Y128730D01*
X1421348Y132825D02*
X1428828D01*
X1425088Y129084D02*
Y136565D01*
X1460718Y132825D02*
X1468198D01*
X1464458Y129084D02*
Y136565D01*
X593099Y132825D02*
X608847D01*
X600973Y124951D02*
Y140699D01*
X585068Y112824D02*
X596878D01*
X590973Y106919D02*
Y118730D01*
X610068Y122825D02*
X621878D01*
X615973Y116919D02*
Y128730D01*
X577548Y132825D02*
X585028D01*
X581288Y129084D02*
Y136565D01*
X616918Y132825D02*
X624398D01*
X620658Y129084D02*
Y136565D01*
X668099Y132825D02*
X683847D01*
X675973Y124951D02*
Y140699D01*
X660068Y112824D02*
X671878D01*
X665973Y106919D02*
Y118730D01*
X685068Y122825D02*
X696878D01*
X690973Y116919D02*
Y128730D01*
X652548Y132825D02*
X660028D01*
X656288Y129084D02*
Y136565D01*
X691918Y132825D02*
X699398D01*
X695658Y129084D02*
Y136565D01*
X1193099Y57824D02*
X1208847D01*
X1200973Y49951D02*
Y65698D01*
X1185067Y37824D02*
X1196879D01*
X1190973Y31919D02*
Y43730D01*
X1210067Y47824D02*
X1221879D01*
X1215973Y41919D02*
Y53730D01*
X1177548Y57824D02*
X1185028D01*
X1181288Y54084D02*
Y61565D01*
X1216918Y57824D02*
X1224398D01*
X1220658Y54084D02*
Y61565D01*
X780599Y207824D02*
X796347D01*
X788473Y199951D02*
Y215699D01*
X772568Y187824D02*
X784378D01*
X778473Y181919D02*
Y193730D01*
X797568Y197825D02*
X809379D01*
X803473Y191919D02*
Y203730D01*
X765048Y207824D02*
X772528D01*
X768788Y204084D02*
Y211565D01*
X804418Y207824D02*
X811898D01*
X808158Y204084D02*
Y211565D01*
X705599Y207824D02*
X721347D01*
X713473Y199951D02*
Y215699D01*
X697568Y187824D02*
X709378D01*
X703473Y181919D02*
Y193730D01*
X722568Y197825D02*
X734378D01*
X728473Y191919D02*
Y203730D01*
X690048Y207824D02*
X697528D01*
X693788Y204084D02*
Y211565D01*
X729418Y207824D02*
X736898D01*
X733158Y204084D02*
Y211565D01*
X630599Y207824D02*
X646347D01*
X638473Y199951D02*
Y215699D01*
X622568Y187824D02*
X634378D01*
X628473Y181919D02*
Y193730D01*
X647568Y197825D02*
X659378D01*
X653473Y191919D02*
Y203730D01*
X615048Y207824D02*
X622528D01*
X618788Y204084D02*
Y211565D01*
X654418Y207824D02*
X661898D01*
X658158Y204084D02*
Y211565D01*
X1193099Y357824D02*
X1208847D01*
X1200973Y349951D02*
Y365699D01*
X1185067Y337825D02*
X1196879D01*
X1190973Y331919D02*
Y343730D01*
X1210067Y347825D02*
X1221879D01*
X1215973Y341919D02*
Y353730D01*
X1177548Y357824D02*
X1185028D01*
X1181288Y354084D02*
Y361565D01*
X1216918Y357824D02*
X1224398D01*
X1220658Y354084D02*
Y361565D01*
X686799Y282824D02*
X702547D01*
X694673Y274951D02*
Y290699D01*
X678767Y262825D02*
X690579D01*
X684673Y256919D02*
Y268730D01*
X703767Y272825D02*
X715579D01*
X709673Y266919D02*
Y278730D01*
X671248Y282824D02*
X678728D01*
X674988Y279084D02*
Y286565D01*
X710618Y282824D02*
X718098D01*
X714358Y279084D02*
Y286565D01*
X1268099Y357824D02*
X1283847D01*
X1275973Y349951D02*
Y365699D01*
X1260067Y337825D02*
X1271879D01*
X1265973Y331919D02*
Y343730D01*
X1285067Y347825D02*
X1296879D01*
X1290973Y341919D02*
Y353730D01*
X1252548Y357824D02*
X1260028D01*
X1256288Y354084D02*
Y361565D01*
X1291918Y357824D02*
X1299398D01*
X1295658Y354084D02*
Y361565D01*
X555599Y207824D02*
X571347D01*
X563473Y199951D02*
Y215699D01*
X547568Y187824D02*
X559378D01*
X553473Y181919D02*
Y193730D01*
X572568Y197825D02*
X584378D01*
X578473Y191919D02*
Y203730D01*
X540048Y207824D02*
X547528D01*
X543788Y204084D02*
Y211565D01*
X579418Y207824D02*
X586898D01*
X583158Y204084D02*
Y211565D01*
X480599Y207824D02*
X496347D01*
X488473Y199951D02*
Y215699D01*
X472568Y187824D02*
X484378D01*
X478473Y181919D02*
Y193730D01*
X497568Y197825D02*
X509378D01*
X503473Y191919D02*
Y203730D01*
X465048Y207824D02*
X472528D01*
X468788Y204084D02*
Y211565D01*
X504418Y207824D02*
X511898D01*
X508158Y204084D02*
Y211565D01*
X818099Y132825D02*
X833847D01*
X825973Y124951D02*
Y140699D01*
X810067Y112824D02*
X821879D01*
X815973Y106919D02*
Y118730D01*
X835067Y122825D02*
X846879D01*
X840973Y116919D02*
Y128730D01*
X802548Y132825D02*
X810028D01*
X806288Y129084D02*
Y136565D01*
X841918Y132825D02*
X849398D01*
X845658Y129084D02*
Y136565D01*
X911799Y282824D02*
X927547D01*
X919673Y274951D02*
Y290699D01*
X903767Y262825D02*
X915578D01*
X909673Y256919D02*
Y268730D01*
X928767Y272825D02*
X940578D01*
X934673Y266919D02*
Y278730D01*
X896248Y282824D02*
X903728D01*
X899988Y279084D02*
Y286565D01*
X935618Y282824D02*
X943098D01*
X939358Y279084D02*
Y286565D01*
X405599Y207824D02*
X421347D01*
X413473Y199951D02*
Y215699D01*
X397568Y187824D02*
X409378D01*
X403473Y181919D02*
Y193730D01*
X422568Y197825D02*
X434378D01*
X428473Y191919D02*
Y203730D01*
X390048Y207824D02*
X397528D01*
X393788Y204084D02*
Y211565D01*
X429418Y207824D02*
X436898D01*
X433158Y204084D02*
Y211565D01*
X1099299Y470325D02*
X1115047D01*
X1107173Y462451D02*
Y478198D01*
X1091267Y450324D02*
X1103078D01*
X1097173Y444419D02*
Y456230D01*
X1116267Y460324D02*
X1128078D01*
X1122173Y454419D02*
Y466230D01*
X1083748Y470325D02*
X1091228D01*
X1087488Y466584D02*
Y474065D01*
X1123118Y470325D02*
X1130598D01*
X1126858Y466584D02*
Y474065D01*
X1024299Y470325D02*
X1040047D01*
X1032173Y462451D02*
Y478198D01*
X1016267Y450324D02*
X1028078D01*
X1022173Y444419D02*
Y456230D01*
X1041267Y460324D02*
X1053078D01*
X1047173Y454419D02*
Y466230D01*
X1008748Y470325D02*
X1016228D01*
X1012488Y466584D02*
Y474065D01*
X1048118Y470325D02*
X1055598D01*
X1051858Y466584D02*
Y474065D01*
X949299Y470325D02*
X965047D01*
X957173Y462451D02*
Y478198D01*
X941267Y450324D02*
X953078D01*
X947173Y444419D02*
Y456230D01*
X966267Y460324D02*
X978078D01*
X972173Y454419D02*
Y466230D01*
X933748Y470325D02*
X941228D01*
X937488Y466584D02*
Y474065D01*
X973118Y470325D02*
X980598D01*
X976858Y466584D02*
Y474065D01*
X874299Y470325D02*
X890047D01*
X882173Y462451D02*
Y478198D01*
X866267Y450324D02*
X878078D01*
X872173Y444419D02*
Y456230D01*
X891267Y460324D02*
X903078D01*
X897173Y454419D02*
Y466230D01*
X858748Y470325D02*
X866228D01*
X862488Y466584D02*
Y474065D01*
X898118Y470325D02*
X905598D01*
X901858Y466584D02*
Y474065D01*
X761799Y470425D02*
X777547D01*
X769673Y462550D02*
Y478299D01*
X753767Y450424D02*
X765579D01*
X759673Y444519D02*
Y456330D01*
X778767Y460425D02*
X790579D01*
X784673Y454519D02*
Y466330D01*
X746248Y470425D02*
X753728D01*
X749988Y466684D02*
Y474165D01*
X785618Y470425D02*
X793098D01*
X789358Y466684D02*
Y474165D01*
X686799Y470425D02*
X702547D01*
X694673Y462550D02*
Y478299D01*
X678767Y450424D02*
X690579D01*
X684673Y444519D02*
Y456330D01*
X703767Y460425D02*
X715579D01*
X709673Y454519D02*
Y466330D01*
X671248Y470425D02*
X678728D01*
X674988Y466684D02*
Y474165D01*
X710618Y470425D02*
X718098D01*
X714358Y466684D02*
Y474165D01*
X611799Y470425D02*
X627547D01*
X619673Y462550D02*
Y478299D01*
X603767Y450424D02*
X615579D01*
X609673Y444519D02*
Y456330D01*
X628767Y460425D02*
X640579D01*
X634673Y454519D02*
Y466330D01*
X596248Y470425D02*
X603728D01*
X599988Y466684D02*
Y474165D01*
X635618Y470425D02*
X643098D01*
X639358Y466684D02*
Y474165D01*
X536799Y470425D02*
X552547D01*
X544673Y462550D02*
Y478299D01*
X528767Y450424D02*
X540579D01*
X534673Y444519D02*
Y456330D01*
X553767Y460425D02*
X565579D01*
X559673Y454519D02*
Y466330D01*
X521248Y470425D02*
X528728D01*
X524988Y466684D02*
Y474165D01*
X560618Y470425D02*
X568098D01*
X564358Y466684D02*
Y474165D01*
X424299Y470325D02*
X440047D01*
X432173Y462451D02*
Y478198D01*
X416267Y450324D02*
X428079D01*
X422173Y444419D02*
Y456230D01*
X441267Y460324D02*
X453079D01*
X447173Y454419D02*
Y466230D01*
X408748Y470325D02*
X416228D01*
X412488Y466584D02*
Y474065D01*
X448118Y470325D02*
X455598D01*
X451858Y466584D02*
Y474065D01*
X349299Y470325D02*
X365047D01*
X357173Y462451D02*
Y478198D01*
X341267Y450324D02*
X353079D01*
X347173Y444419D02*
Y456230D01*
X366267Y460324D02*
X378079D01*
X372173Y454419D02*
Y466230D01*
X333748Y470325D02*
X341228D01*
X337488Y466584D02*
Y474065D01*
X373118Y470325D02*
X380598D01*
X376858Y466584D02*
Y474065D01*
X274299Y470325D02*
X290047D01*
X282173Y462451D02*
Y478198D01*
X266267Y450324D02*
X278079D01*
X272173Y444419D02*
Y456230D01*
X291267Y460324D02*
X303079D01*
X297173Y454419D02*
Y466230D01*
X258748Y470325D02*
X266228D01*
X262488Y466584D02*
Y474065D01*
X298118Y470325D02*
X305598D01*
X301858Y466584D02*
Y474065D01*
X199299Y470325D02*
X215047D01*
X207173Y462451D02*
Y478198D01*
X191268Y450324D02*
X203079D01*
X197173Y444419D02*
Y456230D01*
X216267Y460324D02*
X228079D01*
X222173Y454419D02*
Y466230D01*
X183748Y470325D02*
X191228D01*
X187488Y466584D02*
Y474065D01*
X223118Y470325D02*
X230598D01*
X226858Y466584D02*
Y474065D01*
X49299Y470325D02*
X65047D01*
X57173Y462451D02*
Y478198D01*
X41267Y450324D02*
X53079D01*
X47173Y444419D02*
Y456230D01*
X66268Y460324D02*
X78079D01*
X72173Y454419D02*
Y466230D01*
X33748Y470325D02*
X41228D01*
X37488Y466584D02*
Y474065D01*
X73118Y470325D02*
X80598D01*
X76858Y466584D02*
Y474065D01*
X1268099Y282824D02*
X1283847D01*
X1275973Y274951D02*
Y290699D01*
X1260067Y262825D02*
X1271879D01*
X1265973Y256919D02*
Y268730D01*
X1285067Y272825D02*
X1296879D01*
X1290973Y266919D02*
Y278730D01*
X1252548Y282824D02*
X1260028D01*
X1256288Y279084D02*
Y286565D01*
X1291918Y282824D02*
X1299398D01*
X1295658Y279084D02*
Y286565D01*
X311799Y282824D02*
X327547D01*
X319673Y274951D02*
Y290699D01*
X303767Y262825D02*
X315579D01*
X309673Y256919D02*
Y268730D01*
X328767Y272825D02*
X340579D01*
X334673Y266919D02*
Y278730D01*
X296248Y282824D02*
X303728D01*
X299988Y279084D02*
Y286565D01*
X335618Y282824D02*
X343098D01*
X339358Y279084D02*
Y286565D01*
X1268099Y57824D02*
X1283847D01*
X1275973Y49951D02*
Y65698D01*
X1260067Y37824D02*
X1271879D01*
X1265973Y31919D02*
Y43730D01*
X1285067Y47824D02*
X1296879D01*
X1290973Y41919D02*
Y53730D01*
X1252548Y57824D02*
X1260028D01*
X1256288Y54084D02*
Y61565D01*
X1291918Y57824D02*
X1299398D01*
X1295658Y54084D02*
Y61565D01*
X1193099Y282824D02*
X1208847D01*
X1200973Y274951D02*
Y290699D01*
X1185067Y262825D02*
X1196879D01*
X1190973Y256919D02*
Y268730D01*
X1210067Y272825D02*
X1221879D01*
X1215973Y266919D02*
Y278730D01*
X1177548Y282824D02*
X1185028D01*
X1181288Y279084D02*
Y286565D01*
X1216918Y282824D02*
X1224398D01*
X1220658Y279084D02*
Y286565D01*
X330599Y207824D02*
X346347D01*
X338473Y199951D02*
Y215699D01*
X322568Y187824D02*
X334379D01*
X328473Y181919D02*
Y193730D01*
X347568Y197825D02*
X359379D01*
X353473Y191919D02*
Y203730D01*
X315048Y207824D02*
X322528D01*
X318788Y204084D02*
Y211565D01*
X354418Y207824D02*
X361898D01*
X358158Y204084D02*
Y211565D01*
X743099Y132825D02*
X758847D01*
X750973Y124951D02*
Y140699D01*
X735068Y112824D02*
X746878D01*
X740973Y106919D02*
Y118730D01*
X760068Y122825D02*
X771878D01*
X765973Y116919D02*
Y128730D01*
X727548Y132825D02*
X735028D01*
X731288Y129084D02*
Y136565D01*
X766918Y132825D02*
X774398D01*
X770658Y129084D02*
Y136565D01*
X855599Y207824D02*
X871347D01*
X863473Y199951D02*
Y215699D01*
X847567Y187824D02*
X859379D01*
X853473Y181919D02*
Y193730D01*
X872567Y197825D02*
X884379D01*
X878473Y191919D02*
Y203730D01*
X840048Y207824D02*
X847528D01*
X843788Y204084D02*
Y211565D01*
X879418Y207824D02*
X886898D01*
X883158Y204084D02*
Y211565D01*
X368099Y132825D02*
X383847D01*
X375973Y124951D02*
Y140699D01*
X360068Y112824D02*
X371879D01*
X365973Y106919D02*
Y118730D01*
X385068Y122825D02*
X396879D01*
X390973Y116919D02*
Y128730D01*
X352548Y132825D02*
X360028D01*
X356288Y129084D02*
Y136565D01*
X391918Y132825D02*
X399398D01*
X395658Y129084D02*
Y136565D01*
X986799Y282824D02*
X1002547D01*
X994673Y274951D02*
Y290699D01*
X978767Y262825D02*
X990578D01*
X984673Y256919D02*
Y268730D01*
X1003767Y272825D02*
X1015578D01*
X1009673Y266919D02*
Y278730D01*
X971248Y282824D02*
X978728D01*
X974988Y279084D02*
Y286565D01*
X1010618Y282824D02*
X1018098D01*
X1014358Y279084D02*
Y286565D01*
X518099Y132825D02*
X533847D01*
X525973Y124951D02*
Y140699D01*
X510068Y112824D02*
X521878D01*
X515973Y106919D02*
Y118730D01*
X535068Y122825D02*
X546878D01*
X540973Y116919D02*
Y128730D01*
X502548Y132825D02*
X510028D01*
X506288Y129084D02*
Y136565D01*
X541918Y132825D02*
X549398D01*
X545658Y129084D02*
Y136565D01*
X949299Y357824D02*
X965047D01*
X957173Y349951D02*
Y365699D01*
X941267Y337825D02*
X953078D01*
X947173Y331919D02*
Y343730D01*
X966267Y347825D02*
X978078D01*
X972173Y341919D02*
Y353730D01*
X933748Y357824D02*
X941228D01*
X937488Y354084D02*
Y361565D01*
X973118Y357824D02*
X980598D01*
X976858Y354084D02*
Y361565D01*
X180599Y207824D02*
X196347D01*
X188473Y199951D02*
Y215699D01*
X172567Y187824D02*
X184379D01*
X178473Y181919D02*
Y193730D01*
X197567Y197825D02*
X209379D01*
X203473Y191919D02*
Y203730D01*
X165048Y207824D02*
X172528D01*
X168788Y204084D02*
Y211565D01*
X204418Y207824D02*
X211898D01*
X208158Y204084D02*
Y211565D01*
X724299Y357824D02*
X740047D01*
X732173Y349951D02*
Y365699D01*
X716267Y337825D02*
X728079D01*
X722173Y331919D02*
Y343730D01*
X741267Y347825D02*
X753079D01*
X747173Y341919D02*
Y353730D01*
X708748Y357824D02*
X716228D01*
X712488Y354084D02*
Y361565D01*
X748118Y357824D02*
X755598D01*
X751858Y354084D02*
Y361565D01*
X649299Y357824D02*
X665047D01*
X657173Y349951D02*
Y365699D01*
X641267Y337825D02*
X653079D01*
X647173Y331919D02*
Y343730D01*
X666267Y347825D02*
X678079D01*
X672173Y341919D02*
Y353730D01*
X633748Y357824D02*
X641228D01*
X637488Y354084D02*
Y361565D01*
X673118Y357824D02*
X680598D01*
X676858Y354084D02*
Y361565D01*
X574299Y357824D02*
X590047D01*
X582173Y349951D02*
Y365699D01*
X566267Y337825D02*
X578079D01*
X572173Y331919D02*
Y343730D01*
X591267Y347825D02*
X603079D01*
X597173Y341919D02*
Y353730D01*
X558748Y357824D02*
X566228D01*
X562488Y354084D02*
Y361565D01*
X598118Y357824D02*
X605598D01*
X601858Y354084D02*
Y361565D01*
X499299Y357824D02*
X515047D01*
X507173Y349951D02*
Y365699D01*
X491267Y337825D02*
X503079D01*
X497173Y331919D02*
Y343730D01*
X516267Y347825D02*
X528079D01*
X522173Y341919D02*
Y353730D01*
X483748Y357824D02*
X491228D01*
X487488Y354084D02*
Y361565D01*
X523118Y357824D02*
X530598D01*
X526858Y354084D02*
Y361565D01*
X424299Y357824D02*
X440047D01*
X432173Y349951D02*
Y365699D01*
X416267Y337825D02*
X428079D01*
X422173Y331919D02*
Y343730D01*
X441267Y347825D02*
X453079D01*
X447173Y341919D02*
Y353730D01*
X408748Y357824D02*
X416228D01*
X412488Y354084D02*
Y361565D01*
X448118Y357824D02*
X455598D01*
X451858Y354084D02*
Y361565D01*
X349299Y357824D02*
X365047D01*
X357173Y349951D02*
Y365699D01*
X341267Y337825D02*
X353079D01*
X347173Y331919D02*
Y343730D01*
X366267Y347825D02*
X378079D01*
X372173Y341919D02*
Y353730D01*
X333748Y357824D02*
X341228D01*
X337488Y354084D02*
Y361565D01*
X373118Y357824D02*
X380598D01*
X376858Y354084D02*
Y361565D01*
X274299Y357824D02*
X290047D01*
X282173Y349951D02*
Y365699D01*
X266267Y337825D02*
X278079D01*
X272173Y331919D02*
Y343730D01*
X291267Y347825D02*
X303079D01*
X297173Y341919D02*
Y353730D01*
X258748Y357824D02*
X266228D01*
X262488Y354084D02*
Y361565D01*
X298118Y357824D02*
X305598D01*
X301858Y354084D02*
Y361565D01*
X199299Y357824D02*
X215047D01*
X207173Y349951D02*
Y365699D01*
X191268Y337825D02*
X203079D01*
X197173Y331919D02*
Y343730D01*
X216267Y347825D02*
X228079D01*
X222173Y341919D02*
Y353730D01*
X183748Y357824D02*
X191228D01*
X187488Y354084D02*
Y361565D01*
X223118Y357824D02*
X230598D01*
X226858Y354084D02*
Y361565D01*
X124299Y357824D02*
X140047D01*
X132173Y349951D02*
Y365699D01*
X116268Y337825D02*
X128078D01*
X122173Y331919D02*
Y343730D01*
X141268Y347825D02*
X153078D01*
X147173Y341919D02*
Y353730D01*
X108748Y357824D02*
X116228D01*
X112488Y354084D02*
Y361565D01*
X148118Y357824D02*
X155598D01*
X151858Y354084D02*
Y361565D01*
X799299Y357824D02*
X815047D01*
X807173Y349951D02*
Y365699D01*
X791267Y337825D02*
X803078D01*
X797173Y331919D02*
Y343730D01*
X816267Y347825D02*
X828078D01*
X822173Y341919D02*
Y353730D01*
X783748Y357824D02*
X791228D01*
X787488Y354084D02*
Y361565D01*
X823118Y357824D02*
X830598D01*
X826858Y354084D02*
Y361565D01*
X1076318Y207824D02*
X1083798D01*
X1080058Y204084D02*
Y211565D01*
X1036948Y207824D02*
X1044428D01*
X1040688Y204084D02*
Y211565D01*
X1069468Y197825D02*
X1081279D01*
X1075373Y191919D02*
Y203730D01*
X1044468Y187824D02*
X1056279D01*
X1050373Y181919D02*
Y193730D01*
X1052499Y207824D02*
X1068247D01*
X1060373Y199951D02*
Y215699D01*
X120018Y132825D02*
X127498D01*
X123758Y129084D02*
Y136565D01*
X80648Y132825D02*
X88128D01*
X84388Y129084D02*
Y136565D01*
X113168Y122825D02*
X124978D01*
X119073Y116919D02*
Y128730D01*
X88168Y112824D02*
X99979D01*
X94073Y106919D02*
Y118730D01*
X96199Y132825D02*
X111947D01*
X104073Y124951D02*
Y140699D01*
X996199Y57824D02*
X1011947D01*
X1004073Y49951D02*
Y65698D01*
X988167Y37824D02*
X999979D01*
X994073Y31919D02*
Y43730D01*
X1013167Y47824D02*
X1024979D01*
X1019073Y41919D02*
Y53730D01*
X980648Y57824D02*
X988128D01*
X984388Y54084D02*
Y61565D01*
X1020018Y57824D02*
X1027498D01*
X1023758Y54084D02*
Y61565D01*
X58699Y57824D02*
X74447D01*
X66573Y49951D02*
Y65698D01*
X50668Y37824D02*
X62479D01*
X56573Y31919D02*
Y43730D01*
X75668Y47824D02*
X87479D01*
X81573Y41919D02*
Y53730D01*
X43148Y57824D02*
X50628D01*
X46888Y54084D02*
Y61565D01*
X82518Y57824D02*
X89998D01*
X86258Y54084D02*
Y61565D01*
X152399Y57824D02*
X168147D01*
X160273Y49951D02*
Y65698D01*
X144368Y37824D02*
X156178D01*
X150273Y31919D02*
Y43730D01*
X169368Y47824D02*
X181178D01*
X175273Y41919D02*
Y53730D01*
X136848Y57824D02*
X144328D01*
X140588Y54084D02*
Y61565D01*
X176218Y57824D02*
X183698D01*
X179958Y54084D02*
Y61565D01*
X808699Y57824D02*
X824447D01*
X816573Y49951D02*
Y65698D01*
X800667Y37824D02*
X812479D01*
X806573Y31919D02*
Y43730D01*
X825667Y47824D02*
X837479D01*
X831573Y41919D02*
Y53730D01*
X793148Y57824D02*
X800628D01*
X796888Y54084D02*
Y61565D01*
X832518Y57824D02*
X839998D01*
X836258Y54084D02*
Y61565D01*
X1089999Y57824D02*
X1105747D01*
X1097873Y49951D02*
Y65698D01*
X1081968Y37824D02*
X1093779D01*
X1087873Y31919D02*
Y43730D01*
X1106968Y47824D02*
X1118779D01*
X1112873Y41919D02*
Y53730D01*
X1074448Y57824D02*
X1081928D01*
X1078188Y54084D02*
Y61565D01*
X1113818Y57824D02*
X1121298D01*
X1117558Y54084D02*
Y61565D01*
X902499Y57824D02*
X918247D01*
X910373Y49951D02*
Y65698D01*
X894468Y37824D02*
X906279D01*
X900373Y31919D02*
Y43730D01*
X919468Y47824D02*
X931279D01*
X925373Y41919D02*
Y53730D01*
X886948Y57824D02*
X894428D01*
X890688Y54084D02*
Y61565D01*
X926318Y57824D02*
X933798D01*
X930058Y54084D02*
Y61565D01*
X1057518Y132825D02*
X1064998D01*
X1061258Y129084D02*
Y136565D01*
X1018148Y132825D02*
X1025628D01*
X1021888Y129084D02*
Y136565D01*
X1050667Y122825D02*
X1062479D01*
X1056573Y116919D02*
Y128730D01*
X1025667Y112824D02*
X1037479D01*
X1031573Y106919D02*
Y118730D01*
X1033699Y132825D02*
X1049447D01*
X1041573Y124951D02*
Y140699D01*
X101318Y207824D02*
X108798D01*
X105058Y204084D02*
Y211565D01*
X61948Y207824D02*
X69428D01*
X65688Y204084D02*
Y211565D01*
X94468Y197825D02*
X106279D01*
X100373Y191919D02*
Y203730D01*
X69468Y187824D02*
X81279D01*
X75373Y181919D02*
Y193730D01*
X77499Y207824D02*
X93247D01*
X85373Y199951D02*
Y215699D01*
X1061799Y357824D02*
X1077547D01*
X1069673Y349951D02*
Y365699D01*
X1053767Y337825D02*
X1065578D01*
X1059673Y331919D02*
Y343730D01*
X1078767Y347825D02*
X1090578D01*
X1084673Y341919D02*
Y353730D01*
X1046248Y357824D02*
X1053728D01*
X1049988Y354084D02*
Y361565D01*
X1085618Y357824D02*
X1093098D01*
X1089358Y354084D02*
Y361565D01*
X1474299Y57924D02*
X1490047D01*
X1482173Y50050D02*
Y65798D01*
X1466267Y37925D02*
X1478078D01*
X1472173Y32019D02*
Y43830D01*
X1491267Y47925D02*
X1503078D01*
X1497173Y42019D02*
Y53830D01*
X1458748Y57924D02*
X1466228D01*
X1462488Y54184D02*
Y61665D01*
X1498118Y57924D02*
X1505598D01*
X1501858Y54184D02*
Y61665D01*
X1661802Y245373D02*
X1677550D01*
X1669676Y237499D02*
Y253247D01*
X1683770Y235373D02*
X1695581D01*
X1689676Y229468D02*
Y241279D01*
X1673770Y260373D02*
X1685581D01*
X1679676Y254468D02*
Y266279D01*
X1665935Y225688D02*
X1673416D01*
X1669676Y221948D02*
Y229428D01*
X1665935Y265058D02*
X1673416D01*
X1669676Y261318D02*
Y268798D01*
X1661802Y95373D02*
X1677550D01*
X1669676Y87499D02*
Y103247D01*
X1683770Y85373D02*
X1695581D01*
X1689676Y79468D02*
Y91279D01*
X1673770Y110373D02*
X1685581D01*
X1679676Y104468D02*
Y116279D01*
X1665935Y75688D02*
X1673416D01*
X1669676Y71948D02*
Y79428D01*
X1665935Y115058D02*
X1673416D01*
X1669676Y111318D02*
Y118798D01*
X527499Y57824D02*
X543247D01*
X535373Y49951D02*
Y65698D01*
X519467Y37824D02*
X531279D01*
X525373Y31919D02*
Y43730D01*
X544467Y47824D02*
X556279D01*
X550373Y41919D02*
Y53730D01*
X511948Y57824D02*
X519428D01*
X515688Y54084D02*
Y61565D01*
X551318Y57824D02*
X558798D01*
X555058Y54084D02*
Y61565D01*
X1080599Y282824D02*
X1096347D01*
X1088473Y274951D02*
Y290699D01*
X1072567Y262825D02*
X1084379D01*
X1078473Y256919D02*
Y268730D01*
X1097567Y272825D02*
X1109379D01*
X1103473Y266919D02*
Y278730D01*
X1065048Y282824D02*
X1072528D01*
X1068788Y279084D02*
Y286565D01*
X1104418Y282824D02*
X1111898D01*
X1108158Y279084D02*
Y286565D01*
X91918Y282824D02*
X99398D01*
X95658Y279084D02*
Y286565D01*
X52548Y282824D02*
X60028D01*
X56288Y279084D02*
Y286565D01*
X85067Y272825D02*
X96878D01*
X90973Y266919D02*
Y278730D01*
X60067Y262825D02*
X71878D01*
X65973Y256919D02*
Y268730D01*
X68099Y282824D02*
X83847D01*
X75973Y274951D02*
Y290699D01*
X1633200Y48400D02*
X1645200D01*
X1639200Y42400D02*
Y54400D01*
X1691350Y48400D02*
X1707050D01*
X1699200Y40550D02*
Y56250D01*
X1691350Y142400D02*
X1707050D01*
X1699200Y134550D02*
Y150250D01*
X1633200Y142400D02*
X1645200D01*
X1639200Y136400D02*
Y148400D01*
X1633200Y198400D02*
X1645200D01*
X1639200Y192400D02*
Y204400D01*
X1691350Y198400D02*
X1707050D01*
X1699200Y190550D02*
Y206250D01*
X1691350Y292400D02*
X1707050D01*
X1699200Y284550D02*
Y300250D01*
X1633200Y292400D02*
X1645200D01*
X1639200Y286400D02*
Y298400D01*
X1429200Y83300D02*
X1441200D01*
X1435200Y77300D02*
Y89300D01*
X1427350Y23300D02*
X1443050D01*
X1435200Y15450D02*
Y31150D01*
X1521350Y23300D02*
X1537050D01*
X1529200Y15450D02*
Y31150D01*
X1523200Y83300D02*
X1535200D01*
X1529200Y77300D02*
Y89300D01*
X726500Y83200D02*
X738500D01*
X732500Y77200D02*
Y89200D01*
X724650Y23200D02*
X740350D01*
X732500Y15350D02*
Y31050D01*
X330650Y23200D02*
X346350D01*
X338500Y15350D02*
Y31050D01*
X332500Y83200D02*
X344500D01*
X338500Y77200D02*
Y89200D01*
X988600Y158300D02*
X1000600D01*
X994600Y152300D02*
Y164300D01*
X986750Y98300D02*
X1002450D01*
X994600Y90450D02*
Y106150D01*
X1080750Y98300D02*
X1096450D01*
X1088600Y90450D02*
Y106150D01*
X1082600Y158300D02*
X1094600D01*
X1088600Y152300D02*
Y164300D01*
X1007300Y233300D02*
X1019300D01*
X1013300Y227300D02*
Y239300D01*
X1005450Y173300D02*
X1021150D01*
X1013300Y165450D02*
Y181150D01*
X1099450Y173300D02*
X1115150D01*
X1107300Y165450D02*
Y181150D01*
X1101300Y233300D02*
X1113300D01*
X1107300Y227300D02*
Y239300D01*
X1016700Y383300D02*
X1028700D01*
X1022700Y377300D02*
Y389300D01*
X1014850Y323300D02*
X1030550D01*
X1022700Y315450D02*
Y331150D01*
X1108850Y323300D02*
X1124550D01*
X1116700Y315450D02*
Y331150D01*
X1110700Y383300D02*
X1122700D01*
X1116700Y377300D02*
Y389300D01*
X51000Y158300D02*
X63000D01*
X57000Y152300D02*
Y164300D01*
X49150Y98300D02*
X64850D01*
X57000Y90450D02*
Y106150D01*
X143150Y98300D02*
X158850D01*
X151000Y90450D02*
Y106150D01*
X145000Y158300D02*
X157000D01*
X151000Y152300D02*
Y164300D01*
X1664676Y438770D02*
X1667476D01*
X1666076Y437370D02*
Y440170D01*
X1619500Y496600D02*
X1622300D01*
X1620900Y495200D02*
Y498000D01*
X1619500Y488100D02*
X1622300D01*
X1620900Y486700D02*
Y489500D01*
X1619200Y521600D02*
X1622000D01*
X1620600Y520200D02*
Y523000D01*
X1619200Y504700D02*
X1622000D01*
X1620600Y503300D02*
Y506100D01*
X1619200Y513200D02*
X1622000D01*
X1620600Y511800D02*
Y514600D01*
X1619200Y530000D02*
X1622000D01*
X1620600Y528600D02*
Y531400D01*
M02*
