G04*
G04 #@! TF.GenerationSoftware,Altium Limited,Altium Designer,20.2.6 (244)*
G04*
G04 Layer_Color=16711935*
%FSLAX25Y25*%
%MOIN*%
G70*
G04*
G04 #@! TF.SameCoordinates,CFAAA4C9-4C41-4F38-B22A-D29D1F60BAB1*
G04*
G04*
G04 #@! TF.FilePolarity,Negative*
G04*
G01*
G75*
%ADD14C,0.24422*%
%ADD15C,0.08280*%
%ADD16C,0.12611*%
%ADD17C,0.16548*%
%ADD18C,0.00800*%
%ADD19C,0.04800*%
%ADD20C,0.05800*%
%ADD39R,0.03950X0.04599*%
%ADD40R,0.07887X0.04146*%
%ADD41R,0.08280X0.10643*%
%ADD42R,0.08280X0.10642*%
%ADD43R,0.04146X0.07887*%
%ADD44R,0.10643X0.08280*%
%ADD45R,0.10642X0.08280*%
%ADD46R,0.09461X0.07887*%
%ADD47R,0.05918X0.01981*%
%ADD48R,0.03800X0.03800*%
%ADD49R,0.03800X0.03800*%
G36*
X279183Y18375D02*
X278256D01*
Y19433D01*
X279183D01*
Y18375D01*
D02*
G37*
G36*
X80595Y18375D02*
X79668D01*
Y19433D01*
X80595D01*
Y18375D01*
D02*
G37*
G36*
X69435D02*
X68508D01*
Y19433D01*
X69435D01*
Y18375D01*
D02*
G37*
G36*
X208097Y11864D02*
X207236D01*
Y12545D01*
X207129Y12406D01*
X207014Y12283D01*
X206891Y12176D01*
X206768Y12078D01*
X206637Y12004D01*
X206514Y11938D01*
X206391Y11881D01*
X206268Y11840D01*
X206161Y11807D01*
X206055Y11783D01*
X205957Y11766D01*
X205874Y11758D01*
X205809Y11750D01*
X205760Y11742D01*
X205719D01*
X205538Y11750D01*
X205366Y11774D01*
X205202Y11815D01*
X205046Y11864D01*
X204899Y11922D01*
X204759Y11979D01*
X204636Y12053D01*
X204513Y12127D01*
X204415Y12192D01*
X204316Y12266D01*
X204235Y12324D01*
X204169Y12389D01*
X204120Y12430D01*
X204079Y12471D01*
X204054Y12496D01*
X204046Y12504D01*
X203923Y12660D01*
X203816Y12816D01*
X203718Y12988D01*
X203636Y13168D01*
X203570Y13349D01*
X203513Y13537D01*
X203464Y13710D01*
X203431Y13882D01*
X203398Y14046D01*
X203382Y14201D01*
X203365Y14333D01*
X203349Y14456D01*
Y14554D01*
X203341Y14620D01*
Y14669D01*
Y14685D01*
X203349Y14907D01*
X203365Y15112D01*
X203398Y15300D01*
X203423Y15464D01*
X203439Y15538D01*
X203455Y15604D01*
X203472Y15661D01*
X203488Y15710D01*
X203497Y15751D01*
X203505Y15776D01*
X203513Y15792D01*
Y15800D01*
X203578Y15989D01*
X203652Y16161D01*
X203726Y16317D01*
X203800Y16448D01*
X203874Y16547D01*
X203923Y16629D01*
X203956Y16678D01*
X203972Y16694D01*
X204087Y16826D01*
X204210Y16940D01*
X204333Y17039D01*
X204448Y17121D01*
X204554Y17186D01*
X204636Y17227D01*
X204669Y17244D01*
X204694Y17260D01*
X204702Y17268D01*
X204710D01*
X204882Y17334D01*
X205046Y17383D01*
X205210Y17424D01*
X205358Y17449D01*
X205481Y17465D01*
X205538D01*
X205579Y17473D01*
X205669D01*
X205834Y17465D01*
X205997Y17440D01*
X206145Y17408D01*
X206293Y17358D01*
X206424Y17301D01*
X206547Y17244D01*
X206662Y17170D01*
X206760Y17104D01*
X206858Y17039D01*
X206941Y16973D01*
X207006Y16907D01*
X207064Y16850D01*
X207113Y16801D01*
X207146Y16768D01*
X207162Y16744D01*
X207170Y16735D01*
Y19433D01*
X208097D01*
Y11864D01*
D02*
G37*
G36*
X185178D02*
X184317D01*
Y12545D01*
X184210Y12406D01*
X184095Y12283D01*
X183972Y12176D01*
X183849Y12078D01*
X183718Y12004D01*
X183595Y11938D01*
X183472Y11881D01*
X183349Y11840D01*
X183242Y11807D01*
X183136Y11783D01*
X183037Y11766D01*
X182956Y11758D01*
X182890Y11750D01*
X182841Y11742D01*
X182800D01*
X182619Y11750D01*
X182447Y11774D01*
X182283Y11815D01*
X182127Y11864D01*
X181980Y11922D01*
X181840Y11979D01*
X181717Y12053D01*
X181594Y12127D01*
X181496Y12192D01*
X181397Y12266D01*
X181316Y12324D01*
X181250Y12389D01*
X181201Y12430D01*
X181160Y12471D01*
X181135Y12496D01*
X181127Y12504D01*
X181004Y12660D01*
X180897Y12816D01*
X180799Y12988D01*
X180717Y13168D01*
X180651Y13349D01*
X180594Y13537D01*
X180545Y13710D01*
X180512Y13882D01*
X180479Y14046D01*
X180463Y14201D01*
X180446Y14333D01*
X180430Y14456D01*
Y14554D01*
X180422Y14620D01*
Y14669D01*
Y14685D01*
X180430Y14907D01*
X180446Y15112D01*
X180479Y15300D01*
X180504Y15464D01*
X180520Y15538D01*
X180536Y15604D01*
X180553Y15661D01*
X180569Y15710D01*
X180578Y15751D01*
X180586Y15776D01*
X180594Y15792D01*
Y15800D01*
X180659Y15989D01*
X180733Y16161D01*
X180807Y16317D01*
X180881Y16448D01*
X180955Y16547D01*
X181004Y16629D01*
X181037Y16678D01*
X181053Y16694D01*
X181168Y16826D01*
X181291Y16940D01*
X181414Y17039D01*
X181529Y17121D01*
X181635Y17186D01*
X181717Y17227D01*
X181750Y17244D01*
X181775Y17260D01*
X181783Y17268D01*
X181791D01*
X181963Y17334D01*
X182127Y17383D01*
X182291Y17424D01*
X182439Y17449D01*
X182562Y17465D01*
X182619D01*
X182660Y17473D01*
X182750D01*
X182914Y17465D01*
X183079Y17440D01*
X183226Y17408D01*
X183374Y17358D01*
X183505Y17301D01*
X183628Y17244D01*
X183743Y17170D01*
X183841Y17104D01*
X183940Y17039D01*
X184021Y16973D01*
X184087Y16907D01*
X184144Y16850D01*
X184194Y16801D01*
X184227Y16768D01*
X184243Y16744D01*
X184251Y16735D01*
Y19433D01*
X185178D01*
Y11864D01*
D02*
G37*
G36*
X27721Y11864D02*
X26795D01*
Y14857D01*
X26787Y15087D01*
X26770Y15292D01*
X26746Y15464D01*
X26721Y15604D01*
X26696Y15718D01*
X26672Y15800D01*
X26664Y15825D01*
X26655Y15850D01*
X26647Y15866D01*
X26581Y15997D01*
X26500Y16112D01*
X26417Y16210D01*
X26327Y16292D01*
X26254Y16358D01*
X26188Y16407D01*
X26147Y16440D01*
X26131Y16448D01*
X25991Y16522D01*
X25852Y16579D01*
X25721Y16612D01*
X25606Y16645D01*
X25499Y16661D01*
X25417Y16670D01*
X25352D01*
X25155Y16653D01*
X24983Y16620D01*
X24843Y16571D01*
X24720Y16514D01*
X24622Y16448D01*
X24556Y16399D01*
X24515Y16366D01*
X24499Y16350D01*
X24441Y16284D01*
X24400Y16219D01*
X24327Y16055D01*
X24269Y15891D01*
X24236Y15718D01*
X24212Y15571D01*
X24204Y15505D01*
Y15448D01*
X24195Y15399D01*
Y15366D01*
Y15341D01*
Y15333D01*
Y11864D01*
X23269D01*
Y15333D01*
Y15481D01*
X23277Y15620D01*
X23285Y15751D01*
X23302Y15866D01*
X23318Y15981D01*
X23334Y16079D01*
X23351Y16169D01*
X23367Y16251D01*
X23383Y16325D01*
X23400Y16391D01*
X23416Y16440D01*
X23433Y16489D01*
X23449Y16522D01*
X23457Y16547D01*
X23465Y16555D01*
Y16563D01*
X23548Y16711D01*
X23646Y16850D01*
X23761Y16965D01*
X23859Y17055D01*
X23957Y17129D01*
X24039Y17186D01*
X24072Y17203D01*
X24097Y17219D01*
X24105Y17227D01*
X24113D01*
X24285Y17309D01*
X24466Y17367D01*
X24638Y17416D01*
X24802Y17440D01*
X24950Y17457D01*
X25007Y17465D01*
X25065Y17473D01*
X25163D01*
X25343Y17465D01*
X25515Y17440D01*
X25679Y17399D01*
X25835Y17358D01*
X25975Y17293D01*
X26114Y17235D01*
X26237Y17162D01*
X26344Y17096D01*
X26450Y17022D01*
X26540Y16948D01*
X26614Y16891D01*
X26680Y16834D01*
X26729Y16784D01*
X26762Y16743D01*
X26787Y16719D01*
X26795Y16711D01*
Y19433D01*
X27721D01*
Y11864D01*
D02*
G37*
G36*
X275099Y17457D02*
X275337Y17416D01*
X275550Y17358D01*
X275648Y17326D01*
X275739Y17293D01*
X275820Y17252D01*
X275886Y17219D01*
X275952Y17186D01*
X276001Y17162D01*
X276042Y17137D01*
X276075Y17121D01*
X276091Y17112D01*
X276099Y17104D01*
X276288Y16957D01*
X276460Y16793D01*
X276600Y16621D01*
X276714Y16456D01*
X276804Y16309D01*
X276846Y16243D01*
X276870Y16186D01*
X276895Y16145D01*
X276911Y16112D01*
X276927Y16087D01*
Y16079D01*
X277018Y15825D01*
X277092Y15571D01*
X277141Y15333D01*
X277173Y15112D01*
X277182Y15005D01*
X277190Y14915D01*
X277198Y14841D01*
Y14767D01*
X277206Y14710D01*
Y14669D01*
Y14644D01*
Y14636D01*
X277198Y14423D01*
X277182Y14226D01*
X277149Y14029D01*
X277108Y13849D01*
X277067Y13677D01*
X277010Y13513D01*
X276952Y13365D01*
X276895Y13226D01*
X276837Y13103D01*
X276788Y12996D01*
X276731Y12898D01*
X276690Y12824D01*
X276649Y12758D01*
X276616Y12717D01*
X276600Y12685D01*
X276591Y12676D01*
X276468Y12537D01*
X276337Y12406D01*
X276198Y12299D01*
X276050Y12209D01*
X275911Y12127D01*
X275763Y12061D01*
X275616Y12012D01*
X275476Y11963D01*
X275345Y11930D01*
X275230Y11906D01*
X275115Y11889D01*
X275025Y11881D01*
X274943Y11873D01*
X274886Y11864D01*
X274836D01*
X274673Y11873D01*
X274509Y11897D01*
X274361Y11930D01*
X274221Y11979D01*
X274082Y12028D01*
X273959Y12094D01*
X273844Y12151D01*
X273738Y12225D01*
X273647Y12291D01*
X273557Y12357D01*
X273492Y12414D01*
X273426Y12463D01*
X273385Y12512D01*
X273344Y12545D01*
X273328Y12570D01*
X273320Y12578D01*
Y12414D01*
Y12266D01*
X273328Y12135D01*
Y12012D01*
X273336Y11906D01*
Y11807D01*
X273344Y11725D01*
X273352Y11651D01*
X273360Y11586D01*
Y11536D01*
X273369Y11487D01*
X273377Y11455D01*
Y11430D01*
X273385Y11413D01*
Y11397D01*
X273443Y11233D01*
X273516Y11085D01*
X273598Y10962D01*
X273672Y10864D01*
X273754Y10782D01*
X273812Y10725D01*
X273852Y10684D01*
X273861Y10676D01*
X273869D01*
X274008Y10585D01*
X274172Y10528D01*
X274336Y10479D01*
X274492Y10446D01*
X274640Y10430D01*
X274697Y10421D01*
X274755D01*
X274796Y10413D01*
X274861D01*
X275074Y10421D01*
X275263Y10454D01*
X275419Y10495D01*
X275558Y10544D01*
X275665Y10593D01*
X275739Y10634D01*
X275788Y10667D01*
X275804Y10676D01*
X275894Y10757D01*
X275960Y10856D01*
X276017Y10954D01*
X276058Y11061D01*
X276083Y11151D01*
X276099Y11225D01*
X276116Y11274D01*
Y11282D01*
Y11291D01*
X277018Y11413D01*
Y11249D01*
X277001Y11102D01*
X276977Y10962D01*
X276936Y10831D01*
X276895Y10717D01*
X276846Y10602D01*
X276796Y10503D01*
X276739Y10421D01*
X276681Y10339D01*
X276632Y10274D01*
X276583Y10216D01*
X276534Y10167D01*
X276501Y10134D01*
X276468Y10110D01*
X276452Y10093D01*
X276444Y10085D01*
X276329Y10011D01*
X276198Y9938D01*
X276075Y9880D01*
X275935Y9831D01*
X275673Y9749D01*
X275419Y9700D01*
X275304Y9683D01*
X275197Y9667D01*
X275099Y9659D01*
X275017Y9651D01*
X274951Y9642D01*
X274853D01*
X274558Y9659D01*
X274287Y9691D01*
X274164Y9716D01*
X274058Y9741D01*
X273951Y9765D01*
X273852Y9798D01*
X273762Y9831D01*
X273689Y9855D01*
X273623Y9880D01*
X273566Y9905D01*
X273524Y9929D01*
X273492Y9938D01*
X273475Y9954D01*
X273467D01*
X273270Y10077D01*
X273098Y10216D01*
X272959Y10356D01*
X272844Y10495D01*
X272754Y10610D01*
X272688Y10708D01*
X272663Y10749D01*
X272647Y10774D01*
X272639Y10790D01*
Y10798D01*
X272590Y10905D01*
X272549Y11028D01*
X272516Y11168D01*
X272483Y11307D01*
X272442Y11610D01*
X272409Y11906D01*
X272401Y12045D01*
X272393Y12176D01*
X272385Y12299D01*
X272376Y12406D01*
Y12488D01*
Y12553D01*
Y12594D01*
Y12611D01*
Y17350D01*
X273229D01*
Y16678D01*
X273352Y16817D01*
X273475Y16940D01*
X273615Y17047D01*
X273746Y17137D01*
X273885Y17219D01*
X274016Y17277D01*
X274148Y17334D01*
X274271Y17375D01*
X274385Y17408D01*
X274492Y17432D01*
X274590Y17449D01*
X274673Y17465D01*
X274738D01*
X274796Y17473D01*
X274968D01*
X275099Y17457D01*
D02*
G37*
G36*
X37143Y17457D02*
X37381Y17416D01*
X37594Y17358D01*
X37692Y17326D01*
X37783Y17293D01*
X37865Y17252D01*
X37930Y17219D01*
X37996Y17186D01*
X38045Y17162D01*
X38086Y17137D01*
X38119Y17121D01*
X38135Y17112D01*
X38144Y17104D01*
X38332Y16957D01*
X38504Y16793D01*
X38644Y16620D01*
X38759Y16456D01*
X38849Y16309D01*
X38890Y16243D01*
X38914Y16186D01*
X38939Y16145D01*
X38955Y16112D01*
X38972Y16087D01*
Y16079D01*
X39062Y15825D01*
X39136Y15571D01*
X39185Y15333D01*
X39218Y15112D01*
X39226Y15005D01*
X39234Y14915D01*
X39242Y14841D01*
Y14767D01*
X39250Y14710D01*
Y14669D01*
Y14644D01*
Y14636D01*
X39242Y14423D01*
X39226Y14226D01*
X39193Y14029D01*
X39152Y13849D01*
X39111Y13677D01*
X39054Y13513D01*
X38996Y13365D01*
X38939Y13226D01*
X38881Y13103D01*
X38832Y12996D01*
X38775Y12898D01*
X38734Y12824D01*
X38693Y12758D01*
X38660Y12717D01*
X38644Y12684D01*
X38636Y12676D01*
X38513Y12537D01*
X38381Y12406D01*
X38242Y12299D01*
X38094Y12209D01*
X37955Y12127D01*
X37807Y12061D01*
X37660Y12012D01*
X37520Y11963D01*
X37389Y11930D01*
X37274Y11905D01*
X37159Y11889D01*
X37069Y11881D01*
X36987Y11873D01*
X36930Y11864D01*
X36881D01*
X36717Y11873D01*
X36553Y11897D01*
X36405Y11930D01*
X36266Y11979D01*
X36126Y12028D01*
X36003Y12094D01*
X35888Y12151D01*
X35782Y12225D01*
X35692Y12291D01*
X35601Y12356D01*
X35536Y12414D01*
X35470Y12463D01*
X35429Y12512D01*
X35388Y12545D01*
X35372Y12570D01*
X35364Y12578D01*
Y12414D01*
Y12266D01*
X35372Y12135D01*
Y12012D01*
X35380Y11905D01*
Y11807D01*
X35388Y11725D01*
X35397Y11651D01*
X35405Y11586D01*
Y11536D01*
X35413Y11487D01*
X35421Y11454D01*
Y11430D01*
X35429Y11413D01*
Y11397D01*
X35487Y11233D01*
X35561Y11085D01*
X35642Y10962D01*
X35716Y10864D01*
X35798Y10782D01*
X35856Y10725D01*
X35897Y10684D01*
X35905Y10675D01*
X35913D01*
X36053Y10585D01*
X36217Y10528D01*
X36380Y10479D01*
X36536Y10446D01*
X36684Y10429D01*
X36741Y10421D01*
X36799D01*
X36840Y10413D01*
X36905D01*
X37119Y10421D01*
X37307Y10454D01*
X37463Y10495D01*
X37602Y10544D01*
X37709Y10593D01*
X37783Y10634D01*
X37832Y10667D01*
X37848Y10675D01*
X37938Y10757D01*
X38004Y10856D01*
X38061Y10954D01*
X38102Y11061D01*
X38127Y11151D01*
X38144Y11225D01*
X38160Y11274D01*
Y11282D01*
Y11290D01*
X39062Y11413D01*
Y11249D01*
X39046Y11102D01*
X39021Y10962D01*
X38980Y10831D01*
X38939Y10716D01*
X38890Y10602D01*
X38840Y10503D01*
X38783Y10421D01*
X38726Y10339D01*
X38677Y10274D01*
X38627Y10216D01*
X38578Y10167D01*
X38545Y10134D01*
X38513Y10110D01*
X38496Y10093D01*
X38488Y10085D01*
X38373Y10011D01*
X38242Y9937D01*
X38119Y9880D01*
X37980Y9831D01*
X37717Y9749D01*
X37463Y9700D01*
X37348Y9683D01*
X37242Y9667D01*
X37143Y9659D01*
X37061Y9650D01*
X36996Y9642D01*
X36897D01*
X36602Y9659D01*
X36331Y9691D01*
X36208Y9716D01*
X36102Y9741D01*
X35995Y9765D01*
X35897Y9798D01*
X35807Y9831D01*
X35733Y9855D01*
X35667Y9880D01*
X35610Y9905D01*
X35569Y9929D01*
X35536Y9937D01*
X35519Y9954D01*
X35511D01*
X35315Y10077D01*
X35142Y10216D01*
X35003Y10356D01*
X34888Y10495D01*
X34798Y10610D01*
X34732Y10708D01*
X34708Y10749D01*
X34691Y10774D01*
X34683Y10790D01*
Y10798D01*
X34634Y10905D01*
X34593Y11028D01*
X34560Y11167D01*
X34527Y11307D01*
X34486Y11610D01*
X34453Y11905D01*
X34445Y12045D01*
X34437Y12176D01*
X34429Y12299D01*
X34421Y12406D01*
Y12488D01*
Y12553D01*
Y12594D01*
Y12611D01*
Y17350D01*
X35274D01*
Y16678D01*
X35397Y16817D01*
X35519Y16940D01*
X35659Y17047D01*
X35790Y17137D01*
X35930Y17219D01*
X36061Y17276D01*
X36192Y17334D01*
X36315Y17375D01*
X36430Y17408D01*
X36536Y17432D01*
X36635Y17449D01*
X36717Y17465D01*
X36782D01*
X36840Y17473D01*
X37012D01*
X37143Y17457D01*
D02*
G37*
G36*
X33297Y16588D02*
X30895D01*
X30714Y16596D01*
X30542D01*
X30378Y16604D01*
X30239Y16612D01*
X30124D01*
X30083Y16620D01*
X30026D01*
X33502Y12619D01*
Y11864D01*
X28648D01*
Y12668D01*
X31395D01*
X31608Y12660D01*
X31805Y12652D01*
X31985Y12643D01*
X32067Y12635D01*
X32141Y12627D01*
X32207D01*
X32264Y12619D01*
X32305D01*
X32346Y12611D01*
X32371D01*
X31789Y13250D01*
X28812Y16727D01*
Y17350D01*
X33297D01*
Y16588D01*
D02*
G37*
G36*
X214608Y17465D02*
X214796Y17432D01*
X214960Y17400D01*
X215108Y17350D01*
X215223Y17309D01*
X215272Y17285D01*
X215313Y17268D01*
X215346Y17252D01*
X215370Y17235D01*
X215378Y17227D01*
X215387D01*
X215542Y17129D01*
X215673Y17022D01*
X215788Y16916D01*
X215887Y16809D01*
X215969Y16719D01*
X216026Y16645D01*
X216059Y16596D01*
X216075Y16588D01*
Y17350D01*
X216903D01*
Y11864D01*
X215977D01*
Y14710D01*
Y14849D01*
X215969Y14972D01*
X215961Y15095D01*
X215952Y15202D01*
X215944Y15308D01*
X215928Y15399D01*
X215919Y15481D01*
X215903Y15563D01*
X215887Y15628D01*
X215879Y15686D01*
X215862Y15735D01*
X215854Y15776D01*
X215846Y15809D01*
X215838Y15833D01*
X215829Y15842D01*
Y15850D01*
X215764Y15989D01*
X215690Y16112D01*
X215608Y16219D01*
X215526Y16301D01*
X215460Y16375D01*
X215403Y16416D01*
X215362Y16448D01*
X215346Y16456D01*
X215214Y16530D01*
X215091Y16579D01*
X214968Y16621D01*
X214854Y16645D01*
X214755Y16661D01*
X214681Y16670D01*
X214616D01*
X214435Y16653D01*
X214280Y16621D01*
X214157Y16571D01*
X214050Y16514D01*
X213976Y16456D01*
X213919Y16407D01*
X213886Y16375D01*
X213878Y16358D01*
X213804Y16227D01*
X213747Y16079D01*
X213705Y15924D01*
X213673Y15776D01*
X213656Y15637D01*
Y15579D01*
X213648Y15530D01*
Y15481D01*
Y15448D01*
Y15431D01*
Y15423D01*
Y11864D01*
X212721D01*
Y15046D01*
X212713Y15202D01*
X212705Y15341D01*
X212689Y15481D01*
X212664Y15604D01*
X212631Y15710D01*
X212598Y15817D01*
X212566Y15907D01*
X212525Y15989D01*
X212492Y16055D01*
X212459Y16120D01*
X212426Y16170D01*
X212393Y16210D01*
X212369Y16243D01*
X212352Y16268D01*
X212336Y16276D01*
Y16284D01*
X212262Y16350D01*
X212180Y16416D01*
X212024Y16506D01*
X211860Y16579D01*
X211705Y16621D01*
X211574Y16653D01*
X211516Y16661D01*
X211467D01*
X211426Y16670D01*
X211368D01*
X211254Y16661D01*
X211147Y16645D01*
X211049Y16621D01*
X210967Y16596D01*
X210901Y16563D01*
X210852Y16538D01*
X210819Y16522D01*
X210811Y16514D01*
X210729Y16456D01*
X210655Y16391D01*
X210606Y16325D01*
X210557Y16260D01*
X210524Y16202D01*
X210499Y16161D01*
X210483Y16128D01*
Y16120D01*
X210450Y16014D01*
X210434Y15891D01*
X210417Y15759D01*
X210401Y15628D01*
Y15505D01*
X210393Y15407D01*
Y15374D01*
Y15341D01*
Y15325D01*
Y15317D01*
Y11864D01*
X209466D01*
Y15628D01*
X209474Y15800D01*
X209483Y15956D01*
X209507Y16104D01*
X209532Y16243D01*
X209564Y16366D01*
X209606Y16481D01*
X209647Y16579D01*
X209687Y16670D01*
X209729Y16752D01*
X209770Y16826D01*
X209802Y16883D01*
X209843Y16932D01*
X209868Y16965D01*
X209893Y16989D01*
X209901Y17006D01*
X209909Y17014D01*
X209991Y17096D01*
X210089Y17170D01*
X210188Y17227D01*
X210286Y17277D01*
X210499Y17358D01*
X210696Y17416D01*
X210794Y17432D01*
X210885Y17449D01*
X210959Y17457D01*
X211032Y17465D01*
X211082Y17473D01*
X211163D01*
X211352Y17465D01*
X211532Y17432D01*
X211705Y17383D01*
X211869Y17326D01*
X212016Y17252D01*
X212156Y17170D01*
X212287Y17080D01*
X212402Y16998D01*
X212508Y16907D01*
X212598Y16817D01*
X212681Y16735D01*
X212738Y16661D01*
X212795Y16604D01*
X212828Y16555D01*
X212853Y16522D01*
X212861Y16514D01*
X212935Y16678D01*
X213017Y16817D01*
X213107Y16932D01*
X213197Y17039D01*
X213287Y17112D01*
X213353Y17170D01*
X213402Y17211D01*
X213410Y17219D01*
X213419D01*
X213574Y17301D01*
X213738Y17367D01*
X213902Y17408D01*
X214058Y17440D01*
X214197Y17457D01*
X214255Y17465D01*
X214312Y17473D01*
X214411D01*
X214608Y17465D01*
D02*
G37*
G36*
X58127Y11864D02*
X57126D01*
Y15431D01*
X53199D01*
Y11864D01*
X52198D01*
Y19433D01*
X53199D01*
Y16325D01*
X57126D01*
Y19433D01*
X58127D01*
Y11864D01*
D02*
G37*
G36*
X48582Y17465D02*
X48820Y17440D01*
X49033Y17408D01*
X49132Y17391D01*
X49213Y17375D01*
X49295Y17358D01*
X49369Y17342D01*
X49427Y17326D01*
X49476Y17309D01*
X49517Y17293D01*
X49550Y17285D01*
X49566Y17276D01*
X49574D01*
X49763Y17194D01*
X49927Y17104D01*
X50066Y17014D01*
X50181Y16924D01*
X50271Y16842D01*
X50337Y16776D01*
X50378Y16735D01*
X50394Y16727D01*
Y16719D01*
X50493Y16579D01*
X50575Y16424D01*
X50640Y16268D01*
X50698Y16120D01*
X50739Y15989D01*
X50755Y15932D01*
X50771Y15882D01*
X50780Y15841D01*
X50788Y15809D01*
X50796Y15792D01*
Y15784D01*
X49886Y15661D01*
X49853Y15768D01*
X49820Y15866D01*
X49755Y16030D01*
X49673Y16178D01*
X49599Y16284D01*
X49533Y16366D01*
X49476Y16432D01*
X49443Y16465D01*
X49427Y16473D01*
X49295Y16547D01*
X49140Y16604D01*
X48984Y16645D01*
X48828Y16678D01*
X48680Y16694D01*
X48623D01*
X48566Y16702D01*
X48459D01*
X48213Y16686D01*
X48000Y16653D01*
X47820Y16604D01*
X47672Y16547D01*
X47557Y16481D01*
X47516Y16456D01*
X47475Y16432D01*
X47442Y16415D01*
X47426Y16399D01*
X47409Y16383D01*
X47319Y16284D01*
X47254Y16161D01*
X47205Y16030D01*
X47172Y15899D01*
X47155Y15776D01*
X47139Y15677D01*
Y15645D01*
Y15612D01*
Y15595D01*
Y15587D01*
Y15563D01*
Y15530D01*
Y15448D01*
X47147Y15415D01*
Y15382D01*
Y15358D01*
Y15349D01*
X47254Y15317D01*
X47368Y15284D01*
X47500Y15251D01*
X47631Y15218D01*
X47901Y15161D01*
X48172Y15112D01*
X48303Y15095D01*
X48418Y15079D01*
X48525Y15062D01*
X48623Y15046D01*
X48697Y15038D01*
X48754Y15030D01*
X48787Y15021D01*
X48803D01*
X49000Y14997D01*
X49164Y14972D01*
X49312Y14948D01*
X49427Y14931D01*
X49517Y14907D01*
X49582Y14898D01*
X49615Y14882D01*
X49632D01*
X49763Y14841D01*
X49894Y14792D01*
X50009Y14743D01*
X50107Y14693D01*
X50189Y14652D01*
X50247Y14611D01*
X50288Y14587D01*
X50304Y14579D01*
X50411Y14497D01*
X50501Y14415D01*
X50583Y14324D01*
X50648Y14242D01*
X50706Y14160D01*
X50747Y14103D01*
X50771Y14062D01*
X50780Y14046D01*
X50837Y13914D01*
X50886Y13791D01*
X50919Y13668D01*
X50936Y13554D01*
X50952Y13455D01*
X50960Y13373D01*
Y13324D01*
Y13316D01*
Y13308D01*
X50952Y13185D01*
X50936Y13062D01*
X50919Y12947D01*
X50886Y12840D01*
X50804Y12643D01*
X50714Y12488D01*
X50673Y12414D01*
X50632Y12356D01*
X50591Y12299D01*
X50550Y12258D01*
X50517Y12225D01*
X50501Y12201D01*
X50485Y12184D01*
X50476Y12176D01*
X50378Y12102D01*
X50279Y12037D01*
X50165Y11971D01*
X50058Y11922D01*
X49828Y11848D01*
X49599Y11799D01*
X49501Y11774D01*
X49402Y11766D01*
X49312Y11758D01*
X49238Y11750D01*
X49181Y11741D01*
X49090D01*
X48886Y11750D01*
X48697Y11766D01*
X48525Y11799D01*
X48369Y11832D01*
X48246Y11864D01*
X48188Y11881D01*
X48147Y11897D01*
X48115Y11905D01*
X48090Y11914D01*
X48074Y11922D01*
X48066D01*
X47885Y12004D01*
X47705Y12094D01*
X47541Y12201D01*
X47385Y12307D01*
X47254Y12397D01*
X47205Y12447D01*
X47155Y12479D01*
X47114Y12512D01*
X47090Y12537D01*
X47073Y12545D01*
X47065Y12553D01*
X47049Y12406D01*
X47024Y12274D01*
X46991Y12160D01*
X46959Y12061D01*
X46934Y11979D01*
X46909Y11914D01*
X46893Y11881D01*
X46885Y11864D01*
X45917D01*
X45974Y11979D01*
X46024Y12102D01*
X46065Y12209D01*
X46097Y12307D01*
X46122Y12397D01*
X46139Y12463D01*
X46147Y12504D01*
Y12520D01*
X46155Y12594D01*
X46163Y12693D01*
X46171Y12799D01*
X46180Y12922D01*
X46188Y13053D01*
Y13193D01*
X46196Y13472D01*
Y13603D01*
X46204Y13734D01*
Y13849D01*
Y13955D01*
Y14037D01*
Y14103D01*
Y14144D01*
Y14160D01*
Y15399D01*
Y15513D01*
Y15612D01*
X46212Y15702D01*
Y15792D01*
X46220Y15940D01*
X46229Y16055D01*
X46237Y16145D01*
X46245Y16202D01*
X46253Y16243D01*
Y16251D01*
X46286Y16391D01*
X46335Y16514D01*
X46385Y16620D01*
X46434Y16711D01*
X46475Y16784D01*
X46516Y16842D01*
X46540Y16875D01*
X46549Y16883D01*
X46639Y16973D01*
X46737Y17055D01*
X46844Y17129D01*
X46950Y17186D01*
X47049Y17235D01*
X47122Y17268D01*
X47155Y17285D01*
X47180Y17293D01*
X47188Y17301D01*
X47196D01*
X47368Y17358D01*
X47557Y17399D01*
X47746Y17432D01*
X47926Y17449D01*
X48082Y17465D01*
X48156D01*
X48213Y17473D01*
X48328D01*
X48582Y17465D01*
D02*
G37*
G36*
X247965Y19548D02*
X248105Y19532D01*
X248244Y19507D01*
X248367Y19474D01*
X248490Y19441D01*
X248597Y19392D01*
X248703Y19351D01*
X248793Y19302D01*
X248875Y19253D01*
X248949Y19212D01*
X249015Y19162D01*
X249064Y19130D01*
X249105Y19097D01*
X249138Y19072D01*
X249154Y19056D01*
X249162Y19048D01*
X249253Y18949D01*
X249335Y18851D01*
X249408Y18753D01*
X249474Y18654D01*
X249523Y18556D01*
X249564Y18457D01*
X249630Y18269D01*
X249654Y18187D01*
X249671Y18113D01*
X249679Y18039D01*
X249687Y17982D01*
X249695Y17932D01*
Y17900D01*
Y17875D01*
Y17867D01*
X249687Y17736D01*
X249671Y17613D01*
X249638Y17490D01*
X249605Y17383D01*
X249581Y17285D01*
X249548Y17219D01*
X249531Y17170D01*
X249523Y17162D01*
Y17154D01*
X249441Y17006D01*
X249343Y16850D01*
X249228Y16694D01*
X249113Y16547D01*
X249007Y16407D01*
X248957Y16350D01*
X248916Y16301D01*
X248884Y16260D01*
X248859Y16227D01*
X248843Y16210D01*
X248834Y16202D01*
X248998Y16120D01*
X249154Y16038D01*
X249293Y15956D01*
X249425Y15866D01*
X249548Y15784D01*
X249662Y15702D01*
X249761Y15620D01*
X249851Y15546D01*
X249925Y15473D01*
X249999Y15415D01*
X250056Y15358D01*
X250105Y15308D01*
X250138Y15268D01*
X250163Y15235D01*
X250179Y15218D01*
X250187Y15210D01*
X250269Y15103D01*
X250335Y14997D01*
X250392Y14890D01*
X250450Y14775D01*
X250532Y14562D01*
X250581Y14374D01*
X250597Y14284D01*
X250614Y14201D01*
X250622Y14128D01*
X250630Y14070D01*
X250638Y14013D01*
Y13980D01*
Y13956D01*
Y13947D01*
X250630Y13800D01*
X250614Y13660D01*
X250589Y13521D01*
X250548Y13390D01*
X250466Y13152D01*
X250417Y13037D01*
X250360Y12939D01*
X250310Y12848D01*
X250261Y12766D01*
X250220Y12693D01*
X250171Y12635D01*
X250138Y12586D01*
X250114Y12553D01*
X250097Y12529D01*
X250089Y12520D01*
X249958Y12381D01*
X249810Y12266D01*
X249662Y12160D01*
X249515Y12070D01*
X249359Y11996D01*
X249203Y11930D01*
X249056Y11881D01*
X248908Y11840D01*
X248777Y11807D01*
X248646Y11783D01*
X248531Y11766D01*
X248432Y11758D01*
X248359Y11750D01*
X248293Y11742D01*
X248244D01*
X248014Y11750D01*
X247793Y11783D01*
X247596Y11823D01*
X247424Y11864D01*
X247342Y11889D01*
X247276Y11914D01*
X247219Y11930D01*
X247162Y11947D01*
X247129Y11963D01*
X247096Y11979D01*
X247079Y11987D01*
X247071D01*
X246874Y12094D01*
X246686Y12217D01*
X246514Y12340D01*
X246366Y12463D01*
X246243Y12578D01*
X246194Y12627D01*
X246153Y12668D01*
X246120Y12701D01*
X246095Y12725D01*
X246079Y12742D01*
X246071Y12750D01*
X245956Y12619D01*
X245849Y12504D01*
X245743Y12389D01*
X245636Y12291D01*
X245538Y12192D01*
X245440Y12102D01*
X245349Y12028D01*
X245267Y11955D01*
X245185Y11897D01*
X245120Y11840D01*
X245054Y11799D01*
X245005Y11758D01*
X244964Y11733D01*
X244931Y11709D01*
X244915Y11700D01*
X244906Y11692D01*
X244283Y12430D01*
X244521Y12611D01*
X244751Y12808D01*
X244948Y13004D01*
X245128Y13185D01*
X245202Y13275D01*
X245267Y13349D01*
X245333Y13422D01*
X245382Y13480D01*
X245423Y13529D01*
X245448Y13562D01*
X245464Y13587D01*
X245472Y13595D01*
X245390Y13718D01*
X245317Y13849D01*
X245185Y14111D01*
X245071Y14390D01*
X244972Y14644D01*
X244931Y14759D01*
X244898Y14874D01*
X244865Y14972D01*
X244841Y15054D01*
X244816Y15120D01*
X244800Y15177D01*
X244792Y15210D01*
Y15218D01*
X245759Y15423D01*
X245809Y15210D01*
X245874Y15005D01*
X245932Y14825D01*
X245989Y14669D01*
X246038Y14546D01*
X246063Y14489D01*
X246079Y14447D01*
X246095Y14415D01*
X246112Y14390D01*
X246120Y14374D01*
Y14366D01*
X247490Y16087D01*
X247358Y16161D01*
X247235Y16235D01*
X247014Y16391D01*
X246817Y16547D01*
X246653Y16702D01*
X246514Y16858D01*
X246399Y17014D01*
X246301Y17162D01*
X246227Y17301D01*
X246169Y17432D01*
X246120Y17555D01*
X246087Y17662D01*
X246071Y17752D01*
X246055Y17826D01*
X246046Y17883D01*
Y17924D01*
Y17932D01*
X246055Y18056D01*
X246071Y18179D01*
X246095Y18285D01*
X246120Y18400D01*
X246202Y18588D01*
X246292Y18761D01*
X246341Y18835D01*
X246391Y18892D01*
X246432Y18949D01*
X246464Y18999D01*
X246497Y19031D01*
X246522Y19056D01*
X246538Y19072D01*
X246547Y19081D01*
X246645Y19162D01*
X246743Y19236D01*
X246850Y19302D01*
X246948Y19359D01*
X247063Y19400D01*
X247162Y19441D01*
X247366Y19499D01*
X247457Y19515D01*
X247547Y19532D01*
X247621Y19540D01*
X247686Y19548D01*
X247744Y19556D01*
X247817D01*
X247965Y19548D01*
D02*
G37*
G36*
X153919Y11864D02*
X152960D01*
Y17801D01*
X148991Y11864D01*
X147958D01*
Y19433D01*
X148917D01*
Y13488D01*
X152894Y19433D01*
X153919D01*
Y11864D01*
D02*
G37*
G36*
X136921D02*
X135953D01*
Y18310D01*
X133772Y11864D01*
X132870D01*
X130656Y18203D01*
Y11864D01*
X129688D01*
Y19433D01*
X131041D01*
X132862Y14169D01*
X132911Y14021D01*
X132960Y13890D01*
X133001Y13759D01*
X133042Y13644D01*
X133075Y13529D01*
X133108Y13431D01*
X133141Y13340D01*
X133165Y13258D01*
X133190Y13193D01*
X133206Y13127D01*
X133222Y13078D01*
X133239Y13029D01*
X133247Y12996D01*
X133255Y12971D01*
X133264Y12963D01*
Y12955D01*
X133288Y13029D01*
X133313Y13111D01*
X133370Y13283D01*
X133428Y13472D01*
X133485Y13652D01*
X133542Y13816D01*
X133567Y13890D01*
X133583Y13947D01*
X133600Y13996D01*
X133616Y14038D01*
X133624Y14062D01*
Y14070D01*
X135420Y19433D01*
X136921D01*
Y11864D01*
D02*
G37*
G36*
X169639Y11864D02*
X168597D01*
X167007Y17629D01*
X166965Y17768D01*
X166925Y17916D01*
X166884Y18072D01*
X166851Y18211D01*
X166818Y18326D01*
X166810Y18383D01*
X166802Y18425D01*
X166785Y18465D01*
Y18490D01*
X166777Y18507D01*
Y18515D01*
X166769Y18482D01*
X166752Y18433D01*
X166736Y18375D01*
X166719Y18310D01*
X166679Y18162D01*
X166638Y18014D01*
X166596Y17867D01*
X166580Y17801D01*
X166564Y17744D01*
X166547Y17695D01*
X166539Y17662D01*
X166531Y17637D01*
Y17629D01*
X164948Y11864D01*
X163972D01*
X161898Y19433D01*
X162907D01*
X164095Y14562D01*
X164178Y14226D01*
X164251Y13915D01*
X164284Y13775D01*
X164317Y13636D01*
X164341Y13513D01*
X164366Y13398D01*
X164391Y13291D01*
X164415Y13201D01*
X164432Y13119D01*
X164448Y13045D01*
X164456Y12996D01*
X164464Y12955D01*
X164473Y12931D01*
Y12922D01*
X164555Y13398D01*
X164645Y13865D01*
X164694Y14095D01*
X164743Y14316D01*
X164793Y14529D01*
X164842Y14726D01*
X164891Y14915D01*
X164932Y15079D01*
X164973Y15226D01*
X165006Y15349D01*
X165030Y15456D01*
X165055Y15530D01*
X165063Y15579D01*
X165071Y15596D01*
X166146Y19433D01*
X167351D01*
X168794Y14316D01*
X168810Y14267D01*
X168827Y14201D01*
X168843Y14119D01*
X168868Y14021D01*
X168901Y13906D01*
X168925Y13792D01*
X168991Y13545D01*
X169016Y13431D01*
X169048Y13316D01*
X169073Y13209D01*
X169089Y13111D01*
X169114Y13037D01*
X169122Y12971D01*
X169139Y12939D01*
Y12922D01*
X169188Y13209D01*
X169245Y13488D01*
X169294Y13742D01*
X169319Y13865D01*
X169343Y13980D01*
X169368Y14087D01*
X169393Y14177D01*
X169409Y14259D01*
X169425Y14333D01*
X169442Y14390D01*
X169450Y14431D01*
X169458Y14456D01*
Y14464D01*
X170598Y19433D01*
X171631D01*
X169639Y11864D01*
D02*
G37*
G36*
X177740Y11856D02*
X177781Y11758D01*
X177806Y11684D01*
X177822Y11643D01*
X177831Y11627D01*
X177863Y11528D01*
X177896Y11438D01*
X177929Y11356D01*
X177954Y11282D01*
X178003Y11159D01*
X178044Y11069D01*
X178068Y11004D01*
X178093Y10962D01*
X178101Y10938D01*
X178109Y10930D01*
X178208Y10807D01*
X178265Y10757D01*
X178314Y10717D01*
X178355Y10684D01*
X178388Y10659D01*
X178413Y10651D01*
X178421Y10643D01*
X178495Y10610D01*
X178577Y10585D01*
X178659Y10561D01*
X178733Y10553D01*
X178806Y10544D01*
X178864Y10536D01*
X178913D01*
X178995Y10544D01*
X179085Y10553D01*
X179175Y10569D01*
X179257Y10585D01*
X179331Y10602D01*
X179388Y10610D01*
X179421Y10626D01*
X179438D01*
X179331Y9757D01*
X179208Y9716D01*
X179102Y9691D01*
X178995Y9667D01*
X178905Y9659D01*
X178839Y9651D01*
X178782Y9642D01*
X178733D01*
X178568Y9651D01*
X178429Y9675D01*
X178298Y9716D01*
X178183Y9757D01*
X178093Y9790D01*
X178027Y9831D01*
X177986Y9855D01*
X177970Y9864D01*
X177855Y9954D01*
X177749Y10061D01*
X177650Y10167D01*
X177568Y10282D01*
X177503Y10380D01*
X177445Y10462D01*
X177429Y10495D01*
X177412Y10520D01*
X177404Y10528D01*
Y10536D01*
X177363Y10602D01*
X177330Y10684D01*
X177289Y10774D01*
X177240Y10872D01*
X177158Y11077D01*
X177068Y11282D01*
X177035Y11381D01*
X176994Y11471D01*
X176961Y11553D01*
X176937Y11627D01*
X176912Y11692D01*
X176896Y11733D01*
X176879Y11766D01*
Y11774D01*
X174796Y17350D01*
X175723D01*
X176904Y14144D01*
X176986Y13915D01*
X177060Y13693D01*
X177125Y13480D01*
X177183Y13291D01*
X177207Y13209D01*
X177224Y13136D01*
X177248Y13062D01*
X177257Y13004D01*
X177273Y12963D01*
X177281Y12931D01*
X177289Y12906D01*
Y12898D01*
X177355Y13144D01*
X177420Y13373D01*
X177494Y13595D01*
X177552Y13783D01*
X177585Y13865D01*
X177609Y13939D01*
X177634Y14005D01*
X177650Y14062D01*
X177666Y14111D01*
X177683Y14144D01*
X177691Y14161D01*
Y14169D01*
X178831Y17350D01*
X179815D01*
X177740Y11856D01*
D02*
G37*
G36*
X95142Y18703D02*
Y17350D01*
X95831D01*
Y16629D01*
X95142D01*
Y13463D01*
Y13316D01*
X95134Y13176D01*
Y13053D01*
X95125Y12939D01*
X95117Y12840D01*
X95109Y12750D01*
X95101Y12668D01*
X95084Y12602D01*
X95076Y12545D01*
X95068Y12496D01*
X95060Y12455D01*
X95051Y12422D01*
X95043Y12381D01*
X95035Y12365D01*
X94986Y12274D01*
X94928Y12192D01*
X94863Y12119D01*
X94797Y12061D01*
X94732Y12012D01*
X94683Y11979D01*
X94650Y11955D01*
X94642Y11946D01*
X94527Y11897D01*
X94404Y11856D01*
X94273Y11832D01*
X94141Y11807D01*
X94026Y11799D01*
X93936Y11791D01*
X93854D01*
X93608Y11807D01*
X93493Y11815D01*
X93387Y11832D01*
X93288Y11848D01*
X93215Y11856D01*
X93165Y11873D01*
X93149D01*
X93272Y12693D01*
X93362Y12684D01*
X93444Y12676D01*
X93518Y12668D01*
X93576D01*
X93625Y12660D01*
X93764D01*
X93830Y12668D01*
X93879Y12684D01*
X93928Y12693D01*
X93961Y12709D01*
X93985Y12717D01*
X94002Y12725D01*
X94010D01*
X94076Y12783D01*
X94125Y12840D01*
X94158Y12889D01*
X94166Y12898D01*
Y12906D01*
X94182Y12963D01*
X94191Y13037D01*
X94207Y13119D01*
Y13201D01*
X94215Y13283D01*
Y13349D01*
Y13398D01*
Y13406D01*
Y13414D01*
Y16629D01*
X93272D01*
Y17350D01*
X94215D01*
Y19261D01*
X95142Y18703D01*
D02*
G37*
G36*
X92387Y13947D02*
Y13742D01*
X92378Y13562D01*
X92370Y13414D01*
X92362Y13291D01*
X92354Y13201D01*
X92345Y13127D01*
X92337Y13094D01*
Y13078D01*
X92296Y12930D01*
X92255Y12799D01*
X92206Y12684D01*
X92157Y12586D01*
X92116Y12504D01*
X92083Y12438D01*
X92058Y12406D01*
X92050Y12389D01*
X91968Y12291D01*
X91870Y12201D01*
X91763Y12119D01*
X91665Y12053D01*
X91566Y11996D01*
X91493Y11955D01*
X91444Y11930D01*
X91435Y11922D01*
X91427D01*
X91263Y11864D01*
X91107Y11815D01*
X90952Y11782D01*
X90812Y11766D01*
X90689Y11750D01*
X90599Y11741D01*
X90517D01*
X90312Y11750D01*
X90123Y11782D01*
X89951Y11823D01*
X89779Y11889D01*
X89623Y11955D01*
X89484Y12037D01*
X89353Y12119D01*
X89230Y12209D01*
X89123Y12291D01*
X89033Y12373D01*
X88951Y12455D01*
X88885Y12520D01*
X88836Y12586D01*
X88803Y12627D01*
X88779Y12660D01*
X88770Y12668D01*
Y11864D01*
X87942D01*
Y17350D01*
X88869D01*
Y14406D01*
X88877Y14160D01*
X88893Y13947D01*
X88918Y13767D01*
X88942Y13611D01*
X88959Y13545D01*
X88975Y13496D01*
X88992Y13447D01*
X89000Y13406D01*
X89008Y13381D01*
X89016Y13357D01*
X89025Y13349D01*
Y13340D01*
X89090Y13209D01*
X89172Y13094D01*
X89262Y12996D01*
X89344Y12914D01*
X89426Y12848D01*
X89492Y12799D01*
X89533Y12766D01*
X89541Y12758D01*
X89549D01*
X89689Y12684D01*
X89820Y12635D01*
X89951Y12594D01*
X90074Y12570D01*
X90181Y12553D01*
X90254Y12545D01*
X90328D01*
X90476Y12553D01*
X90615Y12578D01*
X90738Y12611D01*
X90837Y12652D01*
X90919Y12684D01*
X90984Y12717D01*
X91017Y12742D01*
X91034Y12750D01*
X91132Y12832D01*
X91214Y12930D01*
X91280Y13021D01*
X91329Y13111D01*
X91370Y13193D01*
X91394Y13267D01*
X91403Y13308D01*
X91411Y13324D01*
X91419Y13373D01*
X91427Y13439D01*
X91435Y13586D01*
X91452Y13750D01*
Y13914D01*
X91460Y14062D01*
Y14128D01*
Y14193D01*
Y14242D01*
Y14275D01*
Y14300D01*
Y14308D01*
Y17350D01*
X92387D01*
Y13947D01*
D02*
G37*
G36*
X15987Y13947D02*
Y13742D01*
X15979Y13562D01*
X15971Y13414D01*
X15962Y13291D01*
X15954Y13201D01*
X15946Y13127D01*
X15938Y13094D01*
Y13078D01*
X15897Y12930D01*
X15856Y12799D01*
X15807Y12684D01*
X15757Y12586D01*
X15717Y12504D01*
X15684Y12438D01*
X15659Y12406D01*
X15651Y12389D01*
X15569Y12291D01*
X15471Y12201D01*
X15364Y12119D01*
X15266Y12053D01*
X15167Y11996D01*
X15093Y11955D01*
X15044Y11930D01*
X15036Y11922D01*
X15028D01*
X14864Y11864D01*
X14708Y11815D01*
X14552Y11782D01*
X14413Y11766D01*
X14290Y11750D01*
X14199Y11741D01*
X14118D01*
X13913Y11750D01*
X13724Y11782D01*
X13552Y11823D01*
X13379Y11889D01*
X13224Y11955D01*
X13084Y12037D01*
X12953Y12119D01*
X12830Y12209D01*
X12723Y12291D01*
X12633Y12373D01*
X12551Y12455D01*
X12486Y12520D01*
X12437Y12586D01*
X12404Y12627D01*
X12379Y12660D01*
X12371Y12668D01*
Y11864D01*
X11543D01*
Y17350D01*
X12469D01*
Y14406D01*
X12477Y14160D01*
X12494Y13947D01*
X12518Y13767D01*
X12543Y13611D01*
X12560Y13545D01*
X12576Y13496D01*
X12592Y13447D01*
X12600Y13406D01*
X12609Y13381D01*
X12617Y13357D01*
X12625Y13349D01*
Y13340D01*
X12691Y13209D01*
X12773Y13094D01*
X12863Y12996D01*
X12945Y12914D01*
X13027Y12848D01*
X13092Y12799D01*
X13134Y12766D01*
X13142Y12758D01*
X13150D01*
X13289Y12684D01*
X13420Y12635D01*
X13552Y12594D01*
X13675Y12570D01*
X13781Y12553D01*
X13855Y12545D01*
X13929D01*
X14076Y12553D01*
X14216Y12578D01*
X14339Y12611D01*
X14437Y12652D01*
X14519Y12684D01*
X14585Y12717D01*
X14618Y12742D01*
X14634Y12750D01*
X14732Y12832D01*
X14815Y12930D01*
X14880Y13021D01*
X14929Y13111D01*
X14970Y13193D01*
X14995Y13267D01*
X15003Y13308D01*
X15011Y13324D01*
X15020Y13373D01*
X15028Y13439D01*
X15036Y13586D01*
X15052Y13750D01*
Y13914D01*
X15060Y14062D01*
Y14128D01*
Y14193D01*
Y14242D01*
Y14275D01*
Y14300D01*
Y14308D01*
Y17350D01*
X15987D01*
Y13947D01*
D02*
G37*
G36*
X288317Y17465D02*
X288522Y17440D01*
X288703Y17400D01*
X288883Y17350D01*
X289047Y17293D01*
X289203Y17227D01*
X289342Y17162D01*
X289465Y17088D01*
X289580Y17014D01*
X289679Y16949D01*
X289769Y16883D01*
X289834Y16826D01*
X289892Y16776D01*
X289933Y16735D01*
X289957Y16711D01*
X289966Y16702D01*
X290089Y16555D01*
X290195Y16391D01*
X290294Y16219D01*
X290375Y16047D01*
X290441Y15866D01*
X290498Y15686D01*
X290548Y15514D01*
X290581Y15341D01*
X290613Y15186D01*
X290630Y15030D01*
X290646Y14898D01*
X290663Y14784D01*
Y14685D01*
X290671Y14612D01*
Y14570D01*
Y14554D01*
X290663Y14308D01*
X290638Y14078D01*
X290605Y13865D01*
X290564Y13668D01*
X290507Y13480D01*
X290449Y13308D01*
X290384Y13152D01*
X290318Y13013D01*
X290261Y12889D01*
X290195Y12783D01*
X290138Y12693D01*
X290080Y12619D01*
X290039Y12553D01*
X290006Y12512D01*
X289982Y12488D01*
X289974Y12479D01*
X289834Y12348D01*
X289687Y12234D01*
X289539Y12135D01*
X289375Y12053D01*
X289219Y11979D01*
X289055Y11922D01*
X288899Y11873D01*
X288752Y11832D01*
X288613Y11807D01*
X288481Y11783D01*
X288367Y11766D01*
X288260Y11750D01*
X288178D01*
X288112Y11742D01*
X288063D01*
X287891Y11750D01*
X287719Y11758D01*
X287563Y11783D01*
X287415Y11815D01*
X287276Y11848D01*
X287153Y11889D01*
X287030Y11930D01*
X286923Y11971D01*
X286825Y12012D01*
X286743Y12053D01*
X286669Y12094D01*
X286603Y12127D01*
X286562Y12160D01*
X286522Y12184D01*
X286505Y12192D01*
X286497Y12201D01*
X286382Y12291D01*
X286284Y12389D01*
X286193Y12496D01*
X286103Y12603D01*
X285956Y12824D01*
X285841Y13029D01*
X285800Y13127D01*
X285759Y13217D01*
X285726Y13299D01*
X285701Y13373D01*
X285677Y13431D01*
X285661Y13472D01*
X285652Y13505D01*
Y13513D01*
X286620Y13636D01*
X286702Y13431D01*
X286800Y13250D01*
X286899Y13094D01*
X286989Y12980D01*
X287071Y12881D01*
X287137Y12816D01*
X287177Y12783D01*
X287186Y12766D01*
X287194D01*
X287333Y12676D01*
X287481Y12619D01*
X287629Y12570D01*
X287760Y12537D01*
X287883Y12520D01*
X287981Y12512D01*
X288014Y12504D01*
X288063D01*
X288186Y12512D01*
X288309Y12529D01*
X288424Y12545D01*
X288530Y12578D01*
X288727Y12652D01*
X288891Y12742D01*
X288965Y12783D01*
X289031Y12832D01*
X289080Y12873D01*
X289129Y12906D01*
X289162Y12939D01*
X289187Y12963D01*
X289203Y12971D01*
X289211Y12980D01*
X289293Y13078D01*
X289367Y13176D01*
X289424Y13291D01*
X289482Y13398D01*
X289572Y13636D01*
X289637Y13857D01*
X289662Y13964D01*
X289679Y14062D01*
X289695Y14144D01*
X289703Y14226D01*
X289711Y14284D01*
X289720Y14333D01*
Y14366D01*
Y14374D01*
X285628D01*
X285619Y14480D01*
Y14562D01*
Y14603D01*
Y14620D01*
X285628Y14866D01*
X285652Y15095D01*
X285685Y15317D01*
X285726Y15522D01*
X285784Y15710D01*
X285841Y15882D01*
X285907Y16038D01*
X285964Y16178D01*
X286030Y16301D01*
X286095Y16416D01*
X286153Y16506D01*
X286210Y16579D01*
X286251Y16645D01*
X286284Y16686D01*
X286308Y16711D01*
X286316Y16719D01*
X286448Y16850D01*
X286595Y16965D01*
X286743Y17072D01*
X286891Y17154D01*
X287038Y17227D01*
X287194Y17293D01*
X287333Y17342D01*
X287473Y17383D01*
X287604Y17408D01*
X287727Y17432D01*
X287833Y17449D01*
X287932Y17465D01*
X288006D01*
X288063Y17473D01*
X288112D01*
X288317Y17465D01*
D02*
G37*
G36*
X263045Y17465D02*
X263250Y17440D01*
X263430Y17400D01*
X263611Y17350D01*
X263775Y17293D01*
X263931Y17227D01*
X264070Y17162D01*
X264193Y17088D01*
X264308Y17014D01*
X264406Y16949D01*
X264496Y16883D01*
X264562Y16826D01*
X264619Y16776D01*
X264660Y16735D01*
X264685Y16711D01*
X264693Y16702D01*
X264816Y16555D01*
X264923Y16391D01*
X265021Y16219D01*
X265103Y16047D01*
X265169Y15866D01*
X265226Y15686D01*
X265275Y15514D01*
X265308Y15341D01*
X265341Y15186D01*
X265357Y15030D01*
X265374Y14898D01*
X265390Y14784D01*
Y14685D01*
X265398Y14612D01*
Y14570D01*
Y14554D01*
X265390Y14308D01*
X265366Y14078D01*
X265333Y13865D01*
X265292Y13668D01*
X265234Y13480D01*
X265177Y13308D01*
X265111Y13152D01*
X265046Y13013D01*
X264988Y12889D01*
X264923Y12783D01*
X264865Y12693D01*
X264808Y12619D01*
X264767Y12553D01*
X264734Y12512D01*
X264709Y12488D01*
X264701Y12479D01*
X264562Y12348D01*
X264414Y12234D01*
X264267Y12135D01*
X264103Y12053D01*
X263947Y11979D01*
X263783Y11922D01*
X263627Y11873D01*
X263479Y11832D01*
X263340Y11807D01*
X263209Y11783D01*
X263094Y11766D01*
X262987Y11750D01*
X262906D01*
X262840Y11742D01*
X262791D01*
X262618Y11750D01*
X262446Y11758D01*
X262291Y11783D01*
X262143Y11815D01*
X262003Y11848D01*
X261880Y11889D01*
X261757Y11930D01*
X261651Y11971D01*
X261553Y12012D01*
X261471Y12053D01*
X261397Y12094D01*
X261331Y12127D01*
X261290Y12160D01*
X261249Y12184D01*
X261233Y12192D01*
X261225Y12201D01*
X261110Y12291D01*
X261011Y12389D01*
X260921Y12496D01*
X260831Y12603D01*
X260683Y12824D01*
X260568Y13029D01*
X260527Y13127D01*
X260487Y13217D01*
X260454Y13299D01*
X260429Y13373D01*
X260404Y13431D01*
X260388Y13472D01*
X260380Y13505D01*
Y13513D01*
X261348Y13636D01*
X261430Y13431D01*
X261528Y13250D01*
X261626Y13094D01*
X261717Y12980D01*
X261799Y12881D01*
X261864Y12816D01*
X261905Y12783D01*
X261913Y12766D01*
X261922D01*
X262061Y12676D01*
X262209Y12619D01*
X262356Y12570D01*
X262487Y12537D01*
X262610Y12520D01*
X262709Y12512D01*
X262741Y12504D01*
X262791D01*
X262914Y12512D01*
X263037Y12529D01*
X263152Y12545D01*
X263258Y12578D01*
X263455Y12652D01*
X263619Y12742D01*
X263693Y12783D01*
X263758Y12832D01*
X263808Y12873D01*
X263857Y12906D01*
X263890Y12939D01*
X263914Y12963D01*
X263931Y12971D01*
X263939Y12980D01*
X264021Y13078D01*
X264094Y13176D01*
X264152Y13291D01*
X264209Y13398D01*
X264300Y13636D01*
X264365Y13857D01*
X264390Y13964D01*
X264406Y14062D01*
X264422Y14144D01*
X264431Y14226D01*
X264439Y14284D01*
X264447Y14333D01*
Y14366D01*
Y14374D01*
X260355D01*
X260347Y14480D01*
Y14562D01*
Y14603D01*
Y14620D01*
X260355Y14866D01*
X260380Y15095D01*
X260413Y15317D01*
X260454Y15522D01*
X260511Y15710D01*
X260568Y15882D01*
X260634Y16038D01*
X260691Y16178D01*
X260757Y16301D01*
X260823Y16416D01*
X260880Y16506D01*
X260938Y16579D01*
X260979Y16645D01*
X261011Y16686D01*
X261036Y16711D01*
X261044Y16719D01*
X261175Y16850D01*
X261323Y16965D01*
X261471Y17072D01*
X261618Y17154D01*
X261766Y17227D01*
X261922Y17293D01*
X262061Y17342D01*
X262200Y17383D01*
X262332Y17408D01*
X262455Y17432D01*
X262561Y17449D01*
X262660Y17465D01*
X262733D01*
X262791Y17473D01*
X262840D01*
X263045Y17465D01*
D02*
G37*
G36*
X220733D02*
X220938Y17440D01*
X221118Y17400D01*
X221299Y17350D01*
X221463Y17293D01*
X221619Y17227D01*
X221758Y17162D01*
X221881Y17088D01*
X221996Y17014D01*
X222094Y16949D01*
X222184Y16883D01*
X222250Y16826D01*
X222307Y16776D01*
X222348Y16735D01*
X222373Y16711D01*
X222381Y16702D01*
X222504Y16555D01*
X222611Y16391D01*
X222709Y16219D01*
X222791Y16047D01*
X222857Y15866D01*
X222914Y15686D01*
X222963Y15514D01*
X222996Y15341D01*
X223029Y15186D01*
X223045Y15030D01*
X223062Y14898D01*
X223078Y14784D01*
Y14685D01*
X223086Y14612D01*
Y14570D01*
Y14554D01*
X223078Y14308D01*
X223054Y14078D01*
X223021Y13865D01*
X222980Y13668D01*
X222922Y13480D01*
X222865Y13308D01*
X222799Y13152D01*
X222734Y13013D01*
X222676Y12889D01*
X222611Y12783D01*
X222553Y12693D01*
X222496Y12619D01*
X222455Y12553D01*
X222422Y12512D01*
X222397Y12488D01*
X222389Y12479D01*
X222250Y12348D01*
X222102Y12234D01*
X221955Y12135D01*
X221791Y12053D01*
X221635Y11979D01*
X221471Y11922D01*
X221315Y11873D01*
X221167Y11832D01*
X221028Y11807D01*
X220897Y11783D01*
X220782Y11766D01*
X220675Y11750D01*
X220594D01*
X220528Y11742D01*
X220479D01*
X220306Y11750D01*
X220134Y11758D01*
X219978Y11783D01*
X219831Y11815D01*
X219691Y11848D01*
X219568Y11889D01*
X219445Y11930D01*
X219339Y11971D01*
X219240Y12012D01*
X219159Y12053D01*
X219085Y12094D01*
X219019Y12127D01*
X218978Y12160D01*
X218937Y12184D01*
X218921Y12192D01*
X218913Y12201D01*
X218798Y12291D01*
X218699Y12389D01*
X218609Y12496D01*
X218519Y12603D01*
X218371Y12824D01*
X218256Y13029D01*
X218215Y13127D01*
X218175Y13217D01*
X218142Y13299D01*
X218117Y13373D01*
X218092Y13431D01*
X218076Y13472D01*
X218068Y13505D01*
Y13513D01*
X219036Y13636D01*
X219117Y13431D01*
X219216Y13250D01*
X219314Y13094D01*
X219405Y12980D01*
X219486Y12881D01*
X219552Y12816D01*
X219593Y12783D01*
X219601Y12766D01*
X219609D01*
X219749Y12676D01*
X219897Y12619D01*
X220044Y12570D01*
X220175Y12537D01*
X220298Y12520D01*
X220397Y12512D01*
X220429Y12504D01*
X220479D01*
X220602Y12512D01*
X220725Y12529D01*
X220840Y12545D01*
X220946Y12578D01*
X221143Y12652D01*
X221307Y12742D01*
X221381Y12783D01*
X221446Y12832D01*
X221496Y12873D01*
X221545Y12906D01*
X221578Y12939D01*
X221602Y12963D01*
X221619Y12971D01*
X221627Y12980D01*
X221709Y13078D01*
X221782Y13176D01*
X221840Y13291D01*
X221897Y13398D01*
X221988Y13636D01*
X222053Y13857D01*
X222078Y13964D01*
X222094Y14062D01*
X222111Y14144D01*
X222119Y14226D01*
X222127Y14284D01*
X222135Y14333D01*
Y14366D01*
Y14374D01*
X218043D01*
X218035Y14480D01*
Y14562D01*
Y14603D01*
Y14620D01*
X218043Y14866D01*
X218068Y15095D01*
X218101Y15317D01*
X218142Y15522D01*
X218199Y15710D01*
X218256Y15882D01*
X218322Y16038D01*
X218379Y16178D01*
X218445Y16301D01*
X218511Y16416D01*
X218568Y16506D01*
X218625Y16579D01*
X218667Y16645D01*
X218699Y16686D01*
X218724Y16711D01*
X218732Y16719D01*
X218863Y16850D01*
X219011Y16965D01*
X219159Y17072D01*
X219306Y17154D01*
X219454Y17227D01*
X219609Y17293D01*
X219749Y17342D01*
X219888Y17383D01*
X220020Y17408D01*
X220143Y17432D01*
X220249Y17449D01*
X220347Y17465D01*
X220421D01*
X220479Y17473D01*
X220528D01*
X220733Y17465D01*
D02*
G37*
G36*
X197822Y17465D02*
X198027Y17440D01*
X198207Y17400D01*
X198388Y17350D01*
X198552Y17293D01*
X198708Y17227D01*
X198847Y17162D01*
X198970Y17088D01*
X199085Y17014D01*
X199183Y16949D01*
X199274Y16883D01*
X199339Y16826D01*
X199397Y16776D01*
X199437Y16735D01*
X199462Y16711D01*
X199470Y16702D01*
X199593Y16555D01*
X199700Y16391D01*
X199798Y16219D01*
X199880Y16047D01*
X199946Y15866D01*
X200003Y15686D01*
X200052Y15514D01*
X200085Y15341D01*
X200118Y15186D01*
X200134Y15030D01*
X200151Y14898D01*
X200167Y14784D01*
Y14685D01*
X200175Y14612D01*
Y14570D01*
Y14554D01*
X200167Y14308D01*
X200143Y14078D01*
X200110Y13865D01*
X200069Y13668D01*
X200011Y13480D01*
X199954Y13308D01*
X199889Y13152D01*
X199823Y13013D01*
X199766Y12889D01*
X199700Y12783D01*
X199643Y12693D01*
X199585Y12619D01*
X199544Y12553D01*
X199511Y12512D01*
X199487Y12488D01*
X199478Y12479D01*
X199339Y12348D01*
X199191Y12234D01*
X199044Y12135D01*
X198880Y12053D01*
X198724Y11979D01*
X198560Y11922D01*
X198404Y11873D01*
X198257Y11832D01*
X198117Y11807D01*
X197986Y11783D01*
X197871Y11766D01*
X197765Y11750D01*
X197683D01*
X197617Y11742D01*
X197568D01*
X197396Y11750D01*
X197223Y11758D01*
X197068Y11783D01*
X196920Y11815D01*
X196781Y11848D01*
X196658Y11889D01*
X196535Y11930D01*
X196428Y11971D01*
X196330Y12012D01*
X196248Y12053D01*
X196174Y12094D01*
X196108Y12127D01*
X196067Y12160D01*
X196026Y12184D01*
X196010Y12192D01*
X196002Y12201D01*
X195887Y12291D01*
X195789Y12389D01*
X195698Y12496D01*
X195608Y12603D01*
X195460Y12824D01*
X195346Y13029D01*
X195305Y13127D01*
X195264Y13217D01*
X195231Y13299D01*
X195206Y13373D01*
X195182Y13431D01*
X195165Y13472D01*
X195157Y13505D01*
Y13513D01*
X196125Y13636D01*
X196207Y13431D01*
X196305Y13250D01*
X196404Y13094D01*
X196494Y12980D01*
X196576Y12881D01*
X196641Y12816D01*
X196682Y12783D01*
X196690Y12766D01*
X196699D01*
X196838Y12676D01*
X196986Y12619D01*
X197133Y12570D01*
X197265Y12537D01*
X197388Y12520D01*
X197486Y12512D01*
X197519Y12504D01*
X197568D01*
X197691Y12512D01*
X197814Y12529D01*
X197929Y12545D01*
X198035Y12578D01*
X198232Y12652D01*
X198396Y12742D01*
X198470Y12783D01*
X198536Y12832D01*
X198585Y12873D01*
X198634Y12906D01*
X198667Y12939D01*
X198691Y12963D01*
X198708Y12971D01*
X198716Y12980D01*
X198798Y13078D01*
X198872Y13176D01*
X198929Y13291D01*
X198986Y13398D01*
X199077Y13636D01*
X199142Y13857D01*
X199167Y13964D01*
X199183Y14062D01*
X199200Y14144D01*
X199208Y14226D01*
X199216Y14284D01*
X199224Y14333D01*
Y14366D01*
Y14374D01*
X195133D01*
X195124Y14480D01*
Y14562D01*
Y14603D01*
Y14620D01*
X195133Y14866D01*
X195157Y15095D01*
X195190Y15317D01*
X195231Y15522D01*
X195288Y15710D01*
X195346Y15882D01*
X195411Y16038D01*
X195469Y16178D01*
X195534Y16301D01*
X195600Y16416D01*
X195657Y16506D01*
X195715Y16579D01*
X195756Y16645D01*
X195789Y16686D01*
X195813Y16711D01*
X195821Y16719D01*
X195952Y16850D01*
X196100Y16965D01*
X196248Y17072D01*
X196395Y17154D01*
X196543Y17227D01*
X196699Y17293D01*
X196838Y17342D01*
X196977Y17383D01*
X197109Y17408D01*
X197232Y17432D01*
X197338Y17449D01*
X197437Y17465D01*
X197511D01*
X197568Y17473D01*
X197617D01*
X197822Y17465D01*
D02*
G37*
G36*
X297879Y11864D02*
X295148D01*
X294902Y11873D01*
X294672Y11881D01*
X294467Y11906D01*
X294287Y11930D01*
X294213Y11938D01*
X294147Y11947D01*
X294082Y11963D01*
X294033Y11971D01*
X293992Y11979D01*
X293967D01*
X293951Y11987D01*
X293942D01*
X293754Y12045D01*
X293573Y12102D01*
X293418Y12168D01*
X293286Y12225D01*
X293180Y12283D01*
X293098Y12324D01*
X293049Y12357D01*
X293040Y12365D01*
X293032D01*
X292893Y12471D01*
X292762Y12578D01*
X292647Y12693D01*
X292548Y12808D01*
X292458Y12906D01*
X292401Y12980D01*
X292376Y13013D01*
X292360Y13037D01*
X292343Y13045D01*
Y13054D01*
X292229Y13226D01*
X292130Y13406D01*
X292040Y13595D01*
X291966Y13767D01*
X291909Y13923D01*
X291884Y13988D01*
X291860Y14046D01*
X291851Y14087D01*
X291835Y14119D01*
X291827Y14144D01*
Y14152D01*
X291761Y14415D01*
X291712Y14677D01*
X291671Y14931D01*
X291647Y15169D01*
X291638Y15276D01*
X291630Y15374D01*
Y15464D01*
X291622Y15538D01*
Y15604D01*
Y15645D01*
Y15677D01*
Y15686D01*
X291638Y16055D01*
X291647Y16227D01*
X291671Y16391D01*
X291696Y16547D01*
X291720Y16694D01*
X291745Y16834D01*
X291770Y16965D01*
X291802Y17080D01*
X291827Y17178D01*
X291851Y17268D01*
X291876Y17342D01*
X291901Y17400D01*
X291909Y17449D01*
X291925Y17473D01*
Y17481D01*
X292048Y17760D01*
X292188Y18014D01*
X292262Y18129D01*
X292335Y18236D01*
X292409Y18334D01*
X292483Y18425D01*
X292548Y18507D01*
X292614Y18572D01*
X292671Y18638D01*
X292721Y18687D01*
X292762Y18728D01*
X292794Y18753D01*
X292811Y18769D01*
X292819Y18777D01*
X293000Y18916D01*
X293188Y19031D01*
X293369Y19121D01*
X293541Y19195D01*
X293696Y19253D01*
X293762Y19269D01*
X293819Y19286D01*
X293861Y19302D01*
X293893Y19310D01*
X293918Y19318D01*
X293926D01*
X294016Y19335D01*
X294115Y19359D01*
X294336Y19384D01*
X294557Y19409D01*
X294779Y19417D01*
X294877Y19425D01*
X294976D01*
X295058Y19433D01*
X297879D01*
Y11864D01*
D02*
G37*
G36*
X279183D02*
X278256D01*
Y17350D01*
X279183D01*
Y11864D01*
D02*
G37*
G36*
X268596Y17465D02*
X268793Y17432D01*
X268973Y17391D01*
X269146Y17334D01*
X269302Y17260D01*
X269441Y17186D01*
X269572Y17104D01*
X269687Y17022D01*
X269794Y16932D01*
X269884Y16850D01*
X269957Y16776D01*
X270015Y16702D01*
X270064Y16645D01*
X270105Y16604D01*
X270122Y16571D01*
X270130Y16563D01*
Y17350D01*
X270966D01*
Y11864D01*
X270040D01*
Y14857D01*
X270031Y15046D01*
X270023Y15226D01*
X269999Y15382D01*
X269974Y15530D01*
X269941Y15661D01*
X269908Y15776D01*
X269867Y15882D01*
X269826Y15973D01*
X269785Y16055D01*
X269744Y16120D01*
X269711Y16170D01*
X269679Y16219D01*
X269654Y16251D01*
X269630Y16276D01*
X269621Y16284D01*
X269613Y16293D01*
X269531Y16358D01*
X269441Y16416D01*
X269269Y16514D01*
X269096Y16579D01*
X268941Y16621D01*
X268801Y16653D01*
X268736Y16661D01*
X268687D01*
X268646Y16670D01*
X268588D01*
X268449Y16661D01*
X268326Y16645D01*
X268219Y16612D01*
X268121Y16588D01*
X268047Y16555D01*
X267989Y16522D01*
X267949Y16506D01*
X267940Y16498D01*
X267842Y16432D01*
X267760Y16358D01*
X267694Y16284D01*
X267645Y16210D01*
X267604Y16145D01*
X267580Y16096D01*
X267563Y16063D01*
X267555Y16047D01*
X267514Y15932D01*
X267489Y15800D01*
X267465Y15661D01*
X267457Y15522D01*
X267448Y15399D01*
X267440Y15341D01*
Y15292D01*
Y15259D01*
Y15226D01*
Y15210D01*
Y15202D01*
Y11864D01*
X266513D01*
Y15235D01*
Y15349D01*
Y15456D01*
X266522Y15563D01*
Y15653D01*
X266530Y15735D01*
Y15809D01*
X266538Y15932D01*
X266554Y16022D01*
X266563Y16087D01*
X266571Y16128D01*
Y16137D01*
X266604Y16284D01*
X266653Y16416D01*
X266694Y16530D01*
X266743Y16629D01*
X266792Y16711D01*
X266825Y16776D01*
X266850Y16809D01*
X266858Y16826D01*
X266940Y16932D01*
X267038Y17022D01*
X267145Y17096D01*
X267243Y17170D01*
X267342Y17219D01*
X267415Y17260D01*
X267465Y17285D01*
X267473Y17293D01*
X267481D01*
X267637Y17350D01*
X267793Y17400D01*
X267949Y17432D01*
X268088Y17449D01*
X268211Y17465D01*
X268260D01*
X268309Y17473D01*
X268391D01*
X268596Y17465D01*
D02*
G37*
G36*
X241110Y11864D02*
X240052D01*
X239232Y14152D01*
X236051D01*
X235173Y11864D01*
X234033D01*
X237133Y19433D01*
X238215D01*
X241110Y11864D01*
D02*
G37*
G36*
X202234Y11864D02*
X201307D01*
Y19433D01*
X202234D01*
Y11864D01*
D02*
G37*
G36*
X161734D02*
X160709D01*
X158675Y17358D01*
X158593Y17588D01*
X158511Y17809D01*
X158446Y18014D01*
X158388Y18195D01*
X158364Y18277D01*
X158339Y18351D01*
X158315Y18416D01*
X158306Y18474D01*
X158290Y18523D01*
X158282Y18556D01*
X158273Y18572D01*
Y18580D01*
X158216Y18375D01*
X158150Y18170D01*
X158085Y17965D01*
X158019Y17768D01*
X157986Y17686D01*
X157962Y17605D01*
X157937Y17531D01*
X157913Y17473D01*
X157896Y17416D01*
X157880Y17383D01*
X157872Y17358D01*
Y17350D01*
X155912Y11864D01*
X154821Y11864D01*
X157749Y19433D01*
X158782D01*
X161734Y11864D01*
D02*
G37*
G36*
X146843Y18539D02*
X144350D01*
Y11864D01*
X143350D01*
Y18539D01*
X140857D01*
Y19433D01*
X146843D01*
Y18539D01*
D02*
G37*
G36*
X119840Y11864D02*
X118840D01*
Y15226D01*
X117552D01*
X117438Y15218D01*
X117339Y15210D01*
X117257D01*
X117200Y15202D01*
X117159Y15194D01*
X117134Y15186D01*
X117126D01*
X117036Y15161D01*
X116954Y15128D01*
X116880Y15095D01*
X116806Y15063D01*
X116749Y15030D01*
X116708Y15005D01*
X116675Y14989D01*
X116667Y14980D01*
X116585Y14923D01*
X116495Y14841D01*
X116404Y14759D01*
X116331Y14677D01*
X116257Y14603D01*
X116208Y14538D01*
X116175Y14497D01*
X116158Y14489D01*
Y14480D01*
X116043Y14333D01*
X115920Y14169D01*
X115806Y13996D01*
X115691Y13824D01*
X115593Y13677D01*
X115543Y13611D01*
X115510Y13554D01*
X115478Y13504D01*
X115453Y13472D01*
X115445Y13447D01*
X115437Y13439D01*
X114436Y11864D01*
X113182D01*
X114494Y13923D01*
X114641Y14136D01*
X114789Y14333D01*
X114928Y14505D01*
X115051Y14652D01*
X115158Y14767D01*
X115207Y14817D01*
X115248Y14857D01*
X115281Y14890D01*
X115305Y14915D01*
X115314Y14923D01*
X115322Y14931D01*
X115404Y14997D01*
X115502Y15071D01*
X115601Y15128D01*
X115699Y15186D01*
X115789Y15235D01*
X115863Y15276D01*
X115912Y15300D01*
X115920Y15308D01*
X115929D01*
X115732Y15341D01*
X115543Y15382D01*
X115371Y15431D01*
X115215Y15481D01*
X115068Y15538D01*
X114936Y15595D01*
X114822Y15653D01*
X114715Y15710D01*
X114617Y15768D01*
X114535Y15825D01*
X114469Y15874D01*
X114412Y15915D01*
X114371Y15956D01*
X114338Y15981D01*
X114321Y15997D01*
X114313Y16005D01*
X114223Y16112D01*
X114141Y16219D01*
X114067Y16333D01*
X114010Y16448D01*
X113961Y16563D01*
X113920Y16678D01*
X113854Y16891D01*
X113830Y16989D01*
X113813Y17080D01*
X113805Y17162D01*
X113797Y17235D01*
X113788Y17285D01*
Y17334D01*
Y17358D01*
Y17367D01*
X113805Y17596D01*
X113838Y17809D01*
X113887Y17998D01*
X113944Y18170D01*
X113977Y18244D01*
X114010Y18310D01*
X114034Y18367D01*
X114059Y18416D01*
X114076Y18457D01*
X114092Y18482D01*
X114108Y18498D01*
Y18507D01*
X114231Y18687D01*
X114371Y18835D01*
X114510Y18966D01*
X114649Y19064D01*
X114764Y19138D01*
X114863Y19187D01*
X114904Y19204D01*
X114928Y19220D01*
X114945Y19228D01*
X114953D01*
X115059Y19261D01*
X115166Y19294D01*
X115412Y19343D01*
X115666Y19384D01*
X115912Y19408D01*
X116035Y19417D01*
X116142Y19425D01*
X116232D01*
X116322Y19433D01*
X119840D01*
Y11864D01*
D02*
G37*
G36*
X112198D02*
X106548D01*
Y12758D01*
X111197D01*
Y15333D01*
X107007D01*
Y16227D01*
X111197D01*
Y18539D01*
X106720D01*
Y19433D01*
X112198D01*
Y11864D01*
D02*
G37*
G36*
X80595Y11864D02*
X79668D01*
Y17350D01*
X80595D01*
Y11864D01*
D02*
G37*
G36*
X69435D02*
X68508D01*
Y17350D01*
X69435D01*
Y11864D01*
D02*
G37*
G36*
X64728Y17465D02*
X64925Y17432D01*
X65105Y17391D01*
X65277Y17334D01*
X65433Y17260D01*
X65573Y17186D01*
X65704Y17104D01*
X65819Y17022D01*
X65925Y16932D01*
X66015Y16850D01*
X66089Y16776D01*
X66146Y16702D01*
X66196Y16645D01*
X66237Y16604D01*
X66253Y16571D01*
X66261Y16563D01*
Y17350D01*
X67098D01*
Y11864D01*
X66171D01*
Y14857D01*
X66163Y15046D01*
X66155Y15226D01*
X66130Y15382D01*
X66106Y15530D01*
X66073Y15661D01*
X66040Y15776D01*
X65999Y15882D01*
X65958Y15973D01*
X65917Y16055D01*
X65876Y16120D01*
X65843Y16169D01*
X65810Y16219D01*
X65786Y16251D01*
X65761Y16276D01*
X65753Y16284D01*
X65745Y16292D01*
X65663Y16358D01*
X65573Y16415D01*
X65400Y16514D01*
X65228Y16579D01*
X65072Y16620D01*
X64933Y16653D01*
X64867Y16661D01*
X64818D01*
X64777Y16670D01*
X64720D01*
X64580Y16661D01*
X64457Y16645D01*
X64351Y16612D01*
X64252Y16588D01*
X64179Y16555D01*
X64121Y16522D01*
X64080Y16506D01*
X64072Y16497D01*
X63973Y16432D01*
X63892Y16358D01*
X63826Y16284D01*
X63777Y16210D01*
X63736Y16145D01*
X63711Y16096D01*
X63695Y16063D01*
X63687Y16046D01*
X63645Y15932D01*
X63621Y15800D01*
X63596Y15661D01*
X63588Y15522D01*
X63580Y15399D01*
X63572Y15341D01*
Y15292D01*
Y15259D01*
Y15226D01*
Y15210D01*
Y15202D01*
Y11864D01*
X62645D01*
Y15235D01*
Y15349D01*
Y15456D01*
X62653Y15563D01*
Y15653D01*
X62661Y15735D01*
Y15809D01*
X62670Y15932D01*
X62686Y16022D01*
X62694Y16087D01*
X62703Y16128D01*
Y16137D01*
X62735Y16284D01*
X62784Y16415D01*
X62826Y16530D01*
X62875Y16629D01*
X62924Y16711D01*
X62957Y16776D01*
X62981Y16809D01*
X62989Y16825D01*
X63072Y16932D01*
X63170Y17022D01*
X63276Y17096D01*
X63375Y17170D01*
X63473Y17219D01*
X63547Y17260D01*
X63596Y17285D01*
X63604Y17293D01*
X63613D01*
X63769Y17350D01*
X63924Y17399D01*
X64080Y17432D01*
X64219Y17449D01*
X64342Y17465D01*
X64392D01*
X64441Y17473D01*
X64523D01*
X64728Y17465D01*
D02*
G37*
G36*
X42399D02*
X42596Y17432D01*
X42777Y17391D01*
X42949Y17334D01*
X43104Y17260D01*
X43244Y17186D01*
X43375Y17104D01*
X43490Y17022D01*
X43597Y16932D01*
X43687Y16850D01*
X43760Y16776D01*
X43818Y16702D01*
X43867Y16645D01*
X43908Y16604D01*
X43924Y16571D01*
X43933Y16563D01*
Y17350D01*
X44769D01*
Y11864D01*
X43843D01*
Y14857D01*
X43834Y15046D01*
X43826Y15226D01*
X43802Y15382D01*
X43777Y15530D01*
X43744Y15661D01*
X43711Y15776D01*
X43670Y15882D01*
X43629Y15973D01*
X43588Y16055D01*
X43547Y16120D01*
X43514Y16169D01*
X43482Y16219D01*
X43457Y16251D01*
X43433Y16276D01*
X43424Y16284D01*
X43416Y16292D01*
X43334Y16358D01*
X43244Y16415D01*
X43072Y16514D01*
X42900Y16579D01*
X42744Y16620D01*
X42604Y16653D01*
X42539Y16661D01*
X42489D01*
X42448Y16670D01*
X42391D01*
X42252Y16661D01*
X42129Y16645D01*
X42022Y16612D01*
X41924Y16588D01*
X41850Y16555D01*
X41793Y16522D01*
X41752Y16506D01*
X41743Y16497D01*
X41645Y16432D01*
X41563Y16358D01*
X41497Y16284D01*
X41448Y16210D01*
X41407Y16145D01*
X41383Y16096D01*
X41366Y16063D01*
X41358Y16046D01*
X41317Y15932D01*
X41292Y15800D01*
X41268Y15661D01*
X41260Y15522D01*
X41251Y15399D01*
X41243Y15341D01*
Y15292D01*
Y15259D01*
Y15226D01*
Y15210D01*
Y15202D01*
Y11864D01*
X40317Y11864D01*
Y15235D01*
Y15349D01*
Y15456D01*
X40325Y15563D01*
Y15653D01*
X40333Y15735D01*
Y15809D01*
X40341Y15932D01*
X40358Y16022D01*
X40366Y16087D01*
X40374Y16128D01*
Y16137D01*
X40407Y16284D01*
X40456Y16415D01*
X40497Y16530D01*
X40546Y16629D01*
X40595Y16711D01*
X40628Y16776D01*
X40653Y16809D01*
X40661Y16825D01*
X40743Y16932D01*
X40841Y17022D01*
X40948Y17096D01*
X41046Y17170D01*
X41145Y17219D01*
X41219Y17260D01*
X41268Y17285D01*
X41276Y17293D01*
X41284D01*
X41440Y17350D01*
X41596Y17399D01*
X41752Y17432D01*
X41891Y17449D01*
X42014Y17465D01*
X42063D01*
X42112Y17473D01*
X42194D01*
X42399Y17465D01*
D02*
G37*
G36*
X282832Y17465D02*
X282979Y17457D01*
X283119Y17440D01*
X283233Y17416D01*
X283340Y17391D01*
X283414Y17375D01*
X283463Y17367D01*
X283471Y17358D01*
X283479D01*
X283611Y17318D01*
X283734Y17268D01*
X283832Y17219D01*
X283914Y17178D01*
X283980Y17145D01*
X284029Y17112D01*
X284062Y17096D01*
X284070Y17088D01*
X284176Y17006D01*
X284266Y16924D01*
X284349Y16834D01*
X284406Y16752D01*
X284463Y16678D01*
X284496Y16621D01*
X284521Y16588D01*
X284529Y16571D01*
X284586Y16456D01*
X284627Y16333D01*
X284652Y16219D01*
X284668Y16112D01*
X284685Y16022D01*
X284693Y15956D01*
Y15907D01*
Y15899D01*
Y15891D01*
X284685Y15743D01*
X284660Y15604D01*
X284627Y15481D01*
X284594Y15374D01*
X284562Y15284D01*
X284529Y15210D01*
X284504Y15169D01*
X284496Y15153D01*
X284414Y15038D01*
X284316Y14931D01*
X284217Y14849D01*
X284119Y14775D01*
X284029Y14710D01*
X283963Y14669D01*
X283914Y14644D01*
X283906Y14636D01*
X283897D01*
X283816Y14603D01*
X283717Y14562D01*
X283619Y14521D01*
X283504Y14489D01*
X283266Y14415D01*
X283036Y14341D01*
X282922Y14308D01*
X282815Y14275D01*
X282717Y14251D01*
X282635Y14226D01*
X282569Y14210D01*
X282512Y14193D01*
X282479Y14185D01*
X282471D01*
X282340Y14152D01*
X282217Y14119D01*
X282102Y14087D01*
X282003Y14054D01*
X281913Y14029D01*
X281839Y14005D01*
X281774Y13980D01*
X281708Y13956D01*
X281659Y13939D01*
X281618Y13923D01*
X281560Y13898D01*
X281528Y13882D01*
X281520Y13873D01*
X281429Y13800D01*
X281356Y13718D01*
X281306Y13636D01*
X281274Y13554D01*
X281257Y13488D01*
X281241Y13422D01*
Y13390D01*
Y13373D01*
X281257Y13242D01*
X281290Y13127D01*
X281339Y13021D01*
X281397Y12931D01*
X281454Y12857D01*
X281503Y12808D01*
X281536Y12766D01*
X281552Y12758D01*
X281683Y12676D01*
X281831Y12611D01*
X281995Y12570D01*
X282151Y12537D01*
X282290Y12520D01*
X282348Y12512D01*
X282405D01*
X282446Y12504D01*
X282512D01*
X282733Y12520D01*
X282930Y12553D01*
X283102Y12594D01*
X283242Y12652D01*
X283356Y12701D01*
X283438Y12750D01*
X283488Y12783D01*
X283496Y12791D01*
X283504D01*
X283627Y12914D01*
X283717Y13045D01*
X283791Y13193D01*
X283848Y13332D01*
X283889Y13455D01*
X283906Y13505D01*
X283914Y13554D01*
X283922Y13595D01*
Y13619D01*
X283930Y13636D01*
Y13644D01*
X284849Y13496D01*
X284816Y13340D01*
X284775Y13185D01*
X284726Y13045D01*
X284677Y12922D01*
X284619Y12799D01*
X284562Y12693D01*
X284504Y12594D01*
X284439Y12504D01*
X284381Y12430D01*
X284324Y12365D01*
X284275Y12307D01*
X284234Y12258D01*
X284193Y12225D01*
X284168Y12201D01*
X284152Y12184D01*
X284143Y12176D01*
X284029Y12102D01*
X283914Y12037D01*
X283783Y11971D01*
X283651Y11922D01*
X283373Y11848D01*
X283110Y11799D01*
X282987Y11774D01*
X282873Y11766D01*
X282766Y11758D01*
X282684Y11750D01*
X282610Y11742D01*
X282504D01*
X282266Y11750D01*
X282052Y11774D01*
X281856Y11815D01*
X281683Y11856D01*
X281610Y11873D01*
X281544Y11889D01*
X281487Y11914D01*
X281437Y11930D01*
X281397Y11947D01*
X281372Y11955D01*
X281356Y11963D01*
X281347D01*
X281167Y12053D01*
X281011Y12151D01*
X280880Y12258D01*
X280765Y12365D01*
X280683Y12455D01*
X280617Y12529D01*
X280585Y12578D01*
X280568Y12586D01*
Y12594D01*
X280478Y12750D01*
X280404Y12906D01*
X280355Y13054D01*
X280322Y13185D01*
X280306Y13299D01*
X280290Y13390D01*
Y13422D01*
Y13447D01*
Y13464D01*
Y13472D01*
X280298Y13644D01*
X280322Y13800D01*
X280363Y13931D01*
X280404Y14046D01*
X280445Y14144D01*
X280486Y14210D01*
X280511Y14251D01*
X280519Y14267D01*
X280609Y14382D01*
X280708Y14480D01*
X280814Y14562D01*
X280913Y14628D01*
X280995Y14685D01*
X281068Y14718D01*
X281118Y14743D01*
X281126Y14751D01*
X281134D01*
X281216Y14784D01*
X281306Y14817D01*
X281405Y14857D01*
X281511Y14890D01*
X281733Y14964D01*
X281962Y15030D01*
X282069Y15063D01*
X282175Y15095D01*
X282266Y15120D01*
X282340Y15145D01*
X282413Y15161D01*
X282463Y15177D01*
X282495Y15186D01*
X282504D01*
X282627Y15218D01*
X282733Y15251D01*
X282832Y15276D01*
X282922Y15300D01*
X282996Y15325D01*
X283061Y15341D01*
X283119Y15358D01*
X283168Y15374D01*
X283242Y15399D01*
X283291Y15415D01*
X283315Y15423D01*
X283324D01*
X283405Y15464D01*
X283479Y15505D01*
X283545Y15546D01*
X283594Y15587D01*
X283635Y15620D01*
X283660Y15645D01*
X283676Y15661D01*
X283684Y15669D01*
X283717Y15727D01*
X283742Y15784D01*
X283774Y15891D01*
X283783Y15932D01*
X283791Y15965D01*
Y15989D01*
Y15997D01*
X283783Y16104D01*
X283750Y16194D01*
X283709Y16284D01*
X283651Y16358D01*
X283602Y16416D01*
X283561Y16456D01*
X283528Y16489D01*
X283520Y16498D01*
X283463Y16538D01*
X283405Y16571D01*
X283266Y16621D01*
X283110Y16661D01*
X282963Y16686D01*
X282823Y16702D01*
X282766D01*
X282717Y16711D01*
X282610D01*
X282413Y16702D01*
X282249Y16670D01*
X282102Y16637D01*
X281979Y16588D01*
X281889Y16547D01*
X281823Y16506D01*
X281782Y16473D01*
X281766Y16465D01*
X281667Y16366D01*
X281585Y16260D01*
X281520Y16153D01*
X281470Y16047D01*
X281437Y15956D01*
X281421Y15874D01*
X281405Y15825D01*
Y15817D01*
Y15809D01*
X280494Y15932D01*
X280536Y16120D01*
X280585Y16284D01*
X280634Y16432D01*
X280691Y16555D01*
X280740Y16645D01*
X280782Y16719D01*
X280814Y16760D01*
X280822Y16776D01*
X280921Y16891D01*
X281036Y16989D01*
X281151Y17080D01*
X281265Y17154D01*
X281380Y17211D01*
X281462Y17252D01*
X281495Y17268D01*
X281520Y17277D01*
X281536Y17285D01*
X281544D01*
X281733Y17350D01*
X281921Y17391D01*
X282118Y17424D01*
X282290Y17449D01*
X282446Y17465D01*
X282512D01*
X282569Y17473D01*
X282676D01*
X282832Y17465D01*
D02*
G37*
G36*
X255722Y16711D02*
X255821Y16834D01*
X255927Y16940D01*
X256034Y17030D01*
X256132Y17112D01*
X256223Y17178D01*
X256288Y17219D01*
X256337Y17252D01*
X256346Y17260D01*
X256354D01*
X256501Y17334D01*
X256657Y17383D01*
X256805Y17424D01*
X256944Y17449D01*
X257059Y17465D01*
X257157Y17473D01*
X257362D01*
X257485Y17457D01*
X257715Y17416D01*
X257920Y17358D01*
X258100Y17293D01*
X258182Y17260D01*
X258248Y17227D01*
X258313Y17195D01*
X258363Y17170D01*
X258404Y17145D01*
X258436Y17129D01*
X258453Y17121D01*
X258461Y17112D01*
X258658Y16965D01*
X258822Y16801D01*
X258961Y16637D01*
X259076Y16465D01*
X259166Y16317D01*
X259199Y16251D01*
X259232Y16202D01*
X259248Y16153D01*
X259265Y16120D01*
X259281Y16096D01*
Y16087D01*
X259371Y15833D01*
X259437Y15571D01*
X259486Y15325D01*
X259519Y15095D01*
X259527Y14989D01*
X259535Y14890D01*
X259543Y14808D01*
Y14735D01*
X259552Y14677D01*
Y14636D01*
Y14603D01*
Y14595D01*
X259535Y14292D01*
X259503Y14013D01*
X259486Y13882D01*
X259461Y13759D01*
X259429Y13644D01*
X259404Y13537D01*
X259380Y13447D01*
X259347Y13357D01*
X259322Y13283D01*
X259306Y13226D01*
X259281Y13176D01*
X259273Y13144D01*
X259257Y13119D01*
Y13111D01*
X259134Y12881D01*
X258994Y12676D01*
X258855Y12504D01*
X258715Y12365D01*
X258592Y12250D01*
X258543Y12209D01*
X258494Y12168D01*
X258453Y12143D01*
X258428Y12119D01*
X258412Y12111D01*
X258404Y12102D01*
X258297Y12037D01*
X258190Y11987D01*
X257985Y11897D01*
X257781Y11832D01*
X257592Y11791D01*
X257510Y11774D01*
X257436Y11758D01*
X257370Y11750D01*
X257313D01*
X257264Y11742D01*
X257198D01*
X257010Y11750D01*
X256838Y11774D01*
X256682Y11815D01*
X256526Y11873D01*
X256386Y11930D01*
X256263Y11996D01*
X256149Y12070D01*
X256042Y12151D01*
X255952Y12225D01*
X255878Y12299D01*
X255813Y12365D01*
X255755Y12430D01*
X255714Y12479D01*
X255681Y12520D01*
X255665Y12545D01*
X255657Y12553D01*
Y11864D01*
X254796D01*
Y19433D01*
X255722D01*
Y16711D01*
D02*
G37*
G36*
X231704Y17465D02*
X231852Y17457D01*
X231992Y17440D01*
X232106Y17416D01*
X232213Y17391D01*
X232287Y17375D01*
X232336Y17367D01*
X232344Y17358D01*
X232352D01*
X232484Y17318D01*
X232607Y17268D01*
X232705Y17219D01*
X232787Y17178D01*
X232853Y17145D01*
X232902Y17112D01*
X232934Y17096D01*
X232943Y17088D01*
X233049Y17006D01*
X233139Y16924D01*
X233222Y16834D01*
X233279Y16752D01*
X233336Y16678D01*
X233369Y16621D01*
X233394Y16588D01*
X233402Y16571D01*
X233459Y16456D01*
X233500Y16333D01*
X233525Y16219D01*
X233541Y16112D01*
X233558Y16022D01*
X233566Y15956D01*
Y15907D01*
Y15899D01*
Y15891D01*
X233558Y15743D01*
X233533Y15604D01*
X233500Y15481D01*
X233468Y15374D01*
X233435Y15284D01*
X233402Y15210D01*
X233377Y15169D01*
X233369Y15153D01*
X233287Y15038D01*
X233189Y14931D01*
X233090Y14849D01*
X232992Y14775D01*
X232902Y14710D01*
X232836Y14669D01*
X232787Y14644D01*
X232779Y14636D01*
X232770D01*
X232688Y14603D01*
X232590Y14562D01*
X232492Y14521D01*
X232377Y14489D01*
X232139Y14415D01*
X231909Y14341D01*
X231795Y14308D01*
X231688Y14275D01*
X231590Y14251D01*
X231508Y14226D01*
X231442Y14210D01*
X231385Y14193D01*
X231352Y14185D01*
X231344D01*
X231212Y14152D01*
X231089Y14119D01*
X230975Y14087D01*
X230876Y14054D01*
X230786Y14029D01*
X230712Y14005D01*
X230647Y13980D01*
X230581Y13956D01*
X230532Y13939D01*
X230491Y13923D01*
X230434Y13898D01*
X230401Y13882D01*
X230393Y13873D01*
X230302Y13800D01*
X230228Y13718D01*
X230179Y13636D01*
X230147Y13554D01*
X230130Y13488D01*
X230114Y13422D01*
Y13390D01*
Y13373D01*
X230130Y13242D01*
X230163Y13127D01*
X230212Y13021D01*
X230270Y12931D01*
X230327Y12857D01*
X230376Y12808D01*
X230409Y12766D01*
X230425Y12758D01*
X230557Y12676D01*
X230704Y12611D01*
X230868Y12570D01*
X231024Y12537D01*
X231163Y12520D01*
X231221Y12512D01*
X231278D01*
X231319Y12504D01*
X231385D01*
X231606Y12520D01*
X231803Y12553D01*
X231975Y12594D01*
X232115Y12652D01*
X232229Y12701D01*
X232311Y12750D01*
X232361Y12783D01*
X232369Y12791D01*
X232377D01*
X232500Y12914D01*
X232590Y13045D01*
X232664Y13193D01*
X232721Y13332D01*
X232762Y13455D01*
X232779Y13505D01*
X232787Y13554D01*
X232795Y13595D01*
Y13619D01*
X232803Y13636D01*
Y13644D01*
X233722Y13496D01*
X233689Y13340D01*
X233648Y13185D01*
X233599Y13045D01*
X233549Y12922D01*
X233492Y12799D01*
X233435Y12693D01*
X233377Y12594D01*
X233312Y12504D01*
X233254Y12430D01*
X233197Y12365D01*
X233148Y12307D01*
X233107Y12258D01*
X233066Y12225D01*
X233041Y12201D01*
X233025Y12184D01*
X233016Y12176D01*
X232902Y12102D01*
X232787Y12037D01*
X232656Y11971D01*
X232524Y11922D01*
X232246Y11848D01*
X231983Y11799D01*
X231860Y11774D01*
X231746Y11766D01*
X231639Y11758D01*
X231557Y11750D01*
X231483Y11742D01*
X231377D01*
X231139Y11750D01*
X230925Y11774D01*
X230729Y11815D01*
X230557Y11856D01*
X230483Y11873D01*
X230417Y11889D01*
X230360Y11914D01*
X230311Y11930D01*
X230270Y11947D01*
X230245Y11955D01*
X230228Y11963D01*
X230220D01*
X230040Y12053D01*
X229884Y12151D01*
X229753Y12258D01*
X229638Y12365D01*
X229556Y12455D01*
X229490Y12529D01*
X229458Y12578D01*
X229441Y12586D01*
Y12594D01*
X229351Y12750D01*
X229277Y12906D01*
X229228Y13054D01*
X229195Y13185D01*
X229179Y13299D01*
X229163Y13390D01*
Y13422D01*
Y13447D01*
Y13464D01*
Y13472D01*
X229171Y13644D01*
X229195Y13800D01*
X229236Y13931D01*
X229277Y14046D01*
X229318Y14144D01*
X229359Y14210D01*
X229384Y14251D01*
X229392Y14267D01*
X229482Y14382D01*
X229581Y14480D01*
X229687Y14562D01*
X229786Y14628D01*
X229868Y14685D01*
X229942Y14718D01*
X229991Y14743D01*
X229999Y14751D01*
X230007D01*
X230089Y14784D01*
X230179Y14817D01*
X230278Y14857D01*
X230384Y14890D01*
X230606Y14964D01*
X230835Y15030D01*
X230942Y15063D01*
X231048Y15095D01*
X231139Y15120D01*
X231212Y15145D01*
X231286Y15161D01*
X231335Y15177D01*
X231368Y15186D01*
X231377D01*
X231500Y15218D01*
X231606Y15251D01*
X231704Y15276D01*
X231795Y15300D01*
X231869Y15325D01*
X231934Y15341D01*
X231992Y15358D01*
X232041Y15374D01*
X232115Y15399D01*
X232164Y15415D01*
X232188Y15423D01*
X232196D01*
X232278Y15464D01*
X232352Y15505D01*
X232418Y15546D01*
X232467Y15587D01*
X232508Y15620D01*
X232533Y15645D01*
X232549Y15661D01*
X232557Y15669D01*
X232590Y15727D01*
X232615Y15784D01*
X232647Y15891D01*
X232656Y15932D01*
X232664Y15965D01*
Y15989D01*
Y15997D01*
X232656Y16104D01*
X232623Y16194D01*
X232582Y16284D01*
X232524Y16358D01*
X232475Y16416D01*
X232434Y16456D01*
X232401Y16489D01*
X232393Y16498D01*
X232336Y16538D01*
X232278Y16571D01*
X232139Y16621D01*
X231983Y16661D01*
X231836Y16686D01*
X231696Y16702D01*
X231639D01*
X231590Y16711D01*
X231483D01*
X231286Y16702D01*
X231122Y16670D01*
X230975Y16637D01*
X230852Y16588D01*
X230762Y16547D01*
X230696Y16506D01*
X230655Y16473D01*
X230639Y16465D01*
X230540Y16366D01*
X230458Y16260D01*
X230393Y16153D01*
X230343Y16047D01*
X230311Y15956D01*
X230294Y15874D01*
X230278Y15825D01*
Y15817D01*
Y15809D01*
X229367Y15932D01*
X229409Y16120D01*
X229458Y16284D01*
X229507Y16432D01*
X229564Y16555D01*
X229613Y16645D01*
X229655Y16719D01*
X229687Y16760D01*
X229696Y16776D01*
X229794Y16891D01*
X229909Y16989D01*
X230024Y17080D01*
X230138Y17154D01*
X230253Y17211D01*
X230335Y17252D01*
X230368Y17268D01*
X230393Y17277D01*
X230409Y17285D01*
X230417D01*
X230606Y17350D01*
X230794Y17391D01*
X230991Y17424D01*
X231163Y17449D01*
X231319Y17465D01*
X231385D01*
X231442Y17473D01*
X231549D01*
X231704Y17465D01*
D02*
G37*
G36*
X226415D02*
X226563Y17457D01*
X226702Y17440D01*
X226817Y17416D01*
X226924Y17391D01*
X226998Y17375D01*
X227047Y17367D01*
X227055Y17358D01*
X227063D01*
X227194Y17318D01*
X227318Y17268D01*
X227416Y17219D01*
X227498Y17178D01*
X227564Y17145D01*
X227613Y17112D01*
X227645Y17096D01*
X227654Y17088D01*
X227760Y17006D01*
X227851Y16924D01*
X227933Y16834D01*
X227990Y16752D01*
X228047Y16678D01*
X228080Y16621D01*
X228105Y16588D01*
X228113Y16571D01*
X228170Y16456D01*
X228211Y16333D01*
X228236Y16219D01*
X228252Y16112D01*
X228269Y16022D01*
X228277Y15956D01*
Y15907D01*
Y15899D01*
Y15891D01*
X228269Y15743D01*
X228244Y15604D01*
X228211Y15481D01*
X228179Y15374D01*
X228146Y15284D01*
X228113Y15210D01*
X228088Y15169D01*
X228080Y15153D01*
X227998Y15038D01*
X227900Y14931D01*
X227801Y14849D01*
X227703Y14775D01*
X227613Y14710D01*
X227547Y14669D01*
X227498Y14644D01*
X227490Y14636D01*
X227482D01*
X227399Y14603D01*
X227301Y14562D01*
X227203Y14521D01*
X227088Y14489D01*
X226850Y14415D01*
X226621Y14341D01*
X226506Y14308D01*
X226399Y14275D01*
X226301Y14251D01*
X226219Y14226D01*
X226153Y14210D01*
X226096Y14193D01*
X226063Y14185D01*
X226055D01*
X225923Y14152D01*
X225800Y14119D01*
X225686Y14087D01*
X225587Y14054D01*
X225497Y14029D01*
X225423Y14005D01*
X225358Y13980D01*
X225292Y13956D01*
X225243Y13939D01*
X225202Y13923D01*
X225145Y13898D01*
X225112Y13882D01*
X225103Y13873D01*
X225013Y13800D01*
X224939Y13718D01*
X224890Y13636D01*
X224857Y13554D01*
X224841Y13488D01*
X224825Y13422D01*
Y13390D01*
Y13373D01*
X224841Y13242D01*
X224874Y13127D01*
X224923Y13021D01*
X224980Y12931D01*
X225038Y12857D01*
X225087Y12808D01*
X225120Y12766D01*
X225136Y12758D01*
X225268Y12676D01*
X225415Y12611D01*
X225579Y12570D01*
X225735Y12537D01*
X225874Y12520D01*
X225932Y12512D01*
X225989D01*
X226030Y12504D01*
X226096D01*
X226317Y12520D01*
X226514Y12553D01*
X226686Y12594D01*
X226825Y12652D01*
X226940Y12701D01*
X227022Y12750D01*
X227071Y12783D01*
X227080Y12791D01*
X227088D01*
X227211Y12914D01*
X227301Y13045D01*
X227375Y13193D01*
X227432Y13332D01*
X227473Y13455D01*
X227490Y13505D01*
X227498Y13554D01*
X227506Y13595D01*
Y13619D01*
X227514Y13636D01*
Y13644D01*
X228433Y13496D01*
X228400Y13340D01*
X228359Y13185D01*
X228310Y13045D01*
X228260Y12922D01*
X228203Y12799D01*
X228146Y12693D01*
X228088Y12594D01*
X228023Y12504D01*
X227965Y12430D01*
X227908Y12365D01*
X227859Y12307D01*
X227818Y12258D01*
X227777Y12225D01*
X227752Y12201D01*
X227736Y12184D01*
X227728Y12176D01*
X227613Y12102D01*
X227498Y12037D01*
X227367Y11971D01*
X227236Y11922D01*
X226957Y11848D01*
X226694Y11799D01*
X226571Y11774D01*
X226456Y11766D01*
X226350Y11758D01*
X226268Y11750D01*
X226194Y11742D01*
X226087D01*
X225850Y11750D01*
X225637Y11774D01*
X225440Y11815D01*
X225268Y11856D01*
X225194Y11873D01*
X225128Y11889D01*
X225071Y11914D01*
X225022Y11930D01*
X224980Y11947D01*
X224956Y11955D01*
X224939Y11963D01*
X224931D01*
X224751Y12053D01*
X224595Y12151D01*
X224464Y12258D01*
X224349Y12365D01*
X224267Y12455D01*
X224201Y12529D01*
X224169Y12578D01*
X224152Y12586D01*
Y12594D01*
X224062Y12750D01*
X223988Y12906D01*
X223939Y13054D01*
X223906Y13185D01*
X223890Y13299D01*
X223873Y13390D01*
Y13422D01*
Y13447D01*
Y13464D01*
Y13472D01*
X223882Y13644D01*
X223906Y13800D01*
X223947Y13931D01*
X223988Y14046D01*
X224029Y14144D01*
X224070Y14210D01*
X224095Y14251D01*
X224103Y14267D01*
X224193Y14382D01*
X224292Y14480D01*
X224398Y14562D01*
X224497Y14628D01*
X224579Y14685D01*
X224653Y14718D01*
X224702Y14743D01*
X224710Y14751D01*
X224718D01*
X224800Y14784D01*
X224890Y14817D01*
X224989Y14857D01*
X225095Y14890D01*
X225317Y14964D01*
X225546Y15030D01*
X225653Y15063D01*
X225760Y15095D01*
X225850Y15120D01*
X225923Y15145D01*
X225997Y15161D01*
X226046Y15177D01*
X226079Y15186D01*
X226087D01*
X226210Y15218D01*
X226317Y15251D01*
X226415Y15276D01*
X226506Y15300D01*
X226579Y15325D01*
X226645Y15341D01*
X226702Y15358D01*
X226752Y15374D01*
X226825Y15399D01*
X226875Y15415D01*
X226899Y15423D01*
X226907D01*
X226990Y15464D01*
X227063Y15505D01*
X227129Y15546D01*
X227178Y15587D01*
X227219Y15620D01*
X227244Y15645D01*
X227260Y15661D01*
X227268Y15669D01*
X227301Y15727D01*
X227326Y15784D01*
X227359Y15891D01*
X227367Y15932D01*
X227375Y15965D01*
Y15989D01*
Y15997D01*
X227367Y16104D01*
X227334Y16194D01*
X227293Y16284D01*
X227236Y16358D01*
X227186Y16416D01*
X227145Y16456D01*
X227113Y16489D01*
X227104Y16498D01*
X227047Y16538D01*
X226990Y16571D01*
X226850Y16621D01*
X226694Y16661D01*
X226547Y16686D01*
X226407Y16702D01*
X226350D01*
X226301Y16711D01*
X226194D01*
X225997Y16702D01*
X225833Y16670D01*
X225686Y16637D01*
X225563Y16588D01*
X225472Y16547D01*
X225407Y16506D01*
X225366Y16473D01*
X225349Y16465D01*
X225251Y16366D01*
X225169Y16260D01*
X225103Y16153D01*
X225054Y16047D01*
X225022Y15956D01*
X225005Y15874D01*
X224989Y15825D01*
Y15817D01*
Y15809D01*
X224078Y15932D01*
X224119Y16120D01*
X224169Y16284D01*
X224218Y16432D01*
X224275Y16555D01*
X224324Y16645D01*
X224365Y16719D01*
X224398Y16760D01*
X224407Y16776D01*
X224505Y16891D01*
X224620Y16989D01*
X224734Y17080D01*
X224849Y17154D01*
X224964Y17211D01*
X225046Y17252D01*
X225079Y17268D01*
X225103Y17277D01*
X225120Y17285D01*
X225128D01*
X225317Y17350D01*
X225505Y17391D01*
X225702Y17424D01*
X225874Y17449D01*
X226030Y17465D01*
X226096D01*
X226153Y17473D01*
X226260D01*
X226415Y17465D01*
D02*
G37*
G36*
X190499Y16711D02*
X190598Y16834D01*
X190705Y16940D01*
X190811Y17030D01*
X190910Y17112D01*
X191000Y17178D01*
X191065Y17219D01*
X191114Y17252D01*
X191123Y17260D01*
X191131D01*
X191279Y17334D01*
X191434Y17383D01*
X191582Y17424D01*
X191721Y17449D01*
X191836Y17465D01*
X191935Y17473D01*
X192139D01*
X192262Y17457D01*
X192492Y17416D01*
X192697Y17358D01*
X192877Y17293D01*
X192959Y17260D01*
X193025Y17227D01*
X193091Y17195D01*
X193140Y17170D01*
X193181Y17145D01*
X193214Y17129D01*
X193230Y17121D01*
X193238Y17112D01*
X193435Y16965D01*
X193599Y16801D01*
X193738Y16637D01*
X193853Y16465D01*
X193944Y16317D01*
X193976Y16251D01*
X194009Y16202D01*
X194026Y16153D01*
X194042Y16120D01*
X194058Y16096D01*
Y16087D01*
X194149Y15833D01*
X194214Y15571D01*
X194263Y15325D01*
X194296Y15095D01*
X194304Y14989D01*
X194313Y14890D01*
X194321Y14808D01*
Y14735D01*
X194329Y14677D01*
Y14636D01*
Y14603D01*
Y14595D01*
X194313Y14292D01*
X194280Y14013D01*
X194263Y13882D01*
X194239Y13759D01*
X194206Y13644D01*
X194181Y13537D01*
X194157Y13447D01*
X194124Y13357D01*
X194099Y13283D01*
X194083Y13226D01*
X194058Y13176D01*
X194050Y13144D01*
X194034Y13119D01*
Y13111D01*
X193911Y12881D01*
X193771Y12676D01*
X193632Y12504D01*
X193492Y12365D01*
X193369Y12250D01*
X193320Y12209D01*
X193271Y12168D01*
X193230Y12143D01*
X193205Y12119D01*
X193189Y12111D01*
X193181Y12102D01*
X193074Y12037D01*
X192968Y11987D01*
X192763Y11897D01*
X192558Y11832D01*
X192369Y11791D01*
X192287Y11774D01*
X192213Y11758D01*
X192148Y11750D01*
X192090D01*
X192041Y11742D01*
X191975D01*
X191787Y11750D01*
X191615Y11774D01*
X191459Y11815D01*
X191303Y11873D01*
X191164Y11930D01*
X191041Y11996D01*
X190926Y12070D01*
X190819Y12151D01*
X190729Y12225D01*
X190655Y12299D01*
X190590Y12365D01*
X190532Y12430D01*
X190491Y12479D01*
X190459Y12520D01*
X190442Y12545D01*
X190434Y12553D01*
Y11864D01*
X189573D01*
Y19433D01*
X190499D01*
Y16711D01*
D02*
G37*
G36*
X125055Y19556D02*
X125334Y19515D01*
X125596Y19466D01*
X125842Y19400D01*
X126080Y19318D01*
X126294Y19228D01*
X126490Y19130D01*
X126671Y19031D01*
X126835Y18933D01*
X126974Y18835D01*
X127089Y18744D01*
X127196Y18662D01*
X127269Y18597D01*
X127327Y18548D01*
X127368Y18507D01*
X127376Y18498D01*
X127556Y18293D01*
X127712Y18064D01*
X127843Y17834D01*
X127958Y17588D01*
X128057Y17342D01*
X128138Y17096D01*
X128204Y16858D01*
X128261Y16620D01*
X128303Y16399D01*
X128327Y16202D01*
X128352Y16014D01*
X128368Y15858D01*
X128376Y15727D01*
Y15677D01*
X128384Y15628D01*
Y15595D01*
Y15571D01*
Y15554D01*
Y15546D01*
X128376Y15366D01*
X128368Y15177D01*
X128319Y14833D01*
X128286Y14669D01*
X128253Y14513D01*
X128212Y14366D01*
X128171Y14234D01*
X128130Y14103D01*
X128089Y13996D01*
X128057Y13898D01*
X128024Y13816D01*
X127999Y13750D01*
X127974Y13701D01*
X127966Y13668D01*
X127958Y13660D01*
X127868Y13496D01*
X127778Y13340D01*
X127679Y13201D01*
X127573Y13062D01*
X127466Y12939D01*
X127359Y12824D01*
X127261Y12717D01*
X127155Y12619D01*
X127056Y12537D01*
X126966Y12463D01*
X126884Y12398D01*
X126818Y12348D01*
X126761Y12307D01*
X126712Y12274D01*
X126687Y12258D01*
X126679Y12250D01*
X126515Y12160D01*
X126351Y12086D01*
X126187Y12012D01*
X126023Y11955D01*
X125859Y11906D01*
X125703Y11864D01*
X125547Y11832D01*
X125408Y11807D01*
X125268Y11783D01*
X125154Y11766D01*
X125039Y11758D01*
X124949Y11750D01*
X124875Y11742D01*
X124768D01*
X124588Y11750D01*
X124407Y11758D01*
X124063Y11815D01*
X123907Y11848D01*
X123751Y11889D01*
X123612Y11930D01*
X123481Y11971D01*
X123358Y12012D01*
X123251Y12053D01*
X123161Y12094D01*
X123079Y12127D01*
X123013Y12160D01*
X122973Y12184D01*
X122940Y12192D01*
X122932Y12201D01*
X122776Y12291D01*
X122628Y12398D01*
X122489Y12504D01*
X122366Y12611D01*
X122251Y12725D01*
X122136Y12840D01*
X122038Y12955D01*
X121948Y13062D01*
X121874Y13168D01*
X121800Y13267D01*
X121742Y13357D01*
X121693Y13431D01*
X121660Y13488D01*
X121636Y13537D01*
X121619Y13570D01*
X121611Y13578D01*
X121529Y13750D01*
X121456Y13931D01*
X121398Y14103D01*
X121341Y14283D01*
X121291Y14456D01*
X121259Y14628D01*
X121226Y14792D01*
X121201Y14948D01*
X121185Y15095D01*
X121168Y15226D01*
X121160Y15341D01*
X121152Y15440D01*
X121144Y15522D01*
Y15587D01*
Y15620D01*
Y15636D01*
X121152Y15850D01*
X121160Y16046D01*
X121185Y16243D01*
X121210Y16432D01*
X121242Y16604D01*
X121283Y16776D01*
X121324Y16932D01*
X121365Y17071D01*
X121406Y17203D01*
X121447Y17317D01*
X121480Y17424D01*
X121521Y17506D01*
X121546Y17572D01*
X121570Y17621D01*
X121579Y17654D01*
X121587Y17662D01*
X121677Y17826D01*
X121767Y17982D01*
X121874Y18129D01*
X121972Y18260D01*
X122079Y18383D01*
X122185Y18498D01*
X122292Y18605D01*
X122398Y18703D01*
X122497Y18785D01*
X122587Y18859D01*
X122661Y18925D01*
X122735Y18974D01*
X122792Y19015D01*
X122833Y19039D01*
X122866Y19056D01*
X122874Y19064D01*
X123038Y19154D01*
X123194Y19228D01*
X123358Y19294D01*
X123522Y19351D01*
X123686Y19400D01*
X123842Y19441D01*
X123989Y19474D01*
X124137Y19499D01*
X124268Y19523D01*
X124383Y19540D01*
X124489Y19548D01*
X124588Y19556D01*
X124662Y19564D01*
X124760D01*
X125055Y19556D01*
D02*
G37*
G36*
X99898D02*
X100160Y19523D01*
X100390Y19482D01*
X100496Y19458D01*
X100595Y19433D01*
X100685Y19408D01*
X100767Y19384D01*
X100841Y19359D01*
X100898Y19343D01*
X100939Y19326D01*
X100980Y19310D01*
X100996Y19302D01*
X101005D01*
X101226Y19195D01*
X101415Y19072D01*
X101579Y18949D01*
X101710Y18826D01*
X101816Y18711D01*
X101899Y18621D01*
X101923Y18588D01*
X101939Y18564D01*
X101956Y18548D01*
Y18539D01*
X102062Y18351D01*
X102145Y18162D01*
X102194Y17990D01*
X102235Y17826D01*
X102259Y17678D01*
X102268Y17621D01*
Y17572D01*
X102276Y17531D01*
Y17498D01*
Y17481D01*
Y17473D01*
X102268Y17285D01*
X102235Y17104D01*
X102194Y16940D01*
X102145Y16801D01*
X102095Y16686D01*
X102054Y16596D01*
X102038Y16563D01*
X102022Y16538D01*
X102013Y16530D01*
Y16522D01*
X101907Y16374D01*
X101776Y16235D01*
X101644Y16120D01*
X101505Y16014D01*
X101390Y15932D01*
X101292Y15874D01*
X101251Y15858D01*
X101226Y15842D01*
X101210Y15825D01*
X101201D01*
X101119Y15784D01*
X101021Y15743D01*
X100915Y15702D01*
X100800Y15661D01*
X100562Y15579D01*
X100316Y15505D01*
X100201Y15473D01*
X100103Y15440D01*
X100004Y15415D01*
X99914Y15391D01*
X99849Y15374D01*
X99791Y15358D01*
X99758Y15349D01*
X99750D01*
X99562Y15308D01*
X99389Y15259D01*
X99242Y15226D01*
X99102Y15186D01*
X98979Y15153D01*
X98865Y15128D01*
X98774Y15095D01*
X98684Y15071D01*
X98619Y15054D01*
X98553Y15030D01*
X98504Y15013D01*
X98471Y15005D01*
X98438Y14997D01*
X98422Y14989D01*
X98405Y14980D01*
X98241Y14907D01*
X98102Y14833D01*
X97979Y14759D01*
X97889Y14694D01*
X97815Y14628D01*
X97766Y14579D01*
X97733Y14546D01*
X97725Y14538D01*
X97651Y14439D01*
X97602Y14333D01*
X97561Y14226D01*
X97536Y14128D01*
X97520Y14046D01*
X97512Y13972D01*
Y13931D01*
Y13923D01*
Y13914D01*
X97520Y13791D01*
X97544Y13668D01*
X97585Y13562D01*
X97618Y13463D01*
X97659Y13381D01*
X97700Y13316D01*
X97725Y13283D01*
X97733Y13267D01*
X97823Y13160D01*
X97922Y13070D01*
X98036Y12988D01*
X98143Y12922D01*
X98241Y12873D01*
X98315Y12832D01*
X98348Y12816D01*
X98373Y12808D01*
X98381Y12799D01*
X98389D01*
X98553Y12742D01*
X98725Y12701D01*
X98897Y12676D01*
X99053Y12660D01*
X99184Y12643D01*
X99242D01*
X99291Y12635D01*
X99389D01*
X99627Y12643D01*
X99840Y12668D01*
X100045Y12709D01*
X100217Y12750D01*
X100291Y12766D01*
X100357Y12783D01*
X100414Y12808D01*
X100463Y12824D01*
X100505Y12840D01*
X100529Y12848D01*
X100546Y12857D01*
X100554D01*
X100734Y12947D01*
X100890Y13045D01*
X101021Y13136D01*
X101128Y13234D01*
X101210Y13316D01*
X101267Y13382D01*
X101308Y13422D01*
X101316Y13439D01*
X101398Y13586D01*
X101464Y13742D01*
X101513Y13898D01*
X101554Y14046D01*
X101587Y14185D01*
X101595Y14234D01*
X101603Y14283D01*
X101611Y14324D01*
X101620Y14357D01*
Y14374D01*
Y14382D01*
X102563Y14300D01*
X102555Y14161D01*
X102538Y14021D01*
X102489Y13767D01*
X102423Y13529D01*
X102391Y13422D01*
X102349Y13332D01*
X102317Y13242D01*
X102276Y13160D01*
X102243Y13094D01*
X102210Y13037D01*
X102185Y12988D01*
X102169Y12955D01*
X102161Y12939D01*
X102153Y12930D01*
X101997Y12717D01*
X101816Y12537D01*
X101636Y12381D01*
X101464Y12258D01*
X101308Y12160D01*
X101242Y12127D01*
X101185Y12094D01*
X101136Y12070D01*
X101103Y12053D01*
X101078Y12037D01*
X101070D01*
X100792Y11938D01*
X100505Y11864D01*
X100217Y11815D01*
X99947Y11783D01*
X99816Y11766D01*
X99701Y11758D01*
X99603Y11750D01*
X99512D01*
X99439Y11742D01*
X99340D01*
X99045Y11758D01*
X98774Y11791D01*
X98528Y11832D01*
X98413Y11864D01*
X98315Y11889D01*
X98217Y11914D01*
X98135Y11947D01*
X98061Y11971D01*
X98004Y11987D01*
X97954Y12012D01*
X97922Y12020D01*
X97897Y12037D01*
X97889D01*
X97659Y12160D01*
X97462Y12291D01*
X97290Y12430D01*
X97151Y12561D01*
X97036Y12684D01*
X96962Y12775D01*
X96929Y12816D01*
X96913Y12840D01*
X96896Y12857D01*
Y12865D01*
X96831Y12963D01*
X96782Y13070D01*
X96692Y13267D01*
X96626Y13455D01*
X96585Y13627D01*
X96560Y13783D01*
X96552Y13841D01*
Y13898D01*
X96544Y13939D01*
Y13972D01*
Y13988D01*
Y13996D01*
X96560Y14218D01*
X96593Y14423D01*
X96642Y14603D01*
X96700Y14759D01*
X96765Y14890D01*
X96790Y14948D01*
X96815Y14989D01*
X96831Y15021D01*
X96847Y15046D01*
X96864Y15062D01*
Y15071D01*
X96929Y15153D01*
X96995Y15235D01*
X97151Y15390D01*
X97307Y15522D01*
X97470Y15628D01*
X97610Y15718D01*
X97676Y15759D01*
X97733Y15784D01*
X97774Y15809D01*
X97807Y15825D01*
X97831Y15842D01*
X97839D01*
X97930Y15882D01*
X98045Y15923D01*
X98159Y15964D01*
X98290Y16005D01*
X98569Y16079D01*
X98848Y16153D01*
X98979Y16194D01*
X99102Y16219D01*
X99217Y16251D01*
X99316Y16268D01*
X99397Y16292D01*
X99455Y16309D01*
X99496Y16317D01*
X99512D01*
X99734Y16366D01*
X99931Y16424D01*
X100103Y16473D01*
X100267Y16522D01*
X100406Y16571D01*
X100529Y16612D01*
X100636Y16653D01*
X100726Y16694D01*
X100800Y16735D01*
X100865Y16768D01*
X100915Y16793D01*
X100955Y16817D01*
X100988Y16842D01*
X101005Y16858D01*
X101021Y16867D01*
X101119Y16973D01*
X101185Y17080D01*
X101234Y17195D01*
X101275Y17301D01*
X101292Y17391D01*
X101300Y17465D01*
X101308Y17514D01*
Y17523D01*
Y17531D01*
X101300Y17621D01*
X101292Y17703D01*
X101242Y17851D01*
X101177Y17990D01*
X101103Y18105D01*
X101029Y18203D01*
X100964Y18277D01*
X100915Y18318D01*
X100906Y18334D01*
X100898D01*
X100816Y18392D01*
X100718Y18449D01*
X100513Y18531D01*
X100300Y18588D01*
X100078Y18629D01*
X99980Y18646D01*
X99881Y18654D01*
X99799Y18662D01*
X99726D01*
X99660Y18670D01*
X99422D01*
X99274Y18654D01*
X99135Y18638D01*
X99004Y18613D01*
X98889Y18588D01*
X98782Y18556D01*
X98684Y18523D01*
X98594Y18490D01*
X98520Y18449D01*
X98454Y18416D01*
X98397Y18383D01*
X98348Y18359D01*
X98315Y18334D01*
X98282Y18318D01*
X98274Y18310D01*
X98266Y18301D01*
X98184Y18228D01*
X98110Y18154D01*
X97995Y17982D01*
X97897Y17801D01*
X97831Y17629D01*
X97782Y17473D01*
X97766Y17408D01*
X97749Y17342D01*
X97741Y17293D01*
Y17260D01*
X97733Y17235D01*
Y17227D01*
X96773Y17301D01*
X96798Y17547D01*
X96847Y17768D01*
X96905Y17973D01*
X96970Y18146D01*
X97011Y18219D01*
X97036Y18293D01*
X97069Y18351D01*
X97093Y18400D01*
X97118Y18441D01*
X97134Y18465D01*
X97142Y18482D01*
X97151Y18490D01*
X97290Y18679D01*
X97446Y18834D01*
X97610Y18974D01*
X97774Y19089D01*
X97913Y19171D01*
X97979Y19204D01*
X98028Y19236D01*
X98069Y19261D01*
X98110Y19269D01*
X98127Y19286D01*
X98135D01*
X98381Y19376D01*
X98635Y19449D01*
X98889Y19499D01*
X99119Y19532D01*
X99225Y19540D01*
X99316Y19548D01*
X99406Y19556D01*
X99480Y19564D01*
X99619D01*
X99898Y19556D01*
D02*
G37*
G36*
X82998Y16711D02*
X83096Y16834D01*
X83202Y16940D01*
X83309Y17030D01*
X83407Y17112D01*
X83498Y17178D01*
X83563Y17219D01*
X83613Y17252D01*
X83621Y17260D01*
X83629D01*
X83776Y17334D01*
X83932Y17383D01*
X84080Y17424D01*
X84219Y17449D01*
X84334Y17465D01*
X84433Y17473D01*
X84637D01*
X84760Y17457D01*
X84990Y17416D01*
X85195Y17358D01*
X85375Y17293D01*
X85457Y17260D01*
X85523Y17227D01*
X85589Y17194D01*
X85638Y17170D01*
X85679Y17145D01*
X85712Y17129D01*
X85728Y17121D01*
X85736Y17112D01*
X85933Y16965D01*
X86097Y16801D01*
X86237Y16637D01*
X86351Y16465D01*
X86441Y16317D01*
X86474Y16251D01*
X86507Y16202D01*
X86523Y16153D01*
X86540Y16120D01*
X86556Y16096D01*
Y16087D01*
X86646Y15833D01*
X86712Y15571D01*
X86761Y15325D01*
X86794Y15095D01*
X86802Y14989D01*
X86810Y14890D01*
X86819Y14808D01*
Y14734D01*
X86827Y14677D01*
Y14636D01*
Y14603D01*
Y14595D01*
X86810Y14292D01*
X86778Y14013D01*
X86761Y13882D01*
X86737Y13759D01*
X86704Y13644D01*
X86679Y13537D01*
X86655Y13447D01*
X86622Y13357D01*
X86597Y13283D01*
X86581Y13226D01*
X86556Y13176D01*
X86548Y13144D01*
X86532Y13119D01*
Y13111D01*
X86409Y12881D01*
X86269Y12676D01*
X86130Y12504D01*
X85991Y12365D01*
X85868Y12250D01*
X85818Y12209D01*
X85769Y12168D01*
X85728Y12143D01*
X85703Y12119D01*
X85687Y12110D01*
X85679Y12102D01*
X85572Y12037D01*
X85466Y11987D01*
X85261Y11897D01*
X85056Y11832D01*
X84867Y11791D01*
X84785Y11774D01*
X84711Y11758D01*
X84646Y11750D01*
X84588D01*
X84539Y11741D01*
X84474D01*
X84285Y11750D01*
X84113Y11774D01*
X83957Y11815D01*
X83801Y11873D01*
X83662Y11930D01*
X83539Y11996D01*
X83424Y12069D01*
X83317Y12151D01*
X83227Y12225D01*
X83153Y12299D01*
X83088Y12365D01*
X83030Y12430D01*
X82989Y12479D01*
X82956Y12520D01*
X82940Y12545D01*
X82932Y12553D01*
Y11864D01*
X82071D01*
Y19433D01*
X82998D01*
Y16711D01*
D02*
G37*
G36*
X76224Y17465D02*
X76405Y17449D01*
X76569Y17416D01*
X76733Y17375D01*
X76889Y17334D01*
X77028Y17276D01*
X77159Y17227D01*
X77274Y17170D01*
X77389Y17112D01*
X77479Y17055D01*
X77561Y16998D01*
X77635Y16957D01*
X77684Y16916D01*
X77725Y16883D01*
X77750Y16866D01*
X77758Y16858D01*
X77905Y16711D01*
X78036Y16555D01*
X78151Y16383D01*
X78250Y16202D01*
X78324Y16014D01*
X78397Y15825D01*
X78455Y15636D01*
X78496Y15456D01*
X78528Y15284D01*
X78561Y15128D01*
X78578Y14980D01*
X78586Y14849D01*
X78594Y14751D01*
X78602Y14669D01*
Y14620D01*
Y14611D01*
Y14603D01*
X78594Y14349D01*
X78570Y14111D01*
X78537Y13890D01*
X78496Y13685D01*
X78438Y13496D01*
X78381Y13324D01*
X78315Y13168D01*
X78250Y13021D01*
X78184Y12898D01*
X78118Y12783D01*
X78061Y12693D01*
X78004Y12619D01*
X77963Y12553D01*
X77930Y12512D01*
X77905Y12488D01*
X77897Y12479D01*
X77758Y12348D01*
X77610Y12233D01*
X77463Y12135D01*
X77307Y12053D01*
X77151Y11979D01*
X76995Y11922D01*
X76847Y11873D01*
X76700Y11832D01*
X76560Y11807D01*
X76437Y11782D01*
X76323Y11766D01*
X76224Y11750D01*
X76142D01*
X76085Y11741D01*
X76036D01*
X75773Y11758D01*
X75527Y11791D01*
X75306Y11848D01*
X75199Y11873D01*
X75109Y11905D01*
X75019Y11938D01*
X74945Y11963D01*
X74879Y11996D01*
X74822Y12020D01*
X74773Y12037D01*
X74740Y12053D01*
X74724Y12069D01*
X74716D01*
X74502Y12209D01*
X74314Y12356D01*
X74158Y12512D01*
X74027Y12668D01*
X73920Y12799D01*
X73879Y12865D01*
X73846Y12914D01*
X73822Y12955D01*
X73805Y12988D01*
X73789Y13004D01*
Y13012D01*
X73731Y13135D01*
X73682Y13258D01*
X73600Y13529D01*
X73543Y13808D01*
X73510Y14070D01*
X73494Y14193D01*
X73485Y14308D01*
X73477Y14415D01*
Y14505D01*
X73469Y14579D01*
Y14628D01*
Y14669D01*
Y14677D01*
X73477Y14915D01*
X73502Y15144D01*
X73535Y15358D01*
X73584Y15554D01*
X73633Y15735D01*
X73699Y15899D01*
X73764Y16055D01*
X73830Y16194D01*
X73896Y16317D01*
X73961Y16424D01*
X74027Y16514D01*
X74076Y16588D01*
X74125Y16653D01*
X74158Y16694D01*
X74182Y16719D01*
X74191Y16727D01*
X74330Y16858D01*
X74478Y16973D01*
X74625Y17071D01*
X74781Y17162D01*
X74937Y17227D01*
X75085Y17293D01*
X75240Y17342D01*
X75380Y17383D01*
X75519Y17408D01*
X75642Y17432D01*
X75749Y17449D01*
X75847Y17465D01*
X75929D01*
X75986Y17473D01*
X76036D01*
X76224Y17465D01*
D02*
G37*
G36*
X19808Y17465D02*
X19989Y17449D01*
X20153Y17416D01*
X20317Y17375D01*
X20472Y17334D01*
X20612Y17276D01*
X20743Y17227D01*
X20858Y17170D01*
X20973Y17112D01*
X21063Y17055D01*
X21145Y16998D01*
X21219Y16957D01*
X21268Y16916D01*
X21309Y16883D01*
X21334Y16866D01*
X21342Y16858D01*
X21489Y16711D01*
X21621Y16555D01*
X21735Y16383D01*
X21834Y16202D01*
X21907Y16014D01*
X21981Y15825D01*
X22039Y15636D01*
X22080Y15456D01*
X22113Y15284D01*
X22145Y15128D01*
X22162Y14980D01*
X22170Y14849D01*
X22178Y14751D01*
X22186Y14669D01*
Y14620D01*
Y14611D01*
Y14603D01*
X22178Y14349D01*
X22153Y14111D01*
X22121Y13890D01*
X22080Y13685D01*
X22022Y13496D01*
X21965Y13324D01*
X21899Y13168D01*
X21834Y13021D01*
X21768Y12898D01*
X21702Y12783D01*
X21645Y12693D01*
X21588Y12619D01*
X21547Y12553D01*
X21514Y12512D01*
X21489Y12488D01*
X21481Y12479D01*
X21342Y12348D01*
X21194Y12233D01*
X21046Y12135D01*
X20891Y12053D01*
X20735Y11979D01*
X20579Y11922D01*
X20432Y11873D01*
X20284Y11832D01*
X20144Y11807D01*
X20021Y11782D01*
X19907Y11766D01*
X19808Y11750D01*
X19726D01*
X19669Y11741D01*
X19620D01*
X19357Y11758D01*
X19111Y11791D01*
X18890Y11848D01*
X18783Y11873D01*
X18693Y11905D01*
X18603Y11938D01*
X18529Y11963D01*
X18463Y11996D01*
X18406Y12020D01*
X18357Y12037D01*
X18324Y12053D01*
X18308Y12069D01*
X18300D01*
X18086Y12209D01*
X17898Y12356D01*
X17742Y12512D01*
X17611Y12668D01*
X17504Y12799D01*
X17463Y12865D01*
X17430Y12914D01*
X17406Y12955D01*
X17389Y12988D01*
X17373Y13004D01*
Y13012D01*
X17315Y13135D01*
X17266Y13258D01*
X17184Y13529D01*
X17127Y13808D01*
X17094Y14070D01*
X17078Y14193D01*
X17070Y14308D01*
X17061Y14415D01*
Y14505D01*
X17053Y14579D01*
Y14628D01*
Y14669D01*
Y14677D01*
X17061Y14915D01*
X17086Y15144D01*
X17119Y15358D01*
X17168Y15554D01*
X17217Y15735D01*
X17283Y15899D01*
X17348Y16055D01*
X17414Y16194D01*
X17480Y16317D01*
X17545Y16424D01*
X17611Y16514D01*
X17660Y16588D01*
X17709Y16653D01*
X17742Y16694D01*
X17766Y16719D01*
X17775Y16727D01*
X17914Y16858D01*
X18062Y16973D01*
X18209Y17071D01*
X18365Y17162D01*
X18521Y17227D01*
X18668Y17293D01*
X18824Y17342D01*
X18964Y17383D01*
X19103Y17408D01*
X19226Y17432D01*
X19333Y17449D01*
X19431Y17465D01*
X19513D01*
X19570Y17473D01*
X19620D01*
X19808Y17465D01*
D02*
G37*
G36*
X1265779Y201057D02*
X1265082D01*
Y201926D01*
X1265779D01*
Y201057D01*
D02*
G37*
G36*
X1290567Y199974D02*
X1290707Y199941D01*
X1290830Y199892D01*
X1290936Y199843D01*
X1291018Y199786D01*
X1291076Y199736D01*
X1291108Y199704D01*
X1291125Y199687D01*
X1291215Y199572D01*
X1291272Y199449D01*
X1291322Y199326D01*
X1291354Y199212D01*
X1291371Y199113D01*
X1291379Y199031D01*
X1291387Y198998D01*
Y198974D01*
Y198966D01*
Y198957D01*
Y196038D01*
X1291371Y195874D01*
X1291338Y195718D01*
X1291289Y195587D01*
X1291231Y195481D01*
X1291182Y195390D01*
X1291133Y195325D01*
X1291100Y195284D01*
X1291084Y195267D01*
X1290961Y195169D01*
X1290838Y195095D01*
X1290707Y195038D01*
X1290592Y195005D01*
X1290485Y194980D01*
X1290395Y194972D01*
X1290362Y194964D01*
X1289198D01*
Y193652D01*
X1290625D01*
Y194308D01*
X1291305D01*
Y194267D01*
Y194226D01*
Y194119D01*
X1291313Y194078D01*
Y194037D01*
Y194013D01*
Y194005D01*
Y193931D01*
Y193857D01*
Y193800D01*
Y193750D01*
Y193718D01*
Y193693D01*
Y193677D01*
Y193668D01*
X1291305Y193562D01*
X1291289Y193472D01*
X1291256Y193390D01*
X1291215Y193324D01*
X1291174Y193267D01*
X1291125Y193217D01*
X1291067Y193176D01*
X1291018Y193144D01*
X1290903Y193103D01*
X1290813Y193078D01*
X1290780D01*
X1290748Y193070D01*
X1289116D01*
X1289009Y193078D01*
X1288919Y193094D01*
X1288837Y193127D01*
X1288771Y193160D01*
X1288714Y193209D01*
X1288665Y193258D01*
X1288624Y193316D01*
X1288591Y193373D01*
X1288550Y193480D01*
X1288525Y193578D01*
Y193611D01*
X1288517Y193644D01*
Y193660D01*
Y193668D01*
Y199958D01*
X1289198D01*
Y199818D01*
X1289395Y199851D01*
X1289567Y199876D01*
X1289714Y199900D01*
X1289854Y199917D01*
X1289969Y199933D01*
X1290067Y199950D01*
X1290149Y199958D01*
X1290215Y199966D01*
X1290272Y199974D01*
X1290313Y199982D01*
X1290354D01*
X1290379Y199991D01*
X1290411D01*
X1290567Y199974D01*
D02*
G37*
G36*
X1272921Y199958D02*
X1273003Y199941D01*
X1273077Y199909D01*
X1273142Y199876D01*
X1273191Y199827D01*
X1273232Y199777D01*
X1273298Y199671D01*
X1273339Y199564D01*
X1273355Y199474D01*
X1273364Y199433D01*
Y199408D01*
Y199392D01*
Y199384D01*
Y198547D01*
X1272699D01*
Y199392D01*
X1271232D01*
Y197891D01*
X1272880D01*
X1272978Y197883D01*
X1273060Y197867D01*
X1273134Y197834D01*
X1273191Y197793D01*
X1273249Y197752D01*
X1273290Y197695D01*
X1273355Y197588D01*
X1273388Y197481D01*
X1273413Y197383D01*
X1273421Y197350D01*
Y197317D01*
Y197301D01*
Y197293D01*
Y195522D01*
X1273413Y195415D01*
X1273396Y195325D01*
X1273372Y195251D01*
X1273331Y195177D01*
X1273290Y195120D01*
X1273241Y195079D01*
X1273191Y195038D01*
X1273142Y195005D01*
X1273036Y194964D01*
X1272954Y194939D01*
X1272913D01*
X1272888Y194931D01*
X1272740D01*
X1272609Y194939D01*
X1272478Y194948D01*
X1272347Y194964D01*
X1272232Y194972D01*
X1272142Y194980D01*
X1272109D01*
X1272084Y194989D01*
X1272060D01*
X1271904Y195013D01*
X1271756Y195030D01*
X1271625Y195054D01*
X1271502Y195071D01*
X1271396Y195079D01*
X1271314Y195095D01*
X1271289D01*
X1271264Y195103D01*
X1271248D01*
Y194964D01*
X1270567D01*
Y199376D01*
X1270576Y199482D01*
X1270592Y199572D01*
X1270625Y199646D01*
X1270666Y199712D01*
X1270707Y199769D01*
X1270764Y199818D01*
X1270813Y199859D01*
X1270871Y199892D01*
X1270977Y199933D01*
X1271076Y199958D01*
X1271109D01*
X1271141Y199966D01*
X1272831D01*
X1272921Y199958D01*
D02*
G37*
G36*
X1268493Y194956D02*
X1267870D01*
X1266631Y199966D01*
X1267312D01*
X1268181Y196022D01*
X1269034Y199966D01*
X1269739D01*
X1268493Y194956D01*
D02*
G37*
G36*
X1260309Y195005D02*
X1260818Y193070D01*
X1260145D01*
X1259645Y195005D01*
X1258440Y199966D01*
X1259120D01*
X1259989Y196022D01*
X1260834Y199966D01*
X1261539D01*
X1260309Y195005D01*
D02*
G37*
G36*
X1280826Y202992D02*
X1280916Y202975D01*
X1280981Y202943D01*
X1281047Y202918D01*
X1281096Y202885D01*
X1281129Y202852D01*
X1281154Y202836D01*
X1281162Y202828D01*
X1281219Y202762D01*
X1281260Y202688D01*
X1281285Y202623D01*
X1281301Y202557D01*
X1281318Y202492D01*
X1281326Y202442D01*
Y202410D01*
Y202401D01*
Y195554D01*
X1281318Y195464D01*
X1281301Y195374D01*
X1281277Y195308D01*
X1281244Y195243D01*
X1281211Y195194D01*
X1281186Y195161D01*
X1281170Y195136D01*
X1281162Y195128D01*
X1281096Y195071D01*
X1281022Y195030D01*
X1280957Y195005D01*
X1280883Y194989D01*
X1280826Y194972D01*
X1280776Y194964D01*
X1278669D01*
X1278579Y194972D01*
X1278489Y194989D01*
X1278415Y195013D01*
X1278357Y195046D01*
X1278308Y195079D01*
X1278275Y195103D01*
X1278251Y195120D01*
X1278243Y195128D01*
X1278185Y195194D01*
X1278144Y195267D01*
X1278111Y195333D01*
X1278095Y195407D01*
X1278079Y195464D01*
X1278070Y195513D01*
Y195546D01*
Y195554D01*
Y198990D01*
X1279653Y198990D01*
Y198375D01*
X1278792D01*
Y195595D01*
X1280612D01*
Y202369D01*
X1278792D01*
Y200565D01*
X1278070Y200565D01*
Y202401D01*
X1278079Y202492D01*
X1278095Y202582D01*
X1278128Y202656D01*
X1278152Y202713D01*
X1278185Y202762D01*
X1278218Y202795D01*
X1278234Y202820D01*
X1278243Y202828D01*
X1278308Y202885D01*
X1278382Y202926D01*
X1278448Y202959D01*
X1278513Y202975D01*
X1278579Y202992D01*
X1278628Y203000D01*
X1280735D01*
X1280826Y202992D01*
D02*
G37*
G36*
X1286910Y199958D02*
X1287000Y199941D01*
X1287074Y199909D01*
X1287148Y199876D01*
X1287205Y199827D01*
X1287246Y199777D01*
X1287287Y199720D01*
X1287320Y199671D01*
X1287361Y199556D01*
X1287386Y199458D01*
Y199425D01*
X1287394Y199392D01*
Y199376D01*
Y199367D01*
Y195554D01*
X1287386Y195448D01*
X1287369Y195358D01*
X1287336Y195284D01*
X1287304Y195210D01*
X1287254Y195153D01*
X1287205Y195112D01*
X1287156Y195071D01*
X1287099Y195038D01*
X1286992Y194997D01*
X1286894Y194972D01*
X1286861D01*
X1286828Y194964D01*
X1285196D01*
X1285090Y194972D01*
X1284999Y194989D01*
X1284917Y195013D01*
X1284852Y195054D01*
X1284794Y195095D01*
X1284745Y195144D01*
X1284704Y195202D01*
X1284671Y195251D01*
X1284630Y195358D01*
X1284606Y195448D01*
Y195489D01*
X1284598Y195513D01*
Y195530D01*
Y195538D01*
Y196448D01*
X1285262D01*
Y195538D01*
X1286730D01*
Y197342D01*
X1284835D01*
X1284598Y197580D01*
Y199367D01*
X1284606Y199474D01*
X1284622Y199564D01*
X1284655Y199646D01*
X1284696Y199712D01*
X1284737Y199769D01*
X1284794Y199818D01*
X1284844Y199859D01*
X1284901Y199892D01*
X1285008Y199933D01*
X1285106Y199958D01*
X1285139Y199966D01*
X1286803D01*
X1286910Y199958D01*
D02*
G37*
G36*
X1306516Y202992D02*
X1306606Y202975D01*
X1306680Y202943D01*
X1306754Y202902D01*
X1306811Y202861D01*
X1306852Y202803D01*
X1306893Y202754D01*
X1306926Y202697D01*
X1306967Y202590D01*
X1306992Y202492D01*
Y202459D01*
X1307000Y202426D01*
Y202410D01*
Y202401D01*
Y195554D01*
X1306992Y195448D01*
X1306975Y195358D01*
X1306943Y195284D01*
X1306910Y195210D01*
X1306861Y195153D01*
X1306811Y195112D01*
X1306762Y195071D01*
X1306705Y195038D01*
X1306598Y194997D01*
X1306500Y194972D01*
X1306467D01*
X1306434Y194964D01*
X1302941D01*
X1302834Y194972D01*
X1302744Y194989D01*
X1302662Y195021D01*
X1302597Y195054D01*
X1302539Y195103D01*
X1302490Y195153D01*
X1302449Y195202D01*
X1302416Y195259D01*
X1302375Y195366D01*
X1302351Y195464D01*
X1302342Y195497D01*
Y195530D01*
Y195546D01*
Y195554D01*
Y202401D01*
X1302351Y202508D01*
X1302367Y202598D01*
X1302400Y202680D01*
X1302433Y202746D01*
X1302482Y202803D01*
X1302531Y202852D01*
X1302588Y202893D01*
X1302638Y202926D01*
X1302752Y202967D01*
X1302851Y202992D01*
X1302884D01*
X1302916Y203000D01*
X1306410D01*
X1306516Y202992D01*
D02*
G37*
G36*
X1299005Y194964D02*
X1296373D01*
Y195595D01*
X1298292D01*
Y198728D01*
X1296570D01*
Y199367D01*
X1298292D01*
Y202369D01*
X1296406D01*
Y203000D01*
X1299005D01*
Y194964D01*
D02*
G37*
G36*
X1275061Y199991D02*
X1275176Y199982D01*
X1275282Y199966D01*
X1275373Y199958D01*
X1275455Y199941D01*
X1275504Y199933D01*
X1275520D01*
X1275651Y199909D01*
X1275774Y199892D01*
X1275889Y199876D01*
X1275988Y199851D01*
X1276078Y199843D01*
X1276143Y199827D01*
X1276184Y199818D01*
X1276201D01*
Y199966D01*
X1276881D01*
Y194964D01*
X1276201D01*
Y199302D01*
X1274946Y199359D01*
Y198318D01*
X1274274D01*
Y199400D01*
X1274282Y199507D01*
X1274298Y199597D01*
X1274331Y199679D01*
X1274364Y199745D01*
X1274405Y199802D01*
X1274454Y199851D01*
X1274503Y199892D01*
X1274561Y199925D01*
X1274659Y199966D01*
X1274749Y199991D01*
X1274790Y199999D01*
X1274946D01*
X1275061Y199991D01*
D02*
G37*
G36*
X1265762Y194964D02*
X1265090D01*
Y199966D01*
X1265762D01*
Y194964D01*
D02*
G37*
G36*
X1263671Y199966D02*
X1264270D01*
Y199367D01*
X1263671D01*
Y195554D01*
X1263663Y195448D01*
X1263647Y195358D01*
X1263614Y195284D01*
X1263581Y195210D01*
X1263532Y195153D01*
X1263483Y195112D01*
X1263433Y195071D01*
X1263376Y195038D01*
X1263269Y194997D01*
X1263171Y194972D01*
X1263138D01*
X1263105Y194964D01*
X1262121D01*
Y195563D01*
X1262999D01*
Y199367D01*
X1262121D01*
Y199966D01*
X1262999D01*
Y201524D01*
X1263671D01*
Y199966D01*
D02*
G37*
G36*
X1293167Y199966D02*
X1294290D01*
X1294454Y199950D01*
X1294602Y199917D01*
X1294733Y199868D01*
X1294839Y199810D01*
X1294930Y199753D01*
X1294995Y199704D01*
X1295036Y199671D01*
X1295053Y199654D01*
X1295151Y199531D01*
X1295225Y199408D01*
X1295282Y199277D01*
X1295315Y199162D01*
X1295340Y199056D01*
X1295348Y198966D01*
X1295356Y198933D01*
Y198916D01*
Y198900D01*
Y198892D01*
Y195964D01*
X1295348Y195809D01*
X1295315Y195661D01*
X1295274Y195538D01*
X1295225Y195431D01*
X1295176Y195341D01*
X1295135Y195284D01*
X1295102Y195243D01*
X1295094Y195226D01*
X1294987Y195128D01*
X1294864Y195054D01*
X1294749Y195005D01*
X1294634Y194972D01*
X1294536Y194948D01*
X1294454Y194939D01*
X1294421Y194931D01*
X1294347D01*
X1294298Y194939D01*
X1294224Y194948D01*
X1294142Y194956D01*
X1294044Y194972D01*
X1293946Y194989D01*
X1293732Y195021D01*
X1293519Y195046D01*
X1293421Y195062D01*
X1293339Y195079D01*
X1293265Y195087D01*
X1293216Y195095D01*
X1293175Y195103D01*
X1293167D01*
Y194964D01*
X1292486D01*
Y203000D01*
X1293167D01*
Y199966D01*
D02*
G37*
G36*
X1262843Y212214D02*
X1262146D01*
Y213083D01*
X1262843D01*
Y212214D01*
D02*
G37*
G36*
X1256627Y211115D02*
X1256709Y211099D01*
X1256783Y211066D01*
X1256849Y211033D01*
X1256898Y210984D01*
X1256939Y210935D01*
X1257005Y210828D01*
X1257046Y210722D01*
X1257062Y210632D01*
X1257070Y210591D01*
Y210566D01*
Y210550D01*
Y210541D01*
Y209705D01*
X1256406D01*
Y210550D01*
X1254938D01*
Y209049D01*
X1256586D01*
X1256685Y209041D01*
X1256767Y209024D01*
X1256841Y208992D01*
X1256898Y208951D01*
X1256955Y208910D01*
X1256996Y208852D01*
X1257062Y208746D01*
X1257095Y208639D01*
X1257119Y208541D01*
X1257128Y208508D01*
Y208475D01*
Y208459D01*
Y208450D01*
Y206679D01*
X1257119Y206573D01*
X1257103Y206482D01*
X1257078Y206409D01*
X1257037Y206335D01*
X1256996Y206277D01*
X1256947Y206236D01*
X1256898Y206195D01*
X1256849Y206163D01*
X1256742Y206122D01*
X1256660Y206097D01*
X1256619D01*
X1256595Y206089D01*
X1256447D01*
X1256316Y206097D01*
X1256185Y206105D01*
X1256053Y206122D01*
X1255939Y206130D01*
X1255848Y206138D01*
X1255816D01*
X1255791Y206146D01*
X1255766D01*
X1255611Y206171D01*
X1255463Y206187D01*
X1255332Y206212D01*
X1255209Y206228D01*
X1255102Y206236D01*
X1255020Y206253D01*
X1254996D01*
X1254971Y206261D01*
X1254955D01*
Y206122D01*
X1254274D01*
Y210533D01*
X1254282Y210640D01*
X1254299Y210730D01*
X1254331Y210804D01*
X1254372Y210869D01*
X1254413Y210927D01*
X1254471Y210976D01*
X1254520Y211017D01*
X1254577Y211050D01*
X1254684Y211091D01*
X1254782Y211115D01*
X1254815D01*
X1254848Y211124D01*
X1256537D01*
X1256627Y211115D01*
D02*
G37*
G36*
X1290698Y206122D02*
X1290026D01*
Y212026D01*
X1287886Y206122D01*
X1287386D01*
Y214158D01*
X1288058D01*
Y208344D01*
X1290165Y214158D01*
X1290698D01*
Y206122D01*
D02*
G37*
G36*
X1250002Y209951D02*
X1251478D01*
Y209352D01*
X1250002D01*
Y207901D01*
X1249370D01*
Y209352D01*
X1247894D01*
Y209951D01*
X1249370D01*
Y211402D01*
X1250002D01*
Y209951D01*
D02*
G37*
G36*
X1260506Y211115D02*
X1260596Y211099D01*
X1260670Y211066D01*
X1260744Y211025D01*
X1260801Y210984D01*
X1260842Y210927D01*
X1260883Y210878D01*
X1260916Y210820D01*
X1260957Y210714D01*
X1260982Y210615D01*
Y210582D01*
X1260990Y210550D01*
Y210533D01*
Y210525D01*
Y206712D01*
X1260982Y206605D01*
X1260965Y206515D01*
X1260932Y206441D01*
X1260900Y206368D01*
X1260850Y206310D01*
X1260801Y206269D01*
X1260752Y206228D01*
X1260695Y206195D01*
X1260588Y206154D01*
X1260490Y206130D01*
X1260457D01*
X1260424Y206122D01*
X1258817D01*
X1258710Y206130D01*
X1258620Y206146D01*
X1258538Y206179D01*
X1258472Y206212D01*
X1258415Y206261D01*
X1258366Y206310D01*
X1258325Y206359D01*
X1258292Y206417D01*
X1258251Y206523D01*
X1258226Y206622D01*
Y206655D01*
X1258218Y206687D01*
Y206704D01*
Y206712D01*
Y207827D01*
X1258891D01*
Y206720D01*
X1260309D01*
Y210525D01*
X1258891D01*
Y209541D01*
X1258218D01*
Y210525D01*
X1258226Y210632D01*
X1258243Y210722D01*
X1258276Y210804D01*
X1258317Y210869D01*
X1258358Y210927D01*
X1258415Y210976D01*
X1258464Y211017D01*
X1258522Y211050D01*
X1258628Y211091D01*
X1258727Y211115D01*
X1258759D01*
X1258792Y211124D01*
X1260399D01*
X1260506Y211115D01*
D02*
G37*
G36*
X1270666Y204227D02*
X1269993D01*
Y206318D01*
X1269961Y206286D01*
X1269928Y206253D01*
X1269838Y206204D01*
X1269739Y206163D01*
X1269633Y206138D01*
X1269534Y206122D01*
X1269452Y206113D01*
X1269378D01*
X1269165Y206122D01*
X1268977Y206138D01*
X1268821Y206163D01*
X1268681Y206195D01*
X1268575Y206220D01*
X1268501Y206245D01*
X1268452Y206261D01*
X1268435Y206269D01*
Y206122D01*
X1267755D01*
Y211124D01*
X1268435D01*
Y206794D01*
X1268575Y206761D01*
X1268722Y206745D01*
X1268870Y206728D01*
X1269001Y206712D01*
X1269116D01*
X1269206Y206704D01*
X1269288D01*
X1269411Y206712D01*
X1269518Y206737D01*
X1269616Y206769D01*
X1269698Y206819D01*
X1269764Y206868D01*
X1269821Y206933D01*
X1269870Y206991D01*
X1269903Y207065D01*
X1269936Y207130D01*
X1269952Y207196D01*
X1269969Y207253D01*
X1269985Y207302D01*
Y207352D01*
X1269993Y207384D01*
Y207409D01*
Y207417D01*
Y211124D01*
X1270666D01*
Y204227D01*
D02*
G37*
G36*
X1307000Y206122D02*
X1304368D01*
Y206753D01*
X1306287D01*
Y209885D01*
X1304565D01*
Y210525D01*
X1306287D01*
Y213526D01*
X1304401D01*
Y214158D01*
X1307000D01*
Y206122D01*
D02*
G37*
G36*
X1302769Y214149D02*
X1302859Y214133D01*
X1302925Y214100D01*
X1302990Y214076D01*
X1303039Y214043D01*
X1303072Y214010D01*
X1303097Y213994D01*
X1303105Y213985D01*
X1303162Y213920D01*
X1303203Y213846D01*
X1303228Y213780D01*
X1303244Y213715D01*
X1303261Y213649D01*
X1303269Y213600D01*
Y213567D01*
Y213559D01*
Y211960D01*
X1303261Y211837D01*
X1303236Y211722D01*
X1303195Y211616D01*
X1303154Y211525D01*
X1303113Y211452D01*
X1303072Y211394D01*
X1303048Y211361D01*
X1303039Y211345D01*
X1300817Y208664D01*
Y206753D01*
X1302556D01*
Y208729D01*
X1303269D01*
Y206712D01*
X1303261Y206622D01*
X1303244Y206532D01*
X1303220Y206466D01*
X1303187Y206400D01*
X1303154Y206351D01*
X1303130Y206318D01*
X1303113Y206294D01*
X1303105Y206286D01*
X1303039Y206228D01*
X1302966Y206187D01*
X1302900Y206163D01*
X1302826Y206146D01*
X1302769Y206130D01*
X1302720Y206122D01*
X1300702D01*
X1300612Y206130D01*
X1300522Y206146D01*
X1300448Y206171D01*
X1300391Y206204D01*
X1300342Y206236D01*
X1300309Y206261D01*
X1300284Y206277D01*
X1300276Y206286D01*
X1300219Y206351D01*
X1300178Y206425D01*
X1300145Y206491D01*
X1300128Y206564D01*
X1300112Y206622D01*
X1300104Y206671D01*
Y206704D01*
Y206712D01*
Y208549D01*
X1300112Y208672D01*
X1300137Y208778D01*
X1300178Y208885D01*
X1300210Y208975D01*
X1300251Y209041D01*
X1300292Y209098D01*
X1300317Y209139D01*
X1300325Y209147D01*
X1302556Y211829D01*
Y213526D01*
X1300817D01*
Y211722D01*
X1300104D01*
Y213559D01*
X1300112Y213649D01*
X1300128Y213739D01*
X1300161Y213813D01*
X1300186Y213871D01*
X1300219Y213920D01*
X1300251Y213953D01*
X1300268Y213977D01*
X1300276Y213985D01*
X1300342Y214043D01*
X1300415Y214084D01*
X1300481Y214117D01*
X1300547Y214133D01*
X1300612Y214149D01*
X1300661Y214158D01*
X1302679D01*
X1302769Y214149D01*
D02*
G37*
G36*
X1298374D02*
X1298464Y214133D01*
X1298529Y214100D01*
X1298595Y214076D01*
X1298644Y214043D01*
X1298677Y214010D01*
X1298702Y213994D01*
X1298710Y213985D01*
X1298767Y213920D01*
X1298808Y213846D01*
X1298833Y213780D01*
X1298849Y213715D01*
X1298866Y213649D01*
X1298874Y213600D01*
Y213567D01*
Y213559D01*
Y211960D01*
X1298866Y211837D01*
X1298841Y211722D01*
X1298800Y211616D01*
X1298759Y211525D01*
X1298718Y211452D01*
X1298677Y211394D01*
X1298652Y211361D01*
X1298644Y211345D01*
X1296422Y208664D01*
Y206753D01*
X1298160D01*
Y208729D01*
X1298874D01*
Y206712D01*
X1298866Y206622D01*
X1298849Y206532D01*
X1298825Y206466D01*
X1298792Y206400D01*
X1298759Y206351D01*
X1298734Y206318D01*
X1298718Y206294D01*
X1298710Y206286D01*
X1298644Y206228D01*
X1298570Y206187D01*
X1298505Y206163D01*
X1298431Y206146D01*
X1298374Y206130D01*
X1298324Y206122D01*
X1296307D01*
X1296217Y206130D01*
X1296127Y206146D01*
X1296053Y206171D01*
X1295996Y206204D01*
X1295946Y206236D01*
X1295914Y206261D01*
X1295889Y206277D01*
X1295881Y206286D01*
X1295823Y206351D01*
X1295782Y206425D01*
X1295750Y206491D01*
X1295733Y206564D01*
X1295717Y206622D01*
X1295709Y206671D01*
Y206704D01*
Y206712D01*
Y208549D01*
X1295717Y208672D01*
X1295741Y208778D01*
X1295782Y208885D01*
X1295815Y208975D01*
X1295856Y209041D01*
X1295897Y209098D01*
X1295922Y209139D01*
X1295930Y209147D01*
X1298160Y211829D01*
Y213526D01*
X1296422D01*
Y211722D01*
X1295709D01*
Y213559D01*
X1295717Y213649D01*
X1295733Y213739D01*
X1295766Y213813D01*
X1295791Y213871D01*
X1295823Y213920D01*
X1295856Y213953D01*
X1295873Y213977D01*
X1295881Y213985D01*
X1295946Y214043D01*
X1296020Y214084D01*
X1296086Y214117D01*
X1296151Y214133D01*
X1296217Y214149D01*
X1296266Y214158D01*
X1298283D01*
X1298374Y214149D01*
D02*
G37*
G36*
X1294454Y206122D02*
X1291822D01*
Y206753D01*
X1293741D01*
Y209885D01*
X1292019D01*
Y210525D01*
X1293741D01*
Y213526D01*
X1291855D01*
Y214158D01*
X1294454D01*
Y206122D01*
D02*
G37*
G36*
X1286541Y213526D02*
X1285286D01*
Y206122D01*
X1284573D01*
Y213526D01*
X1283327D01*
Y214158D01*
X1286541D01*
Y213526D01*
D02*
G37*
G36*
X1282449Y206122D02*
X1281736D01*
Y214158D01*
X1282449D01*
Y206122D01*
D02*
G37*
G36*
X1280711Y206138D02*
Y206122D01*
X1280022D01*
X1279743Y207909D01*
X1278136Y207909D01*
X1277849Y206122D01*
X1277144D01*
X1278571Y214182D01*
X1279276D01*
X1280711Y206138D01*
D02*
G37*
G36*
X1276184Y206122D02*
X1273618D01*
Y206753D01*
X1275471D01*
Y214158D01*
X1276184D01*
Y206122D01*
D02*
G37*
G36*
X1266180Y211115D02*
X1266271Y211099D01*
X1266344Y211066D01*
X1266418Y211025D01*
X1266476Y210984D01*
X1266517Y210927D01*
X1266558Y210878D01*
X1266590Y210820D01*
X1266631Y210714D01*
X1266656Y210615D01*
Y210582D01*
X1266664Y210550D01*
Y210533D01*
Y210525D01*
Y209705D01*
X1266656Y209590D01*
X1266623Y209484D01*
X1266582Y209393D01*
X1266533Y209320D01*
X1266492Y209254D01*
X1266451Y209213D01*
X1266418Y209180D01*
X1266410Y209172D01*
X1264614Y207704D01*
Y206712D01*
X1266000D01*
Y207835D01*
X1266672D01*
Y206712D01*
X1266664Y206605D01*
X1266648Y206515D01*
X1266615Y206441D01*
X1266582Y206368D01*
X1266533Y206310D01*
X1266484Y206269D01*
X1266435Y206228D01*
X1266377Y206195D01*
X1266271Y206154D01*
X1266172Y206130D01*
X1266139D01*
X1266107Y206122D01*
X1264540D01*
X1264434Y206130D01*
X1264344Y206146D01*
X1264262Y206179D01*
X1264196Y206212D01*
X1264139Y206261D01*
X1264089Y206310D01*
X1264048Y206359D01*
X1264016Y206417D01*
X1263975Y206523D01*
X1263950Y206622D01*
X1263942Y206655D01*
Y206687D01*
Y206704D01*
Y206712D01*
Y207647D01*
X1263950Y207770D01*
X1263983Y207876D01*
X1264024Y207967D01*
X1264065Y208049D01*
X1264114Y208106D01*
X1264155Y208155D01*
X1264188Y208180D01*
X1264196Y208188D01*
X1266000Y209656D01*
Y210533D01*
X1264614D01*
Y209549D01*
X1263950D01*
Y210525D01*
X1263958Y210632D01*
X1263975Y210722D01*
X1264007Y210804D01*
X1264040Y210869D01*
X1264089Y210927D01*
X1264139Y210976D01*
X1264196Y211017D01*
X1264245Y211050D01*
X1264360Y211091D01*
X1264458Y211115D01*
X1264491D01*
X1264524Y211124D01*
X1266074D01*
X1266180Y211115D01*
D02*
G37*
G36*
X1262827Y206122D02*
X1262154D01*
Y211124D01*
X1262827D01*
Y206122D01*
D02*
G37*
G36*
X1253118D02*
X1252445D01*
Y214158D01*
X1253118D01*
Y206122D01*
D02*
G37*
%LPC*%
G36*
X205809Y16711D02*
X205751D01*
X205637Y16702D01*
X205530Y16686D01*
X205432Y16661D01*
X205333Y16629D01*
X205161Y16547D01*
X205005Y16456D01*
X204882Y16358D01*
X204833Y16317D01*
X204792Y16276D01*
X204759Y16243D01*
X204735Y16219D01*
X204727Y16202D01*
X204718Y16194D01*
X204644Y16096D01*
X204579Y15981D01*
X204521Y15858D01*
X204472Y15735D01*
X204398Y15473D01*
X204341Y15210D01*
X204325Y15095D01*
X204316Y14980D01*
X204308Y14874D01*
X204300Y14784D01*
X204292Y14718D01*
Y14661D01*
Y14628D01*
Y14612D01*
X204300Y14423D01*
X204308Y14243D01*
X204333Y14078D01*
X204366Y13923D01*
X204398Y13783D01*
X204431Y13652D01*
X204472Y13529D01*
X204513Y13431D01*
X204562Y13332D01*
X204604Y13250D01*
X204636Y13185D01*
X204669Y13127D01*
X204702Y13086D01*
X204727Y13054D01*
X204735Y13037D01*
X204743Y13029D01*
X204825Y12939D01*
X204915Y12857D01*
X205005Y12783D01*
X205096Y12725D01*
X205186Y12676D01*
X205268Y12635D01*
X205432Y12570D01*
X205579Y12529D01*
X205637Y12520D01*
X205694Y12512D01*
X205735Y12504D01*
X205792D01*
X205932Y12512D01*
X206055Y12537D01*
X206178Y12570D01*
X206293Y12619D01*
X206399Y12668D01*
X206498Y12734D01*
X206588Y12791D01*
X206670Y12865D01*
X206735Y12931D01*
X206801Y12996D01*
X206858Y13054D01*
X206899Y13103D01*
X206932Y13152D01*
X206957Y13185D01*
X206973Y13209D01*
X206981Y13217D01*
X207031Y13308D01*
X207072Y13406D01*
X207104Y13513D01*
X207129Y13627D01*
X207178Y13865D01*
X207211Y14095D01*
X207219Y14210D01*
X207227Y14308D01*
X207236Y14406D01*
Y14480D01*
X207244Y14554D01*
Y14603D01*
Y14636D01*
Y14644D01*
X207236Y14825D01*
X207227Y14997D01*
X207203Y15161D01*
X207178Y15308D01*
X207137Y15440D01*
X207104Y15571D01*
X207064Y15686D01*
X207023Y15784D01*
X206981Y15874D01*
X206941Y15956D01*
X206899Y16022D01*
X206867Y16079D01*
X206842Y16120D01*
X206818Y16153D01*
X206809Y16170D01*
X206801Y16178D01*
X206719Y16268D01*
X206629Y16350D01*
X206539Y16424D01*
X206449Y16489D01*
X206358Y16538D01*
X206276Y16579D01*
X206112Y16645D01*
X205965Y16686D01*
X205907Y16694D01*
X205850Y16702D01*
X205809Y16711D01*
D02*
G37*
G36*
X182890D02*
X182833D01*
X182718Y16702D01*
X182611Y16686D01*
X182513Y16661D01*
X182414Y16629D01*
X182242Y16547D01*
X182086Y16456D01*
X181963Y16358D01*
X181914Y16317D01*
X181873Y16276D01*
X181840Y16243D01*
X181816Y16219D01*
X181807Y16202D01*
X181799Y16194D01*
X181726Y16096D01*
X181660Y15981D01*
X181603Y15858D01*
X181553Y15735D01*
X181480Y15473D01*
X181422Y15210D01*
X181406Y15095D01*
X181397Y14980D01*
X181389Y14874D01*
X181381Y14784D01*
X181373Y14718D01*
Y14661D01*
Y14628D01*
Y14612D01*
X181381Y14423D01*
X181389Y14243D01*
X181414Y14078D01*
X181447Y13923D01*
X181480Y13783D01*
X181512Y13652D01*
X181553Y13529D01*
X181594Y13431D01*
X181643Y13332D01*
X181685Y13250D01*
X181717Y13185D01*
X181750Y13127D01*
X181783Y13086D01*
X181807Y13054D01*
X181816Y13037D01*
X181824Y13029D01*
X181906Y12939D01*
X181996Y12857D01*
X182086Y12783D01*
X182176Y12725D01*
X182267Y12676D01*
X182349Y12635D01*
X182513Y12570D01*
X182660Y12529D01*
X182718Y12520D01*
X182775Y12512D01*
X182816Y12504D01*
X182873D01*
X183013Y12512D01*
X183136Y12537D01*
X183259Y12570D01*
X183374Y12619D01*
X183480Y12668D01*
X183579Y12734D01*
X183669Y12791D01*
X183751Y12865D01*
X183817Y12931D01*
X183882Y12996D01*
X183940Y13054D01*
X183981Y13103D01*
X184013Y13152D01*
X184038Y13185D01*
X184054Y13209D01*
X184063Y13217D01*
X184112Y13308D01*
X184153Y13406D01*
X184186Y13513D01*
X184210Y13627D01*
X184259Y13865D01*
X184292Y14095D01*
X184300Y14210D01*
X184309Y14308D01*
X184317Y14406D01*
Y14480D01*
X184325Y14554D01*
Y14603D01*
Y14636D01*
Y14644D01*
X184317Y14825D01*
X184309Y14997D01*
X184284Y15161D01*
X184259Y15308D01*
X184218Y15440D01*
X184186Y15571D01*
X184144Y15686D01*
X184104Y15784D01*
X184063Y15874D01*
X184021Y15956D01*
X183981Y16022D01*
X183948Y16079D01*
X183923Y16120D01*
X183898Y16153D01*
X183890Y16170D01*
X183882Y16178D01*
X183800Y16268D01*
X183710Y16350D01*
X183620Y16424D01*
X183529Y16489D01*
X183439Y16538D01*
X183357Y16579D01*
X183193Y16645D01*
X183046Y16686D01*
X182988Y16694D01*
X182931Y16702D01*
X182890Y16711D01*
D02*
G37*
G36*
X274828Y16702D02*
X274771D01*
X274656Y16694D01*
X274541Y16678D01*
X274435Y16653D01*
X274336Y16621D01*
X274156Y16538D01*
X274000Y16448D01*
X273869Y16350D01*
X273820Y16309D01*
X273779Y16268D01*
X273738Y16235D01*
X273713Y16210D01*
X273705Y16194D01*
X273697Y16186D01*
X273615Y16087D01*
X273549Y15973D01*
X273483Y15858D01*
X273434Y15735D01*
X273352Y15481D01*
X273303Y15235D01*
X273287Y15120D01*
X273270Y15013D01*
X273262Y14915D01*
X273254Y14833D01*
X273246Y14767D01*
Y14710D01*
Y14677D01*
Y14669D01*
X273254Y14480D01*
X273262Y14300D01*
X273287Y14136D01*
X273311Y13988D01*
X273344Y13849D01*
X273385Y13718D01*
X273426Y13603D01*
X273459Y13505D01*
X273500Y13414D01*
X273541Y13340D01*
X273582Y13275D01*
X273615Y13217D01*
X273639Y13176D01*
X273664Y13152D01*
X273672Y13136D01*
X273680Y13127D01*
X273762Y13037D01*
X273852Y12963D01*
X273943Y12898D01*
X274033Y12840D01*
X274123Y12799D01*
X274213Y12758D01*
X274377Y12701D01*
X274525Y12660D01*
X274590Y12652D01*
X274648Y12643D01*
X274689Y12635D01*
X274755D01*
X274869Y12643D01*
X274984Y12660D01*
X275091Y12685D01*
X275197Y12709D01*
X275378Y12791D01*
X275534Y12881D01*
X275657Y12971D01*
X275706Y13013D01*
X275755Y13054D01*
X275788Y13078D01*
X275812Y13103D01*
X275820Y13119D01*
X275829Y13127D01*
X275903Y13226D01*
X275968Y13340D01*
X276026Y13455D01*
X276075Y13578D01*
X276149Y13841D01*
X276198Y14103D01*
X276222Y14218D01*
X276231Y14333D01*
X276239Y14439D01*
X276247Y14521D01*
X276255Y14595D01*
Y14652D01*
Y14694D01*
Y14702D01*
X276247Y14882D01*
X276239Y15054D01*
X276214Y15210D01*
X276189Y15358D01*
X276157Y15489D01*
X276124Y15612D01*
X276083Y15719D01*
X276042Y15817D01*
X276001Y15907D01*
X275960Y15981D01*
X275927Y16047D01*
X275894Y16104D01*
X275870Y16145D01*
X275845Y16170D01*
X275837Y16186D01*
X275829Y16194D01*
X275747Y16284D01*
X275657Y16358D01*
X275566Y16432D01*
X275476Y16489D01*
X275394Y16538D01*
X275304Y16579D01*
X275140Y16637D01*
X274992Y16678D01*
X274927Y16686D01*
X274878Y16694D01*
X274828Y16702D01*
D02*
G37*
G36*
X36873Y16702D02*
X36815D01*
X36700Y16694D01*
X36586Y16678D01*
X36479Y16653D01*
X36380Y16620D01*
X36200Y16538D01*
X36044Y16448D01*
X35913Y16350D01*
X35864Y16309D01*
X35823Y16268D01*
X35782Y16235D01*
X35757Y16210D01*
X35749Y16194D01*
X35741Y16186D01*
X35659Y16087D01*
X35593Y15973D01*
X35528Y15858D01*
X35478Y15735D01*
X35397Y15481D01*
X35347Y15235D01*
X35331Y15120D01*
X35315Y15013D01*
X35306Y14915D01*
X35298Y14833D01*
X35290Y14767D01*
Y14710D01*
Y14677D01*
Y14669D01*
X35298Y14480D01*
X35306Y14300D01*
X35331Y14136D01*
X35355Y13988D01*
X35388Y13849D01*
X35429Y13718D01*
X35470Y13603D01*
X35503Y13504D01*
X35544Y13414D01*
X35585Y13340D01*
X35626Y13275D01*
X35659Y13217D01*
X35684Y13176D01*
X35708Y13152D01*
X35716Y13135D01*
X35724Y13127D01*
X35807Y13037D01*
X35897Y12963D01*
X35987Y12898D01*
X36077Y12840D01*
X36167Y12799D01*
X36257Y12758D01*
X36421Y12701D01*
X36569Y12660D01*
X36635Y12652D01*
X36692Y12643D01*
X36733Y12635D01*
X36799D01*
X36913Y12643D01*
X37028Y12660D01*
X37135Y12684D01*
X37242Y12709D01*
X37422Y12791D01*
X37578Y12881D01*
X37701Y12971D01*
X37750Y13012D01*
X37799Y13053D01*
X37832Y13078D01*
X37857Y13103D01*
X37865Y13119D01*
X37873Y13127D01*
X37947Y13226D01*
X38012Y13340D01*
X38070Y13455D01*
X38119Y13578D01*
X38193Y13841D01*
X38242Y14103D01*
X38267Y14218D01*
X38275Y14333D01*
X38283Y14439D01*
X38291Y14521D01*
X38299Y14595D01*
Y14652D01*
Y14693D01*
Y14702D01*
X38291Y14882D01*
X38283Y15054D01*
X38258Y15210D01*
X38234Y15358D01*
X38201Y15489D01*
X38168Y15612D01*
X38127Y15718D01*
X38086Y15817D01*
X38045Y15907D01*
X38004Y15981D01*
X37971Y16046D01*
X37938Y16104D01*
X37914Y16145D01*
X37889Y16169D01*
X37881Y16186D01*
X37873Y16194D01*
X37791Y16284D01*
X37701Y16358D01*
X37611Y16432D01*
X37520Y16489D01*
X37438Y16538D01*
X37348Y16579D01*
X37184Y16637D01*
X37036Y16678D01*
X36971Y16686D01*
X36922Y16694D01*
X36873Y16702D01*
D02*
G37*
G36*
X47147Y14620D02*
X47139D01*
X47147Y14275D01*
X47155Y14062D01*
X47172Y13873D01*
X47196Y13709D01*
X47221Y13578D01*
X47245Y13480D01*
X47270Y13406D01*
X47286Y13365D01*
X47295Y13349D01*
X47377Y13201D01*
X47475Y13078D01*
X47574Y12963D01*
X47672Y12873D01*
X47770Y12799D01*
X47844Y12742D01*
X47893Y12709D01*
X47901Y12701D01*
X47910D01*
X48074Y12627D01*
X48238Y12570D01*
X48393Y12529D01*
X48549Y12504D01*
X48672Y12488D01*
X48730Y12479D01*
X48779Y12471D01*
X48869D01*
X49058Y12479D01*
X49222Y12512D01*
X49369Y12553D01*
X49484Y12594D01*
X49574Y12643D01*
X49640Y12676D01*
X49673Y12709D01*
X49689Y12717D01*
X49779Y12816D01*
X49853Y12914D01*
X49902Y13021D01*
X49935Y13119D01*
X49951Y13201D01*
X49960Y13275D01*
X49968Y13316D01*
Y13332D01*
X49960Y13422D01*
X49951Y13504D01*
X49927Y13578D01*
X49902Y13644D01*
X49886Y13701D01*
X49861Y13742D01*
X49853Y13767D01*
X49845Y13775D01*
X49788Y13849D01*
X49730Y13906D01*
X49673Y13955D01*
X49607Y14005D01*
X49558Y14037D01*
X49517Y14062D01*
X49484Y14070D01*
X49476Y14078D01*
X49369Y14119D01*
X49246Y14152D01*
X49115Y14185D01*
X48984Y14210D01*
X48861Y14234D01*
X48754Y14251D01*
X48722Y14259D01*
X48689Y14267D01*
X48664D01*
X48476Y14292D01*
X48303Y14324D01*
X48147Y14349D01*
X48000Y14382D01*
X47861Y14415D01*
X47738Y14439D01*
X47623Y14472D01*
X47516Y14497D01*
X47434Y14521D01*
X47352Y14546D01*
X47286Y14562D01*
X47237Y14587D01*
X47196Y14603D01*
X47164Y14611D01*
X47147Y14620D01*
D02*
G37*
G36*
X247932Y18793D02*
X247867D01*
X247736Y18785D01*
X247613Y18753D01*
X247506Y18720D01*
X247424Y18670D01*
X247350Y18630D01*
X247293Y18588D01*
X247260Y18556D01*
X247252Y18548D01*
X247170Y18449D01*
X247104Y18342D01*
X247063Y18236D01*
X247030Y18137D01*
X247014Y18047D01*
X246997Y17974D01*
Y17924D01*
Y17916D01*
Y17908D01*
X247006Y17793D01*
X247022Y17678D01*
X247055Y17580D01*
X247088Y17490D01*
X247120Y17424D01*
X247153Y17367D01*
X247170Y17334D01*
X247178Y17318D01*
X247219Y17268D01*
X247260Y17211D01*
X247375Y17104D01*
X247506Y16998D01*
X247637Y16907D01*
X247760Y16817D01*
X247867Y16752D01*
X247908Y16727D01*
X247940Y16711D01*
X247957Y16702D01*
X247965Y16694D01*
X248383Y17170D01*
X248449Y17252D01*
X248498Y17326D01*
X248547Y17400D01*
X248588Y17457D01*
X248613Y17506D01*
X248638Y17547D01*
X248646Y17572D01*
X248654Y17580D01*
X248687Y17654D01*
X248703Y17719D01*
X248720Y17785D01*
X248736Y17842D01*
Y17883D01*
X248744Y17916D01*
Y17941D01*
Y17949D01*
X248736Y18080D01*
X248703Y18195D01*
X248662Y18293D01*
X248621Y18383D01*
X248572Y18449D01*
X248539Y18507D01*
X248506Y18539D01*
X248498Y18548D01*
X248400Y18630D01*
X248293Y18687D01*
X248186Y18736D01*
X248088Y18761D01*
X247998Y18777D01*
X247932Y18793D01*
D02*
G37*
G36*
X248351Y15604D02*
X246661Y13488D01*
X246768Y13340D01*
X246883Y13209D01*
X247006Y13094D01*
X247112Y12996D01*
X247219Y12922D01*
X247301Y12865D01*
X247334Y12840D01*
X247358Y12832D01*
X247366Y12816D01*
X247375D01*
X247539Y12734D01*
X247694Y12668D01*
X247842Y12627D01*
X247973Y12594D01*
X248080Y12578D01*
X248162Y12570D01*
X248195Y12562D01*
X248236D01*
X248359Y12570D01*
X248474Y12586D01*
X248580Y12611D01*
X248678Y12635D01*
X248859Y12717D01*
X249007Y12808D01*
X249121Y12898D01*
X249170Y12939D01*
X249212Y12980D01*
X249236Y13004D01*
X249261Y13029D01*
X249269Y13045D01*
X249277Y13054D01*
X249343Y13144D01*
X249392Y13234D01*
X249482Y13406D01*
X249548Y13570D01*
X249589Y13718D01*
X249622Y13833D01*
X249630Y13882D01*
Y13923D01*
X249638Y13956D01*
Y13988D01*
Y13996D01*
Y14005D01*
X249630Y14144D01*
X249597Y14284D01*
X249556Y14415D01*
X249507Y14529D01*
X249458Y14628D01*
X249416Y14702D01*
X249384Y14751D01*
X249376Y14759D01*
Y14767D01*
X249318Y14841D01*
X249253Y14915D01*
X249105Y15063D01*
X248933Y15202D01*
X248761Y15333D01*
X248605Y15440D01*
X248539Y15489D01*
X248474Y15530D01*
X248424Y15563D01*
X248383Y15587D01*
X248359Y15596D01*
X248351Y15604D01*
D02*
G37*
G36*
X288178Y16711D02*
X288112D01*
X287981Y16702D01*
X287858Y16686D01*
X287743Y16661D01*
X287637Y16629D01*
X287440Y16538D01*
X287350Y16489D01*
X287268Y16440D01*
X287202Y16391D01*
X287137Y16342D01*
X287079Y16293D01*
X287038Y16251D01*
X287005Y16219D01*
X286972Y16194D01*
X286964Y16178D01*
X286956Y16170D01*
X286858Y16030D01*
X286776Y15866D01*
X286718Y15694D01*
X286669Y15522D01*
X286636Y15374D01*
X286628Y15308D01*
X286620Y15251D01*
X286612Y15202D01*
X286603Y15169D01*
Y15145D01*
Y15136D01*
X289670D01*
X289654Y15268D01*
X289637Y15391D01*
X289580Y15612D01*
X289498Y15809D01*
X289457Y15899D01*
X289416Y15973D01*
X289375Y16047D01*
X289334Y16104D01*
X289293Y16153D01*
X289260Y16202D01*
X289236Y16235D01*
X289211Y16260D01*
X289203Y16268D01*
X289195Y16276D01*
X289113Y16350D01*
X289022Y16424D01*
X288932Y16481D01*
X288842Y16530D01*
X288653Y16604D01*
X288490Y16653D01*
X288334Y16686D01*
X288276Y16694D01*
X288219Y16702D01*
X288178Y16711D01*
D02*
G37*
G36*
X262906Y16711D02*
X262840D01*
X262709Y16702D01*
X262586Y16686D01*
X262471Y16661D01*
X262364Y16629D01*
X262168Y16538D01*
X262077Y16489D01*
X261995Y16440D01*
X261930Y16391D01*
X261864Y16342D01*
X261807Y16293D01*
X261766Y16251D01*
X261733Y16219D01*
X261700Y16194D01*
X261692Y16178D01*
X261684Y16170D01*
X261585Y16030D01*
X261503Y15866D01*
X261446Y15694D01*
X261397Y15522D01*
X261364Y15374D01*
X261356Y15308D01*
X261348Y15251D01*
X261339Y15202D01*
X261331Y15169D01*
Y15145D01*
Y15136D01*
X264398D01*
X264382Y15268D01*
X264365Y15391D01*
X264308Y15612D01*
X264226Y15809D01*
X264185Y15899D01*
X264144Y15973D01*
X264103Y16047D01*
X264062Y16104D01*
X264021Y16153D01*
X263988Y16202D01*
X263963Y16235D01*
X263939Y16260D01*
X263931Y16268D01*
X263922Y16276D01*
X263840Y16350D01*
X263750Y16424D01*
X263660Y16481D01*
X263570Y16530D01*
X263381Y16604D01*
X263217Y16653D01*
X263061Y16686D01*
X263004Y16694D01*
X262947Y16702D01*
X262906Y16711D01*
D02*
G37*
G36*
X220594D02*
X220528D01*
X220397Y16702D01*
X220274Y16686D01*
X220159Y16661D01*
X220052Y16629D01*
X219855Y16538D01*
X219765Y16489D01*
X219683Y16440D01*
X219618Y16391D01*
X219552Y16342D01*
X219495Y16293D01*
X219454Y16251D01*
X219421Y16219D01*
X219388Y16194D01*
X219380Y16178D01*
X219372Y16170D01*
X219273Y16030D01*
X219191Y15866D01*
X219134Y15694D01*
X219085Y15522D01*
X219052Y15374D01*
X219044Y15308D01*
X219036Y15251D01*
X219027Y15202D01*
X219019Y15169D01*
Y15145D01*
Y15136D01*
X222086D01*
X222070Y15268D01*
X222053Y15391D01*
X221996Y15612D01*
X221914Y15809D01*
X221873Y15899D01*
X221832Y15973D01*
X221791Y16047D01*
X221750Y16104D01*
X221709Y16153D01*
X221676Y16202D01*
X221651Y16235D01*
X221627Y16260D01*
X221619Y16268D01*
X221610Y16276D01*
X221528Y16350D01*
X221438Y16424D01*
X221348Y16481D01*
X221258Y16530D01*
X221069Y16604D01*
X220905Y16653D01*
X220749Y16686D01*
X220692Y16694D01*
X220635Y16702D01*
X220594Y16711D01*
D02*
G37*
G36*
X197683Y16711D02*
X197617D01*
X197486Y16702D01*
X197363Y16686D01*
X197248Y16661D01*
X197142Y16629D01*
X196945Y16538D01*
X196854Y16489D01*
X196773Y16440D01*
X196707Y16391D01*
X196641Y16342D01*
X196584Y16293D01*
X196543Y16251D01*
X196510Y16219D01*
X196477Y16194D01*
X196469Y16178D01*
X196461Y16170D01*
X196362Y16030D01*
X196281Y15866D01*
X196223Y15694D01*
X196174Y15522D01*
X196141Y15374D01*
X196133Y15308D01*
X196125Y15251D01*
X196116Y15202D01*
X196108Y15169D01*
Y15145D01*
Y15136D01*
X199175D01*
X199159Y15268D01*
X199142Y15391D01*
X199085Y15612D01*
X199003Y15809D01*
X198962Y15899D01*
X198921Y15973D01*
X198880Y16047D01*
X198839Y16104D01*
X198798Y16153D01*
X198765Y16202D01*
X198740Y16235D01*
X198716Y16260D01*
X198708Y16268D01*
X198699Y16276D01*
X198617Y16350D01*
X198527Y16424D01*
X198437Y16481D01*
X198347Y16530D01*
X198158Y16604D01*
X197994Y16653D01*
X197838Y16686D01*
X197781Y16694D01*
X197724Y16702D01*
X197683Y16711D01*
D02*
G37*
G36*
X296878Y18539D02*
X295131D01*
X294984Y18531D01*
X294845Y18523D01*
X294713Y18515D01*
X294599Y18507D01*
X294492Y18490D01*
X294393Y18474D01*
X294311Y18465D01*
X294238Y18449D01*
X294172Y18433D01*
X294123Y18416D01*
X294074Y18408D01*
X294041Y18400D01*
X294016Y18392D01*
X294008Y18383D01*
X294000D01*
X293893Y18334D01*
X293795Y18285D01*
X293615Y18154D01*
X293450Y18014D01*
X293311Y17867D01*
X293204Y17736D01*
X293155Y17678D01*
X293123Y17629D01*
X293090Y17580D01*
X293065Y17547D01*
X293057Y17531D01*
X293049Y17523D01*
X292983Y17400D01*
X292917Y17260D01*
X292819Y16973D01*
X292754Y16670D01*
X292704Y16375D01*
X292688Y16235D01*
X292671Y16112D01*
X292663Y15997D01*
Y15899D01*
X292655Y15817D01*
Y15751D01*
Y15719D01*
Y15702D01*
X292663Y15391D01*
X292688Y15112D01*
X292704Y14980D01*
X292721Y14866D01*
X292737Y14751D01*
X292754Y14652D01*
X292778Y14562D01*
X292794Y14480D01*
X292811Y14406D01*
X292827Y14349D01*
X292844Y14300D01*
X292852Y14267D01*
X292860Y14251D01*
Y14243D01*
X292942Y14029D01*
X293032Y13841D01*
X293123Y13677D01*
X293204Y13537D01*
X293286Y13431D01*
X293352Y13349D01*
X293393Y13299D01*
X293401Y13291D01*
X293409Y13283D01*
X293508Y13193D01*
X293623Y13111D01*
X293738Y13045D01*
X293844Y12988D01*
X293942Y12947D01*
X294016Y12914D01*
X294049Y12906D01*
X294074Y12898D01*
X294082Y12889D01*
X294090D01*
X294262Y12848D01*
X294451Y12816D01*
X294648Y12791D01*
X294836Y12775D01*
X295000Y12766D01*
X295074D01*
X295140Y12758D01*
X296878D01*
Y18539D01*
D02*
G37*
G36*
X237699Y18646D02*
X237625Y18400D01*
X237535Y18137D01*
X237444Y17875D01*
X237363Y17621D01*
X237321Y17506D01*
X237281Y17400D01*
X237248Y17301D01*
X237215Y17227D01*
X237190Y17154D01*
X237174Y17104D01*
X237158Y17072D01*
Y17063D01*
X236362Y14964D01*
X238945D01*
X238109Y17186D01*
X238018Y17457D01*
X237936Y17719D01*
X237863Y17965D01*
X237830Y18080D01*
X237805Y18187D01*
X237781Y18285D01*
X237756Y18375D01*
X237740Y18449D01*
X237723Y18523D01*
X237715Y18572D01*
X237707Y18613D01*
X237699Y18638D01*
Y18646D01*
D02*
G37*
G36*
X118840Y18597D02*
X116289D01*
X116150Y18580D01*
X116019Y18564D01*
X115896Y18539D01*
X115789Y18515D01*
X115691Y18482D01*
X115601Y18457D01*
X115519Y18424D01*
X115445Y18392D01*
X115387Y18359D01*
X115330Y18326D01*
X115289Y18301D01*
X115256Y18277D01*
X115232Y18260D01*
X115224Y18252D01*
X115215Y18244D01*
X115150Y18179D01*
X115084Y18105D01*
X114986Y17965D01*
X114920Y17818D01*
X114871Y17678D01*
X114838Y17555D01*
X114830Y17498D01*
Y17457D01*
X114822Y17416D01*
Y17391D01*
Y17375D01*
Y17367D01*
X114830Y17235D01*
X114855Y17104D01*
X114887Y16989D01*
X114920Y16891D01*
X114961Y16801D01*
X114994Y16744D01*
X115018Y16702D01*
X115027Y16686D01*
X115109Y16579D01*
X115207Y16481D01*
X115305Y16407D01*
X115396Y16342D01*
X115486Y16292D01*
X115551Y16260D01*
X115601Y16243D01*
X115609Y16235D01*
X115617D01*
X115773Y16186D01*
X115945Y16153D01*
X116126Y16128D01*
X116298Y16112D01*
X116454Y16104D01*
X116519D01*
X116577Y16096D01*
X118840D01*
Y18597D01*
D02*
G37*
G36*
X257207Y16702D02*
X257149D01*
X257034Y16694D01*
X256920Y16678D01*
X256813Y16653D01*
X256715Y16621D01*
X256526Y16530D01*
X256370Y16440D01*
X256247Y16342D01*
X256198Y16293D01*
X256149Y16251D01*
X256116Y16219D01*
X256091Y16194D01*
X256083Y16178D01*
X256075Y16170D01*
X255993Y16063D01*
X255927Y15948D01*
X255870Y15825D01*
X255821Y15694D01*
X255739Y15415D01*
X255690Y15153D01*
X255665Y15021D01*
X255657Y14907D01*
X255648Y14800D01*
X255640Y14702D01*
X255632Y14628D01*
Y14570D01*
Y14538D01*
Y14521D01*
X255640Y14333D01*
X255648Y14161D01*
X255673Y13996D01*
X255698Y13849D01*
X255731Y13718D01*
X255771Y13587D01*
X255813Y13472D01*
X255845Y13373D01*
X255886Y13283D01*
X255927Y13209D01*
X255968Y13144D01*
X256001Y13094D01*
X256026Y13045D01*
X256050Y13021D01*
X256059Y13004D01*
X256067Y12996D01*
X256149Y12906D01*
X256231Y12832D01*
X256321Y12766D01*
X256411Y12709D01*
X256493Y12668D01*
X256583Y12627D01*
X256747Y12570D01*
X256887Y12529D01*
X256952Y12520D01*
X257001Y12512D01*
X257051Y12504D01*
X257108D01*
X257223Y12512D01*
X257330Y12529D01*
X257428Y12553D01*
X257526Y12586D01*
X257707Y12668D01*
X257862Y12766D01*
X257985Y12857D01*
X258035Y12898D01*
X258076Y12939D01*
X258108Y12971D01*
X258141Y12996D01*
X258150Y13013D01*
X258158Y13021D01*
X258231Y13127D01*
X258305Y13242D01*
X258363Y13365D01*
X258412Y13488D01*
X258494Y13750D01*
X258543Y14005D01*
X258559Y14128D01*
X258576Y14234D01*
X258584Y14333D01*
X258592Y14423D01*
X258600Y14497D01*
Y14546D01*
Y14587D01*
Y14595D01*
X258592Y14792D01*
X258584Y14980D01*
X258559Y15145D01*
X258535Y15308D01*
X258502Y15448D01*
X258469Y15579D01*
X258436Y15702D01*
X258396Y15800D01*
X258354Y15899D01*
X258322Y15973D01*
X258289Y16047D01*
X258256Y16096D01*
X258231Y16137D01*
X258207Y16170D01*
X258199Y16186D01*
X258190Y16194D01*
X258108Y16284D01*
X258027Y16358D01*
X257936Y16432D01*
X257854Y16489D01*
X257764Y16538D01*
X257674Y16579D01*
X257510Y16637D01*
X257370Y16678D01*
X257305Y16686D01*
X257256Y16694D01*
X257207Y16702D01*
D02*
G37*
G36*
X191984Y16702D02*
X191926D01*
X191812Y16694D01*
X191697Y16678D01*
X191590Y16653D01*
X191492Y16621D01*
X191303Y16530D01*
X191147Y16440D01*
X191024Y16342D01*
X190975Y16293D01*
X190926Y16251D01*
X190893Y16219D01*
X190868Y16194D01*
X190860Y16178D01*
X190852Y16170D01*
X190770Y16063D01*
X190705Y15948D01*
X190647Y15825D01*
X190598Y15694D01*
X190516Y15415D01*
X190467Y15153D01*
X190442Y15021D01*
X190434Y14907D01*
X190426Y14800D01*
X190418Y14702D01*
X190409Y14628D01*
Y14570D01*
Y14538D01*
Y14521D01*
X190418Y14333D01*
X190426Y14161D01*
X190450Y13996D01*
X190475Y13849D01*
X190508Y13718D01*
X190549Y13587D01*
X190590Y13472D01*
X190622Y13373D01*
X190664Y13283D01*
X190705Y13209D01*
X190745Y13144D01*
X190778Y13094D01*
X190803Y13045D01*
X190828Y13021D01*
X190836Y13004D01*
X190844Y12996D01*
X190926Y12906D01*
X191008Y12832D01*
X191098Y12766D01*
X191188Y12709D01*
X191270Y12668D01*
X191360Y12627D01*
X191525Y12570D01*
X191664Y12529D01*
X191729Y12520D01*
X191779Y12512D01*
X191828Y12504D01*
X191885D01*
X192000Y12512D01*
X192107Y12529D01*
X192205Y12553D01*
X192304Y12586D01*
X192484Y12668D01*
X192640Y12766D01*
X192763Y12857D01*
X192812Y12898D01*
X192853Y12939D01*
X192886Y12971D01*
X192919Y12996D01*
X192927Y13013D01*
X192935Y13021D01*
X193009Y13127D01*
X193082Y13242D01*
X193140Y13365D01*
X193189Y13488D01*
X193271Y13750D01*
X193320Y14005D01*
X193337Y14128D01*
X193353Y14234D01*
X193361Y14333D01*
X193369Y14423D01*
X193378Y14497D01*
Y14546D01*
Y14587D01*
Y14595D01*
X193369Y14792D01*
X193361Y14980D01*
X193337Y15145D01*
X193312Y15308D01*
X193279Y15448D01*
X193246Y15579D01*
X193214Y15702D01*
X193173Y15800D01*
X193132Y15899D01*
X193099Y15973D01*
X193066Y16047D01*
X193033Y16096D01*
X193009Y16137D01*
X192984Y16170D01*
X192976Y16186D01*
X192968Y16194D01*
X192886Y16284D01*
X192804Y16358D01*
X192713Y16432D01*
X192631Y16489D01*
X192541Y16538D01*
X192451Y16579D01*
X192287Y16637D01*
X192148Y16678D01*
X192082Y16686D01*
X192033Y16694D01*
X191984Y16702D01*
D02*
G37*
G36*
X124809Y18703D02*
X124621D01*
X124481Y18687D01*
X124227Y18646D01*
X123997Y18580D01*
X123899Y18548D01*
X123801Y18515D01*
X123711Y18474D01*
X123637Y18441D01*
X123571Y18408D01*
X123514Y18375D01*
X123465Y18351D01*
X123432Y18334D01*
X123415Y18326D01*
X123407Y18318D01*
X123194Y18162D01*
X123013Y17990D01*
X122858Y17818D01*
X122727Y17645D01*
X122628Y17490D01*
X122587Y17424D01*
X122554Y17367D01*
X122530Y17317D01*
X122513Y17285D01*
X122497Y17260D01*
Y17252D01*
X122390Y16981D01*
X122308Y16711D01*
X122251Y16440D01*
X122218Y16186D01*
X122202Y16071D01*
X122194Y15964D01*
X122185Y15874D01*
Y15792D01*
X122177Y15727D01*
Y15677D01*
Y15645D01*
Y15636D01*
X122185Y15374D01*
X122210Y15120D01*
X122243Y14890D01*
X122292Y14669D01*
X122349Y14464D01*
X122407Y14283D01*
X122480Y14111D01*
X122546Y13964D01*
X122612Y13824D01*
X122677Y13710D01*
X122743Y13611D01*
X122800Y13529D01*
X122850Y13464D01*
X122882Y13422D01*
X122907Y13390D01*
X122915Y13382D01*
X123055Y13242D01*
X123202Y13119D01*
X123358Y13021D01*
X123514Y12930D01*
X123670Y12848D01*
X123825Y12783D01*
X123973Y12734D01*
X124120Y12693D01*
X124252Y12660D01*
X124383Y12635D01*
X124489Y12619D01*
X124588Y12611D01*
X124670Y12603D01*
X124727Y12594D01*
X124776D01*
X124981Y12603D01*
X125170Y12627D01*
X125359Y12668D01*
X125531Y12717D01*
X125695Y12775D01*
X125842Y12840D01*
X125990Y12914D01*
X126113Y12988D01*
X126228Y13054D01*
X126326Y13127D01*
X126417Y13193D01*
X126490Y13250D01*
X126548Y13299D01*
X126589Y13340D01*
X126613Y13365D01*
X126621Y13373D01*
X126753Y13529D01*
X126859Y13693D01*
X126958Y13865D01*
X127040Y14046D01*
X127113Y14226D01*
X127171Y14398D01*
X127220Y14579D01*
X127261Y14751D01*
X127294Y14907D01*
X127310Y15054D01*
X127327Y15186D01*
X127343Y15300D01*
Y15399D01*
X127351Y15473D01*
Y15514D01*
Y15530D01*
X127343Y15842D01*
X127319Y16128D01*
X127278Y16391D01*
X127228Y16629D01*
X127171Y16850D01*
X127113Y17047D01*
X127040Y17227D01*
X126966Y17391D01*
X126900Y17523D01*
X126827Y17645D01*
X126769Y17744D01*
X126704Y17826D01*
X126663Y17883D01*
X126621Y17932D01*
X126597Y17957D01*
X126589Y17965D01*
X126441Y18096D01*
X126285Y18211D01*
X126129Y18310D01*
X125974Y18392D01*
X125826Y18465D01*
X125670Y18523D01*
X125523Y18572D01*
X125383Y18613D01*
X125252Y18638D01*
X125137Y18662D01*
X125031Y18679D01*
X124941Y18695D01*
X124858D01*
X124809Y18703D01*
D02*
G37*
G36*
X84482Y16702D02*
X84424D01*
X84310Y16694D01*
X84195Y16678D01*
X84088Y16653D01*
X83990Y16620D01*
X83801Y16530D01*
X83645Y16440D01*
X83522Y16342D01*
X83473Y16292D01*
X83424Y16251D01*
X83391Y16219D01*
X83367Y16194D01*
X83358Y16178D01*
X83350Y16169D01*
X83268Y16063D01*
X83202Y15948D01*
X83145Y15825D01*
X83096Y15694D01*
X83014Y15415D01*
X82965Y15153D01*
X82940Y15021D01*
X82932Y14907D01*
X82924Y14800D01*
X82916Y14702D01*
X82907Y14628D01*
Y14570D01*
Y14538D01*
Y14521D01*
X82916Y14333D01*
X82924Y14160D01*
X82948Y13996D01*
X82973Y13849D01*
X83006Y13718D01*
X83047Y13586D01*
X83088Y13472D01*
X83121Y13373D01*
X83161Y13283D01*
X83202Y13209D01*
X83244Y13144D01*
X83276Y13094D01*
X83301Y13045D01*
X83325Y13021D01*
X83334Y13004D01*
X83342Y12996D01*
X83424Y12906D01*
X83506Y12832D01*
X83596Y12766D01*
X83686Y12709D01*
X83768Y12668D01*
X83859Y12627D01*
X84022Y12570D01*
X84162Y12529D01*
X84228Y12520D01*
X84277Y12512D01*
X84326Y12504D01*
X84383D01*
X84498Y12512D01*
X84605Y12529D01*
X84703Y12553D01*
X84802Y12586D01*
X84982Y12668D01*
X85138Y12766D01*
X85261Y12857D01*
X85310Y12898D01*
X85351Y12939D01*
X85384Y12971D01*
X85417Y12996D01*
X85425Y13012D01*
X85433Y13021D01*
X85507Y13127D01*
X85580Y13242D01*
X85638Y13365D01*
X85687Y13488D01*
X85769Y13750D01*
X85818Y14005D01*
X85835Y14128D01*
X85851Y14234D01*
X85859Y14333D01*
X85868Y14423D01*
X85876Y14497D01*
Y14546D01*
Y14587D01*
Y14595D01*
X85868Y14792D01*
X85859Y14980D01*
X85835Y15144D01*
X85810Y15308D01*
X85777Y15448D01*
X85745Y15579D01*
X85712Y15702D01*
X85671Y15800D01*
X85630Y15899D01*
X85597Y15973D01*
X85564Y16046D01*
X85531Y16096D01*
X85507Y16137D01*
X85482Y16169D01*
X85474Y16186D01*
X85466Y16194D01*
X85384Y16284D01*
X85302Y16358D01*
X85211Y16432D01*
X85129Y16489D01*
X85039Y16538D01*
X84949Y16579D01*
X84785Y16637D01*
X84646Y16678D01*
X84580Y16686D01*
X84531Y16694D01*
X84482Y16702D01*
D02*
G37*
G36*
X76101D02*
X76036D01*
X75913Y16694D01*
X75790Y16678D01*
X75675Y16653D01*
X75568Y16620D01*
X75371Y16538D01*
X75199Y16440D01*
X75134Y16391D01*
X75068Y16342D01*
X75019Y16301D01*
X74970Y16260D01*
X74937Y16227D01*
X74912Y16202D01*
X74896Y16186D01*
X74888Y16178D01*
X74806Y16071D01*
X74732Y15964D01*
X74674Y15841D01*
X74617Y15718D01*
X74568Y15587D01*
X74535Y15456D01*
X74478Y15210D01*
X74461Y15095D01*
X74445Y14989D01*
X74437Y14890D01*
X74428Y14800D01*
X74420Y14734D01*
Y14677D01*
Y14644D01*
Y14636D01*
X74428Y14439D01*
X74437Y14259D01*
X74461Y14087D01*
X74494Y13931D01*
X74527Y13783D01*
X74568Y13652D01*
X74609Y13529D01*
X74650Y13431D01*
X74699Y13332D01*
X74740Y13250D01*
X74781Y13185D01*
X74814Y13127D01*
X74847Y13086D01*
X74871Y13053D01*
X74879Y13037D01*
X74888Y13029D01*
X74978Y12939D01*
X75068Y12857D01*
X75166Y12783D01*
X75257Y12725D01*
X75355Y12676D01*
X75454Y12635D01*
X75634Y12570D01*
X75790Y12529D01*
X75863Y12520D01*
X75921Y12512D01*
X75970Y12504D01*
X76036D01*
X76167Y12512D01*
X76282Y12529D01*
X76405Y12553D01*
X76511Y12586D01*
X76708Y12668D01*
X76872Y12766D01*
X76946Y12807D01*
X77012Y12857D01*
X77061Y12898D01*
X77110Y12939D01*
X77143Y12971D01*
X77167Y12996D01*
X77184Y13012D01*
X77192Y13021D01*
X77274Y13127D01*
X77340Y13242D01*
X77405Y13365D01*
X77454Y13488D01*
X77536Y13750D01*
X77594Y14013D01*
X77610Y14128D01*
X77627Y14242D01*
X77635Y14341D01*
X77643Y14431D01*
X77651Y14505D01*
Y14554D01*
Y14595D01*
Y14603D01*
X77643Y14792D01*
X77635Y14972D01*
X77610Y15136D01*
X77577Y15292D01*
X77544Y15431D01*
X77504Y15563D01*
X77463Y15677D01*
X77421Y15784D01*
X77381Y15874D01*
X77340Y15956D01*
X77298Y16022D01*
X77266Y16079D01*
X77233Y16120D01*
X77208Y16153D01*
X77200Y16169D01*
X77192Y16178D01*
X77102Y16268D01*
X77012Y16350D01*
X76913Y16424D01*
X76815Y16481D01*
X76716Y16530D01*
X76626Y16571D01*
X76437Y16637D01*
X76282Y16678D01*
X76208Y16686D01*
X76151Y16694D01*
X76101Y16702D01*
D02*
G37*
G36*
X19685Y16702D02*
X19620D01*
X19497Y16694D01*
X19374Y16678D01*
X19259Y16653D01*
X19152Y16620D01*
X18956Y16538D01*
X18783Y16440D01*
X18718Y16391D01*
X18652Y16342D01*
X18603Y16301D01*
X18554Y16260D01*
X18521Y16227D01*
X18496Y16202D01*
X18480Y16186D01*
X18472Y16178D01*
X18390Y16071D01*
X18316Y15964D01*
X18259Y15841D01*
X18201Y15718D01*
X18152Y15587D01*
X18119Y15456D01*
X18062Y15210D01*
X18045Y15095D01*
X18029Y14989D01*
X18021Y14890D01*
X18012Y14800D01*
X18004Y14734D01*
Y14677D01*
Y14644D01*
Y14636D01*
X18012Y14439D01*
X18021Y14259D01*
X18045Y14087D01*
X18078Y13931D01*
X18111Y13783D01*
X18152Y13652D01*
X18193Y13529D01*
X18234Y13431D01*
X18283Y13332D01*
X18324Y13250D01*
X18365Y13185D01*
X18398Y13127D01*
X18431Y13086D01*
X18455Y13053D01*
X18463Y13037D01*
X18472Y13029D01*
X18562Y12939D01*
X18652Y12857D01*
X18751Y12783D01*
X18841Y12725D01*
X18939Y12676D01*
X19038Y12635D01*
X19218Y12570D01*
X19374Y12529D01*
X19447Y12520D01*
X19505Y12512D01*
X19554Y12504D01*
X19620D01*
X19751Y12512D01*
X19866Y12529D01*
X19989Y12553D01*
X20095Y12586D01*
X20292Y12668D01*
X20456Y12766D01*
X20530Y12807D01*
X20595Y12857D01*
X20645Y12898D01*
X20694Y12939D01*
X20727Y12971D01*
X20751Y12996D01*
X20768Y13012D01*
X20776Y13021D01*
X20858Y13127D01*
X20923Y13242D01*
X20989Y13365D01*
X21038Y13488D01*
X21120Y13750D01*
X21178Y14013D01*
X21194Y14128D01*
X21211Y14242D01*
X21219Y14341D01*
X21227Y14431D01*
X21235Y14505D01*
Y14554D01*
Y14595D01*
Y14603D01*
X21227Y14792D01*
X21219Y14972D01*
X21194Y15136D01*
X21161Y15292D01*
X21128Y15431D01*
X21088Y15563D01*
X21046Y15677D01*
X21005Y15784D01*
X20965Y15874D01*
X20923Y15956D01*
X20883Y16022D01*
X20850Y16079D01*
X20817Y16120D01*
X20792Y16153D01*
X20784Y16169D01*
X20776Y16178D01*
X20686Y16268D01*
X20595Y16350D01*
X20497Y16424D01*
X20399Y16481D01*
X20300Y16530D01*
X20210Y16571D01*
X20021Y16637D01*
X19866Y16678D01*
X19792Y16686D01*
X19735Y16694D01*
X19685Y16702D01*
D02*
G37*
G36*
X1290198Y199392D02*
X1290067D01*
X1290010Y199384D01*
X1289944D01*
X1289788Y199376D01*
X1289624Y199367D01*
X1289460Y199351D01*
X1289386D01*
X1289329Y199343D01*
X1289272D01*
X1289231Y199335D01*
X1289198D01*
Y195563D01*
X1290149D01*
X1290247Y195571D01*
X1290329Y195587D01*
X1290403Y195612D01*
X1290469Y195653D01*
X1290526Y195694D01*
X1290567Y195743D01*
X1290633Y195850D01*
X1290674Y195956D01*
X1290698Y196046D01*
X1290707Y196087D01*
Y196112D01*
Y196128D01*
Y196137D01*
Y198810D01*
X1290698Y198916D01*
X1290682Y198998D01*
X1290657Y199080D01*
X1290616Y199146D01*
X1290575Y199203D01*
X1290526Y199253D01*
X1290477Y199285D01*
X1290428Y199318D01*
X1290321Y199359D01*
X1290239Y199384D01*
X1290198Y199392D01*
D02*
G37*
G36*
X1272757Y197358D02*
X1271232D01*
Y195587D01*
X1272757Y195554D01*
Y197358D01*
D02*
G37*
G36*
X1286730Y199392D02*
X1285262D01*
Y197883D01*
X1286730D01*
Y199392D01*
D02*
G37*
G36*
X1306606Y202639D02*
X1302736D01*
Y195325D01*
X1306606D01*
Y202639D01*
D02*
G37*
%LPD*%
G36*
X1305409Y201245D02*
X1305508Y201204D01*
X1305573Y201139D01*
X1305614Y201073D01*
X1305647Y201007D01*
X1305655Y200942D01*
X1305663Y200901D01*
Y200893D01*
Y200884D01*
Y197096D01*
X1305655Y197030D01*
X1305647Y196981D01*
X1305606Y196891D01*
X1305540Y196834D01*
X1305475Y196784D01*
X1305409Y196760D01*
X1305344Y196752D01*
X1305303Y196743D01*
X1304064D01*
X1303999Y196752D01*
X1303941Y196760D01*
X1303843Y196801D01*
X1303777Y196858D01*
X1303736Y196924D01*
X1303704Y196981D01*
X1303695Y197039D01*
X1303687Y197080D01*
Y197096D01*
Y198277D01*
X1304212D01*
Y197219D01*
X1305139D01*
Y200778D01*
X1304212D01*
Y199810D01*
X1303687D01*
Y200884D01*
Y200950D01*
X1303704Y201007D01*
X1303745Y201106D01*
X1303810Y201171D01*
X1303876Y201212D01*
X1303941Y201245D01*
X1304007Y201253D01*
X1304048Y201262D01*
X1305352D01*
X1305409Y201245D01*
D02*
G37*
%LPC*%
G36*
X1294167Y199367D02*
X1293167D01*
Y195587D01*
X1293314Y195579D01*
X1293437Y195571D01*
X1293552Y195563D01*
X1293659Y195554D01*
X1293749Y195546D01*
X1293823D01*
X1293888Y195538D01*
X1293995D01*
X1294028Y195530D01*
X1294118D01*
X1294216Y195538D01*
X1294298Y195554D01*
X1294372Y195579D01*
X1294438Y195620D01*
X1294495Y195661D01*
X1294536Y195710D01*
X1294602Y195817D01*
X1294643Y195923D01*
X1294667Y196014D01*
X1294675Y196055D01*
Y196079D01*
Y196096D01*
Y196104D01*
Y198785D01*
X1294667Y198892D01*
X1294651Y198974D01*
X1294626Y199056D01*
X1294585Y199121D01*
X1294544Y199179D01*
X1294495Y199228D01*
X1294446Y199261D01*
X1294397Y199294D01*
X1294290Y199335D01*
X1294208Y199359D01*
X1294167Y199367D01*
D02*
G37*
G36*
X1256463Y208516D02*
X1254938D01*
Y206745D01*
X1256463Y206712D01*
Y208516D01*
D02*
G37*
G36*
X1278940Y212895D02*
X1278234Y208541D01*
X1279653Y208541D01*
X1278940Y212895D01*
D02*
G37*
%LPD*%
D14*
X70500Y415500D02*
D03*
X426000Y55000D02*
D03*
X674000D02*
D03*
X960000Y19000D02*
D03*
X1557000Y18000D02*
D03*
X1356000Y130000D02*
D03*
X1190000D02*
D03*
X958000Y134000D02*
D03*
X181300D02*
D03*
X1525000Y415000D02*
D03*
X1275000D02*
D03*
X985000D02*
D03*
X665000D02*
D03*
X365000D02*
D03*
D15*
X1080058Y207824D02*
D03*
X1040688D02*
D03*
X123758Y132825D02*
D03*
X84388D02*
D03*
X984388Y57824D02*
D03*
X1023758D02*
D03*
X234388D02*
D03*
X273758D02*
D03*
X46888D02*
D03*
X86258D02*
D03*
X140588D02*
D03*
X179958D02*
D03*
X796888D02*
D03*
X836258D02*
D03*
X1078188D02*
D03*
X1117558D02*
D03*
X890688D02*
D03*
X930058D02*
D03*
X1061258Y132825D02*
D03*
X1021888D02*
D03*
X105058Y207824D02*
D03*
X65688D02*
D03*
X1089358Y357824D02*
D03*
X1049988D02*
D03*
X1501858Y57924D02*
D03*
X1462488D02*
D03*
X1669675Y265058D02*
D03*
Y225688D02*
D03*
Y115058D02*
D03*
Y75688D02*
D03*
X555058Y57824D02*
D03*
X515688D02*
D03*
X787488Y357824D02*
D03*
X826858D02*
D03*
X112488D02*
D03*
X151858D02*
D03*
X187488D02*
D03*
X226858D02*
D03*
X262488D02*
D03*
X301858D02*
D03*
X337488D02*
D03*
X376858D02*
D03*
X412488D02*
D03*
X451858D02*
D03*
X487488D02*
D03*
X526858D02*
D03*
X562488D02*
D03*
X601858D02*
D03*
X637488D02*
D03*
X676858D02*
D03*
X712488D02*
D03*
X751858D02*
D03*
X937488D02*
D03*
X976858D02*
D03*
X168788Y207824D02*
D03*
X208158D02*
D03*
X974988Y282824D02*
D03*
X1014358D02*
D03*
X506288Y132825D02*
D03*
X545658D02*
D03*
X843788Y207824D02*
D03*
X883158D02*
D03*
X731288Y132825D02*
D03*
X770658D02*
D03*
X356288D02*
D03*
X395658D02*
D03*
X1181288Y282824D02*
D03*
X1220658D02*
D03*
X1256288Y57824D02*
D03*
X1295658D02*
D03*
X318788Y207824D02*
D03*
X358158D02*
D03*
X1256288Y282824D02*
D03*
X1295658D02*
D03*
X37488Y470325D02*
D03*
X76858D02*
D03*
X299988Y282824D02*
D03*
X339358D02*
D03*
X187488Y470325D02*
D03*
X226858D02*
D03*
X262488D02*
D03*
X301858D02*
D03*
X337488D02*
D03*
X376858D02*
D03*
X412488D02*
D03*
X451858D02*
D03*
X524988Y470425D02*
D03*
X564358D02*
D03*
X599988D02*
D03*
X639358D02*
D03*
X674988D02*
D03*
X714358D02*
D03*
X749988D02*
D03*
X789358D02*
D03*
X862488Y470325D02*
D03*
X901858D02*
D03*
X937488D02*
D03*
X976858D02*
D03*
X1012488D02*
D03*
X1051858D02*
D03*
X1087488D02*
D03*
X1126858D02*
D03*
X899988Y282824D02*
D03*
X939358D02*
D03*
X393788Y207824D02*
D03*
X433158D02*
D03*
X806288Y132825D02*
D03*
X845658D02*
D03*
X468788Y207824D02*
D03*
X508158D02*
D03*
X1256288Y357824D02*
D03*
X1295658D02*
D03*
X543788Y207824D02*
D03*
X583158D02*
D03*
X1181288Y357824D02*
D03*
X1220658D02*
D03*
X674988Y282824D02*
D03*
X714358D02*
D03*
X618788Y207824D02*
D03*
X658158D02*
D03*
X693788D02*
D03*
X733158D02*
D03*
X1181288Y57824D02*
D03*
X1220658D02*
D03*
X768788Y207824D02*
D03*
X808158D02*
D03*
X656288Y132825D02*
D03*
X695658D02*
D03*
X581288D02*
D03*
X620658D02*
D03*
X1425088D02*
D03*
X1464458D02*
D03*
X1499988D02*
D03*
X1539358D02*
D03*
X1574988D02*
D03*
X1614358D02*
D03*
X1424988Y207824D02*
D03*
X1464358D02*
D03*
X1499988D02*
D03*
X1539358D02*
D03*
X1574988D02*
D03*
X1614358D02*
D03*
X1424988Y282824D02*
D03*
X1464358D02*
D03*
X1499988D02*
D03*
X1539358D02*
D03*
X1574988D02*
D03*
X1614358D02*
D03*
X1499988Y357824D02*
D03*
X1539358D02*
D03*
X1574988Y57824D02*
D03*
X1614358D02*
D03*
X1424988Y357824D02*
D03*
X1464358D02*
D03*
X1574988D02*
D03*
X1614358D02*
D03*
X1649988D02*
D03*
X1689358D02*
D03*
X749988Y282824D02*
D03*
X789358D02*
D03*
X1331288Y470325D02*
D03*
X1370658D02*
D03*
X1331288Y282824D02*
D03*
X1370658D02*
D03*
X1331288Y357824D02*
D03*
X1370658D02*
D03*
X1181288Y470425D02*
D03*
X1220658D02*
D03*
X824988Y282824D02*
D03*
X864358D02*
D03*
X149988D02*
D03*
X189358D02*
D03*
X918788Y207824D02*
D03*
X958158D02*
D03*
X1331288Y57824D02*
D03*
X1370658D02*
D03*
X374988Y282824D02*
D03*
X414358D02*
D03*
X1256288Y470325D02*
D03*
X1295658D02*
D03*
X881288Y132825D02*
D03*
X920658D02*
D03*
X243788Y207824D02*
D03*
X283158D02*
D03*
X862488Y357824D02*
D03*
X901858D02*
D03*
X449988Y282824D02*
D03*
X489358D02*
D03*
X1256288Y132825D02*
D03*
X1295658D02*
D03*
X599988Y282824D02*
D03*
X639358D02*
D03*
X431288Y132825D02*
D03*
X470658D02*
D03*
X37488Y357824D02*
D03*
X76858D02*
D03*
X224988Y282824D02*
D03*
X264358D02*
D03*
X281288Y132825D02*
D03*
X320658D02*
D03*
X524988Y282824D02*
D03*
X564358D02*
D03*
X206288Y132825D02*
D03*
X245658D02*
D03*
X1068788Y282824D02*
D03*
X1108158D02*
D03*
X95658D02*
D03*
X56288D02*
D03*
D16*
X1075373Y197825D02*
D03*
X1050373Y187824D02*
D03*
X119073Y122825D02*
D03*
X94073Y112824D02*
D03*
X994073Y37824D02*
D03*
X1019073Y47824D02*
D03*
X244073Y37824D02*
D03*
X269073Y47824D02*
D03*
X56573Y37824D02*
D03*
X81573Y47824D02*
D03*
X150273Y37824D02*
D03*
X175273Y47824D02*
D03*
X806573Y37824D02*
D03*
X831573Y47824D02*
D03*
X1087873Y37824D02*
D03*
X1112873Y47824D02*
D03*
X900373Y37824D02*
D03*
X925373Y47824D02*
D03*
X1056573Y122825D02*
D03*
X1031573Y112824D02*
D03*
X100373Y197825D02*
D03*
X75373Y187824D02*
D03*
X1084673Y347825D02*
D03*
X1059673Y337825D02*
D03*
X1497173Y47925D02*
D03*
X1472173Y37925D02*
D03*
X1679675Y260373D02*
D03*
X1689676Y235373D02*
D03*
X1679675Y110373D02*
D03*
X1689676Y85373D02*
D03*
X550373Y47824D02*
D03*
X525373Y37824D02*
D03*
X797173Y337825D02*
D03*
X822173Y347825D02*
D03*
X122173Y337825D02*
D03*
X147173Y347825D02*
D03*
X197173Y337825D02*
D03*
X222173Y347825D02*
D03*
X272173Y337825D02*
D03*
X297173Y347825D02*
D03*
X347173Y337825D02*
D03*
X372173Y347825D02*
D03*
X422173Y337825D02*
D03*
X447173Y347825D02*
D03*
X497173Y337825D02*
D03*
X522173Y347825D02*
D03*
X572173Y337825D02*
D03*
X597173Y347825D02*
D03*
X647173Y337825D02*
D03*
X672173Y347825D02*
D03*
X722173Y337825D02*
D03*
X747173Y347825D02*
D03*
X947173Y337825D02*
D03*
X972173Y347825D02*
D03*
X178473Y187824D02*
D03*
X203473Y197825D02*
D03*
X984673Y262825D02*
D03*
X1009673Y272825D02*
D03*
X515973Y112824D02*
D03*
X540973Y122825D02*
D03*
X853473Y187824D02*
D03*
X878473Y197825D02*
D03*
X740973Y112824D02*
D03*
X765973Y122825D02*
D03*
X365973Y112824D02*
D03*
X390973Y122825D02*
D03*
X1190973Y262825D02*
D03*
X1215973Y272825D02*
D03*
X1265973Y37824D02*
D03*
X1290973Y47824D02*
D03*
X328473Y187824D02*
D03*
X353473Y197825D02*
D03*
X1265973Y262825D02*
D03*
X1290973Y272825D02*
D03*
X47173Y450324D02*
D03*
X72173Y460324D02*
D03*
X309673Y262825D02*
D03*
X334673Y272825D02*
D03*
X197173Y450324D02*
D03*
X222173Y460324D02*
D03*
X272173Y450324D02*
D03*
X297173Y460324D02*
D03*
X347173Y450324D02*
D03*
X372173Y460324D02*
D03*
X422173Y450324D02*
D03*
X447173Y460324D02*
D03*
X534673Y450424D02*
D03*
X559673Y460425D02*
D03*
X609673Y450424D02*
D03*
X634673Y460425D02*
D03*
X684673Y450424D02*
D03*
X709673Y460425D02*
D03*
X759673Y450424D02*
D03*
X784673Y460425D02*
D03*
X872173Y450324D02*
D03*
X897173Y460324D02*
D03*
X947173Y450324D02*
D03*
X972173Y460324D02*
D03*
X1022173Y450324D02*
D03*
X1047173Y460324D02*
D03*
X1097173Y450324D02*
D03*
X1122173Y460324D02*
D03*
X909673Y262825D02*
D03*
X934673Y272825D02*
D03*
X403473Y187824D02*
D03*
X428473Y197825D02*
D03*
X815973Y112824D02*
D03*
X840973Y122825D02*
D03*
X478473Y187824D02*
D03*
X503473Y197825D02*
D03*
X1265973Y337825D02*
D03*
X1290973Y347825D02*
D03*
X553473Y187824D02*
D03*
X578473Y197825D02*
D03*
X1190973Y337825D02*
D03*
X1215973Y347825D02*
D03*
X684673Y262825D02*
D03*
X709673Y272825D02*
D03*
X628473Y187824D02*
D03*
X653473Y197825D02*
D03*
X703473Y187824D02*
D03*
X728473Y197825D02*
D03*
X1190973Y37824D02*
D03*
X1215973Y47824D02*
D03*
X778473Y187824D02*
D03*
X803473Y197825D02*
D03*
X665973Y112824D02*
D03*
X690973Y122825D02*
D03*
X590973Y112824D02*
D03*
X615973Y122825D02*
D03*
X1434773Y112824D02*
D03*
X1459773Y122825D02*
D03*
X1509673Y112824D02*
D03*
X1534673Y122825D02*
D03*
X1584673Y112824D02*
D03*
X1609673Y122825D02*
D03*
X1434673Y187824D02*
D03*
X1459673Y197825D02*
D03*
X1509673Y187824D02*
D03*
X1534673Y197825D02*
D03*
X1584673Y187824D02*
D03*
X1609673Y197825D02*
D03*
X1434673Y262825D02*
D03*
X1459673Y272825D02*
D03*
X1509673Y262825D02*
D03*
X1534673Y272825D02*
D03*
X1584673Y262825D02*
D03*
X1609673Y272825D02*
D03*
X1509673Y337825D02*
D03*
X1534673Y347825D02*
D03*
X1584673Y37824D02*
D03*
X1609673Y47824D02*
D03*
X1434673Y337825D02*
D03*
X1459673Y347825D02*
D03*
X1584673Y337825D02*
D03*
X1609673Y347825D02*
D03*
X1659673Y337825D02*
D03*
X1684673Y347825D02*
D03*
X759673Y262825D02*
D03*
X784673Y272825D02*
D03*
X1340973Y450324D02*
D03*
X1365973Y460324D02*
D03*
X1340973Y262825D02*
D03*
X1365973Y272825D02*
D03*
X1340973Y337825D02*
D03*
X1365973Y347825D02*
D03*
X1190973Y450424D02*
D03*
X1215973Y460425D02*
D03*
X834673Y262825D02*
D03*
X859673Y272825D02*
D03*
X159673Y262825D02*
D03*
X184673Y272825D02*
D03*
X928473Y187824D02*
D03*
X953473Y197825D02*
D03*
X1340973Y37824D02*
D03*
X1365973Y47824D02*
D03*
X384673Y262825D02*
D03*
X409673Y272825D02*
D03*
X1265973Y450324D02*
D03*
X1290973Y460324D02*
D03*
X890973Y112824D02*
D03*
X915973Y122825D02*
D03*
X253473Y187824D02*
D03*
X278473Y197825D02*
D03*
X872173Y337825D02*
D03*
X897173Y347825D02*
D03*
X459673Y262825D02*
D03*
X484673Y272825D02*
D03*
X1265973Y112824D02*
D03*
X1290973Y122825D02*
D03*
X609673Y262825D02*
D03*
X634673Y272825D02*
D03*
X440973Y112824D02*
D03*
X465973Y122825D02*
D03*
X47173Y337825D02*
D03*
X72173Y347825D02*
D03*
X234673Y262825D02*
D03*
X259673Y272825D02*
D03*
X290973Y112824D02*
D03*
X315973Y122825D02*
D03*
X534673Y262825D02*
D03*
X559673Y272825D02*
D03*
X215973Y112824D02*
D03*
X240973Y122825D02*
D03*
X1078473Y262825D02*
D03*
X1103473Y272825D02*
D03*
X90973D02*
D03*
X65973Y262825D02*
D03*
D17*
X1060373Y207824D02*
D03*
X104073Y132825D02*
D03*
X1004073Y57824D02*
D03*
X254073D02*
D03*
X66573D02*
D03*
X160273D02*
D03*
X816573D02*
D03*
X1097873D02*
D03*
X910373D02*
D03*
X1041573Y132825D02*
D03*
X85373Y207824D02*
D03*
X1069673Y357824D02*
D03*
X1482173Y57924D02*
D03*
X1669675Y245373D02*
D03*
Y95373D02*
D03*
X535373Y57824D02*
D03*
X807173Y357824D02*
D03*
X132173D02*
D03*
X207173D02*
D03*
X282173D02*
D03*
X357173D02*
D03*
X432173D02*
D03*
X507173D02*
D03*
X582173D02*
D03*
X657173D02*
D03*
X732173D02*
D03*
X957173D02*
D03*
X188473Y207824D02*
D03*
X994673Y282824D02*
D03*
X525973Y132825D02*
D03*
X863473Y207824D02*
D03*
X750973Y132825D02*
D03*
X375973D02*
D03*
X1200973Y282824D02*
D03*
X1275973Y57824D02*
D03*
X338473Y207824D02*
D03*
X1275973Y282824D02*
D03*
X57173Y470325D02*
D03*
X319673Y282824D02*
D03*
X207173Y470325D02*
D03*
X282173D02*
D03*
X357173D02*
D03*
X432173D02*
D03*
X544673Y470425D02*
D03*
X619673D02*
D03*
X694673D02*
D03*
X769673D02*
D03*
X882173Y470325D02*
D03*
X957173D02*
D03*
X1032173D02*
D03*
X1107173D02*
D03*
X919673Y282824D02*
D03*
X413473Y207824D02*
D03*
X825973Y132825D02*
D03*
X488473Y207824D02*
D03*
X1275973Y357824D02*
D03*
X563473Y207824D02*
D03*
X1200973Y357824D02*
D03*
X694673Y282824D02*
D03*
X638473Y207824D02*
D03*
X713473D02*
D03*
X1200973Y57824D02*
D03*
X788473Y207824D02*
D03*
X675973Y132825D02*
D03*
X600973D02*
D03*
X1444773D02*
D03*
X1519673D02*
D03*
X1594673D02*
D03*
X1444673Y207824D02*
D03*
X1519673D02*
D03*
X1594673D02*
D03*
X1444673Y282824D02*
D03*
X1519673D02*
D03*
X1594673D02*
D03*
X1519673Y357824D02*
D03*
X1594673Y57824D02*
D03*
X1444673Y357824D02*
D03*
X1594673D02*
D03*
X1669673D02*
D03*
X769673Y282824D02*
D03*
X1350973Y470325D02*
D03*
Y282824D02*
D03*
Y357824D02*
D03*
X1200973Y470425D02*
D03*
X844673Y282824D02*
D03*
X169673D02*
D03*
X938473Y207824D02*
D03*
X1350973Y57824D02*
D03*
X394673Y282824D02*
D03*
X1275973Y470325D02*
D03*
X900973Y132825D02*
D03*
X263473Y207824D02*
D03*
X882173Y357824D02*
D03*
X469673Y282824D02*
D03*
X1275973Y132825D02*
D03*
X619673Y282824D02*
D03*
X450973Y132825D02*
D03*
X57173Y357824D02*
D03*
X244673Y282824D02*
D03*
X300973Y132825D02*
D03*
X544673Y282824D02*
D03*
X225973Y132825D02*
D03*
X1088473Y282824D02*
D03*
X75973D02*
D03*
D18*
X1639200Y48400D02*
D03*
X1699200D02*
D03*
Y142400D02*
D03*
X1639200D02*
D03*
Y198400D02*
D03*
X1699200D02*
D03*
Y292400D02*
D03*
X1639200D02*
D03*
X1435200Y83300D02*
D03*
Y23300D02*
D03*
X1529200D02*
D03*
Y83300D02*
D03*
X732500Y83200D02*
D03*
Y23200D02*
D03*
X338500D02*
D03*
Y83200D02*
D03*
X994600Y158300D02*
D03*
Y98300D02*
D03*
X1088600D02*
D03*
Y158300D02*
D03*
X1013300Y233300D02*
D03*
Y173300D02*
D03*
X1107300D02*
D03*
Y233300D02*
D03*
X1022700Y383300D02*
D03*
Y323300D02*
D03*
X1116700D02*
D03*
Y383300D02*
D03*
X57000Y158300D02*
D03*
Y98300D02*
D03*
X151000D02*
D03*
Y158300D02*
D03*
D19*
X1099000Y314000D02*
D03*
X1640000Y113000D02*
D03*
X1638000Y257000D02*
D03*
X1659826Y198986D02*
D03*
X1702626Y248986D02*
D03*
X1694100Y434700D02*
D03*
X373000Y499000D02*
D03*
X974000D02*
D03*
X1702626Y98985D02*
D03*
X1659626Y48985D02*
D03*
X1599626Y398986D02*
D03*
X1549626D02*
D03*
Y48985D02*
D03*
X1499626Y448985D02*
D03*
Y398986D02*
D03*
Y348986D02*
D03*
Y198986D02*
D03*
X1449626Y498985D02*
D03*
Y448985D02*
D03*
Y398986D02*
D03*
Y48985D02*
D03*
X1399626Y498985D02*
D03*
Y448985D02*
D03*
Y398986D02*
D03*
Y348986D02*
D03*
Y198986D02*
D03*
Y48985D02*
D03*
X1349626Y398986D02*
D03*
Y198986D02*
D03*
X1299626Y498985D02*
D03*
Y448985D02*
D03*
Y398986D02*
D03*
Y298986D02*
D03*
Y148986D02*
D03*
X1249626Y498985D02*
D03*
Y398986D02*
D03*
Y348986D02*
D03*
Y48985D02*
D03*
X1199626Y398986D02*
D03*
Y198986D02*
D03*
X1149626Y348986D02*
D03*
Y198986D02*
D03*
X1099626Y398986D02*
D03*
X1049626Y498985D02*
D03*
Y448985D02*
D03*
Y398986D02*
D03*
Y348986D02*
D03*
Y198986D02*
D03*
X999626Y398986D02*
D03*
X949626D02*
D03*
Y98985D02*
D03*
X899626Y498985D02*
D03*
Y448985D02*
D03*
Y398986D02*
D03*
Y48985D02*
D03*
X849626Y498985D02*
D03*
Y398986D02*
D03*
Y198986D02*
D03*
Y148986D02*
D03*
X799626Y498985D02*
D03*
Y398986D02*
D03*
Y48985D02*
D03*
X749626Y498985D02*
D03*
Y398986D02*
D03*
Y48985D02*
D03*
X699626Y448985D02*
D03*
Y198986D02*
D03*
Y148986D02*
D03*
Y48985D02*
D03*
X649626Y498985D02*
D03*
Y398986D02*
D03*
Y48985D02*
D03*
X599626Y498985D02*
D03*
Y398986D02*
D03*
Y48985D02*
D03*
X549626Y448985D02*
D03*
Y398986D02*
D03*
Y198986D02*
D03*
Y148986D02*
D03*
X499626Y498985D02*
D03*
Y398986D02*
D03*
Y48985D02*
D03*
X449626Y498985D02*
D03*
Y448985D02*
D03*
Y398986D02*
D03*
Y48985D02*
D03*
X399626Y398986D02*
D03*
Y198986D02*
D03*
Y148986D02*
D03*
Y48985D02*
D03*
X349626Y398986D02*
D03*
Y48985D02*
D03*
X299626Y498985D02*
D03*
Y448985D02*
D03*
Y398986D02*
D03*
X249626Y198986D02*
D03*
Y148986D02*
D03*
X199626Y398986D02*
D03*
X149626Y498985D02*
D03*
Y448985D02*
D03*
Y398986D02*
D03*
Y198986D02*
D03*
Y48985D02*
D03*
X99626Y498985D02*
D03*
Y298986D02*
D03*
X49626Y398986D02*
D03*
Y198986D02*
D03*
Y148986D02*
D03*
Y48985D02*
D03*
X1065000Y239000D02*
D03*
X948000D02*
D03*
X873000D02*
D03*
X798000D02*
D03*
X723000D02*
D03*
X648000D02*
D03*
X573000D02*
D03*
X498000D02*
D03*
X423000D02*
D03*
X348000D02*
D03*
X273000D02*
D03*
X198000D02*
D03*
X95000D02*
D03*
X86000Y314000D02*
D03*
X179000D02*
D03*
X254000D02*
D03*
X329000D02*
D03*
X404000D02*
D03*
X479000D02*
D03*
X554000D02*
D03*
X629000D02*
D03*
X704000D02*
D03*
X779000D02*
D03*
X854000D02*
D03*
X929000D02*
D03*
X1004000D02*
D03*
X1074000Y388000D02*
D03*
X962000D02*
D03*
X887000D02*
D03*
X811000D02*
D03*
X736000D02*
D03*
X661000D02*
D03*
X586000D02*
D03*
X511000D02*
D03*
X436000D02*
D03*
X361000D02*
D03*
X286000D02*
D03*
X211000D02*
D03*
X137000D02*
D03*
X62000D02*
D03*
X1281000Y389000D02*
D03*
X1206000D02*
D03*
X1211000Y314000D02*
D03*
X1286000D02*
D03*
X1362000D02*
D03*
X1356000Y389000D02*
D03*
X1455000Y314000D02*
D03*
X1530000D02*
D03*
X1599000Y315000D02*
D03*
X1598000Y237000D02*
D03*
X1455000Y239000D02*
D03*
X1530000D02*
D03*
X1118000Y89000D02*
D03*
X1023000D02*
D03*
X921000D02*
D03*
X827000D02*
D03*
X546000D02*
D03*
X264000D02*
D03*
X180000D02*
D03*
X86000D02*
D03*
X115000Y165000D02*
D03*
X237000D02*
D03*
X312000D02*
D03*
X387000D02*
D03*
X462000D02*
D03*
X537000D02*
D03*
X612000D02*
D03*
X686000D02*
D03*
X762000D02*
D03*
X837000D02*
D03*
X912000D02*
D03*
X1057000D02*
D03*
X1287000D02*
D03*
X1455000D02*
D03*
X1530000D02*
D03*
X1605000D02*
D03*
X1598000Y88000D02*
D03*
X1486000Y87000D02*
D03*
X1361000Y89000D02*
D03*
X1286000D02*
D03*
X1211000D02*
D03*
X1530000Y385000D02*
D03*
X1673000Y388000D02*
D03*
X1128000Y499000D02*
D03*
X227000D02*
D03*
X1449626Y389000D02*
D03*
D20*
X1666000Y437000D02*
D03*
X1656000D02*
D03*
X1632000Y395000D02*
D03*
X1647000Y372000D02*
D03*
X1599000Y96000D02*
D03*
X1636000Y460000D02*
D03*
X1631000Y465000D02*
D03*
X1391000Y460000D02*
D03*
Y348000D02*
D03*
Y273000D02*
D03*
Y48000D02*
D03*
X1315000Y460000D02*
D03*
Y348000D02*
D03*
Y273000D02*
D03*
Y123000D02*
D03*
Y48000D02*
D03*
X1697000Y452000D02*
D03*
X1704000D02*
D03*
X1711000D02*
D03*
X1239000Y460000D02*
D03*
Y348000D02*
D03*
X1239264Y272983D02*
D03*
X1239000Y48000D02*
D03*
X1147000Y460000D02*
D03*
X1117000Y348000D02*
D03*
X1132054Y272819D02*
D03*
X1072000Y460000D02*
D03*
X997000Y348000D02*
D03*
X1039000Y273000D02*
D03*
X1104000Y198000D02*
D03*
X1147000Y48000D02*
D03*
X1619000Y471000D02*
D03*
X996000Y460000D02*
D03*
X921000Y348000D02*
D03*
X958000Y273000D02*
D03*
X977000Y198000D02*
D03*
X1081000Y123000D02*
D03*
X1052000Y48000D02*
D03*
X1611000Y471000D02*
D03*
X922000Y460000D02*
D03*
X846000Y348000D02*
D03*
X884000Y273000D02*
D03*
X902000Y198000D02*
D03*
X940000Y123000D02*
D03*
X958000Y48000D02*
D03*
X1603000Y471000D02*
D03*
X810000Y460000D02*
D03*
X772000Y348000D02*
D03*
X809000Y273000D02*
D03*
X828000Y198000D02*
D03*
X865000Y123000D02*
D03*
Y48000D02*
D03*
X1595000Y471000D02*
D03*
X1587000D02*
D03*
X1579000D02*
D03*
X1711000Y472000D02*
D03*
X1704000D02*
D03*
X1697000D02*
D03*
X1619600Y420600D02*
D03*
X1645455Y444745D02*
D03*
X1626800Y413200D02*
D03*
X1712000Y407000D02*
D03*
X1706500Y401500D02*
D03*
X1704000Y493000D02*
D03*
X1697000D02*
D03*
X1711000D02*
D03*
X734000Y460000D02*
D03*
X697000Y348000D02*
D03*
X735000Y273000D02*
D03*
X753000Y198000D02*
D03*
X790000Y123000D02*
D03*
X659000Y460000D02*
D03*
X622000Y348000D02*
D03*
X659000Y273000D02*
D03*
X677000Y198000D02*
D03*
X715000Y123000D02*
D03*
X584000Y460000D02*
D03*
X470000D02*
D03*
X396000D02*
D03*
X323000D02*
D03*
X248000D02*
D03*
X546000Y348000D02*
D03*
X583000Y273000D02*
D03*
X602000Y198000D02*
D03*
X640000Y123000D02*
D03*
X470000Y348000D02*
D03*
X508000Y273000D02*
D03*
X527000Y198000D02*
D03*
X565000Y123000D02*
D03*
X577000Y48000D02*
D03*
X396000Y348000D02*
D03*
X434000Y273000D02*
D03*
X455000Y198000D02*
D03*
X492000Y123000D02*
D03*
X323000Y348000D02*
D03*
X361000Y273000D02*
D03*
X379000Y198000D02*
D03*
X417000Y123000D02*
D03*
X248000Y348000D02*
D03*
X285000Y273000D02*
D03*
X303000Y198000D02*
D03*
X342000Y123000D02*
D03*
X302000Y48000D02*
D03*
X171000Y348000D02*
D03*
X209000Y273000D02*
D03*
X228000Y198000D02*
D03*
X265000Y123000D02*
D03*
X204000Y48000D02*
D03*
X95000Y460000D02*
D03*
Y348000D02*
D03*
X131000Y273000D02*
D03*
Y198000D02*
D03*
X139000Y136000D02*
D03*
X113000Y59000D02*
D03*
X1556600Y444700D02*
D03*
X1406000Y506000D02*
D03*
X1627000Y379000D02*
D03*
X1616000D02*
D03*
X1637000Y388000D02*
D03*
X1616000D02*
D03*
X1630000Y310000D02*
D03*
X1637000Y272000D02*
D03*
X1598000Y244000D02*
D03*
X1711000Y181000D02*
D03*
X1632000Y171000D02*
D03*
X1635577Y101577D02*
D03*
X1473000Y366000D02*
D03*
Y334000D02*
D03*
Y292000D02*
D03*
X1472922Y260078D02*
D03*
X1473000Y217000D02*
D03*
Y184000D02*
D03*
Y141000D02*
D03*
Y111000D02*
D03*
X1510500Y67600D02*
D03*
X1548000Y367000D02*
D03*
Y337000D02*
D03*
Y293000D02*
D03*
Y261500D02*
D03*
Y218000D02*
D03*
Y184500D02*
D03*
Y144000D02*
D03*
X1616000Y395000D02*
D03*
X1706500Y375000D02*
D03*
X1623000Y335000D02*
D03*
X1622500Y294000D02*
D03*
X1623000Y244500D02*
D03*
Y221000D02*
D03*
Y184000D02*
D03*
Y141500D02*
D03*
X1622500Y95500D02*
D03*
Y73500D02*
D03*
X1704000Y259000D02*
D03*
X1620900Y488100D02*
D03*
Y496600D02*
D03*
X1620600Y504700D02*
D03*
Y530000D02*
D03*
Y513200D02*
D03*
Y521600D02*
D03*
D39*
X26500Y72500D02*
D03*
X20201D02*
D03*
X1390201Y491500D02*
D03*
X1396500D02*
D03*
X1643299Y530000D02*
D03*
X1637000D02*
D03*
X1643299Y521600D02*
D03*
X1637000D02*
D03*
X1643299Y513200D02*
D03*
X1637000D02*
D03*
X1643299Y504800D02*
D03*
X1637000D02*
D03*
X1643299Y496400D02*
D03*
X1637000D02*
D03*
X1643299Y488000D02*
D03*
X1637000D02*
D03*
X1606201Y530000D02*
D03*
X1612500D02*
D03*
X1606201Y521600D02*
D03*
X1612500D02*
D03*
X1606201Y513200D02*
D03*
X1612500D02*
D03*
X1606201Y504800D02*
D03*
X1612500D02*
D03*
X1606201Y496400D02*
D03*
X1612500D02*
D03*
X1606201Y488000D02*
D03*
X1612500D02*
D03*
D40*
X1050200Y229100D02*
D03*
X1070673D02*
D03*
X1070671Y222407D02*
D03*
X1050200D02*
D03*
X93900Y154100D02*
D03*
X114373D02*
D03*
X114371Y147407D02*
D03*
X93900D02*
D03*
X993900Y72407D02*
D03*
X1014371D02*
D03*
X1014373Y79100D02*
D03*
X993900D02*
D03*
X243900Y72407D02*
D03*
X264371D02*
D03*
X264373Y79100D02*
D03*
X243900D02*
D03*
X56400Y72407D02*
D03*
X76871D02*
D03*
X76873Y79100D02*
D03*
X56400D02*
D03*
X150100Y72407D02*
D03*
X170571D02*
D03*
X170573Y79100D02*
D03*
X150100D02*
D03*
X806400Y72407D02*
D03*
X826871D02*
D03*
X826873Y79100D02*
D03*
X806400D02*
D03*
X1087700Y72407D02*
D03*
X1108171D02*
D03*
X1108173Y79100D02*
D03*
X1087700D02*
D03*
X900200Y72407D02*
D03*
X920671D02*
D03*
X920673Y79100D02*
D03*
X900200D02*
D03*
X1031400Y154100D02*
D03*
X1051873D02*
D03*
X1051871Y147407D02*
D03*
X1031400D02*
D03*
X75200Y229100D02*
D03*
X95673D02*
D03*
X95671Y222407D02*
D03*
X75200D02*
D03*
X1059500Y379100D02*
D03*
X1079973D02*
D03*
X1079971Y372407D02*
D03*
X1059500D02*
D03*
X1472000Y79200D02*
D03*
X1492473D02*
D03*
X1492471Y72507D02*
D03*
X1472000D02*
D03*
X525200Y79100D02*
D03*
X545673D02*
D03*
X545671Y72407D02*
D03*
X525200D02*
D03*
X797000Y372407D02*
D03*
X817471D02*
D03*
X817473Y379100D02*
D03*
X797000D02*
D03*
X122000Y372407D02*
D03*
X142471D02*
D03*
X142473Y379100D02*
D03*
X122000D02*
D03*
X197000Y372407D02*
D03*
X217471D02*
D03*
X217473Y379100D02*
D03*
X197000D02*
D03*
X272000Y372407D02*
D03*
X292471D02*
D03*
X292473Y379100D02*
D03*
X272000D02*
D03*
X347000Y372407D02*
D03*
X367471D02*
D03*
X367473Y379100D02*
D03*
X347000D02*
D03*
X422000Y372407D02*
D03*
X442471D02*
D03*
X442473Y379100D02*
D03*
X422000D02*
D03*
X497000Y372407D02*
D03*
X517471D02*
D03*
X517473Y379100D02*
D03*
X497000D02*
D03*
X572000Y372407D02*
D03*
X592471D02*
D03*
X592473Y379100D02*
D03*
X572000D02*
D03*
X647000Y372407D02*
D03*
X667471D02*
D03*
X667473Y379100D02*
D03*
X647000D02*
D03*
X722000Y372407D02*
D03*
X742471D02*
D03*
X742473Y379100D02*
D03*
X722000D02*
D03*
X947000Y372407D02*
D03*
X967471D02*
D03*
X967473Y379100D02*
D03*
X947000D02*
D03*
X178300Y222407D02*
D03*
X198771D02*
D03*
X198773Y229100D02*
D03*
X178300D02*
D03*
X984500Y297407D02*
D03*
X1004971D02*
D03*
X1004973Y304100D02*
D03*
X984500D02*
D03*
X515800Y147407D02*
D03*
X536271D02*
D03*
X536273Y154100D02*
D03*
X515800D02*
D03*
X853300Y222407D02*
D03*
X873771D02*
D03*
X873773Y229100D02*
D03*
X853300D02*
D03*
X740800Y147407D02*
D03*
X761271D02*
D03*
X761273Y154100D02*
D03*
X740800D02*
D03*
X365800Y147407D02*
D03*
X386271D02*
D03*
X386273Y154100D02*
D03*
X365800D02*
D03*
X1190800Y297407D02*
D03*
X1211271D02*
D03*
X1211273Y304100D02*
D03*
X1190800D02*
D03*
X1265800Y72407D02*
D03*
X1286271D02*
D03*
X1286273Y79100D02*
D03*
X1265800D02*
D03*
X328300Y222407D02*
D03*
X348771D02*
D03*
X348773Y229100D02*
D03*
X328300D02*
D03*
X1265800Y297407D02*
D03*
X1286271D02*
D03*
X1286273Y304100D02*
D03*
X1265800D02*
D03*
X47000Y484907D02*
D03*
X67471D02*
D03*
X67473Y491600D02*
D03*
X47000D02*
D03*
X309500Y297407D02*
D03*
X329971D02*
D03*
X329973Y304100D02*
D03*
X309500D02*
D03*
X197000Y484907D02*
D03*
X217471D02*
D03*
X217473Y491600D02*
D03*
X197000D02*
D03*
X272000Y484907D02*
D03*
X292471D02*
D03*
X292473Y491600D02*
D03*
X272000D02*
D03*
X347000Y484907D02*
D03*
X367471D02*
D03*
X367473Y491600D02*
D03*
X347000D02*
D03*
X422000Y484907D02*
D03*
X442471D02*
D03*
X442473Y491600D02*
D03*
X422000D02*
D03*
X534500Y485007D02*
D03*
X554971D02*
D03*
X554973Y491700D02*
D03*
X534500D02*
D03*
X609500Y485007D02*
D03*
X629971D02*
D03*
X629973Y491700D02*
D03*
X609500D02*
D03*
X684500Y485007D02*
D03*
X704971D02*
D03*
X704973Y491700D02*
D03*
X684500D02*
D03*
X759500Y485007D02*
D03*
X779971D02*
D03*
X779973Y491700D02*
D03*
X759500D02*
D03*
X872000Y484907D02*
D03*
X892471D02*
D03*
X892473Y491600D02*
D03*
X872000D02*
D03*
X947000Y484907D02*
D03*
X967471D02*
D03*
X967473Y491600D02*
D03*
X947000D02*
D03*
X1022000Y484907D02*
D03*
X1042471D02*
D03*
X1042473Y491600D02*
D03*
X1022000D02*
D03*
X1097000Y484907D02*
D03*
X1117471D02*
D03*
X1117473Y491600D02*
D03*
X1097000D02*
D03*
X909500Y297407D02*
D03*
X929971D02*
D03*
X929973Y304100D02*
D03*
X909500D02*
D03*
X403300Y222407D02*
D03*
X423771D02*
D03*
X423773Y229100D02*
D03*
X403300D02*
D03*
X815800Y147407D02*
D03*
X836271D02*
D03*
X836273Y154100D02*
D03*
X815800D02*
D03*
X478300Y222407D02*
D03*
X498771D02*
D03*
X498773Y229100D02*
D03*
X478300D02*
D03*
X1265800Y372407D02*
D03*
X1286271D02*
D03*
X1286273Y379100D02*
D03*
X1265800D02*
D03*
X553300Y222407D02*
D03*
X573771D02*
D03*
X573773Y229100D02*
D03*
X553300D02*
D03*
X1190800Y372407D02*
D03*
X1211271D02*
D03*
X1211273Y379100D02*
D03*
X1190800D02*
D03*
X684500Y297407D02*
D03*
X704971D02*
D03*
X704973Y304100D02*
D03*
X684500D02*
D03*
X628300Y222407D02*
D03*
X648771D02*
D03*
X648773Y229100D02*
D03*
X628300D02*
D03*
X703300Y222407D02*
D03*
X723771D02*
D03*
X723773Y229100D02*
D03*
X703300D02*
D03*
X1190800Y72407D02*
D03*
X1211271D02*
D03*
X1211273Y79100D02*
D03*
X1190800D02*
D03*
X778300Y222407D02*
D03*
X798771D02*
D03*
X798773Y229100D02*
D03*
X778300D02*
D03*
X665800Y147407D02*
D03*
X686271D02*
D03*
X686273Y154100D02*
D03*
X665800D02*
D03*
X590800Y147407D02*
D03*
X611271D02*
D03*
X611273Y154100D02*
D03*
X590800D02*
D03*
X1434600Y147407D02*
D03*
X1455071D02*
D03*
X1455073Y154100D02*
D03*
X1434600D02*
D03*
X1509500Y147407D02*
D03*
X1529971D02*
D03*
X1529973Y154100D02*
D03*
X1509500D02*
D03*
X1584500Y147407D02*
D03*
X1604971D02*
D03*
X1604973Y154100D02*
D03*
X1584500D02*
D03*
X1434500Y222407D02*
D03*
X1454971D02*
D03*
X1454973Y229100D02*
D03*
X1434500D02*
D03*
X1509500Y222407D02*
D03*
X1529971D02*
D03*
X1529973Y229100D02*
D03*
X1509500D02*
D03*
X1584500Y222407D02*
D03*
X1604971D02*
D03*
X1604973Y229100D02*
D03*
X1584500D02*
D03*
X1434500Y297407D02*
D03*
X1454971D02*
D03*
X1454973Y304100D02*
D03*
X1434500D02*
D03*
X1509500Y297407D02*
D03*
X1529971D02*
D03*
X1529973Y304100D02*
D03*
X1509500D02*
D03*
X1584500Y297407D02*
D03*
X1604971D02*
D03*
X1604973Y304100D02*
D03*
X1584500D02*
D03*
X1509500Y372407D02*
D03*
X1529971D02*
D03*
X1529973Y379100D02*
D03*
X1509500D02*
D03*
X1584500Y72407D02*
D03*
X1604971D02*
D03*
X1604973Y79100D02*
D03*
X1584500D02*
D03*
X1434500Y372407D02*
D03*
X1454971D02*
D03*
X1454973Y379100D02*
D03*
X1434500D02*
D03*
X1584500Y372407D02*
D03*
X1604971D02*
D03*
X1604973Y379100D02*
D03*
X1584500D02*
D03*
X1659500Y372407D02*
D03*
X1679971D02*
D03*
X1679973Y379100D02*
D03*
X1659500D02*
D03*
X759500Y297407D02*
D03*
X779971D02*
D03*
X779973Y304100D02*
D03*
X759500D02*
D03*
X1340800Y484907D02*
D03*
X1361271D02*
D03*
X1361273Y491600D02*
D03*
X1340800D02*
D03*
Y297407D02*
D03*
X1361271D02*
D03*
X1361273Y304100D02*
D03*
X1340800D02*
D03*
Y372407D02*
D03*
X1361271D02*
D03*
X1361273Y379100D02*
D03*
X1340800D02*
D03*
X1190800Y485007D02*
D03*
X1211271D02*
D03*
X1211273Y491700D02*
D03*
X1190800D02*
D03*
X834500Y297407D02*
D03*
X854971D02*
D03*
X854973Y304100D02*
D03*
X834500D02*
D03*
X159500Y297407D02*
D03*
X179971D02*
D03*
X179973Y304100D02*
D03*
X159500D02*
D03*
X928300Y222407D02*
D03*
X948771D02*
D03*
X948773Y229100D02*
D03*
X928300D02*
D03*
X1340800Y72407D02*
D03*
X1361271D02*
D03*
X1361273Y79100D02*
D03*
X1340800D02*
D03*
X384500Y297407D02*
D03*
X404971D02*
D03*
X404973Y304100D02*
D03*
X384500D02*
D03*
X1265800Y484907D02*
D03*
X1286271D02*
D03*
X1286273Y491600D02*
D03*
X1265800D02*
D03*
X890800Y147407D02*
D03*
X911271D02*
D03*
X911273Y154100D02*
D03*
X890800D02*
D03*
X253300Y222407D02*
D03*
X273771D02*
D03*
X273773Y229100D02*
D03*
X253300D02*
D03*
X872000Y372407D02*
D03*
X892471D02*
D03*
X892473Y379100D02*
D03*
X872000D02*
D03*
X459500Y297407D02*
D03*
X479971D02*
D03*
X479973Y304100D02*
D03*
X459500D02*
D03*
X1265800Y147407D02*
D03*
X1286271D02*
D03*
X1286273Y154100D02*
D03*
X1265800D02*
D03*
X609500Y297407D02*
D03*
X629971D02*
D03*
X629973Y304100D02*
D03*
X609500D02*
D03*
X440800Y147407D02*
D03*
X461271D02*
D03*
X461273Y154100D02*
D03*
X440800D02*
D03*
X47000Y372407D02*
D03*
X67471D02*
D03*
X67473Y379100D02*
D03*
X47000D02*
D03*
X234500Y297407D02*
D03*
X254971D02*
D03*
X254973Y304100D02*
D03*
X234500D02*
D03*
X290800Y147407D02*
D03*
X311271D02*
D03*
X311273Y154100D02*
D03*
X290800D02*
D03*
X534500Y297407D02*
D03*
X554971D02*
D03*
X554973Y304100D02*
D03*
X534500D02*
D03*
X215800Y147407D02*
D03*
X236271D02*
D03*
X236273Y154100D02*
D03*
X215800D02*
D03*
X1078300Y297407D02*
D03*
X1098771D02*
D03*
X1098773Y304100D02*
D03*
X1078300D02*
D03*
X65800D02*
D03*
X86273D02*
D03*
X86271Y297407D02*
D03*
X65800D02*
D03*
D41*
X1037073Y187824D02*
D03*
X80773Y112824D02*
D03*
X980773Y37824D02*
D03*
X230773D02*
D03*
X43273D02*
D03*
X136973D02*
D03*
X793273D02*
D03*
X1074573D02*
D03*
X887073D02*
D03*
X1018273Y112824D02*
D03*
X62073Y187824D02*
D03*
X1046373Y337825D02*
D03*
X1458873Y37925D02*
D03*
X512073Y37824D02*
D03*
X783873Y337825D02*
D03*
X108873D02*
D03*
X183873D02*
D03*
X258873D02*
D03*
X333873D02*
D03*
X408873D02*
D03*
X483873D02*
D03*
X558873D02*
D03*
X633873D02*
D03*
X708873D02*
D03*
X933873D02*
D03*
X165173Y187824D02*
D03*
X971373Y262825D02*
D03*
X502673Y112824D02*
D03*
X840173Y187824D02*
D03*
X727673Y112824D02*
D03*
X352673D02*
D03*
X1177673Y262825D02*
D03*
X1252673Y37824D02*
D03*
X315173Y187824D02*
D03*
X1252673Y262825D02*
D03*
X33873Y450324D02*
D03*
X296373Y262825D02*
D03*
X183873Y450324D02*
D03*
X258873D02*
D03*
X333873D02*
D03*
X408873D02*
D03*
X521373Y450424D02*
D03*
X596373D02*
D03*
X671373D02*
D03*
X746373D02*
D03*
X858873Y450324D02*
D03*
X933873D02*
D03*
X1008873D02*
D03*
X1083873D02*
D03*
X896373Y262825D02*
D03*
X390173Y187824D02*
D03*
X802673Y112824D02*
D03*
X465173Y187824D02*
D03*
X1252673Y337825D02*
D03*
X540173Y187824D02*
D03*
X1177673Y337825D02*
D03*
X671373Y262825D02*
D03*
X615173Y187824D02*
D03*
X690173D02*
D03*
X1177673Y37824D02*
D03*
X765173Y187824D02*
D03*
X652673Y112824D02*
D03*
X577673D02*
D03*
X1421473D02*
D03*
X1496373D02*
D03*
X1571373D02*
D03*
X1421373Y187824D02*
D03*
X1496373D02*
D03*
X1571373D02*
D03*
X1421373Y262825D02*
D03*
X1496373D02*
D03*
X1571373D02*
D03*
X1496373Y337825D02*
D03*
X1571373Y37824D02*
D03*
X1421373Y337825D02*
D03*
X1571373D02*
D03*
X1646373D02*
D03*
X746373Y262825D02*
D03*
X1327673Y450324D02*
D03*
Y262825D02*
D03*
Y337825D02*
D03*
X1177673Y450424D02*
D03*
X821373Y262825D02*
D03*
X146373D02*
D03*
X915173Y187824D02*
D03*
X1327673Y37824D02*
D03*
X371373Y262825D02*
D03*
X1252673Y450324D02*
D03*
X877673Y112824D02*
D03*
X240173Y187824D02*
D03*
X858873Y337825D02*
D03*
X446373Y262825D02*
D03*
X1252673Y112824D02*
D03*
X596373Y262825D02*
D03*
X427673Y112824D02*
D03*
X33873Y337825D02*
D03*
X221373Y262825D02*
D03*
X277673Y112824D02*
D03*
X521373Y262825D02*
D03*
X202673Y112824D02*
D03*
X1065173Y262825D02*
D03*
X52673D02*
D03*
D42*
X1088673Y197825D02*
D03*
X132373Y122825D02*
D03*
X1032373Y47824D02*
D03*
X282373D02*
D03*
X94873D02*
D03*
X188573D02*
D03*
X844873D02*
D03*
X1126173D02*
D03*
X938673D02*
D03*
X1069873Y122825D02*
D03*
X113673Y197825D02*
D03*
X1097973Y347825D02*
D03*
X1510473Y47925D02*
D03*
X563673Y47824D02*
D03*
X835473Y347825D02*
D03*
X160473D02*
D03*
X235473D02*
D03*
X310473D02*
D03*
X385473D02*
D03*
X460473D02*
D03*
X535473D02*
D03*
X610473D02*
D03*
X685473D02*
D03*
X760473D02*
D03*
X985473D02*
D03*
X216773Y197825D02*
D03*
X1022973Y272825D02*
D03*
X554273Y122825D02*
D03*
X891773Y197825D02*
D03*
X779273Y122825D02*
D03*
X404273D02*
D03*
X1229273Y272825D02*
D03*
X1304273Y47824D02*
D03*
X366773Y197825D02*
D03*
X1304273Y272825D02*
D03*
X85473Y460324D02*
D03*
X347973Y272825D02*
D03*
X235473Y460324D02*
D03*
X310473D02*
D03*
X385473D02*
D03*
X460473D02*
D03*
X572973Y460425D02*
D03*
X647973D02*
D03*
X722973D02*
D03*
X797973D02*
D03*
X910473Y460324D02*
D03*
X985473D02*
D03*
X1060473D02*
D03*
X1135473D02*
D03*
X947973Y272825D02*
D03*
X441773Y197825D02*
D03*
X854273Y122825D02*
D03*
X516773Y197825D02*
D03*
X1304273Y347825D02*
D03*
X591773Y197825D02*
D03*
X1229273Y347825D02*
D03*
X722973Y272825D02*
D03*
X666773Y197825D02*
D03*
X741773D02*
D03*
X1229273Y47824D02*
D03*
X816773Y197825D02*
D03*
X704273Y122825D02*
D03*
X629273D02*
D03*
X1473073D02*
D03*
X1547973D02*
D03*
X1622973D02*
D03*
X1472973Y197825D02*
D03*
X1547973D02*
D03*
X1622973D02*
D03*
X1472973Y272825D02*
D03*
X1547973D02*
D03*
X1622973D02*
D03*
X1547973Y347825D02*
D03*
X1622973Y47824D02*
D03*
X1472973Y347825D02*
D03*
X1622973D02*
D03*
X1697973D02*
D03*
X797973Y272825D02*
D03*
X1379273Y460324D02*
D03*
Y272825D02*
D03*
Y347825D02*
D03*
X1229273Y460425D02*
D03*
X872973Y272825D02*
D03*
X197973D02*
D03*
X966773Y197825D02*
D03*
X1379273Y47824D02*
D03*
X422973Y272825D02*
D03*
X1304273Y460324D02*
D03*
X929273Y122825D02*
D03*
X291773Y197825D02*
D03*
X910473Y347825D02*
D03*
X497973Y272825D02*
D03*
X1304273Y122825D02*
D03*
X647973Y272825D02*
D03*
X479273Y122825D02*
D03*
X85473Y347825D02*
D03*
X272973Y272825D02*
D03*
X329273Y122825D02*
D03*
X572973Y272825D02*
D03*
X254273Y122825D02*
D03*
X1116773Y272825D02*
D03*
X104273D02*
D03*
D43*
X1648400Y235200D02*
D03*
Y255673D02*
D03*
X1655093Y255671D02*
D03*
Y235200D02*
D03*
X1648400Y85200D02*
D03*
Y105673D02*
D03*
X1655093Y105671D02*
D03*
Y85200D02*
D03*
D44*
X1689676Y222073D02*
D03*
Y72073D02*
D03*
D45*
X1679675Y273673D02*
D03*
Y123673D02*
D03*
D46*
X1692831Y504339D02*
D03*
Y414575D02*
D03*
D47*
X1683000Y482095D02*
D03*
Y484063D02*
D03*
Y497843D02*
D03*
Y495874D02*
D03*
Y493906D02*
D03*
Y491937D02*
D03*
Y489969D02*
D03*
Y488000D02*
D03*
Y486032D02*
D03*
Y480126D02*
D03*
Y478158D02*
D03*
Y476189D02*
D03*
Y474221D02*
D03*
Y472252D02*
D03*
Y470284D02*
D03*
Y468315D02*
D03*
Y466347D02*
D03*
Y464378D02*
D03*
Y462409D02*
D03*
Y460441D02*
D03*
Y458472D02*
D03*
Y456504D02*
D03*
Y454535D02*
D03*
Y452567D02*
D03*
Y450598D02*
D03*
Y448630D02*
D03*
Y446662D02*
D03*
Y444693D02*
D03*
Y442725D02*
D03*
Y440756D02*
D03*
Y438788D02*
D03*
Y436819D02*
D03*
Y434851D02*
D03*
Y432882D02*
D03*
Y430913D02*
D03*
Y428945D02*
D03*
Y426976D02*
D03*
Y425008D02*
D03*
Y423039D02*
D03*
Y421071D02*
D03*
D48*
X165000Y89000D02*
D03*
X170500Y89100D02*
D03*
X71000Y89000D02*
D03*
X76500Y89100D02*
D03*
X272000Y389500D02*
D03*
X277500Y389600D02*
D03*
X347000Y389500D02*
D03*
X352500Y389600D02*
D03*
X422000Y389500D02*
D03*
X427500Y389600D02*
D03*
X497000Y389500D02*
D03*
X502500Y389600D02*
D03*
X572000Y389500D02*
D03*
X577500Y389600D02*
D03*
X647000Y389500D02*
D03*
X652500Y389600D02*
D03*
X722000Y389500D02*
D03*
X727500Y389600D02*
D03*
X797000Y389500D02*
D03*
X802500Y389600D02*
D03*
X872000Y389500D02*
D03*
X877500Y389600D02*
D03*
X947000Y389500D02*
D03*
X952500Y389600D02*
D03*
X1059500Y389500D02*
D03*
X1065000Y389600D02*
D03*
X1191000Y389500D02*
D03*
X1196500Y389600D02*
D03*
X1266000Y389500D02*
D03*
X1271500Y389600D02*
D03*
X1584500Y389500D02*
D03*
X1590000Y389600D02*
D03*
X1659500Y389500D02*
D03*
X1665000Y389600D02*
D03*
X47000Y389500D02*
D03*
X52500Y389600D02*
D03*
X122000Y389500D02*
D03*
X127500Y389600D02*
D03*
X197000Y389500D02*
D03*
X202500Y389600D02*
D03*
X1341000Y389500D02*
D03*
X1346500Y389600D02*
D03*
X1434500Y389500D02*
D03*
X1440000Y389600D02*
D03*
X1509500Y389500D02*
D03*
X1515000Y389600D02*
D03*
X909500Y314500D02*
D03*
X915000Y314600D02*
D03*
X834500Y314500D02*
D03*
X840000Y314600D02*
D03*
X759500Y314500D02*
D03*
X765000Y314600D02*
D03*
X684500Y314500D02*
D03*
X690000Y314600D02*
D03*
X609500Y314500D02*
D03*
X615000Y314600D02*
D03*
X535000Y314500D02*
D03*
X540500Y314600D02*
D03*
X459500Y314500D02*
D03*
X465000Y314600D02*
D03*
X384500Y314500D02*
D03*
X390000Y314600D02*
D03*
X309500Y314500D02*
D03*
X315000Y314600D02*
D03*
X234500Y314500D02*
D03*
X240000Y314600D02*
D03*
X159500Y314500D02*
D03*
X165000Y314600D02*
D03*
X66000Y314500D02*
D03*
X71500Y314600D02*
D03*
X1585000Y239500D02*
D03*
X1590500Y239600D02*
D03*
X1341000Y502000D02*
D03*
X1346500Y502100D02*
D03*
X1584500Y164500D02*
D03*
X1590000Y164600D02*
D03*
X1509500Y239500D02*
D03*
X1515000Y239600D02*
D03*
X1266000Y502000D02*
D03*
X1271500Y502100D02*
D03*
X1509500Y164500D02*
D03*
X1515000Y164600D02*
D03*
X1434500Y239500D02*
D03*
X1440000Y239600D02*
D03*
X1434500Y164500D02*
D03*
X1440000Y164600D02*
D03*
X1050000Y239500D02*
D03*
X1055500Y239600D02*
D03*
X1191000Y502000D02*
D03*
X1196500Y502100D02*
D03*
X1266000Y164500D02*
D03*
X1271500Y164600D02*
D03*
X928500Y239500D02*
D03*
X934000Y239600D02*
D03*
X1097000Y502000D02*
D03*
X1102500Y502100D02*
D03*
X1031500Y164500D02*
D03*
X1037000Y164600D02*
D03*
X1022000Y502000D02*
D03*
X1027500Y502100D02*
D03*
X853500Y239500D02*
D03*
X859000Y239600D02*
D03*
X891000Y164500D02*
D03*
X896500Y164600D02*
D03*
X1584500Y89500D02*
D03*
X1590000Y89600D02*
D03*
X947000Y502000D02*
D03*
X952500Y502100D02*
D03*
X778500Y239500D02*
D03*
X784000Y239600D02*
D03*
X816000Y164500D02*
D03*
X821500Y164600D02*
D03*
X1472000Y89500D02*
D03*
X1477500Y89600D02*
D03*
X872000Y502000D02*
D03*
X877500Y502100D02*
D03*
X703500Y239500D02*
D03*
X709000Y239600D02*
D03*
X740500Y164500D02*
D03*
X746000Y164600D02*
D03*
X1340500Y89500D02*
D03*
X1346000Y89600D02*
D03*
X759500Y502000D02*
D03*
X765000Y502100D02*
D03*
X628500Y239500D02*
D03*
X634000Y239600D02*
D03*
X666000Y164500D02*
D03*
X671500Y164600D02*
D03*
X1266000Y89500D02*
D03*
X1271500Y89600D02*
D03*
X684500Y502000D02*
D03*
X690000Y502100D02*
D03*
X553500Y239500D02*
D03*
X559000Y239600D02*
D03*
X1191000Y89500D02*
D03*
X1196500Y89600D02*
D03*
X609500Y502000D02*
D03*
X615000Y502100D02*
D03*
X591000Y164500D02*
D03*
X596500Y164600D02*
D03*
X478500Y239500D02*
D03*
X484000Y239600D02*
D03*
X1102500Y89000D02*
D03*
X1108000Y89100D02*
D03*
X534500Y502000D02*
D03*
X540000Y502100D02*
D03*
X1584500Y314500D02*
D03*
X1590000Y314600D02*
D03*
X515500Y164500D02*
D03*
X521000Y164600D02*
D03*
X403500Y239500D02*
D03*
X409000Y239600D02*
D03*
X1008500Y89000D02*
D03*
X1014000Y89100D02*
D03*
X422000Y502000D02*
D03*
X427500Y502100D02*
D03*
X1509500Y314500D02*
D03*
X1515000Y314600D02*
D03*
X441000Y164500D02*
D03*
X446500Y164600D02*
D03*
X328500Y239500D02*
D03*
X334000Y239600D02*
D03*
X900000Y89500D02*
D03*
X905500Y89600D02*
D03*
X347000Y502000D02*
D03*
X352500Y502100D02*
D03*
X1434500Y314500D02*
D03*
X1440000Y314600D02*
D03*
X365500Y164500D02*
D03*
X371000Y164600D02*
D03*
X253500Y239500D02*
D03*
X259000Y239600D02*
D03*
X806500Y89500D02*
D03*
X812000Y89600D02*
D03*
X272000Y502000D02*
D03*
X277500Y502100D02*
D03*
X1340500Y314500D02*
D03*
X1346000Y314600D02*
D03*
X290500Y164500D02*
D03*
X296000Y164600D02*
D03*
X178500Y239500D02*
D03*
X184000Y239600D02*
D03*
X197000Y502000D02*
D03*
X202500Y502100D02*
D03*
X1266000Y314500D02*
D03*
X1271500Y314600D02*
D03*
X215500Y164500D02*
D03*
X221000Y164600D02*
D03*
X75000Y239500D02*
D03*
X80500Y239600D02*
D03*
X525000Y89500D02*
D03*
X530500Y89600D02*
D03*
X47000Y502000D02*
D03*
X52500Y502100D02*
D03*
X94000Y164500D02*
D03*
X99500Y164600D02*
D03*
X244000Y89500D02*
D03*
X249500Y89600D02*
D03*
X1191000Y314500D02*
D03*
X1196500Y314600D02*
D03*
X1078500Y314500D02*
D03*
X1084000Y314600D02*
D03*
X984500Y314500D02*
D03*
X990000Y314600D02*
D03*
D49*
X1637853Y84826D02*
D03*
X1637753Y90326D02*
D03*
X1637853Y235323D02*
D03*
X1637753Y240823D02*
D03*
M02*
