G04*
G04 #@! TF.GenerationSoftware,Altium Limited,Altium Designer,20.2.6 (244)*
G04*
G04 Layer_Color=128*
%FSLAX25Y25*%
%MOIN*%
G70*
G04*
G04 #@! TF.SameCoordinates,527CE9B6-EB0C-4455-B465-9FEE8890F364*
G04*
G04*
G04 #@! TF.FilePolarity,Positive*
G04*
G01*
G75*
%ADD27R,0.08661X0.07087*%
%ADD28R,0.05118X0.01181*%
%ADD29R,0.07087X0.03346*%
%ADD30R,0.07480X0.09843*%
%ADD31R,0.07480X0.09843*%
%ADD32R,0.03150X0.03799*%
%ADD33R,0.03000X0.03000*%
%ADD34R,0.03000X0.03000*%
%ADD35R,0.09843X0.07480*%
%ADD36R,0.09843X0.07480*%
%ADD37R,0.03346X0.07087*%
D27*
X1692831Y504339D02*
D03*
Y414575D02*
D03*
D28*
X1683000Y482095D02*
D03*
Y484063D02*
D03*
Y497843D02*
D03*
Y495874D02*
D03*
Y493906D02*
D03*
Y491937D02*
D03*
Y489969D02*
D03*
Y488000D02*
D03*
Y486032D02*
D03*
Y480126D02*
D03*
Y478158D02*
D03*
Y476189D02*
D03*
Y474221D02*
D03*
Y472252D02*
D03*
Y470284D02*
D03*
Y468315D02*
D03*
Y466347D02*
D03*
Y464378D02*
D03*
Y462409D02*
D03*
Y460441D02*
D03*
Y458472D02*
D03*
Y456504D02*
D03*
Y454535D02*
D03*
Y452567D02*
D03*
Y450598D02*
D03*
Y448630D02*
D03*
Y446662D02*
D03*
Y444693D02*
D03*
Y442725D02*
D03*
Y440756D02*
D03*
Y438788D02*
D03*
Y436819D02*
D03*
Y434851D02*
D03*
Y432882D02*
D03*
Y430913D02*
D03*
Y428945D02*
D03*
Y426976D02*
D03*
Y425008D02*
D03*
Y423039D02*
D03*
Y421071D02*
D03*
D29*
X272000Y491600D02*
D03*
X292473D02*
D03*
X292471Y484907D02*
D03*
X272000D02*
D03*
X534500Y304100D02*
D03*
X554973D02*
D03*
X554971Y297407D02*
D03*
X534500D02*
D03*
X56400Y79100D02*
D03*
X76873D02*
D03*
X76871Y72407D02*
D03*
X56400D02*
D03*
X1434600Y154100D02*
D03*
X1455073D02*
D03*
X1455071Y147407D02*
D03*
X1434600D02*
D03*
X243900Y72407D02*
D03*
X264371D02*
D03*
X264373Y79100D02*
D03*
X243900D02*
D03*
X1659500Y372407D02*
D03*
X1679971D02*
D03*
X1679973Y379100D02*
D03*
X1659500D02*
D03*
X215800Y147407D02*
D03*
X236271D02*
D03*
X236273Y154100D02*
D03*
X215800D02*
D03*
X290800Y147407D02*
D03*
X311271D02*
D03*
X311273Y154100D02*
D03*
X290800D02*
D03*
X47000Y372407D02*
D03*
X67471D02*
D03*
X67473Y379100D02*
D03*
X47000D02*
D03*
X234500Y297407D02*
D03*
X254971D02*
D03*
X254973Y304100D02*
D03*
X234500D02*
D03*
X440800Y147407D02*
D03*
X461271D02*
D03*
X461273Y154100D02*
D03*
X440800D02*
D03*
X1265800Y147407D02*
D03*
X1286271D02*
D03*
X1286273Y154100D02*
D03*
X1265800D02*
D03*
X609500Y297407D02*
D03*
X629971D02*
D03*
X629973Y304100D02*
D03*
X609500D02*
D03*
X459500Y297407D02*
D03*
X479971D02*
D03*
X479973Y304100D02*
D03*
X459500D02*
D03*
X872000Y372407D02*
D03*
X892471D02*
D03*
X892473Y379100D02*
D03*
X872000D02*
D03*
X890800Y147407D02*
D03*
X911271D02*
D03*
X911273Y154100D02*
D03*
X890800D02*
D03*
X1265800Y484907D02*
D03*
X1286271D02*
D03*
X1286273Y491600D02*
D03*
X1265800D02*
D03*
X253300Y222407D02*
D03*
X273771D02*
D03*
X273773Y229100D02*
D03*
X253300D02*
D03*
X1340800Y72407D02*
D03*
X1361271D02*
D03*
X1361273Y79100D02*
D03*
X1340800D02*
D03*
X384500Y297407D02*
D03*
X404971D02*
D03*
X404973Y304100D02*
D03*
X384500D02*
D03*
X928300Y222407D02*
D03*
X948771D02*
D03*
X948773Y229100D02*
D03*
X928300D02*
D03*
X159500Y297407D02*
D03*
X179971D02*
D03*
X179973Y304100D02*
D03*
X159500D02*
D03*
X1190800Y485007D02*
D03*
X1211271D02*
D03*
X1211273Y491700D02*
D03*
X1190800D02*
D03*
X1340800Y372407D02*
D03*
X1361271D02*
D03*
X1361273Y379100D02*
D03*
X1340800D02*
D03*
Y297407D02*
D03*
X1361271D02*
D03*
X1361273Y304100D02*
D03*
X1340800D02*
D03*
Y484907D02*
D03*
X1361271D02*
D03*
X1361273Y491600D02*
D03*
X1340800D02*
D03*
X834500Y297407D02*
D03*
X854971D02*
D03*
X854973Y304100D02*
D03*
X834500D02*
D03*
X759500Y297407D02*
D03*
X779971D02*
D03*
X779973Y304100D02*
D03*
X759500D02*
D03*
X1584500Y372407D02*
D03*
X1604971D02*
D03*
X1604973Y379100D02*
D03*
X1584500D02*
D03*
X1434500Y372407D02*
D03*
X1454971D02*
D03*
X1454973Y379100D02*
D03*
X1434500D02*
D03*
X1584500Y72407D02*
D03*
X1604971D02*
D03*
X1604973Y79100D02*
D03*
X1584500D02*
D03*
X1509500Y372407D02*
D03*
X1529971D02*
D03*
X1529973Y379100D02*
D03*
X1509500D02*
D03*
X1584500Y297407D02*
D03*
X1604971D02*
D03*
X1604973Y304100D02*
D03*
X1584500D02*
D03*
X1509500Y297407D02*
D03*
X1529971D02*
D03*
X1529973Y304100D02*
D03*
X1509500D02*
D03*
X1434500Y297407D02*
D03*
X1454971D02*
D03*
X1454973Y304100D02*
D03*
X1434500D02*
D03*
X1584500Y222407D02*
D03*
X1604971D02*
D03*
X1604973Y229100D02*
D03*
X1584500D02*
D03*
X1509500Y222407D02*
D03*
X1529971D02*
D03*
X1529973Y229100D02*
D03*
X1509500D02*
D03*
X1434500Y222407D02*
D03*
X1454971D02*
D03*
X1454973Y229100D02*
D03*
X1434500D02*
D03*
X1584500Y147407D02*
D03*
X1604971D02*
D03*
X1604973Y154100D02*
D03*
X1584500D02*
D03*
X1509500Y147407D02*
D03*
X1529971D02*
D03*
X1529973Y154100D02*
D03*
X1509500D02*
D03*
X590800Y147407D02*
D03*
X611271D02*
D03*
X611273Y154100D02*
D03*
X590800D02*
D03*
X665800Y147407D02*
D03*
X686271D02*
D03*
X686273Y154100D02*
D03*
X665800D02*
D03*
X1190800Y72407D02*
D03*
X1211271D02*
D03*
X1211273Y79100D02*
D03*
X1190800D02*
D03*
X778300Y222407D02*
D03*
X798771D02*
D03*
X798773Y229100D02*
D03*
X778300D02*
D03*
X703300Y222407D02*
D03*
X723771D02*
D03*
X723773Y229100D02*
D03*
X703300D02*
D03*
X628300Y222407D02*
D03*
X648771D02*
D03*
X648773Y229100D02*
D03*
X628300D02*
D03*
X1190800Y372407D02*
D03*
X1211271D02*
D03*
X1211273Y379100D02*
D03*
X1190800D02*
D03*
X684500Y297407D02*
D03*
X704971D02*
D03*
X704973Y304100D02*
D03*
X684500D02*
D03*
X1265800Y372407D02*
D03*
X1286271D02*
D03*
X1286273Y379100D02*
D03*
X1265800D02*
D03*
X553300Y222407D02*
D03*
X573771D02*
D03*
X573773Y229100D02*
D03*
X553300D02*
D03*
X478300Y222407D02*
D03*
X498771D02*
D03*
X498773Y229100D02*
D03*
X478300D02*
D03*
X815800Y147407D02*
D03*
X836271D02*
D03*
X836273Y154100D02*
D03*
X815800D02*
D03*
X909500Y297407D02*
D03*
X929971D02*
D03*
X929973Y304100D02*
D03*
X909500D02*
D03*
X403300Y222407D02*
D03*
X423771D02*
D03*
X423773Y229100D02*
D03*
X403300D02*
D03*
X1097000Y484907D02*
D03*
X1117471D02*
D03*
X1117473Y491600D02*
D03*
X1097000D02*
D03*
X1022000Y484907D02*
D03*
X1042471D02*
D03*
X1042473Y491600D02*
D03*
X1022000D02*
D03*
X947000Y484907D02*
D03*
X967471D02*
D03*
X967473Y491600D02*
D03*
X947000D02*
D03*
X872000Y484907D02*
D03*
X892471D02*
D03*
X892473Y491600D02*
D03*
X872000D02*
D03*
X759500Y485007D02*
D03*
X779971D02*
D03*
X779973Y491700D02*
D03*
X759500D02*
D03*
X684500Y485007D02*
D03*
X704971D02*
D03*
X704973Y491700D02*
D03*
X684500D02*
D03*
X609500Y485007D02*
D03*
X629971D02*
D03*
X629973Y491700D02*
D03*
X609500D02*
D03*
X534500Y485007D02*
D03*
X554971D02*
D03*
X554973Y491700D02*
D03*
X534500D02*
D03*
X422000Y484907D02*
D03*
X442471D02*
D03*
X442473Y491600D02*
D03*
X422000D02*
D03*
X347000Y484907D02*
D03*
X367471D02*
D03*
X367473Y491600D02*
D03*
X347000D02*
D03*
X197000Y484907D02*
D03*
X217471D02*
D03*
X217473Y491600D02*
D03*
X197000D02*
D03*
X47000Y484907D02*
D03*
X67471D02*
D03*
X67473Y491600D02*
D03*
X47000D02*
D03*
X1265800Y297407D02*
D03*
X1286271D02*
D03*
X1286273Y304100D02*
D03*
X1265800D02*
D03*
X309500Y297407D02*
D03*
X329971D02*
D03*
X329973Y304100D02*
D03*
X309500D02*
D03*
X1265800Y72407D02*
D03*
X1286271D02*
D03*
X1286273Y79100D02*
D03*
X1265800D02*
D03*
X1190800Y297407D02*
D03*
X1211271D02*
D03*
X1211273Y304100D02*
D03*
X1190800D02*
D03*
X328300Y222407D02*
D03*
X348771D02*
D03*
X348773Y229100D02*
D03*
X328300D02*
D03*
X740800Y147407D02*
D03*
X761271D02*
D03*
X761273Y154100D02*
D03*
X740800D02*
D03*
X853300Y222407D02*
D03*
X873771D02*
D03*
X873773Y229100D02*
D03*
X853300D02*
D03*
X365800Y147407D02*
D03*
X386271D02*
D03*
X386273Y154100D02*
D03*
X365800D02*
D03*
X984500Y297407D02*
D03*
X1004971D02*
D03*
X1004973Y304100D02*
D03*
X984500D02*
D03*
X515800Y147407D02*
D03*
X536271D02*
D03*
X536273Y154100D02*
D03*
X515800D02*
D03*
X947000Y372407D02*
D03*
X967471D02*
D03*
X967473Y379100D02*
D03*
X947000D02*
D03*
X178300Y222407D02*
D03*
X198771D02*
D03*
X198773Y229100D02*
D03*
X178300D02*
D03*
X722000Y372407D02*
D03*
X742471D02*
D03*
X742473Y379100D02*
D03*
X722000D02*
D03*
X647000Y372407D02*
D03*
X667471D02*
D03*
X667473Y379100D02*
D03*
X647000D02*
D03*
X572000Y372407D02*
D03*
X592471D02*
D03*
X592473Y379100D02*
D03*
X572000D02*
D03*
X497000Y372407D02*
D03*
X517471D02*
D03*
X517473Y379100D02*
D03*
X497000D02*
D03*
X422000Y372407D02*
D03*
X442471D02*
D03*
X442473Y379100D02*
D03*
X422000D02*
D03*
X347000Y372407D02*
D03*
X367471D02*
D03*
X367473Y379100D02*
D03*
X347000D02*
D03*
X272000Y372407D02*
D03*
X292471D02*
D03*
X292473Y379100D02*
D03*
X272000D02*
D03*
X197000Y372407D02*
D03*
X217471D02*
D03*
X217473Y379100D02*
D03*
X197000D02*
D03*
X122000Y372407D02*
D03*
X142471D02*
D03*
X142473Y379100D02*
D03*
X122000D02*
D03*
X797000Y372407D02*
D03*
X817471D02*
D03*
X817473Y379100D02*
D03*
X797000D02*
D03*
X1050200Y229100D02*
D03*
X1070673D02*
D03*
X1070671Y222407D02*
D03*
X1050200D02*
D03*
X93900Y154100D02*
D03*
X114373D02*
D03*
X114371Y147407D02*
D03*
X93900D02*
D03*
X993900Y72407D02*
D03*
X1014371D02*
D03*
X1014373Y79100D02*
D03*
X993900D02*
D03*
X150100Y72407D02*
D03*
X170571D02*
D03*
X170573Y79100D02*
D03*
X150100D02*
D03*
X806400Y72407D02*
D03*
X826871D02*
D03*
X826873Y79100D02*
D03*
X806400D02*
D03*
X1087700Y72407D02*
D03*
X1108171D02*
D03*
X1108173Y79100D02*
D03*
X1087700D02*
D03*
X900200Y72407D02*
D03*
X920671D02*
D03*
X920673Y79100D02*
D03*
X900200D02*
D03*
X1031400Y154100D02*
D03*
X1051873D02*
D03*
X1051871Y147407D02*
D03*
X1031400D02*
D03*
X75200Y229100D02*
D03*
X95673D02*
D03*
X95671Y222407D02*
D03*
X75200D02*
D03*
X1059500Y372407D02*
D03*
X1079971D02*
D03*
X1079973Y379100D02*
D03*
X1059500D02*
D03*
X1472000Y72507D02*
D03*
X1492471D02*
D03*
X1492473Y79200D02*
D03*
X1472000D02*
D03*
X525200Y72407D02*
D03*
X545671D02*
D03*
X545673Y79100D02*
D03*
X525200D02*
D03*
X1078300Y297407D02*
D03*
X1098771D02*
D03*
X1098773Y304100D02*
D03*
X1078300D02*
D03*
X65800D02*
D03*
X86273D02*
D03*
X86271Y297407D02*
D03*
X65800D02*
D03*
D30*
X258873Y450324D02*
D03*
X521373Y262825D02*
D03*
X43273Y37824D02*
D03*
X1421473Y112824D02*
D03*
X230773Y37824D02*
D03*
X1646373Y337825D02*
D03*
X202673Y112824D02*
D03*
X277673D02*
D03*
X33873Y337825D02*
D03*
X221373Y262825D02*
D03*
X427673Y112824D02*
D03*
X1252673D02*
D03*
X596373Y262825D02*
D03*
X446373D02*
D03*
X858873Y337825D02*
D03*
X877673Y112824D02*
D03*
X1252673Y450324D02*
D03*
X240173Y187824D02*
D03*
X1327673Y37824D02*
D03*
X371373Y262825D02*
D03*
X915173Y187824D02*
D03*
X146373Y262825D02*
D03*
X1177673Y450424D02*
D03*
X1327673Y337825D02*
D03*
Y262825D02*
D03*
Y450324D02*
D03*
X821373Y262825D02*
D03*
X746373D02*
D03*
X1571373Y337825D02*
D03*
X1421373D02*
D03*
X1571373Y37824D02*
D03*
X1496373Y337825D02*
D03*
X1571373Y262825D02*
D03*
X1496373D02*
D03*
X1421373D02*
D03*
X1571373Y187824D02*
D03*
X1496373D02*
D03*
X1421373D02*
D03*
X1571373Y112824D02*
D03*
X1496373D02*
D03*
X577673D02*
D03*
X652673D02*
D03*
X1177673Y37824D02*
D03*
X765173Y187824D02*
D03*
X690173D02*
D03*
X615173D02*
D03*
X1177673Y337825D02*
D03*
X671373Y262825D02*
D03*
X1252673Y337825D02*
D03*
X540173Y187824D02*
D03*
X465173D02*
D03*
X802673Y112824D02*
D03*
X896373Y262825D02*
D03*
X390173Y187824D02*
D03*
X1083873Y450324D02*
D03*
X1008873D02*
D03*
X933873D02*
D03*
X858873D02*
D03*
X746373Y450424D02*
D03*
X671373D02*
D03*
X596373D02*
D03*
X521373D02*
D03*
X408873Y450324D02*
D03*
X333873D02*
D03*
X183873D02*
D03*
X33873D02*
D03*
X1252673Y262825D02*
D03*
X296373D02*
D03*
X1252673Y37824D02*
D03*
X1177673Y262825D02*
D03*
X315173Y187824D02*
D03*
X727673Y112824D02*
D03*
X840173Y187824D02*
D03*
X352673Y112824D02*
D03*
X971373Y262825D02*
D03*
X502673Y112824D02*
D03*
X933873Y337825D02*
D03*
X165173Y187824D02*
D03*
X708873Y337825D02*
D03*
X633873D02*
D03*
X558873D02*
D03*
X483873D02*
D03*
X408873D02*
D03*
X333873D02*
D03*
X258873D02*
D03*
X183873D02*
D03*
X108873D02*
D03*
X783873D02*
D03*
X1037073Y187824D02*
D03*
X80773Y112824D02*
D03*
X980773Y37824D02*
D03*
X136973D02*
D03*
X793273D02*
D03*
X1074573D02*
D03*
X887073D02*
D03*
X1018273Y112824D02*
D03*
X62073Y187824D02*
D03*
X1046373Y337825D02*
D03*
X1458873Y37925D02*
D03*
X512073Y37824D02*
D03*
X1065173Y262825D02*
D03*
X52673D02*
D03*
D31*
X310473Y460324D02*
D03*
X572973Y272825D02*
D03*
X94873Y47824D02*
D03*
X1473073Y122825D02*
D03*
X282373Y47824D02*
D03*
X1697973Y347825D02*
D03*
X254273Y122825D02*
D03*
X329273D02*
D03*
X85473Y347825D02*
D03*
X272973Y272825D02*
D03*
X479273Y122825D02*
D03*
X1304273D02*
D03*
X647973Y272825D02*
D03*
X497973D02*
D03*
X910473Y347825D02*
D03*
X929273Y122825D02*
D03*
X1304273Y460324D02*
D03*
X291773Y197825D02*
D03*
X1379273Y47824D02*
D03*
X422973Y272825D02*
D03*
X966773Y197825D02*
D03*
X197973Y272825D02*
D03*
X1229273Y460425D02*
D03*
X1379273Y347825D02*
D03*
Y272825D02*
D03*
Y460324D02*
D03*
X872973Y272825D02*
D03*
X797973D02*
D03*
X1622973Y347825D02*
D03*
X1472973D02*
D03*
X1622973Y47824D02*
D03*
X1547973Y347825D02*
D03*
X1622973Y272825D02*
D03*
X1547973D02*
D03*
X1472973D02*
D03*
X1622973Y197825D02*
D03*
X1547973D02*
D03*
X1472973D02*
D03*
X1622973Y122825D02*
D03*
X1547973D02*
D03*
X629273D02*
D03*
X704273D02*
D03*
X1229273Y47824D02*
D03*
X816773Y197825D02*
D03*
X741773D02*
D03*
X666773D02*
D03*
X1229273Y347825D02*
D03*
X722973Y272825D02*
D03*
X1304273Y347825D02*
D03*
X591773Y197825D02*
D03*
X516773D02*
D03*
X854273Y122825D02*
D03*
X947973Y272825D02*
D03*
X441773Y197825D02*
D03*
X1135473Y460324D02*
D03*
X1060473D02*
D03*
X985473D02*
D03*
X910473D02*
D03*
X797973Y460425D02*
D03*
X722973D02*
D03*
X647973D02*
D03*
X572973D02*
D03*
X460473Y460324D02*
D03*
X385473D02*
D03*
X235473D02*
D03*
X85473D02*
D03*
X1304273Y272825D02*
D03*
X347973D02*
D03*
X1304273Y47824D02*
D03*
X1229273Y272825D02*
D03*
X366773Y197825D02*
D03*
X779273Y122825D02*
D03*
X891773Y197825D02*
D03*
X404273Y122825D02*
D03*
X1022973Y272825D02*
D03*
X554273Y122825D02*
D03*
X985473Y347825D02*
D03*
X216773Y197825D02*
D03*
X760473Y347825D02*
D03*
X685473D02*
D03*
X610473D02*
D03*
X535473D02*
D03*
X460473D02*
D03*
X385473D02*
D03*
X310473D02*
D03*
X235473D02*
D03*
X160473D02*
D03*
X835473D02*
D03*
X1088673Y197825D02*
D03*
X132373Y122825D02*
D03*
X1032373Y47824D02*
D03*
X188573D02*
D03*
X844873D02*
D03*
X1126173D02*
D03*
X938673D02*
D03*
X1069873Y122825D02*
D03*
X113673Y197825D02*
D03*
X1097973Y347825D02*
D03*
X1510473Y47925D02*
D03*
X563673Y47824D02*
D03*
X1116773Y272825D02*
D03*
X104273D02*
D03*
D32*
X13201Y72500D02*
D03*
X19500D02*
D03*
X1390201Y491500D02*
D03*
X1396500D02*
D03*
X1643299Y530000D02*
D03*
X1637000D02*
D03*
X1643299Y521600D02*
D03*
X1637000D02*
D03*
X1643299Y513200D02*
D03*
X1637000D02*
D03*
X1643299Y504800D02*
D03*
X1637000D02*
D03*
X1643299Y496400D02*
D03*
X1637000D02*
D03*
X1643299Y488000D02*
D03*
X1637000D02*
D03*
X1606201Y530000D02*
D03*
X1612500D02*
D03*
X1606201Y521600D02*
D03*
X1612500D02*
D03*
X1606201Y513200D02*
D03*
X1612500D02*
D03*
X1606201Y504800D02*
D03*
X1612500D02*
D03*
X1606201Y496400D02*
D03*
X1612500D02*
D03*
X1606201Y488000D02*
D03*
X1612500D02*
D03*
D33*
X165000Y89000D02*
D03*
X170500Y89100D02*
D03*
X71000Y89000D02*
D03*
X76500Y89100D02*
D03*
X272000Y389500D02*
D03*
X277500Y389600D02*
D03*
X347000Y389500D02*
D03*
X352500Y389600D02*
D03*
X422000Y389500D02*
D03*
X427500Y389600D02*
D03*
X497000Y389500D02*
D03*
X502500Y389600D02*
D03*
X572000Y389500D02*
D03*
X577500Y389600D02*
D03*
X647000Y389500D02*
D03*
X652500Y389600D02*
D03*
X722000Y389500D02*
D03*
X727500Y389600D02*
D03*
X797000Y389500D02*
D03*
X802500Y389600D02*
D03*
X872000Y389500D02*
D03*
X877500Y389600D02*
D03*
X947000Y389500D02*
D03*
X952500Y389600D02*
D03*
X1059500Y389500D02*
D03*
X1065000Y389600D02*
D03*
X1191000Y389500D02*
D03*
X1196500Y389600D02*
D03*
X1266000Y389500D02*
D03*
X1271500Y389600D02*
D03*
X1584500Y389500D02*
D03*
X1590000Y389600D02*
D03*
X1659500Y389500D02*
D03*
X1665000Y389600D02*
D03*
X47000Y389500D02*
D03*
X52500Y389600D02*
D03*
X122000Y389500D02*
D03*
X127500Y389600D02*
D03*
X197000Y389500D02*
D03*
X202500Y389600D02*
D03*
X1341000Y389500D02*
D03*
X1346500Y389600D02*
D03*
X1434500Y389500D02*
D03*
X1440000Y389600D02*
D03*
X1509500Y389500D02*
D03*
X1515000Y389600D02*
D03*
X909500Y314500D02*
D03*
X915000Y314600D02*
D03*
X834500Y314500D02*
D03*
X840000Y314600D02*
D03*
X759500Y314500D02*
D03*
X765000Y314600D02*
D03*
X684500Y314500D02*
D03*
X690000Y314600D02*
D03*
X609500Y314500D02*
D03*
X615000Y314600D02*
D03*
X535000Y314500D02*
D03*
X540500Y314600D02*
D03*
X459500Y314500D02*
D03*
X465000Y314600D02*
D03*
X384500Y314500D02*
D03*
X390000Y314600D02*
D03*
X309500Y314500D02*
D03*
X315000Y314600D02*
D03*
X234500Y314500D02*
D03*
X240000Y314600D02*
D03*
X159500Y314500D02*
D03*
X165000Y314600D02*
D03*
X66000Y314500D02*
D03*
X71500Y314600D02*
D03*
X1585000Y239500D02*
D03*
X1590500Y239600D02*
D03*
X1341000Y502000D02*
D03*
X1346500Y502100D02*
D03*
X1584500Y164500D02*
D03*
X1590000Y164600D02*
D03*
X1509500Y239500D02*
D03*
X1515000Y239600D02*
D03*
X1266000Y502000D02*
D03*
X1271500Y502100D02*
D03*
X1509500Y164500D02*
D03*
X1515000Y164600D02*
D03*
X1434500Y239500D02*
D03*
X1440000Y239600D02*
D03*
X1434500Y164500D02*
D03*
X1440000Y164600D02*
D03*
X1050000Y239500D02*
D03*
X1055500Y239600D02*
D03*
X1191000Y502000D02*
D03*
X1196500Y502100D02*
D03*
X1266000Y164500D02*
D03*
X1271500Y164600D02*
D03*
X928500Y239500D02*
D03*
X934000Y239600D02*
D03*
X1097000Y502000D02*
D03*
X1102500Y502100D02*
D03*
X1031500Y164500D02*
D03*
X1037000Y164600D02*
D03*
X1022000Y502000D02*
D03*
X1027500Y502100D02*
D03*
X853500Y239500D02*
D03*
X859000Y239600D02*
D03*
X891000Y164500D02*
D03*
X896500Y164600D02*
D03*
X1584500Y89500D02*
D03*
X1590000Y89600D02*
D03*
X947000Y502000D02*
D03*
X952500Y502100D02*
D03*
X778500Y239500D02*
D03*
X784000Y239600D02*
D03*
X816000Y164500D02*
D03*
X821500Y164600D02*
D03*
X1472000Y89500D02*
D03*
X1477500Y89600D02*
D03*
X872000Y502000D02*
D03*
X877500Y502100D02*
D03*
X703500Y239500D02*
D03*
X709000Y239600D02*
D03*
X740500Y164500D02*
D03*
X746000Y164600D02*
D03*
X1340500Y89500D02*
D03*
X1346000Y89600D02*
D03*
X759500Y502000D02*
D03*
X765000Y502100D02*
D03*
X628500Y239500D02*
D03*
X634000Y239600D02*
D03*
X666000Y164500D02*
D03*
X671500Y164600D02*
D03*
X1266000Y89500D02*
D03*
X1271500Y89600D02*
D03*
X684500Y502000D02*
D03*
X690000Y502100D02*
D03*
X553500Y239500D02*
D03*
X559000Y239600D02*
D03*
X1191000Y89500D02*
D03*
X1196500Y89600D02*
D03*
X609500Y502000D02*
D03*
X615000Y502100D02*
D03*
X591000Y164500D02*
D03*
X596500Y164600D02*
D03*
X478500Y239500D02*
D03*
X484000Y239600D02*
D03*
X1102500Y89000D02*
D03*
X1108000Y89100D02*
D03*
X534500Y502000D02*
D03*
X540000Y502100D02*
D03*
X1584500Y314500D02*
D03*
X1590000Y314600D02*
D03*
X515500Y164500D02*
D03*
X521000Y164600D02*
D03*
X403500Y239500D02*
D03*
X409000Y239600D02*
D03*
X1008500Y89000D02*
D03*
X1014000Y89100D02*
D03*
X422000Y502000D02*
D03*
X427500Y502100D02*
D03*
X1509500Y314500D02*
D03*
X1515000Y314600D02*
D03*
X441000Y164500D02*
D03*
X446500Y164600D02*
D03*
X328500Y239500D02*
D03*
X334000Y239600D02*
D03*
X900000Y89500D02*
D03*
X905500Y89600D02*
D03*
X347000Y502000D02*
D03*
X352500Y502100D02*
D03*
X1434500Y314500D02*
D03*
X1440000Y314600D02*
D03*
X365500Y164500D02*
D03*
X371000Y164600D02*
D03*
X253500Y239500D02*
D03*
X259000Y239600D02*
D03*
X806500Y89500D02*
D03*
X812000Y89600D02*
D03*
X272000Y502000D02*
D03*
X277500Y502100D02*
D03*
X1340500Y314500D02*
D03*
X1346000Y314600D02*
D03*
X290500Y164500D02*
D03*
X296000Y164600D02*
D03*
X178500Y239500D02*
D03*
X184000Y239600D02*
D03*
X197000Y502000D02*
D03*
X202500Y502100D02*
D03*
X1266000Y314500D02*
D03*
X1271500Y314600D02*
D03*
X215500Y164500D02*
D03*
X221000Y164600D02*
D03*
X75000Y239500D02*
D03*
X80500Y239600D02*
D03*
X525000Y89500D02*
D03*
X530500Y89600D02*
D03*
X47000Y502000D02*
D03*
X52500Y502100D02*
D03*
X94000Y164500D02*
D03*
X99500Y164600D02*
D03*
X244000Y89500D02*
D03*
X249500Y89600D02*
D03*
X1191000Y314500D02*
D03*
X1196500Y314600D02*
D03*
X1078500Y314500D02*
D03*
X1084000Y314600D02*
D03*
X984500Y314500D02*
D03*
X990000Y314600D02*
D03*
D34*
X1637853Y84826D02*
D03*
X1637753Y90326D02*
D03*
X1637853Y235323D02*
D03*
X1637753Y240823D02*
D03*
D35*
X1679675Y273673D02*
D03*
Y123673D02*
D03*
D36*
X1689676Y222073D02*
D03*
Y72073D02*
D03*
D37*
X1655093Y235200D02*
D03*
Y255671D02*
D03*
X1648400Y255673D02*
D03*
Y235200D02*
D03*
X1655093Y85200D02*
D03*
Y105671D02*
D03*
X1648400Y105673D02*
D03*
Y85200D02*
D03*
M02*
