G04*
G04 #@! TF.GenerationSoftware,Altium Limited,Altium Designer,20.2.6 (244)*
G04*
G04 Layer_Color=8388736*
%FSLAX25Y25*%
%MOIN*%
G70*
G04*
G04 #@! TF.SameCoordinates,8783345C-70B6-4638-A87A-2BD6F103B021*
G04*
G04*
G04 #@! TF.FilePolarity,Negative*
G04*
G01*
G75*
%ADD14C,0.08280*%
%ADD15C,0.12611*%
%ADD16C,0.16548*%
%ADD17C,0.00800*%
%ADD18C,0.05800*%
%ADD19C,0.04800*%
D14*
X301858Y470325D02*
D03*
X262488D02*
D03*
X564358Y282824D02*
D03*
X524988D02*
D03*
X86258Y57824D02*
D03*
X46888D02*
D03*
X1464458Y132825D02*
D03*
X1425088D02*
D03*
X234388Y57824D02*
D03*
X273758D02*
D03*
X1649988Y357824D02*
D03*
X1689358D02*
D03*
X206288Y132825D02*
D03*
X245658D02*
D03*
X281288D02*
D03*
X320658D02*
D03*
X37488Y357824D02*
D03*
X76858D02*
D03*
X224988Y282824D02*
D03*
X264358D02*
D03*
X431288Y132825D02*
D03*
X470658D02*
D03*
X1256288D02*
D03*
X1295658D02*
D03*
X599988Y282824D02*
D03*
X639358D02*
D03*
X449988D02*
D03*
X489358D02*
D03*
X862488Y357824D02*
D03*
X901858D02*
D03*
X881288Y132825D02*
D03*
X920658D02*
D03*
X1256288Y470325D02*
D03*
X1295658D02*
D03*
X243788Y207824D02*
D03*
X283158D02*
D03*
X1331288Y57824D02*
D03*
X1370658D02*
D03*
X374988Y282824D02*
D03*
X414358D02*
D03*
X918788Y207824D02*
D03*
X958158D02*
D03*
X149988Y282824D02*
D03*
X189358D02*
D03*
X1181288Y470425D02*
D03*
X1220658D02*
D03*
X1331288Y357824D02*
D03*
X1370658D02*
D03*
X1331288Y282824D02*
D03*
X1370658D02*
D03*
X1331288Y470325D02*
D03*
X1370658D02*
D03*
X824988Y282824D02*
D03*
X864358D02*
D03*
X749988D02*
D03*
X789358D02*
D03*
X1574988Y357824D02*
D03*
X1614358D02*
D03*
X1424988D02*
D03*
X1464358D02*
D03*
X1574988Y57824D02*
D03*
X1614358D02*
D03*
X1499988Y357824D02*
D03*
X1539358D02*
D03*
X1574988Y282824D02*
D03*
X1614358D02*
D03*
X1499988D02*
D03*
X1539358D02*
D03*
X1424988D02*
D03*
X1464358D02*
D03*
X1574988Y207824D02*
D03*
X1614358D02*
D03*
X1499988D02*
D03*
X1539358D02*
D03*
X1424988D02*
D03*
X1464358D02*
D03*
X1574988Y132825D02*
D03*
X1614358D02*
D03*
X1499988D02*
D03*
X1539358D02*
D03*
X581288D02*
D03*
X620658D02*
D03*
X656288D02*
D03*
X695658D02*
D03*
X1181288Y57824D02*
D03*
X1220658D02*
D03*
X768788Y207824D02*
D03*
X808158D02*
D03*
X693788D02*
D03*
X733158D02*
D03*
X618788D02*
D03*
X658158D02*
D03*
X1181288Y357824D02*
D03*
X1220658D02*
D03*
X674988Y282824D02*
D03*
X714358D02*
D03*
X1256288Y357824D02*
D03*
X1295658D02*
D03*
X543788Y207824D02*
D03*
X583158D02*
D03*
X468788D02*
D03*
X508158D02*
D03*
X806288Y132825D02*
D03*
X845658D02*
D03*
X899988Y282824D02*
D03*
X939358D02*
D03*
X393788Y207824D02*
D03*
X433158D02*
D03*
X1087488Y470325D02*
D03*
X1126858D02*
D03*
X1012488D02*
D03*
X1051858D02*
D03*
X937488D02*
D03*
X976858D02*
D03*
X862488D02*
D03*
X901858D02*
D03*
X749988Y470425D02*
D03*
X789358D02*
D03*
X674988D02*
D03*
X714358D02*
D03*
X599988D02*
D03*
X639358D02*
D03*
X524988D02*
D03*
X564358D02*
D03*
X412488Y470325D02*
D03*
X451858D02*
D03*
X337488D02*
D03*
X376858D02*
D03*
X187488D02*
D03*
X226858D02*
D03*
X37488D02*
D03*
X76858D02*
D03*
X1256288Y282824D02*
D03*
X1295658D02*
D03*
X299988D02*
D03*
X339358D02*
D03*
X1256288Y57824D02*
D03*
X1295658D02*
D03*
X1181288Y282824D02*
D03*
X1220658D02*
D03*
X318788Y207824D02*
D03*
X358158D02*
D03*
X731288Y132825D02*
D03*
X770658D02*
D03*
X843788Y207824D02*
D03*
X883158D02*
D03*
X356288Y132825D02*
D03*
X395658D02*
D03*
X974988Y282824D02*
D03*
X1014358D02*
D03*
X506288Y132825D02*
D03*
X545658D02*
D03*
X937488Y357824D02*
D03*
X976858D02*
D03*
X168788Y207824D02*
D03*
X208158D02*
D03*
X712488Y357824D02*
D03*
X751858D02*
D03*
X637488D02*
D03*
X676858D02*
D03*
X562488D02*
D03*
X601858D02*
D03*
X487488D02*
D03*
X526858D02*
D03*
X412488D02*
D03*
X451858D02*
D03*
X337488D02*
D03*
X376858D02*
D03*
X262488D02*
D03*
X301858D02*
D03*
X187488D02*
D03*
X226858D02*
D03*
X112488D02*
D03*
X151858D02*
D03*
X787488D02*
D03*
X826858D02*
D03*
X1080058Y207824D02*
D03*
X1040688D02*
D03*
X123758Y132825D02*
D03*
X84388D02*
D03*
X984388Y57824D02*
D03*
X1023758D02*
D03*
X140588D02*
D03*
X179958D02*
D03*
X796888D02*
D03*
X836258D02*
D03*
X1078188D02*
D03*
X1117558D02*
D03*
X890688D02*
D03*
X930058D02*
D03*
X1061258Y132825D02*
D03*
X1021888D02*
D03*
X105058Y207824D02*
D03*
X65688D02*
D03*
X1049988Y357824D02*
D03*
X1089358D02*
D03*
X1462488Y57924D02*
D03*
X1501858D02*
D03*
X1669676Y225688D02*
D03*
Y265058D02*
D03*
Y75688D02*
D03*
Y115058D02*
D03*
X515688Y57824D02*
D03*
X555058D02*
D03*
X1068788Y282824D02*
D03*
X1108158D02*
D03*
X95658D02*
D03*
X56288D02*
D03*
D15*
X297173Y460324D02*
D03*
X272173Y450324D02*
D03*
X559673Y272825D02*
D03*
X534673Y262825D02*
D03*
X81573Y47824D02*
D03*
X56573Y37824D02*
D03*
X1459773Y122825D02*
D03*
X1434773Y112824D02*
D03*
X244073Y37824D02*
D03*
X269073Y47824D02*
D03*
X1659673Y337825D02*
D03*
X1684673Y347825D02*
D03*
X215973Y112824D02*
D03*
X240973Y122825D02*
D03*
X290973Y112824D02*
D03*
X315973Y122825D02*
D03*
X47173Y337825D02*
D03*
X72173Y347825D02*
D03*
X234673Y262825D02*
D03*
X259673Y272825D02*
D03*
X440973Y112824D02*
D03*
X465973Y122825D02*
D03*
X1265973Y112824D02*
D03*
X1290973Y122825D02*
D03*
X609673Y262825D02*
D03*
X634673Y272825D02*
D03*
X459673Y262825D02*
D03*
X484673Y272825D02*
D03*
X872173Y337825D02*
D03*
X897173Y347825D02*
D03*
X890973Y112824D02*
D03*
X915973Y122825D02*
D03*
X1265973Y450324D02*
D03*
X1290973Y460324D02*
D03*
X253473Y187824D02*
D03*
X278473Y197825D02*
D03*
X1340973Y37824D02*
D03*
X1365973Y47824D02*
D03*
X384673Y262825D02*
D03*
X409673Y272825D02*
D03*
X928473Y187824D02*
D03*
X953473Y197825D02*
D03*
X159673Y262825D02*
D03*
X184673Y272825D02*
D03*
X1190973Y450424D02*
D03*
X1215973Y460425D02*
D03*
X1340973Y337825D02*
D03*
X1365973Y347825D02*
D03*
X1340973Y262825D02*
D03*
X1365973Y272825D02*
D03*
X1340973Y450324D02*
D03*
X1365973Y460324D02*
D03*
X834673Y262825D02*
D03*
X859673Y272825D02*
D03*
X759673Y262825D02*
D03*
X784673Y272825D02*
D03*
X1584673Y337825D02*
D03*
X1609673Y347825D02*
D03*
X1434673Y337825D02*
D03*
X1459673Y347825D02*
D03*
X1584673Y37824D02*
D03*
X1609673Y47824D02*
D03*
X1509673Y337825D02*
D03*
X1534673Y347825D02*
D03*
X1584673Y262825D02*
D03*
X1609673Y272825D02*
D03*
X1509673Y262825D02*
D03*
X1534673Y272825D02*
D03*
X1434673Y262825D02*
D03*
X1459673Y272825D02*
D03*
X1584673Y187824D02*
D03*
X1609673Y197825D02*
D03*
X1509673Y187824D02*
D03*
X1534673Y197825D02*
D03*
X1434673Y187824D02*
D03*
X1459673Y197825D02*
D03*
X1584673Y112824D02*
D03*
X1609673Y122825D02*
D03*
X1509673Y112824D02*
D03*
X1534673Y122825D02*
D03*
X590973Y112824D02*
D03*
X615973Y122825D02*
D03*
X665973Y112824D02*
D03*
X690973Y122825D02*
D03*
X1190973Y37824D02*
D03*
X1215973Y47824D02*
D03*
X778473Y187824D02*
D03*
X803473Y197825D02*
D03*
X703473Y187824D02*
D03*
X728473Y197825D02*
D03*
X628473Y187824D02*
D03*
X653473Y197825D02*
D03*
X1190973Y337825D02*
D03*
X1215973Y347825D02*
D03*
X684673Y262825D02*
D03*
X709673Y272825D02*
D03*
X1265973Y337825D02*
D03*
X1290973Y347825D02*
D03*
X553473Y187824D02*
D03*
X578473Y197825D02*
D03*
X478473Y187824D02*
D03*
X503473Y197825D02*
D03*
X815973Y112824D02*
D03*
X840973Y122825D02*
D03*
X909673Y262825D02*
D03*
X934673Y272825D02*
D03*
X403473Y187824D02*
D03*
X428473Y197825D02*
D03*
X1097173Y450324D02*
D03*
X1122173Y460324D02*
D03*
X1022173Y450324D02*
D03*
X1047173Y460324D02*
D03*
X947173Y450324D02*
D03*
X972173Y460324D02*
D03*
X872173Y450324D02*
D03*
X897173Y460324D02*
D03*
X759673Y450424D02*
D03*
X784673Y460425D02*
D03*
X684673Y450424D02*
D03*
X709673Y460425D02*
D03*
X609673Y450424D02*
D03*
X634673Y460425D02*
D03*
X534673Y450424D02*
D03*
X559673Y460425D02*
D03*
X422173Y450324D02*
D03*
X447173Y460324D02*
D03*
X347173Y450324D02*
D03*
X372173Y460324D02*
D03*
X197173Y450324D02*
D03*
X222173Y460324D02*
D03*
X47173Y450324D02*
D03*
X72173Y460324D02*
D03*
X1265973Y262825D02*
D03*
X1290973Y272825D02*
D03*
X309673Y262825D02*
D03*
X334673Y272825D02*
D03*
X1265973Y37824D02*
D03*
X1290973Y47824D02*
D03*
X1190973Y262825D02*
D03*
X1215973Y272825D02*
D03*
X328473Y187824D02*
D03*
X353473Y197825D02*
D03*
X740973Y112824D02*
D03*
X765973Y122825D02*
D03*
X853473Y187824D02*
D03*
X878473Y197825D02*
D03*
X365973Y112824D02*
D03*
X390973Y122825D02*
D03*
X984673Y262825D02*
D03*
X1009673Y272825D02*
D03*
X515973Y112824D02*
D03*
X540973Y122825D02*
D03*
X947173Y337825D02*
D03*
X972173Y347825D02*
D03*
X178473Y187824D02*
D03*
X203473Y197825D02*
D03*
X722173Y337825D02*
D03*
X747173Y347825D02*
D03*
X647173Y337825D02*
D03*
X672173Y347825D02*
D03*
X572173Y337825D02*
D03*
X597173Y347825D02*
D03*
X497173Y337825D02*
D03*
X522173Y347825D02*
D03*
X422173Y337825D02*
D03*
X447173Y347825D02*
D03*
X347173Y337825D02*
D03*
X372173Y347825D02*
D03*
X272173Y337825D02*
D03*
X297173Y347825D02*
D03*
X197173Y337825D02*
D03*
X222173Y347825D02*
D03*
X122173Y337825D02*
D03*
X147173Y347825D02*
D03*
X797173Y337825D02*
D03*
X822173Y347825D02*
D03*
X1075373Y197825D02*
D03*
X1050373Y187824D02*
D03*
X119073Y122825D02*
D03*
X94073Y112824D02*
D03*
X994073Y37824D02*
D03*
X1019073Y47824D02*
D03*
X150273Y37824D02*
D03*
X175273Y47824D02*
D03*
X806573Y37824D02*
D03*
X831573Y47824D02*
D03*
X1087873Y37824D02*
D03*
X1112873Y47824D02*
D03*
X900373Y37824D02*
D03*
X925373Y47824D02*
D03*
X1056573Y122825D02*
D03*
X1031573Y112824D02*
D03*
X100373Y197825D02*
D03*
X75373Y187824D02*
D03*
X1059673Y337825D02*
D03*
X1084673Y347825D02*
D03*
X1472173Y37925D02*
D03*
X1497173Y47925D02*
D03*
X1689676Y235373D02*
D03*
X1679676Y260373D02*
D03*
X1689676Y85373D02*
D03*
X1679676Y110373D02*
D03*
X525373Y37824D02*
D03*
X550373Y47824D02*
D03*
X1078473Y262825D02*
D03*
X1103473Y272825D02*
D03*
X90973D02*
D03*
X65973Y262825D02*
D03*
D16*
X282173Y470325D02*
D03*
X544673Y282824D02*
D03*
X66573Y57824D02*
D03*
X1444773Y132825D02*
D03*
X254073Y57824D02*
D03*
X1669673Y357824D02*
D03*
X225973Y132825D02*
D03*
X300973D02*
D03*
X57173Y357824D02*
D03*
X244673Y282824D02*
D03*
X450973Y132825D02*
D03*
X1275973D02*
D03*
X619673Y282824D02*
D03*
X469673D02*
D03*
X882173Y357824D02*
D03*
X900973Y132825D02*
D03*
X1275973Y470325D02*
D03*
X263473Y207824D02*
D03*
X1350973Y57824D02*
D03*
X394673Y282824D02*
D03*
X938473Y207824D02*
D03*
X169673Y282824D02*
D03*
X1200973Y470425D02*
D03*
X1350973Y357824D02*
D03*
Y282824D02*
D03*
Y470325D02*
D03*
X844673Y282824D02*
D03*
X769673D02*
D03*
X1594673Y357824D02*
D03*
X1444673D02*
D03*
X1594673Y57824D02*
D03*
X1519673Y357824D02*
D03*
X1594673Y282824D02*
D03*
X1519673D02*
D03*
X1444673D02*
D03*
X1594673Y207824D02*
D03*
X1519673D02*
D03*
X1444673D02*
D03*
X1594673Y132825D02*
D03*
X1519673D02*
D03*
X600973D02*
D03*
X675973D02*
D03*
X1200973Y57824D02*
D03*
X788473Y207824D02*
D03*
X713473D02*
D03*
X638473D02*
D03*
X1200973Y357824D02*
D03*
X694673Y282824D02*
D03*
X1275973Y357824D02*
D03*
X563473Y207824D02*
D03*
X488473D02*
D03*
X825973Y132825D02*
D03*
X919673Y282824D02*
D03*
X413473Y207824D02*
D03*
X1107173Y470325D02*
D03*
X1032173D02*
D03*
X957173D02*
D03*
X882173D02*
D03*
X769673Y470425D02*
D03*
X694673D02*
D03*
X619673D02*
D03*
X544673D02*
D03*
X432173Y470325D02*
D03*
X357173D02*
D03*
X207173D02*
D03*
X57173D02*
D03*
X1275973Y282824D02*
D03*
X319673D02*
D03*
X1275973Y57824D02*
D03*
X1200973Y282824D02*
D03*
X338473Y207824D02*
D03*
X750973Y132825D02*
D03*
X863473Y207824D02*
D03*
X375973Y132825D02*
D03*
X994673Y282824D02*
D03*
X525973Y132825D02*
D03*
X957173Y357824D02*
D03*
X188473Y207824D02*
D03*
X732173Y357824D02*
D03*
X657173D02*
D03*
X582173D02*
D03*
X507173D02*
D03*
X432173D02*
D03*
X357173D02*
D03*
X282173D02*
D03*
X207173D02*
D03*
X132173D02*
D03*
X807173D02*
D03*
X1060373Y207824D02*
D03*
X104073Y132825D02*
D03*
X1004073Y57824D02*
D03*
X160273D02*
D03*
X816573D02*
D03*
X1097873D02*
D03*
X910373D02*
D03*
X1041573Y132825D02*
D03*
X85373Y207824D02*
D03*
X1069673Y357824D02*
D03*
X1482173Y57924D02*
D03*
X1669676Y245373D02*
D03*
Y95373D02*
D03*
X535373Y57824D02*
D03*
X1088473Y282824D02*
D03*
X75973D02*
D03*
D17*
X1639200Y48400D02*
D03*
X1699200D02*
D03*
Y142400D02*
D03*
X1639200D02*
D03*
Y198400D02*
D03*
X1699200D02*
D03*
Y292400D02*
D03*
X1639200D02*
D03*
X1435200Y83300D02*
D03*
Y23300D02*
D03*
X1529200D02*
D03*
Y83300D02*
D03*
X732500Y83200D02*
D03*
Y23200D02*
D03*
X338500D02*
D03*
Y83200D02*
D03*
X994600Y158300D02*
D03*
Y98300D02*
D03*
X1088600D02*
D03*
Y158300D02*
D03*
X1013300Y233300D02*
D03*
Y173300D02*
D03*
X1107300D02*
D03*
Y233300D02*
D03*
X1022700Y383300D02*
D03*
Y323300D02*
D03*
X1116700D02*
D03*
Y383300D02*
D03*
X57000Y158300D02*
D03*
Y98300D02*
D03*
X151000D02*
D03*
Y158300D02*
D03*
D18*
X1632000Y395000D02*
D03*
X1647000Y372000D02*
D03*
X1599000Y96000D02*
D03*
X1636000Y460000D02*
D03*
X1631000Y465000D02*
D03*
X1391000Y460000D02*
D03*
Y348000D02*
D03*
Y273000D02*
D03*
Y48000D02*
D03*
X1315000Y460000D02*
D03*
Y348000D02*
D03*
Y273000D02*
D03*
Y123000D02*
D03*
Y48000D02*
D03*
X1697000Y452000D02*
D03*
X1704000D02*
D03*
X1711000D02*
D03*
X1239000Y460000D02*
D03*
Y348000D02*
D03*
X1239264Y272983D02*
D03*
X1239000Y48000D02*
D03*
X1147000Y460000D02*
D03*
X1117000Y348000D02*
D03*
X1132054Y272819D02*
D03*
X1072000Y460000D02*
D03*
X997000Y348000D02*
D03*
X1039000Y273000D02*
D03*
X1104000Y198000D02*
D03*
X1147000Y48000D02*
D03*
X1619000Y471000D02*
D03*
X996000Y460000D02*
D03*
X921000Y348000D02*
D03*
X958000Y273000D02*
D03*
X977000Y198000D02*
D03*
X1081000Y123000D02*
D03*
X1052000Y48000D02*
D03*
X1611000Y471000D02*
D03*
X922000Y460000D02*
D03*
X846000Y348000D02*
D03*
X884000Y273000D02*
D03*
X902000Y198000D02*
D03*
X940000Y123000D02*
D03*
X958000Y48000D02*
D03*
X1603000Y471000D02*
D03*
X810000Y460000D02*
D03*
X772000Y348000D02*
D03*
X809000Y273000D02*
D03*
X828000Y198000D02*
D03*
X865000Y123000D02*
D03*
Y48000D02*
D03*
X1595000Y471000D02*
D03*
X1587000D02*
D03*
X1579000D02*
D03*
X1711000Y472000D02*
D03*
X1704000D02*
D03*
X1697000D02*
D03*
X1619600Y420600D02*
D03*
X1645455Y444745D02*
D03*
X1670000Y433000D02*
D03*
X1626800Y413200D02*
D03*
X1712000Y407000D02*
D03*
X1706500Y401500D02*
D03*
X1645500Y436800D02*
D03*
X1704000Y493000D02*
D03*
X1697000D02*
D03*
X1711000D02*
D03*
X734000Y460000D02*
D03*
X697000Y348000D02*
D03*
X735000Y273000D02*
D03*
X753000Y198000D02*
D03*
X790000Y123000D02*
D03*
X659000Y460000D02*
D03*
X622000Y348000D02*
D03*
X659000Y273000D02*
D03*
X677000Y198000D02*
D03*
X715000Y123000D02*
D03*
X584000Y460000D02*
D03*
X470000D02*
D03*
X396000D02*
D03*
X323000D02*
D03*
X248000D02*
D03*
X546000Y348000D02*
D03*
X583000Y273000D02*
D03*
X602000Y198000D02*
D03*
X640000Y123000D02*
D03*
X470000Y348000D02*
D03*
X508000Y273000D02*
D03*
X527000Y198000D02*
D03*
X565000Y123000D02*
D03*
X577000Y48000D02*
D03*
X396000Y348000D02*
D03*
X434000Y273000D02*
D03*
X455000Y198000D02*
D03*
X492000Y123000D02*
D03*
X323000Y348000D02*
D03*
X361000Y273000D02*
D03*
X379000Y198000D02*
D03*
X417000Y123000D02*
D03*
X248000Y348000D02*
D03*
X285000Y273000D02*
D03*
X303000Y198000D02*
D03*
X342000Y123000D02*
D03*
X302000Y48000D02*
D03*
X171000Y348000D02*
D03*
X209000Y273000D02*
D03*
X228000Y198000D02*
D03*
X265000Y123000D02*
D03*
X204000Y48000D02*
D03*
X95000Y460000D02*
D03*
Y348000D02*
D03*
X131000Y273000D02*
D03*
Y198000D02*
D03*
X139000Y136000D02*
D03*
X113000Y59000D02*
D03*
X1556600Y444700D02*
D03*
X1406000Y506000D02*
D03*
X1627000Y379000D02*
D03*
X1616000D02*
D03*
X1637000Y388000D02*
D03*
X1616000D02*
D03*
X1630000Y310000D02*
D03*
X1637000Y272000D02*
D03*
X1598000Y244000D02*
D03*
X1711000Y181000D02*
D03*
X1632000Y171000D02*
D03*
X1635577Y101577D02*
D03*
X1473000Y366000D02*
D03*
Y334000D02*
D03*
Y292000D02*
D03*
X1472922Y260078D02*
D03*
X1473000Y217000D02*
D03*
Y184000D02*
D03*
Y141000D02*
D03*
Y111000D02*
D03*
X1510500Y67600D02*
D03*
X1548000Y367000D02*
D03*
Y337000D02*
D03*
Y293000D02*
D03*
Y261500D02*
D03*
Y218000D02*
D03*
Y184500D02*
D03*
Y144000D02*
D03*
X1616000Y395000D02*
D03*
X1706500Y375000D02*
D03*
X1623000Y335000D02*
D03*
X1622500Y294000D02*
D03*
X1623000Y244500D02*
D03*
Y221000D02*
D03*
Y184000D02*
D03*
Y141500D02*
D03*
X1622500Y95500D02*
D03*
Y73500D02*
D03*
X1704000Y259000D02*
D03*
X1620900Y488100D02*
D03*
Y496600D02*
D03*
X1620600Y504700D02*
D03*
Y530000D02*
D03*
Y513200D02*
D03*
Y521600D02*
D03*
D19*
X1065000Y239000D02*
D03*
X948000D02*
D03*
X873000D02*
D03*
X798000D02*
D03*
X723000D02*
D03*
X648000D02*
D03*
X573000D02*
D03*
X498000D02*
D03*
X423000D02*
D03*
X348000D02*
D03*
X273000D02*
D03*
X198000D02*
D03*
X95000D02*
D03*
X86000Y314000D02*
D03*
X179000D02*
D03*
X254000D02*
D03*
X329000D02*
D03*
X404000D02*
D03*
X479000D02*
D03*
X554000D02*
D03*
X629000D02*
D03*
X704000D02*
D03*
X779000D02*
D03*
X854000D02*
D03*
X929000D02*
D03*
X1004000D02*
D03*
X1074000Y388000D02*
D03*
X962000D02*
D03*
X887000D02*
D03*
X811000D02*
D03*
X736000D02*
D03*
X661000D02*
D03*
X586000D02*
D03*
X511000D02*
D03*
X436000D02*
D03*
X361000D02*
D03*
X286000D02*
D03*
X211000D02*
D03*
X137000D02*
D03*
X62000D02*
D03*
X1281000Y389000D02*
D03*
X1206000D02*
D03*
X1211000Y314000D02*
D03*
X1286000D02*
D03*
X1362000D02*
D03*
X1356000Y389000D02*
D03*
X1455000Y314000D02*
D03*
X1530000D02*
D03*
X1599000Y315000D02*
D03*
X1598000Y237000D02*
D03*
X1455000Y239000D02*
D03*
X1530000D02*
D03*
X1118000Y89000D02*
D03*
X1023000D02*
D03*
X921000D02*
D03*
X827000D02*
D03*
X546000D02*
D03*
X264000D02*
D03*
X180000D02*
D03*
X86000D02*
D03*
X115000Y165000D02*
D03*
X237000D02*
D03*
X312000D02*
D03*
X387000D02*
D03*
X462000D02*
D03*
X537000D02*
D03*
X612000D02*
D03*
X686000D02*
D03*
X762000D02*
D03*
X837000D02*
D03*
X912000D02*
D03*
X1057000D02*
D03*
X1287000D02*
D03*
X1455000D02*
D03*
X1530000D02*
D03*
X1605000D02*
D03*
X1598000Y88000D02*
D03*
X1486000Y87000D02*
D03*
X1361000Y89000D02*
D03*
X1286000D02*
D03*
X1211000D02*
D03*
X1530000Y385000D02*
D03*
X1673000Y388000D02*
D03*
X1128000Y499000D02*
D03*
X227000D02*
D03*
X1449626Y389000D02*
D03*
X1699626Y248986D02*
D03*
Y98985D02*
D03*
X1649626Y198986D02*
D03*
Y48985D02*
D03*
X1599626Y398986D02*
D03*
X1549626D02*
D03*
Y48985D02*
D03*
X1499626Y498985D02*
D03*
Y448985D02*
D03*
Y398986D02*
D03*
Y348986D02*
D03*
Y198986D02*
D03*
X1449626Y498985D02*
D03*
Y448985D02*
D03*
Y398986D02*
D03*
Y48985D02*
D03*
X1399626Y498985D02*
D03*
Y448985D02*
D03*
Y398986D02*
D03*
Y348986D02*
D03*
Y198986D02*
D03*
Y48985D02*
D03*
X1349626Y398986D02*
D03*
Y198986D02*
D03*
X1299626Y498985D02*
D03*
Y448985D02*
D03*
Y398986D02*
D03*
Y298986D02*
D03*
Y148986D02*
D03*
X1249626Y498985D02*
D03*
Y398986D02*
D03*
Y348986D02*
D03*
Y198986D02*
D03*
Y48985D02*
D03*
X1199626Y448985D02*
D03*
Y398986D02*
D03*
Y198986D02*
D03*
X1149626Y348986D02*
D03*
Y198986D02*
D03*
X1099626Y398986D02*
D03*
Y98985D02*
D03*
X1049626Y498985D02*
D03*
Y448985D02*
D03*
Y398986D02*
D03*
Y348986D02*
D03*
Y198986D02*
D03*
X999626Y498985D02*
D03*
Y398986D02*
D03*
X949626D02*
D03*
Y348986D02*
D03*
Y98985D02*
D03*
X899626Y498985D02*
D03*
Y448985D02*
D03*
Y398986D02*
D03*
Y48985D02*
D03*
X849626Y498985D02*
D03*
Y398986D02*
D03*
Y198986D02*
D03*
Y148986D02*
D03*
X799626Y498985D02*
D03*
Y398986D02*
D03*
Y348986D02*
D03*
Y48985D02*
D03*
X749626Y498985D02*
D03*
Y398986D02*
D03*
Y48985D02*
D03*
X699626Y498985D02*
D03*
Y448985D02*
D03*
Y198986D02*
D03*
Y148986D02*
D03*
Y48985D02*
D03*
X649626Y498985D02*
D03*
Y398986D02*
D03*
Y348986D02*
D03*
Y48985D02*
D03*
X599626Y498985D02*
D03*
Y398986D02*
D03*
Y48985D02*
D03*
X549626Y498985D02*
D03*
Y448985D02*
D03*
Y398986D02*
D03*
Y198986D02*
D03*
Y148986D02*
D03*
X499626Y498985D02*
D03*
Y398986D02*
D03*
Y348986D02*
D03*
Y48985D02*
D03*
X449626Y498985D02*
D03*
Y448985D02*
D03*
Y398986D02*
D03*
Y48985D02*
D03*
X399626Y498985D02*
D03*
Y398986D02*
D03*
Y198986D02*
D03*
Y148986D02*
D03*
Y48985D02*
D03*
X349626Y398986D02*
D03*
Y348986D02*
D03*
Y48985D02*
D03*
X299626Y498985D02*
D03*
Y448985D02*
D03*
Y398986D02*
D03*
X249626Y198986D02*
D03*
Y148986D02*
D03*
X199626Y398986D02*
D03*
Y348986D02*
D03*
X149626Y498985D02*
D03*
Y448985D02*
D03*
Y398986D02*
D03*
Y198986D02*
D03*
Y48985D02*
D03*
X99626Y498985D02*
D03*
Y448985D02*
D03*
Y398986D02*
D03*
Y298986D02*
D03*
X49626Y398986D02*
D03*
Y348986D02*
D03*
Y198986D02*
D03*
Y148986D02*
D03*
Y48985D02*
D03*
X1692000Y439000D02*
D03*
M02*
