M48
;Layer_Color=9474304
;FILE_FORMAT=2:5
INCH,LZ
;TYPE=NON_PLATED
T5F00S00C0.07480
T6F00S00C0.11811
T7F00S00C0.15748
%
T05
X0046888Y0057824
X0086258
X0140588
X0123758Y0132825
X0084388
X0206288
X0245658
X0281288
X0273758Y0057824
X0234388
X0179958
X0320658Y0132825
X0356288
X0395658
X0431288
X0470658
X0506288
X0545658
X0581288
X0620658
X0555058Y0057824
X0515688
X0656288Y0132825
X0695658
X0731288
X0770658
X0806288
X0845658
X0881288
X0920658
X0930058Y0057824
X0890688
X0836258
X0796888
X0984388
X1023758
X1078188
X1061258Y0132825
X1021888
X1117558Y0057824
X1181288
X1220658
X1256288
X1295658
X1331288
X1370658
X1295658Y0132825
X1256288
X1425088
X1464458
X1499988
X1539358
X1501858Y0057924
X1462488
X1574988Y0057824
X1614358
X1669676Y0075688
Y0115058
X1614358Y0132825
X1574988
Y0207824
X1614358
X1669676Y0225688
Y0265058
X1614358Y0282824
X1574988
X1539358
X1499988
X1464358
X1424988
Y0207824
X1464358
X1499988
X1539358
X1370658Y0282824
X1331288
X1295658
X1256288
X1220658
X1181288
X1108158
X1068788
X1014358
X0974988
X0939358
X0958158Y0207824
X1040688
X1080058
X0918788
X0883158
X0843788
X0808158
X0824988Y0282824
X0789358
X0864358
X0899988
X0749988
X0714358
X0674988
X0639358
X0658158Y0207824
X0693788
X0733158
X0768788
X0618788
X0583158
X0543788
X0508158
X0468788
X0489358Y0282824
X0524988
X0564358
X0599988
X0449988
X0414358
X0374988
X0339358
X0358158Y0207824
X0393788
X0433158
X0318788
X0283158
X0243788
X0208158
X0168788
X0189358Y0282824
X0224988
X0264358
X0299988
X0149988
X0095658
X0056288
X0065688Y0207824
X0105058
X0112488Y0357824
X0076858
X0037488
X0151858
X0187488
X0226858
X0262488
X0301858
X0337488
X0376858
X0412488
X0451858
X0487488
X0526858
X0562488
X0601858
X0637488
X0676858
X0712488
X0751858
X0787488
X0826858
X0862488
X0901858
X0937488
X0976858
X1049988
X1089358
X1181288
X1220658
X1256288
X1295658
X1331288
X1370658
X1424988
X1464358
X1499988
X1539358
X1574988
X1614358
X1649988
X1689358
X1370658Y0470325
X1331288
X1295658
X1256288
X1220658Y0470425
X1181288
X1126858Y0470325
X1087488
X1051858
X1012488
X0976858
X0937488
X0901858
X0862488
X0789358Y0470425
X0749988
X0714358
X0674988
X0639358
X0599988
X0564358
X0524988
X0451858Y0470325
X0412488
X0376858
X0337488
X0301858
X0262488
X0226858
X0187488
X0076858
X0037488
T06
X0056573Y0037824
X0081573Y0047824
X0094073Y0112824
X0119073Y0122825
X0150273Y0037824
X0175273Y0047824
X0244073Y0037824
X0269073Y0047824
X0290973Y0112824
X0240973Y0122825
X0215973Y0112824
X0315973Y0122825
X0365973Y0112824
X0390973Y0122825
X0440973Y0112824
X0465973Y0122825
X0515973Y0112824
X0540973Y0122825
X0590973Y0112824
X0615973Y0122825
X0550373Y0047824
X0525373Y0037824
X0665973Y0112824
X0690973Y0122825
X0740973Y0112824
X0765973Y0122825
X0815973Y0112824
X0840973Y0122825
X0890973Y0112824
X0915973Y0122825
X0925373Y0047824
X0900373Y0037824
X0831573Y0047824
X0806573Y0037824
X0994073
X1019073Y0047824
X1031573Y0112824
X1056573Y0122825
X1087873Y0037824
X1112873Y0047824
X1190973Y0037824
X1215973Y0047824
X1265973Y0037824
X1290973Y0047824
X1340973Y0037824
X1365973Y0047824
X1290973Y0122825
X1265973Y0112824
X1434773
X1459773Y0122825
X1509673Y0112824
X1534673Y0122825
X1497173Y0047925
X1472173Y0037925
X1584673Y0037824
X1609673Y0047824
Y0122825
X1584673Y0112824
X1679676Y0110373
X1689676Y0085373
Y0235373
X1679676Y0260373
X1609673Y0272825
X1584673Y0262825
Y0187824
X1609673Y0197825
X1534673
X1509673Y0187824
X1459673Y0197825
X1434673Y0187824
Y0262825
X1459673Y0272825
X1509673Y0262825
X1534673Y0272825
X1365973
X1340973Y0262825
X1290973Y0272825
X1265973Y0262825
X1215973Y0272825
X1190973Y0262825
X1103473Y0272825
X1078473Y0262825
X1075373Y0197825
X1050373Y0187824
X0953473Y0197825
X0984673Y0262825
X1009673Y0272825
X0934673
X0909673Y0262825
X0859673Y0272825
X0834673Y0262825
X0784673Y0272825
X0803473Y0197825
X0853473Y0187824
X0878473Y0197825
X0928473Y0187824
X0778473
X0728473Y0197825
X0703473Y0187824
X0653473Y0197825
X0628473Y0187824
X0634673Y0272825
X0684673Y0262825
X0709673Y0272825
X0759673Y0262825
X0609673
X0559673Y0272825
X0534673Y0262825
X0484673Y0272825
X0478473Y0187824
X0503473Y0197825
X0553473Y0187824
X0578473Y0197825
X0428473
X0403473Y0187824
X0353473Y0197825
X0328473Y0187824
X0334673Y0272825
X0384673Y0262825
X0409673Y0272825
X0459673Y0262825
X0309673
X0259673Y0272825
X0234673Y0262825
X0184673Y0272825
X0159673Y0262825
X0178473Y0187824
X0203473Y0197825
X0253473Y0187824
X0278473Y0197825
X0100373
X0075373Y0187824
X0065973Y0262825
X0090973Y0272825
X0072173Y0347825
X0047173Y0337825
X0122173
X0147173Y0347825
X0072173Y0460324
X0047173Y0450324
X0197173
X0222173Y0460324
X0272173Y0450324
X0297173Y0460324
Y0347825
X0272173Y0337825
X0222173Y0347825
X0197173Y0337825
X0347173
X0372173Y0347825
X0422173Y0337825
X0447173Y0347825
Y0460324
X0422173Y0450324
X0372173Y0460324
X0347173Y0450324
X0534673Y0450424
X0559673Y0460425
X0609673Y0450424
X0597173Y0347825
X0572173Y0337825
X0522173Y0347825
X0497173Y0337825
X0647173
X0672173Y0347825
X0722173Y0337825
X0747173Y0347825
X0759673Y0450424
X0709673Y0460425
X0684673Y0450424
X0634673Y0460425
X0784673
X0872173Y0450324
X0897173Y0460324
Y0347825
X0872173Y0337825
X0822173Y0347825
X0797173Y0337825
X0947173
X0972173Y0347825
X1059673Y0337825
X1084673Y0347825
X1047173Y0460324
X1022173Y0450324
X0972173Y0460324
X0947173Y0450324
X1097173
X1122173Y0460324
X1190973Y0450424
X1215973Y0460425
Y0347825
X1190973Y0337825
X1265973
X1290973Y0347825
X1340973Y0337825
X1365973Y0347825
Y0460324
X1340973Y0450324
X1290973Y0460324
X1265973Y0450324
X1434673Y0337825
X1459673Y0347825
X1509673Y0337825
X1534673Y0347825
X1584673Y0337825
X1609673Y0347825
X1659673Y0337825
X1684673Y0347825
T07
X0066573Y0057824
X0104073Y0132825
X0225973
X0300973
X0254073Y0057824
X0160273
X0375973Y0132825
X0450973
X0525973
X0600973
X0535373Y0057824
X0675973Y0132825
X0750973
X0825973
X0900973
X0910373Y0057824
X0816573
X1004073
X1041573Y0132825
X1097873Y0057824
X1200973
X1275973
Y0132825
X1350973Y0057824
X1482173Y0057924
X1444773Y0132825
X1519673
X1594673
Y0057824
X1669676Y0095373
Y0245373
X1594673Y0282824
Y0207824
X1519673
Y0282824
X1444673
Y0207824
X1350973Y0282824
X1275973
X1200973
X1088473
X0994673
X0938473Y0207824
X1060373
X0863473
X0788473
X0844673Y0282824
X0919673
X0769673
X0694673
X0713473Y0207824
X0638473
X0563473
X0488473
X0469673Y0282824
X0544673
X0619673
X0394673
X0319673
X0338473Y0207824
X0413473
X0263473
X0188473
X0169673Y0282824
X0244673
X0075973
X0085373Y0207824
X0057173Y0357824
X0132173
X0207173
X0282173
X0357173
X0432173
X0507173
X0582173
X0657173
X0732173
X0807173
X0882173
X0957173
X1069673
X1200973
X1275973
X1350973
X1444673
X1519673
X1594673
X1669673
X1350973Y0470325
X1275973
X1200973Y0470425
X1107173Y0470325
X1032173
X0957173
X0882173
X0769673Y0470425
X0694673
X0619673
X0544673
X0432173Y0470325
X0357173
X0282173
X0207173
X0057173
M30
