G04*
G04 #@! TF.GenerationSoftware,Altium Limited,Altium Designer,20.1.8 (145)*
G04*
G04 Layer_Color=16711935*
%FSLAX25Y25*%
%MOIN*%
G70*
G04*
G04 #@! TF.SameCoordinates,DC765EB9-05AD-42C3-8404-0A58541834D7*
G04*
G04*
G04 #@! TF.FilePolarity,Negative*
G04*
G01*
G75*
%ADD14C,0.16548*%
%ADD15C,0.12611*%
%ADD16C,0.08280*%
%ADD17C,0.00800*%
%ADD18C,0.05800*%
%ADD35R,0.08280X0.10642*%
%ADD36R,0.08280X0.10643*%
%ADD37R,0.07887X0.04146*%
%ADD38R,0.05918X0.01981*%
%ADD39R,0.09461X0.07887*%
%ADD40R,0.03950X0.04599*%
%ADD41R,0.03800X0.03800*%
%ADD42R,0.03800X0.03800*%
%ADD43R,0.10642X0.08280*%
%ADD44R,0.10643X0.08280*%
%ADD45R,0.04146X0.07887*%
D14*
X254073Y57824D02*
D03*
X1669673Y357824D02*
D03*
X225973Y132825D02*
D03*
X544673Y282824D02*
D03*
X300973Y132825D02*
D03*
X57173Y357824D02*
D03*
X244673Y282824D02*
D03*
X450973Y132825D02*
D03*
X1275973D02*
D03*
X619673Y282824D02*
D03*
X469673D02*
D03*
X882173Y357824D02*
D03*
X900973Y132825D02*
D03*
X1275973Y470325D02*
D03*
X263473Y207824D02*
D03*
X1350973Y57824D02*
D03*
X394673Y282824D02*
D03*
X938473Y207824D02*
D03*
X169673Y282824D02*
D03*
X1200973Y470425D02*
D03*
X1350973Y357824D02*
D03*
Y282824D02*
D03*
Y470325D02*
D03*
X844673Y282824D02*
D03*
X769673D02*
D03*
X1594673Y357824D02*
D03*
X1444673D02*
D03*
X1594673Y57824D02*
D03*
X1519673Y357824D02*
D03*
X1594673Y282824D02*
D03*
X1519673D02*
D03*
X1444673D02*
D03*
X1594673Y207824D02*
D03*
X1519673D02*
D03*
X1444673D02*
D03*
X1594673Y132825D02*
D03*
X1519673D02*
D03*
X1444773D02*
D03*
X600973D02*
D03*
X675973D02*
D03*
X1200973Y57824D02*
D03*
X788473Y207824D02*
D03*
X713473D02*
D03*
X638473D02*
D03*
X1200973Y357824D02*
D03*
X694673Y282824D02*
D03*
X1275973Y357824D02*
D03*
X563473Y207824D02*
D03*
X488473D02*
D03*
X825973Y132825D02*
D03*
X919673Y282824D02*
D03*
X413473Y207824D02*
D03*
X1107173Y470325D02*
D03*
X1032173D02*
D03*
X957173D02*
D03*
X882173D02*
D03*
X769673Y470425D02*
D03*
X694673D02*
D03*
X619673D02*
D03*
X544673D02*
D03*
X432173Y470325D02*
D03*
X357173D02*
D03*
X282173D02*
D03*
X207173D02*
D03*
X57173D02*
D03*
X1275973Y282824D02*
D03*
X319673D02*
D03*
X1275973Y57824D02*
D03*
X1200973Y282824D02*
D03*
X338473Y207824D02*
D03*
X750973Y132825D02*
D03*
X863473Y207824D02*
D03*
X375973Y132825D02*
D03*
X994673Y282824D02*
D03*
X525973Y132825D02*
D03*
X957173Y357824D02*
D03*
X188473Y207824D02*
D03*
X732173Y357824D02*
D03*
X657173D02*
D03*
X582173D02*
D03*
X507173D02*
D03*
X432173D02*
D03*
X357173D02*
D03*
X282173D02*
D03*
X207173D02*
D03*
X132173D02*
D03*
X807173D02*
D03*
X1060373Y207824D02*
D03*
X104073Y132825D02*
D03*
X1004073Y57824D02*
D03*
X66573D02*
D03*
X160273D02*
D03*
X816573D02*
D03*
X1097873D02*
D03*
X910373D02*
D03*
X1041573Y132825D02*
D03*
X85373Y207824D02*
D03*
X1069673Y357824D02*
D03*
X1482173Y57924D02*
D03*
X1669676Y245373D02*
D03*
Y95373D02*
D03*
X535373Y57824D02*
D03*
X1088473Y282824D02*
D03*
X75973D02*
D03*
D15*
X244073Y37824D02*
D03*
X269073Y47824D02*
D03*
X1659673Y337825D02*
D03*
X1684673Y347825D02*
D03*
X215973Y112824D02*
D03*
X240973Y122825D02*
D03*
X534673Y262825D02*
D03*
X559673Y272825D02*
D03*
X290973Y112824D02*
D03*
X315973Y122825D02*
D03*
X47173Y337825D02*
D03*
X72173Y347825D02*
D03*
X234673Y262825D02*
D03*
X259673Y272825D02*
D03*
X440973Y112824D02*
D03*
X465973Y122825D02*
D03*
X1265973Y112824D02*
D03*
X1290973Y122825D02*
D03*
X609673Y262825D02*
D03*
X634673Y272825D02*
D03*
X459673Y262825D02*
D03*
X484673Y272825D02*
D03*
X872173Y337825D02*
D03*
X897173Y347825D02*
D03*
X890973Y112824D02*
D03*
X915973Y122825D02*
D03*
X1265973Y450324D02*
D03*
X1290973Y460324D02*
D03*
X253473Y187824D02*
D03*
X278473Y197825D02*
D03*
X1340973Y37824D02*
D03*
X1365973Y47824D02*
D03*
X384673Y262825D02*
D03*
X409673Y272825D02*
D03*
X928473Y187824D02*
D03*
X953473Y197825D02*
D03*
X159673Y262825D02*
D03*
X184673Y272825D02*
D03*
X1190973Y450424D02*
D03*
X1215973Y460425D02*
D03*
X1340973Y337825D02*
D03*
X1365973Y347825D02*
D03*
X1340973Y262825D02*
D03*
X1365973Y272825D02*
D03*
X1340973Y450324D02*
D03*
X1365973Y460324D02*
D03*
X834673Y262825D02*
D03*
X859673Y272825D02*
D03*
X759673Y262825D02*
D03*
X784673Y272825D02*
D03*
X1584673Y337825D02*
D03*
X1609673Y347825D02*
D03*
X1434673Y337825D02*
D03*
X1459673Y347825D02*
D03*
X1584673Y37824D02*
D03*
X1609673Y47824D02*
D03*
X1509673Y337825D02*
D03*
X1534673Y347825D02*
D03*
X1584673Y262825D02*
D03*
X1609673Y272825D02*
D03*
X1509673Y262825D02*
D03*
X1534673Y272825D02*
D03*
X1434673Y262825D02*
D03*
X1459673Y272825D02*
D03*
X1584673Y187824D02*
D03*
X1609673Y197825D02*
D03*
X1509673Y187824D02*
D03*
X1534673Y197825D02*
D03*
X1434673Y187824D02*
D03*
X1459673Y197825D02*
D03*
X1584673Y112824D02*
D03*
X1609673Y122825D02*
D03*
X1509673Y112824D02*
D03*
X1534673Y122825D02*
D03*
X1434773Y112824D02*
D03*
X1459773Y122825D02*
D03*
X590973Y112824D02*
D03*
X615973Y122825D02*
D03*
X665973Y112824D02*
D03*
X690973Y122825D02*
D03*
X1190973Y37824D02*
D03*
X1215973Y47824D02*
D03*
X778473Y187824D02*
D03*
X803473Y197825D02*
D03*
X703473Y187824D02*
D03*
X728473Y197825D02*
D03*
X628473Y187824D02*
D03*
X653473Y197825D02*
D03*
X1190973Y337825D02*
D03*
X1215973Y347825D02*
D03*
X684673Y262825D02*
D03*
X709673Y272825D02*
D03*
X1265973Y337825D02*
D03*
X1290973Y347825D02*
D03*
X553473Y187824D02*
D03*
X578473Y197825D02*
D03*
X478473Y187824D02*
D03*
X503473Y197825D02*
D03*
X815973Y112824D02*
D03*
X840973Y122825D02*
D03*
X909673Y262825D02*
D03*
X934673Y272825D02*
D03*
X403473Y187824D02*
D03*
X428473Y197825D02*
D03*
X1097173Y450324D02*
D03*
X1122173Y460324D02*
D03*
X1022173Y450324D02*
D03*
X1047173Y460324D02*
D03*
X947173Y450324D02*
D03*
X972173Y460324D02*
D03*
X872173Y450324D02*
D03*
X897173Y460324D02*
D03*
X759673Y450424D02*
D03*
X784673Y460425D02*
D03*
X684673Y450424D02*
D03*
X709673Y460425D02*
D03*
X609673Y450424D02*
D03*
X634673Y460425D02*
D03*
X534673Y450424D02*
D03*
X559673Y460425D02*
D03*
X422173Y450324D02*
D03*
X447173Y460324D02*
D03*
X347173Y450324D02*
D03*
X372173Y460324D02*
D03*
X272173Y450324D02*
D03*
X297173Y460324D02*
D03*
X197173Y450324D02*
D03*
X222173Y460324D02*
D03*
X47173Y450324D02*
D03*
X72173Y460324D02*
D03*
X1265973Y262825D02*
D03*
X1290973Y272825D02*
D03*
X309673Y262825D02*
D03*
X334673Y272825D02*
D03*
X1265973Y37824D02*
D03*
X1290973Y47824D02*
D03*
X1190973Y262825D02*
D03*
X1215973Y272825D02*
D03*
X328473Y187824D02*
D03*
X353473Y197825D02*
D03*
X740973Y112824D02*
D03*
X765973Y122825D02*
D03*
X853473Y187824D02*
D03*
X878473Y197825D02*
D03*
X365973Y112824D02*
D03*
X390973Y122825D02*
D03*
X984673Y262825D02*
D03*
X1009673Y272825D02*
D03*
X515973Y112824D02*
D03*
X540973Y122825D02*
D03*
X947173Y337825D02*
D03*
X972173Y347825D02*
D03*
X178473Y187824D02*
D03*
X203473Y197825D02*
D03*
X722173Y337825D02*
D03*
X747173Y347825D02*
D03*
X647173Y337825D02*
D03*
X672173Y347825D02*
D03*
X572173Y337825D02*
D03*
X597173Y347825D02*
D03*
X497173Y337825D02*
D03*
X522173Y347825D02*
D03*
X422173Y337825D02*
D03*
X447173Y347825D02*
D03*
X347173Y337825D02*
D03*
X372173Y347825D02*
D03*
X272173Y337825D02*
D03*
X297173Y347825D02*
D03*
X197173Y337825D02*
D03*
X222173Y347825D02*
D03*
X122173Y337825D02*
D03*
X147173Y347825D02*
D03*
X797173Y337825D02*
D03*
X822173Y347825D02*
D03*
X1075373Y197825D02*
D03*
X1050373Y187824D02*
D03*
X119073Y122825D02*
D03*
X94073Y112824D02*
D03*
X994073Y37824D02*
D03*
X1019073Y47824D02*
D03*
X56573Y37824D02*
D03*
X81573Y47824D02*
D03*
X150273Y37824D02*
D03*
X175273Y47824D02*
D03*
X806573Y37824D02*
D03*
X831573Y47824D02*
D03*
X1087873Y37824D02*
D03*
X1112873Y47824D02*
D03*
X900373Y37824D02*
D03*
X925373Y47824D02*
D03*
X1056573Y122825D02*
D03*
X1031573Y112824D02*
D03*
X100373Y197825D02*
D03*
X75373Y187824D02*
D03*
X1059673Y337825D02*
D03*
X1084673Y347825D02*
D03*
X1472173Y37925D02*
D03*
X1497173Y47925D02*
D03*
X1689676Y235373D02*
D03*
X1679676Y260373D02*
D03*
X1689676Y85373D02*
D03*
X1679676Y110373D02*
D03*
X525373Y37824D02*
D03*
X550373Y47824D02*
D03*
X1078473Y262825D02*
D03*
X1103473Y272825D02*
D03*
X90973D02*
D03*
X65973Y262825D02*
D03*
D16*
X234388Y57824D02*
D03*
X273758D02*
D03*
X1649988Y357824D02*
D03*
X1689358D02*
D03*
X206288Y132825D02*
D03*
X245658D02*
D03*
X524988Y282824D02*
D03*
X564358D02*
D03*
X281288Y132825D02*
D03*
X320658D02*
D03*
X37488Y357824D02*
D03*
X76858D02*
D03*
X224988Y282824D02*
D03*
X264358D02*
D03*
X431288Y132825D02*
D03*
X470658D02*
D03*
X1256288D02*
D03*
X1295658D02*
D03*
X599988Y282824D02*
D03*
X639358D02*
D03*
X449988D02*
D03*
X489358D02*
D03*
X862488Y357824D02*
D03*
X901858D02*
D03*
X881288Y132825D02*
D03*
X920658D02*
D03*
X1256288Y470325D02*
D03*
X1295658D02*
D03*
X243788Y207824D02*
D03*
X283158D02*
D03*
X1331288Y57824D02*
D03*
X1370658D02*
D03*
X374988Y282824D02*
D03*
X414358D02*
D03*
X918788Y207824D02*
D03*
X958158D02*
D03*
X149988Y282824D02*
D03*
X189358D02*
D03*
X1181288Y470425D02*
D03*
X1220658D02*
D03*
X1331288Y357824D02*
D03*
X1370658D02*
D03*
X1331288Y282824D02*
D03*
X1370658D02*
D03*
X1331288Y470325D02*
D03*
X1370658D02*
D03*
X824988Y282824D02*
D03*
X864358D02*
D03*
X749988D02*
D03*
X789358D02*
D03*
X1574988Y357824D02*
D03*
X1614358D02*
D03*
X1424988D02*
D03*
X1464358D02*
D03*
X1574988Y57824D02*
D03*
X1614358D02*
D03*
X1499988Y357824D02*
D03*
X1539358D02*
D03*
X1574988Y282824D02*
D03*
X1614358D02*
D03*
X1499988D02*
D03*
X1539358D02*
D03*
X1424988D02*
D03*
X1464358D02*
D03*
X1574988Y207824D02*
D03*
X1614358D02*
D03*
X1499988D02*
D03*
X1539358D02*
D03*
X1424988D02*
D03*
X1464358D02*
D03*
X1574988Y132825D02*
D03*
X1614358D02*
D03*
X1499988D02*
D03*
X1539358D02*
D03*
X1425088D02*
D03*
X1464458D02*
D03*
X581288D02*
D03*
X620658D02*
D03*
X656288D02*
D03*
X695658D02*
D03*
X1181288Y57824D02*
D03*
X1220658D02*
D03*
X768788Y207824D02*
D03*
X808158D02*
D03*
X693788D02*
D03*
X733158D02*
D03*
X618788D02*
D03*
X658158D02*
D03*
X1181288Y357824D02*
D03*
X1220658D02*
D03*
X674988Y282824D02*
D03*
X714358D02*
D03*
X1256288Y357824D02*
D03*
X1295658D02*
D03*
X543788Y207824D02*
D03*
X583158D02*
D03*
X468788D02*
D03*
X508158D02*
D03*
X806288Y132825D02*
D03*
X845658D02*
D03*
X899988Y282824D02*
D03*
X939358D02*
D03*
X393788Y207824D02*
D03*
X433158D02*
D03*
X1087488Y470325D02*
D03*
X1126858D02*
D03*
X1012488D02*
D03*
X1051858D02*
D03*
X937488D02*
D03*
X976858D02*
D03*
X862488D02*
D03*
X901858D02*
D03*
X749988Y470425D02*
D03*
X789358D02*
D03*
X674988D02*
D03*
X714358D02*
D03*
X599988D02*
D03*
X639358D02*
D03*
X524988D02*
D03*
X564358D02*
D03*
X412488Y470325D02*
D03*
X451858D02*
D03*
X337488D02*
D03*
X376858D02*
D03*
X262488D02*
D03*
X301858D02*
D03*
X187488D02*
D03*
X226858D02*
D03*
X37488D02*
D03*
X76858D02*
D03*
X1256288Y282824D02*
D03*
X1295658D02*
D03*
X299988D02*
D03*
X339358D02*
D03*
X1256288Y57824D02*
D03*
X1295658D02*
D03*
X1181288Y282824D02*
D03*
X1220658D02*
D03*
X318788Y207824D02*
D03*
X358158D02*
D03*
X731288Y132825D02*
D03*
X770658D02*
D03*
X843788Y207824D02*
D03*
X883158D02*
D03*
X356288Y132825D02*
D03*
X395658D02*
D03*
X974988Y282824D02*
D03*
X1014358D02*
D03*
X506288Y132825D02*
D03*
X545658D02*
D03*
X937488Y357824D02*
D03*
X976858D02*
D03*
X168788Y207824D02*
D03*
X208158D02*
D03*
X712488Y357824D02*
D03*
X751858D02*
D03*
X637488D02*
D03*
X676858D02*
D03*
X562488D02*
D03*
X601858D02*
D03*
X487488D02*
D03*
X526858D02*
D03*
X412488D02*
D03*
X451858D02*
D03*
X337488D02*
D03*
X376858D02*
D03*
X262488D02*
D03*
X301858D02*
D03*
X187488D02*
D03*
X226858D02*
D03*
X112488D02*
D03*
X151858D02*
D03*
X787488D02*
D03*
X826858D02*
D03*
X1080058Y207824D02*
D03*
X1040688D02*
D03*
X123758Y132825D02*
D03*
X84388D02*
D03*
X984388Y57824D02*
D03*
X1023758D02*
D03*
X46888D02*
D03*
X86258D02*
D03*
X140588D02*
D03*
X179958D02*
D03*
X796888D02*
D03*
X836258D02*
D03*
X1078188D02*
D03*
X1117558D02*
D03*
X890688D02*
D03*
X930058D02*
D03*
X1061258Y132825D02*
D03*
X1021888D02*
D03*
X105058Y207824D02*
D03*
X65688D02*
D03*
X1049988Y357824D02*
D03*
X1089358D02*
D03*
X1462488Y57924D02*
D03*
X1501858D02*
D03*
X1669676Y225688D02*
D03*
Y265058D02*
D03*
Y75688D02*
D03*
Y115058D02*
D03*
X515688Y57824D02*
D03*
X555058D02*
D03*
X1068788Y282824D02*
D03*
X1108158D02*
D03*
X95658D02*
D03*
X56288D02*
D03*
D17*
X1639200Y48400D02*
D03*
X1699200D02*
D03*
Y142400D02*
D03*
X1639200D02*
D03*
Y198400D02*
D03*
X1699200D02*
D03*
Y292400D02*
D03*
X1639200D02*
D03*
X1435200Y83300D02*
D03*
Y23300D02*
D03*
X1529200D02*
D03*
Y83300D02*
D03*
X732500Y83200D02*
D03*
Y23200D02*
D03*
X338500D02*
D03*
Y83200D02*
D03*
X994600Y158300D02*
D03*
Y98300D02*
D03*
X1088600D02*
D03*
Y158300D02*
D03*
X1013300Y233300D02*
D03*
Y173300D02*
D03*
X1107300D02*
D03*
Y233300D02*
D03*
X1022700Y383300D02*
D03*
Y323300D02*
D03*
X1116700D02*
D03*
Y383300D02*
D03*
X57000Y158300D02*
D03*
Y98300D02*
D03*
X151000D02*
D03*
Y158300D02*
D03*
D18*
X1666076Y438770D02*
D03*
X1620900Y496600D02*
D03*
Y488100D02*
D03*
X1620600Y521600D02*
D03*
Y504700D02*
D03*
Y513200D02*
D03*
Y530000D02*
D03*
D35*
X282373Y47824D02*
D03*
X1697973Y347825D02*
D03*
X254273Y122825D02*
D03*
X572973Y272825D02*
D03*
X329273Y122825D02*
D03*
X85473Y347825D02*
D03*
X272973Y272825D02*
D03*
X479273Y122825D02*
D03*
X1304273D02*
D03*
X647973Y272825D02*
D03*
X497973D02*
D03*
X910473Y347825D02*
D03*
X929273Y122825D02*
D03*
X1304273Y460324D02*
D03*
X291773Y197825D02*
D03*
X1379273Y47824D02*
D03*
X422973Y272825D02*
D03*
X966773Y197825D02*
D03*
X197973Y272825D02*
D03*
X1229273Y460425D02*
D03*
X1379273Y347825D02*
D03*
Y272825D02*
D03*
Y460324D02*
D03*
X872973Y272825D02*
D03*
X797973D02*
D03*
X1622973Y347825D02*
D03*
X1472973D02*
D03*
X1622973Y47824D02*
D03*
X1547973Y347825D02*
D03*
X1622973Y272825D02*
D03*
X1547973D02*
D03*
X1472973D02*
D03*
X1622973Y197825D02*
D03*
X1547973D02*
D03*
X1472973D02*
D03*
X1622973Y122825D02*
D03*
X1547973D02*
D03*
X1473073D02*
D03*
X629273D02*
D03*
X704273D02*
D03*
X1229273Y47824D02*
D03*
X816773Y197825D02*
D03*
X741773D02*
D03*
X666773D02*
D03*
X1229273Y347825D02*
D03*
X722973Y272825D02*
D03*
X1304273Y347825D02*
D03*
X591773Y197825D02*
D03*
X516773D02*
D03*
X854273Y122825D02*
D03*
X947973Y272825D02*
D03*
X441773Y197825D02*
D03*
X1135473Y460324D02*
D03*
X1060473D02*
D03*
X985473D02*
D03*
X910473D02*
D03*
X797973Y460425D02*
D03*
X722973D02*
D03*
X647973D02*
D03*
X572973D02*
D03*
X460473Y460324D02*
D03*
X385473D02*
D03*
X310473D02*
D03*
X235473D02*
D03*
X85473D02*
D03*
X1304273Y272825D02*
D03*
X347973D02*
D03*
X1304273Y47824D02*
D03*
X1229273Y272825D02*
D03*
X366773Y197825D02*
D03*
X779273Y122825D02*
D03*
X891773Y197825D02*
D03*
X404273Y122825D02*
D03*
X1022973Y272825D02*
D03*
X554273Y122825D02*
D03*
X985473Y347825D02*
D03*
X216773Y197825D02*
D03*
X760473Y347825D02*
D03*
X685473D02*
D03*
X610473D02*
D03*
X535473D02*
D03*
X460473D02*
D03*
X385473D02*
D03*
X310473D02*
D03*
X235473D02*
D03*
X160473D02*
D03*
X835473D02*
D03*
X1088673Y197825D02*
D03*
X132373Y122825D02*
D03*
X1032373Y47824D02*
D03*
X94873D02*
D03*
X188573D02*
D03*
X844873D02*
D03*
X1126173D02*
D03*
X938673D02*
D03*
X1069873Y122825D02*
D03*
X113673Y197825D02*
D03*
X1097973Y347825D02*
D03*
X1510473Y47925D02*
D03*
X563673Y47824D02*
D03*
X1116773Y272825D02*
D03*
X104273D02*
D03*
D36*
X230773Y37824D02*
D03*
X1646373Y337825D02*
D03*
X202673Y112824D02*
D03*
X521373Y262825D02*
D03*
X277673Y112824D02*
D03*
X33873Y337825D02*
D03*
X221373Y262825D02*
D03*
X427673Y112824D02*
D03*
X1252673D02*
D03*
X596373Y262825D02*
D03*
X446373D02*
D03*
X858873Y337825D02*
D03*
X877673Y112824D02*
D03*
X1252673Y450324D02*
D03*
X240173Y187824D02*
D03*
X1327673Y37824D02*
D03*
X371373Y262825D02*
D03*
X915173Y187824D02*
D03*
X146373Y262825D02*
D03*
X1177673Y450424D02*
D03*
X1327673Y337825D02*
D03*
Y262825D02*
D03*
Y450324D02*
D03*
X821373Y262825D02*
D03*
X746373D02*
D03*
X1571373Y337825D02*
D03*
X1421373D02*
D03*
X1571373Y37824D02*
D03*
X1496373Y337825D02*
D03*
X1571373Y262825D02*
D03*
X1496373D02*
D03*
X1421373D02*
D03*
X1571373Y187824D02*
D03*
X1496373D02*
D03*
X1421373D02*
D03*
X1571373Y112824D02*
D03*
X1496373D02*
D03*
X1421473D02*
D03*
X577673D02*
D03*
X652673D02*
D03*
X1177673Y37824D02*
D03*
X765173Y187824D02*
D03*
X690173D02*
D03*
X615173D02*
D03*
X1177673Y337825D02*
D03*
X671373Y262825D02*
D03*
X1252673Y337825D02*
D03*
X540173Y187824D02*
D03*
X465173D02*
D03*
X802673Y112824D02*
D03*
X896373Y262825D02*
D03*
X390173Y187824D02*
D03*
X1083873Y450324D02*
D03*
X1008873D02*
D03*
X933873D02*
D03*
X858873D02*
D03*
X746373Y450424D02*
D03*
X671373D02*
D03*
X596373D02*
D03*
X521373D02*
D03*
X408873Y450324D02*
D03*
X333873D02*
D03*
X258873D02*
D03*
X183873D02*
D03*
X33873D02*
D03*
X1252673Y262825D02*
D03*
X296373D02*
D03*
X1252673Y37824D02*
D03*
X1177673Y262825D02*
D03*
X315173Y187824D02*
D03*
X727673Y112824D02*
D03*
X840173Y187824D02*
D03*
X352673Y112824D02*
D03*
X971373Y262825D02*
D03*
X502673Y112824D02*
D03*
X933873Y337825D02*
D03*
X165173Y187824D02*
D03*
X708873Y337825D02*
D03*
X633873D02*
D03*
X558873D02*
D03*
X483873D02*
D03*
X408873D02*
D03*
X333873D02*
D03*
X258873D02*
D03*
X183873D02*
D03*
X108873D02*
D03*
X783873D02*
D03*
X1037073Y187824D02*
D03*
X80773Y112824D02*
D03*
X980773Y37824D02*
D03*
X43273D02*
D03*
X136973D02*
D03*
X793273D02*
D03*
X1074573D02*
D03*
X887073D02*
D03*
X1018273Y112824D02*
D03*
X62073Y187824D02*
D03*
X1046373Y337825D02*
D03*
X1458873Y37925D02*
D03*
X512073Y37824D02*
D03*
X1065173Y262825D02*
D03*
X52673D02*
D03*
D37*
X243900Y72407D02*
D03*
X264371D02*
D03*
X264373Y79100D02*
D03*
X243900D02*
D03*
X1659500Y372407D02*
D03*
X1679971D02*
D03*
X1679973Y379100D02*
D03*
X1659500D02*
D03*
X215800Y147407D02*
D03*
X236271D02*
D03*
X236273Y154100D02*
D03*
X215800D02*
D03*
X534500Y297407D02*
D03*
X554971D02*
D03*
X554973Y304100D02*
D03*
X534500D02*
D03*
X290800Y147407D02*
D03*
X311271D02*
D03*
X311273Y154100D02*
D03*
X290800D02*
D03*
X47000Y372407D02*
D03*
X67471D02*
D03*
X67473Y379100D02*
D03*
X47000D02*
D03*
X234500Y297407D02*
D03*
X254971D02*
D03*
X254973Y304100D02*
D03*
X234500D02*
D03*
X440800Y147407D02*
D03*
X461271D02*
D03*
X461273Y154100D02*
D03*
X440800D02*
D03*
X1265800Y147407D02*
D03*
X1286271D02*
D03*
X1286273Y154100D02*
D03*
X1265800D02*
D03*
X609500Y297407D02*
D03*
X629971D02*
D03*
X629973Y304100D02*
D03*
X609500D02*
D03*
X459500Y297407D02*
D03*
X479971D02*
D03*
X479973Y304100D02*
D03*
X459500D02*
D03*
X872000Y372407D02*
D03*
X892471D02*
D03*
X892473Y379100D02*
D03*
X872000D02*
D03*
X890800Y147407D02*
D03*
X911271D02*
D03*
X911273Y154100D02*
D03*
X890800D02*
D03*
X1265800Y484907D02*
D03*
X1286271D02*
D03*
X1286273Y491600D02*
D03*
X1265800D02*
D03*
X253300Y222407D02*
D03*
X273771D02*
D03*
X273773Y229100D02*
D03*
X253300D02*
D03*
X1340800Y72407D02*
D03*
X1361271D02*
D03*
X1361273Y79100D02*
D03*
X1340800D02*
D03*
X384500Y297407D02*
D03*
X404971D02*
D03*
X404973Y304100D02*
D03*
X384500D02*
D03*
X928300Y222407D02*
D03*
X948771D02*
D03*
X948773Y229100D02*
D03*
X928300D02*
D03*
X159500Y297407D02*
D03*
X179971D02*
D03*
X179973Y304100D02*
D03*
X159500D02*
D03*
X1190800Y485007D02*
D03*
X1211271D02*
D03*
X1211273Y491700D02*
D03*
X1190800D02*
D03*
X1340800Y372407D02*
D03*
X1361271D02*
D03*
X1361273Y379100D02*
D03*
X1340800D02*
D03*
Y297407D02*
D03*
X1361271D02*
D03*
X1361273Y304100D02*
D03*
X1340800D02*
D03*
Y484907D02*
D03*
X1361271D02*
D03*
X1361273Y491600D02*
D03*
X1340800D02*
D03*
X834500Y297407D02*
D03*
X854971D02*
D03*
X854973Y304100D02*
D03*
X834500D02*
D03*
X759500Y297407D02*
D03*
X779971D02*
D03*
X779973Y304100D02*
D03*
X759500D02*
D03*
X1584500Y372407D02*
D03*
X1604971D02*
D03*
X1604973Y379100D02*
D03*
X1584500D02*
D03*
X1434500Y372407D02*
D03*
X1454971D02*
D03*
X1454973Y379100D02*
D03*
X1434500D02*
D03*
X1584500Y72407D02*
D03*
X1604971D02*
D03*
X1604973Y79100D02*
D03*
X1584500D02*
D03*
X1509500Y372407D02*
D03*
X1529971D02*
D03*
X1529973Y379100D02*
D03*
X1509500D02*
D03*
X1584500Y297407D02*
D03*
X1604971D02*
D03*
X1604973Y304100D02*
D03*
X1584500D02*
D03*
X1509500Y297407D02*
D03*
X1529971D02*
D03*
X1529973Y304100D02*
D03*
X1509500D02*
D03*
X1434500Y297407D02*
D03*
X1454971D02*
D03*
X1454973Y304100D02*
D03*
X1434500D02*
D03*
X1584500Y222407D02*
D03*
X1604971D02*
D03*
X1604973Y229100D02*
D03*
X1584500D02*
D03*
X1509500Y222407D02*
D03*
X1529971D02*
D03*
X1529973Y229100D02*
D03*
X1509500D02*
D03*
X1434500Y222407D02*
D03*
X1454971D02*
D03*
X1454973Y229100D02*
D03*
X1434500D02*
D03*
X1584500Y147407D02*
D03*
X1604971D02*
D03*
X1604973Y154100D02*
D03*
X1584500D02*
D03*
X1509500Y147407D02*
D03*
X1529971D02*
D03*
X1529973Y154100D02*
D03*
X1509500D02*
D03*
X1434600Y147407D02*
D03*
X1455071D02*
D03*
X1455073Y154100D02*
D03*
X1434600D02*
D03*
X590800Y147407D02*
D03*
X611271D02*
D03*
X611273Y154100D02*
D03*
X590800D02*
D03*
X665800Y147407D02*
D03*
X686271D02*
D03*
X686273Y154100D02*
D03*
X665800D02*
D03*
X1190800Y72407D02*
D03*
X1211271D02*
D03*
X1211273Y79100D02*
D03*
X1190800D02*
D03*
X778300Y222407D02*
D03*
X798771D02*
D03*
X798773Y229100D02*
D03*
X778300D02*
D03*
X703300Y222407D02*
D03*
X723771D02*
D03*
X723773Y229100D02*
D03*
X703300D02*
D03*
X628300Y222407D02*
D03*
X648771D02*
D03*
X648773Y229100D02*
D03*
X628300D02*
D03*
X1190800Y372407D02*
D03*
X1211271D02*
D03*
X1211273Y379100D02*
D03*
X1190800D02*
D03*
X684500Y297407D02*
D03*
X704971D02*
D03*
X704973Y304100D02*
D03*
X684500D02*
D03*
X1265800Y372407D02*
D03*
X1286271D02*
D03*
X1286273Y379100D02*
D03*
X1265800D02*
D03*
X553300Y222407D02*
D03*
X573771D02*
D03*
X573773Y229100D02*
D03*
X553300D02*
D03*
X478300Y222407D02*
D03*
X498771D02*
D03*
X498773Y229100D02*
D03*
X478300D02*
D03*
X815800Y147407D02*
D03*
X836271D02*
D03*
X836273Y154100D02*
D03*
X815800D02*
D03*
X909500Y297407D02*
D03*
X929971D02*
D03*
X929973Y304100D02*
D03*
X909500D02*
D03*
X403300Y222407D02*
D03*
X423771D02*
D03*
X423773Y229100D02*
D03*
X403300D02*
D03*
X1097000Y484907D02*
D03*
X1117471D02*
D03*
X1117473Y491600D02*
D03*
X1097000D02*
D03*
X1022000Y484907D02*
D03*
X1042471D02*
D03*
X1042473Y491600D02*
D03*
X1022000D02*
D03*
X947000Y484907D02*
D03*
X967471D02*
D03*
X967473Y491600D02*
D03*
X947000D02*
D03*
X872000Y484907D02*
D03*
X892471D02*
D03*
X892473Y491600D02*
D03*
X872000D02*
D03*
X759500Y485007D02*
D03*
X779971D02*
D03*
X779973Y491700D02*
D03*
X759500D02*
D03*
X684500Y485007D02*
D03*
X704971D02*
D03*
X704973Y491700D02*
D03*
X684500D02*
D03*
X609500Y485007D02*
D03*
X629971D02*
D03*
X629973Y491700D02*
D03*
X609500D02*
D03*
X534500Y485007D02*
D03*
X554971D02*
D03*
X554973Y491700D02*
D03*
X534500D02*
D03*
X422000Y484907D02*
D03*
X442471D02*
D03*
X442473Y491600D02*
D03*
X422000D02*
D03*
X347000Y484907D02*
D03*
X367471D02*
D03*
X367473Y491600D02*
D03*
X347000D02*
D03*
X272000Y484907D02*
D03*
X292471D02*
D03*
X292473Y491600D02*
D03*
X272000D02*
D03*
X197000Y484907D02*
D03*
X217471D02*
D03*
X217473Y491600D02*
D03*
X197000D02*
D03*
X47000Y484907D02*
D03*
X67471D02*
D03*
X67473Y491600D02*
D03*
X47000D02*
D03*
X1265800Y297407D02*
D03*
X1286271D02*
D03*
X1286273Y304100D02*
D03*
X1265800D02*
D03*
X309500Y297407D02*
D03*
X329971D02*
D03*
X329973Y304100D02*
D03*
X309500D02*
D03*
X1265800Y72407D02*
D03*
X1286271D02*
D03*
X1286273Y79100D02*
D03*
X1265800D02*
D03*
X1190800Y297407D02*
D03*
X1211271D02*
D03*
X1211273Y304100D02*
D03*
X1190800D02*
D03*
X328300Y222407D02*
D03*
X348771D02*
D03*
X348773Y229100D02*
D03*
X328300D02*
D03*
X740800Y147407D02*
D03*
X761271D02*
D03*
X761273Y154100D02*
D03*
X740800D02*
D03*
X853300Y222407D02*
D03*
X873771D02*
D03*
X873773Y229100D02*
D03*
X853300D02*
D03*
X365800Y147407D02*
D03*
X386271D02*
D03*
X386273Y154100D02*
D03*
X365800D02*
D03*
X984500Y297407D02*
D03*
X1004971D02*
D03*
X1004973Y304100D02*
D03*
X984500D02*
D03*
X515800Y147407D02*
D03*
X536271D02*
D03*
X536273Y154100D02*
D03*
X515800D02*
D03*
X947000Y372407D02*
D03*
X967471D02*
D03*
X967473Y379100D02*
D03*
X947000D02*
D03*
X178300Y222407D02*
D03*
X198771D02*
D03*
X198773Y229100D02*
D03*
X178300D02*
D03*
X722000Y372407D02*
D03*
X742471D02*
D03*
X742473Y379100D02*
D03*
X722000D02*
D03*
X647000Y372407D02*
D03*
X667471D02*
D03*
X667473Y379100D02*
D03*
X647000D02*
D03*
X572000Y372407D02*
D03*
X592471D02*
D03*
X592473Y379100D02*
D03*
X572000D02*
D03*
X497000Y372407D02*
D03*
X517471D02*
D03*
X517473Y379100D02*
D03*
X497000D02*
D03*
X422000Y372407D02*
D03*
X442471D02*
D03*
X442473Y379100D02*
D03*
X422000D02*
D03*
X347000Y372407D02*
D03*
X367471D02*
D03*
X367473Y379100D02*
D03*
X347000D02*
D03*
X272000Y372407D02*
D03*
X292471D02*
D03*
X292473Y379100D02*
D03*
X272000D02*
D03*
X197000Y372407D02*
D03*
X217471D02*
D03*
X217473Y379100D02*
D03*
X197000D02*
D03*
X122000Y372407D02*
D03*
X142471D02*
D03*
X142473Y379100D02*
D03*
X122000D02*
D03*
X797000Y372407D02*
D03*
X817471D02*
D03*
X817473Y379100D02*
D03*
X797000D02*
D03*
X1050200Y229100D02*
D03*
X1070673D02*
D03*
X1070671Y222407D02*
D03*
X1050200D02*
D03*
X93900Y154100D02*
D03*
X114373D02*
D03*
X114371Y147407D02*
D03*
X93900D02*
D03*
X993900Y72407D02*
D03*
X1014371D02*
D03*
X1014373Y79100D02*
D03*
X993900D02*
D03*
X56400Y72407D02*
D03*
X76871D02*
D03*
X76873Y79100D02*
D03*
X56400D02*
D03*
X150100Y72407D02*
D03*
X170571D02*
D03*
X170573Y79100D02*
D03*
X150100D02*
D03*
X806400Y72407D02*
D03*
X826871D02*
D03*
X826873Y79100D02*
D03*
X806400D02*
D03*
X1087700Y72407D02*
D03*
X1108171D02*
D03*
X1108173Y79100D02*
D03*
X1087700D02*
D03*
X900200Y72407D02*
D03*
X920671D02*
D03*
X920673Y79100D02*
D03*
X900200D02*
D03*
X1031400Y154100D02*
D03*
X1051873D02*
D03*
X1051871Y147407D02*
D03*
X1031400D02*
D03*
X75200Y229100D02*
D03*
X95673D02*
D03*
X95671Y222407D02*
D03*
X75200D02*
D03*
X1059500Y372407D02*
D03*
X1079971D02*
D03*
X1079973Y379100D02*
D03*
X1059500D02*
D03*
X1472000Y72507D02*
D03*
X1492471D02*
D03*
X1492473Y79200D02*
D03*
X1472000D02*
D03*
X525200Y72407D02*
D03*
X545671D02*
D03*
X545673Y79100D02*
D03*
X525200D02*
D03*
X1078300Y297407D02*
D03*
X1098771D02*
D03*
X1098773Y304100D02*
D03*
X1078300D02*
D03*
X65800D02*
D03*
X86273D02*
D03*
X86271Y297407D02*
D03*
X65800D02*
D03*
D38*
X1683000Y421071D02*
D03*
Y423039D02*
D03*
Y425008D02*
D03*
Y426976D02*
D03*
Y428945D02*
D03*
Y430913D02*
D03*
Y432882D02*
D03*
Y434851D02*
D03*
Y436819D02*
D03*
Y438788D02*
D03*
Y440756D02*
D03*
Y442725D02*
D03*
Y444693D02*
D03*
Y446662D02*
D03*
Y448630D02*
D03*
Y450598D02*
D03*
Y452567D02*
D03*
Y454535D02*
D03*
Y456504D02*
D03*
Y458472D02*
D03*
Y460441D02*
D03*
Y462409D02*
D03*
Y464378D02*
D03*
Y466347D02*
D03*
Y468315D02*
D03*
Y470284D02*
D03*
Y472252D02*
D03*
Y474221D02*
D03*
Y476189D02*
D03*
Y478158D02*
D03*
Y480126D02*
D03*
Y486032D02*
D03*
Y488000D02*
D03*
Y489969D02*
D03*
Y491937D02*
D03*
Y493906D02*
D03*
Y495874D02*
D03*
Y497843D02*
D03*
Y484063D02*
D03*
Y482095D02*
D03*
D39*
X1692831Y414575D02*
D03*
Y504339D02*
D03*
D40*
X1637000Y530000D02*
D03*
X1643299D02*
D03*
X1612500Y530000D02*
D03*
X1606201D02*
D03*
X1637000Y521600D02*
D03*
X1643299D02*
D03*
X1612500Y521600D02*
D03*
X1606201D02*
D03*
X1612500Y513200D02*
D03*
X1606201D02*
D03*
X1612500Y496400D02*
D03*
X1606201D02*
D03*
X1637000D02*
D03*
X1643299D02*
D03*
X1612500Y504800D02*
D03*
X1606201D02*
D03*
X1637000D02*
D03*
X1643299D02*
D03*
X1396500Y491500D02*
D03*
X1390201D02*
D03*
X19500Y72500D02*
D03*
X13201D02*
D03*
X1612500Y488000D02*
D03*
X1606201D02*
D03*
X1637000Y513200D02*
D03*
X1643299D02*
D03*
X1637000Y488000D02*
D03*
X1643299D02*
D03*
D41*
X165000Y89000D02*
D03*
X170500Y89100D02*
D03*
X71000Y89000D02*
D03*
X76500Y89100D02*
D03*
X272000Y389500D02*
D03*
X277500Y389600D02*
D03*
X347000Y389500D02*
D03*
X352500Y389600D02*
D03*
X422000Y389500D02*
D03*
X427500Y389600D02*
D03*
X497000Y389500D02*
D03*
X502500Y389600D02*
D03*
X572000Y389500D02*
D03*
X577500Y389600D02*
D03*
X647000Y389500D02*
D03*
X652500Y389600D02*
D03*
X722000Y389500D02*
D03*
X727500Y389600D02*
D03*
X797000Y389500D02*
D03*
X802500Y389600D02*
D03*
X872000Y389500D02*
D03*
X877500Y389600D02*
D03*
X947000Y389500D02*
D03*
X952500Y389600D02*
D03*
X1059500Y389500D02*
D03*
X1065000Y389600D02*
D03*
X1191000Y389500D02*
D03*
X1196500Y389600D02*
D03*
X1266000Y389500D02*
D03*
X1271500Y389600D02*
D03*
X1584500Y389500D02*
D03*
X1590000Y389600D02*
D03*
X1659500Y389500D02*
D03*
X1665000Y389600D02*
D03*
X47000Y389500D02*
D03*
X52500Y389600D02*
D03*
X122000Y389500D02*
D03*
X127500Y389600D02*
D03*
X197000Y389500D02*
D03*
X202500Y389600D02*
D03*
X1341000Y389500D02*
D03*
X1346500Y389600D02*
D03*
X1434500Y389500D02*
D03*
X1440000Y389600D02*
D03*
X1509500Y389500D02*
D03*
X1515000Y389600D02*
D03*
X909500Y314500D02*
D03*
X915000Y314600D02*
D03*
X834500Y314500D02*
D03*
X840000Y314600D02*
D03*
X759500Y314500D02*
D03*
X765000Y314600D02*
D03*
X684500Y314500D02*
D03*
X690000Y314600D02*
D03*
X609500Y314500D02*
D03*
X615000Y314600D02*
D03*
X535000Y314500D02*
D03*
X540500Y314600D02*
D03*
X459500Y314500D02*
D03*
X465000Y314600D02*
D03*
X384500Y314500D02*
D03*
X390000Y314600D02*
D03*
X309500Y314500D02*
D03*
X315000Y314600D02*
D03*
X234500Y314500D02*
D03*
X240000Y314600D02*
D03*
X159500Y314500D02*
D03*
X165000Y314600D02*
D03*
X66000Y314500D02*
D03*
X71500Y314600D02*
D03*
X1585000Y239500D02*
D03*
X1590500Y239600D02*
D03*
X1341000Y502000D02*
D03*
X1346500Y502100D02*
D03*
X1584500Y164500D02*
D03*
X1590000Y164600D02*
D03*
X1509500Y239500D02*
D03*
X1515000Y239600D02*
D03*
X1266000Y502000D02*
D03*
X1271500Y502100D02*
D03*
X1509500Y164500D02*
D03*
X1515000Y164600D02*
D03*
X1434500Y239500D02*
D03*
X1440000Y239600D02*
D03*
X1434500Y164500D02*
D03*
X1440000Y164600D02*
D03*
X1050000Y239500D02*
D03*
X1055500Y239600D02*
D03*
X1191000Y502000D02*
D03*
X1196500Y502100D02*
D03*
X1266000Y164500D02*
D03*
X1271500Y164600D02*
D03*
X928500Y239500D02*
D03*
X934000Y239600D02*
D03*
X1097000Y502000D02*
D03*
X1102500Y502100D02*
D03*
X1031500Y164500D02*
D03*
X1037000Y164600D02*
D03*
X1022000Y502000D02*
D03*
X1027500Y502100D02*
D03*
X853500Y239500D02*
D03*
X859000Y239600D02*
D03*
X891000Y164500D02*
D03*
X896500Y164600D02*
D03*
X1584500Y89500D02*
D03*
X1590000Y89600D02*
D03*
X947000Y502000D02*
D03*
X952500Y502100D02*
D03*
X778500Y239500D02*
D03*
X784000Y239600D02*
D03*
X816000Y164500D02*
D03*
X821500Y164600D02*
D03*
X1472000Y89500D02*
D03*
X1477500Y89600D02*
D03*
X872000Y502000D02*
D03*
X877500Y502100D02*
D03*
X703500Y239500D02*
D03*
X709000Y239600D02*
D03*
X740500Y164500D02*
D03*
X746000Y164600D02*
D03*
X1340500Y89500D02*
D03*
X1346000Y89600D02*
D03*
X759500Y502000D02*
D03*
X765000Y502100D02*
D03*
X628500Y239500D02*
D03*
X634000Y239600D02*
D03*
X666000Y164500D02*
D03*
X671500Y164600D02*
D03*
X1266000Y89500D02*
D03*
X1271500Y89600D02*
D03*
X684500Y502000D02*
D03*
X690000Y502100D02*
D03*
X553500Y239500D02*
D03*
X559000Y239600D02*
D03*
X1191000Y89500D02*
D03*
X1196500Y89600D02*
D03*
X609500Y502000D02*
D03*
X615000Y502100D02*
D03*
X591000Y164500D02*
D03*
X596500Y164600D02*
D03*
X478500Y239500D02*
D03*
X484000Y239600D02*
D03*
X1102500Y89000D02*
D03*
X1108000Y89100D02*
D03*
X534500Y502000D02*
D03*
X540000Y502100D02*
D03*
X1584500Y314500D02*
D03*
X1590000Y314600D02*
D03*
X515500Y164500D02*
D03*
X521000Y164600D02*
D03*
X403500Y239500D02*
D03*
X409000Y239600D02*
D03*
X1008500Y89000D02*
D03*
X1014000Y89100D02*
D03*
X422000Y502000D02*
D03*
X427500Y502100D02*
D03*
X1509500Y314500D02*
D03*
X1515000Y314600D02*
D03*
X441000Y164500D02*
D03*
X446500Y164600D02*
D03*
X328500Y239500D02*
D03*
X334000Y239600D02*
D03*
X900000Y89500D02*
D03*
X905500Y89600D02*
D03*
X347000Y502000D02*
D03*
X352500Y502100D02*
D03*
X1434500Y314500D02*
D03*
X1440000Y314600D02*
D03*
X365500Y164500D02*
D03*
X371000Y164600D02*
D03*
X253500Y239500D02*
D03*
X259000Y239600D02*
D03*
X806500Y89500D02*
D03*
X812000Y89600D02*
D03*
X272000Y502000D02*
D03*
X277500Y502100D02*
D03*
X1340500Y314500D02*
D03*
X1346000Y314600D02*
D03*
X290500Y164500D02*
D03*
X296000Y164600D02*
D03*
X178500Y239500D02*
D03*
X184000Y239600D02*
D03*
X197000Y502000D02*
D03*
X202500Y502100D02*
D03*
X1266000Y314500D02*
D03*
X1271500Y314600D02*
D03*
X215500Y164500D02*
D03*
X221000Y164600D02*
D03*
X75000Y239500D02*
D03*
X80500Y239600D02*
D03*
X525000Y89500D02*
D03*
X530500Y89600D02*
D03*
X47000Y502000D02*
D03*
X52500Y502100D02*
D03*
X94000Y164500D02*
D03*
X99500Y164600D02*
D03*
X244000Y89500D02*
D03*
X249500Y89600D02*
D03*
X1191000Y314500D02*
D03*
X1196500Y314600D02*
D03*
X1078500Y314500D02*
D03*
X1084000Y314600D02*
D03*
X984500Y314500D02*
D03*
X990000Y314600D02*
D03*
D42*
X1637853Y84826D02*
D03*
X1637753Y90326D02*
D03*
X1637853Y235323D02*
D03*
X1637753Y240823D02*
D03*
D43*
X1679675Y273673D02*
D03*
Y123673D02*
D03*
D44*
X1689676Y222073D02*
D03*
Y72073D02*
D03*
D45*
X1655093Y235200D02*
D03*
Y255671D02*
D03*
X1648400Y255673D02*
D03*
Y235200D02*
D03*
X1655093Y85200D02*
D03*
Y105671D02*
D03*
X1648400Y105673D02*
D03*
Y85200D02*
D03*
M02*
