G04*
G04 #@! TF.GenerationSoftware,Altium Limited,Altium Designer,20.2.6 (244)*
G04*
G04 Layer_Color=8388736*
%FSLAX25Y25*%
%MOIN*%
G70*
G04*
G04 #@! TF.SameCoordinates,CFAAA4C9-4C41-4F38-B22A-D29D1F60BAB1*
G04*
G04*
G04 #@! TF.FilePolarity,Negative*
G04*
G01*
G75*
%ADD14C,0.24422*%
%ADD15C,0.08280*%
%ADD16C,0.12611*%
%ADD17C,0.16548*%
%ADD18C,0.00800*%
%ADD19C,0.04800*%
%ADD20C,0.05800*%
G36*
X1289918Y204057D02*
X1289221D01*
Y204926D01*
X1289918D01*
Y204057D01*
D02*
G37*
G36*
X1276421Y205992D02*
X1276487Y205975D01*
X1276552Y205959D01*
X1276618Y205926D01*
X1276692Y205885D01*
X1276757Y205828D01*
X1276766Y205820D01*
X1276782Y205795D01*
X1276815Y205762D01*
X1276848Y205713D01*
X1276872Y205656D01*
X1276905Y205582D01*
X1276921Y205492D01*
X1276930Y205401D01*
Y203565D01*
X1276208Y203565D01*
Y205369D01*
X1274388D01*
Y198595D01*
X1276208D01*
Y201375D01*
X1275347D01*
Y201990D01*
X1276930Y201990D01*
Y198554D01*
Y198546D01*
Y198513D01*
X1276921Y198464D01*
X1276905Y198407D01*
X1276889Y198333D01*
X1276856Y198267D01*
X1276815Y198194D01*
X1276757Y198128D01*
X1276749Y198120D01*
X1276725Y198103D01*
X1276692Y198079D01*
X1276643Y198046D01*
X1276585Y198013D01*
X1276511Y197989D01*
X1276421Y197972D01*
X1276331Y197964D01*
X1274224D01*
X1274174Y197972D01*
X1274117Y197989D01*
X1274043Y198005D01*
X1273978Y198030D01*
X1273904Y198071D01*
X1273838Y198128D01*
X1273830Y198136D01*
X1273814Y198161D01*
X1273789Y198194D01*
X1273756Y198243D01*
X1273723Y198308D01*
X1273699Y198374D01*
X1273682Y198464D01*
X1273674Y198554D01*
Y205401D01*
Y205410D01*
Y205442D01*
X1273682Y205492D01*
X1273699Y205557D01*
X1273715Y205623D01*
X1273740Y205688D01*
X1273781Y205762D01*
X1273838Y205828D01*
X1273846Y205836D01*
X1273871Y205852D01*
X1273904Y205885D01*
X1273953Y205918D01*
X1274019Y205943D01*
X1274084Y205975D01*
X1274174Y205992D01*
X1274265Y206000D01*
X1276372D01*
X1276421Y205992D01*
D02*
G37*
G36*
X1280251Y202991D02*
X1280341Y202966D01*
X1280439Y202925D01*
X1280497Y202892D01*
X1280546Y202851D01*
X1280595Y202802D01*
X1280636Y202745D01*
X1280669Y202679D01*
X1280702Y202597D01*
X1280718Y202507D01*
X1280726Y202400D01*
Y201318D01*
X1280054D01*
Y202359D01*
X1278799Y202302D01*
Y197964D01*
X1278119D01*
Y202966D01*
X1278799D01*
Y202818D01*
X1278816D01*
X1278857Y202827D01*
X1278922Y202843D01*
X1279012Y202851D01*
X1279111Y202876D01*
X1279226Y202892D01*
X1279349Y202909D01*
X1279480Y202933D01*
X1279496D01*
X1279545Y202941D01*
X1279627Y202958D01*
X1279718Y202966D01*
X1279824Y202982D01*
X1279939Y202991D01*
X1280054Y202999D01*
X1280210D01*
X1280251Y202991D01*
D02*
G37*
G36*
X1295355Y198005D02*
X1294855Y196070D01*
X1294182D01*
X1294691Y198005D01*
X1293461Y202966D01*
X1294166D01*
X1295011Y199022D01*
X1295880Y202966D01*
X1296560D01*
X1295355Y198005D01*
D02*
G37*
G36*
X1287130Y197956D02*
X1286507D01*
X1285261Y202966D01*
X1285966D01*
X1286819Y199022D01*
X1287688Y202966D01*
X1288369D01*
X1287130Y197956D01*
D02*
G37*
G36*
X1292001Y202966D02*
X1292879D01*
Y202367D01*
X1292001D01*
Y198563D01*
X1292879D01*
Y197964D01*
X1291895D01*
X1291862Y197972D01*
X1291829D01*
X1291731Y197997D01*
X1291624Y198038D01*
X1291567Y198071D01*
X1291517Y198112D01*
X1291468Y198153D01*
X1291419Y198210D01*
X1291386Y198284D01*
X1291353Y198358D01*
X1291337Y198448D01*
X1291329Y198554D01*
Y202367D01*
X1290730D01*
Y202966D01*
X1291329D01*
Y204524D01*
X1292001D01*
Y202966D01*
D02*
G37*
G36*
X1289910Y197964D02*
X1289238D01*
Y202966D01*
X1289910D01*
Y197964D01*
D02*
G37*
G36*
X1283891Y202958D02*
X1283924D01*
X1284023Y202933D01*
X1284129Y202892D01*
X1284187Y202859D01*
X1284236Y202818D01*
X1284293Y202769D01*
X1284334Y202712D01*
X1284375Y202646D01*
X1284408Y202572D01*
X1284424Y202482D01*
X1284433Y202376D01*
Y197964D01*
X1283752D01*
Y198103D01*
X1283736D01*
X1283711Y198095D01*
X1283686D01*
X1283604Y198079D01*
X1283498Y198071D01*
X1283375Y198054D01*
X1283244Y198030D01*
X1283096Y198013D01*
X1282940Y197989D01*
X1282916D01*
X1282891Y197980D01*
X1282858D01*
X1282768Y197972D01*
X1282653Y197964D01*
X1282522Y197948D01*
X1282391Y197939D01*
X1282260Y197931D01*
X1282112D01*
X1282087Y197939D01*
X1282046D01*
X1281964Y197964D01*
X1281858Y198005D01*
X1281809Y198038D01*
X1281759Y198079D01*
X1281710Y198120D01*
X1281669Y198177D01*
X1281628Y198251D01*
X1281604Y198325D01*
X1281587Y198415D01*
X1281579Y198522D01*
Y200293D01*
Y200301D01*
Y200317D01*
Y200350D01*
X1281587Y200383D01*
X1281612Y200481D01*
X1281645Y200588D01*
X1281710Y200695D01*
X1281751Y200752D01*
X1281809Y200793D01*
X1281866Y200834D01*
X1281940Y200867D01*
X1282022Y200883D01*
X1282120Y200891D01*
X1283768D01*
Y202392D01*
X1282301D01*
Y201547D01*
X1281636D01*
Y202384D01*
Y202392D01*
Y202408D01*
Y202433D01*
X1281645Y202474D01*
X1281661Y202564D01*
X1281702Y202671D01*
X1281768Y202777D01*
X1281809Y202827D01*
X1281858Y202876D01*
X1281923Y202909D01*
X1281997Y202941D01*
X1282079Y202958D01*
X1282169Y202966D01*
X1283859D01*
X1283891Y202958D01*
D02*
G37*
G36*
X1269894Y202958D02*
X1269992Y202933D01*
X1270099Y202892D01*
X1270156Y202859D01*
X1270206Y202818D01*
X1270263Y202769D01*
X1270304Y202712D01*
X1270345Y202646D01*
X1270378Y202564D01*
X1270394Y202474D01*
X1270402Y202367D01*
Y200580D01*
X1270165Y200342D01*
X1268270D01*
Y198538D01*
X1269738D01*
Y199448D01*
X1270402D01*
Y198538D01*
Y198530D01*
Y198513D01*
X1270394Y198489D01*
Y198448D01*
X1270370Y198358D01*
X1270329Y198251D01*
X1270296Y198202D01*
X1270255Y198144D01*
X1270206Y198095D01*
X1270148Y198054D01*
X1270083Y198013D01*
X1270001Y197989D01*
X1269910Y197972D01*
X1269804Y197964D01*
X1268172D01*
X1268139Y197972D01*
X1268106D01*
X1268008Y197997D01*
X1267901Y198038D01*
X1267844Y198071D01*
X1267795Y198112D01*
X1267746Y198153D01*
X1267696Y198210D01*
X1267664Y198284D01*
X1267631Y198358D01*
X1267614Y198448D01*
X1267606Y198554D01*
Y202367D01*
Y202376D01*
Y202392D01*
X1267614Y202425D01*
Y202458D01*
X1267639Y202556D01*
X1267680Y202671D01*
X1267713Y202720D01*
X1267754Y202777D01*
X1267795Y202827D01*
X1267852Y202876D01*
X1267926Y202909D01*
X1268000Y202941D01*
X1268090Y202958D01*
X1268197Y202966D01*
X1269861D01*
X1269894Y202958D01*
D02*
G37*
G36*
X1262514Y197964D02*
X1261833D01*
Y198103D01*
X1261825D01*
X1261784Y198095D01*
X1261735Y198087D01*
X1261661Y198079D01*
X1261579Y198062D01*
X1261481Y198046D01*
X1261268Y198021D01*
X1261054Y197989D01*
X1260956Y197972D01*
X1260858Y197956D01*
X1260776Y197948D01*
X1260702Y197939D01*
X1260653Y197931D01*
X1260579D01*
X1260546Y197939D01*
X1260464Y197948D01*
X1260366Y197972D01*
X1260251Y198005D01*
X1260136Y198054D01*
X1260013Y198128D01*
X1259906Y198226D01*
X1259898Y198243D01*
X1259865Y198284D01*
X1259824Y198341D01*
X1259775Y198431D01*
X1259726Y198538D01*
X1259685Y198661D01*
X1259652Y198809D01*
X1259644Y198964D01*
Y201892D01*
Y201900D01*
Y201916D01*
Y201933D01*
X1259652Y201966D01*
X1259660Y202056D01*
X1259685Y202162D01*
X1259718Y202277D01*
X1259775Y202408D01*
X1259849Y202531D01*
X1259947Y202654D01*
X1259964Y202671D01*
X1260005Y202704D01*
X1260070Y202753D01*
X1260161Y202810D01*
X1260267Y202868D01*
X1260398Y202917D01*
X1260546Y202950D01*
X1260710Y202966D01*
X1261833D01*
Y206000D01*
X1262514D01*
Y197964D01*
D02*
G37*
G36*
X1258594Y205369D02*
X1256708D01*
Y202367D01*
X1258430D01*
Y201728D01*
X1256708D01*
Y198595D01*
X1258627D01*
Y197964D01*
X1255995D01*
Y206000D01*
X1258594D01*
Y205369D01*
D02*
G37*
G36*
X1252116Y205992D02*
X1252149D01*
X1252248Y205967D01*
X1252362Y205926D01*
X1252412Y205893D01*
X1252469Y205852D01*
X1252518Y205803D01*
X1252567Y205746D01*
X1252600Y205680D01*
X1252633Y205598D01*
X1252649Y205508D01*
X1252658Y205401D01*
Y198554D01*
Y198546D01*
Y198530D01*
Y198497D01*
X1252649Y198464D01*
X1252625Y198366D01*
X1252584Y198259D01*
X1252551Y198202D01*
X1252510Y198153D01*
X1252461Y198103D01*
X1252403Y198054D01*
X1252338Y198021D01*
X1252256Y197989D01*
X1252166Y197972D01*
X1252059Y197964D01*
X1248566D01*
X1248533Y197972D01*
X1248500D01*
X1248402Y197997D01*
X1248295Y198038D01*
X1248238Y198071D01*
X1248189Y198112D01*
X1248139Y198153D01*
X1248090Y198210D01*
X1248057Y198284D01*
X1248025Y198358D01*
X1248008Y198448D01*
X1248000Y198554D01*
Y205401D01*
Y205410D01*
Y205426D01*
X1248008Y205459D01*
Y205492D01*
X1248033Y205590D01*
X1248074Y205697D01*
X1248107Y205754D01*
X1248148Y205803D01*
X1248189Y205861D01*
X1248246Y205902D01*
X1248320Y205943D01*
X1248394Y205975D01*
X1248484Y205992D01*
X1248590Y206000D01*
X1252084D01*
X1252116Y205992D01*
D02*
G37*
G36*
X1264646Y202982D02*
X1264687D01*
X1264728Y202974D01*
X1264785Y202966D01*
X1264851Y202958D01*
X1264933Y202950D01*
X1265031Y202933D01*
X1265146Y202917D01*
X1265286Y202900D01*
X1265433Y202876D01*
X1265605Y202851D01*
X1265802Y202818D01*
Y202958D01*
X1266483D01*
Y196668D01*
Y196660D01*
Y196644D01*
X1266475Y196611D01*
Y196578D01*
X1266450Y196480D01*
X1266409Y196373D01*
X1266376Y196316D01*
X1266335Y196258D01*
X1266286Y196209D01*
X1266229Y196160D01*
X1266163Y196127D01*
X1266081Y196094D01*
X1265991Y196078D01*
X1265884Y196070D01*
X1264252D01*
X1264220Y196078D01*
X1264187D01*
X1264097Y196103D01*
X1263982Y196144D01*
X1263933Y196176D01*
X1263875Y196217D01*
X1263826Y196267D01*
X1263785Y196324D01*
X1263744Y196390D01*
X1263711Y196472D01*
X1263695Y196562D01*
X1263687Y196668D01*
Y196677D01*
Y196693D01*
Y196718D01*
Y196750D01*
Y196800D01*
Y196857D01*
Y196931D01*
Y197005D01*
Y197013D01*
Y197037D01*
Y197078D01*
X1263695Y197119D01*
Y197226D01*
Y197267D01*
Y197308D01*
X1264375D01*
Y196652D01*
X1265802D01*
Y197964D01*
X1264638D01*
X1264605Y197972D01*
X1264515Y197980D01*
X1264408Y198005D01*
X1264293Y198038D01*
X1264162Y198095D01*
X1264039Y198169D01*
X1263916Y198267D01*
X1263900Y198284D01*
X1263867Y198325D01*
X1263818Y198390D01*
X1263769Y198481D01*
X1263711Y198587D01*
X1263662Y198718D01*
X1263629Y198874D01*
X1263613Y199038D01*
Y201957D01*
Y201966D01*
Y201974D01*
Y201998D01*
X1263621Y202031D01*
X1263629Y202113D01*
X1263646Y202212D01*
X1263678Y202326D01*
X1263728Y202449D01*
X1263785Y202572D01*
X1263875Y202687D01*
X1263892Y202704D01*
X1263924Y202736D01*
X1263982Y202786D01*
X1264064Y202843D01*
X1264170Y202892D01*
X1264293Y202941D01*
X1264433Y202974D01*
X1264589Y202991D01*
X1264621D01*
X1264646Y202982D01*
D02*
G37*
G36*
X1360913Y18375D02*
X1359986D01*
Y19433D01*
X1360913D01*
Y18375D01*
D02*
G37*
G36*
X1349753D02*
X1348826D01*
Y19433D01*
X1349753D01*
Y18375D01*
D02*
G37*
G36*
X1151165Y18375D02*
X1150239D01*
Y19433D01*
X1151165D01*
Y18375D01*
D02*
G37*
G36*
X1330015Y19556D02*
X1330106Y19548D01*
X1330196Y19540D01*
X1330303Y19532D01*
X1330532Y19499D01*
X1330786Y19450D01*
X1331040Y19376D01*
X1331287Y19286D01*
X1331295D01*
X1331311Y19269D01*
X1331352Y19261D01*
X1331393Y19236D01*
X1331442Y19204D01*
X1331508Y19171D01*
X1331647Y19089D01*
X1331811Y18974D01*
X1331975Y18835D01*
X1332131Y18679D01*
X1332271Y18490D01*
X1332279Y18482D01*
X1332287Y18465D01*
X1332303Y18441D01*
X1332328Y18400D01*
X1332353Y18351D01*
X1332385Y18293D01*
X1332410Y18219D01*
X1332451Y18146D01*
X1332516Y17974D01*
X1332574Y17768D01*
X1332623Y17547D01*
X1332648Y17301D01*
X1331688Y17227D01*
Y17235D01*
X1331680Y17260D01*
Y17293D01*
X1331672Y17342D01*
X1331656Y17408D01*
X1331639Y17473D01*
X1331590Y17629D01*
X1331524Y17801D01*
X1331426Y17982D01*
X1331311Y18154D01*
X1331237Y18228D01*
X1331155Y18302D01*
X1331147Y18310D01*
X1331139Y18318D01*
X1331106Y18334D01*
X1331073Y18359D01*
X1331024Y18383D01*
X1330967Y18416D01*
X1330901Y18449D01*
X1330827Y18490D01*
X1330737Y18523D01*
X1330639Y18556D01*
X1330532Y18588D01*
X1330417Y18613D01*
X1330286Y18638D01*
X1330147Y18654D01*
X1329999Y18670D01*
X1329761D01*
X1329696Y18662D01*
X1329622D01*
X1329540Y18654D01*
X1329442Y18646D01*
X1329343Y18630D01*
X1329122Y18588D01*
X1328909Y18531D01*
X1328703Y18449D01*
X1328605Y18392D01*
X1328523Y18334D01*
X1328515D01*
X1328507Y18318D01*
X1328458Y18277D01*
X1328392Y18203D01*
X1328318Y18105D01*
X1328244Y17990D01*
X1328179Y17851D01*
X1328129Y17703D01*
X1328121Y17621D01*
X1328113Y17531D01*
Y17523D01*
Y17514D01*
X1328121Y17465D01*
X1328129Y17391D01*
X1328146Y17301D01*
X1328187Y17195D01*
X1328236Y17080D01*
X1328302Y16973D01*
X1328400Y16867D01*
X1328417Y16858D01*
X1328433Y16842D01*
X1328466Y16817D01*
X1328507Y16793D01*
X1328556Y16768D01*
X1328621Y16735D01*
X1328695Y16694D01*
X1328786Y16653D01*
X1328892Y16612D01*
X1329015Y16571D01*
X1329154Y16522D01*
X1329319Y16473D01*
X1329491Y16424D01*
X1329688Y16366D01*
X1329909Y16317D01*
X1329925D01*
X1329966Y16309D01*
X1330024Y16293D01*
X1330106Y16268D01*
X1330204Y16251D01*
X1330319Y16219D01*
X1330442Y16194D01*
X1330573Y16153D01*
X1330852Y16079D01*
X1331131Y16005D01*
X1331262Y15965D01*
X1331377Y15924D01*
X1331491Y15882D01*
X1331582Y15842D01*
X1331590D01*
X1331614Y15825D01*
X1331647Y15809D01*
X1331688Y15784D01*
X1331746Y15759D01*
X1331811Y15719D01*
X1331951Y15628D01*
X1332115Y15522D01*
X1332271Y15391D01*
X1332426Y15235D01*
X1332492Y15153D01*
X1332557Y15071D01*
Y15063D01*
X1332574Y15046D01*
X1332590Y15021D01*
X1332607Y14989D01*
X1332631Y14948D01*
X1332656Y14890D01*
X1332722Y14759D01*
X1332779Y14603D01*
X1332828Y14423D01*
X1332861Y14218D01*
X1332877Y13996D01*
Y13988D01*
Y13972D01*
Y13939D01*
X1332869Y13898D01*
Y13841D01*
X1332861Y13783D01*
X1332836Y13627D01*
X1332795Y13455D01*
X1332730Y13267D01*
X1332640Y13070D01*
X1332590Y12963D01*
X1332525Y12865D01*
Y12857D01*
X1332508Y12840D01*
X1332492Y12816D01*
X1332459Y12775D01*
X1332385Y12685D01*
X1332271Y12562D01*
X1332131Y12430D01*
X1331959Y12291D01*
X1331762Y12160D01*
X1331532Y12037D01*
X1331524D01*
X1331500Y12020D01*
X1331467Y12012D01*
X1331418Y11987D01*
X1331360Y11971D01*
X1331287Y11947D01*
X1331205Y11914D01*
X1331106Y11889D01*
X1331008Y11864D01*
X1330893Y11832D01*
X1330647Y11791D01*
X1330376Y11758D01*
X1330081Y11742D01*
X1329983D01*
X1329909Y11750D01*
X1329819D01*
X1329720Y11758D01*
X1329605Y11766D01*
X1329474Y11783D01*
X1329204Y11815D01*
X1328917Y11864D01*
X1328630Y11938D01*
X1328351Y12037D01*
X1328343D01*
X1328318Y12053D01*
X1328285Y12070D01*
X1328236Y12094D01*
X1328179Y12127D01*
X1328113Y12160D01*
X1327957Y12258D01*
X1327785Y12381D01*
X1327605Y12537D01*
X1327424Y12717D01*
X1327269Y12931D01*
X1327260Y12939D01*
X1327252Y12955D01*
X1327236Y12988D01*
X1327211Y13037D01*
X1327178Y13094D01*
X1327145Y13160D01*
X1327104Y13242D01*
X1327072Y13332D01*
X1327031Y13422D01*
X1326998Y13529D01*
X1326932Y13767D01*
X1326883Y14021D01*
X1326867Y14161D01*
X1326859Y14300D01*
X1327802Y14382D01*
Y14374D01*
Y14357D01*
X1327810Y14324D01*
X1327818Y14284D01*
X1327826Y14234D01*
X1327834Y14185D01*
X1327867Y14046D01*
X1327908Y13898D01*
X1327957Y13742D01*
X1328023Y13587D01*
X1328105Y13439D01*
X1328113Y13422D01*
X1328154Y13382D01*
X1328211Y13316D01*
X1328294Y13234D01*
X1328400Y13136D01*
X1328531Y13045D01*
X1328687Y12947D01*
X1328868Y12857D01*
X1328876D01*
X1328892Y12848D01*
X1328917Y12840D01*
X1328958Y12824D01*
X1329007Y12808D01*
X1329064Y12783D01*
X1329130Y12766D01*
X1329204Y12750D01*
X1329376Y12709D01*
X1329581Y12668D01*
X1329794Y12643D01*
X1330032Y12635D01*
X1330130D01*
X1330180Y12643D01*
X1330237D01*
X1330368Y12660D01*
X1330524Y12676D01*
X1330696Y12701D01*
X1330868Y12742D01*
X1331032Y12799D01*
X1331040D01*
X1331049Y12808D01*
X1331073Y12816D01*
X1331106Y12832D01*
X1331180Y12873D01*
X1331278Y12922D01*
X1331385Y12988D01*
X1331500Y13070D01*
X1331598Y13160D01*
X1331688Y13267D01*
X1331697Y13283D01*
X1331721Y13316D01*
X1331762Y13382D01*
X1331803Y13464D01*
X1331836Y13562D01*
X1331877Y13668D01*
X1331901Y13792D01*
X1331910Y13915D01*
Y13923D01*
Y13931D01*
Y13972D01*
X1331901Y14046D01*
X1331885Y14128D01*
X1331861Y14226D01*
X1331820Y14333D01*
X1331770Y14439D01*
X1331697Y14538D01*
X1331688Y14546D01*
X1331656Y14579D01*
X1331606Y14628D01*
X1331532Y14694D01*
X1331442Y14759D01*
X1331319Y14833D01*
X1331180Y14907D01*
X1331016Y14980D01*
X1330999Y14989D01*
X1330983Y14997D01*
X1330950Y15005D01*
X1330917Y15013D01*
X1330868Y15030D01*
X1330803Y15054D01*
X1330737Y15071D01*
X1330647Y15095D01*
X1330557Y15128D01*
X1330442Y15153D01*
X1330319Y15186D01*
X1330180Y15226D01*
X1330032Y15259D01*
X1329860Y15308D01*
X1329671Y15349D01*
X1329663D01*
X1329630Y15358D01*
X1329573Y15374D01*
X1329507Y15391D01*
X1329417Y15415D01*
X1329319Y15440D01*
X1329220Y15473D01*
X1329105Y15505D01*
X1328859Y15579D01*
X1328621Y15661D01*
X1328507Y15702D01*
X1328400Y15743D01*
X1328302Y15784D01*
X1328220Y15825D01*
X1328211D01*
X1328195Y15842D01*
X1328170Y15858D01*
X1328129Y15874D01*
X1328031Y15932D01*
X1327916Y16014D01*
X1327777Y16120D01*
X1327646Y16235D01*
X1327514Y16375D01*
X1327408Y16522D01*
Y16530D01*
X1327400Y16538D01*
X1327383Y16563D01*
X1327367Y16596D01*
X1327326Y16686D01*
X1327277Y16801D01*
X1327227Y16940D01*
X1327186Y17104D01*
X1327154Y17285D01*
X1327145Y17473D01*
Y17481D01*
Y17498D01*
Y17531D01*
X1327154Y17572D01*
Y17621D01*
X1327162Y17678D01*
X1327186Y17826D01*
X1327227Y17990D01*
X1327277Y18162D01*
X1327359Y18351D01*
X1327465Y18539D01*
Y18548D01*
X1327482Y18564D01*
X1327498Y18588D01*
X1327523Y18621D01*
X1327605Y18711D01*
X1327711Y18826D01*
X1327843Y18949D01*
X1328006Y19072D01*
X1328195Y19195D01*
X1328417Y19302D01*
X1328425D01*
X1328441Y19310D01*
X1328482Y19327D01*
X1328523Y19343D01*
X1328580Y19359D01*
X1328654Y19384D01*
X1328736Y19409D01*
X1328827Y19433D01*
X1328925Y19458D01*
X1329031Y19482D01*
X1329261Y19523D01*
X1329523Y19556D01*
X1329802Y19564D01*
X1329942D01*
X1330015Y19556D01*
D02*
G37*
G36*
X1347350Y11864D02*
X1346489D01*
Y12553D01*
X1346481Y12545D01*
X1346465Y12520D01*
X1346432Y12479D01*
X1346391Y12430D01*
X1346334Y12365D01*
X1346268Y12299D01*
X1346194Y12225D01*
X1346104Y12151D01*
X1345997Y12070D01*
X1345883Y11996D01*
X1345759Y11930D01*
X1345620Y11873D01*
X1345464Y11815D01*
X1345308Y11774D01*
X1345136Y11750D01*
X1344948Y11742D01*
X1344882D01*
X1344833Y11750D01*
X1344775D01*
X1344710Y11758D01*
X1344636Y11774D01*
X1344554Y11791D01*
X1344366Y11832D01*
X1344160Y11897D01*
X1343956Y11987D01*
X1343849Y12037D01*
X1343742Y12102D01*
X1343734Y12111D01*
X1343718Y12119D01*
X1343693Y12143D01*
X1343652Y12168D01*
X1343603Y12209D01*
X1343554Y12250D01*
X1343431Y12365D01*
X1343291Y12504D01*
X1343152Y12676D01*
X1343013Y12881D01*
X1342889Y13111D01*
Y13119D01*
X1342873Y13144D01*
X1342865Y13176D01*
X1342840Y13226D01*
X1342824Y13283D01*
X1342799Y13357D01*
X1342766Y13447D01*
X1342742Y13537D01*
X1342717Y13644D01*
X1342684Y13759D01*
X1342660Y13882D01*
X1342644Y14013D01*
X1342611Y14292D01*
X1342594Y14595D01*
Y14603D01*
Y14636D01*
Y14677D01*
X1342603Y14735D01*
Y14808D01*
X1342611Y14890D01*
X1342619Y14989D01*
X1342627Y15095D01*
X1342660Y15325D01*
X1342709Y15571D01*
X1342775Y15833D01*
X1342865Y16087D01*
Y16096D01*
X1342881Y16120D01*
X1342898Y16153D01*
X1342914Y16202D01*
X1342947Y16251D01*
X1342980Y16317D01*
X1343070Y16465D01*
X1343185Y16637D01*
X1343324Y16801D01*
X1343488Y16965D01*
X1343685Y17112D01*
X1343693Y17121D01*
X1343709Y17129D01*
X1343742Y17145D01*
X1343783Y17170D01*
X1343832Y17195D01*
X1343898Y17227D01*
X1343964Y17260D01*
X1344046Y17293D01*
X1344226Y17358D01*
X1344431Y17416D01*
X1344661Y17457D01*
X1344784Y17473D01*
X1344989D01*
X1345087Y17465D01*
X1345202Y17449D01*
X1345341Y17424D01*
X1345489Y17383D01*
X1345645Y17334D01*
X1345792Y17260D01*
X1345800D01*
X1345809Y17252D01*
X1345858Y17219D01*
X1345924Y17178D01*
X1346014Y17112D01*
X1346112Y17030D01*
X1346219Y16940D01*
X1346325Y16834D01*
X1346424Y16711D01*
Y19433D01*
X1347350D01*
Y11864D01*
D02*
G37*
G36*
X1239848Y11864D02*
X1238987D01*
Y12553D01*
X1238979Y12545D01*
X1238963Y12520D01*
X1238930Y12479D01*
X1238889Y12430D01*
X1238832Y12365D01*
X1238766Y12299D01*
X1238692Y12225D01*
X1238602Y12151D01*
X1238495Y12070D01*
X1238381Y11996D01*
X1238258Y11930D01*
X1238118Y11873D01*
X1237962Y11815D01*
X1237807Y11774D01*
X1237634Y11750D01*
X1237446Y11742D01*
X1237380D01*
X1237331Y11750D01*
X1237274D01*
X1237208Y11758D01*
X1237134Y11774D01*
X1237052Y11791D01*
X1236864Y11832D01*
X1236658Y11897D01*
X1236454Y11987D01*
X1236347Y12037D01*
X1236240Y12102D01*
X1236232Y12111D01*
X1236216Y12119D01*
X1236191Y12143D01*
X1236150Y12168D01*
X1236101Y12209D01*
X1236052Y12250D01*
X1235929Y12365D01*
X1235789Y12504D01*
X1235650Y12676D01*
X1235511Y12881D01*
X1235388Y13111D01*
Y13119D01*
X1235371Y13144D01*
X1235363Y13176D01*
X1235338Y13226D01*
X1235322Y13283D01*
X1235297Y13357D01*
X1235264Y13447D01*
X1235240Y13537D01*
X1235215Y13644D01*
X1235182Y13759D01*
X1235158Y13882D01*
X1235141Y14013D01*
X1235109Y14292D01*
X1235092Y14595D01*
Y14603D01*
Y14636D01*
Y14677D01*
X1235100Y14735D01*
Y14808D01*
X1235109Y14890D01*
X1235117Y14989D01*
X1235125Y15095D01*
X1235158Y15325D01*
X1235207Y15571D01*
X1235273Y15833D01*
X1235363Y16087D01*
Y16096D01*
X1235379Y16120D01*
X1235396Y16153D01*
X1235412Y16202D01*
X1235445Y16251D01*
X1235478Y16317D01*
X1235568Y16465D01*
X1235683Y16637D01*
X1235822Y16801D01*
X1235986Y16965D01*
X1236183Y17112D01*
X1236191Y17121D01*
X1236207Y17129D01*
X1236240Y17145D01*
X1236281Y17170D01*
X1236331Y17195D01*
X1236396Y17227D01*
X1236462Y17260D01*
X1236544Y17293D01*
X1236724Y17358D01*
X1236929Y17416D01*
X1237159Y17457D01*
X1237282Y17473D01*
X1237487D01*
X1237585Y17465D01*
X1237700Y17449D01*
X1237839Y17424D01*
X1237987Y17383D01*
X1238143Y17334D01*
X1238290Y17260D01*
X1238299D01*
X1238307Y17252D01*
X1238356Y17219D01*
X1238422Y17178D01*
X1238512Y17112D01*
X1238610Y17030D01*
X1238717Y16940D01*
X1238823Y16834D01*
X1238922Y16711D01*
Y19433D01*
X1239848D01*
Y11864D01*
D02*
G37*
G36*
X1174625Y11864D02*
X1173765D01*
Y12553D01*
X1173756Y12545D01*
X1173740Y12520D01*
X1173707Y12479D01*
X1173666Y12430D01*
X1173609Y12365D01*
X1173543Y12299D01*
X1173469Y12225D01*
X1173379Y12151D01*
X1173273Y12070D01*
X1173158Y11996D01*
X1173035Y11930D01*
X1172895Y11873D01*
X1172740Y11815D01*
X1172584Y11774D01*
X1172412Y11750D01*
X1172223Y11742D01*
X1172157D01*
X1172108Y11750D01*
X1172051D01*
X1171985Y11758D01*
X1171911Y11774D01*
X1171829Y11791D01*
X1171641Y11832D01*
X1171436Y11897D01*
X1171231Y11987D01*
X1171124Y12037D01*
X1171017Y12102D01*
X1171009Y12111D01*
X1170993Y12119D01*
X1170968Y12143D01*
X1170927Y12168D01*
X1170878Y12209D01*
X1170829Y12250D01*
X1170706Y12365D01*
X1170566Y12504D01*
X1170427Y12676D01*
X1170288Y12881D01*
X1170165Y13111D01*
Y13119D01*
X1170148Y13144D01*
X1170140Y13176D01*
X1170115Y13226D01*
X1170099Y13283D01*
X1170074Y13357D01*
X1170042Y13447D01*
X1170017Y13537D01*
X1169993Y13644D01*
X1169960Y13759D01*
X1169935Y13882D01*
X1169919Y14013D01*
X1169886Y14292D01*
X1169870Y14595D01*
Y14603D01*
Y14636D01*
Y14677D01*
X1169878Y14735D01*
Y14808D01*
X1169886Y14890D01*
X1169894Y14989D01*
X1169902Y15095D01*
X1169935Y15325D01*
X1169984Y15571D01*
X1170050Y15833D01*
X1170140Y16087D01*
Y16096D01*
X1170156Y16120D01*
X1170173Y16153D01*
X1170189Y16202D01*
X1170222Y16251D01*
X1170255Y16317D01*
X1170345Y16465D01*
X1170460Y16637D01*
X1170599Y16801D01*
X1170763Y16965D01*
X1170960Y17112D01*
X1170968Y17121D01*
X1170985Y17129D01*
X1171017Y17145D01*
X1171058Y17170D01*
X1171108Y17195D01*
X1171173Y17227D01*
X1171239Y17260D01*
X1171321Y17293D01*
X1171501Y17358D01*
X1171706Y17416D01*
X1171936Y17457D01*
X1172059Y17473D01*
X1172264D01*
X1172362Y17465D01*
X1172477Y17449D01*
X1172616Y17424D01*
X1172764Y17383D01*
X1172920Y17334D01*
X1173067Y17260D01*
X1173076D01*
X1173084Y17252D01*
X1173133Y17219D01*
X1173199Y17178D01*
X1173289Y17112D01*
X1173387Y17030D01*
X1173494Y16940D01*
X1173600Y16834D01*
X1173699Y16711D01*
Y19433D01*
X1174625D01*
Y11864D01*
D02*
G37*
G36*
X1387358Y17465D02*
X1387407D01*
X1387530Y17449D01*
X1387670Y17432D01*
X1387825Y17400D01*
X1387981Y17350D01*
X1388137Y17293D01*
X1388145D01*
X1388153Y17285D01*
X1388203Y17260D01*
X1388276Y17219D01*
X1388375Y17170D01*
X1388473Y17096D01*
X1388580Y17022D01*
X1388678Y16932D01*
X1388760Y16826D01*
X1388768Y16809D01*
X1388793Y16776D01*
X1388826Y16711D01*
X1388875Y16629D01*
X1388924Y16530D01*
X1388965Y16416D01*
X1389015Y16284D01*
X1389047Y16137D01*
Y16128D01*
X1389056Y16087D01*
X1389064Y16022D01*
X1389080Y15932D01*
X1389088Y15809D01*
Y15735D01*
X1389097Y15653D01*
Y15563D01*
X1389105Y15456D01*
Y15349D01*
Y15235D01*
Y11864D01*
X1388178Y11864D01*
Y15202D01*
Y15210D01*
Y15226D01*
Y15259D01*
Y15292D01*
Y15341D01*
X1388170Y15399D01*
X1388162Y15522D01*
X1388153Y15661D01*
X1388129Y15800D01*
X1388104Y15932D01*
X1388063Y16047D01*
X1388055Y16063D01*
X1388039Y16096D01*
X1388014Y16145D01*
X1387973Y16210D01*
X1387924Y16284D01*
X1387858Y16358D01*
X1387776Y16432D01*
X1387678Y16498D01*
X1387670Y16506D01*
X1387629Y16522D01*
X1387571Y16555D01*
X1387498Y16588D01*
X1387399Y16612D01*
X1387292Y16645D01*
X1387169Y16661D01*
X1387030Y16670D01*
X1386973D01*
X1386932Y16661D01*
X1386882D01*
X1386817Y16653D01*
X1386677Y16621D01*
X1386522Y16579D01*
X1386349Y16514D01*
X1386177Y16416D01*
X1386087Y16358D01*
X1386005Y16293D01*
X1385997Y16284D01*
X1385989Y16276D01*
X1385964Y16251D01*
X1385940Y16219D01*
X1385907Y16170D01*
X1385874Y16120D01*
X1385833Y16055D01*
X1385792Y15973D01*
X1385751Y15882D01*
X1385710Y15776D01*
X1385677Y15661D01*
X1385644Y15530D01*
X1385620Y15382D01*
X1385595Y15226D01*
X1385587Y15046D01*
X1385579Y14857D01*
Y11864D01*
X1384652D01*
Y17350D01*
X1385489D01*
Y16563D01*
X1385497Y16571D01*
X1385513Y16604D01*
X1385554Y16645D01*
X1385603Y16702D01*
X1385661Y16776D01*
X1385734Y16850D01*
X1385825Y16932D01*
X1385931Y17022D01*
X1386046Y17104D01*
X1386177Y17186D01*
X1386317Y17260D01*
X1386473Y17334D01*
X1386645Y17391D01*
X1386825Y17432D01*
X1387022Y17465D01*
X1387227Y17473D01*
X1387309D01*
X1387358Y17465D01*
D02*
G37*
G36*
X1365030D02*
X1365079D01*
X1365202Y17449D01*
X1365341Y17432D01*
X1365497Y17400D01*
X1365653Y17350D01*
X1365808Y17293D01*
X1365817D01*
X1365825Y17285D01*
X1365874Y17260D01*
X1365948Y17219D01*
X1366046Y17170D01*
X1366145Y17096D01*
X1366251Y17022D01*
X1366350Y16932D01*
X1366432Y16826D01*
X1366440Y16809D01*
X1366465Y16776D01*
X1366497Y16711D01*
X1366547Y16629D01*
X1366596Y16530D01*
X1366637Y16416D01*
X1366686Y16284D01*
X1366719Y16137D01*
Y16128D01*
X1366727Y16087D01*
X1366735Y16022D01*
X1366751Y15932D01*
X1366760Y15809D01*
Y15735D01*
X1366768Y15653D01*
Y15563D01*
X1366776Y15456D01*
Y15349D01*
Y15235D01*
Y11864D01*
X1365849D01*
Y15202D01*
Y15210D01*
Y15226D01*
Y15259D01*
Y15292D01*
Y15341D01*
X1365841Y15399D01*
X1365833Y15522D01*
X1365825Y15661D01*
X1365800Y15800D01*
X1365776Y15932D01*
X1365735Y16047D01*
X1365726Y16063D01*
X1365710Y16096D01*
X1365685Y16145D01*
X1365644Y16210D01*
X1365595Y16284D01*
X1365530Y16358D01*
X1365448Y16432D01*
X1365349Y16498D01*
X1365341Y16506D01*
X1365300Y16522D01*
X1365243Y16555D01*
X1365169Y16588D01*
X1365071Y16612D01*
X1364964Y16645D01*
X1364841Y16661D01*
X1364701Y16670D01*
X1364644D01*
X1364603Y16661D01*
X1364554D01*
X1364488Y16653D01*
X1364349Y16621D01*
X1364193Y16579D01*
X1364021Y16514D01*
X1363849Y16416D01*
X1363758Y16358D01*
X1363676Y16293D01*
X1363668Y16284D01*
X1363660Y16276D01*
X1363636Y16251D01*
X1363611Y16219D01*
X1363578Y16170D01*
X1363545Y16120D01*
X1363504Y16055D01*
X1363463Y15973D01*
X1363422Y15882D01*
X1363381Y15776D01*
X1363348Y15661D01*
X1363316Y15530D01*
X1363291Y15382D01*
X1363266Y15226D01*
X1363258Y15046D01*
X1363250Y14857D01*
Y11864D01*
X1362323D01*
Y17350D01*
X1363160D01*
Y16563D01*
X1363168Y16571D01*
X1363185Y16604D01*
X1363225Y16645D01*
X1363275Y16702D01*
X1363332Y16776D01*
X1363406Y16850D01*
X1363496Y16932D01*
X1363603Y17022D01*
X1363717Y17104D01*
X1363849Y17186D01*
X1363988Y17260D01*
X1364144Y17334D01*
X1364316Y17391D01*
X1364497Y17432D01*
X1364693Y17465D01*
X1364898Y17473D01*
X1364980D01*
X1365030Y17465D01*
D02*
G37*
G36*
X1161161Y17465D02*
X1161210D01*
X1161333Y17449D01*
X1161473Y17432D01*
X1161629Y17400D01*
X1161784Y17350D01*
X1161940Y17293D01*
X1161948D01*
X1161957Y17285D01*
X1162006Y17260D01*
X1162080Y17219D01*
X1162178Y17170D01*
X1162276Y17096D01*
X1162383Y17022D01*
X1162481Y16932D01*
X1162563Y16826D01*
X1162572Y16809D01*
X1162596Y16776D01*
X1162629Y16711D01*
X1162678Y16629D01*
X1162727Y16530D01*
X1162768Y16416D01*
X1162817Y16284D01*
X1162850Y16137D01*
Y16128D01*
X1162858Y16087D01*
X1162867Y16022D01*
X1162883Y15932D01*
X1162891Y15809D01*
Y15735D01*
X1162899Y15653D01*
Y15563D01*
X1162908Y15456D01*
Y15349D01*
Y15235D01*
Y11864D01*
X1161981D01*
Y15202D01*
Y15210D01*
Y15226D01*
Y15259D01*
Y15292D01*
Y15341D01*
X1161973Y15399D01*
X1161965Y15522D01*
X1161957Y15661D01*
X1161932Y15800D01*
X1161907Y15932D01*
X1161866Y16047D01*
X1161858Y16063D01*
X1161842Y16096D01*
X1161817Y16145D01*
X1161776Y16210D01*
X1161727Y16284D01*
X1161661Y16358D01*
X1161579Y16432D01*
X1161481Y16498D01*
X1161473Y16506D01*
X1161432Y16522D01*
X1161374Y16555D01*
X1161300Y16588D01*
X1161202Y16612D01*
X1161096Y16645D01*
X1160972Y16661D01*
X1160833Y16670D01*
X1160776D01*
X1160735Y16661D01*
X1160686D01*
X1160620Y16653D01*
X1160480Y16621D01*
X1160325Y16579D01*
X1160153Y16514D01*
X1159980Y16416D01*
X1159890Y16358D01*
X1159808Y16293D01*
X1159800Y16284D01*
X1159792Y16276D01*
X1159767Y16251D01*
X1159743Y16219D01*
X1159710Y16170D01*
X1159677Y16120D01*
X1159636Y16055D01*
X1159595Y15973D01*
X1159554Y15882D01*
X1159513Y15776D01*
X1159480Y15661D01*
X1159447Y15530D01*
X1159423Y15382D01*
X1159398Y15226D01*
X1159390Y15046D01*
X1159382Y14857D01*
Y11864D01*
X1158455D01*
Y17350D01*
X1159291D01*
Y16563D01*
X1159300Y16571D01*
X1159316Y16604D01*
X1159357Y16645D01*
X1159406Y16702D01*
X1159464Y16776D01*
X1159538Y16850D01*
X1159628Y16932D01*
X1159734Y17022D01*
X1159849Y17104D01*
X1159980Y17186D01*
X1160120Y17260D01*
X1160275Y17334D01*
X1160448Y17391D01*
X1160628Y17432D01*
X1160825Y17465D01*
X1161030Y17473D01*
X1161112D01*
X1161161Y17465D01*
D02*
G37*
G36*
X1218389Y17465D02*
X1218463Y17457D01*
X1218536Y17449D01*
X1218627Y17432D01*
X1218725Y17416D01*
X1218922Y17358D01*
X1219135Y17277D01*
X1219234Y17227D01*
X1219332Y17170D01*
X1219430Y17096D01*
X1219512Y17014D01*
X1219520Y17006D01*
X1219529Y16989D01*
X1219553Y16965D01*
X1219578Y16932D01*
X1219619Y16883D01*
X1219652Y16826D01*
X1219693Y16752D01*
X1219734Y16670D01*
X1219775Y16579D01*
X1219816Y16481D01*
X1219857Y16366D01*
X1219890Y16243D01*
X1219914Y16104D01*
X1219939Y15956D01*
X1219947Y15800D01*
X1219955Y15628D01*
Y11864D01*
X1219028D01*
Y15317D01*
Y15325D01*
Y15341D01*
Y15374D01*
Y15407D01*
X1219020Y15505D01*
Y15628D01*
X1219004Y15759D01*
X1218987Y15891D01*
X1218971Y16014D01*
X1218938Y16120D01*
Y16128D01*
X1218922Y16161D01*
X1218897Y16202D01*
X1218865Y16260D01*
X1218815Y16325D01*
X1218766Y16391D01*
X1218692Y16456D01*
X1218610Y16514D01*
X1218602Y16522D01*
X1218569Y16538D01*
X1218520Y16563D01*
X1218454Y16596D01*
X1218373Y16621D01*
X1218274Y16645D01*
X1218167Y16661D01*
X1218053Y16670D01*
X1217995D01*
X1217954Y16661D01*
X1217905D01*
X1217848Y16653D01*
X1217717Y16621D01*
X1217561Y16579D01*
X1217397Y16506D01*
X1217241Y16416D01*
X1217159Y16350D01*
X1217085Y16284D01*
Y16276D01*
X1217069Y16268D01*
X1217052Y16243D01*
X1217028Y16210D01*
X1216995Y16170D01*
X1216962Y16120D01*
X1216929Y16055D01*
X1216897Y15989D01*
X1216856Y15907D01*
X1216823Y15817D01*
X1216790Y15710D01*
X1216757Y15604D01*
X1216733Y15481D01*
X1216716Y15341D01*
X1216708Y15202D01*
X1216700Y15046D01*
Y11864D01*
X1215773D01*
Y15423D01*
Y15431D01*
Y15448D01*
Y15481D01*
Y15530D01*
X1215765Y15579D01*
Y15637D01*
X1215749Y15776D01*
X1215716Y15924D01*
X1215675Y16079D01*
X1215617Y16227D01*
X1215543Y16358D01*
X1215535Y16375D01*
X1215502Y16407D01*
X1215445Y16456D01*
X1215371Y16514D01*
X1215265Y16571D01*
X1215142Y16621D01*
X1214986Y16653D01*
X1214806Y16670D01*
X1214740D01*
X1214666Y16661D01*
X1214568Y16645D01*
X1214453Y16621D01*
X1214330Y16579D01*
X1214207Y16530D01*
X1214076Y16456D01*
X1214059Y16448D01*
X1214018Y16416D01*
X1213961Y16375D01*
X1213895Y16301D01*
X1213813Y16219D01*
X1213731Y16112D01*
X1213657Y15989D01*
X1213592Y15850D01*
Y15842D01*
X1213584Y15833D01*
X1213575Y15809D01*
X1213567Y15776D01*
X1213559Y15735D01*
X1213543Y15686D01*
X1213535Y15628D01*
X1213518Y15563D01*
X1213502Y15481D01*
X1213494Y15399D01*
X1213477Y15308D01*
X1213469Y15202D01*
X1213461Y15095D01*
X1213453Y14972D01*
X1213444Y14849D01*
Y14710D01*
Y11864D01*
X1212518D01*
Y17350D01*
X1213346D01*
Y16588D01*
X1213362Y16596D01*
X1213395Y16645D01*
X1213453Y16719D01*
X1213535Y16809D01*
X1213633Y16916D01*
X1213748Y17022D01*
X1213879Y17129D01*
X1214035Y17227D01*
X1214043D01*
X1214051Y17235D01*
X1214076Y17252D01*
X1214108Y17268D01*
X1214149Y17285D01*
X1214199Y17309D01*
X1214314Y17350D01*
X1214461Y17400D01*
X1214625Y17432D01*
X1214814Y17465D01*
X1215011Y17473D01*
X1215109D01*
X1215166Y17465D01*
X1215224Y17457D01*
X1215363Y17440D01*
X1215519Y17408D01*
X1215683Y17367D01*
X1215847Y17301D01*
X1216003Y17219D01*
X1216011D01*
X1216019Y17211D01*
X1216068Y17170D01*
X1216134Y17112D01*
X1216224Y17039D01*
X1216314Y16932D01*
X1216405Y16817D01*
X1216486Y16678D01*
X1216560Y16514D01*
X1216568Y16522D01*
X1216593Y16555D01*
X1216626Y16604D01*
X1216683Y16661D01*
X1216741Y16735D01*
X1216823Y16817D01*
X1216913Y16907D01*
X1217019Y16998D01*
X1217134Y17080D01*
X1217266Y17170D01*
X1217405Y17252D01*
X1217552Y17326D01*
X1217717Y17383D01*
X1217889Y17432D01*
X1218069Y17465D01*
X1218258Y17473D01*
X1218340D01*
X1218389Y17465D01*
D02*
G37*
G36*
X1377223Y11864D02*
X1376223D01*
Y15431D01*
X1372295D01*
Y11864D01*
X1371294D01*
Y19433D01*
X1372295D01*
Y16325D01*
X1376223D01*
Y19433D01*
X1377223D01*
Y11864D01*
D02*
G37*
G36*
X1203325Y17465D02*
X1203391D01*
X1203547Y17449D01*
X1203719Y17424D01*
X1203916Y17391D01*
X1204105Y17350D01*
X1204293Y17285D01*
X1204301D01*
X1204318Y17277D01*
X1204342Y17268D01*
X1204375Y17252D01*
X1204457Y17211D01*
X1204572Y17154D01*
X1204687Y17080D01*
X1204801Y16989D01*
X1204916Y16891D01*
X1205015Y16776D01*
X1205023Y16760D01*
X1205056Y16719D01*
X1205097Y16645D01*
X1205146Y16555D01*
X1205203Y16432D01*
X1205252Y16284D01*
X1205302Y16120D01*
X1205343Y15932D01*
X1204432Y15809D01*
Y15817D01*
Y15825D01*
X1204416Y15874D01*
X1204400Y15956D01*
X1204367Y16047D01*
X1204318Y16153D01*
X1204252Y16260D01*
X1204170Y16366D01*
X1204072Y16465D01*
X1204055Y16473D01*
X1204014Y16506D01*
X1203949Y16547D01*
X1203858Y16588D01*
X1203736Y16637D01*
X1203588Y16670D01*
X1203424Y16702D01*
X1203227Y16711D01*
X1203121D01*
X1203071Y16702D01*
X1203014D01*
X1202874Y16686D01*
X1202727Y16661D01*
X1202571Y16621D01*
X1202432Y16571D01*
X1202374Y16538D01*
X1202317Y16498D01*
X1202309Y16489D01*
X1202276Y16456D01*
X1202235Y16416D01*
X1202186Y16358D01*
X1202128Y16284D01*
X1202087Y16194D01*
X1202055Y16104D01*
X1202046Y15997D01*
Y15989D01*
Y15965D01*
X1202055Y15932D01*
X1202063Y15891D01*
X1202096Y15784D01*
X1202120Y15727D01*
X1202153Y15669D01*
X1202161Y15661D01*
X1202178Y15645D01*
X1202202Y15620D01*
X1202243Y15587D01*
X1202292Y15546D01*
X1202358Y15505D01*
X1202432Y15464D01*
X1202514Y15423D01*
X1202522D01*
X1202547Y15415D01*
X1202596Y15399D01*
X1202670Y15374D01*
X1202719Y15358D01*
X1202776Y15341D01*
X1202842Y15325D01*
X1202915Y15300D01*
X1203006Y15276D01*
X1203104Y15251D01*
X1203211Y15218D01*
X1203334Y15186D01*
X1203342D01*
X1203375Y15177D01*
X1203424Y15161D01*
X1203498Y15145D01*
X1203572Y15120D01*
X1203662Y15095D01*
X1203768Y15063D01*
X1203875Y15030D01*
X1204105Y14964D01*
X1204326Y14890D01*
X1204432Y14857D01*
X1204531Y14817D01*
X1204621Y14784D01*
X1204703Y14751D01*
X1204711D01*
X1204720Y14743D01*
X1204769Y14718D01*
X1204842Y14685D01*
X1204924Y14628D01*
X1205023Y14562D01*
X1205130Y14480D01*
X1205228Y14382D01*
X1205318Y14267D01*
X1205326Y14251D01*
X1205351Y14210D01*
X1205392Y14144D01*
X1205433Y14046D01*
X1205474Y13931D01*
X1205515Y13800D01*
X1205540Y13644D01*
X1205548Y13472D01*
Y13464D01*
Y13447D01*
Y13422D01*
Y13390D01*
X1205531Y13299D01*
X1205515Y13185D01*
X1205482Y13054D01*
X1205433Y12906D01*
X1205359Y12750D01*
X1205269Y12594D01*
Y12586D01*
X1205252Y12578D01*
X1205220Y12529D01*
X1205154Y12455D01*
X1205072Y12365D01*
X1204957Y12258D01*
X1204826Y12151D01*
X1204670Y12053D01*
X1204490Y11963D01*
X1204482D01*
X1204465Y11955D01*
X1204441Y11947D01*
X1204400Y11930D01*
X1204350Y11914D01*
X1204293Y11889D01*
X1204228Y11873D01*
X1204154Y11856D01*
X1203981Y11815D01*
X1203785Y11774D01*
X1203572Y11750D01*
X1203334Y11742D01*
X1203227D01*
X1203153Y11750D01*
X1203071Y11758D01*
X1202965Y11766D01*
X1202850Y11774D01*
X1202727Y11799D01*
X1202464Y11848D01*
X1202186Y11922D01*
X1202055Y11971D01*
X1201923Y12037D01*
X1201808Y12102D01*
X1201694Y12176D01*
X1201686Y12184D01*
X1201669Y12201D01*
X1201645Y12225D01*
X1201604Y12258D01*
X1201562Y12307D01*
X1201513Y12365D01*
X1201456Y12430D01*
X1201398Y12504D01*
X1201333Y12594D01*
X1201276Y12693D01*
X1201218Y12799D01*
X1201161Y12922D01*
X1201112Y13045D01*
X1201062Y13185D01*
X1201021Y13340D01*
X1200988Y13496D01*
X1201907Y13644D01*
Y13636D01*
X1201915Y13619D01*
Y13595D01*
X1201923Y13554D01*
X1201931Y13505D01*
X1201948Y13455D01*
X1201989Y13332D01*
X1202046Y13193D01*
X1202120Y13045D01*
X1202210Y12914D01*
X1202333Y12791D01*
X1202341D01*
X1202350Y12783D01*
X1202399Y12750D01*
X1202481Y12701D01*
X1202596Y12652D01*
X1202735Y12594D01*
X1202907Y12553D01*
X1203104Y12520D01*
X1203325Y12504D01*
X1203391D01*
X1203432Y12512D01*
X1203489D01*
X1203547Y12520D01*
X1203686Y12537D01*
X1203842Y12570D01*
X1204006Y12611D01*
X1204154Y12676D01*
X1204285Y12758D01*
X1204301Y12766D01*
X1204334Y12808D01*
X1204383Y12857D01*
X1204441Y12931D01*
X1204498Y13021D01*
X1204547Y13127D01*
X1204580Y13242D01*
X1204597Y13373D01*
Y13390D01*
Y13422D01*
X1204580Y13488D01*
X1204564Y13554D01*
X1204531Y13636D01*
X1204482Y13718D01*
X1204408Y13800D01*
X1204318Y13873D01*
X1204309Y13882D01*
X1204277Y13898D01*
X1204219Y13923D01*
X1204178Y13939D01*
X1204129Y13956D01*
X1204064Y13980D01*
X1203998Y14005D01*
X1203924Y14029D01*
X1203834Y14054D01*
X1203736Y14087D01*
X1203621Y14119D01*
X1203498Y14152D01*
X1203366Y14185D01*
X1203358D01*
X1203325Y14193D01*
X1203268Y14210D01*
X1203203Y14226D01*
X1203121Y14251D01*
X1203022Y14275D01*
X1202915Y14308D01*
X1202801Y14341D01*
X1202571Y14415D01*
X1202333Y14489D01*
X1202219Y14521D01*
X1202120Y14562D01*
X1202022Y14603D01*
X1201940Y14636D01*
X1201931D01*
X1201923Y14644D01*
X1201874Y14669D01*
X1201808Y14710D01*
X1201718Y14775D01*
X1201620Y14849D01*
X1201521Y14931D01*
X1201423Y15038D01*
X1201341Y15153D01*
X1201333Y15169D01*
X1201308Y15210D01*
X1201276Y15284D01*
X1201243Y15374D01*
X1201210Y15481D01*
X1201177Y15604D01*
X1201153Y15743D01*
X1201144Y15891D01*
Y15899D01*
Y15907D01*
Y15956D01*
X1201153Y16022D01*
X1201169Y16112D01*
X1201185Y16219D01*
X1201210Y16333D01*
X1201251Y16456D01*
X1201308Y16571D01*
X1201317Y16588D01*
X1201341Y16621D01*
X1201374Y16678D01*
X1201431Y16752D01*
X1201489Y16834D01*
X1201571Y16924D01*
X1201661Y17006D01*
X1201768Y17088D01*
X1201776Y17096D01*
X1201808Y17112D01*
X1201858Y17145D01*
X1201923Y17178D01*
X1202005Y17219D01*
X1202104Y17268D01*
X1202227Y17318D01*
X1202358Y17358D01*
X1202366D01*
X1202374Y17367D01*
X1202423Y17375D01*
X1202497Y17391D01*
X1202604Y17416D01*
X1202719Y17440D01*
X1202858Y17457D01*
X1203006Y17465D01*
X1203162Y17473D01*
X1203268D01*
X1203325Y17465D01*
D02*
G37*
G36*
X1198036D02*
X1198102D01*
X1198258Y17449D01*
X1198430Y17424D01*
X1198627Y17391D01*
X1198816Y17350D01*
X1199004Y17285D01*
X1199012D01*
X1199029Y17277D01*
X1199053Y17268D01*
X1199086Y17252D01*
X1199168Y17211D01*
X1199283Y17154D01*
X1199398Y17080D01*
X1199512Y16989D01*
X1199627Y16891D01*
X1199726Y16776D01*
X1199734Y16760D01*
X1199767Y16719D01*
X1199808Y16645D01*
X1199857Y16555D01*
X1199914Y16432D01*
X1199963Y16284D01*
X1200013Y16120D01*
X1200054Y15932D01*
X1199144Y15809D01*
Y15817D01*
Y15825D01*
X1199127Y15874D01*
X1199111Y15956D01*
X1199078Y16047D01*
X1199029Y16153D01*
X1198963Y16260D01*
X1198881Y16366D01*
X1198783Y16465D01*
X1198766Y16473D01*
X1198725Y16506D01*
X1198660Y16547D01*
X1198569Y16588D01*
X1198446Y16637D01*
X1198299Y16670D01*
X1198135Y16702D01*
X1197938Y16711D01*
X1197832D01*
X1197782Y16702D01*
X1197725D01*
X1197585Y16686D01*
X1197438Y16661D01*
X1197282Y16621D01*
X1197143Y16571D01*
X1197085Y16538D01*
X1197028Y16498D01*
X1197020Y16489D01*
X1196987Y16456D01*
X1196946Y16416D01*
X1196897Y16358D01*
X1196839Y16284D01*
X1196798Y16194D01*
X1196766Y16104D01*
X1196757Y15997D01*
Y15989D01*
Y15965D01*
X1196766Y15932D01*
X1196774Y15891D01*
X1196807Y15784D01*
X1196831Y15727D01*
X1196864Y15669D01*
X1196872Y15661D01*
X1196889Y15645D01*
X1196913Y15620D01*
X1196954Y15587D01*
X1197003Y15546D01*
X1197069Y15505D01*
X1197143Y15464D01*
X1197225Y15423D01*
X1197233D01*
X1197258Y15415D01*
X1197307Y15399D01*
X1197381Y15374D01*
X1197430Y15358D01*
X1197487Y15341D01*
X1197553Y15325D01*
X1197626Y15300D01*
X1197717Y15276D01*
X1197815Y15251D01*
X1197922Y15218D01*
X1198045Y15186D01*
X1198053D01*
X1198086Y15177D01*
X1198135Y15161D01*
X1198209Y15145D01*
X1198283Y15120D01*
X1198373Y15095D01*
X1198479Y15063D01*
X1198586Y15030D01*
X1198816Y14964D01*
X1199037Y14890D01*
X1199144Y14857D01*
X1199242Y14817D01*
X1199332Y14784D01*
X1199414Y14751D01*
X1199422D01*
X1199430Y14743D01*
X1199480Y14718D01*
X1199553Y14685D01*
X1199636Y14628D01*
X1199734Y14562D01*
X1199841Y14480D01*
X1199939Y14382D01*
X1200029Y14267D01*
X1200037Y14251D01*
X1200062Y14210D01*
X1200103Y14144D01*
X1200144Y14046D01*
X1200185Y13931D01*
X1200226Y13800D01*
X1200251Y13644D01*
X1200259Y13472D01*
Y13464D01*
Y13447D01*
Y13422D01*
Y13390D01*
X1200242Y13299D01*
X1200226Y13185D01*
X1200193Y13054D01*
X1200144Y12906D01*
X1200070Y12750D01*
X1199980Y12594D01*
Y12586D01*
X1199963Y12578D01*
X1199931Y12529D01*
X1199865Y12455D01*
X1199783Y12365D01*
X1199668Y12258D01*
X1199537Y12151D01*
X1199381Y12053D01*
X1199201Y11963D01*
X1199193D01*
X1199176Y11955D01*
X1199152Y11947D01*
X1199111Y11930D01*
X1199061Y11914D01*
X1199004Y11889D01*
X1198938Y11873D01*
X1198865Y11856D01*
X1198693Y11815D01*
X1198496Y11774D01*
X1198283Y11750D01*
X1198045Y11742D01*
X1197938D01*
X1197864Y11750D01*
X1197782Y11758D01*
X1197676Y11766D01*
X1197561Y11774D01*
X1197438Y11799D01*
X1197176Y11848D01*
X1196897Y11922D01*
X1196766Y11971D01*
X1196634Y12037D01*
X1196519Y12102D01*
X1196405Y12176D01*
X1196397Y12184D01*
X1196380Y12201D01*
X1196356Y12225D01*
X1196315Y12258D01*
X1196274Y12307D01*
X1196224Y12365D01*
X1196167Y12430D01*
X1196109Y12504D01*
X1196044Y12594D01*
X1195986Y12693D01*
X1195929Y12799D01*
X1195872Y12922D01*
X1195823Y13045D01*
X1195773Y13185D01*
X1195732Y13340D01*
X1195700Y13496D01*
X1196618Y13644D01*
Y13636D01*
X1196626Y13619D01*
Y13595D01*
X1196634Y13554D01*
X1196642Y13505D01*
X1196659Y13455D01*
X1196700Y13332D01*
X1196757Y13193D01*
X1196831Y13045D01*
X1196921Y12914D01*
X1197044Y12791D01*
X1197052D01*
X1197061Y12783D01*
X1197110Y12750D01*
X1197192Y12701D01*
X1197307Y12652D01*
X1197446Y12594D01*
X1197618Y12553D01*
X1197815Y12520D01*
X1198036Y12504D01*
X1198102D01*
X1198143Y12512D01*
X1198201D01*
X1198258Y12520D01*
X1198397Y12537D01*
X1198553Y12570D01*
X1198717Y12611D01*
X1198865Y12676D01*
X1198996Y12758D01*
X1199012Y12766D01*
X1199045Y12808D01*
X1199094Y12857D01*
X1199152Y12931D01*
X1199209Y13021D01*
X1199258Y13127D01*
X1199291Y13242D01*
X1199308Y13373D01*
Y13390D01*
Y13422D01*
X1199291Y13488D01*
X1199275Y13554D01*
X1199242Y13636D01*
X1199193Y13718D01*
X1199119Y13800D01*
X1199029Y13873D01*
X1199020Y13882D01*
X1198988Y13898D01*
X1198930Y13923D01*
X1198889Y13939D01*
X1198840Y13956D01*
X1198775Y13980D01*
X1198709Y14005D01*
X1198635Y14029D01*
X1198545Y14054D01*
X1198446Y14087D01*
X1198332Y14119D01*
X1198209Y14152D01*
X1198077Y14185D01*
X1198069D01*
X1198036Y14193D01*
X1197979Y14210D01*
X1197913Y14226D01*
X1197832Y14251D01*
X1197733Y14275D01*
X1197626Y14308D01*
X1197512Y14341D01*
X1197282Y14415D01*
X1197044Y14489D01*
X1196929Y14521D01*
X1196831Y14562D01*
X1196733Y14603D01*
X1196651Y14636D01*
X1196642D01*
X1196634Y14644D01*
X1196585Y14669D01*
X1196519Y14710D01*
X1196429Y14775D01*
X1196331Y14849D01*
X1196233Y14931D01*
X1196134Y15038D01*
X1196052Y15153D01*
X1196044Y15169D01*
X1196019Y15210D01*
X1195986Y15284D01*
X1195954Y15374D01*
X1195921Y15481D01*
X1195888Y15604D01*
X1195864Y15743D01*
X1195855Y15891D01*
Y15899D01*
Y15907D01*
Y15956D01*
X1195864Y16022D01*
X1195880Y16112D01*
X1195896Y16219D01*
X1195921Y16333D01*
X1195962Y16456D01*
X1196019Y16571D01*
X1196027Y16588D01*
X1196052Y16621D01*
X1196085Y16678D01*
X1196142Y16752D01*
X1196200Y16834D01*
X1196282Y16924D01*
X1196372Y17006D01*
X1196478Y17088D01*
X1196487Y17096D01*
X1196519Y17112D01*
X1196569Y17145D01*
X1196634Y17178D01*
X1196716Y17219D01*
X1196815Y17268D01*
X1196938Y17318D01*
X1197069Y17358D01*
X1197077D01*
X1197085Y17367D01*
X1197134Y17375D01*
X1197208Y17391D01*
X1197315Y17416D01*
X1197430Y17440D01*
X1197569Y17457D01*
X1197717Y17465D01*
X1197873Y17473D01*
X1197979D01*
X1198036Y17465D01*
D02*
G37*
G36*
X1146910Y17465D02*
X1146975D01*
X1147131Y17449D01*
X1147303Y17424D01*
X1147500Y17391D01*
X1147688Y17350D01*
X1147877Y17285D01*
X1147885D01*
X1147902Y17277D01*
X1147926Y17268D01*
X1147959Y17252D01*
X1148041Y17211D01*
X1148156Y17154D01*
X1148271Y17080D01*
X1148386Y16989D01*
X1148500Y16891D01*
X1148599Y16776D01*
X1148607Y16760D01*
X1148640Y16719D01*
X1148681Y16645D01*
X1148730Y16555D01*
X1148787Y16432D01*
X1148837Y16284D01*
X1148886Y16120D01*
X1148927Y15932D01*
X1148016Y15809D01*
Y15817D01*
Y15825D01*
X1148000Y15874D01*
X1147984Y15956D01*
X1147951Y16047D01*
X1147902Y16153D01*
X1147836Y16260D01*
X1147754Y16366D01*
X1147656Y16465D01*
X1147639Y16473D01*
X1147598Y16506D01*
X1147533Y16547D01*
X1147443Y16588D01*
X1147320Y16637D01*
X1147172Y16670D01*
X1147008Y16702D01*
X1146811Y16711D01*
X1146704D01*
X1146655Y16702D01*
X1146598D01*
X1146459Y16686D01*
X1146311Y16661D01*
X1146155Y16621D01*
X1146016Y16571D01*
X1145958Y16538D01*
X1145901Y16498D01*
X1145893Y16489D01*
X1145860Y16456D01*
X1145819Y16416D01*
X1145770Y16358D01*
X1145712Y16284D01*
X1145671Y16194D01*
X1145638Y16104D01*
X1145630Y15997D01*
Y15989D01*
Y15965D01*
X1145638Y15932D01*
X1145647Y15891D01*
X1145679Y15784D01*
X1145704Y15727D01*
X1145737Y15669D01*
X1145745Y15661D01*
X1145761Y15645D01*
X1145786Y15620D01*
X1145827Y15587D01*
X1145876Y15546D01*
X1145942Y15505D01*
X1146016Y15464D01*
X1146098Y15423D01*
X1146106D01*
X1146130Y15415D01*
X1146180Y15399D01*
X1146253Y15374D01*
X1146303Y15358D01*
X1146360Y15341D01*
X1146426Y15325D01*
X1146500Y15300D01*
X1146590Y15276D01*
X1146688Y15251D01*
X1146795Y15218D01*
X1146918Y15186D01*
X1146926D01*
X1146959Y15177D01*
X1147008Y15161D01*
X1147082Y15145D01*
X1147155Y15120D01*
X1147246Y15095D01*
X1147352Y15063D01*
X1147459Y15030D01*
X1147688Y14964D01*
X1147910Y14890D01*
X1148016Y14857D01*
X1148115Y14817D01*
X1148205Y14784D01*
X1148287Y14751D01*
X1148295D01*
X1148304Y14743D01*
X1148353Y14718D01*
X1148427Y14685D01*
X1148508Y14628D01*
X1148607Y14562D01*
X1148713Y14480D01*
X1148812Y14382D01*
X1148902Y14267D01*
X1148910Y14251D01*
X1148935Y14210D01*
X1148976Y14144D01*
X1149017Y14046D01*
X1149058Y13931D01*
X1149099Y13800D01*
X1149123Y13644D01*
X1149132Y13472D01*
Y13464D01*
Y13447D01*
Y13422D01*
Y13390D01*
X1149115Y13299D01*
X1149099Y13185D01*
X1149066Y13054D01*
X1149017Y12906D01*
X1148943Y12750D01*
X1148853Y12594D01*
Y12586D01*
X1148837Y12578D01*
X1148804Y12529D01*
X1148738Y12455D01*
X1148656Y12365D01*
X1148541Y12258D01*
X1148410Y12151D01*
X1148254Y12053D01*
X1148074Y11963D01*
X1148066D01*
X1148049Y11955D01*
X1148025Y11947D01*
X1147984Y11930D01*
X1147935Y11914D01*
X1147877Y11889D01*
X1147812Y11873D01*
X1147738Y11856D01*
X1147565Y11815D01*
X1147369Y11774D01*
X1147155Y11750D01*
X1146918Y11742D01*
X1146811D01*
X1146737Y11750D01*
X1146655Y11758D01*
X1146549Y11766D01*
X1146434Y11774D01*
X1146311Y11799D01*
X1146049Y11848D01*
X1145770Y11922D01*
X1145638Y11971D01*
X1145507Y12037D01*
X1145393Y12102D01*
X1145278Y12176D01*
X1145269Y12184D01*
X1145253Y12201D01*
X1145228Y12225D01*
X1145187Y12258D01*
X1145146Y12307D01*
X1145097Y12365D01*
X1145040Y12430D01*
X1144983Y12504D01*
X1144917Y12594D01*
X1144860Y12693D01*
X1144802Y12799D01*
X1144745Y12922D01*
X1144695Y13045D01*
X1144646Y13185D01*
X1144605Y13340D01*
X1144573Y13496D01*
X1145491Y13644D01*
Y13636D01*
X1145499Y13619D01*
Y13595D01*
X1145507Y13554D01*
X1145516Y13505D01*
X1145532Y13455D01*
X1145573Y13332D01*
X1145630Y13193D01*
X1145704Y13045D01*
X1145794Y12914D01*
X1145917Y12791D01*
X1145926D01*
X1145934Y12783D01*
X1145983Y12750D01*
X1146065Y12701D01*
X1146180Y12652D01*
X1146319Y12594D01*
X1146491Y12553D01*
X1146688Y12520D01*
X1146910Y12504D01*
X1146975D01*
X1147016Y12512D01*
X1147073D01*
X1147131Y12520D01*
X1147270Y12537D01*
X1147426Y12570D01*
X1147590Y12611D01*
X1147738Y12676D01*
X1147869Y12758D01*
X1147885Y12766D01*
X1147918Y12808D01*
X1147967Y12857D01*
X1148025Y12931D01*
X1148082Y13021D01*
X1148131Y13127D01*
X1148164Y13242D01*
X1148180Y13373D01*
Y13390D01*
Y13422D01*
X1148164Y13488D01*
X1148148Y13554D01*
X1148115Y13636D01*
X1148066Y13718D01*
X1147992Y13800D01*
X1147902Y13873D01*
X1147894Y13882D01*
X1147861Y13898D01*
X1147803Y13923D01*
X1147762Y13939D01*
X1147713Y13956D01*
X1147647Y13980D01*
X1147582Y14005D01*
X1147508Y14029D01*
X1147418Y14054D01*
X1147320Y14087D01*
X1147205Y14119D01*
X1147082Y14152D01*
X1146951Y14185D01*
X1146942D01*
X1146910Y14193D01*
X1146852Y14210D01*
X1146786Y14226D01*
X1146704Y14251D01*
X1146606Y14275D01*
X1146500Y14308D01*
X1146385Y14341D01*
X1146155Y14415D01*
X1145917Y14489D01*
X1145802Y14521D01*
X1145704Y14562D01*
X1145606Y14603D01*
X1145524Y14636D01*
X1145516D01*
X1145507Y14644D01*
X1145458Y14669D01*
X1145393Y14710D01*
X1145302Y14775D01*
X1145204Y14849D01*
X1145105Y14931D01*
X1145007Y15038D01*
X1144925Y15153D01*
X1144917Y15169D01*
X1144892Y15210D01*
X1144860Y15284D01*
X1144827Y15374D01*
X1144794Y15481D01*
X1144761Y15604D01*
X1144736Y15743D01*
X1144728Y15891D01*
Y15899D01*
Y15907D01*
Y15956D01*
X1144736Y16022D01*
X1144753Y16112D01*
X1144769Y16219D01*
X1144794Y16333D01*
X1144835Y16456D01*
X1144892Y16571D01*
X1144901Y16588D01*
X1144925Y16621D01*
X1144958Y16678D01*
X1145015Y16752D01*
X1145073Y16834D01*
X1145155Y16924D01*
X1145245Y17006D01*
X1145352Y17088D01*
X1145360Y17096D01*
X1145393Y17112D01*
X1145442Y17145D01*
X1145507Y17178D01*
X1145589Y17219D01*
X1145688Y17268D01*
X1145811Y17318D01*
X1145942Y17358D01*
X1145950D01*
X1145958Y17367D01*
X1146008Y17375D01*
X1146081Y17391D01*
X1146188Y17416D01*
X1146303Y17440D01*
X1146442Y17457D01*
X1146590Y17465D01*
X1146745Y17473D01*
X1146852D01*
X1146910Y17465D01*
D02*
G37*
G36*
X1281463Y11864D02*
X1280430D01*
X1276461Y17801D01*
Y11864D01*
X1275502D01*
Y19433D01*
X1276527D01*
X1280504Y13488D01*
Y19433D01*
X1281463D01*
Y11864D01*
D02*
G37*
G36*
X1299733D02*
X1298765D01*
Y18203D01*
X1296551Y11864D01*
X1295649D01*
X1293468Y18310D01*
Y11864D01*
X1292500D01*
Y19433D01*
X1294001D01*
X1295797Y14070D01*
Y14062D01*
X1295805Y14038D01*
X1295821Y13996D01*
X1295838Y13947D01*
X1295854Y13890D01*
X1295879Y13816D01*
X1295936Y13652D01*
X1295994Y13472D01*
X1296051Y13283D01*
X1296109Y13111D01*
X1296133Y13029D01*
X1296158Y12955D01*
Y12963D01*
X1296166Y12971D01*
X1296174Y12996D01*
X1296182Y13029D01*
X1296199Y13078D01*
X1296215Y13127D01*
X1296231Y13193D01*
X1296256Y13259D01*
X1296281Y13340D01*
X1296313Y13431D01*
X1296346Y13529D01*
X1296379Y13644D01*
X1296420Y13759D01*
X1296461Y13890D01*
X1296510Y14021D01*
X1296560Y14169D01*
X1298380Y19433D01*
X1299733D01*
Y11864D01*
D02*
G37*
G36*
X1265449Y11864D02*
X1264473D01*
X1262890Y17629D01*
Y17637D01*
X1262882Y17662D01*
X1262874Y17695D01*
X1262858Y17744D01*
X1262841Y17801D01*
X1262825Y17867D01*
X1262784Y18014D01*
X1262743Y18162D01*
X1262702Y18310D01*
X1262685Y18375D01*
X1262669Y18433D01*
X1262652Y18482D01*
X1262644Y18515D01*
Y18507D01*
X1262636Y18490D01*
Y18465D01*
X1262620Y18425D01*
X1262611Y18383D01*
X1262603Y18326D01*
X1262570Y18211D01*
X1262538Y18072D01*
X1262497Y17916D01*
X1262456Y17768D01*
X1262415Y17629D01*
X1260824Y11864D01*
X1259783D01*
X1257790Y19433D01*
X1258823D01*
X1259963Y14464D01*
Y14456D01*
X1259971Y14431D01*
X1259979Y14390D01*
X1259996Y14333D01*
X1260012Y14259D01*
X1260028Y14177D01*
X1260053Y14087D01*
X1260078Y13980D01*
X1260102Y13865D01*
X1260127Y13742D01*
X1260176Y13488D01*
X1260233Y13209D01*
X1260283Y12922D01*
Y12939D01*
X1260299Y12971D01*
X1260307Y13037D01*
X1260332Y13111D01*
X1260348Y13209D01*
X1260373Y13316D01*
X1260406Y13431D01*
X1260430Y13545D01*
X1260496Y13792D01*
X1260520Y13906D01*
X1260553Y14021D01*
X1260578Y14119D01*
X1260594Y14201D01*
X1260611Y14267D01*
X1260627Y14316D01*
X1262070Y19433D01*
X1263276D01*
X1264350Y15596D01*
X1264358Y15579D01*
X1264366Y15530D01*
X1264391Y15456D01*
X1264415Y15349D01*
X1264448Y15226D01*
X1264489Y15079D01*
X1264530Y14915D01*
X1264579Y14726D01*
X1264629Y14529D01*
X1264678Y14316D01*
X1264727Y14095D01*
X1264776Y13865D01*
X1264867Y13398D01*
X1264948Y12922D01*
Y12931D01*
X1264957Y12955D01*
X1264965Y12996D01*
X1264973Y13045D01*
X1264989Y13119D01*
X1265006Y13201D01*
X1265030Y13291D01*
X1265055Y13398D01*
X1265080Y13513D01*
X1265104Y13636D01*
X1265137Y13775D01*
X1265170Y13915D01*
X1265244Y14226D01*
X1265326Y14562D01*
X1266515Y19433D01*
X1267523D01*
X1265449Y11864D01*
D02*
G37*
G36*
X1252542Y11774D02*
Y11766D01*
X1252526Y11733D01*
X1252509Y11692D01*
X1252485Y11627D01*
X1252460Y11553D01*
X1252427Y11471D01*
X1252386Y11381D01*
X1252353Y11282D01*
X1252263Y11077D01*
X1252181Y10872D01*
X1252132Y10774D01*
X1252091Y10684D01*
X1252058Y10602D01*
X1252017Y10536D01*
Y10528D01*
X1252009Y10520D01*
X1251993Y10495D01*
X1251976Y10462D01*
X1251919Y10380D01*
X1251853Y10282D01*
X1251771Y10167D01*
X1251673Y10061D01*
X1251566Y9954D01*
X1251451Y9864D01*
X1251435Y9855D01*
X1251394Y9831D01*
X1251328Y9790D01*
X1251238Y9757D01*
X1251123Y9716D01*
X1250992Y9675D01*
X1250853Y9651D01*
X1250689Y9642D01*
X1250640D01*
X1250582Y9651D01*
X1250517Y9659D01*
X1250426Y9667D01*
X1250320Y9691D01*
X1250213Y9716D01*
X1250090Y9757D01*
X1249984Y10626D01*
X1250000D01*
X1250033Y10610D01*
X1250090Y10602D01*
X1250164Y10585D01*
X1250246Y10569D01*
X1250336Y10553D01*
X1250426Y10544D01*
X1250508Y10536D01*
X1250558D01*
X1250615Y10544D01*
X1250689Y10553D01*
X1250762Y10561D01*
X1250844Y10585D01*
X1250926Y10610D01*
X1251000Y10643D01*
X1251009Y10651D01*
X1251033Y10659D01*
X1251066Y10684D01*
X1251107Y10717D01*
X1251156Y10757D01*
X1251213Y10807D01*
X1251312Y10930D01*
X1251320Y10938D01*
X1251328Y10962D01*
X1251353Y11004D01*
X1251377Y11069D01*
X1251418Y11159D01*
X1251468Y11282D01*
X1251492Y11356D01*
X1251525Y11438D01*
X1251558Y11528D01*
X1251591Y11627D01*
X1251599Y11643D01*
X1251615Y11684D01*
X1251640Y11758D01*
X1251681Y11856D01*
X1249606Y17350D01*
X1250590D01*
X1251730Y14169D01*
Y14161D01*
X1251738Y14144D01*
X1251755Y14111D01*
X1251771Y14062D01*
X1251787Y14005D01*
X1251812Y13939D01*
X1251837Y13865D01*
X1251869Y13783D01*
X1251927Y13595D01*
X1252001Y13373D01*
X1252066Y13144D01*
X1252132Y12898D01*
Y12906D01*
X1252140Y12931D01*
X1252148Y12963D01*
X1252165Y13004D01*
X1252173Y13062D01*
X1252197Y13136D01*
X1252214Y13209D01*
X1252238Y13291D01*
X1252296Y13480D01*
X1252361Y13693D01*
X1252435Y13915D01*
X1252517Y14144D01*
X1253698Y17350D01*
X1254625D01*
X1252542Y11774D01*
D02*
G37*
G36*
X1417879Y11864D02*
X1417050D01*
Y12668D01*
X1417042Y12660D01*
X1417017Y12627D01*
X1416985Y12586D01*
X1416936Y12520D01*
X1416870Y12455D01*
X1416788Y12373D01*
X1416698Y12291D01*
X1416591Y12209D01*
X1416468Y12119D01*
X1416337Y12037D01*
X1416197Y11955D01*
X1416042Y11889D01*
X1415870Y11823D01*
X1415697Y11783D01*
X1415509Y11750D01*
X1415304Y11742D01*
X1415222D01*
X1415131Y11750D01*
X1415009Y11766D01*
X1414869Y11783D01*
X1414713Y11815D01*
X1414557Y11864D01*
X1414394Y11922D01*
X1414385D01*
X1414377Y11930D01*
X1414328Y11955D01*
X1414254Y11996D01*
X1414156Y12053D01*
X1414057Y12119D01*
X1413951Y12201D01*
X1413852Y12291D01*
X1413770Y12389D01*
X1413762Y12406D01*
X1413737Y12438D01*
X1413705Y12504D01*
X1413664Y12586D01*
X1413614Y12685D01*
X1413565Y12799D01*
X1413524Y12931D01*
X1413483Y13078D01*
Y13094D01*
X1413475Y13127D01*
X1413467Y13201D01*
X1413459Y13291D01*
X1413451Y13414D01*
X1413442Y13562D01*
X1413434Y13742D01*
Y13947D01*
Y17350D01*
X1414361D01*
Y14308D01*
Y14300D01*
Y14275D01*
Y14243D01*
Y14193D01*
Y14128D01*
Y14062D01*
X1414369Y13915D01*
Y13750D01*
X1414385Y13587D01*
X1414394Y13439D01*
X1414402Y13373D01*
X1414410Y13324D01*
X1414418Y13308D01*
X1414426Y13267D01*
X1414451Y13193D01*
X1414492Y13111D01*
X1414541Y13021D01*
X1414607Y12931D01*
X1414689Y12832D01*
X1414787Y12750D01*
X1414804Y12742D01*
X1414836Y12717D01*
X1414902Y12685D01*
X1414984Y12652D01*
X1415082Y12611D01*
X1415205Y12578D01*
X1415345Y12553D01*
X1415492Y12545D01*
X1415566D01*
X1415640Y12553D01*
X1415746Y12570D01*
X1415870Y12594D01*
X1416001Y12635D01*
X1416132Y12685D01*
X1416271Y12758D01*
X1416280D01*
X1416288Y12766D01*
X1416329Y12799D01*
X1416394Y12848D01*
X1416476Y12914D01*
X1416558Y12996D01*
X1416648Y13094D01*
X1416730Y13209D01*
X1416796Y13340D01*
Y13349D01*
X1416804Y13357D01*
X1416813Y13382D01*
X1416821Y13406D01*
X1416829Y13447D01*
X1416845Y13496D01*
X1416862Y13545D01*
X1416878Y13611D01*
X1416903Y13767D01*
X1416927Y13947D01*
X1416944Y14161D01*
X1416952Y14406D01*
Y17350D01*
X1417879D01*
Y11864D01*
D02*
G37*
G36*
X1341479Y11864D02*
X1340651D01*
Y12668D01*
X1340643Y12660D01*
X1340618Y12627D01*
X1340585Y12586D01*
X1340536Y12520D01*
X1340471Y12455D01*
X1340388Y12373D01*
X1340298Y12291D01*
X1340192Y12209D01*
X1340069Y12119D01*
X1339937Y12037D01*
X1339798Y11955D01*
X1339642Y11889D01*
X1339470Y11823D01*
X1339298Y11783D01*
X1339109Y11750D01*
X1338904Y11742D01*
X1338822D01*
X1338732Y11750D01*
X1338609Y11766D01*
X1338470Y11783D01*
X1338314Y11815D01*
X1338158Y11864D01*
X1337994Y11922D01*
X1337986D01*
X1337978Y11930D01*
X1337928Y11955D01*
X1337855Y11996D01*
X1337756Y12053D01*
X1337658Y12119D01*
X1337551Y12201D01*
X1337453Y12291D01*
X1337371Y12389D01*
X1337363Y12406D01*
X1337338Y12438D01*
X1337305Y12504D01*
X1337264Y12586D01*
X1337215Y12685D01*
X1337166Y12799D01*
X1337125Y12931D01*
X1337084Y13078D01*
Y13094D01*
X1337076Y13127D01*
X1337068Y13201D01*
X1337059Y13291D01*
X1337051Y13414D01*
X1337043Y13562D01*
X1337035Y13742D01*
Y13947D01*
Y17350D01*
X1337961D01*
Y14308D01*
Y14300D01*
Y14275D01*
Y14243D01*
Y14193D01*
Y14128D01*
Y14062D01*
X1337969Y13915D01*
Y13750D01*
X1337986Y13587D01*
X1337994Y13439D01*
X1338002Y13373D01*
X1338011Y13324D01*
X1338019Y13308D01*
X1338027Y13267D01*
X1338052Y13193D01*
X1338093Y13111D01*
X1338142Y13021D01*
X1338207Y12931D01*
X1338289Y12832D01*
X1338388Y12750D01*
X1338404Y12742D01*
X1338437Y12717D01*
X1338503Y12685D01*
X1338585Y12652D01*
X1338683Y12611D01*
X1338806Y12578D01*
X1338945Y12553D01*
X1339093Y12545D01*
X1339167D01*
X1339240Y12553D01*
X1339347Y12570D01*
X1339470Y12594D01*
X1339601Y12635D01*
X1339732Y12685D01*
X1339872Y12758D01*
X1339880D01*
X1339888Y12766D01*
X1339929Y12799D01*
X1339995Y12848D01*
X1340077Y12914D01*
X1340159Y12996D01*
X1340249Y13094D01*
X1340331Y13209D01*
X1340397Y13340D01*
Y13349D01*
X1340405Y13357D01*
X1340413Y13382D01*
X1340421Y13406D01*
X1340429Y13447D01*
X1340446Y13496D01*
X1340462Y13545D01*
X1340479Y13611D01*
X1340503Y13767D01*
X1340528Y13947D01*
X1340544Y14161D01*
X1340553Y14406D01*
Y17350D01*
X1341479D01*
Y11864D01*
D02*
G37*
G36*
X1402627Y16711D02*
X1402635Y16719D01*
X1402659Y16744D01*
X1402692Y16784D01*
X1402741Y16834D01*
X1402807Y16891D01*
X1402881Y16949D01*
X1402971Y17022D01*
X1403078Y17096D01*
X1403184Y17162D01*
X1403307Y17235D01*
X1403446Y17293D01*
X1403586Y17358D01*
X1403742Y17400D01*
X1403906Y17440D01*
X1404078Y17465D01*
X1404258Y17473D01*
X1404357D01*
X1404414Y17465D01*
X1404471Y17457D01*
X1404619Y17440D01*
X1404783Y17416D01*
X1404955Y17367D01*
X1405136Y17309D01*
X1405308Y17227D01*
X1405316D01*
X1405324Y17219D01*
X1405349Y17203D01*
X1405382Y17186D01*
X1405464Y17129D01*
X1405562Y17055D01*
X1405661Y16965D01*
X1405775Y16850D01*
X1405874Y16711D01*
X1405956Y16563D01*
Y16555D01*
X1405964Y16547D01*
X1405972Y16522D01*
X1405989Y16489D01*
X1406005Y16440D01*
X1406021Y16391D01*
X1406038Y16325D01*
X1406054Y16251D01*
X1406071Y16170D01*
X1406087Y16079D01*
X1406103Y15981D01*
X1406120Y15866D01*
X1406136Y15751D01*
X1406144Y15620D01*
X1406153Y15481D01*
Y15333D01*
Y11864D01*
X1405226D01*
Y15333D01*
Y15341D01*
Y15366D01*
Y15399D01*
X1405218Y15448D01*
Y15505D01*
X1405210Y15571D01*
X1405185Y15719D01*
X1405152Y15891D01*
X1405095Y16055D01*
X1405021Y16219D01*
X1404980Y16284D01*
X1404922Y16350D01*
X1404906Y16366D01*
X1404865Y16399D01*
X1404799Y16448D01*
X1404701Y16514D01*
X1404578Y16571D01*
X1404439Y16621D01*
X1404266Y16653D01*
X1404070Y16670D01*
X1404004D01*
X1403922Y16661D01*
X1403815Y16645D01*
X1403701Y16612D01*
X1403570Y16579D01*
X1403430Y16522D01*
X1403291Y16448D01*
X1403274Y16440D01*
X1403233Y16407D01*
X1403168Y16358D01*
X1403094Y16293D01*
X1403004Y16210D01*
X1402922Y16112D01*
X1402840Y15997D01*
X1402774Y15866D01*
X1402766Y15850D01*
X1402758Y15825D01*
X1402750Y15800D01*
X1402725Y15719D01*
X1402700Y15604D01*
X1402676Y15464D01*
X1402651Y15292D01*
X1402635Y15087D01*
X1402627Y14857D01*
Y11864D01*
X1401700D01*
Y19433D01*
X1402627D01*
Y16711D01*
D02*
G37*
G36*
X1400609Y16727D02*
X1397633Y13250D01*
X1397050Y12611D01*
X1397075D01*
X1397116Y12619D01*
X1397157D01*
X1397215Y12627D01*
X1397280D01*
X1397354Y12635D01*
X1397436Y12643D01*
X1397616Y12652D01*
X1397813Y12660D01*
X1398026Y12668D01*
X1400773D01*
Y11864D01*
X1395919D01*
Y12619D01*
X1399396Y16621D01*
X1399338D01*
X1399297Y16612D01*
X1399183D01*
X1399043Y16604D01*
X1398879Y16596D01*
X1398707D01*
X1398526Y16588D01*
X1396124D01*
Y17350D01*
X1400609D01*
Y16727D01*
D02*
G37*
G36*
X1381266Y17465D02*
X1381339D01*
X1381495Y17449D01*
X1381676Y17432D01*
X1381864Y17400D01*
X1382053Y17358D01*
X1382225Y17301D01*
X1382233D01*
X1382241Y17293D01*
X1382266Y17285D01*
X1382299Y17268D01*
X1382372Y17235D01*
X1382471Y17186D01*
X1382578Y17129D01*
X1382684Y17055D01*
X1382782Y16973D01*
X1382873Y16883D01*
X1382881Y16875D01*
X1382905Y16842D01*
X1382946Y16784D01*
X1382987Y16711D01*
X1383037Y16621D01*
X1383086Y16514D01*
X1383135Y16391D01*
X1383168Y16251D01*
Y16243D01*
X1383176Y16202D01*
X1383184Y16145D01*
X1383193Y16055D01*
X1383201Y15940D01*
X1383209Y15792D01*
Y15702D01*
X1383217Y15612D01*
Y15514D01*
Y15399D01*
Y14161D01*
Y14144D01*
Y14103D01*
Y14038D01*
Y13956D01*
Y13849D01*
Y13734D01*
X1383225Y13603D01*
Y13472D01*
X1383234Y13193D01*
Y13054D01*
X1383242Y12922D01*
X1383250Y12799D01*
X1383258Y12693D01*
X1383266Y12594D01*
X1383274Y12520D01*
Y12504D01*
X1383283Y12463D01*
X1383299Y12398D01*
X1383324Y12307D01*
X1383356Y12209D01*
X1383397Y12102D01*
X1383447Y11979D01*
X1383504Y11864D01*
X1382537D01*
X1382528Y11881D01*
X1382512Y11914D01*
X1382487Y11979D01*
X1382463Y12061D01*
X1382430Y12160D01*
X1382397Y12274D01*
X1382372Y12406D01*
X1382356Y12553D01*
X1382348Y12545D01*
X1382331Y12537D01*
X1382307Y12512D01*
X1382266Y12479D01*
X1382217Y12447D01*
X1382168Y12398D01*
X1382036Y12307D01*
X1381880Y12201D01*
X1381717Y12094D01*
X1381536Y12004D01*
X1381356Y11922D01*
X1381347D01*
X1381331Y11914D01*
X1381306Y11906D01*
X1381274Y11897D01*
X1381233Y11881D01*
X1381175Y11864D01*
X1381052Y11832D01*
X1380896Y11799D01*
X1380724Y11766D01*
X1380536Y11750D01*
X1380331Y11742D01*
X1380241D01*
X1380183Y11750D01*
X1380109Y11758D01*
X1380019Y11766D01*
X1379921Y11774D01*
X1379822Y11799D01*
X1379593Y11848D01*
X1379363Y11922D01*
X1379257Y11971D01*
X1379142Y12037D01*
X1379043Y12102D01*
X1378945Y12176D01*
X1378937Y12184D01*
X1378920Y12201D01*
X1378904Y12225D01*
X1378871Y12258D01*
X1378830Y12299D01*
X1378789Y12357D01*
X1378748Y12414D01*
X1378707Y12488D01*
X1378617Y12643D01*
X1378535Y12840D01*
X1378502Y12947D01*
X1378486Y13062D01*
X1378469Y13185D01*
X1378461Y13308D01*
Y13316D01*
Y13324D01*
Y13373D01*
X1378469Y13455D01*
X1378486Y13554D01*
X1378502Y13668D01*
X1378535Y13792D01*
X1378584Y13915D01*
X1378642Y14046D01*
X1378650Y14062D01*
X1378674Y14103D01*
X1378715Y14161D01*
X1378773Y14243D01*
X1378838Y14324D01*
X1378920Y14415D01*
X1379010Y14497D01*
X1379117Y14579D01*
X1379134Y14587D01*
X1379175Y14612D01*
X1379232Y14652D01*
X1379314Y14694D01*
X1379412Y14743D01*
X1379527Y14792D01*
X1379658Y14841D01*
X1379790Y14882D01*
X1379806D01*
X1379839Y14898D01*
X1379904Y14907D01*
X1379994Y14931D01*
X1380109Y14948D01*
X1380257Y14972D01*
X1380421Y14997D01*
X1380618Y15021D01*
X1380634D01*
X1380667Y15030D01*
X1380724Y15038D01*
X1380798Y15046D01*
X1380896Y15063D01*
X1381003Y15079D01*
X1381118Y15095D01*
X1381249Y15112D01*
X1381520Y15161D01*
X1381790Y15218D01*
X1381921Y15251D01*
X1382053Y15284D01*
X1382168Y15317D01*
X1382274Y15349D01*
Y15358D01*
Y15382D01*
Y15415D01*
X1382282Y15448D01*
Y15530D01*
Y15563D01*
Y15587D01*
Y15596D01*
Y15612D01*
Y15645D01*
Y15677D01*
X1382266Y15776D01*
X1382250Y15899D01*
X1382217Y16030D01*
X1382168Y16161D01*
X1382102Y16284D01*
X1382012Y16383D01*
X1381995Y16399D01*
X1381979Y16416D01*
X1381946Y16432D01*
X1381905Y16456D01*
X1381864Y16481D01*
X1381749Y16547D01*
X1381602Y16604D01*
X1381421Y16653D01*
X1381208Y16686D01*
X1380962Y16702D01*
X1380855D01*
X1380798Y16694D01*
X1380741D01*
X1380593Y16678D01*
X1380437Y16645D01*
X1380282Y16604D01*
X1380126Y16547D01*
X1379994Y16473D01*
X1379978Y16465D01*
X1379945Y16432D01*
X1379888Y16366D01*
X1379822Y16284D01*
X1379749Y16178D01*
X1379667Y16030D01*
X1379601Y15866D01*
X1379568Y15768D01*
X1379535Y15661D01*
X1378625Y15784D01*
Y15792D01*
X1378633Y15809D01*
X1378642Y15842D01*
X1378650Y15882D01*
X1378666Y15932D01*
X1378683Y15989D01*
X1378724Y16120D01*
X1378781Y16268D01*
X1378846Y16424D01*
X1378928Y16579D01*
X1379027Y16719D01*
Y16727D01*
X1379043Y16735D01*
X1379084Y16776D01*
X1379150Y16842D01*
X1379240Y16924D01*
X1379355Y17014D01*
X1379494Y17104D01*
X1379658Y17195D01*
X1379847Y17277D01*
X1379855D01*
X1379871Y17285D01*
X1379904Y17293D01*
X1379945Y17309D01*
X1379994Y17326D01*
X1380052Y17342D01*
X1380126Y17358D01*
X1380208Y17375D01*
X1380290Y17391D01*
X1380388Y17408D01*
X1380601Y17440D01*
X1380839Y17465D01*
X1381093Y17473D01*
X1381208D01*
X1381266Y17465D01*
D02*
G37*
G36*
X1360913Y11864D02*
X1359986D01*
Y17350D01*
X1360913D01*
Y11864D01*
D02*
G37*
G36*
X1349753D02*
X1348826D01*
Y17350D01*
X1349753D01*
Y11864D01*
D02*
G37*
G36*
X1322701Y18539D02*
X1318224D01*
Y16227D01*
X1322414D01*
Y15333D01*
X1318224D01*
Y12758D01*
X1322873D01*
Y11864D01*
X1317223D01*
Y19433D01*
X1322701D01*
Y18539D01*
D02*
G37*
G36*
X1313189Y19425D02*
X1313279D01*
X1313386Y19417D01*
X1313509Y19409D01*
X1313755Y19384D01*
X1314009Y19343D01*
X1314255Y19294D01*
X1314362Y19261D01*
X1314468Y19228D01*
X1314476D01*
X1314493Y19220D01*
X1314517Y19204D01*
X1314559Y19187D01*
X1314657Y19138D01*
X1314772Y19064D01*
X1314911Y18966D01*
X1315051Y18835D01*
X1315190Y18687D01*
X1315313Y18507D01*
Y18498D01*
X1315329Y18482D01*
X1315346Y18457D01*
X1315362Y18416D01*
X1315387Y18367D01*
X1315411Y18310D01*
X1315444Y18244D01*
X1315477Y18170D01*
X1315534Y17998D01*
X1315584Y17809D01*
X1315616Y17596D01*
X1315633Y17367D01*
Y17358D01*
Y17334D01*
Y17285D01*
X1315625Y17235D01*
X1315616Y17162D01*
X1315608Y17080D01*
X1315592Y16989D01*
X1315567Y16891D01*
X1315501Y16678D01*
X1315460Y16563D01*
X1315411Y16448D01*
X1315354Y16333D01*
X1315280Y16219D01*
X1315198Y16112D01*
X1315108Y16005D01*
X1315100Y15997D01*
X1315083Y15981D01*
X1315051Y15956D01*
X1315009Y15915D01*
X1314952Y15874D01*
X1314886Y15825D01*
X1314804Y15768D01*
X1314706Y15710D01*
X1314600Y15653D01*
X1314485Y15596D01*
X1314353Y15538D01*
X1314206Y15481D01*
X1314050Y15431D01*
X1313878Y15382D01*
X1313689Y15341D01*
X1313492Y15308D01*
X1313501D01*
X1313509Y15300D01*
X1313558Y15276D01*
X1313632Y15235D01*
X1313722Y15186D01*
X1313820Y15128D01*
X1313919Y15071D01*
X1314017Y14997D01*
X1314099Y14931D01*
X1314108Y14923D01*
X1314116Y14915D01*
X1314140Y14890D01*
X1314173Y14857D01*
X1314214Y14817D01*
X1314263Y14767D01*
X1314370Y14652D01*
X1314493Y14505D01*
X1314632Y14333D01*
X1314780Y14136D01*
X1314927Y13923D01*
X1316239Y11864D01*
X1314985D01*
X1313984Y13439D01*
X1313976Y13447D01*
X1313968Y13472D01*
X1313943Y13505D01*
X1313911Y13554D01*
X1313878Y13611D01*
X1313829Y13677D01*
X1313730Y13824D01*
X1313616Y13996D01*
X1313501Y14169D01*
X1313378Y14333D01*
X1313263Y14480D01*
Y14489D01*
X1313247Y14497D01*
X1313214Y14538D01*
X1313165Y14603D01*
X1313091Y14677D01*
X1313017Y14759D01*
X1312927Y14841D01*
X1312836Y14923D01*
X1312755Y14980D01*
X1312746Y14989D01*
X1312714Y15005D01*
X1312673Y15030D01*
X1312615Y15063D01*
X1312541Y15095D01*
X1312467Y15128D01*
X1312385Y15161D01*
X1312295Y15186D01*
X1312287D01*
X1312263Y15194D01*
X1312222Y15202D01*
X1312164Y15210D01*
X1312082D01*
X1311984Y15218D01*
X1311869Y15226D01*
X1310581D01*
Y11864D01*
X1309581D01*
Y19433D01*
X1313099D01*
X1313189Y19425D01*
D02*
G37*
G36*
X1288564Y18539D02*
X1286072D01*
Y11864D01*
X1285071D01*
Y18539D01*
X1282578D01*
Y19433D01*
X1288564D01*
Y18539D01*
D02*
G37*
G36*
X1274600Y11864D02*
X1273509Y11864D01*
X1271550Y17350D01*
Y17358D01*
X1271541Y17383D01*
X1271525Y17416D01*
X1271509Y17473D01*
X1271484Y17531D01*
X1271459Y17605D01*
X1271435Y17686D01*
X1271402Y17768D01*
X1271336Y17965D01*
X1271271Y18170D01*
X1271205Y18375D01*
X1271148Y18580D01*
Y18572D01*
X1271140Y18556D01*
X1271131Y18523D01*
X1271115Y18474D01*
X1271107Y18416D01*
X1271082Y18351D01*
X1271058Y18277D01*
X1271033Y18195D01*
X1270975Y18014D01*
X1270910Y17809D01*
X1270828Y17588D01*
X1270746Y17358D01*
X1268712Y11864D01*
X1267687D01*
X1270639Y19433D01*
X1271673D01*
X1274600Y11864D01*
D02*
G37*
G36*
X1228114Y11864D02*
X1227188D01*
Y19433D01*
X1228114D01*
Y11864D01*
D02*
G37*
G36*
X1195388Y11864D02*
X1194248D01*
X1193371Y14152D01*
X1190189D01*
X1189369Y11864D01*
X1188311D01*
X1191206Y19433D01*
X1192288D01*
X1195388Y11864D01*
D02*
G37*
G36*
X1151165Y11864D02*
X1150239D01*
Y17350D01*
X1151165D01*
Y11864D01*
D02*
G37*
G36*
X1134445Y19425D02*
X1134544D01*
X1134642Y19417D01*
X1134864Y19409D01*
X1135085Y19384D01*
X1135306Y19359D01*
X1135405Y19335D01*
X1135495Y19318D01*
X1135503D01*
X1135528Y19310D01*
X1135561Y19302D01*
X1135602Y19286D01*
X1135659Y19269D01*
X1135725Y19253D01*
X1135880Y19195D01*
X1136053Y19121D01*
X1136233Y19031D01*
X1136422Y18916D01*
X1136602Y18777D01*
X1136610Y18769D01*
X1136627Y18753D01*
X1136660Y18728D01*
X1136701Y18687D01*
X1136750Y18638D01*
X1136807Y18572D01*
X1136873Y18507D01*
X1136938Y18425D01*
X1137012Y18334D01*
X1137086Y18236D01*
X1137160Y18129D01*
X1137234Y18014D01*
X1137373Y17760D01*
X1137496Y17481D01*
Y17473D01*
X1137512Y17449D01*
X1137521Y17400D01*
X1137545Y17342D01*
X1137570Y17268D01*
X1137594Y17178D01*
X1137619Y17080D01*
X1137652Y16965D01*
X1137676Y16834D01*
X1137701Y16694D01*
X1137726Y16547D01*
X1137750Y16391D01*
X1137775Y16227D01*
X1137783Y16055D01*
X1137799Y15686D01*
Y15677D01*
Y15645D01*
Y15604D01*
Y15538D01*
X1137791Y15464D01*
Y15374D01*
X1137783Y15276D01*
X1137775Y15169D01*
X1137750Y14931D01*
X1137709Y14677D01*
X1137660Y14415D01*
X1137594Y14152D01*
Y14144D01*
X1137586Y14119D01*
X1137570Y14087D01*
X1137562Y14046D01*
X1137537Y13988D01*
X1137512Y13923D01*
X1137455Y13767D01*
X1137381Y13595D01*
X1137291Y13406D01*
X1137193Y13226D01*
X1137078Y13054D01*
Y13045D01*
X1137061Y13037D01*
X1137045Y13013D01*
X1137020Y12980D01*
X1136963Y12906D01*
X1136873Y12808D01*
X1136774Y12693D01*
X1136660Y12578D01*
X1136528Y12471D01*
X1136389Y12365D01*
X1136381D01*
X1136372Y12357D01*
X1136323Y12324D01*
X1136241Y12283D01*
X1136135Y12225D01*
X1136003Y12168D01*
X1135848Y12102D01*
X1135667Y12045D01*
X1135479Y11987D01*
X1135470D01*
X1135454Y11979D01*
X1135429D01*
X1135388Y11971D01*
X1135339Y11963D01*
X1135274Y11947D01*
X1135208Y11938D01*
X1135134Y11930D01*
X1134954Y11906D01*
X1134749Y11881D01*
X1134519Y11873D01*
X1134273Y11864D01*
X1131543D01*
Y19433D01*
X1134363D01*
X1134445Y19425D01*
D02*
G37*
G36*
X1335206Y17350D02*
X1336149D01*
Y16629D01*
X1335206D01*
Y13414D01*
Y13406D01*
Y13398D01*
Y13349D01*
Y13283D01*
X1335214Y13201D01*
Y13119D01*
X1335231Y13037D01*
X1335239Y12963D01*
X1335255Y12906D01*
Y12898D01*
X1335264Y12889D01*
X1335296Y12840D01*
X1335345Y12783D01*
X1335411Y12725D01*
X1335419D01*
X1335436Y12717D01*
X1335460Y12709D01*
X1335493Y12693D01*
X1335542Y12685D01*
X1335592Y12668D01*
X1335657Y12660D01*
X1335797D01*
X1335846Y12668D01*
X1335903D01*
X1335977Y12676D01*
X1336059Y12685D01*
X1336149Y12693D01*
X1336272Y11873D01*
X1336256D01*
X1336207Y11856D01*
X1336133Y11848D01*
X1336034Y11832D01*
X1335928Y11815D01*
X1335813Y11807D01*
X1335567Y11791D01*
X1335485D01*
X1335395Y11799D01*
X1335280Y11807D01*
X1335149Y11832D01*
X1335017Y11856D01*
X1334894Y11897D01*
X1334780Y11947D01*
X1334772Y11955D01*
X1334739Y11979D01*
X1334690Y12012D01*
X1334624Y12061D01*
X1334558Y12119D01*
X1334493Y12192D01*
X1334435Y12274D01*
X1334386Y12365D01*
X1334378Y12381D01*
X1334370Y12422D01*
X1334361Y12455D01*
X1334353Y12496D01*
X1334345Y12545D01*
X1334337Y12603D01*
X1334321Y12668D01*
X1334312Y12750D01*
X1334304Y12840D01*
X1334296Y12939D01*
X1334288Y13054D01*
Y13176D01*
X1334280Y13316D01*
Y13464D01*
Y16629D01*
X1333591D01*
Y17350D01*
X1334280D01*
Y18703D01*
X1335206Y19261D01*
Y17350D01*
D02*
G37*
G36*
X1409908Y17465D02*
X1409990D01*
X1410089Y17449D01*
X1410195Y17432D01*
X1410318Y17408D01*
X1410458Y17383D01*
X1410597Y17342D01*
X1410753Y17293D01*
X1410900Y17227D01*
X1411056Y17162D01*
X1411212Y17072D01*
X1411360Y16973D01*
X1411507Y16858D01*
X1411646Y16727D01*
X1411655Y16719D01*
X1411679Y16694D01*
X1411712Y16653D01*
X1411761Y16588D01*
X1411810Y16514D01*
X1411876Y16424D01*
X1411942Y16317D01*
X1412007Y16194D01*
X1412073Y16055D01*
X1412138Y15899D01*
X1412204Y15735D01*
X1412253Y15554D01*
X1412302Y15358D01*
X1412335Y15145D01*
X1412360Y14915D01*
X1412368Y14677D01*
Y14669D01*
Y14628D01*
Y14579D01*
X1412360Y14505D01*
Y14415D01*
X1412352Y14308D01*
X1412344Y14193D01*
X1412327Y14070D01*
X1412294Y13808D01*
X1412237Y13529D01*
X1412155Y13259D01*
X1412106Y13136D01*
X1412048Y13013D01*
Y13004D01*
X1412032Y12988D01*
X1412016Y12955D01*
X1411991Y12914D01*
X1411958Y12865D01*
X1411917Y12799D01*
X1411810Y12668D01*
X1411679Y12512D01*
X1411524Y12357D01*
X1411335Y12209D01*
X1411122Y12070D01*
X1411113D01*
X1411097Y12053D01*
X1411064Y12037D01*
X1411015Y12020D01*
X1410958Y11996D01*
X1410892Y11963D01*
X1410818Y11938D01*
X1410728Y11906D01*
X1410638Y11873D01*
X1410531Y11848D01*
X1410310Y11791D01*
X1410064Y11758D01*
X1409801Y11742D01*
X1409752D01*
X1409695Y11750D01*
X1409613D01*
X1409515Y11766D01*
X1409400Y11783D01*
X1409277Y11807D01*
X1409137Y11832D01*
X1408990Y11873D01*
X1408842Y11922D01*
X1408686Y11979D01*
X1408531Y12053D01*
X1408375Y12135D01*
X1408227Y12234D01*
X1408080Y12348D01*
X1407940Y12479D01*
X1407932Y12488D01*
X1407907Y12512D01*
X1407874Y12553D01*
X1407833Y12619D01*
X1407776Y12693D01*
X1407719Y12783D01*
X1407653Y12898D01*
X1407588Y13021D01*
X1407522Y13168D01*
X1407456Y13324D01*
X1407399Y13496D01*
X1407341Y13685D01*
X1407300Y13890D01*
X1407268Y14111D01*
X1407243Y14349D01*
X1407235Y14603D01*
Y14612D01*
Y14620D01*
Y14669D01*
X1407243Y14751D01*
X1407251Y14849D01*
X1407259Y14980D01*
X1407276Y15128D01*
X1407309Y15284D01*
X1407341Y15456D01*
X1407382Y15637D01*
X1407440Y15825D01*
X1407514Y16014D01*
X1407588Y16202D01*
X1407686Y16383D01*
X1407801Y16555D01*
X1407932Y16711D01*
X1408080Y16858D01*
X1408088Y16867D01*
X1408112Y16883D01*
X1408153Y16916D01*
X1408202Y16957D01*
X1408276Y16998D01*
X1408358Y17055D01*
X1408449Y17112D01*
X1408563Y17170D01*
X1408678Y17227D01*
X1408809Y17277D01*
X1408949Y17334D01*
X1409105Y17375D01*
X1409268Y17416D01*
X1409433Y17449D01*
X1409613Y17465D01*
X1409801Y17473D01*
X1409851D01*
X1409908Y17465D01*
D02*
G37*
G36*
X1353492Y17465D02*
X1353574D01*
X1353673Y17449D01*
X1353779Y17432D01*
X1353902Y17408D01*
X1354041Y17383D01*
X1354181Y17342D01*
X1354337Y17293D01*
X1354484Y17227D01*
X1354640Y17162D01*
X1354796Y17072D01*
X1354943Y16973D01*
X1355091Y16858D01*
X1355231Y16727D01*
X1355239Y16719D01*
X1355263Y16694D01*
X1355296Y16653D01*
X1355345Y16588D01*
X1355394Y16514D01*
X1355460Y16424D01*
X1355526Y16317D01*
X1355591Y16194D01*
X1355657Y16055D01*
X1355723Y15899D01*
X1355788Y15735D01*
X1355837Y15554D01*
X1355886Y15358D01*
X1355919Y15145D01*
X1355944Y14915D01*
X1355952Y14677D01*
Y14669D01*
Y14628D01*
Y14579D01*
X1355944Y14505D01*
Y14415D01*
X1355936Y14308D01*
X1355927Y14193D01*
X1355911Y14070D01*
X1355878Y13808D01*
X1355821Y13529D01*
X1355739Y13259D01*
X1355690Y13136D01*
X1355632Y13013D01*
Y13004D01*
X1355616Y12988D01*
X1355599Y12955D01*
X1355575Y12914D01*
X1355542Y12865D01*
X1355501Y12799D01*
X1355394Y12668D01*
X1355263Y12512D01*
X1355107Y12357D01*
X1354919Y12209D01*
X1354706Y12070D01*
X1354698D01*
X1354681Y12053D01*
X1354648Y12037D01*
X1354599Y12020D01*
X1354542Y11996D01*
X1354476Y11963D01*
X1354402Y11938D01*
X1354312Y11906D01*
X1354222Y11873D01*
X1354115Y11848D01*
X1353894Y11791D01*
X1353648Y11758D01*
X1353386Y11742D01*
X1353336D01*
X1353279Y11750D01*
X1353197D01*
X1353098Y11766D01*
X1352984Y11783D01*
X1352861Y11807D01*
X1352721Y11832D01*
X1352574Y11873D01*
X1352426Y11922D01*
X1352270Y11979D01*
X1352114Y12053D01*
X1351959Y12135D01*
X1351811Y12234D01*
X1351663Y12348D01*
X1351524Y12479D01*
X1351516Y12488D01*
X1351491Y12512D01*
X1351458Y12553D01*
X1351418Y12619D01*
X1351360Y12693D01*
X1351303Y12783D01*
X1351237Y12898D01*
X1351171Y13021D01*
X1351106Y13168D01*
X1351040Y13324D01*
X1350983Y13496D01*
X1350926Y13685D01*
X1350885Y13890D01*
X1350852Y14111D01*
X1350827Y14349D01*
X1350819Y14603D01*
Y14612D01*
Y14620D01*
Y14669D01*
X1350827Y14751D01*
X1350835Y14849D01*
X1350844Y14980D01*
X1350860Y15128D01*
X1350893Y15284D01*
X1350926Y15456D01*
X1350966Y15637D01*
X1351024Y15825D01*
X1351098Y16014D01*
X1351171Y16202D01*
X1351270Y16383D01*
X1351385Y16555D01*
X1351516Y16711D01*
X1351663Y16858D01*
X1351672Y16867D01*
X1351696Y16883D01*
X1351737Y16916D01*
X1351787Y16957D01*
X1351860Y16998D01*
X1351942Y17055D01*
X1352032Y17112D01*
X1352147Y17170D01*
X1352262Y17227D01*
X1352393Y17277D01*
X1352533Y17334D01*
X1352689Y17375D01*
X1352853Y17416D01*
X1353016Y17449D01*
X1353197Y17465D01*
X1353386Y17473D01*
X1353435D01*
X1353492Y17465D01*
D02*
G37*
G36*
X1304833Y19556D02*
X1304932Y19548D01*
X1305038Y19540D01*
X1305153Y19523D01*
X1305284Y19499D01*
X1305432Y19474D01*
X1305579Y19441D01*
X1305735Y19400D01*
X1305899Y19351D01*
X1306063Y19294D01*
X1306227Y19228D01*
X1306383Y19154D01*
X1306547Y19064D01*
X1306555Y19056D01*
X1306588Y19039D01*
X1306629Y19015D01*
X1306686Y18974D01*
X1306760Y18925D01*
X1306834Y18859D01*
X1306924Y18785D01*
X1307023Y18703D01*
X1307129Y18605D01*
X1307236Y18498D01*
X1307343Y18383D01*
X1307449Y18260D01*
X1307547Y18129D01*
X1307654Y17982D01*
X1307744Y17826D01*
X1307835Y17662D01*
X1307843Y17654D01*
X1307851Y17621D01*
X1307876Y17572D01*
X1307900Y17506D01*
X1307941Y17424D01*
X1307974Y17318D01*
X1308015Y17203D01*
X1308056Y17072D01*
X1308097Y16932D01*
X1308138Y16776D01*
X1308179Y16604D01*
X1308212Y16432D01*
X1308236Y16243D01*
X1308261Y16047D01*
X1308269Y15850D01*
X1308277Y15637D01*
Y15620D01*
Y15587D01*
Y15522D01*
X1308269Y15440D01*
X1308261Y15341D01*
X1308253Y15226D01*
X1308236Y15095D01*
X1308220Y14948D01*
X1308195Y14792D01*
X1308162Y14628D01*
X1308130Y14456D01*
X1308080Y14284D01*
X1308023Y14103D01*
X1307966Y13931D01*
X1307892Y13750D01*
X1307810Y13578D01*
X1307802Y13570D01*
X1307785Y13537D01*
X1307761Y13488D01*
X1307728Y13431D01*
X1307679Y13357D01*
X1307621Y13267D01*
X1307547Y13168D01*
X1307474Y13062D01*
X1307384Y12955D01*
X1307285Y12840D01*
X1307170Y12725D01*
X1307055Y12611D01*
X1306933Y12504D01*
X1306793Y12398D01*
X1306645Y12291D01*
X1306490Y12201D01*
X1306481Y12192D01*
X1306449Y12184D01*
X1306408Y12160D01*
X1306342Y12127D01*
X1306260Y12094D01*
X1306170Y12053D01*
X1306063Y12012D01*
X1305940Y11971D01*
X1305809Y11930D01*
X1305670Y11889D01*
X1305514Y11848D01*
X1305358Y11815D01*
X1305014Y11758D01*
X1304833Y11750D01*
X1304653Y11742D01*
X1304546D01*
X1304473Y11750D01*
X1304382Y11758D01*
X1304268Y11766D01*
X1304153Y11783D01*
X1304013Y11807D01*
X1303874Y11832D01*
X1303718Y11864D01*
X1303562Y11906D01*
X1303398Y11955D01*
X1303234Y12012D01*
X1303070Y12086D01*
X1302906Y12160D01*
X1302742Y12250D01*
X1302734Y12258D01*
X1302709Y12274D01*
X1302660Y12307D01*
X1302603Y12348D01*
X1302537Y12398D01*
X1302455Y12463D01*
X1302365Y12537D01*
X1302267Y12619D01*
X1302160Y12717D01*
X1302062Y12824D01*
X1301955Y12939D01*
X1301849Y13062D01*
X1301742Y13201D01*
X1301643Y13340D01*
X1301553Y13496D01*
X1301463Y13660D01*
X1301455Y13668D01*
X1301447Y13701D01*
X1301422Y13750D01*
X1301398Y13816D01*
X1301365Y13898D01*
X1301332Y13996D01*
X1301291Y14103D01*
X1301250Y14234D01*
X1301209Y14366D01*
X1301168Y14513D01*
X1301135Y14669D01*
X1301102Y14833D01*
X1301053Y15177D01*
X1301045Y15366D01*
X1301037Y15546D01*
Y15554D01*
Y15571D01*
Y15596D01*
Y15628D01*
X1301045Y15677D01*
Y15727D01*
X1301053Y15858D01*
X1301070Y16014D01*
X1301094Y16202D01*
X1301119Y16399D01*
X1301160Y16621D01*
X1301217Y16858D01*
X1301283Y17096D01*
X1301365Y17342D01*
X1301463Y17588D01*
X1301578Y17834D01*
X1301709Y18064D01*
X1301865Y18293D01*
X1302045Y18498D01*
X1302054Y18507D01*
X1302094Y18548D01*
X1302152Y18597D01*
X1302226Y18662D01*
X1302332Y18744D01*
X1302447Y18835D01*
X1302586Y18933D01*
X1302750Y19031D01*
X1302931Y19130D01*
X1303128Y19228D01*
X1303341Y19318D01*
X1303579Y19400D01*
X1303825Y19466D01*
X1304087Y19515D01*
X1304366Y19556D01*
X1304661Y19564D01*
X1304760D01*
X1304833Y19556D01*
D02*
G37*
G36*
X1245170Y16735D02*
X1245178Y16744D01*
X1245195Y16768D01*
X1245228Y16801D01*
X1245277Y16850D01*
X1245334Y16907D01*
X1245400Y16973D01*
X1245482Y17039D01*
X1245580Y17104D01*
X1245679Y17170D01*
X1245793Y17244D01*
X1245916Y17301D01*
X1246047Y17358D01*
X1246195Y17408D01*
X1246343Y17440D01*
X1246507Y17465D01*
X1246671Y17473D01*
X1246761D01*
X1246802Y17465D01*
X1246859D01*
X1246982Y17449D01*
X1247130Y17424D01*
X1247294Y17383D01*
X1247458Y17334D01*
X1247630Y17268D01*
X1247638D01*
X1247647Y17260D01*
X1247671Y17244D01*
X1247704Y17227D01*
X1247786Y17186D01*
X1247892Y17121D01*
X1248007Y17039D01*
X1248130Y16940D01*
X1248253Y16826D01*
X1248368Y16694D01*
X1248384Y16678D01*
X1248417Y16629D01*
X1248466Y16547D01*
X1248540Y16448D01*
X1248614Y16317D01*
X1248688Y16161D01*
X1248762Y15989D01*
X1248827Y15800D01*
Y15792D01*
X1248835Y15776D01*
X1248844Y15751D01*
X1248852Y15710D01*
X1248868Y15661D01*
X1248885Y15604D01*
X1248901Y15538D01*
X1248917Y15464D01*
X1248942Y15300D01*
X1248975Y15112D01*
X1248991Y14907D01*
X1249000Y14685D01*
Y14669D01*
Y14620D01*
X1248991Y14554D01*
Y14456D01*
X1248975Y14333D01*
X1248958Y14201D01*
X1248942Y14046D01*
X1248909Y13882D01*
X1248876Y13710D01*
X1248827Y13537D01*
X1248770Y13349D01*
X1248704Y13168D01*
X1248622Y12988D01*
X1248524Y12816D01*
X1248417Y12660D01*
X1248294Y12504D01*
X1248286Y12496D01*
X1248262Y12471D01*
X1248221Y12430D01*
X1248171Y12389D01*
X1248106Y12324D01*
X1248024Y12266D01*
X1247925Y12192D01*
X1247827Y12127D01*
X1247704Y12053D01*
X1247581Y11979D01*
X1247441Y11922D01*
X1247294Y11864D01*
X1247138Y11815D01*
X1246974Y11774D01*
X1246802Y11750D01*
X1246622Y11742D01*
X1246581D01*
X1246531Y11750D01*
X1246466Y11758D01*
X1246384Y11766D01*
X1246285Y11783D01*
X1246179Y11807D01*
X1246072Y11840D01*
X1245949Y11881D01*
X1245826Y11938D01*
X1245703Y12004D01*
X1245572Y12078D01*
X1245449Y12176D01*
X1245326Y12283D01*
X1245211Y12406D01*
X1245105Y12545D01*
Y11864D01*
X1244244D01*
Y19433D01*
X1245170D01*
Y16735D01*
D02*
G37*
G36*
X1231911Y17465D02*
X1231985D01*
X1232083Y17449D01*
X1232189Y17432D01*
X1232312Y17408D01*
X1232444Y17383D01*
X1232583Y17342D01*
X1232722Y17293D01*
X1232878Y17227D01*
X1233026Y17154D01*
X1233173Y17072D01*
X1233321Y16965D01*
X1233469Y16850D01*
X1233600Y16719D01*
X1233608Y16711D01*
X1233633Y16686D01*
X1233665Y16645D01*
X1233706Y16579D01*
X1233764Y16506D01*
X1233821Y16416D01*
X1233887Y16301D01*
X1233953Y16178D01*
X1234010Y16038D01*
X1234076Y15882D01*
X1234133Y15710D01*
X1234190Y15522D01*
X1234231Y15317D01*
X1234264Y15095D01*
X1234289Y14866D01*
X1234297Y14620D01*
Y14603D01*
Y14562D01*
Y14480D01*
X1234289Y14374D01*
X1230197D01*
Y14366D01*
Y14333D01*
X1230205Y14284D01*
X1230213Y14226D01*
X1230221Y14144D01*
X1230238Y14062D01*
X1230254Y13964D01*
X1230279Y13857D01*
X1230344Y13636D01*
X1230435Y13398D01*
X1230492Y13291D01*
X1230550Y13176D01*
X1230623Y13078D01*
X1230705Y12980D01*
X1230713Y12971D01*
X1230730Y12963D01*
X1230754Y12939D01*
X1230787Y12906D01*
X1230836Y12873D01*
X1230886Y12832D01*
X1230951Y12783D01*
X1231025Y12742D01*
X1231189Y12652D01*
X1231386Y12578D01*
X1231493Y12545D01*
X1231607Y12529D01*
X1231730Y12512D01*
X1231853Y12504D01*
X1231903D01*
X1231935Y12512D01*
X1232034Y12520D01*
X1232157Y12537D01*
X1232288Y12570D01*
X1232436Y12619D01*
X1232583Y12676D01*
X1232722Y12766D01*
X1232731D01*
X1232739Y12783D01*
X1232780Y12816D01*
X1232845Y12881D01*
X1232928Y12980D01*
X1233018Y13094D01*
X1233116Y13250D01*
X1233214Y13431D01*
X1233296Y13636D01*
X1234264Y13513D01*
Y13505D01*
X1234256Y13472D01*
X1234239Y13431D01*
X1234215Y13373D01*
X1234190Y13299D01*
X1234157Y13217D01*
X1234116Y13127D01*
X1234076Y13029D01*
X1233961Y12824D01*
X1233813Y12603D01*
X1233723Y12496D01*
X1233633Y12389D01*
X1233534Y12291D01*
X1233420Y12201D01*
X1233411Y12192D01*
X1233395Y12184D01*
X1233354Y12160D01*
X1233313Y12127D01*
X1233247Y12094D01*
X1233173Y12053D01*
X1233092Y12012D01*
X1232993Y11971D01*
X1232887Y11930D01*
X1232763Y11889D01*
X1232640Y11848D01*
X1232501Y11815D01*
X1232353Y11783D01*
X1232198Y11758D01*
X1232026Y11750D01*
X1231853Y11742D01*
X1231804D01*
X1231738Y11750D01*
X1231656D01*
X1231550Y11766D01*
X1231435Y11783D01*
X1231304Y11807D01*
X1231164Y11832D01*
X1231017Y11873D01*
X1230861Y11922D01*
X1230697Y11979D01*
X1230541Y12053D01*
X1230377Y12135D01*
X1230230Y12234D01*
X1230082Y12348D01*
X1229943Y12479D01*
X1229935Y12488D01*
X1229910Y12512D01*
X1229877Y12553D01*
X1229836Y12619D01*
X1229779Y12693D01*
X1229721Y12783D01*
X1229656Y12889D01*
X1229598Y13013D01*
X1229533Y13152D01*
X1229467Y13308D01*
X1229410Y13480D01*
X1229352Y13668D01*
X1229311Y13865D01*
X1229278Y14078D01*
X1229254Y14308D01*
X1229246Y14554D01*
Y14570D01*
Y14612D01*
X1229254Y14685D01*
Y14784D01*
X1229270Y14898D01*
X1229287Y15030D01*
X1229303Y15186D01*
X1229336Y15341D01*
X1229369Y15514D01*
X1229418Y15686D01*
X1229475Y15866D01*
X1229541Y16047D01*
X1229623Y16219D01*
X1229721Y16391D01*
X1229828Y16555D01*
X1229951Y16702D01*
X1229959Y16711D01*
X1229984Y16735D01*
X1230025Y16776D01*
X1230082Y16826D01*
X1230148Y16883D01*
X1230238Y16949D01*
X1230336Y17014D01*
X1230451Y17088D01*
X1230574Y17162D01*
X1230713Y17227D01*
X1230869Y17293D01*
X1231033Y17350D01*
X1231214Y17400D01*
X1231394Y17440D01*
X1231599Y17465D01*
X1231804Y17473D01*
X1231853D01*
X1231911Y17465D01*
D02*
G37*
G36*
X1222251Y16735D02*
X1222259Y16744D01*
X1222276Y16768D01*
X1222309Y16801D01*
X1222358Y16850D01*
X1222415Y16907D01*
X1222481Y16973D01*
X1222563Y17039D01*
X1222661Y17104D01*
X1222760Y17170D01*
X1222874Y17244D01*
X1222997Y17301D01*
X1223129Y17358D01*
X1223276Y17408D01*
X1223424Y17440D01*
X1223588Y17465D01*
X1223752Y17473D01*
X1223842D01*
X1223883Y17465D01*
X1223940D01*
X1224063Y17449D01*
X1224211Y17424D01*
X1224375Y17383D01*
X1224539Y17334D01*
X1224711Y17268D01*
X1224719D01*
X1224728Y17260D01*
X1224752Y17244D01*
X1224785Y17227D01*
X1224867Y17186D01*
X1224973Y17121D01*
X1225088Y17039D01*
X1225211Y16940D01*
X1225334Y16826D01*
X1225449Y16694D01*
X1225465Y16678D01*
X1225498Y16629D01*
X1225548Y16547D01*
X1225621Y16448D01*
X1225695Y16317D01*
X1225769Y16161D01*
X1225843Y15989D01*
X1225908Y15800D01*
Y15792D01*
X1225916Y15776D01*
X1225925Y15751D01*
X1225933Y15710D01*
X1225949Y15661D01*
X1225966Y15604D01*
X1225982Y15538D01*
X1225998Y15464D01*
X1226023Y15300D01*
X1226056Y15112D01*
X1226072Y14907D01*
X1226081Y14685D01*
Y14669D01*
Y14620D01*
X1226072Y14554D01*
Y14456D01*
X1226056Y14333D01*
X1226040Y14201D01*
X1226023Y14046D01*
X1225990Y13882D01*
X1225957Y13710D01*
X1225908Y13537D01*
X1225851Y13349D01*
X1225785Y13168D01*
X1225703Y12988D01*
X1225605Y12816D01*
X1225498Y12660D01*
X1225375Y12504D01*
X1225367Y12496D01*
X1225342Y12471D01*
X1225301Y12430D01*
X1225252Y12389D01*
X1225187Y12324D01*
X1225105Y12266D01*
X1225006Y12192D01*
X1224908Y12127D01*
X1224785Y12053D01*
X1224662Y11979D01*
X1224522Y11922D01*
X1224375Y11864D01*
X1224219Y11815D01*
X1224055Y11774D01*
X1223883Y11750D01*
X1223703Y11742D01*
X1223662D01*
X1223612Y11750D01*
X1223547Y11758D01*
X1223465Y11766D01*
X1223366Y11783D01*
X1223260Y11807D01*
X1223153Y11840D01*
X1223030Y11881D01*
X1222907Y11938D01*
X1222784Y12004D01*
X1222653Y12078D01*
X1222530Y12176D01*
X1222407Y12283D01*
X1222292Y12406D01*
X1222186Y12545D01*
Y11864D01*
X1221325D01*
Y19433D01*
X1222251D01*
Y16735D01*
D02*
G37*
G36*
X1209000Y17465D02*
X1209074D01*
X1209172Y17449D01*
X1209279Y17432D01*
X1209402Y17408D01*
X1209533Y17383D01*
X1209672Y17342D01*
X1209812Y17293D01*
X1209968Y17227D01*
X1210115Y17154D01*
X1210263Y17072D01*
X1210410Y16965D01*
X1210558Y16850D01*
X1210689Y16719D01*
X1210697Y16711D01*
X1210722Y16686D01*
X1210755Y16645D01*
X1210796Y16579D01*
X1210853Y16506D01*
X1210911Y16416D01*
X1210976Y16301D01*
X1211042Y16178D01*
X1211099Y16038D01*
X1211165Y15882D01*
X1211222Y15710D01*
X1211279Y15522D01*
X1211320Y15317D01*
X1211353Y15095D01*
X1211378Y14866D01*
X1211386Y14620D01*
Y14603D01*
Y14562D01*
Y14480D01*
X1211378Y14374D01*
X1207286D01*
Y14366D01*
Y14333D01*
X1207294Y14284D01*
X1207302Y14226D01*
X1207311Y14144D01*
X1207327Y14062D01*
X1207343Y13964D01*
X1207368Y13857D01*
X1207434Y13636D01*
X1207524Y13398D01*
X1207581Y13291D01*
X1207639Y13176D01*
X1207712Y13078D01*
X1207794Y12980D01*
X1207803Y12971D01*
X1207819Y12963D01*
X1207844Y12939D01*
X1207876Y12906D01*
X1207926Y12873D01*
X1207975Y12832D01*
X1208041Y12783D01*
X1208114Y12742D01*
X1208278Y12652D01*
X1208475Y12578D01*
X1208582Y12545D01*
X1208696Y12529D01*
X1208819Y12512D01*
X1208943Y12504D01*
X1208992D01*
X1209025Y12512D01*
X1209123Y12520D01*
X1209246Y12537D01*
X1209377Y12570D01*
X1209525Y12619D01*
X1209672Y12676D01*
X1209812Y12766D01*
X1209820D01*
X1209828Y12783D01*
X1209869Y12816D01*
X1209935Y12881D01*
X1210017Y12980D01*
X1210107Y13094D01*
X1210205Y13250D01*
X1210304Y13431D01*
X1210386Y13636D01*
X1211353Y13513D01*
Y13505D01*
X1211345Y13472D01*
X1211329Y13431D01*
X1211304Y13373D01*
X1211279Y13299D01*
X1211247Y13217D01*
X1211206Y13127D01*
X1211165Y13029D01*
X1211050Y12824D01*
X1210902Y12603D01*
X1210812Y12496D01*
X1210722Y12389D01*
X1210623Y12291D01*
X1210509Y12201D01*
X1210501Y12192D01*
X1210484Y12184D01*
X1210443Y12160D01*
X1210402Y12127D01*
X1210336Y12094D01*
X1210263Y12053D01*
X1210181Y12012D01*
X1210082Y11971D01*
X1209976Y11930D01*
X1209853Y11889D01*
X1209730Y11848D01*
X1209590Y11815D01*
X1209443Y11783D01*
X1209287Y11758D01*
X1209115Y11750D01*
X1208943Y11742D01*
X1208893D01*
X1208828Y11750D01*
X1208746D01*
X1208639Y11766D01*
X1208524Y11783D01*
X1208393Y11807D01*
X1208254Y11832D01*
X1208106Y11873D01*
X1207950Y11922D01*
X1207786Y11979D01*
X1207631Y12053D01*
X1207467Y12135D01*
X1207319Y12234D01*
X1207171Y12348D01*
X1207032Y12479D01*
X1207024Y12488D01*
X1206999Y12512D01*
X1206966Y12553D01*
X1206925Y12619D01*
X1206868Y12693D01*
X1206810Y12783D01*
X1206745Y12889D01*
X1206688Y13013D01*
X1206622Y13152D01*
X1206556Y13308D01*
X1206499Y13480D01*
X1206441Y13668D01*
X1206400Y13865D01*
X1206368Y14078D01*
X1206343Y14308D01*
X1206335Y14554D01*
Y14570D01*
Y14612D01*
X1206343Y14685D01*
Y14784D01*
X1206359Y14898D01*
X1206376Y15030D01*
X1206392Y15186D01*
X1206425Y15341D01*
X1206458Y15514D01*
X1206507Y15686D01*
X1206565Y15866D01*
X1206630Y16047D01*
X1206712Y16219D01*
X1206810Y16391D01*
X1206917Y16555D01*
X1207040Y16702D01*
X1207048Y16711D01*
X1207073Y16735D01*
X1207114Y16776D01*
X1207171Y16826D01*
X1207237Y16883D01*
X1207327Y16949D01*
X1207425Y17014D01*
X1207540Y17088D01*
X1207663Y17162D01*
X1207803Y17227D01*
X1207959Y17293D01*
X1208123Y17350D01*
X1208303Y17400D01*
X1208483Y17440D01*
X1208688Y17465D01*
X1208893Y17473D01*
X1208943D01*
X1209000Y17465D01*
D02*
G37*
G36*
X1166688D02*
X1166762D01*
X1166860Y17449D01*
X1166967Y17432D01*
X1167090Y17408D01*
X1167221Y17383D01*
X1167360Y17342D01*
X1167500Y17293D01*
X1167655Y17227D01*
X1167803Y17154D01*
X1167951Y17072D01*
X1168098Y16965D01*
X1168246Y16850D01*
X1168377Y16719D01*
X1168385Y16711D01*
X1168410Y16686D01*
X1168443Y16645D01*
X1168484Y16579D01*
X1168541Y16506D01*
X1168598Y16416D01*
X1168664Y16301D01*
X1168730Y16178D01*
X1168787Y16038D01*
X1168853Y15882D01*
X1168910Y15710D01*
X1168968Y15522D01*
X1169009Y15317D01*
X1169041Y15095D01*
X1169066Y14866D01*
X1169074Y14620D01*
Y14603D01*
Y14562D01*
Y14480D01*
X1169066Y14374D01*
X1164974D01*
Y14366D01*
Y14333D01*
X1164982Y14284D01*
X1164991Y14226D01*
X1164999Y14144D01*
X1165015Y14062D01*
X1165032Y13964D01*
X1165056Y13857D01*
X1165122Y13636D01*
X1165212Y13398D01*
X1165269Y13291D01*
X1165327Y13176D01*
X1165401Y13078D01*
X1165483Y12980D01*
X1165491Y12971D01*
X1165507Y12963D01*
X1165532Y12939D01*
X1165565Y12906D01*
X1165614Y12873D01*
X1165663Y12832D01*
X1165728Y12783D01*
X1165802Y12742D01*
X1165966Y12652D01*
X1166163Y12578D01*
X1166270Y12545D01*
X1166385Y12529D01*
X1166508Y12512D01*
X1166630Y12504D01*
X1166680D01*
X1166712Y12512D01*
X1166811Y12520D01*
X1166934Y12537D01*
X1167065Y12570D01*
X1167213Y12619D01*
X1167360Y12676D01*
X1167500Y12766D01*
X1167508D01*
X1167516Y12783D01*
X1167557Y12816D01*
X1167623Y12881D01*
X1167705Y12980D01*
X1167795Y13094D01*
X1167893Y13250D01*
X1167992Y13431D01*
X1168074Y13636D01*
X1169041Y13513D01*
Y13505D01*
X1169033Y13472D01*
X1169017Y13431D01*
X1168992Y13373D01*
X1168968Y13299D01*
X1168935Y13217D01*
X1168894Y13127D01*
X1168853Y13029D01*
X1168738Y12824D01*
X1168590Y12603D01*
X1168500Y12496D01*
X1168410Y12389D01*
X1168312Y12291D01*
X1168197Y12201D01*
X1168188Y12192D01*
X1168172Y12184D01*
X1168131Y12160D01*
X1168090Y12127D01*
X1168025Y12094D01*
X1167951Y12053D01*
X1167869Y12012D01*
X1167770Y11971D01*
X1167664Y11930D01*
X1167541Y11889D01*
X1167418Y11848D01*
X1167278Y11815D01*
X1167131Y11783D01*
X1166975Y11758D01*
X1166803Y11750D01*
X1166630Y11742D01*
X1166581D01*
X1166516Y11750D01*
X1166434D01*
X1166327Y11766D01*
X1166212Y11783D01*
X1166081Y11807D01*
X1165942Y11832D01*
X1165794Y11873D01*
X1165638Y11922D01*
X1165474Y11979D01*
X1165318Y12053D01*
X1165154Y12135D01*
X1165007Y12234D01*
X1164859Y12348D01*
X1164720Y12479D01*
X1164712Y12488D01*
X1164687Y12512D01*
X1164654Y12553D01*
X1164613Y12619D01*
X1164556Y12693D01*
X1164499Y12783D01*
X1164433Y12889D01*
X1164375Y13013D01*
X1164310Y13152D01*
X1164244Y13308D01*
X1164187Y13480D01*
X1164130Y13668D01*
X1164089Y13865D01*
X1164056Y14078D01*
X1164031Y14308D01*
X1164023Y14554D01*
Y14570D01*
Y14612D01*
X1164031Y14685D01*
Y14784D01*
X1164048Y14898D01*
X1164064Y15030D01*
X1164080Y15186D01*
X1164113Y15341D01*
X1164146Y15514D01*
X1164195Y15686D01*
X1164252Y15866D01*
X1164318Y16047D01*
X1164400Y16219D01*
X1164499Y16391D01*
X1164605Y16555D01*
X1164728Y16702D01*
X1164736Y16711D01*
X1164761Y16735D01*
X1164802Y16776D01*
X1164859Y16826D01*
X1164925Y16883D01*
X1165015Y16949D01*
X1165114Y17014D01*
X1165228Y17088D01*
X1165351Y17162D01*
X1165491Y17227D01*
X1165646Y17293D01*
X1165810Y17350D01*
X1165991Y17400D01*
X1166171Y17440D01*
X1166376Y17465D01*
X1166581Y17473D01*
X1166630D01*
X1166688Y17465D01*
D02*
G37*
G36*
X1141416Y17465D02*
X1141489D01*
X1141588Y17449D01*
X1141694Y17432D01*
X1141817Y17408D01*
X1141949Y17383D01*
X1142088Y17342D01*
X1142227Y17293D01*
X1142383Y17227D01*
X1142531Y17154D01*
X1142678Y17072D01*
X1142826Y16965D01*
X1142974Y16850D01*
X1143105Y16719D01*
X1143113Y16711D01*
X1143137Y16686D01*
X1143170Y16645D01*
X1143211Y16579D01*
X1143269Y16506D01*
X1143326Y16416D01*
X1143392Y16301D01*
X1143457Y16178D01*
X1143515Y16038D01*
X1143580Y15882D01*
X1143638Y15710D01*
X1143695Y15522D01*
X1143736Y15317D01*
X1143769Y15095D01*
X1143793Y14866D01*
X1143802Y14620D01*
Y14603D01*
Y14562D01*
Y14480D01*
X1143793Y14374D01*
X1139702D01*
Y14366D01*
Y14333D01*
X1139710Y14284D01*
X1139718Y14226D01*
X1139726Y14144D01*
X1139743Y14062D01*
X1139759Y13964D01*
X1139784Y13857D01*
X1139849Y13636D01*
X1139939Y13398D01*
X1139997Y13291D01*
X1140054Y13176D01*
X1140128Y13078D01*
X1140210Y12980D01*
X1140218Y12971D01*
X1140235Y12963D01*
X1140259Y12939D01*
X1140292Y12906D01*
X1140341Y12873D01*
X1140390Y12832D01*
X1140456Y12783D01*
X1140530Y12742D01*
X1140694Y12652D01*
X1140891Y12578D01*
X1140997Y12545D01*
X1141112Y12529D01*
X1141235Y12512D01*
X1141358Y12504D01*
X1141407D01*
X1141440Y12512D01*
X1141539Y12520D01*
X1141661Y12537D01*
X1141793Y12570D01*
X1141940Y12619D01*
X1142088Y12676D01*
X1142227Y12766D01*
X1142235D01*
X1142244Y12783D01*
X1142285Y12816D01*
X1142350Y12881D01*
X1142432Y12980D01*
X1142523Y13094D01*
X1142621Y13250D01*
X1142719Y13431D01*
X1142801Y13636D01*
X1143769Y13513D01*
Y13505D01*
X1143761Y13472D01*
X1143744Y13431D01*
X1143720Y13373D01*
X1143695Y13299D01*
X1143662Y13217D01*
X1143621Y13127D01*
X1143580Y13029D01*
X1143466Y12824D01*
X1143318Y12603D01*
X1143228Y12496D01*
X1143137Y12389D01*
X1143039Y12291D01*
X1142924Y12201D01*
X1142916Y12192D01*
X1142900Y12184D01*
X1142859Y12160D01*
X1142818Y12127D01*
X1142752Y12094D01*
X1142678Y12053D01*
X1142596Y12012D01*
X1142498Y11971D01*
X1142391Y11930D01*
X1142268Y11889D01*
X1142145Y11848D01*
X1142006Y11815D01*
X1141858Y11783D01*
X1141702Y11758D01*
X1141530Y11750D01*
X1141358Y11742D01*
X1141309D01*
X1141243Y11750D01*
X1141161D01*
X1141055Y11766D01*
X1140940Y11783D01*
X1140809Y11807D01*
X1140669Y11832D01*
X1140522Y11873D01*
X1140366Y11922D01*
X1140202Y11979D01*
X1140046Y12053D01*
X1139882Y12135D01*
X1139734Y12234D01*
X1139587Y12348D01*
X1139447Y12479D01*
X1139439Y12488D01*
X1139415Y12512D01*
X1139382Y12553D01*
X1139341Y12619D01*
X1139283Y12693D01*
X1139226Y12783D01*
X1139161Y12889D01*
X1139103Y13013D01*
X1139038Y13152D01*
X1138972Y13308D01*
X1138914Y13480D01*
X1138857Y13668D01*
X1138816Y13865D01*
X1138783Y14078D01*
X1138759Y14308D01*
X1138750Y14554D01*
Y14570D01*
Y14612D01*
X1138759Y14685D01*
Y14784D01*
X1138775Y14898D01*
X1138791Y15030D01*
X1138808Y15186D01*
X1138841Y15341D01*
X1138873Y15514D01*
X1138923Y15686D01*
X1138980Y15866D01*
X1139046Y16047D01*
X1139128Y16219D01*
X1139226Y16391D01*
X1139333Y16555D01*
X1139456Y16702D01*
X1139464Y16711D01*
X1139489Y16735D01*
X1139530Y16776D01*
X1139587Y16826D01*
X1139653Y16883D01*
X1139743Y16949D01*
X1139841Y17014D01*
X1139956Y17088D01*
X1140079Y17162D01*
X1140218Y17227D01*
X1140374Y17293D01*
X1140538Y17350D01*
X1140718Y17400D01*
X1140899Y17440D01*
X1141104Y17465D01*
X1141309Y17473D01*
X1141358D01*
X1141416Y17465D01*
D02*
G37*
G36*
X1181735Y19548D02*
X1181800Y19540D01*
X1181874Y19532D01*
X1181964Y19515D01*
X1182055Y19499D01*
X1182260Y19441D01*
X1182358Y19400D01*
X1182473Y19359D01*
X1182571Y19302D01*
X1182678Y19236D01*
X1182776Y19162D01*
X1182875Y19081D01*
X1182883Y19072D01*
X1182899Y19056D01*
X1182924Y19031D01*
X1182957Y18999D01*
X1182990Y18949D01*
X1183031Y18892D01*
X1183080Y18835D01*
X1183129Y18761D01*
X1183219Y18588D01*
X1183301Y18400D01*
X1183326Y18285D01*
X1183350Y18179D01*
X1183367Y18056D01*
X1183375Y17932D01*
Y17924D01*
Y17883D01*
X1183367Y17826D01*
X1183350Y17752D01*
X1183334Y17662D01*
X1183301Y17555D01*
X1183252Y17432D01*
X1183195Y17301D01*
X1183121Y17162D01*
X1183022Y17014D01*
X1182907Y16858D01*
X1182768Y16702D01*
X1182604Y16547D01*
X1182407Y16391D01*
X1182186Y16235D01*
X1182063Y16161D01*
X1181932Y16087D01*
X1183301Y14366D01*
Y14374D01*
X1183309Y14390D01*
X1183326Y14415D01*
X1183342Y14447D01*
X1183358Y14489D01*
X1183383Y14546D01*
X1183432Y14669D01*
X1183490Y14825D01*
X1183547Y15005D01*
X1183613Y15210D01*
X1183662Y15423D01*
X1184630Y15218D01*
Y15210D01*
X1184621Y15177D01*
X1184605Y15120D01*
X1184580Y15054D01*
X1184556Y14972D01*
X1184523Y14874D01*
X1184490Y14759D01*
X1184449Y14644D01*
X1184351Y14390D01*
X1184236Y14111D01*
X1184105Y13849D01*
X1184031Y13718D01*
X1183949Y13595D01*
X1183957Y13587D01*
X1183974Y13562D01*
X1183998Y13529D01*
X1184039Y13480D01*
X1184088Y13422D01*
X1184154Y13349D01*
X1184219Y13275D01*
X1184293Y13185D01*
X1184474Y13004D01*
X1184671Y12808D01*
X1184900Y12611D01*
X1185138Y12430D01*
X1184515Y11692D01*
X1184507Y11700D01*
X1184490Y11709D01*
X1184457Y11733D01*
X1184416Y11758D01*
X1184367Y11799D01*
X1184301Y11840D01*
X1184236Y11897D01*
X1184154Y11955D01*
X1184072Y12028D01*
X1183982Y12102D01*
X1183883Y12192D01*
X1183785Y12291D01*
X1183678Y12389D01*
X1183572Y12504D01*
X1183465Y12619D01*
X1183350Y12750D01*
X1183342Y12742D01*
X1183326Y12725D01*
X1183301Y12701D01*
X1183268Y12668D01*
X1183227Y12627D01*
X1183178Y12578D01*
X1183055Y12463D01*
X1182907Y12340D01*
X1182735Y12217D01*
X1182547Y12094D01*
X1182350Y11987D01*
X1182342D01*
X1182325Y11979D01*
X1182292Y11963D01*
X1182260Y11947D01*
X1182202Y11930D01*
X1182145Y11914D01*
X1182079Y11889D01*
X1181997Y11864D01*
X1181825Y11823D01*
X1181628Y11783D01*
X1181407Y11750D01*
X1181177Y11742D01*
X1181128D01*
X1181063Y11750D01*
X1180989Y11758D01*
X1180890Y11766D01*
X1180776Y11783D01*
X1180644Y11807D01*
X1180513Y11840D01*
X1180365Y11881D01*
X1180218Y11930D01*
X1180062Y11996D01*
X1179906Y12070D01*
X1179759Y12160D01*
X1179611Y12266D01*
X1179463Y12381D01*
X1179332Y12520D01*
X1179324Y12529D01*
X1179308Y12553D01*
X1179283Y12586D01*
X1179250Y12635D01*
X1179201Y12693D01*
X1179160Y12766D01*
X1179111Y12848D01*
X1179062Y12939D01*
X1179004Y13037D01*
X1178955Y13152D01*
X1178873Y13390D01*
X1178832Y13521D01*
X1178808Y13660D01*
X1178791Y13800D01*
X1178783Y13947D01*
Y13956D01*
Y13980D01*
Y14013D01*
X1178791Y14070D01*
X1178799Y14128D01*
X1178808Y14201D01*
X1178824Y14284D01*
X1178840Y14374D01*
X1178889Y14562D01*
X1178971Y14775D01*
X1179029Y14890D01*
X1179086Y14997D01*
X1179152Y15103D01*
X1179234Y15210D01*
X1179242Y15218D01*
X1179259Y15235D01*
X1179283Y15268D01*
X1179316Y15308D01*
X1179365Y15358D01*
X1179422Y15415D01*
X1179496Y15473D01*
X1179570Y15546D01*
X1179660Y15620D01*
X1179759Y15702D01*
X1179873Y15784D01*
X1179996Y15866D01*
X1180128Y15956D01*
X1180267Y16038D01*
X1180423Y16120D01*
X1180587Y16202D01*
X1180579Y16210D01*
X1180562Y16227D01*
X1180538Y16260D01*
X1180505Y16301D01*
X1180464Y16350D01*
X1180415Y16407D01*
X1180308Y16547D01*
X1180193Y16694D01*
X1180079Y16850D01*
X1179980Y17006D01*
X1179898Y17154D01*
Y17162D01*
X1179890Y17170D01*
X1179873Y17219D01*
X1179841Y17285D01*
X1179816Y17383D01*
X1179783Y17490D01*
X1179751Y17613D01*
X1179734Y17736D01*
X1179726Y17867D01*
Y17875D01*
Y17900D01*
Y17932D01*
X1179734Y17982D01*
X1179742Y18039D01*
X1179751Y18113D01*
X1179767Y18187D01*
X1179792Y18269D01*
X1179857Y18457D01*
X1179898Y18556D01*
X1179947Y18654D01*
X1180013Y18753D01*
X1180087Y18851D01*
X1180169Y18949D01*
X1180259Y19048D01*
X1180267Y19056D01*
X1180284Y19072D01*
X1180316Y19097D01*
X1180357Y19130D01*
X1180406Y19162D01*
X1180472Y19212D01*
X1180546Y19253D01*
X1180628Y19302D01*
X1180718Y19351D01*
X1180825Y19392D01*
X1180931Y19441D01*
X1181054Y19474D01*
X1181177Y19507D01*
X1181317Y19532D01*
X1181456Y19548D01*
X1181604Y19556D01*
X1181678D01*
X1181735Y19548D01*
D02*
G37*
G36*
X1392639Y17465D02*
X1392704D01*
X1392787Y17449D01*
X1392885Y17432D01*
X1392992Y17408D01*
X1393106Y17375D01*
X1393229Y17334D01*
X1393361Y17277D01*
X1393492Y17219D01*
X1393631Y17137D01*
X1393762Y17047D01*
X1393902Y16940D01*
X1394025Y16817D01*
X1394148Y16678D01*
Y17350D01*
X1395000D01*
Y12611D01*
Y12594D01*
Y12553D01*
Y12488D01*
Y12406D01*
X1394992Y12299D01*
X1394984Y12176D01*
X1394976Y12045D01*
X1394968Y11906D01*
X1394935Y11610D01*
X1394894Y11307D01*
X1394861Y11168D01*
X1394828Y11028D01*
X1394787Y10905D01*
X1394738Y10798D01*
Y10790D01*
X1394730Y10774D01*
X1394713Y10749D01*
X1394689Y10708D01*
X1394623Y10610D01*
X1394533Y10495D01*
X1394418Y10356D01*
X1394279Y10216D01*
X1394107Y10077D01*
X1393910Y9954D01*
X1393902D01*
X1393885Y9938D01*
X1393853Y9929D01*
X1393812Y9905D01*
X1393754Y9880D01*
X1393688Y9855D01*
X1393615Y9831D01*
X1393524Y9798D01*
X1393426Y9765D01*
X1393320Y9741D01*
X1393213Y9716D01*
X1393090Y9691D01*
X1392819Y9659D01*
X1392524Y9642D01*
X1392426D01*
X1392360Y9651D01*
X1392278Y9659D01*
X1392180Y9667D01*
X1392073Y9683D01*
X1391958Y9700D01*
X1391704Y9749D01*
X1391442Y9831D01*
X1391302Y9880D01*
X1391179Y9938D01*
X1391048Y10011D01*
X1390933Y10085D01*
X1390925Y10093D01*
X1390909Y10110D01*
X1390876Y10134D01*
X1390843Y10167D01*
X1390794Y10216D01*
X1390745Y10274D01*
X1390695Y10339D01*
X1390638Y10421D01*
X1390581Y10503D01*
X1390532Y10602D01*
X1390482Y10717D01*
X1390441Y10831D01*
X1390400Y10962D01*
X1390376Y11102D01*
X1390359Y11249D01*
Y11413D01*
X1391261Y11291D01*
Y11282D01*
Y11274D01*
X1391278Y11225D01*
X1391294Y11151D01*
X1391319Y11061D01*
X1391360Y10954D01*
X1391417Y10856D01*
X1391483Y10757D01*
X1391573Y10676D01*
X1391589Y10667D01*
X1391638Y10634D01*
X1391712Y10593D01*
X1391819Y10544D01*
X1391958Y10495D01*
X1392114Y10454D01*
X1392303Y10421D01*
X1392516Y10413D01*
X1392581D01*
X1392622Y10421D01*
X1392680D01*
X1392737Y10430D01*
X1392885Y10446D01*
X1393041Y10479D01*
X1393205Y10528D01*
X1393369Y10585D01*
X1393508Y10676D01*
X1393516D01*
X1393524Y10684D01*
X1393565Y10725D01*
X1393623Y10782D01*
X1393705Y10864D01*
X1393779Y10962D01*
X1393861Y11085D01*
X1393935Y11233D01*
X1393992Y11397D01*
Y11413D01*
X1394000Y11430D01*
Y11455D01*
X1394008Y11487D01*
X1394016Y11536D01*
Y11586D01*
X1394025Y11651D01*
X1394033Y11725D01*
X1394041Y11807D01*
Y11906D01*
X1394049Y12012D01*
Y12135D01*
X1394057Y12266D01*
Y12414D01*
Y12578D01*
X1394049Y12570D01*
X1394033Y12545D01*
X1393992Y12512D01*
X1393951Y12463D01*
X1393885Y12414D01*
X1393820Y12357D01*
X1393729Y12291D01*
X1393639Y12225D01*
X1393533Y12151D01*
X1393418Y12094D01*
X1393295Y12028D01*
X1393155Y11979D01*
X1393016Y11930D01*
X1392869Y11897D01*
X1392704Y11873D01*
X1392540Y11864D01*
X1392491D01*
X1392434Y11873D01*
X1392352Y11881D01*
X1392262Y11889D01*
X1392147Y11906D01*
X1392032Y11930D01*
X1391901Y11963D01*
X1391761Y12012D01*
X1391614Y12061D01*
X1391466Y12127D01*
X1391327Y12209D01*
X1391179Y12299D01*
X1391040Y12406D01*
X1390909Y12537D01*
X1390786Y12676D01*
X1390777Y12685D01*
X1390761Y12717D01*
X1390728Y12758D01*
X1390687Y12824D01*
X1390646Y12898D01*
X1390589Y12996D01*
X1390540Y13103D01*
X1390482Y13226D01*
X1390425Y13365D01*
X1390368Y13513D01*
X1390310Y13677D01*
X1390269Y13849D01*
X1390228Y14029D01*
X1390195Y14226D01*
X1390179Y14423D01*
X1390171Y14636D01*
Y14644D01*
Y14669D01*
Y14710D01*
X1390179Y14767D01*
Y14841D01*
X1390187Y14915D01*
X1390195Y15005D01*
X1390203Y15112D01*
X1390236Y15333D01*
X1390285Y15571D01*
X1390359Y15825D01*
X1390450Y16079D01*
Y16087D01*
X1390466Y16112D01*
X1390482Y16145D01*
X1390507Y16186D01*
X1390532Y16243D01*
X1390572Y16309D01*
X1390663Y16456D01*
X1390777Y16621D01*
X1390917Y16793D01*
X1391089Y16957D01*
X1391278Y17104D01*
X1391286Y17112D01*
X1391302Y17121D01*
X1391335Y17137D01*
X1391376Y17162D01*
X1391425Y17186D01*
X1391491Y17219D01*
X1391556Y17252D01*
X1391638Y17293D01*
X1391729Y17326D01*
X1391827Y17358D01*
X1392040Y17416D01*
X1392278Y17457D01*
X1392409Y17473D01*
X1392581D01*
X1392639Y17465D01*
D02*
G37*
G36*
X1154683Y17465D02*
X1154749D01*
X1154831Y17449D01*
X1154929Y17432D01*
X1155036Y17408D01*
X1155151Y17375D01*
X1155274Y17334D01*
X1155405Y17277D01*
X1155536Y17219D01*
X1155675Y17137D01*
X1155807Y17047D01*
X1155946Y16940D01*
X1156069Y16817D01*
X1156192Y16678D01*
Y17350D01*
X1157045D01*
Y12611D01*
Y12594D01*
Y12553D01*
Y12488D01*
Y12406D01*
X1157036Y12299D01*
X1157028Y12176D01*
X1157020Y12045D01*
X1157012Y11906D01*
X1156979Y11610D01*
X1156938Y11307D01*
X1156905Y11168D01*
X1156872Y11028D01*
X1156831Y10905D01*
X1156782Y10798D01*
Y10790D01*
X1156774Y10774D01*
X1156758Y10749D01*
X1156733Y10708D01*
X1156668Y10610D01*
X1156577Y10495D01*
X1156462Y10356D01*
X1156323Y10216D01*
X1156151Y10077D01*
X1155954Y9954D01*
X1155946D01*
X1155929Y9938D01*
X1155897Y9929D01*
X1155856Y9905D01*
X1155798Y9880D01*
X1155733Y9855D01*
X1155659Y9831D01*
X1155569Y9798D01*
X1155470Y9765D01*
X1155364Y9741D01*
X1155257Y9716D01*
X1155134Y9691D01*
X1154863Y9659D01*
X1154568Y9642D01*
X1154470D01*
X1154404Y9651D01*
X1154322Y9659D01*
X1154224Y9667D01*
X1154117Y9683D01*
X1154002Y9700D01*
X1153748Y9749D01*
X1153486Y9831D01*
X1153347Y9880D01*
X1153224Y9938D01*
X1153092Y10011D01*
X1152977Y10085D01*
X1152969Y10093D01*
X1152953Y10110D01*
X1152920Y10134D01*
X1152887Y10167D01*
X1152838Y10216D01*
X1152789Y10274D01*
X1152740Y10339D01*
X1152682Y10421D01*
X1152625Y10503D01*
X1152576Y10602D01*
X1152526Y10717D01*
X1152485Y10831D01*
X1152444Y10962D01*
X1152420Y11102D01*
X1152404Y11249D01*
Y11413D01*
X1153306Y11291D01*
Y11282D01*
Y11274D01*
X1153322Y11225D01*
X1153338Y11151D01*
X1153363Y11061D01*
X1153404Y10954D01*
X1153461Y10856D01*
X1153527Y10757D01*
X1153617Y10676D01*
X1153633Y10667D01*
X1153683Y10634D01*
X1153757Y10593D01*
X1153863Y10544D01*
X1154002Y10495D01*
X1154158Y10454D01*
X1154347Y10421D01*
X1154560Y10413D01*
X1154626D01*
X1154667Y10421D01*
X1154724D01*
X1154782Y10430D01*
X1154929Y10446D01*
X1155085Y10479D01*
X1155249Y10528D01*
X1155413Y10585D01*
X1155552Y10676D01*
X1155560D01*
X1155569Y10684D01*
X1155610Y10725D01*
X1155667Y10782D01*
X1155749Y10864D01*
X1155823Y10962D01*
X1155905Y11085D01*
X1155979Y11233D01*
X1156036Y11397D01*
Y11413D01*
X1156044Y11430D01*
Y11455D01*
X1156052Y11487D01*
X1156061Y11536D01*
Y11586D01*
X1156069Y11651D01*
X1156077Y11725D01*
X1156085Y11807D01*
Y11906D01*
X1156094Y12012D01*
Y12135D01*
X1156102Y12266D01*
Y12414D01*
Y12578D01*
X1156094Y12570D01*
X1156077Y12545D01*
X1156036Y12512D01*
X1155995Y12463D01*
X1155929Y12414D01*
X1155864Y12357D01*
X1155774Y12291D01*
X1155684Y12225D01*
X1155577Y12151D01*
X1155462Y12094D01*
X1155339Y12028D01*
X1155200Y11979D01*
X1155060Y11930D01*
X1154913Y11897D01*
X1154749Y11873D01*
X1154585Y11864D01*
X1154535D01*
X1154478Y11873D01*
X1154396Y11881D01*
X1154306Y11889D01*
X1154191Y11906D01*
X1154076Y11930D01*
X1153945Y11963D01*
X1153806Y12012D01*
X1153658Y12061D01*
X1153510Y12127D01*
X1153371Y12209D01*
X1153224Y12299D01*
X1153084Y12406D01*
X1152953Y12537D01*
X1152830Y12676D01*
X1152822Y12685D01*
X1152805Y12717D01*
X1152773Y12758D01*
X1152732Y12824D01*
X1152691Y12898D01*
X1152633Y12996D01*
X1152584Y13103D01*
X1152526Y13226D01*
X1152469Y13365D01*
X1152412Y13513D01*
X1152354Y13677D01*
X1152313Y13849D01*
X1152272Y14029D01*
X1152240Y14226D01*
X1152223Y14423D01*
X1152215Y14636D01*
Y14644D01*
Y14669D01*
Y14710D01*
X1152223Y14767D01*
Y14841D01*
X1152231Y14915D01*
X1152240Y15005D01*
X1152248Y15112D01*
X1152281Y15333D01*
X1152330Y15571D01*
X1152404Y15825D01*
X1152494Y16079D01*
Y16087D01*
X1152510Y16112D01*
X1152526Y16145D01*
X1152551Y16186D01*
X1152576Y16243D01*
X1152617Y16309D01*
X1152707Y16456D01*
X1152822Y16621D01*
X1152961Y16793D01*
X1153133Y16957D01*
X1153322Y17104D01*
X1153330Y17112D01*
X1153347Y17121D01*
X1153379Y17137D01*
X1153420Y17162D01*
X1153469Y17186D01*
X1153535Y17219D01*
X1153601Y17252D01*
X1153683Y17293D01*
X1153773Y17326D01*
X1153871Y17358D01*
X1154084Y17416D01*
X1154322Y17457D01*
X1154453Y17473D01*
X1154626D01*
X1154683Y17465D01*
D02*
G37*
G36*
X1293405Y230663D02*
X1300677Y220000D01*
X1299092D01*
X1293651Y228011D01*
X1292393Y229788D01*
X1292311D01*
X1291026Y227956D01*
X1285558Y220000D01*
X1284000D01*
X1291382Y230799D01*
X1284574Y241052D01*
X1286160D01*
X1291190Y233342D01*
X1292393Y231620D01*
X1292421D01*
X1293651Y233315D01*
X1298764Y241052D01*
X1300322D01*
X1293405Y230663D01*
D02*
G37*
G36*
X1260005Y223080D02*
X1256954D01*
X1250821Y233019D01*
Y223080D01*
X1248000D01*
Y238217D01*
X1250952D01*
X1257184Y228049D01*
Y238217D01*
X1260005D01*
Y223080D01*
D02*
G37*
G36*
X1273108D02*
X1270419D01*
Y224704D01*
X1270386Y224688D01*
X1270353Y224638D01*
X1270304Y224573D01*
X1270173Y224409D01*
X1269992Y224212D01*
X1269763Y223999D01*
X1269500Y223753D01*
X1269172Y223539D01*
X1268828Y223326D01*
X1268812D01*
X1268779Y223310D01*
X1268730Y223277D01*
X1268664Y223244D01*
X1268566Y223212D01*
X1268467Y223179D01*
X1268205Y223080D01*
X1267910Y222998D01*
X1267549Y222916D01*
X1267172Y222851D01*
X1266778Y222834D01*
X1266598D01*
X1266499Y222851D01*
X1266384Y222867D01*
X1266122Y222900D01*
X1265810Y222949D01*
X1265482Y223031D01*
X1265138Y223146D01*
X1264794Y223310D01*
X1264777D01*
X1264761Y223326D01*
X1264712Y223359D01*
X1264646Y223408D01*
X1264498Y223507D01*
X1264318Y223671D01*
X1264105Y223851D01*
X1263892Y224097D01*
X1263695Y224359D01*
X1263531Y224671D01*
Y224688D01*
X1263514Y224720D01*
X1263498Y224769D01*
X1263465Y224835D01*
X1263449Y224917D01*
X1263416Y225032D01*
X1263383Y225163D01*
X1263350Y225311D01*
X1263301Y225475D01*
X1263268Y225655D01*
X1263236Y225852D01*
X1263219Y226065D01*
X1263186Y226295D01*
X1263170Y226557D01*
X1263154Y227098D01*
Y234052D01*
X1266056D01*
Y229001D01*
Y228968D01*
Y228902D01*
Y228787D01*
Y228640D01*
Y228443D01*
X1266073Y228246D01*
Y228017D01*
Y227787D01*
X1266089Y227295D01*
X1266106Y227049D01*
X1266122Y226836D01*
X1266138Y226623D01*
X1266155Y226442D01*
X1266171Y226278D01*
X1266204Y226164D01*
X1266220Y226147D01*
X1266237Y226081D01*
X1266286Y225983D01*
X1266335Y225868D01*
X1266417Y225737D01*
X1266516Y225606D01*
X1266630Y225475D01*
X1266778Y225343D01*
X1266794Y225327D01*
X1266860Y225294D01*
X1266942Y225245D01*
X1267073Y225196D01*
X1267237Y225147D01*
X1267418Y225097D01*
X1267631Y225065D01*
X1267860Y225048D01*
X1267992D01*
X1268123Y225065D01*
X1268303Y225097D01*
X1268500Y225147D01*
X1268730Y225212D01*
X1268959Y225311D01*
X1269172Y225442D01*
X1269205Y225458D01*
X1269271Y225524D01*
X1269369Y225606D01*
X1269500Y225721D01*
X1269632Y225868D01*
X1269763Y226049D01*
X1269878Y226245D01*
X1269976Y226459D01*
X1269992Y226491D01*
Y226524D01*
X1270009Y226590D01*
X1270025Y226672D01*
X1270042Y226770D01*
X1270074Y226902D01*
X1270091Y227049D01*
X1270107Y227229D01*
X1270140Y227443D01*
X1270156Y227689D01*
X1270173Y227968D01*
X1270189Y228263D01*
Y228607D01*
X1270206Y228984D01*
Y229411D01*
Y234052D01*
X1273108D01*
Y223080D01*
D02*
G37*
G36*
X1279160Y234052D02*
X1281144D01*
Y231739D01*
X1279160D01*
Y227311D01*
Y227295D01*
Y227246D01*
Y227180D01*
Y227098D01*
Y227000D01*
Y226869D01*
Y226606D01*
X1279176Y226344D01*
Y226081D01*
X1279193Y225967D01*
Y225868D01*
X1279209Y225786D01*
Y225737D01*
Y225721D01*
X1279226Y225704D01*
X1279258Y225606D01*
X1279340Y225491D01*
X1279455Y225376D01*
X1279472D01*
X1279488Y225360D01*
X1279537Y225343D01*
X1279603Y225311D01*
X1279750Y225261D01*
X1279947Y225245D01*
X1280029D01*
X1280111Y225261D01*
X1280242Y225278D01*
X1280406Y225311D01*
X1280620Y225360D01*
X1280849Y225426D01*
X1281112Y225507D01*
X1281374Y223261D01*
X1281358D01*
X1281325Y223244D01*
X1281276Y223228D01*
X1281194Y223195D01*
X1281095Y223162D01*
X1280980Y223130D01*
X1280849Y223080D01*
X1280702Y223047D01*
X1280374Y222966D01*
X1279980Y222900D01*
X1279537Y222851D01*
X1279078Y222834D01*
X1278947D01*
X1278799Y222851D01*
X1278602Y222867D01*
X1278389Y222900D01*
X1278160Y222949D01*
X1277914Y223015D01*
X1277668Y223097D01*
X1277635Y223113D01*
X1277569Y223146D01*
X1277454Y223195D01*
X1277323Y223277D01*
X1277176Y223376D01*
X1277012Y223490D01*
X1276880Y223622D01*
X1276749Y223769D01*
X1276733Y223785D01*
X1276700Y223851D01*
X1276651Y223950D01*
X1276585Y224064D01*
X1276520Y224228D01*
X1276454Y224425D01*
X1276388Y224655D01*
X1276339Y224901D01*
Y224934D01*
X1276323Y224999D01*
Y225065D01*
X1276306Y225147D01*
Y225245D01*
Y225343D01*
X1276290Y225475D01*
Y225622D01*
X1276274Y225786D01*
Y225983D01*
X1276257Y226196D01*
Y226426D01*
Y226672D01*
Y226951D01*
Y231739D01*
X1274929D01*
Y234052D01*
X1276257D01*
Y236233D01*
X1279160Y237939D01*
Y234052D01*
D02*
G37*
%LPC*%
G36*
X1283768Y200358D02*
X1282243D01*
Y198554D01*
X1283768Y198587D01*
Y200358D01*
D02*
G37*
G36*
X1269738Y202392D02*
X1268270D01*
Y200883D01*
X1269738D01*
Y202392D01*
D02*
G37*
G36*
X1261833Y202367D02*
X1260833D01*
X1260792Y202359D01*
X1260710Y202335D01*
X1260603Y202294D01*
X1260554Y202261D01*
X1260505Y202228D01*
X1260456Y202179D01*
X1260415Y202121D01*
X1260374Y202056D01*
X1260349Y201974D01*
X1260333Y201892D01*
X1260325Y201785D01*
Y199104D01*
Y199096D01*
Y199079D01*
Y199055D01*
X1260333Y199014D01*
X1260357Y198923D01*
X1260398Y198817D01*
X1260464Y198710D01*
X1260505Y198661D01*
X1260562Y198620D01*
X1260628Y198579D01*
X1260702Y198554D01*
X1260784Y198538D01*
X1260882Y198530D01*
X1260972D01*
X1261005Y198538D01*
X1261112D01*
X1261177Y198546D01*
X1261251D01*
X1261341Y198554D01*
X1261448Y198563D01*
X1261563Y198571D01*
X1261686Y198579D01*
X1261833Y198587D01*
Y202367D01*
D02*
G37*
G36*
X1252264Y205639D02*
X1248394D01*
Y198325D01*
X1252264D01*
Y205639D01*
D02*
G37*
%LPD*%
G36*
X1250993Y204253D02*
X1251059Y204245D01*
X1251124Y204212D01*
X1251190Y204171D01*
X1251255Y204106D01*
X1251296Y204007D01*
X1251313Y203950D01*
Y203884D01*
Y202810D01*
X1250788D01*
Y203778D01*
X1249861D01*
Y200219D01*
X1250788D01*
Y201277D01*
X1251313D01*
Y200096D01*
Y200080D01*
X1251305Y200039D01*
X1251296Y199981D01*
X1251264Y199924D01*
X1251223Y199858D01*
X1251157Y199801D01*
X1251059Y199760D01*
X1251001Y199752D01*
X1250936Y199743D01*
X1249697D01*
X1249656Y199752D01*
X1249591Y199760D01*
X1249525Y199784D01*
X1249460Y199834D01*
X1249394Y199891D01*
X1249353Y199981D01*
X1249345Y200030D01*
X1249337Y200096D01*
Y203884D01*
Y203893D01*
Y203901D01*
X1249345Y203942D01*
X1249353Y204007D01*
X1249386Y204073D01*
X1249427Y204139D01*
X1249492Y204204D01*
X1249591Y204245D01*
X1249648Y204262D01*
X1250952D01*
X1250993Y204253D01*
D02*
G37*
%LPC*%
G36*
X1264933Y202392D02*
X1264802D01*
X1264761Y202384D01*
X1264679Y202359D01*
X1264572Y202318D01*
X1264523Y202285D01*
X1264474Y202253D01*
X1264425Y202203D01*
X1264384Y202146D01*
X1264343Y202080D01*
X1264318Y201998D01*
X1264302Y201916D01*
X1264293Y201810D01*
Y199137D01*
Y199128D01*
Y199112D01*
Y199087D01*
X1264302Y199046D01*
X1264326Y198956D01*
X1264367Y198850D01*
X1264433Y198743D01*
X1264474Y198694D01*
X1264531Y198653D01*
X1264597Y198612D01*
X1264671Y198587D01*
X1264753Y198571D01*
X1264851Y198563D01*
X1265802D01*
Y202335D01*
X1265769D01*
X1265728Y202343D01*
X1265671D01*
X1265614Y202351D01*
X1265540D01*
X1265376Y202367D01*
X1265212Y202376D01*
X1265056Y202384D01*
X1264990D01*
X1264933Y202392D01*
D02*
G37*
G36*
X1344997Y16702D02*
X1344940D01*
X1344890Y16694D01*
X1344841Y16686D01*
X1344775Y16678D01*
X1344636Y16637D01*
X1344472Y16579D01*
X1344382Y16538D01*
X1344292Y16489D01*
X1344210Y16432D01*
X1344119Y16358D01*
X1344038Y16284D01*
X1343956Y16194D01*
X1343947Y16186D01*
X1343939Y16170D01*
X1343915Y16137D01*
X1343890Y16096D01*
X1343857Y16047D01*
X1343824Y15973D01*
X1343791Y15899D01*
X1343750Y15800D01*
X1343709Y15702D01*
X1343677Y15579D01*
X1343644Y15448D01*
X1343611Y15308D01*
X1343587Y15145D01*
X1343562Y14980D01*
X1343554Y14792D01*
X1343546Y14595D01*
Y14587D01*
Y14546D01*
Y14497D01*
X1343554Y14423D01*
X1343562Y14333D01*
X1343570Y14234D01*
X1343587Y14128D01*
X1343603Y14005D01*
X1343652Y13750D01*
X1343734Y13488D01*
X1343783Y13365D01*
X1343841Y13242D01*
X1343915Y13127D01*
X1343988Y13021D01*
X1343997Y13013D01*
X1344005Y12996D01*
X1344038Y12971D01*
X1344070Y12939D01*
X1344111Y12898D01*
X1344160Y12857D01*
X1344283Y12766D01*
X1344439Y12668D01*
X1344620Y12586D01*
X1344718Y12553D01*
X1344816Y12529D01*
X1344923Y12512D01*
X1345038Y12504D01*
X1345095D01*
X1345144Y12512D01*
X1345194Y12520D01*
X1345259Y12529D01*
X1345399Y12570D01*
X1345563Y12627D01*
X1345653Y12668D01*
X1345735Y12709D01*
X1345825Y12766D01*
X1345915Y12832D01*
X1345997Y12906D01*
X1346079Y12996D01*
X1346087Y13004D01*
X1346096Y13021D01*
X1346120Y13045D01*
X1346145Y13094D01*
X1346178Y13144D01*
X1346219Y13209D01*
X1346260Y13283D01*
X1346301Y13373D01*
X1346334Y13472D01*
X1346375Y13587D01*
X1346416Y13718D01*
X1346448Y13849D01*
X1346473Y13996D01*
X1346498Y14161D01*
X1346506Y14333D01*
X1346514Y14521D01*
Y14538D01*
Y14570D01*
Y14628D01*
X1346506Y14702D01*
X1346498Y14800D01*
X1346489Y14907D01*
X1346481Y15021D01*
X1346457Y15153D01*
X1346407Y15415D01*
X1346325Y15694D01*
X1346276Y15825D01*
X1346219Y15948D01*
X1346153Y16063D01*
X1346071Y16170D01*
X1346063Y16178D01*
X1346055Y16194D01*
X1346030Y16219D01*
X1345997Y16251D01*
X1345948Y16293D01*
X1345899Y16342D01*
X1345776Y16440D01*
X1345620Y16530D01*
X1345432Y16621D01*
X1345333Y16653D01*
X1345226Y16678D01*
X1345112Y16694D01*
X1344997Y16702D01*
D02*
G37*
G36*
X1237495Y16702D02*
X1237438D01*
X1237388Y16694D01*
X1237339Y16686D01*
X1237274Y16678D01*
X1237134Y16637D01*
X1236970Y16579D01*
X1236880Y16538D01*
X1236790Y16489D01*
X1236708Y16432D01*
X1236617Y16358D01*
X1236535Y16284D01*
X1236454Y16194D01*
X1236445Y16186D01*
X1236437Y16170D01*
X1236413Y16137D01*
X1236388Y16096D01*
X1236355Y16047D01*
X1236322Y15973D01*
X1236290Y15899D01*
X1236248Y15800D01*
X1236207Y15702D01*
X1236175Y15579D01*
X1236142Y15448D01*
X1236109Y15308D01*
X1236084Y15145D01*
X1236060Y14980D01*
X1236052Y14792D01*
X1236043Y14595D01*
Y14587D01*
Y14546D01*
Y14497D01*
X1236052Y14423D01*
X1236060Y14333D01*
X1236068Y14234D01*
X1236084Y14128D01*
X1236101Y14005D01*
X1236150Y13750D01*
X1236232Y13488D01*
X1236281Y13365D01*
X1236339Y13242D01*
X1236413Y13127D01*
X1236486Y13021D01*
X1236495Y13013D01*
X1236503Y12996D01*
X1236535Y12971D01*
X1236568Y12939D01*
X1236609Y12898D01*
X1236658Y12857D01*
X1236782Y12766D01*
X1236937Y12668D01*
X1237118Y12586D01*
X1237216Y12553D01*
X1237315Y12529D01*
X1237421Y12512D01*
X1237536Y12504D01*
X1237593D01*
X1237642Y12512D01*
X1237692Y12520D01*
X1237757Y12529D01*
X1237897Y12570D01*
X1238061Y12627D01*
X1238151Y12668D01*
X1238233Y12709D01*
X1238323Y12766D01*
X1238413Y12832D01*
X1238495Y12906D01*
X1238577Y12996D01*
X1238585Y13004D01*
X1238594Y13021D01*
X1238618Y13045D01*
X1238643Y13094D01*
X1238676Y13144D01*
X1238717Y13209D01*
X1238758Y13283D01*
X1238799Y13373D01*
X1238832Y13472D01*
X1238873Y13587D01*
X1238914Y13718D01*
X1238946Y13849D01*
X1238971Y13996D01*
X1238995Y14161D01*
X1239004Y14333D01*
X1239012Y14521D01*
Y14538D01*
Y14570D01*
Y14628D01*
X1239004Y14702D01*
X1238995Y14800D01*
X1238987Y14907D01*
X1238979Y15021D01*
X1238955Y15153D01*
X1238905Y15415D01*
X1238823Y15694D01*
X1238774Y15825D01*
X1238717Y15948D01*
X1238651Y16063D01*
X1238569Y16170D01*
X1238561Y16178D01*
X1238553Y16194D01*
X1238528Y16219D01*
X1238495Y16251D01*
X1238446Y16293D01*
X1238397Y16342D01*
X1238274Y16440D01*
X1238118Y16530D01*
X1237930Y16621D01*
X1237831Y16653D01*
X1237724Y16678D01*
X1237610Y16694D01*
X1237495Y16702D01*
D02*
G37*
G36*
X1172272Y16702D02*
X1172215D01*
X1172165Y16694D01*
X1172116Y16686D01*
X1172051Y16678D01*
X1171911Y16637D01*
X1171747Y16579D01*
X1171657Y16538D01*
X1171567Y16489D01*
X1171485Y16432D01*
X1171395Y16358D01*
X1171313Y16284D01*
X1171231Y16194D01*
X1171222Y16186D01*
X1171214Y16170D01*
X1171190Y16137D01*
X1171165Y16096D01*
X1171132Y16047D01*
X1171099Y15973D01*
X1171067Y15899D01*
X1171026Y15800D01*
X1170985Y15702D01*
X1170952Y15579D01*
X1170919Y15448D01*
X1170886Y15308D01*
X1170862Y15145D01*
X1170837Y14980D01*
X1170829Y14792D01*
X1170821Y14595D01*
Y14587D01*
Y14546D01*
Y14497D01*
X1170829Y14423D01*
X1170837Y14333D01*
X1170845Y14234D01*
X1170862Y14128D01*
X1170878Y14005D01*
X1170927Y13750D01*
X1171009Y13488D01*
X1171058Y13365D01*
X1171116Y13242D01*
X1171190Y13127D01*
X1171264Y13021D01*
X1171272Y13013D01*
X1171280Y12996D01*
X1171313Y12971D01*
X1171346Y12939D01*
X1171387Y12898D01*
X1171436Y12857D01*
X1171559Y12766D01*
X1171714Y12668D01*
X1171895Y12586D01*
X1171993Y12553D01*
X1172092Y12529D01*
X1172198Y12512D01*
X1172313Y12504D01*
X1172371D01*
X1172420Y12512D01*
X1172469Y12520D01*
X1172534Y12529D01*
X1172674Y12570D01*
X1172838Y12627D01*
X1172928Y12668D01*
X1173010Y12709D01*
X1173100Y12766D01*
X1173190Y12832D01*
X1173273Y12906D01*
X1173355Y12996D01*
X1173363Y13004D01*
X1173371Y13021D01*
X1173396Y13045D01*
X1173420Y13094D01*
X1173453Y13144D01*
X1173494Y13209D01*
X1173535Y13283D01*
X1173576Y13373D01*
X1173609Y13472D01*
X1173650Y13587D01*
X1173691Y13718D01*
X1173724Y13849D01*
X1173748Y13996D01*
X1173773Y14161D01*
X1173781Y14333D01*
X1173789Y14521D01*
Y14538D01*
Y14570D01*
Y14628D01*
X1173781Y14702D01*
X1173773Y14800D01*
X1173765Y14907D01*
X1173756Y15021D01*
X1173732Y15153D01*
X1173682Y15415D01*
X1173600Y15694D01*
X1173551Y15825D01*
X1173494Y15948D01*
X1173428Y16063D01*
X1173346Y16170D01*
X1173338Y16178D01*
X1173330Y16194D01*
X1173305Y16219D01*
X1173273Y16251D01*
X1173223Y16293D01*
X1173174Y16342D01*
X1173051Y16440D01*
X1172895Y16530D01*
X1172707Y16621D01*
X1172608Y16653D01*
X1172502Y16678D01*
X1172387Y16694D01*
X1172272Y16702D01*
D02*
G37*
G36*
X1382282Y14620D02*
X1382274D01*
X1382258Y14612D01*
X1382225Y14603D01*
X1382184Y14587D01*
X1382135Y14562D01*
X1382069Y14546D01*
X1381987Y14521D01*
X1381905Y14497D01*
X1381798Y14472D01*
X1381684Y14439D01*
X1381561Y14415D01*
X1381421Y14382D01*
X1381274Y14349D01*
X1381118Y14324D01*
X1380946Y14292D01*
X1380757Y14267D01*
X1380733D01*
X1380700Y14259D01*
X1380667Y14251D01*
X1380560Y14234D01*
X1380437Y14210D01*
X1380306Y14185D01*
X1380175Y14152D01*
X1380052Y14119D01*
X1379945Y14078D01*
X1379937Y14070D01*
X1379904Y14062D01*
X1379863Y14038D01*
X1379814Y14005D01*
X1379749Y13956D01*
X1379691Y13906D01*
X1379634Y13849D01*
X1379576Y13775D01*
X1379568Y13767D01*
X1379560Y13742D01*
X1379535Y13701D01*
X1379519Y13644D01*
X1379494Y13578D01*
X1379470Y13505D01*
X1379461Y13422D01*
X1379453Y13332D01*
Y13316D01*
X1379461Y13275D01*
X1379470Y13201D01*
X1379486Y13119D01*
X1379519Y13021D01*
X1379568Y12914D01*
X1379642Y12816D01*
X1379732Y12717D01*
X1379749Y12709D01*
X1379781Y12676D01*
X1379847Y12643D01*
X1379937Y12594D01*
X1380052Y12553D01*
X1380200Y12512D01*
X1380363Y12479D01*
X1380552Y12471D01*
X1380642D01*
X1380692Y12479D01*
X1380749Y12488D01*
X1380872Y12504D01*
X1381028Y12529D01*
X1381184Y12570D01*
X1381347Y12627D01*
X1381511Y12701D01*
X1381520D01*
X1381528Y12709D01*
X1381577Y12742D01*
X1381651Y12799D01*
X1381749Y12873D01*
X1381848Y12963D01*
X1381946Y13078D01*
X1382045Y13201D01*
X1382127Y13349D01*
X1382135Y13365D01*
X1382151Y13406D01*
X1382176Y13480D01*
X1382200Y13578D01*
X1382225Y13710D01*
X1382250Y13873D01*
X1382266Y14062D01*
X1382274Y14275D01*
X1382282Y14620D01*
D02*
G37*
G36*
X1313132Y18597D02*
X1310581D01*
Y16096D01*
X1312845D01*
X1312902Y16104D01*
X1312968D01*
X1313124Y16112D01*
X1313296Y16128D01*
X1313476Y16153D01*
X1313648Y16186D01*
X1313804Y16235D01*
X1313812D01*
X1313820Y16243D01*
X1313870Y16260D01*
X1313935Y16293D01*
X1314025Y16342D01*
X1314116Y16407D01*
X1314214Y16481D01*
X1314312Y16579D01*
X1314394Y16686D01*
X1314403Y16702D01*
X1314427Y16744D01*
X1314460Y16801D01*
X1314501Y16891D01*
X1314534Y16989D01*
X1314567Y17104D01*
X1314591Y17235D01*
X1314600Y17367D01*
Y17375D01*
Y17391D01*
Y17416D01*
X1314591Y17457D01*
Y17498D01*
X1314583Y17555D01*
X1314550Y17678D01*
X1314501Y17818D01*
X1314435Y17965D01*
X1314337Y18105D01*
X1314272Y18179D01*
X1314206Y18244D01*
X1314198Y18252D01*
X1314190Y18260D01*
X1314165Y18277D01*
X1314132Y18302D01*
X1314091Y18326D01*
X1314034Y18359D01*
X1313976Y18392D01*
X1313902Y18425D01*
X1313820Y18457D01*
X1313730Y18482D01*
X1313632Y18515D01*
X1313525Y18539D01*
X1313402Y18564D01*
X1313271Y18580D01*
X1313132Y18597D01*
D02*
G37*
G36*
X1191722Y18646D02*
Y18638D01*
X1191714Y18613D01*
X1191706Y18572D01*
X1191698Y18523D01*
X1191681Y18449D01*
X1191665Y18375D01*
X1191640Y18285D01*
X1191616Y18187D01*
X1191591Y18080D01*
X1191558Y17965D01*
X1191485Y17719D01*
X1191403Y17457D01*
X1191313Y17186D01*
X1190476Y14964D01*
X1193059D01*
X1192264Y17063D01*
Y17072D01*
X1192247Y17104D01*
X1192231Y17154D01*
X1192206Y17227D01*
X1192173Y17301D01*
X1192141Y17400D01*
X1192100Y17506D01*
X1192059Y17621D01*
X1191977Y17875D01*
X1191887Y18137D01*
X1191796Y18400D01*
X1191722Y18646D01*
D02*
G37*
G36*
X1134290Y18539D02*
X1132543D01*
Y12758D01*
X1134282D01*
X1134347Y12766D01*
X1134421D01*
X1134585Y12775D01*
X1134774Y12791D01*
X1134970Y12816D01*
X1135159Y12848D01*
X1135331Y12889D01*
X1135339D01*
X1135347Y12898D01*
X1135372Y12906D01*
X1135405Y12914D01*
X1135479Y12947D01*
X1135577Y12988D01*
X1135684Y13045D01*
X1135798Y13111D01*
X1135913Y13193D01*
X1136012Y13283D01*
X1136020Y13291D01*
X1136028Y13299D01*
X1136069Y13349D01*
X1136135Y13431D01*
X1136217Y13537D01*
X1136299Y13677D01*
X1136389Y13841D01*
X1136479Y14029D01*
X1136561Y14243D01*
Y14251D01*
X1136569Y14267D01*
X1136578Y14300D01*
X1136594Y14349D01*
X1136610Y14406D01*
X1136627Y14480D01*
X1136643Y14562D01*
X1136668Y14652D01*
X1136684Y14751D01*
X1136701Y14866D01*
X1136717Y14980D01*
X1136733Y15112D01*
X1136758Y15391D01*
X1136766Y15702D01*
Y15719D01*
Y15751D01*
Y15817D01*
X1136758Y15899D01*
Y15997D01*
X1136750Y16112D01*
X1136733Y16235D01*
X1136717Y16375D01*
X1136668Y16670D01*
X1136602Y16973D01*
X1136504Y17260D01*
X1136438Y17400D01*
X1136372Y17523D01*
X1136364Y17531D01*
X1136356Y17547D01*
X1136331Y17580D01*
X1136299Y17629D01*
X1136266Y17678D01*
X1136217Y17736D01*
X1136110Y17867D01*
X1135971Y18014D01*
X1135807Y18154D01*
X1135626Y18285D01*
X1135528Y18334D01*
X1135421Y18383D01*
X1135413D01*
X1135405Y18392D01*
X1135380Y18400D01*
X1135347Y18408D01*
X1135298Y18416D01*
X1135249Y18433D01*
X1135184Y18449D01*
X1135110Y18465D01*
X1135028Y18474D01*
X1134929Y18490D01*
X1134823Y18507D01*
X1134708Y18515D01*
X1134577Y18523D01*
X1134437Y18531D01*
X1134290Y18539D01*
D02*
G37*
G36*
X1409801Y16702D02*
X1409736D01*
X1409687Y16694D01*
X1409629Y16686D01*
X1409556Y16678D01*
X1409400Y16637D01*
X1409211Y16571D01*
X1409121Y16530D01*
X1409023Y16481D01*
X1408924Y16424D01*
X1408826Y16350D01*
X1408735Y16268D01*
X1408645Y16178D01*
X1408637Y16170D01*
X1408629Y16153D01*
X1408604Y16120D01*
X1408572Y16079D01*
X1408539Y16022D01*
X1408498Y15956D01*
X1408457Y15874D01*
X1408416Y15784D01*
X1408375Y15677D01*
X1408334Y15563D01*
X1408293Y15431D01*
X1408260Y15292D01*
X1408227Y15136D01*
X1408202Y14972D01*
X1408194Y14792D01*
X1408186Y14603D01*
Y14595D01*
Y14554D01*
Y14505D01*
X1408194Y14431D01*
X1408202Y14341D01*
X1408211Y14243D01*
X1408227Y14128D01*
X1408243Y14013D01*
X1408301Y13750D01*
X1408383Y13488D01*
X1408432Y13365D01*
X1408498Y13242D01*
X1408563Y13127D01*
X1408645Y13021D01*
X1408654Y13013D01*
X1408670Y12996D01*
X1408694Y12971D01*
X1408727Y12939D01*
X1408776Y12898D01*
X1408826Y12857D01*
X1408891Y12808D01*
X1408965Y12766D01*
X1409129Y12668D01*
X1409326Y12586D01*
X1409433Y12553D01*
X1409556Y12529D01*
X1409670Y12512D01*
X1409801Y12504D01*
X1409867D01*
X1409916Y12512D01*
X1409974Y12520D01*
X1410048Y12529D01*
X1410203Y12570D01*
X1410384Y12635D01*
X1410482Y12676D01*
X1410581Y12725D01*
X1410671Y12783D01*
X1410769Y12857D01*
X1410859Y12939D01*
X1410950Y13029D01*
X1410958Y13037D01*
X1410966Y13054D01*
X1410991Y13086D01*
X1411023Y13127D01*
X1411056Y13185D01*
X1411097Y13250D01*
X1411138Y13332D01*
X1411187Y13431D01*
X1411228Y13529D01*
X1411269Y13652D01*
X1411310Y13783D01*
X1411343Y13931D01*
X1411376Y14087D01*
X1411401Y14259D01*
X1411409Y14439D01*
X1411417Y14636D01*
Y14644D01*
Y14677D01*
Y14735D01*
X1411409Y14800D01*
X1411401Y14890D01*
X1411392Y14989D01*
X1411376Y15095D01*
X1411360Y15210D01*
X1411302Y15456D01*
X1411269Y15587D01*
X1411220Y15719D01*
X1411163Y15842D01*
X1411105Y15965D01*
X1411032Y16071D01*
X1410950Y16178D01*
X1410941Y16186D01*
X1410925Y16202D01*
X1410900Y16227D01*
X1410868Y16260D01*
X1410818Y16301D01*
X1410769Y16342D01*
X1410703Y16391D01*
X1410638Y16440D01*
X1410466Y16538D01*
X1410269Y16621D01*
X1410162Y16653D01*
X1410048Y16678D01*
X1409925Y16694D01*
X1409801Y16702D01*
D02*
G37*
G36*
X1353386Y16702D02*
X1353320D01*
X1353271Y16694D01*
X1353213Y16686D01*
X1353139Y16678D01*
X1352984Y16637D01*
X1352795Y16571D01*
X1352705Y16530D01*
X1352606Y16481D01*
X1352508Y16424D01*
X1352410Y16350D01*
X1352320Y16268D01*
X1352229Y16178D01*
X1352221Y16170D01*
X1352213Y16153D01*
X1352188Y16120D01*
X1352155Y16079D01*
X1352123Y16022D01*
X1352082Y15956D01*
X1352041Y15874D01*
X1352000Y15784D01*
X1351959Y15677D01*
X1351918Y15563D01*
X1351877Y15431D01*
X1351844Y15292D01*
X1351811Y15136D01*
X1351787Y14972D01*
X1351778Y14792D01*
X1351770Y14603D01*
Y14595D01*
Y14554D01*
Y14505D01*
X1351778Y14431D01*
X1351787Y14341D01*
X1351795Y14243D01*
X1351811Y14128D01*
X1351828Y14013D01*
X1351885Y13750D01*
X1351967Y13488D01*
X1352016Y13365D01*
X1352082Y13242D01*
X1352147Y13127D01*
X1352229Y13021D01*
X1352238Y13013D01*
X1352254Y12996D01*
X1352279Y12971D01*
X1352311Y12939D01*
X1352361Y12898D01*
X1352410Y12857D01*
X1352475Y12808D01*
X1352549Y12766D01*
X1352713Y12668D01*
X1352910Y12586D01*
X1353016Y12553D01*
X1353139Y12529D01*
X1353254Y12512D01*
X1353386Y12504D01*
X1353451D01*
X1353500Y12512D01*
X1353558Y12520D01*
X1353631Y12529D01*
X1353787Y12570D01*
X1353968Y12635D01*
X1354066Y12676D01*
X1354165Y12725D01*
X1354255Y12783D01*
X1354353Y12857D01*
X1354443Y12939D01*
X1354533Y13029D01*
X1354542Y13037D01*
X1354550Y13054D01*
X1354574Y13086D01*
X1354607Y13127D01*
X1354640Y13185D01*
X1354681Y13250D01*
X1354722Y13332D01*
X1354771Y13431D01*
X1354812Y13529D01*
X1354853Y13652D01*
X1354894Y13783D01*
X1354927Y13931D01*
X1354960Y14087D01*
X1354984Y14259D01*
X1354993Y14439D01*
X1355001Y14636D01*
Y14644D01*
Y14677D01*
Y14735D01*
X1354993Y14800D01*
X1354984Y14890D01*
X1354976Y14989D01*
X1354960Y15095D01*
X1354943Y15210D01*
X1354886Y15456D01*
X1354853Y15587D01*
X1354804Y15719D01*
X1354747Y15842D01*
X1354689Y15965D01*
X1354615Y16071D01*
X1354533Y16178D01*
X1354525Y16186D01*
X1354509Y16202D01*
X1354484Y16227D01*
X1354451Y16260D01*
X1354402Y16301D01*
X1354353Y16342D01*
X1354288Y16391D01*
X1354222Y16440D01*
X1354050Y16538D01*
X1353853Y16621D01*
X1353746Y16653D01*
X1353631Y16678D01*
X1353508Y16694D01*
X1353386Y16702D01*
D02*
G37*
G36*
X1304801Y18703D02*
X1304612D01*
X1304563Y18695D01*
X1304481D01*
X1304391Y18679D01*
X1304284Y18662D01*
X1304169Y18638D01*
X1304038Y18613D01*
X1303899Y18572D01*
X1303751Y18523D01*
X1303595Y18465D01*
X1303448Y18392D01*
X1303292Y18310D01*
X1303136Y18211D01*
X1302980Y18097D01*
X1302833Y17965D01*
X1302824Y17957D01*
X1302800Y17932D01*
X1302759Y17883D01*
X1302718Y17826D01*
X1302652Y17744D01*
X1302595Y17646D01*
X1302521Y17523D01*
X1302455Y17391D01*
X1302382Y17227D01*
X1302308Y17047D01*
X1302250Y16850D01*
X1302193Y16629D01*
X1302144Y16391D01*
X1302103Y16128D01*
X1302078Y15842D01*
X1302070Y15530D01*
Y15514D01*
Y15473D01*
X1302078Y15399D01*
Y15300D01*
X1302094Y15186D01*
X1302111Y15054D01*
X1302127Y14907D01*
X1302160Y14751D01*
X1302201Y14579D01*
X1302250Y14398D01*
X1302308Y14226D01*
X1302382Y14046D01*
X1302464Y13865D01*
X1302562Y13693D01*
X1302668Y13529D01*
X1302800Y13373D01*
X1302808Y13365D01*
X1302833Y13340D01*
X1302874Y13299D01*
X1302931Y13250D01*
X1303005Y13193D01*
X1303095Y13127D01*
X1303193Y13054D01*
X1303308Y12988D01*
X1303431Y12914D01*
X1303579Y12840D01*
X1303726Y12775D01*
X1303890Y12717D01*
X1304062Y12668D01*
X1304251Y12627D01*
X1304440Y12603D01*
X1304645Y12594D01*
X1304694D01*
X1304751Y12603D01*
X1304833Y12611D01*
X1304932Y12619D01*
X1305038Y12635D01*
X1305169Y12660D01*
X1305301Y12693D01*
X1305448Y12734D01*
X1305596Y12783D01*
X1305752Y12848D01*
X1305908Y12931D01*
X1306063Y13021D01*
X1306219Y13119D01*
X1306367Y13242D01*
X1306506Y13382D01*
X1306514Y13390D01*
X1306539Y13422D01*
X1306572Y13464D01*
X1306621Y13529D01*
X1306678Y13611D01*
X1306744Y13710D01*
X1306810Y13824D01*
X1306875Y13964D01*
X1306941Y14111D01*
X1307014Y14284D01*
X1307072Y14464D01*
X1307129Y14669D01*
X1307178Y14890D01*
X1307211Y15120D01*
X1307236Y15374D01*
X1307244Y15637D01*
Y15645D01*
Y15677D01*
Y15727D01*
X1307236Y15792D01*
Y15874D01*
X1307228Y15965D01*
X1307220Y16071D01*
X1307203Y16186D01*
X1307170Y16440D01*
X1307113Y16711D01*
X1307031Y16981D01*
X1306924Y17252D01*
Y17260D01*
X1306908Y17285D01*
X1306892Y17318D01*
X1306867Y17367D01*
X1306834Y17424D01*
X1306793Y17490D01*
X1306695Y17646D01*
X1306563Y17818D01*
X1306408Y17990D01*
X1306227Y18162D01*
X1306014Y18318D01*
X1306006Y18326D01*
X1305989Y18334D01*
X1305957Y18351D01*
X1305908Y18375D01*
X1305850Y18408D01*
X1305785Y18441D01*
X1305711Y18474D01*
X1305620Y18515D01*
X1305522Y18548D01*
X1305424Y18580D01*
X1305194Y18646D01*
X1304940Y18687D01*
X1304801Y18703D01*
D02*
G37*
G36*
X1246589Y16711D02*
X1246531D01*
X1246490Y16702D01*
X1246433Y16694D01*
X1246375Y16686D01*
X1246228Y16645D01*
X1246064Y16579D01*
X1245982Y16538D01*
X1245892Y16489D01*
X1245802Y16424D01*
X1245711Y16350D01*
X1245621Y16268D01*
X1245539Y16178D01*
X1245531Y16170D01*
X1245523Y16153D01*
X1245498Y16120D01*
X1245473Y16079D01*
X1245441Y16022D01*
X1245400Y15956D01*
X1245359Y15874D01*
X1245318Y15784D01*
X1245277Y15686D01*
X1245236Y15571D01*
X1245203Y15440D01*
X1245162Y15308D01*
X1245137Y15161D01*
X1245113Y14997D01*
X1245105Y14825D01*
X1245096Y14644D01*
Y14636D01*
Y14603D01*
Y14554D01*
X1245105Y14480D01*
Y14406D01*
X1245113Y14308D01*
X1245121Y14210D01*
X1245129Y14095D01*
X1245162Y13865D01*
X1245211Y13627D01*
X1245236Y13513D01*
X1245269Y13406D01*
X1245310Y13308D01*
X1245359Y13217D01*
X1245367Y13209D01*
X1245383Y13185D01*
X1245408Y13152D01*
X1245441Y13103D01*
X1245482Y13054D01*
X1245539Y12996D01*
X1245605Y12931D01*
X1245670Y12865D01*
X1245752Y12791D01*
X1245842Y12734D01*
X1245941Y12668D01*
X1246047Y12619D01*
X1246162Y12570D01*
X1246285Y12537D01*
X1246408Y12512D01*
X1246548Y12504D01*
X1246605D01*
X1246646Y12512D01*
X1246704Y12520D01*
X1246761Y12529D01*
X1246908Y12570D01*
X1247073Y12635D01*
X1247155Y12676D01*
X1247245Y12725D01*
X1247335Y12783D01*
X1247425Y12857D01*
X1247515Y12939D01*
X1247597Y13029D01*
X1247606Y13037D01*
X1247614Y13054D01*
X1247638Y13086D01*
X1247671Y13127D01*
X1247704Y13185D01*
X1247737Y13250D01*
X1247778Y13332D01*
X1247827Y13431D01*
X1247868Y13529D01*
X1247909Y13652D01*
X1247942Y13783D01*
X1247974Y13923D01*
X1248007Y14078D01*
X1248032Y14243D01*
X1248040Y14423D01*
X1248048Y14612D01*
Y14628D01*
Y14661D01*
Y14718D01*
X1248040Y14784D01*
X1248032Y14874D01*
X1248024Y14980D01*
X1248015Y15095D01*
X1247999Y15210D01*
X1247942Y15473D01*
X1247868Y15735D01*
X1247819Y15858D01*
X1247761Y15981D01*
X1247696Y16096D01*
X1247622Y16194D01*
X1247614Y16202D01*
X1247606Y16219D01*
X1247581Y16243D01*
X1247548Y16276D01*
X1247507Y16317D01*
X1247458Y16358D01*
X1247335Y16456D01*
X1247179Y16547D01*
X1247007Y16629D01*
X1246908Y16661D01*
X1246810Y16686D01*
X1246704Y16702D01*
X1246589Y16711D01*
D02*
G37*
G36*
X1231804D02*
X1231738D01*
X1231697Y16702D01*
X1231640Y16694D01*
X1231583Y16686D01*
X1231427Y16653D01*
X1231263Y16604D01*
X1231074Y16530D01*
X1230984Y16481D01*
X1230894Y16424D01*
X1230804Y16350D01*
X1230722Y16276D01*
X1230713Y16268D01*
X1230705Y16260D01*
X1230681Y16235D01*
X1230656Y16202D01*
X1230623Y16153D01*
X1230582Y16104D01*
X1230541Y16047D01*
X1230500Y15973D01*
X1230459Y15899D01*
X1230418Y15809D01*
X1230336Y15612D01*
X1230279Y15391D01*
X1230262Y15268D01*
X1230246Y15136D01*
X1233313D01*
Y15145D01*
Y15169D01*
X1233305Y15202D01*
X1233296Y15251D01*
X1233288Y15308D01*
X1233280Y15374D01*
X1233247Y15522D01*
X1233198Y15694D01*
X1233141Y15866D01*
X1233059Y16030D01*
X1232960Y16170D01*
X1232952Y16178D01*
X1232944Y16194D01*
X1232911Y16219D01*
X1232878Y16251D01*
X1232837Y16293D01*
X1232780Y16342D01*
X1232714Y16391D01*
X1232649Y16440D01*
X1232567Y16489D01*
X1232477Y16538D01*
X1232280Y16629D01*
X1232173Y16661D01*
X1232058Y16686D01*
X1231935Y16702D01*
X1231804Y16711D01*
D02*
G37*
G36*
X1223670D02*
X1223612D01*
X1223571Y16702D01*
X1223514Y16694D01*
X1223456Y16686D01*
X1223309Y16645D01*
X1223145Y16579D01*
X1223063Y16538D01*
X1222973Y16489D01*
X1222882Y16424D01*
X1222792Y16350D01*
X1222702Y16268D01*
X1222620Y16178D01*
X1222612Y16170D01*
X1222604Y16153D01*
X1222579Y16120D01*
X1222554Y16079D01*
X1222522Y16022D01*
X1222481Y15956D01*
X1222440Y15874D01*
X1222399Y15784D01*
X1222358Y15686D01*
X1222317Y15571D01*
X1222284Y15440D01*
X1222243Y15308D01*
X1222218Y15161D01*
X1222194Y14997D01*
X1222186Y14825D01*
X1222177Y14644D01*
Y14636D01*
Y14603D01*
Y14554D01*
X1222186Y14480D01*
Y14406D01*
X1222194Y14308D01*
X1222202Y14210D01*
X1222210Y14095D01*
X1222243Y13865D01*
X1222292Y13627D01*
X1222317Y13513D01*
X1222349Y13406D01*
X1222390Y13308D01*
X1222440Y13217D01*
X1222448Y13209D01*
X1222464Y13185D01*
X1222489Y13152D01*
X1222522Y13103D01*
X1222563Y13054D01*
X1222620Y12996D01*
X1222686Y12931D01*
X1222751Y12865D01*
X1222833Y12791D01*
X1222923Y12734D01*
X1223022Y12668D01*
X1223129Y12619D01*
X1223243Y12570D01*
X1223366Y12537D01*
X1223489Y12512D01*
X1223629Y12504D01*
X1223686D01*
X1223727Y12512D01*
X1223785Y12520D01*
X1223842Y12529D01*
X1223989Y12570D01*
X1224154Y12635D01*
X1224236Y12676D01*
X1224326Y12725D01*
X1224416Y12783D01*
X1224506Y12857D01*
X1224596Y12939D01*
X1224678Y13029D01*
X1224687Y13037D01*
X1224695Y13054D01*
X1224719Y13086D01*
X1224752Y13127D01*
X1224785Y13185D01*
X1224818Y13250D01*
X1224859Y13332D01*
X1224908Y13431D01*
X1224949Y13529D01*
X1224990Y13652D01*
X1225023Y13783D01*
X1225056Y13923D01*
X1225088Y14078D01*
X1225113Y14243D01*
X1225121Y14423D01*
X1225129Y14612D01*
Y14628D01*
Y14661D01*
Y14718D01*
X1225121Y14784D01*
X1225113Y14874D01*
X1225105Y14980D01*
X1225097Y15095D01*
X1225080Y15210D01*
X1225023Y15473D01*
X1224949Y15735D01*
X1224900Y15858D01*
X1224842Y15981D01*
X1224777Y16096D01*
X1224703Y16194D01*
X1224695Y16202D01*
X1224687Y16219D01*
X1224662Y16243D01*
X1224629Y16276D01*
X1224588Y16317D01*
X1224539Y16358D01*
X1224416Y16456D01*
X1224260Y16547D01*
X1224088Y16629D01*
X1223989Y16661D01*
X1223891Y16686D01*
X1223785Y16702D01*
X1223670Y16711D01*
D02*
G37*
G36*
X1208893Y16711D02*
X1208828D01*
X1208787Y16702D01*
X1208729Y16694D01*
X1208672Y16686D01*
X1208516Y16653D01*
X1208352Y16604D01*
X1208164Y16530D01*
X1208073Y16481D01*
X1207983Y16424D01*
X1207893Y16350D01*
X1207811Y16276D01*
X1207803Y16268D01*
X1207794Y16260D01*
X1207770Y16235D01*
X1207745Y16202D01*
X1207712Y16153D01*
X1207672Y16104D01*
X1207631Y16047D01*
X1207590Y15973D01*
X1207549Y15899D01*
X1207508Y15809D01*
X1207425Y15612D01*
X1207368Y15391D01*
X1207352Y15268D01*
X1207335Y15136D01*
X1210402D01*
Y15145D01*
Y15169D01*
X1210394Y15202D01*
X1210386Y15251D01*
X1210378Y15308D01*
X1210369Y15374D01*
X1210336Y15522D01*
X1210287Y15694D01*
X1210230Y15866D01*
X1210148Y16030D01*
X1210050Y16170D01*
X1210041Y16178D01*
X1210033Y16194D01*
X1210000Y16219D01*
X1209968Y16251D01*
X1209927Y16293D01*
X1209869Y16342D01*
X1209803Y16391D01*
X1209738Y16440D01*
X1209656Y16489D01*
X1209566Y16538D01*
X1209369Y16629D01*
X1209262Y16661D01*
X1209147Y16686D01*
X1209025Y16702D01*
X1208893Y16711D01*
D02*
G37*
G36*
X1166581D02*
X1166516D01*
X1166475Y16702D01*
X1166417Y16694D01*
X1166360Y16686D01*
X1166204Y16653D01*
X1166040Y16604D01*
X1165851Y16530D01*
X1165761Y16481D01*
X1165671Y16424D01*
X1165581Y16350D01*
X1165499Y16276D01*
X1165491Y16268D01*
X1165483Y16260D01*
X1165458Y16235D01*
X1165433Y16202D01*
X1165401Y16153D01*
X1165359Y16104D01*
X1165318Y16047D01*
X1165277Y15973D01*
X1165236Y15899D01*
X1165195Y15809D01*
X1165114Y15612D01*
X1165056Y15391D01*
X1165040Y15268D01*
X1165023Y15136D01*
X1168090D01*
Y15145D01*
Y15169D01*
X1168082Y15202D01*
X1168074Y15251D01*
X1168065Y15308D01*
X1168057Y15374D01*
X1168025Y15522D01*
X1167975Y15694D01*
X1167918Y15866D01*
X1167836Y16030D01*
X1167737Y16170D01*
X1167729Y16178D01*
X1167721Y16194D01*
X1167688Y16219D01*
X1167655Y16251D01*
X1167614Y16293D01*
X1167557Y16342D01*
X1167492Y16391D01*
X1167426Y16440D01*
X1167344Y16489D01*
X1167254Y16538D01*
X1167057Y16629D01*
X1166950Y16661D01*
X1166835Y16686D01*
X1166712Y16702D01*
X1166581Y16711D01*
D02*
G37*
G36*
X1141309Y16711D02*
X1141243D01*
X1141202Y16702D01*
X1141145Y16694D01*
X1141088Y16686D01*
X1140932Y16653D01*
X1140768Y16604D01*
X1140579Y16530D01*
X1140489Y16481D01*
X1140399Y16424D01*
X1140308Y16350D01*
X1140226Y16276D01*
X1140218Y16268D01*
X1140210Y16260D01*
X1140186Y16235D01*
X1140161Y16202D01*
X1140128Y16153D01*
X1140087Y16104D01*
X1140046Y16047D01*
X1140005Y15973D01*
X1139964Y15899D01*
X1139923Y15809D01*
X1139841Y15612D01*
X1139784Y15391D01*
X1139767Y15268D01*
X1139751Y15136D01*
X1142818D01*
Y15145D01*
Y15169D01*
X1142809Y15202D01*
X1142801Y15251D01*
X1142793Y15308D01*
X1142785Y15374D01*
X1142752Y15522D01*
X1142703Y15694D01*
X1142645Y15866D01*
X1142564Y16030D01*
X1142465Y16170D01*
X1142457Y16178D01*
X1142449Y16194D01*
X1142416Y16219D01*
X1142383Y16251D01*
X1142342Y16293D01*
X1142285Y16342D01*
X1142219Y16391D01*
X1142153Y16440D01*
X1142072Y16489D01*
X1141981Y16538D01*
X1141784Y16629D01*
X1141678Y16661D01*
X1141563Y16686D01*
X1141440Y16702D01*
X1141309Y16711D01*
D02*
G37*
G36*
X1181555Y18793D02*
X1181489D01*
X1181423Y18777D01*
X1181333Y18761D01*
X1181235Y18736D01*
X1181128Y18687D01*
X1181021Y18630D01*
X1180923Y18548D01*
X1180915Y18539D01*
X1180882Y18507D01*
X1180849Y18449D01*
X1180800Y18383D01*
X1180759Y18293D01*
X1180718Y18195D01*
X1180685Y18080D01*
X1180677Y17949D01*
Y17941D01*
Y17916D01*
X1180685Y17883D01*
Y17842D01*
X1180702Y17785D01*
X1180718Y17719D01*
X1180735Y17654D01*
X1180767Y17580D01*
X1180776Y17572D01*
X1180784Y17547D01*
X1180808Y17506D01*
X1180833Y17457D01*
X1180874Y17400D01*
X1180923Y17326D01*
X1180972Y17252D01*
X1181038Y17170D01*
X1181456Y16694D01*
X1181464Y16702D01*
X1181481Y16711D01*
X1181514Y16727D01*
X1181555Y16752D01*
X1181661Y16817D01*
X1181784Y16907D01*
X1181915Y16998D01*
X1182047Y17104D01*
X1182161Y17211D01*
X1182202Y17268D01*
X1182243Y17318D01*
X1182251Y17334D01*
X1182268Y17367D01*
X1182301Y17424D01*
X1182333Y17490D01*
X1182366Y17580D01*
X1182399Y17678D01*
X1182415Y17793D01*
X1182424Y17908D01*
Y17916D01*
Y17924D01*
Y17974D01*
X1182407Y18047D01*
X1182391Y18137D01*
X1182358Y18236D01*
X1182317Y18342D01*
X1182251Y18449D01*
X1182170Y18548D01*
X1182161Y18556D01*
X1182129Y18588D01*
X1182071Y18630D01*
X1181997Y18670D01*
X1181915Y18720D01*
X1181809Y18753D01*
X1181686Y18785D01*
X1181555Y18793D01*
D02*
G37*
G36*
X1181071Y15604D02*
X1181063Y15596D01*
X1181038Y15587D01*
X1180997Y15563D01*
X1180948Y15530D01*
X1180882Y15489D01*
X1180816Y15440D01*
X1180661Y15333D01*
X1180488Y15202D01*
X1180316Y15063D01*
X1180169Y14915D01*
X1180103Y14841D01*
X1180046Y14767D01*
Y14759D01*
X1180037Y14751D01*
X1180005Y14702D01*
X1179964Y14628D01*
X1179914Y14529D01*
X1179865Y14415D01*
X1179824Y14284D01*
X1179792Y14144D01*
X1179783Y14005D01*
Y13996D01*
Y13988D01*
Y13956D01*
X1179792Y13923D01*
Y13882D01*
X1179800Y13833D01*
X1179832Y13718D01*
X1179873Y13570D01*
X1179939Y13406D01*
X1180029Y13234D01*
X1180079Y13144D01*
X1180144Y13054D01*
X1180152Y13045D01*
X1180161Y13029D01*
X1180185Y13004D01*
X1180210Y12980D01*
X1180251Y12939D01*
X1180300Y12898D01*
X1180415Y12808D01*
X1180562Y12717D01*
X1180743Y12635D01*
X1180841Y12611D01*
X1180948Y12586D01*
X1181063Y12570D01*
X1181186Y12562D01*
X1181227D01*
X1181259Y12570D01*
X1181341Y12578D01*
X1181448Y12594D01*
X1181579Y12627D01*
X1181727Y12668D01*
X1181882Y12734D01*
X1182047Y12816D01*
X1182055D01*
X1182063Y12832D01*
X1182088Y12840D01*
X1182120Y12865D01*
X1182202Y12922D01*
X1182309Y12996D01*
X1182415Y13094D01*
X1182539Y13209D01*
X1182653Y13340D01*
X1182760Y13488D01*
X1181071Y15604D01*
D02*
G37*
G36*
X1392606Y16702D02*
X1392549D01*
X1392500Y16694D01*
X1392450Y16686D01*
X1392385Y16678D01*
X1392237Y16637D01*
X1392073Y16579D01*
X1391983Y16538D01*
X1391901Y16489D01*
X1391811Y16432D01*
X1391720Y16358D01*
X1391630Y16284D01*
X1391548Y16194D01*
X1391540Y16186D01*
X1391532Y16170D01*
X1391507Y16145D01*
X1391483Y16104D01*
X1391450Y16047D01*
X1391417Y15981D01*
X1391376Y15907D01*
X1391335Y15817D01*
X1391294Y15719D01*
X1391253Y15612D01*
X1391220Y15489D01*
X1391187Y15358D01*
X1391163Y15210D01*
X1391138Y15054D01*
X1391130Y14882D01*
X1391122Y14702D01*
Y14694D01*
Y14652D01*
Y14595D01*
X1391130Y14521D01*
X1391138Y14439D01*
X1391146Y14333D01*
X1391155Y14218D01*
X1391179Y14103D01*
X1391228Y13841D01*
X1391302Y13578D01*
X1391352Y13455D01*
X1391409Y13340D01*
X1391475Y13226D01*
X1391548Y13127D01*
X1391556Y13119D01*
X1391565Y13103D01*
X1391589Y13078D01*
X1391622Y13054D01*
X1391671Y13013D01*
X1391720Y12971D01*
X1391844Y12881D01*
X1391999Y12791D01*
X1392180Y12709D01*
X1392286Y12685D01*
X1392393Y12660D01*
X1392508Y12643D01*
X1392622Y12635D01*
X1392688D01*
X1392729Y12643D01*
X1392787Y12652D01*
X1392852Y12660D01*
X1393000Y12701D01*
X1393164Y12758D01*
X1393254Y12799D01*
X1393344Y12840D01*
X1393434Y12898D01*
X1393524Y12963D01*
X1393615Y13037D01*
X1393697Y13127D01*
X1393705Y13136D01*
X1393713Y13152D01*
X1393738Y13176D01*
X1393762Y13217D01*
X1393795Y13275D01*
X1393836Y13340D01*
X1393877Y13414D01*
X1393918Y13505D01*
X1393951Y13603D01*
X1393992Y13718D01*
X1394033Y13849D01*
X1394066Y13988D01*
X1394090Y14136D01*
X1394115Y14300D01*
X1394123Y14480D01*
X1394131Y14669D01*
Y14677D01*
Y14710D01*
Y14767D01*
X1394123Y14833D01*
X1394115Y14915D01*
X1394107Y15013D01*
X1394090Y15120D01*
X1394074Y15235D01*
X1394025Y15481D01*
X1393943Y15735D01*
X1393894Y15858D01*
X1393828Y15973D01*
X1393762Y16087D01*
X1393680Y16186D01*
X1393672Y16194D01*
X1393664Y16210D01*
X1393639Y16235D01*
X1393598Y16268D01*
X1393557Y16309D01*
X1393508Y16350D01*
X1393377Y16448D01*
X1393221Y16538D01*
X1393041Y16621D01*
X1392942Y16653D01*
X1392836Y16678D01*
X1392721Y16694D01*
X1392606Y16702D01*
D02*
G37*
G36*
X1154650Y16702D02*
X1154593D01*
X1154544Y16694D01*
X1154494Y16686D01*
X1154429Y16678D01*
X1154281Y16637D01*
X1154117Y16579D01*
X1154027Y16538D01*
X1153945Y16489D01*
X1153855Y16432D01*
X1153765Y16358D01*
X1153675Y16284D01*
X1153592Y16194D01*
X1153584Y16186D01*
X1153576Y16170D01*
X1153551Y16145D01*
X1153527Y16104D01*
X1153494Y16047D01*
X1153461Y15981D01*
X1153420Y15907D01*
X1153379Y15817D01*
X1153338Y15719D01*
X1153297Y15612D01*
X1153265Y15489D01*
X1153232Y15358D01*
X1153207Y15210D01*
X1153183Y15054D01*
X1153174Y14882D01*
X1153166Y14702D01*
Y14694D01*
Y14652D01*
Y14595D01*
X1153174Y14521D01*
X1153183Y14439D01*
X1153191Y14333D01*
X1153199Y14218D01*
X1153224Y14103D01*
X1153273Y13841D01*
X1153347Y13578D01*
X1153396Y13455D01*
X1153453Y13340D01*
X1153519Y13226D01*
X1153592Y13127D01*
X1153601Y13119D01*
X1153609Y13103D01*
X1153633Y13078D01*
X1153666Y13054D01*
X1153716Y13013D01*
X1153765Y12971D01*
X1153888Y12881D01*
X1154043Y12791D01*
X1154224Y12709D01*
X1154331Y12685D01*
X1154437Y12660D01*
X1154552Y12643D01*
X1154667Y12635D01*
X1154732D01*
X1154773Y12643D01*
X1154831Y12652D01*
X1154896Y12660D01*
X1155044Y12701D01*
X1155208Y12758D01*
X1155298Y12799D01*
X1155388Y12840D01*
X1155478Y12898D01*
X1155569Y12963D01*
X1155659Y13037D01*
X1155741Y13127D01*
X1155749Y13136D01*
X1155757Y13152D01*
X1155782Y13176D01*
X1155807Y13217D01*
X1155839Y13275D01*
X1155880Y13340D01*
X1155921Y13414D01*
X1155962Y13505D01*
X1155995Y13603D01*
X1156036Y13718D01*
X1156077Y13849D01*
X1156110Y13988D01*
X1156135Y14136D01*
X1156159Y14300D01*
X1156167Y14480D01*
X1156176Y14669D01*
Y14677D01*
Y14710D01*
Y14767D01*
X1156167Y14833D01*
X1156159Y14915D01*
X1156151Y15013D01*
X1156135Y15120D01*
X1156118Y15235D01*
X1156069Y15481D01*
X1155987Y15735D01*
X1155938Y15858D01*
X1155872Y15973D01*
X1155807Y16087D01*
X1155725Y16186D01*
X1155716Y16194D01*
X1155708Y16210D01*
X1155684Y16235D01*
X1155643Y16268D01*
X1155602Y16309D01*
X1155552Y16350D01*
X1155421Y16448D01*
X1155265Y16538D01*
X1155085Y16621D01*
X1154986Y16653D01*
X1154880Y16678D01*
X1154765Y16694D01*
X1154650Y16702D01*
D02*
G37*
%LPD*%
D14*
X70500Y415500D02*
D03*
X426000Y55000D02*
D03*
X674000D02*
D03*
X960000Y19000D02*
D03*
X1557000Y18000D02*
D03*
X1356000Y130000D02*
D03*
X1190000D02*
D03*
X958000Y134000D02*
D03*
X181300D02*
D03*
X1525000Y415000D02*
D03*
X1275000D02*
D03*
X985000D02*
D03*
X665000D02*
D03*
X365000D02*
D03*
D15*
X1080058Y207824D02*
D03*
X1040688D02*
D03*
X123758Y132825D02*
D03*
X84388D02*
D03*
X984388Y57824D02*
D03*
X1023758D02*
D03*
X234388D02*
D03*
X273758D02*
D03*
X46888D02*
D03*
X86258D02*
D03*
X140588D02*
D03*
X179958D02*
D03*
X796888D02*
D03*
X836258D02*
D03*
X1078188D02*
D03*
X1117558D02*
D03*
X890688D02*
D03*
X930058D02*
D03*
X1061258Y132825D02*
D03*
X1021888D02*
D03*
X105058Y207824D02*
D03*
X65688D02*
D03*
X1089358Y357824D02*
D03*
X1049988D02*
D03*
X1501858Y57924D02*
D03*
X1462488D02*
D03*
X1669675Y265058D02*
D03*
Y225688D02*
D03*
Y115058D02*
D03*
Y75688D02*
D03*
X555058Y57824D02*
D03*
X515688D02*
D03*
X787488Y357824D02*
D03*
X826858D02*
D03*
X112488D02*
D03*
X151858D02*
D03*
X187488D02*
D03*
X226858D02*
D03*
X262488D02*
D03*
X301858D02*
D03*
X337488D02*
D03*
X376858D02*
D03*
X412488D02*
D03*
X451858D02*
D03*
X487488D02*
D03*
X526858D02*
D03*
X562488D02*
D03*
X601858D02*
D03*
X637488D02*
D03*
X676858D02*
D03*
X712488D02*
D03*
X751858D02*
D03*
X937488D02*
D03*
X976858D02*
D03*
X168788Y207824D02*
D03*
X208158D02*
D03*
X974988Y282824D02*
D03*
X1014358D02*
D03*
X506288Y132825D02*
D03*
X545658D02*
D03*
X843788Y207824D02*
D03*
X883158D02*
D03*
X731288Y132825D02*
D03*
X770658D02*
D03*
X356288D02*
D03*
X395658D02*
D03*
X1181288Y282824D02*
D03*
X1220658D02*
D03*
X1256288Y57824D02*
D03*
X1295658D02*
D03*
X318788Y207824D02*
D03*
X358158D02*
D03*
X1256288Y282824D02*
D03*
X1295658D02*
D03*
X37488Y470325D02*
D03*
X76858D02*
D03*
X299988Y282824D02*
D03*
X339358D02*
D03*
X187488Y470325D02*
D03*
X226858D02*
D03*
X262488D02*
D03*
X301858D02*
D03*
X337488D02*
D03*
X376858D02*
D03*
X412488D02*
D03*
X451858D02*
D03*
X524988Y470425D02*
D03*
X564358D02*
D03*
X599988D02*
D03*
X639358D02*
D03*
X674988D02*
D03*
X714358D02*
D03*
X749988D02*
D03*
X789358D02*
D03*
X862488Y470325D02*
D03*
X901858D02*
D03*
X937488D02*
D03*
X976858D02*
D03*
X1012488D02*
D03*
X1051858D02*
D03*
X1087488D02*
D03*
X1126858D02*
D03*
X899988Y282824D02*
D03*
X939358D02*
D03*
X393788Y207824D02*
D03*
X433158D02*
D03*
X806288Y132825D02*
D03*
X845658D02*
D03*
X468788Y207824D02*
D03*
X508158D02*
D03*
X1256288Y357824D02*
D03*
X1295658D02*
D03*
X543788Y207824D02*
D03*
X583158D02*
D03*
X1181288Y357824D02*
D03*
X1220658D02*
D03*
X674988Y282824D02*
D03*
X714358D02*
D03*
X618788Y207824D02*
D03*
X658158D02*
D03*
X693788D02*
D03*
X733158D02*
D03*
X1181288Y57824D02*
D03*
X1220658D02*
D03*
X768788Y207824D02*
D03*
X808158D02*
D03*
X656288Y132825D02*
D03*
X695658D02*
D03*
X581288D02*
D03*
X620658D02*
D03*
X1425088D02*
D03*
X1464458D02*
D03*
X1499988D02*
D03*
X1539358D02*
D03*
X1574988D02*
D03*
X1614358D02*
D03*
X1424988Y207824D02*
D03*
X1464358D02*
D03*
X1499988D02*
D03*
X1539358D02*
D03*
X1574988D02*
D03*
X1614358D02*
D03*
X1424988Y282824D02*
D03*
X1464358D02*
D03*
X1499988D02*
D03*
X1539358D02*
D03*
X1574988D02*
D03*
X1614358D02*
D03*
X1499988Y357824D02*
D03*
X1539358D02*
D03*
X1574988Y57824D02*
D03*
X1614358D02*
D03*
X1424988Y357824D02*
D03*
X1464358D02*
D03*
X1574988D02*
D03*
X1614358D02*
D03*
X1649988D02*
D03*
X1689358D02*
D03*
X749988Y282824D02*
D03*
X789358D02*
D03*
X1331288Y470325D02*
D03*
X1370658D02*
D03*
X1331288Y282824D02*
D03*
X1370658D02*
D03*
X1331288Y357824D02*
D03*
X1370658D02*
D03*
X1181288Y470425D02*
D03*
X1220658D02*
D03*
X824988Y282824D02*
D03*
X864358D02*
D03*
X149988D02*
D03*
X189358D02*
D03*
X918788Y207824D02*
D03*
X958158D02*
D03*
X1331288Y57824D02*
D03*
X1370658D02*
D03*
X374988Y282824D02*
D03*
X414358D02*
D03*
X1256288Y470325D02*
D03*
X1295658D02*
D03*
X881288Y132825D02*
D03*
X920658D02*
D03*
X243788Y207824D02*
D03*
X283158D02*
D03*
X862488Y357824D02*
D03*
X901858D02*
D03*
X449988Y282824D02*
D03*
X489358D02*
D03*
X1256288Y132825D02*
D03*
X1295658D02*
D03*
X599988Y282824D02*
D03*
X639358D02*
D03*
X431288Y132825D02*
D03*
X470658D02*
D03*
X37488Y357824D02*
D03*
X76858D02*
D03*
X224988Y282824D02*
D03*
X264358D02*
D03*
X281288Y132825D02*
D03*
X320658D02*
D03*
X524988Y282824D02*
D03*
X564358D02*
D03*
X206288Y132825D02*
D03*
X245658D02*
D03*
X1068788Y282824D02*
D03*
X1108158D02*
D03*
X95658D02*
D03*
X56288D02*
D03*
D16*
X1075373Y197825D02*
D03*
X1050373Y187824D02*
D03*
X119073Y122825D02*
D03*
X94073Y112824D02*
D03*
X994073Y37824D02*
D03*
X1019073Y47824D02*
D03*
X244073Y37824D02*
D03*
X269073Y47824D02*
D03*
X56573Y37824D02*
D03*
X81573Y47824D02*
D03*
X150273Y37824D02*
D03*
X175273Y47824D02*
D03*
X806573Y37824D02*
D03*
X831573Y47824D02*
D03*
X1087873Y37824D02*
D03*
X1112873Y47824D02*
D03*
X900373Y37824D02*
D03*
X925373Y47824D02*
D03*
X1056573Y122825D02*
D03*
X1031573Y112824D02*
D03*
X100373Y197825D02*
D03*
X75373Y187824D02*
D03*
X1084673Y347825D02*
D03*
X1059673Y337825D02*
D03*
X1497173Y47925D02*
D03*
X1472173Y37925D02*
D03*
X1679675Y260373D02*
D03*
X1689676Y235373D02*
D03*
X1679675Y110373D02*
D03*
X1689676Y85373D02*
D03*
X550373Y47824D02*
D03*
X525373Y37824D02*
D03*
X797173Y337825D02*
D03*
X822173Y347825D02*
D03*
X122173Y337825D02*
D03*
X147173Y347825D02*
D03*
X197173Y337825D02*
D03*
X222173Y347825D02*
D03*
X272173Y337825D02*
D03*
X297173Y347825D02*
D03*
X347173Y337825D02*
D03*
X372173Y347825D02*
D03*
X422173Y337825D02*
D03*
X447173Y347825D02*
D03*
X497173Y337825D02*
D03*
X522173Y347825D02*
D03*
X572173Y337825D02*
D03*
X597173Y347825D02*
D03*
X647173Y337825D02*
D03*
X672173Y347825D02*
D03*
X722173Y337825D02*
D03*
X747173Y347825D02*
D03*
X947173Y337825D02*
D03*
X972173Y347825D02*
D03*
X178473Y187824D02*
D03*
X203473Y197825D02*
D03*
X984673Y262825D02*
D03*
X1009673Y272825D02*
D03*
X515973Y112824D02*
D03*
X540973Y122825D02*
D03*
X853473Y187824D02*
D03*
X878473Y197825D02*
D03*
X740973Y112824D02*
D03*
X765973Y122825D02*
D03*
X365973Y112824D02*
D03*
X390973Y122825D02*
D03*
X1190973Y262825D02*
D03*
X1215973Y272825D02*
D03*
X1265973Y37824D02*
D03*
X1290973Y47824D02*
D03*
X328473Y187824D02*
D03*
X353473Y197825D02*
D03*
X1265973Y262825D02*
D03*
X1290973Y272825D02*
D03*
X47173Y450324D02*
D03*
X72173Y460324D02*
D03*
X309673Y262825D02*
D03*
X334673Y272825D02*
D03*
X197173Y450324D02*
D03*
X222173Y460324D02*
D03*
X272173Y450324D02*
D03*
X297173Y460324D02*
D03*
X347173Y450324D02*
D03*
X372173Y460324D02*
D03*
X422173Y450324D02*
D03*
X447173Y460324D02*
D03*
X534673Y450424D02*
D03*
X559673Y460425D02*
D03*
X609673Y450424D02*
D03*
X634673Y460425D02*
D03*
X684673Y450424D02*
D03*
X709673Y460425D02*
D03*
X759673Y450424D02*
D03*
X784673Y460425D02*
D03*
X872173Y450324D02*
D03*
X897173Y460324D02*
D03*
X947173Y450324D02*
D03*
X972173Y460324D02*
D03*
X1022173Y450324D02*
D03*
X1047173Y460324D02*
D03*
X1097173Y450324D02*
D03*
X1122173Y460324D02*
D03*
X909673Y262825D02*
D03*
X934673Y272825D02*
D03*
X403473Y187824D02*
D03*
X428473Y197825D02*
D03*
X815973Y112824D02*
D03*
X840973Y122825D02*
D03*
X478473Y187824D02*
D03*
X503473Y197825D02*
D03*
X1265973Y337825D02*
D03*
X1290973Y347825D02*
D03*
X553473Y187824D02*
D03*
X578473Y197825D02*
D03*
X1190973Y337825D02*
D03*
X1215973Y347825D02*
D03*
X684673Y262825D02*
D03*
X709673Y272825D02*
D03*
X628473Y187824D02*
D03*
X653473Y197825D02*
D03*
X703473Y187824D02*
D03*
X728473Y197825D02*
D03*
X1190973Y37824D02*
D03*
X1215973Y47824D02*
D03*
X778473Y187824D02*
D03*
X803473Y197825D02*
D03*
X665973Y112824D02*
D03*
X690973Y122825D02*
D03*
X590973Y112824D02*
D03*
X615973Y122825D02*
D03*
X1434773Y112824D02*
D03*
X1459773Y122825D02*
D03*
X1509673Y112824D02*
D03*
X1534673Y122825D02*
D03*
X1584673Y112824D02*
D03*
X1609673Y122825D02*
D03*
X1434673Y187824D02*
D03*
X1459673Y197825D02*
D03*
X1509673Y187824D02*
D03*
X1534673Y197825D02*
D03*
X1584673Y187824D02*
D03*
X1609673Y197825D02*
D03*
X1434673Y262825D02*
D03*
X1459673Y272825D02*
D03*
X1509673Y262825D02*
D03*
X1534673Y272825D02*
D03*
X1584673Y262825D02*
D03*
X1609673Y272825D02*
D03*
X1509673Y337825D02*
D03*
X1534673Y347825D02*
D03*
X1584673Y37824D02*
D03*
X1609673Y47824D02*
D03*
X1434673Y337825D02*
D03*
X1459673Y347825D02*
D03*
X1584673Y337825D02*
D03*
X1609673Y347825D02*
D03*
X1659673Y337825D02*
D03*
X1684673Y347825D02*
D03*
X759673Y262825D02*
D03*
X784673Y272825D02*
D03*
X1340973Y450324D02*
D03*
X1365973Y460324D02*
D03*
X1340973Y262825D02*
D03*
X1365973Y272825D02*
D03*
X1340973Y337825D02*
D03*
X1365973Y347825D02*
D03*
X1190973Y450424D02*
D03*
X1215973Y460425D02*
D03*
X834673Y262825D02*
D03*
X859673Y272825D02*
D03*
X159673Y262825D02*
D03*
X184673Y272825D02*
D03*
X928473Y187824D02*
D03*
X953473Y197825D02*
D03*
X1340973Y37824D02*
D03*
X1365973Y47824D02*
D03*
X384673Y262825D02*
D03*
X409673Y272825D02*
D03*
X1265973Y450324D02*
D03*
X1290973Y460324D02*
D03*
X890973Y112824D02*
D03*
X915973Y122825D02*
D03*
X253473Y187824D02*
D03*
X278473Y197825D02*
D03*
X872173Y337825D02*
D03*
X897173Y347825D02*
D03*
X459673Y262825D02*
D03*
X484673Y272825D02*
D03*
X1265973Y112824D02*
D03*
X1290973Y122825D02*
D03*
X609673Y262825D02*
D03*
X634673Y272825D02*
D03*
X440973Y112824D02*
D03*
X465973Y122825D02*
D03*
X47173Y337825D02*
D03*
X72173Y347825D02*
D03*
X234673Y262825D02*
D03*
X259673Y272825D02*
D03*
X290973Y112824D02*
D03*
X315973Y122825D02*
D03*
X534673Y262825D02*
D03*
X559673Y272825D02*
D03*
X215973Y112824D02*
D03*
X240973Y122825D02*
D03*
X1078473Y262825D02*
D03*
X1103473Y272825D02*
D03*
X90973D02*
D03*
X65973Y262825D02*
D03*
D17*
X1060373Y207824D02*
D03*
X104073Y132825D02*
D03*
X1004073Y57824D02*
D03*
X254073D02*
D03*
X66573D02*
D03*
X160273D02*
D03*
X816573D02*
D03*
X1097873D02*
D03*
X910373D02*
D03*
X1041573Y132825D02*
D03*
X85373Y207824D02*
D03*
X1069673Y357824D02*
D03*
X1482173Y57924D02*
D03*
X1669675Y245373D02*
D03*
Y95373D02*
D03*
X535373Y57824D02*
D03*
X807173Y357824D02*
D03*
X132173D02*
D03*
X207173D02*
D03*
X282173D02*
D03*
X357173D02*
D03*
X432173D02*
D03*
X507173D02*
D03*
X582173D02*
D03*
X657173D02*
D03*
X732173D02*
D03*
X957173D02*
D03*
X188473Y207824D02*
D03*
X994673Y282824D02*
D03*
X525973Y132825D02*
D03*
X863473Y207824D02*
D03*
X750973Y132825D02*
D03*
X375973D02*
D03*
X1200973Y282824D02*
D03*
X1275973Y57824D02*
D03*
X338473Y207824D02*
D03*
X1275973Y282824D02*
D03*
X57173Y470325D02*
D03*
X319673Y282824D02*
D03*
X207173Y470325D02*
D03*
X282173D02*
D03*
X357173D02*
D03*
X432173D02*
D03*
X544673Y470425D02*
D03*
X619673D02*
D03*
X694673D02*
D03*
X769673D02*
D03*
X882173Y470325D02*
D03*
X957173D02*
D03*
X1032173D02*
D03*
X1107173D02*
D03*
X919673Y282824D02*
D03*
X413473Y207824D02*
D03*
X825973Y132825D02*
D03*
X488473Y207824D02*
D03*
X1275973Y357824D02*
D03*
X563473Y207824D02*
D03*
X1200973Y357824D02*
D03*
X694673Y282824D02*
D03*
X638473Y207824D02*
D03*
X713473D02*
D03*
X1200973Y57824D02*
D03*
X788473Y207824D02*
D03*
X675973Y132825D02*
D03*
X600973D02*
D03*
X1444773D02*
D03*
X1519673D02*
D03*
X1594673D02*
D03*
X1444673Y207824D02*
D03*
X1519673D02*
D03*
X1594673D02*
D03*
X1444673Y282824D02*
D03*
X1519673D02*
D03*
X1594673D02*
D03*
X1519673Y357824D02*
D03*
X1594673Y57824D02*
D03*
X1444673Y357824D02*
D03*
X1594673D02*
D03*
X1669673D02*
D03*
X769673Y282824D02*
D03*
X1350973Y470325D02*
D03*
Y282824D02*
D03*
Y357824D02*
D03*
X1200973Y470425D02*
D03*
X844673Y282824D02*
D03*
X169673D02*
D03*
X938473Y207824D02*
D03*
X1350973Y57824D02*
D03*
X394673Y282824D02*
D03*
X1275973Y470325D02*
D03*
X900973Y132825D02*
D03*
X263473Y207824D02*
D03*
X882173Y357824D02*
D03*
X469673Y282824D02*
D03*
X1275973Y132825D02*
D03*
X619673Y282824D02*
D03*
X450973Y132825D02*
D03*
X57173Y357824D02*
D03*
X244673Y282824D02*
D03*
X300973Y132825D02*
D03*
X544673Y282824D02*
D03*
X225973Y132825D02*
D03*
X1088473Y282824D02*
D03*
X75973D02*
D03*
D18*
X1639200Y48400D02*
D03*
X1699200D02*
D03*
Y142400D02*
D03*
X1639200D02*
D03*
Y198400D02*
D03*
X1699200D02*
D03*
Y292400D02*
D03*
X1639200D02*
D03*
X1435200Y83300D02*
D03*
Y23300D02*
D03*
X1529200D02*
D03*
Y83300D02*
D03*
X732500Y83200D02*
D03*
Y23200D02*
D03*
X338500D02*
D03*
Y83200D02*
D03*
X994600Y158300D02*
D03*
Y98300D02*
D03*
X1088600D02*
D03*
Y158300D02*
D03*
X1013300Y233300D02*
D03*
Y173300D02*
D03*
X1107300D02*
D03*
Y233300D02*
D03*
X1022700Y383300D02*
D03*
Y323300D02*
D03*
X1116700D02*
D03*
Y383300D02*
D03*
X57000Y158300D02*
D03*
Y98300D02*
D03*
X151000D02*
D03*
Y158300D02*
D03*
D19*
X1099000Y314000D02*
D03*
X1640000Y113000D02*
D03*
X1638000Y257000D02*
D03*
X1659826Y198986D02*
D03*
X1702626Y248986D02*
D03*
X1694100Y434700D02*
D03*
X373000Y499000D02*
D03*
X974000D02*
D03*
X1702626Y98985D02*
D03*
X1659626Y48985D02*
D03*
X1599626Y398986D02*
D03*
X1549626D02*
D03*
Y48985D02*
D03*
X1499626Y448985D02*
D03*
Y398986D02*
D03*
Y348986D02*
D03*
Y198986D02*
D03*
X1449626Y498985D02*
D03*
Y448985D02*
D03*
Y398986D02*
D03*
Y48985D02*
D03*
X1399626Y498985D02*
D03*
Y448985D02*
D03*
Y398986D02*
D03*
Y348986D02*
D03*
Y198986D02*
D03*
Y48985D02*
D03*
X1349626Y398986D02*
D03*
Y198986D02*
D03*
X1299626Y498985D02*
D03*
Y448985D02*
D03*
Y398986D02*
D03*
Y298986D02*
D03*
Y148986D02*
D03*
X1249626Y498985D02*
D03*
Y398986D02*
D03*
Y348986D02*
D03*
Y48985D02*
D03*
X1199626Y398986D02*
D03*
Y198986D02*
D03*
X1149626Y348986D02*
D03*
Y198986D02*
D03*
X1099626Y398986D02*
D03*
X1049626Y498985D02*
D03*
Y448985D02*
D03*
Y398986D02*
D03*
Y348986D02*
D03*
Y198986D02*
D03*
X999626Y398986D02*
D03*
X949626D02*
D03*
Y98985D02*
D03*
X899626Y498985D02*
D03*
Y448985D02*
D03*
Y398986D02*
D03*
Y48985D02*
D03*
X849626Y498985D02*
D03*
Y398986D02*
D03*
Y198986D02*
D03*
Y148986D02*
D03*
X799626Y498985D02*
D03*
Y398986D02*
D03*
Y48985D02*
D03*
X749626Y498985D02*
D03*
Y398986D02*
D03*
Y48985D02*
D03*
X699626Y448985D02*
D03*
Y198986D02*
D03*
Y148986D02*
D03*
Y48985D02*
D03*
X649626Y498985D02*
D03*
Y398986D02*
D03*
Y48985D02*
D03*
X599626Y498985D02*
D03*
Y398986D02*
D03*
Y48985D02*
D03*
X549626Y448985D02*
D03*
Y398986D02*
D03*
Y198986D02*
D03*
Y148986D02*
D03*
X499626Y498985D02*
D03*
Y398986D02*
D03*
Y48985D02*
D03*
X449626Y498985D02*
D03*
Y448985D02*
D03*
Y398986D02*
D03*
Y48985D02*
D03*
X399626Y398986D02*
D03*
Y198986D02*
D03*
Y148986D02*
D03*
Y48985D02*
D03*
X349626Y398986D02*
D03*
Y48985D02*
D03*
X299626Y498985D02*
D03*
Y448985D02*
D03*
Y398986D02*
D03*
X249626Y198986D02*
D03*
Y148986D02*
D03*
X199626Y398986D02*
D03*
X149626Y498985D02*
D03*
Y448985D02*
D03*
Y398986D02*
D03*
Y198986D02*
D03*
Y48985D02*
D03*
X99626Y498985D02*
D03*
Y298986D02*
D03*
X49626Y398986D02*
D03*
Y198986D02*
D03*
Y148986D02*
D03*
Y48985D02*
D03*
X1065000Y239000D02*
D03*
X948000D02*
D03*
X873000D02*
D03*
X798000D02*
D03*
X723000D02*
D03*
X648000D02*
D03*
X573000D02*
D03*
X498000D02*
D03*
X423000D02*
D03*
X348000D02*
D03*
X273000D02*
D03*
X198000D02*
D03*
X95000D02*
D03*
X86000Y314000D02*
D03*
X179000D02*
D03*
X254000D02*
D03*
X329000D02*
D03*
X404000D02*
D03*
X479000D02*
D03*
X554000D02*
D03*
X629000D02*
D03*
X704000D02*
D03*
X779000D02*
D03*
X854000D02*
D03*
X929000D02*
D03*
X1004000D02*
D03*
X1074000Y388000D02*
D03*
X962000D02*
D03*
X887000D02*
D03*
X811000D02*
D03*
X736000D02*
D03*
X661000D02*
D03*
X586000D02*
D03*
X511000D02*
D03*
X436000D02*
D03*
X361000D02*
D03*
X286000D02*
D03*
X211000D02*
D03*
X137000D02*
D03*
X62000D02*
D03*
X1281000Y389000D02*
D03*
X1206000D02*
D03*
X1211000Y314000D02*
D03*
X1286000D02*
D03*
X1362000D02*
D03*
X1356000Y389000D02*
D03*
X1455000Y314000D02*
D03*
X1530000D02*
D03*
X1599000Y315000D02*
D03*
X1598000Y237000D02*
D03*
X1455000Y239000D02*
D03*
X1530000D02*
D03*
X1118000Y89000D02*
D03*
X1023000D02*
D03*
X921000D02*
D03*
X827000D02*
D03*
X546000D02*
D03*
X264000D02*
D03*
X180000D02*
D03*
X86000D02*
D03*
X115000Y165000D02*
D03*
X237000D02*
D03*
X312000D02*
D03*
X387000D02*
D03*
X462000D02*
D03*
X537000D02*
D03*
X612000D02*
D03*
X686000D02*
D03*
X762000D02*
D03*
X837000D02*
D03*
X912000D02*
D03*
X1057000D02*
D03*
X1287000D02*
D03*
X1455000D02*
D03*
X1530000D02*
D03*
X1605000D02*
D03*
X1598000Y88000D02*
D03*
X1486000Y87000D02*
D03*
X1361000Y89000D02*
D03*
X1286000D02*
D03*
X1211000D02*
D03*
X1530000Y385000D02*
D03*
X1673000Y388000D02*
D03*
X1128000Y499000D02*
D03*
X227000D02*
D03*
X1449626Y389000D02*
D03*
D20*
X1666000Y437000D02*
D03*
X1656000D02*
D03*
X1632000Y395000D02*
D03*
X1647000Y372000D02*
D03*
X1599000Y96000D02*
D03*
X1636000Y460000D02*
D03*
X1631000Y465000D02*
D03*
X1391000Y460000D02*
D03*
Y348000D02*
D03*
Y273000D02*
D03*
Y48000D02*
D03*
X1315000Y460000D02*
D03*
Y348000D02*
D03*
Y273000D02*
D03*
Y123000D02*
D03*
Y48000D02*
D03*
X1697000Y452000D02*
D03*
X1704000D02*
D03*
X1711000D02*
D03*
X1239000Y460000D02*
D03*
Y348000D02*
D03*
X1239264Y272983D02*
D03*
X1239000Y48000D02*
D03*
X1147000Y460000D02*
D03*
X1117000Y348000D02*
D03*
X1132054Y272819D02*
D03*
X1072000Y460000D02*
D03*
X997000Y348000D02*
D03*
X1039000Y273000D02*
D03*
X1104000Y198000D02*
D03*
X1147000Y48000D02*
D03*
X1619000Y471000D02*
D03*
X996000Y460000D02*
D03*
X921000Y348000D02*
D03*
X958000Y273000D02*
D03*
X977000Y198000D02*
D03*
X1081000Y123000D02*
D03*
X1052000Y48000D02*
D03*
X1611000Y471000D02*
D03*
X922000Y460000D02*
D03*
X846000Y348000D02*
D03*
X884000Y273000D02*
D03*
X902000Y198000D02*
D03*
X940000Y123000D02*
D03*
X958000Y48000D02*
D03*
X1603000Y471000D02*
D03*
X810000Y460000D02*
D03*
X772000Y348000D02*
D03*
X809000Y273000D02*
D03*
X828000Y198000D02*
D03*
X865000Y123000D02*
D03*
Y48000D02*
D03*
X1595000Y471000D02*
D03*
X1587000D02*
D03*
X1579000D02*
D03*
X1711000Y472000D02*
D03*
X1704000D02*
D03*
X1697000D02*
D03*
X1619600Y420600D02*
D03*
X1645455Y444745D02*
D03*
X1626800Y413200D02*
D03*
X1712000Y407000D02*
D03*
X1706500Y401500D02*
D03*
X1704000Y493000D02*
D03*
X1697000D02*
D03*
X1711000D02*
D03*
X734000Y460000D02*
D03*
X697000Y348000D02*
D03*
X735000Y273000D02*
D03*
X753000Y198000D02*
D03*
X790000Y123000D02*
D03*
X659000Y460000D02*
D03*
X622000Y348000D02*
D03*
X659000Y273000D02*
D03*
X677000Y198000D02*
D03*
X715000Y123000D02*
D03*
X584000Y460000D02*
D03*
X470000D02*
D03*
X396000D02*
D03*
X323000D02*
D03*
X248000D02*
D03*
X546000Y348000D02*
D03*
X583000Y273000D02*
D03*
X602000Y198000D02*
D03*
X640000Y123000D02*
D03*
X470000Y348000D02*
D03*
X508000Y273000D02*
D03*
X527000Y198000D02*
D03*
X565000Y123000D02*
D03*
X577000Y48000D02*
D03*
X396000Y348000D02*
D03*
X434000Y273000D02*
D03*
X455000Y198000D02*
D03*
X492000Y123000D02*
D03*
X323000Y348000D02*
D03*
X361000Y273000D02*
D03*
X379000Y198000D02*
D03*
X417000Y123000D02*
D03*
X248000Y348000D02*
D03*
X285000Y273000D02*
D03*
X303000Y198000D02*
D03*
X342000Y123000D02*
D03*
X302000Y48000D02*
D03*
X171000Y348000D02*
D03*
X209000Y273000D02*
D03*
X228000Y198000D02*
D03*
X265000Y123000D02*
D03*
X204000Y48000D02*
D03*
X95000Y460000D02*
D03*
Y348000D02*
D03*
X131000Y273000D02*
D03*
Y198000D02*
D03*
X139000Y136000D02*
D03*
X113000Y59000D02*
D03*
X1556600Y444700D02*
D03*
X1406000Y506000D02*
D03*
X1627000Y379000D02*
D03*
X1616000D02*
D03*
X1637000Y388000D02*
D03*
X1616000D02*
D03*
X1630000Y310000D02*
D03*
X1637000Y272000D02*
D03*
X1598000Y244000D02*
D03*
X1711000Y181000D02*
D03*
X1632000Y171000D02*
D03*
X1635577Y101577D02*
D03*
X1473000Y366000D02*
D03*
Y334000D02*
D03*
Y292000D02*
D03*
X1472922Y260078D02*
D03*
X1473000Y217000D02*
D03*
Y184000D02*
D03*
Y141000D02*
D03*
Y111000D02*
D03*
X1510500Y67600D02*
D03*
X1548000Y367000D02*
D03*
Y337000D02*
D03*
Y293000D02*
D03*
Y261500D02*
D03*
Y218000D02*
D03*
Y184500D02*
D03*
Y144000D02*
D03*
X1616000Y395000D02*
D03*
X1706500Y375000D02*
D03*
X1623000Y335000D02*
D03*
X1622500Y294000D02*
D03*
X1623000Y244500D02*
D03*
Y221000D02*
D03*
Y184000D02*
D03*
Y141500D02*
D03*
X1622500Y95500D02*
D03*
Y73500D02*
D03*
X1704000Y259000D02*
D03*
X1620900Y488100D02*
D03*
Y496600D02*
D03*
X1620600Y504700D02*
D03*
Y530000D02*
D03*
Y513200D02*
D03*
Y521600D02*
D03*
M02*
