<?xml version="1.0"?>
<!-- Generated by SVGo -->
<svg width="448.627mm" height="148.827mm"
     viewBox="0.000 0.000 448.627 148.827"
     xmlns="http://www.w3.org/2000/svg" 
     xmlns:xlink="http://www.w3.org/1999/xlink">
<polygon points="438.627,5.001 439.019,5.016 439.409,5.062 439.794,5.139 440.172,5.245 440.540,5.381 440.896,5.545 441.239,5.737 441.565,5.955 441.874,6.198 442.162,6.465 442.429,6.753 442.672,7.062 442.890,7.388 443.082,7.731 443.246,8.087 443.382,8.455 443.488,8.833 443.565,9.218 443.611,9.608 443.627,10.001 443.627,138.827 443.611,139.219 443.565,139.609 443.488,139.994 443.382,140.372 443.246,140.740 443.082,141.096 442.890,141.439 442.672,141.765 442.429,142.074 442.162,142.362 441.874,142.629 441.565,142.872 441.239,143.090 440.896,143.282 440.540,143.446 440.172,143.582 439.794,143.688 439.409,143.765 439.019,143.811 438.627,143.827 10.001,143.827 9.608,143.811 9.218,143.765 8.833,143.688 8.455,143.582 8.087,143.446 7.731,143.282 7.388,143.090 7.062,142.872 6.753,142.629 6.465,142.362 6.198,142.074 5.955,141.765 5.737,141.439 5.545,141.096 5.381,140.740 5.245,140.372 5.139,139.994 5.062,139.609 5.016,139.219 5.000,138.827 5.001,10.001 5.016,9.608 5.062,9.218 5.139,8.833 5.245,8.455 5.381,8.087 5.545,7.731 5.737,7.388 5.955,7.062 6.198,6.753 6.465,6.465 6.753,6.198 7.062,5.955 7.388,5.737 7.731,5.545 8.087,5.381 8.455,5.245 8.833,5.139 9.218,5.062 9.608,5.016 10.001,5.000" style="fill:none;stroke-width:0.050000mm;stroke:black"/>
<polygon points="374.476,122.301 374.476,123.301 373.676,123.301 373.676,126.401 374.476,126.401 374.476,127.001 372.951,127.001 372.951,123.771 371.226,123.771 371.226,122.851 367.926,122.851 367.926,123.771 366.201,123.771 366.201,127.001 365.376,127.001 365.376,129.801 366.201,129.801 366.201,136.071 367.926,136.071 367.926,137.051 371.226,137.051 371.226,136.071 372.951,136.071 372.951,131.601 374.476,131.601 374.476,132.201 373.676,132.201 373.676,135.301 374.476,135.301 374.476,136.301 388.476,136.301 388.476,135.301 389.276,135.301 389.276,132.201 388.476,132.201 388.476,131.601 390.001,131.601 390.001,136.071 391.726,136.071 391.726,137.051 395.026,137.051 395.026,136.071 396.751,136.071 396.751,129.801 397.576,129.801 397.576,127.001 396.751,127.001 396.751,123.771 395.026,123.771 395.026,122.851 391.726,122.851 391.726,123.771 390.001,123.771 390.001,127.001 388.476,127.001 388.476,126.401 389.276,126.401 389.276,123.301 388.476,123.301 388.476,122.301" style="fill:none;stroke-width:0.050000mm;stroke:black"/>
<polygon points="133.969,122.301 133.969,123.301 133.169,123.301 133.169,126.401 133.969,126.401 133.969,127.001 94.344,127.001 94.344,123.771 92.619,123.771 92.619,122.851 89.319,122.851 89.319,123.771 87.594,123.771 87.594,127.001 86.769,127.001 86.769,129.801 87.594,129.801 87.594,136.071 89.319,136.071 89.319,137.051 92.619,137.051 92.619,136.071 94.344,136.071 94.344,131.601 133.969,131.601 133.969,132.201 133.169,132.201 133.169,135.301 133.969,135.301 133.969,136.301 147.969,136.301 147.969,135.301 148.769,135.301 148.769,132.201 147.969,132.201 147.969,131.601 187.594,131.601 187.594,136.071 189.319,136.071 189.319,137.051 192.619,137.051 192.619,136.071 194.344,136.071 194.344,129.801 195.169,129.801 195.169,127.001 194.344,127.001 194.344,123.771 192.619,123.771 192.619,122.851 189.319,122.851 189.319,123.771 187.594,123.771 187.594,127.001 147.969,127.001 147.969,126.401 148.769,126.401 148.769,123.301 147.969,123.301 147.969,122.301" style="fill:none;stroke-width:0.050000mm;stroke:black"/>
<polygon points="403.051,122.301 403.051,123.301 402.251,123.301 402.251,126.401 403.051,126.401 403.051,132.201 402.251,132.201 402.251,135.301 403.051,135.301 403.051,136.301 417.051,136.301 417.051,135.301 417.851,135.301 417.851,132.201 417.051,132.201 417.051,126.401 417.851,126.401 417.851,123.301 417.051,123.301 417.051,122.301" style="fill:none;stroke-width:0.050000mm;stroke:black"/>
<polygon points="341.138,122.301 341.138,123.301 340.338,123.301 340.338,126.401 341.138,126.401 341.138,132.201 340.338,132.201 340.338,135.301 341.138,135.301 341.138,136.301 355.138,136.301 355.138,135.301 355.938,135.301 355.938,132.201 355.138,132.201 355.138,126.401 355.938,126.401 355.938,123.301 355.138,123.301 355.138,122.301" style="fill:none;stroke-width:0.050000mm;stroke:black"/>
<polygon points="322.088,122.301 322.088,123.301 321.288,123.301 321.288,126.401 322.088,126.401 322.088,132.201 321.288,132.201 321.288,135.301 322.088,135.301 322.088,136.301 336.088,136.301 336.088,135.301 336.888,135.301 336.888,132.201 336.088,132.201 336.088,126.401 336.888,126.401 336.888,123.301 336.088,123.301 336.088,122.301" style="fill:none;stroke-width:0.050000mm;stroke:black"/>
<polygon points="303.038,122.301 303.038,123.301 302.238,123.301 302.238,126.401 303.038,126.401 303.038,132.201 302.238,132.201 302.238,135.301 303.038,135.301 303.038,136.301 317.038,136.301 317.038,135.301 317.838,135.301 317.838,132.201 317.038,132.201 317.038,126.401 317.838,126.401 317.838,123.301 317.038,123.301 317.038,122.301" style="fill:none;stroke-width:0.050000mm;stroke:black"/>
<polygon points="276.844,122.301 276.844,123.301 276.044,123.301 276.044,126.401 276.844,126.401 276.844,132.201 276.044,132.201 276.044,135.301 276.844,135.301 276.844,136.301 290.844,136.301 290.844,135.301 291.644,135.301 291.644,132.201 290.844,132.201 290.844,126.401 291.644,126.401 291.644,123.301 290.844,123.301 290.844,122.301" style="fill:none;stroke-width:0.050000mm;stroke:black"/>
<polygon points="253.032,122.301 253.032,123.301 252.232,123.301 252.232,126.401 253.032,126.401 253.032,132.201 252.232,132.201 252.232,135.301 253.032,135.301 253.032,136.301 267.032,136.301 267.032,135.301 267.832,135.301 267.832,132.201 267.032,132.201 267.032,126.401 267.832,126.401 267.832,123.301 267.032,123.301 267.032,122.301" style="fill:none;stroke-width:0.050000mm;stroke:black"/>
<polygon points="229.219,122.301 229.219,123.301 228.419,123.301 228.419,126.401 229.219,126.401 229.219,132.201 228.419,132.201 228.419,135.301 229.219,135.301 229.219,136.301 243.219,136.301 243.219,135.301 244.019,135.301 244.019,132.201 243.219,132.201 243.219,126.401 244.019,126.401 244.019,123.301 243.219,123.301 243.219,122.301" style="fill:none;stroke-width:0.050000mm;stroke:black"/>
<polygon points="205.407,122.301 205.407,123.301 204.607,123.301 204.607,126.401 205.407,126.401 205.407,132.201 204.607,132.201 204.607,135.301 205.407,135.301 205.407,136.301 219.407,136.301 219.407,135.301 220.207,135.301 220.207,132.201 219.407,132.201 219.407,126.401 220.207,126.401 220.207,123.301 219.407,123.301 219.407,122.301" style="fill:none;stroke-width:0.050000mm;stroke:black"/>
<polygon points="62.532,122.301 62.532,123.301 61.732,123.301 61.732,126.401 62.532,126.401 62.532,132.201 61.732,132.201 61.732,135.301 62.532,135.301 62.532,136.301 76.532,136.301 76.532,135.301 77.332,135.301 77.332,132.201 76.532,132.201 76.532,126.401 77.332,126.401 77.332,123.301 76.532,123.301 76.532,122.301" style="fill:none;stroke-width:0.050000mm;stroke:black"/>
<polygon points="38.719,122.301 38.719,123.301 37.919,123.301 37.919,126.401 38.719,126.401 38.719,132.201 37.919,132.201 37.919,135.301 38.719,135.301 38.719,136.301 52.719,136.301 52.719,135.301 53.519,135.301 53.519,132.201 52.719,132.201 52.719,126.401 53.519,126.401 53.519,123.301 52.719,123.301 52.719,122.301" style="fill:none;stroke-width:0.050000mm;stroke:black"/>
<polygon points="14.907,122.301 14.907,123.301 14.107,123.301 14.107,126.401 14.907,126.401 14.907,132.201 14.107,132.201 14.107,135.301 14.907,135.301 14.907,136.301 28.907,136.301 28.907,135.301 29.707,135.301 29.707,132.201 28.907,132.201 28.907,126.401 29.707,126.401 29.707,123.301 28.907,123.301 28.907,122.301" style="fill:none;stroke-width:0.050000mm;stroke:black"/>
<polygon points="428.601,103.676 428.601,104.501 422.331,104.501 422.331,106.226 421.351,106.226 421.351,109.526 422.331,109.526 422.331,111.251 426.801,111.251 426.801,112.776 426.201,112.776 426.201,111.976 423.101,111.976 423.101,112.776 422.101,112.776 422.101,126.776 423.101,126.776 423.101,127.576 426.201,127.576 426.201,126.776 426.801,126.776 426.801,128.301 422.331,128.301 422.331,130.026 421.351,130.026 421.351,133.326 422.331,133.326 422.331,135.051 428.601,135.051 428.601,135.876 431.401,135.876 431.401,135.051 434.631,135.051 434.631,133.326 435.551,133.326 435.551,130.026 434.631,130.026 434.631,128.301 431.401,128.301 431.401,126.776 432.001,126.776 432.001,127.576 435.101,127.576 435.101,126.776 436.101,126.776 436.101,112.776 435.101,112.776 435.101,111.976 432.001,111.976 432.001,112.776 431.401,112.776 431.401,111.251 434.631,111.251 434.631,109.526 435.551,109.526 435.551,106.226 434.631,106.226 434.631,104.501 431.401,104.501 431.401,103.676" style="fill:none;stroke-width:0.050000mm;stroke:black"/>
<polygon points="262.557,103.251 262.557,104.251 261.756,104.251 261.756,107.351 262.557,107.351 262.557,107.951 261.032,107.951 261.032,104.721 259.306,104.721 259.306,103.801 256.006,103.801 256.006,104.721 254.282,104.721 254.282,107.951 253.457,107.951 253.457,110.751 254.282,110.751 254.282,117.021 256.006,117.021 256.006,118.001 259.306,118.001 259.306,117.021 261.032,117.021 261.032,112.551 262.557,112.551 262.557,113.151 261.756,113.151 261.756,116.251 262.557,116.251 262.557,117.251 276.557,117.251 276.557,116.251 277.357,116.251 277.357,113.151 276.557,113.151 276.557,112.551 278.082,112.551 278.082,117.021 279.807,117.021 279.807,118.001 283.107,118.001 283.107,117.021 284.832,117.021 284.832,110.751 285.657,110.751 285.657,107.951 284.832,107.951 284.832,104.721 283.107,104.721 283.107,103.801 279.807,103.801 279.807,104.721 278.082,104.721 278.082,107.951 276.557,107.951 276.557,107.351 277.357,107.351 277.357,104.251 276.557,104.251 276.557,103.251" style="fill:none;stroke-width:0.050000mm;stroke:black"/>
<polygon points="24.432,103.251 24.432,104.251 23.632,104.251 23.632,107.351 24.432,107.351 24.432,107.951 22.907,107.951 22.907,104.721 21.182,104.721 21.182,103.801 17.882,103.801 17.882,104.721 16.156,104.721 16.156,107.951 15.332,107.951 15.332,110.751 16.156,110.751 16.156,117.021 17.882,117.021 17.882,118.001 21.182,118.001 21.182,117.021 22.907,117.021 22.907,112.551 24.432,112.551 24.432,113.151 23.632,113.151 23.632,116.251 24.432,116.251 24.432,117.251 38.432,117.251 38.432,116.251 39.232,116.251 39.232,113.151 38.432,113.151 38.432,112.551 39.957,112.551 39.957,117.021 41.682,117.021 41.682,118.001 44.982,118.001 44.982,117.021 46.707,117.021 46.707,110.751 47.532,110.751 47.532,107.951 46.707,107.951 46.707,104.721 44.982,104.721 44.982,103.801 41.682,103.801 41.682,104.721 39.957,104.721 39.957,107.951 38.432,107.951 38.432,107.351 39.232,107.351 39.232,104.251 38.432,104.251 38.432,103.251" style="fill:none;stroke-width:0.050000mm;stroke:black"/>
<polygon points="403.051,103.251 403.051,104.251 402.251,104.251 402.251,107.351 403.051,107.351 403.051,113.151 402.251,113.151 402.251,116.251 403.051,116.251 403.051,117.251 417.051,117.251 417.051,116.251 417.851,116.251 417.851,113.151 417.051,113.151 417.051,107.351 417.851,107.351 417.851,104.251 417.051,104.251 417.051,103.251" style="fill:none;stroke-width:0.050000mm;stroke:black"/>
<polygon points="384.001,103.251 384.001,104.251 383.201,104.251 383.201,107.351 384.001,107.351 384.001,113.151 383.201,113.151 383.201,116.251 384.001,116.251 384.001,117.251 398.001,117.251 398.001,116.251 398.801,116.251 398.801,113.151 398.001,113.151 398.001,107.351 398.801,107.351 398.801,104.251 398.001,104.251 398.001,103.251" style="fill:none;stroke-width:0.050000mm;stroke:black"/>
<polygon points="364.951,103.251 364.951,104.251 364.151,104.251 364.151,107.351 364.951,107.351 364.951,113.151 364.151,113.151 364.151,116.251 364.951,116.251 364.951,117.251 378.951,117.251 378.951,116.251 379.751,116.251 379.751,113.151 378.951,113.151 378.951,107.351 379.751,107.351 379.751,104.251 378.951,104.251 378.951,103.251" style="fill:none;stroke-width:0.050000mm;stroke:black"/>
<polygon points="322.088,103.251 322.088,104.251 321.288,104.251 321.288,107.351 322.088,107.351 322.088,113.151 321.288,113.151 321.288,116.251 322.088,116.251 322.088,117.251 336.088,117.251 336.088,116.251 336.888,116.251 336.888,113.151 336.088,113.151 336.088,107.351 336.888,107.351 336.888,104.251 336.088,104.251 336.088,103.251" style="fill:none;stroke-width:0.050000mm;stroke:black"/>
<polygon points="226.838,103.251 226.838,104.251 226.038,104.251 226.038,107.351 226.838,107.351 226.838,113.151 226.038,113.151 226.038,116.251 226.838,116.251 226.838,117.251 240.838,117.251 240.838,116.251 241.638,116.251 241.638,113.151 240.838,113.151 240.838,107.351 241.638,107.351 241.638,104.251 240.838,104.251 240.838,103.251" style="fill:none;stroke-width:0.050000mm;stroke:black"/>
<polygon points="207.788,103.251 207.788,104.251 206.988,104.251 206.988,107.351 207.788,107.351 207.788,113.151 206.988,113.151 206.988,116.251 207.788,116.251 207.788,117.251 221.788,117.251 221.788,116.251 222.588,116.251 222.588,113.151 221.788,113.151 221.788,107.351 222.588,107.351 222.588,104.251 221.788,104.251 221.788,103.251" style="fill:none;stroke-width:0.050000mm;stroke:black"/>
<polygon points="188.738,103.251 188.738,104.251 187.938,104.251 187.938,107.351 188.738,107.351 188.738,113.151 187.938,113.151 187.938,116.251 188.738,116.251 188.738,117.251 202.738,117.251 202.738,116.251 203.538,116.251 203.538,113.151 202.738,113.151 202.738,107.351 203.538,107.351 203.538,104.251 202.738,104.251 202.738,103.251" style="fill:none;stroke-width:0.050000mm;stroke:black"/>
<polygon points="169.688,103.251 169.688,104.251 168.888,104.251 168.888,107.351 169.688,107.351 169.688,113.151 168.888,113.151 168.888,116.251 169.688,116.251 169.688,117.251 183.688,117.251 183.688,116.251 184.488,116.251 184.488,113.151 183.688,113.151 183.688,107.351 184.488,107.351 184.488,104.251 183.688,104.251 183.688,103.251" style="fill:none;stroke-width:0.050000mm;stroke:black"/>
<polygon points="150.638,103.251 150.638,104.251 149.838,104.251 149.838,107.351 150.638,107.351 150.638,113.151 149.838,113.151 149.838,116.251 150.638,116.251 150.638,117.251 164.638,117.251 164.638,116.251 165.438,116.251 165.438,113.151 164.638,113.151 164.638,107.351 165.438,107.351 165.438,104.251 164.638,104.251 164.638,103.251" style="fill:none;stroke-width:0.050000mm;stroke:black"/>
<polygon points="131.588,103.251 131.588,104.251 130.788,104.251 130.788,107.351 131.588,107.351 131.588,113.151 130.788,113.151 130.788,116.251 131.588,116.251 131.588,117.251 145.588,117.251 145.588,116.251 146.388,116.251 146.388,113.151 145.588,113.151 145.588,107.351 146.388,107.351 146.388,104.251 145.588,104.251 145.588,103.251" style="fill:none;stroke-width:0.050000mm;stroke:black"/>
<polygon points="112.538,103.251 112.538,104.251 111.738,104.251 111.738,107.351 112.538,107.351 112.538,113.151 111.738,113.151 111.738,116.251 112.538,116.251 112.538,117.251 126.538,117.251 126.538,116.251 127.338,116.251 127.338,113.151 126.538,113.151 126.538,107.351 127.338,107.351 127.338,104.251 126.538,104.251 126.538,103.251" style="fill:none;stroke-width:0.050000mm;stroke:black"/>
<polygon points="93.488,103.251 93.488,104.251 92.688,104.251 92.688,107.351 93.488,107.351 93.488,113.151 92.688,113.151 92.688,116.251 93.488,116.251 93.488,117.251 107.488,117.251 107.488,116.251 108.288,116.251 108.288,113.151 107.488,113.151 107.488,107.351 108.288,107.351 108.288,104.251 107.488,104.251 107.488,103.251" style="fill:none;stroke-width:0.050000mm;stroke:black"/>
<polygon points="74.438,103.251 74.438,104.251 73.638,104.251 73.638,107.351 74.438,107.351 74.438,113.151 73.638,113.151 73.638,116.251 74.438,116.251 74.438,117.251 88.438,117.251 88.438,116.251 89.238,116.251 89.238,113.151 88.438,113.151 88.438,107.351 89.238,107.351 89.238,104.251 88.438,104.251 88.438,103.251" style="fill:none;stroke-width:0.050000mm;stroke:black"/>
<polygon points="55.388,103.251 55.388,104.251 54.588,104.251 54.588,107.351 55.388,107.351 55.388,113.151 54.588,113.151 54.588,116.251 55.388,116.251 55.388,117.251 69.388,117.251 69.388,116.251 70.188,116.251 70.188,113.151 69.388,113.151 69.388,107.351 70.188,107.351 70.188,104.251 69.388,104.251 69.388,103.251" style="fill:none;stroke-width:0.050000mm;stroke:black"/>
<polygon points="267.319,84.201 267.319,85.201 266.519,85.201 266.519,88.301 267.319,88.301 267.319,88.901 265.794,88.901 265.794,85.671 264.069,85.671 264.069,84.751 260.768,84.751 260.768,85.671 259.044,85.671 259.044,88.901 258.219,88.901 258.219,91.701 259.044,91.701 259.044,97.971 260.768,97.971 260.768,98.951 264.069,98.951 264.069,97.971 265.794,97.971 265.794,93.501 267.319,93.501 267.319,94.101 266.519,94.101 266.519,97.201 267.319,97.201 267.319,98.201 281.319,98.201 281.319,97.201 282.119,97.201 282.119,94.101 281.319,94.101 281.319,93.501 282.844,93.501 282.844,97.971 284.569,97.971 284.569,98.951 287.869,98.951 287.869,97.971 289.594,97.971 289.594,91.701 290.419,91.701 290.419,88.901 289.594,88.901 289.594,85.671 287.869,85.671 287.869,84.751 284.569,84.751 284.569,85.671 282.844,85.671 282.844,88.901 281.319,88.901 281.319,88.301 282.119,88.301 282.119,85.201 281.319,85.201 281.319,84.201" style="fill:none;stroke-width:0.050000mm;stroke:black"/>
<polygon points="403.051,84.201 403.051,85.201 402.251,85.201 402.251,88.301 403.051,88.301 403.051,94.101 402.251,94.101 402.251,97.201 403.051,97.201 403.051,98.201 417.051,98.201 417.051,97.201 417.851,97.201 417.851,94.101 417.051,94.101 417.051,88.301 417.851,88.301 417.851,85.201 417.051,85.201 417.051,84.201" style="fill:none;stroke-width:0.050000mm;stroke:black"/>
<polygon points="384.001,84.201 384.001,85.201 383.201,85.201 383.201,88.301 384.001,88.301 384.001,94.101 383.201,94.101 383.201,97.201 384.001,97.201 384.001,98.201 398.001,98.201 398.001,97.201 398.801,97.201 398.801,94.101 398.001,94.101 398.001,88.301 398.801,88.301 398.801,85.201 398.001,85.201 398.001,84.201" style="fill:none;stroke-width:0.050000mm;stroke:black"/>
<polygon points="364.951,84.201 364.951,85.201 364.151,85.201 364.151,88.301 364.951,88.301 364.951,94.101 364.151,94.101 364.151,97.201 364.951,97.201 364.951,98.201 378.951,98.201 378.951,97.201 379.751,97.201 379.751,94.101 378.951,94.101 378.951,88.301 379.751,88.301 379.751,85.201 378.951,85.201 378.951,84.201" style="fill:none;stroke-width:0.050000mm;stroke:black"/>
<polygon points="236.363,84.201 236.363,85.201 235.563,85.201 235.563,88.301 236.363,88.301 236.363,94.101 235.563,94.101 235.563,97.201 236.363,97.201 236.363,98.201 250.363,98.201 250.363,97.201 251.163,97.201 251.163,94.101 250.363,94.101 250.363,88.301 251.163,88.301 251.163,85.201 250.363,85.201 250.363,84.201" style="fill:none;stroke-width:0.050000mm;stroke:black"/>
<polygon points="217.313,84.201 217.313,85.201 216.513,85.201 216.513,88.301 217.313,88.301 217.313,94.101 216.513,94.101 216.513,97.201 217.313,97.201 217.313,98.201 231.313,98.201 231.313,97.201 232.113,97.201 232.113,94.101 231.313,94.101 231.313,88.301 232.113,88.301 232.113,85.201 231.313,85.201 231.313,84.201" style="fill:none;stroke-width:0.050000mm;stroke:black"/>
<polygon points="198.263,84.201 198.263,85.201 197.463,85.201 197.463,88.301 198.263,88.301 198.263,94.101 197.463,94.101 197.463,97.201 198.263,97.201 198.263,98.201 212.263,98.201 212.263,97.201 213.063,97.201 213.063,94.101 212.263,94.101 212.263,88.301 213.063,88.301 213.063,85.201 212.263,85.201 212.263,84.201" style="fill:none;stroke-width:0.050000mm;stroke:black"/>
<polygon points="179.213,84.201 179.213,85.201 178.413,85.201 178.413,88.301 179.213,88.301 179.213,94.101 178.413,94.101 178.413,97.201 179.213,97.201 179.213,98.201 193.213,98.201 193.213,97.201 194.013,97.201 194.013,94.101 193.213,94.101 193.213,88.301 194.013,88.301 194.013,85.201 193.213,85.201 193.213,84.201" style="fill:none;stroke-width:0.050000mm;stroke:black"/>
<polygon points="160.163,84.201 160.163,85.201 159.363,85.201 159.363,88.301 160.163,88.301 160.163,94.101 159.363,94.101 159.363,97.201 160.163,97.201 160.163,98.201 174.163,98.201 174.163,97.201 174.963,97.201 174.963,94.101 174.163,94.101 174.163,88.301 174.963,88.301 174.963,85.201 174.163,85.201 174.163,84.201" style="fill:none;stroke-width:0.050000mm;stroke:black"/>
<polygon points="141.113,84.201 141.113,85.201 140.313,85.201 140.313,88.301 141.113,88.301 141.113,94.101 140.313,94.101 140.313,97.201 141.113,97.201 141.113,98.201 155.113,98.201 155.113,97.201 155.913,97.201 155.913,94.101 155.113,94.101 155.113,88.301 155.913,88.301 155.913,85.201 155.113,85.201 155.113,84.201" style="fill:none;stroke-width:0.050000mm;stroke:black"/>
<polygon points="122.063,84.201 122.063,85.201 121.263,85.201 121.263,88.301 122.063,88.301 122.063,94.101 121.263,94.101 121.263,97.201 122.063,97.201 122.063,98.201 136.063,98.201 136.063,97.201 136.863,97.201 136.863,94.101 136.063,94.101 136.063,88.301 136.863,88.301 136.863,85.201 136.063,85.201 136.063,84.201" style="fill:none;stroke-width:0.050000mm;stroke:black"/>
<polygon points="103.013,84.201 103.013,85.201 102.213,85.201 102.213,88.301 103.013,88.301 103.013,94.101 102.213,94.101 102.213,97.201 103.013,97.201 103.013,98.201 117.013,98.201 117.013,97.201 117.813,97.201 117.813,94.101 117.013,94.101 117.013,88.301 117.813,88.301 117.813,85.201 117.013,85.201 117.013,84.201" style="fill:none;stroke-width:0.050000mm;stroke:black"/>
<polygon points="83.963,84.201 83.963,85.201 83.163,85.201 83.163,88.301 83.963,88.301 83.963,94.101 83.163,94.101 83.163,97.201 83.963,97.201 83.963,98.201 97.963,98.201 97.963,97.201 98.763,97.201 98.763,94.101 97.963,94.101 97.963,88.301 98.763,88.301 98.763,85.201 97.963,85.201 97.963,84.201" style="fill:none;stroke-width:0.050000mm;stroke:black"/>
<polygon points="64.913,84.201 64.913,85.201 64.112,85.201 64.112,88.301 64.913,88.301 64.913,94.101 64.112,94.101 64.112,97.201 64.913,97.201 64.913,98.201 78.913,98.201 78.913,97.201 79.713,97.201 79.713,94.101 78.913,94.101 78.913,88.301 79.713,88.301 79.713,85.201 78.913,85.201 78.913,84.201" style="fill:none;stroke-width:0.050000mm;stroke:black"/>
<polygon points="45.863,84.201 45.863,85.201 45.063,85.201 45.063,88.301 45.863,88.301 45.863,94.101 45.063,94.101 45.063,97.201 45.863,97.201 45.863,98.201 59.863,98.201 59.863,97.201 60.663,97.201 60.663,94.101 59.863,94.101 59.863,88.301 60.663,88.301 60.663,85.201 59.863,85.201 59.863,84.201" style="fill:none;stroke-width:0.050000mm;stroke:black"/>
<polygon points="19.669,84.201 19.669,85.201 18.869,85.201 18.869,88.301 19.669,88.301 19.669,94.101 18.869,94.101 18.869,97.201 19.669,97.201 19.669,98.201 33.669,98.201 33.669,97.201 34.469,97.201 34.469,94.101 33.669,94.101 33.669,88.301 34.469,88.301 34.469,85.201 33.669,85.201 33.669,84.201" style="fill:none;stroke-width:0.050000mm;stroke:black"/>
<polygon points="428.601,65.576 428.601,66.401 422.331,66.401 422.331,68.126 421.351,68.126 421.351,71.426 422.331,71.426 422.331,73.151 426.801,73.151 426.801,74.676 426.201,74.676 426.201,73.876 423.101,73.876 423.101,74.676 422.101,74.676 422.101,88.676 423.101,88.676 423.101,89.476 426.201,89.476 426.201,88.676 426.801,88.676 426.801,90.201 422.331,90.201 422.331,91.926 421.351,91.926 421.351,95.226 422.331,95.226 422.331,96.951 428.601,96.951 428.601,97.776 431.401,97.776 431.401,96.951 434.631,96.951 434.631,95.226 435.551,95.226 435.551,91.926 434.631,91.926 434.631,90.201 431.401,90.201 431.401,88.676 432.001,88.676 432.001,89.476 435.101,89.476 435.101,88.676 436.101,88.676 436.101,74.676 435.101,74.676 435.101,73.876 432.001,73.876 432.001,74.676 431.401,74.676 431.401,73.151 434.631,73.151 434.631,71.426 435.551,71.426 435.551,68.126 434.631,68.126 434.631,66.401 431.401,66.401 431.401,65.576" style="fill:none;stroke-width:0.050000mm;stroke:black"/>
<polygon points="403.051,65.151 403.051,66.151 402.251,66.151 402.251,69.251 403.051,69.251 403.051,75.051 402.251,75.051 402.251,78.151 403.051,78.151 403.051,79.151 417.051,79.151 417.051,78.151 417.851,78.151 417.851,75.051 417.051,75.051 417.051,69.251 417.851,69.251 417.851,66.151 417.051,66.151 417.051,65.151" style="fill:none;stroke-width:0.050000mm;stroke:black"/>
<polygon points="384.001,65.151 384.001,66.151 383.201,66.151 383.201,69.251 384.001,69.251 384.001,75.051 383.201,75.051 383.201,78.151 384.001,78.151 384.001,79.151 398.001,79.151 398.001,78.151 398.801,78.151 398.801,75.051 398.001,75.051 398.001,69.251 398.801,69.251 398.801,66.151 398.001,66.151 398.001,65.151" style="fill:none;stroke-width:0.050000mm;stroke:black"/>
<polygon points="364.951,65.151 364.951,66.151 364.151,66.151 364.151,69.251 364.951,69.251 364.951,75.051 364.151,75.051 364.151,78.151 364.951,78.151 364.951,79.151 378.951,79.151 378.951,78.151 379.751,78.151 379.751,75.051 378.951,75.051 378.951,69.251 379.751,69.251 379.751,66.151 378.951,66.151 378.951,65.151" style="fill:none;stroke-width:0.050000mm;stroke:black"/>
<polygon points="341.138,65.151 341.138,66.151 340.338,66.151 340.338,69.251 341.138,69.251 341.138,75.051 340.338,75.051 340.338,78.151 341.138,78.151 341.138,79.151 355.138,79.151 355.138,78.151 355.938,78.151 355.938,75.051 355.138,75.051 355.138,69.251 355.938,69.251 355.938,66.151 355.138,66.151 355.138,65.151" style="fill:none;stroke-width:0.050000mm;stroke:black"/>
<polygon points="322.088,65.151 322.088,66.151 321.288,66.151 321.288,69.251 322.088,69.251 322.088,75.051 321.288,75.051 321.288,78.151 322.088,78.151 322.088,79.151 336.088,79.151 336.088,78.151 336.888,78.151 336.888,75.051 336.088,75.051 336.088,69.251 336.888,69.251 336.888,66.151 336.088,66.151 336.088,65.151" style="fill:none;stroke-width:0.050000mm;stroke:black"/>
<polygon points="303.038,65.151 303.038,66.151 302.238,66.151 302.238,69.251 303.038,69.251 303.038,75.051 302.238,75.051 302.238,78.151 303.038,78.151 303.038,79.151 317.038,79.151 317.038,78.151 317.838,78.151 317.838,75.051 317.038,75.051 317.038,69.251 317.838,69.251 317.838,66.151 317.038,66.151 317.038,65.151" style="fill:none;stroke-width:0.050000mm;stroke:black"/>
<polygon points="274.463,65.151 274.463,66.151 273.663,66.151 273.663,69.251 274.463,69.251 274.463,75.051 273.663,75.051 273.663,78.151 274.463,78.151 274.463,79.151 288.463,79.151 288.463,78.151 289.263,78.151 289.263,75.051 288.463,75.051 288.463,69.251 289.263,69.251 289.263,66.151 288.463,66.151 288.463,65.151" style="fill:none;stroke-width:0.050000mm;stroke:black"/>
<polygon points="250.651,65.151 250.651,66.151 249.851,66.151 249.851,69.251 250.651,69.251 250.651,75.051 249.851,75.051 249.851,78.151 250.651,78.151 250.651,79.151 264.651,79.151 264.651,78.151 265.451,78.151 265.451,75.051 264.651,75.051 264.651,69.251 265.451,69.251 265.451,66.151 264.651,66.151 264.651,65.151" style="fill:none;stroke-width:0.050000mm;stroke:black"/>
<polygon points="231.601,65.151 231.601,66.151 230.801,66.151 230.801,69.251 231.601,69.251 231.601,75.051 230.801,75.051 230.801,78.151 231.601,78.151 231.601,79.151 245.601,79.151 245.601,78.151 246.401,78.151 246.401,75.051 245.601,75.051 245.601,69.251 246.401,69.251 246.401,66.151 245.601,66.151 245.601,65.151" style="fill:none;stroke-width:0.050000mm;stroke:black"/>
<polygon points="212.551,65.151 212.551,66.151 211.751,66.151 211.751,69.251 212.551,69.251 212.551,75.051 211.751,75.051 211.751,78.151 212.551,78.151 212.551,79.151 226.551,79.151 226.551,78.151 227.351,78.151 227.351,75.051 226.551,75.051 226.551,69.251 227.351,69.251 227.351,66.151 226.551,66.151 226.551,65.151" style="fill:none;stroke-width:0.050000mm;stroke:black"/>
<polygon points="193.501,65.151 193.501,66.151 192.701,66.151 192.701,69.251 193.501,69.251 193.501,75.051 192.701,75.051 192.701,78.151 193.501,78.151 193.501,79.151 207.501,79.151 207.501,78.151 208.301,78.151 208.301,75.051 207.501,75.051 207.501,69.251 208.301,69.251 208.301,66.151 207.501,66.151 207.501,65.151" style="fill:none;stroke-width:0.050000mm;stroke:black"/>
<polygon points="174.451,65.151 174.451,66.151 173.651,66.151 173.651,69.251 174.451,69.251 174.451,75.051 173.651,75.051 173.651,78.151 174.451,78.151 174.451,79.151 188.451,79.151 188.451,78.151 189.251,78.151 189.251,75.051 188.451,75.051 188.451,69.251 189.251,69.251 189.251,66.151 188.451,66.151 188.451,65.151" style="fill:none;stroke-width:0.050000mm;stroke:black"/>
<polygon points="155.401,65.151 155.401,66.151 154.601,66.151 154.601,69.251 155.401,69.251 155.401,75.051 154.601,75.051 154.601,78.151 155.401,78.151 155.401,79.151 169.401,79.151 169.401,78.151 170.201,78.151 170.201,75.051 169.401,75.051 169.401,69.251 170.201,69.251 170.201,66.151 169.401,66.151 169.401,65.151" style="fill:none;stroke-width:0.050000mm;stroke:black"/>
<polygon points="136.351,65.151 136.351,66.151 135.550,66.151 135.550,69.251 136.351,69.251 136.351,75.051 135.550,75.051 135.550,78.151 136.351,78.151 136.351,79.151 150.351,79.151 150.351,78.151 151.151,78.151 151.151,75.051 150.351,75.051 150.351,69.251 151.151,69.251 151.151,66.151 150.351,66.151 150.351,65.151" style="fill:none;stroke-width:0.050000mm;stroke:black"/>
<polygon points="117.301,65.151 117.301,66.151 116.501,66.151 116.501,69.251 117.301,69.251 117.301,75.051 116.501,75.051 116.501,78.151 117.301,78.151 117.301,79.151 131.301,79.151 131.301,78.151 132.101,78.151 132.101,75.051 131.301,75.051 131.301,69.251 132.101,69.251 132.101,66.151 131.301,66.151 131.301,65.151" style="fill:none;stroke-width:0.050000mm;stroke:black"/>
<polygon points="98.251,65.151 98.251,66.151 97.451,66.151 97.451,69.251 98.251,69.251 98.251,75.051 97.451,75.051 97.451,78.151 98.251,78.151 98.251,79.151 112.251,79.151 112.251,78.151 113.051,78.151 113.051,75.051 112.251,75.051 112.251,69.251 113.051,69.251 113.051,66.151 112.251,66.151 112.251,65.151" style="fill:none;stroke-width:0.050000mm;stroke:black"/>
<polygon points="79.201,65.151 79.201,66.151 78.401,66.151 78.401,69.251 79.201,69.251 79.201,75.051 78.401,75.051 78.401,78.151 79.201,78.151 79.201,79.151 93.201,79.151 93.201,78.151 94.001,78.151 94.001,75.051 93.201,75.051 93.201,69.251 94.001,69.251 94.001,66.151 93.201,66.151 93.201,65.151" style="fill:none;stroke-width:0.050000mm;stroke:black"/>
<polygon points="60.151,65.151 60.151,66.151 59.351,66.151 59.351,69.251 60.151,69.251 60.151,75.051 59.351,75.051 59.351,78.151 60.151,78.151 60.151,79.151 74.151,79.151 74.151,78.151 74.951,78.151 74.951,75.051 74.151,75.051 74.151,69.251 74.951,69.251 74.951,66.151 74.151,66.151 74.151,65.151" style="fill:none;stroke-width:0.050000mm;stroke:black"/>
<polygon points="41.101,65.151 41.101,66.151 40.301,66.151 40.301,69.251 41.101,69.251 41.101,75.051 40.301,75.051 40.301,78.151 41.101,78.151 41.101,79.151 55.101,79.151 55.101,78.151 55.901,78.151 55.901,75.051 55.101,75.051 55.101,69.251 55.901,69.251 55.901,66.151 55.101,66.151 55.101,65.151" style="fill:none;stroke-width:0.050000mm;stroke:black"/>
<polygon points="17.288,65.151 17.288,66.151 16.488,66.151 16.488,69.251 17.288,69.251 17.288,75.051 16.488,75.051 16.488,78.151 17.288,78.151 17.288,79.151 31.288,79.151 31.288,78.151 32.088,78.151 32.088,75.051 31.288,75.051 31.288,69.251 32.088,69.251 32.088,66.151 31.288,66.151 31.288,65.151" style="fill:none;stroke-width:0.050000mm;stroke:black"/>
<polygon points="269.701,46.101 269.701,47.101 268.901,47.101 268.901,50.201 269.701,50.201 269.701,50.801 268.176,50.801 268.176,47.571 266.451,47.571 266.451,46.651 263.151,46.651 263.151,47.571 261.426,47.571 261.426,50.801 260.601,50.801 260.601,53.601 261.426,53.601 261.426,59.871 263.151,59.871 263.151,60.851 266.451,60.851 266.451,59.871 268.176,59.871 268.176,55.401 269.701,55.401 269.701,56.001 268.901,56.001 268.901,59.101 269.701,59.101 269.701,60.101 283.701,60.101 283.701,59.101 284.501,59.101 284.501,56.001 283.701,56.001 283.701,55.401 285.226,55.401 285.226,59.871 286.951,59.871 286.951,60.851 290.251,60.851 290.251,59.871 291.976,59.871 291.976,53.601 292.801,53.601 292.801,50.801 291.976,50.801 291.976,47.571 290.251,47.571 290.251,46.651 286.951,46.651 286.951,47.571 285.226,47.571 285.226,50.801 283.701,50.801 283.701,50.201 284.501,50.201 284.501,47.101 283.701,47.101 283.701,46.101" style="fill:none;stroke-width:0.050000mm;stroke:black"/>
<polygon points="422.101,46.101 422.101,47.101 421.301,47.101 421.301,50.201 422.101,50.201 422.101,56.001 421.301,56.001 421.301,59.101 422.101,59.101 422.101,60.101 436.101,60.101 436.101,59.101 436.901,59.101 436.901,56.001 436.101,56.001 436.101,50.201 436.901,50.201 436.901,47.101 436.101,47.101 436.101,46.101" style="fill:none;stroke-width:0.050000mm;stroke:black"/>
<polygon points="403.051,46.101 403.051,47.101 402.251,47.101 402.251,50.201 403.051,50.201 403.051,56.001 402.251,56.001 402.251,59.101 403.051,59.101 403.051,60.101 417.051,60.101 417.051,59.101 417.851,59.101 417.851,56.001 417.051,56.001 417.051,50.201 417.851,50.201 417.851,47.101 417.051,47.101 417.051,46.101" style="fill:none;stroke-width:0.050000mm;stroke:black"/>
<polygon points="384.001,46.101 384.001,47.101 383.201,47.101 383.201,50.201 384.001,50.201 384.001,56.001 383.201,56.001 383.201,59.101 384.001,59.101 384.001,60.101 398.001,60.101 398.001,59.101 398.801,59.101 398.801,56.001 398.001,56.001 398.001,50.201 398.801,50.201 398.801,47.101 398.001,47.101 398.001,46.101" style="fill:none;stroke-width:0.050000mm;stroke:black"/>
<polygon points="364.951,46.101 364.951,47.101 364.151,47.101 364.151,50.201 364.951,50.201 364.951,56.001 364.151,56.001 364.151,59.101 364.951,59.101 364.951,60.101 378.951,60.101 378.951,59.101 379.751,59.101 379.751,56.001 378.951,56.001 378.951,50.201 379.751,50.201 379.751,47.101 378.951,47.101 378.951,46.101" style="fill:none;stroke-width:0.050000mm;stroke:black"/>
<polygon points="341.138,46.101 341.138,47.101 340.338,47.101 340.338,50.201 341.138,50.201 341.138,56.001 340.338,56.001 340.338,59.101 341.138,59.101 341.138,60.101 355.138,60.101 355.138,59.101 355.938,59.101 355.938,56.001 355.138,56.001 355.138,50.201 355.938,50.201 355.938,47.101 355.138,47.101 355.138,46.101" style="fill:none;stroke-width:0.050000mm;stroke:black"/>
<polygon points="322.088,46.101 322.088,47.101 321.288,47.101 321.288,50.201 322.088,50.201 322.088,56.001 321.288,56.001 321.288,59.101 322.088,59.101 322.088,60.101 336.088,60.101 336.088,59.101 336.888,59.101 336.888,56.001 336.088,56.001 336.088,50.201 336.888,50.201 336.888,47.101 336.088,47.101 336.088,46.101" style="fill:none;stroke-width:0.050000mm;stroke:black"/>
<polygon points="303.038,46.101 303.038,47.101 302.238,47.101 302.238,50.201 303.038,50.201 303.038,56.001 302.238,56.001 302.238,59.101 303.038,59.101 303.038,60.101 317.038,60.101 317.038,59.101 317.838,59.101 317.838,56.001 317.038,56.001 317.038,50.201 317.838,50.201 317.838,47.101 317.038,47.101 317.038,46.101" style="fill:none;stroke-width:0.050000mm;stroke:black"/>
<polygon points="241.126,46.101 241.126,47.101 240.326,47.101 240.326,50.201 241.126,50.201 241.126,56.001 240.326,56.001 240.326,59.101 241.126,59.101 241.126,60.101 255.126,60.101 255.126,59.101 255.926,59.101 255.926,56.001 255.126,56.001 255.126,50.201 255.926,50.201 255.926,47.101 255.126,47.101 255.126,46.101" style="fill:none;stroke-width:0.050000mm;stroke:black"/>
<polygon points="222.076,46.101 222.076,47.101 221.276,47.101 221.276,50.201 222.076,50.201 222.076,56.001 221.276,56.001 221.276,59.101 222.076,59.101 222.076,60.101 236.076,60.101 236.076,59.101 236.876,59.101 236.876,56.001 236.076,56.001 236.076,50.201 236.876,50.201 236.876,47.101 236.076,47.101 236.076,46.101" style="fill:none;stroke-width:0.050000mm;stroke:black"/>
<polygon points="203.026,46.101 203.026,47.101 202.226,47.101 202.226,50.201 203.026,50.201 203.026,56.001 202.226,56.001 202.226,59.101 203.026,59.101 203.026,60.101 217.026,60.101 217.026,59.101 217.826,59.101 217.826,56.001 217.026,56.001 217.026,50.201 217.826,50.201 217.826,47.101 217.026,47.101 217.026,46.101" style="fill:none;stroke-width:0.050000mm;stroke:black"/>
<polygon points="183.976,46.101 183.976,47.101 183.176,47.101 183.176,50.201 183.976,50.201 183.976,56.001 183.176,56.001 183.176,59.101 183.976,59.101 183.976,60.101 197.976,60.101 197.976,59.101 198.776,59.101 198.776,56.001 197.976,56.001 197.976,50.201 198.776,50.201 198.776,47.101 197.976,47.101 197.976,46.101" style="fill:none;stroke-width:0.050000mm;stroke:black"/>
<polygon points="164.926,46.101 164.926,47.101 164.126,47.101 164.126,50.201 164.926,50.201 164.926,56.001 164.126,56.001 164.126,59.101 164.926,59.101 164.926,60.101 178.926,60.101 178.926,59.101 179.726,59.101 179.726,56.001 178.926,56.001 178.926,50.201 179.726,50.201 179.726,47.101 178.926,47.101 178.926,46.101" style="fill:none;stroke-width:0.050000mm;stroke:black"/>
<polygon points="145.876,46.101 145.876,47.101 145.076,47.101 145.076,50.201 145.876,50.201 145.876,56.001 145.076,56.001 145.076,59.101 145.876,59.101 145.876,60.101 159.876,60.101 159.876,59.101 160.676,59.101 160.676,56.001 159.876,56.001 159.876,50.201 160.676,50.201 160.676,47.101 159.876,47.101 159.876,46.101" style="fill:none;stroke-width:0.050000mm;stroke:black"/>
<polygon points="126.825,46.101 126.825,47.101 126.025,47.101 126.025,50.201 126.825,50.201 126.825,56.001 126.025,56.001 126.025,59.101 126.825,59.101 126.825,60.101 140.826,60.101 140.826,59.101 141.626,59.101 141.626,56.001 140.826,56.001 140.826,50.201 141.626,50.201 141.626,47.101 140.826,47.101 140.826,46.101" style="fill:none;stroke-width:0.050000mm;stroke:black"/>
<polygon points="107.775,46.101 107.775,47.101 106.976,47.101 106.976,50.201 107.775,50.201 107.775,56.001 106.976,56.001 106.976,59.101 107.775,59.101 107.775,60.101 121.775,60.101 121.775,59.101 122.575,59.101 122.575,56.001 121.775,56.001 121.775,50.201 122.575,50.201 122.575,47.101 121.775,47.101 121.775,46.101" style="fill:none;stroke-width:0.050000mm;stroke:black"/>
<polygon points="88.726,46.101 88.726,47.101 87.926,47.101 87.926,50.201 88.726,50.201 88.726,56.001 87.926,56.001 87.926,59.101 88.726,59.101 88.726,60.101 102.726,60.101 102.726,59.101 103.525,59.101 103.525,56.001 102.726,56.001 102.726,50.201 103.525,50.201 103.525,47.101 102.726,47.101 102.726,46.101" style="fill:none;stroke-width:0.050000mm;stroke:black"/>
<polygon points="69.676,46.101 69.676,47.101 68.876,47.101 68.876,50.201 69.676,50.201 69.676,56.001 68.876,56.001 68.876,59.101 69.676,59.101 69.676,60.101 83.676,60.101 83.676,59.101 84.476,59.101 84.476,56.001 83.676,56.001 83.676,50.201 84.476,50.201 84.476,47.101 83.676,47.101 83.676,46.101" style="fill:none;stroke-width:0.050000mm;stroke:black"/>
<polygon points="50.626,46.101 50.626,47.101 49.826,47.101 49.826,50.201 50.626,50.201 50.626,56.001 49.826,56.001 49.826,59.101 50.626,59.101 50.626,60.101 64.626,60.101 64.626,59.101 65.426,59.101 65.426,56.001 64.626,56.001 64.626,50.201 65.426,50.201 65.426,47.101 64.626,47.101 64.626,46.101" style="fill:none;stroke-width:0.050000mm;stroke:black"/>
<polygon points="31.576,46.101 31.576,47.101 30.776,47.101 30.776,50.201 31.576,50.201 31.576,56.001 30.776,56.001 30.776,59.101 31.576,59.101 31.576,60.101 45.576,60.101 45.576,59.101 46.376,59.101 46.376,56.001 45.576,56.001 45.576,50.201 46.376,50.201 46.376,47.101 45.576,47.101 45.576,46.101" style="fill:none;stroke-width:0.050000mm;stroke:black"/>
<polygon points="12.525,46.101 12.525,47.101 11.725,47.101 11.725,50.201 12.525,50.201 12.525,56.001 11.725,56.001 11.725,59.101 12.525,59.101 12.525,60.101 26.526,60.101 26.526,59.101 27.326,59.101 27.326,56.001 26.526,56.001 26.526,50.201 27.326,50.201 27.326,47.101 26.526,47.101 26.526,46.101" style="fill:none;stroke-width:0.050000mm;stroke:black"/>
<polygon points="341.138,17.526 341.138,18.526 340.338,18.526 340.338,21.626 341.138,21.626 341.138,27.425 340.338,27.425 340.338,30.526 341.138,30.526 341.138,31.526 355.138,31.526 355.138,30.526 355.938,30.526 355.938,27.425 355.138,27.425 355.138,21.626 355.938,21.626 355.938,18.526 355.138,18.526 355.138,17.526" style="fill:none;stroke-width:0.050000mm;stroke:black"/>
<polygon points="322.088,17.526 322.088,18.526 321.288,18.526 321.288,21.626 322.088,21.626 322.088,27.425 321.288,27.425 321.288,30.526 322.088,30.526 322.088,31.526 336.088,31.526 336.088,30.526 336.888,30.526 336.888,27.425 336.088,27.425 336.088,21.626 336.888,21.626 336.888,18.526 336.088,18.526 336.088,17.526" style="fill:none;stroke-width:0.050000mm;stroke:black"/>
<polygon points="303.038,17.526 303.038,18.526 302.238,18.526 302.238,21.626 303.038,21.626 303.038,27.425 302.238,27.425 302.238,30.526 303.038,30.526 303.038,31.526 317.038,31.526 317.038,30.526 317.838,30.526 317.838,27.425 317.038,27.425 317.038,21.626 317.838,21.626 317.838,18.526 317.038,18.526 317.038,17.526" style="fill:none;stroke-width:0.050000mm;stroke:black"/>
<polygon points="279.226,17.526 279.226,18.526 278.426,18.526 278.426,21.626 279.226,21.626 279.226,27.425 278.426,27.425 278.426,30.526 279.226,30.526 279.226,31.526 293.226,31.526 293.226,30.526 294.026,30.526 294.026,27.425 293.226,27.425 293.226,21.626 294.026,21.626 294.026,18.526 293.226,18.526 293.226,17.526" style="fill:none;stroke-width:0.050000mm;stroke:black"/>
<polygon points="260.176,17.526 260.176,18.526 259.376,18.526 259.376,21.626 260.176,21.626 260.176,27.425 259.376,27.425 259.376,30.526 260.176,30.526 260.176,31.526 274.176,31.526 274.176,30.526 274.976,30.526 274.976,27.425 274.176,27.425 274.176,21.626 274.976,21.626 274.976,18.526 274.176,18.526 274.176,17.526" style="fill:none;stroke-width:0.050000mm;stroke:black"/>
<polygon points="241.126,17.526 241.126,18.526 240.326,18.526 240.326,21.626 241.126,21.626 241.126,27.425 240.326,27.425 240.326,30.526 241.126,30.526 241.126,31.526 255.126,31.526 255.126,30.526 255.926,30.526 255.926,27.425 255.126,27.425 255.126,21.626 255.926,21.626 255.926,18.526 255.126,18.526 255.126,17.526" style="fill:none;stroke-width:0.050000mm;stroke:black"/>
<polygon points="222.076,17.526 222.076,18.526 221.276,18.526 221.276,21.626 222.076,21.626 222.076,27.425 221.276,27.425 221.276,30.526 222.076,30.526 222.076,31.526 236.076,31.526 236.076,30.526 236.876,30.526 236.876,27.425 236.076,27.425 236.076,21.626 236.876,21.626 236.876,18.526 236.076,18.526 236.076,17.526" style="fill:none;stroke-width:0.050000mm;stroke:black"/>
<polygon points="193.501,17.526 193.501,18.526 192.701,18.526 192.701,21.626 193.501,21.626 193.501,27.425 192.701,27.425 192.701,30.526 193.501,30.526 193.501,31.526 207.501,31.526 207.501,30.526 208.301,30.526 208.301,27.425 207.501,27.425 207.501,21.626 208.301,21.626 208.301,18.526 207.501,18.526 207.501,17.526" style="fill:none;stroke-width:0.050000mm;stroke:black"/>
<polygon points="174.451,17.526 174.451,18.526 173.651,18.526 173.651,21.626 174.451,21.626 174.451,27.425 173.651,27.425 173.651,30.526 174.451,30.526 174.451,31.526 188.451,31.526 188.451,30.526 189.251,30.526 189.251,27.425 188.451,27.425 188.451,21.626 189.251,21.626 189.251,18.526 188.451,18.526 188.451,17.526" style="fill:none;stroke-width:0.050000mm;stroke:black"/>
<polygon points="155.401,17.526 155.401,18.526 154.601,18.526 154.601,21.626 155.401,21.626 155.401,27.425 154.601,27.425 154.601,30.526 155.401,30.526 155.401,31.526 169.401,31.526 169.401,30.526 170.201,30.526 170.201,27.425 169.401,27.425 169.401,21.626 170.201,21.626 170.201,18.526 169.401,18.526 169.401,17.526" style="fill:none;stroke-width:0.050000mm;stroke:black"/>
<polygon points="136.351,17.526 136.351,18.526 135.550,18.526 135.550,21.626 136.351,21.626 136.351,27.425 135.550,27.425 135.550,30.526 136.351,30.526 136.351,31.526 150.351,31.526 150.351,30.526 151.151,30.526 151.151,27.425 150.351,27.425 150.351,21.626 151.151,21.626 151.151,18.526 150.351,18.526 150.351,17.526" style="fill:none;stroke-width:0.050000mm;stroke:black"/>
<polygon points="107.775,17.526 107.775,18.526 106.976,18.526 106.976,21.626 107.775,21.626 107.775,27.425 106.976,27.425 106.976,30.526 107.775,30.526 107.775,31.526 121.775,31.526 121.775,30.526 122.575,30.526 122.575,27.425 121.775,27.425 121.775,21.626 122.575,21.626 122.575,18.526 121.775,18.526 121.775,17.526" style="fill:none;stroke-width:0.050000mm;stroke:black"/>
<polygon points="88.726,17.526 88.726,18.526 87.926,18.526 87.926,21.626 88.726,21.626 88.726,27.425 87.926,27.425 87.926,30.526 88.726,30.526 88.726,31.526 102.726,31.526 102.726,30.526 103.525,30.526 103.525,27.425 102.726,27.425 102.726,21.626 103.525,21.626 103.525,18.526 102.726,18.526 102.726,17.526" style="fill:none;stroke-width:0.050000mm;stroke:black"/>
<polygon points="69.676,17.526 69.676,18.526 68.876,18.526 68.876,21.626 69.676,21.626 69.676,27.425 68.876,27.425 68.876,30.526 69.676,30.526 69.676,31.526 83.676,31.526 83.676,30.526 84.476,30.526 84.476,27.425 83.676,27.425 83.676,21.626 84.476,21.626 84.476,18.526 83.676,18.526 83.676,17.526" style="fill:none;stroke-width:0.050000mm;stroke:black"/>
<polygon points="50.626,17.526 50.626,18.526 49.826,18.526 49.826,21.626 50.626,21.626 50.626,27.425 49.826,27.425 49.826,30.526 50.626,30.526 50.626,31.526 64.626,31.526 64.626,30.526 65.426,30.526 65.426,27.425 64.626,27.425 64.626,21.626 65.426,21.626 65.426,18.526 64.626,18.526 64.626,17.526" style="fill:none;stroke-width:0.050000mm;stroke:black"/>
<polygon points="12.525,17.526 12.525,18.526 11.725,18.526 11.725,21.626 12.525,21.626 12.525,27.425 11.725,27.425 11.725,30.526 12.525,30.526 12.525,31.526 26.526,31.526 26.526,30.526 27.326,30.526 27.326,27.425 26.526,27.425 26.526,21.626 27.326,21.626 27.326,18.526 26.526,18.526 26.526,17.526" style="fill:none;stroke-width:0.050000mm;stroke:black"/>
</svg>
